<?xml version="1.0" encoding="utf-8"?>
<!-- Generator: Adobe Illustrator 17.0.0, SVG Export Plug-In . SVG Version: 6.00 Build 0)  -->
<!DOCTYPE svg PUBLIC "-//W3C//DTD SVG 1.0//EN" "http://www.w3.org/TR/2001/REC-SVG-20010904/DTD/svg10.dtd">
<svg version="1.0" id="图层_1" xmlns="http://www.w3.org/2000/svg" xmlns:xlink="http://www.w3.org/1999/xlink" x="0px" y="0px"
	 width="142px" height="1872px" viewBox="0 0 142 1872" enable-background="new 0 0 142 1872" xml:space="preserve">
<g>
	<path fill="#252935" d="M85.579,67.215c-1.366,0-2.821-0.206-3.924-0.555c-1.222-0.385-2.619-1.208-2.619-1.208
		s2.901-2.13,3.634-3.607c0.815-1.504-0.009-2.527-1.52-2.527h-2.926v-2.791h3.898c0.747,0,1.468,0.024,2.473,0.072l0.151,0.007
		v-1.342l-0.151,0.007c-0.983,0.047-1.704,0.071-2.473,0.071h-3.897c0.002-0.937,0.025-1.693,0.07-2.405l0.01-0.154H75.94
		l0.009,0.154c0.045,0.715,0.068,1.473,0.07,2.405h-3.86c-0.817,0-1.753-0.024-2.782-0.071l-0.152-0.007v1.341l0.152-0.006
		c1.052-0.048,2.012-0.072,2.854-0.072h3.789v2.791l-4.912,0.004v1.198c0,0,0.249,0.001,0.491,0.001
		c0.919,2.573,3.93,4.923,3.93,4.923s-1.235,0.85-3.395,1.388c-1.01,0.252-2.167,0.457-3.348,0.552l-0.352,0.028l0.269,0.227
		c0.596,0.503,0.99,0.87,1.172,1.413l0.042,0.123l0.127-0.027c1.1-0.24,2.255-0.596,3.45-1.005c1.74-0.596,3.596-1.588,3.596-1.588
		s1.969,1.09,3.376,1.578c0.933,0.323,2.472,0.779,4.23,1.063l0.154,0.025l0.014-0.155c0.045-0.495,0.324-0.93,0.831-1.618
		l0.17-0.231H85.579z"/>
	<path fill="#252935" d="M90.439,74.456c-0.752-0.699-1.674-1.053-2.736-1.053c-1.059,0-1.979,0.354-2.737,1.053
		c-0.753,0.694-1.135,1.54-1.135,2.516c0,0.977,0.382,1.823,1.134,2.517c0.753,0.689,1.674,1.038,2.738,1.038
		c1.067,0,1.989-0.349,2.737-1.038c0.752-0.694,1.134-1.54,1.134-2.517C91.574,75.997,91.193,75.15,90.439,74.456z"/>
	<polygon fill="#252935" points="67.66,80.527 67.018,78.926 63.687,78.926 63.056,80.527 62.027,80.527 64.849,73.403 
		65.878,73.403 68.7,80.527 	"/>
	<path fill="#252935" d="M47.675,60.892H40.49c0,0,0.314-0.406,0.406-0.551c0.104-0.167,0.269-0.411,0.269-0.411h7.528l-0.007-0.153
		c-0.048-0.936-0.071-1.513-0.071-2.041v-1.712c0-0.241,0.002-0.494,0.009-0.757c0.01-0.472,0.199-1.672-1.574-1.672H36.708h-0.152
		l0.007,0.153c0.048,0.901,0.072,1.666,0.072,2.276v1.569c0,0.705-0.024,1.33-0.072,2.184l-0.008,0.153h2.649
		c0,0-0.092,0.191-0.328,0.472c-0.659,0.79-1.335,1.236-2.519,1.76c-1.082,0.478-1.845,0.54-1.845,0.54l0.805,1.297
		c0,0,1.644-0.32,3.19-1.25c0.69-0.416,1.138-0.835,1.138-0.835h1.834c0,0-1.005,1.455-3.286,2.427
		c-1.615,0.688-2.77,0.881-2.77,0.881l0.907,1.248c0,0,1.126-0.207,2.893-1.027c1.041-0.484,2.266-1.186,3.335-2.374
		c0.588-0.655,0.932-1.155,0.932-1.155h1.54c0,0-0.761,1.449-2.085,2.519c-1.486,1.201-2.917,1.915-4.298,2.368
		c-2.163,0.711-2.861,0.796-2.861,0.796l0.897,1.424c0,0,2.433-0.67,4.104-1.449c1.707-0.797,3.047-1.656,4.39-3.139
		c0.882-0.973,1.665-2.519,1.665-2.519h0.395c0.297,0,0.441,0.188,0.347,0.792c-0.016,0.099-0.308,2.95-0.378,3.418
		c-0.094,0.625-0.44,0.876-1.07,0.967c-0.915,0.134-2.377,0.145-2.377,0.145s0.533,0.86,0.699,1.435
		c0.034,0.121,0.071,0.269,0.071,0.269c1.058-0.048,2.448-0.195,3.15-0.436c0.665-0.228,1.222-0.712,1.345-1.666
		c0.075-0.587,0.269-2.397,0.459-4.191C49.591,61.658,49.467,60.892,47.675,60.892z"/>
	<path fill="#252935" d="M66.928,67.091c-0.892,0.047-1.78,0.071-2.639,0.071h-0.938c0.36-0.399,0.831-0.799,1.235-1.024
		l0.148-0.082l-0.104-0.133c-0.336-0.431-0.867-1.962-1.579-2.767l-0.037-0.042c0.635,0.007,1.326,0.03,2.066,0.069l0.152,0.007
		v-1.404l-0.152,0.007c-0.943,0.047-1.807,0.071-2.568,0.071h-2.169v-2.773h1.156c0.945,0,1.856,0.024,2.71,0.072l0.153,0.008
		v-1.405l-0.153,0.008c-0.848,0.047-1.759,0.071-2.71,0.071h-4.505c-0.951,0-1.885-0.024-2.781-0.071l-0.153-0.008v1.484
		l0.161-0.017c0.897-0.095,1.607-0.143,2.598-0.143h1.225v2.773h-1.907c-0.901,0-1.716-0.024-2.423-0.071l-0.154-0.01v1.487
		l0.161-0.017c0.9-0.095,1.713-0.143,2.416-0.143h1.907v4.051h-3.767c-0.811,0-1.651-0.024-2.495-0.071l-0.153-0.008v1.486
		l0.153-0.008c0.846-0.047,1.685-0.071,2.495-0.071H64.29c0.897,0,1.782,0.048,2.63,0.142l0.162,0.019v-1.567L66.928,67.091
		L66.928,67.091z"/>
	<path fill="#252935" d="M75.252,80.33c-0.131,0.131-0.295,0.197-0.49,0.197c-0.196,0-0.36-0.066-0.491-0.197
		c-0.13-0.131-0.197-0.295-0.197-0.489c0-0.196,0.067-0.358,0.197-0.489c0.131-0.131,0.295-0.198,0.491-0.198
		c0.195,0,0.359,0.067,0.49,0.198c0.131,0.131,0.197,0.294,0.197,0.489C75.449,80.035,75.384,80.199,75.252,80.33z"/>
	<path fill="#FFFFFF" d="M38.543,56.172v-1.475h6.847c0.682,0,1.317,0.212,1.317,0.873v0.602H38.543z"/>
	<rect x="38.543" y="57.278" fill="#FFFFFF" width="8.163" height="1.464"/>
	<path fill="#FFFFFF" d="M60.345,67.162v-4.051h2.241c0.097,0,0.2,0.001,0.3,0.002l-0.03,0.022
		c-0.365,0.274-1.433,1.012-1.433,1.012l0.195,0.21c0.75,0.844,1.189,2.387,1.47,2.804H60.345z"/>
	<path fill="#252935" d="M51.546,58.525h2.052v-2.552h10.279c0.588,0,1.061,0.1,1.045,0.577c-0.016,0.477,0,1.545,0,1.545v0.145
		h2.053l-0.015-0.158c-0.047-0.512-0.071-1.025-0.071-1.52c0-0.248,0.006-0.506,0.018-0.772c0.021-0.882-0.677-0.98-1.413-0.98
		h-4.883c-0.15-0.407-0.401-0.892-0.749-1.938l-0.043-0.128l-0.13,0.032c-0.604,0.152-1.393,0.293-1.899,0.43l-0.164,0.045
		l0.07,0.155c0.213,0.467,0.408,0.778,0.583,1.404H51.55l0.008,0.154c0.048,0.802,0.072,1.435,0.072,1.883
		c0,0.446-0.024,0.958-0.071,1.522L51.546,58.525z"/>
	<path fill="#FFFFFF" d="M80.856,61.472c-0.732,1.364-2.812,2.42-3.686,3.013c-1.065-0.756-2.963-2.259-3.675-3.982h0.871h5.693
		C81.04,60.502,81.021,61.164,80.856,61.472z"/>
	<path fill="#252935" d="M96.189,63.562l-0.073-0.146c-0.236-0.47-0.558-1.161-0.795-1.728c-0.239-0.572-0.598-1.37-0.839-1.803
		l-0.059-0.108l-0.117,0.043c-0.526,0.191-1.059,0.408-1.584,0.647l-0.144,0.066l0.078,0.137c0.752,1.316,1.429,2.793,1.616,3.492
		l0.045,0.165l0.155-0.07c0.519-0.235,1.044-0.45,1.563-0.638L96.189,63.562z"/>
	<path fill="#252935" d="M102.181,56.88c-0.466,0.047-0.84,0.071-1.597,0.071h-0.713v-1.618c0-0.657,0.048-1.38,0.142-1.987
		l0.025-0.168h-2.315l0.028,0.169c0.094,0.563,0.141,1.237,0.141,1.843v1.761h-4.063c-0.81,0-1.683-0.024-2.433-0.072l-0.154-0.009
		v1.254l0.154-0.009c0.761-0.048,1.61-0.071,2.362-0.071h4.134v7.234c0,0.788-0.407,1.853-1.952,2.146
		c-0.618,0.118-1.361,0.11-1.361,0.11s0.552,1.051,0.692,1.609l0.027,0.109h0.114c0.73,0,2.133-0.269,3.103-1.022
		c0.661-0.513,1.356-1.394,1.356-2.752v-7.507h0.713c0.796,0,1.17,0.024,1.596,0.071l0.161,0.018v-1.197L102.181,56.88
		L102.181,56.88z"/>
	<path fill="#252935" d="M90.89,54.957c0.372-0.997,0.701-1.468,0.701-1.468l-0.283-0.062c-0.419-0.093-0.557-0.184-1.401-0.559
		l-0.161-0.071l-0.04,0.171c-0.377,1.645-1.129,3.028-1.905,4.437c-0.776,1.41-1.609,2.505-2.313,3.254l-0.125,0.133l0.159,0.092
		c0.314,0.18,0.743,0.359,1.11,0.863l0.116,0.158l0.118-0.156c0.383-0.509,0.919-1.121,1.597-2.147v6.081
		c0,1.463-0.024,2.565-0.071,3.273l-0.01,0.155h1.811l-0.009-0.153c-0.047-0.796-0.071-1.92-0.071-3.346V56.93
		C90.113,56.93,90.516,55.953,90.89,54.957z"/>
	<path fill="#FFFFFF" d="M89.681,78.792c-0.555,0.503-1.222,0.757-1.981,0.757c-0.76,0-1.424-0.254-1.975-0.758
		c-0.55-0.507-0.829-1.122-0.829-1.826c0-0.705,0.28-1.317,0.829-1.819c0.551-0.507,1.216-0.764,1.975-0.764
		c0.764,0,1.43,0.257,1.981,0.764c0.552,0.502,0.831,1.115,0.831,1.819S90.233,78.284,89.681,78.792z"/>
	<path fill="#252935" d="M99.904,74.834c0.352,0.354,0.363,0.781,0.363,1.268v4.425h1.098v-4.419c0-0.762-0.122-1.433-0.69-1.993
		c-0.924-0.913-2.688-1.042-3.708,0.171l-0.089,0.106l-0.089-0.106c-1.017-1.187-2.788-1.074-3.719-0.171
		c-0.567,0.56-0.689,1.231-0.689,1.993v4.419h1.098v-4.425c0-0.487,0.01-0.914,0.359-1.267c0.527-0.548,1.478-0.57,1.978-0.034
		c0.328,0.344,0.494,0.781,0.494,1.302v4.425h1.098v-4.425c0-0.521,0.167-0.959,0.497-1.303
		C98.378,74.312,99.36,74.28,99.904,74.834z"/>
	<polygon fill="#252935" points="39.984,77.408 39.984,80.527 38.975,80.527 38.975,77.408 35.768,73.403 37.002,73.403 
		39.479,76.472 41.944,73.403 43.19,73.403 	"/>
	<polygon fill="#252935" points="71.914,77.408 71.914,80.527 70.906,80.527 70.906,77.408 67.699,73.403 68.933,73.403 
		71.41,76.472 73.876,73.403 75.122,73.403 	"/>
	<path fill="#252935" d="M45.383,79.118l-0.001,0.003c-0.026-0.018-0.053-0.032-0.078-0.05c-0.561-0.399-0.906-0.989-1.033-1.77
		h4.176v-0.837h-4.122c0.16-0.723,0.518-1.265,1.07-1.629c0.935-0.612,2.23-0.703,3.052-0.458v-0.841
		c-0.867-0.222-2.179-0.217-3.339,0.434c-0.612,0.342-1.08,0.77-1.401,1.285c-0.32,0.515-0.481,1.094-0.481,1.738
		c0,0.647,0.161,1.23,0.481,1.746c0.321,0.518,0.789,0.948,1.401,1.292c0.605,0.339,2.04,0.707,3.339,0.349v-0.858
		C47.318,79.822,46.176,79.621,45.383,79.118z"/>
	<path fill="#252935" d="M51.997,79.118l-0.001,0.003c-0.026-0.018-0.053-0.032-0.078-0.05c-0.56-0.399-0.905-0.989-1.034-1.77
		h4.177v-0.837h-4.122c0.161-0.723,0.516-1.265,1.07-1.629c0.935-0.612,2.23-0.703,3.052-0.458v-0.841
		c-0.867-0.222-2.18-0.217-3.339,0.434c-0.613,0.342-1.08,0.77-1.401,1.285c-0.321,0.515-0.481,1.094-0.481,1.738
		c0,0.647,0.16,1.23,0.481,1.746c0.321,0.518,0.788,0.948,1.401,1.292c0.605,0.339,2.039,0.707,3.339,0.349v-0.858
		C53.932,79.822,52.789,79.621,51.997,79.118z"/>
	<polygon fill="#FFFFFF" points="65.358,74.697 64.041,78.027 66.675,78.027 	"/>
	<path fill="#252935" d="M83.426,79.166l-0.909-0.538c-0.578,0.588-1.286,0.888-2.11,0.888c-0.777,0-1.444-0.251-1.981-0.747
		c-0.537-0.511-0.809-1.121-0.809-1.809c0-0.361,0.068-0.693,0.202-0.985c0.134-0.292,0.338-0.569,0.607-0.825
		c0.547-0.503,1.213-0.758,1.98-0.758c0.822,0,1.532,0.3,2.11,0.888l0.908-0.539c-0.35-0.41-0.786-0.738-1.303-0.971
		c-0.542-0.244-1.118-0.368-1.714-0.368c-1.064,0-1.984,0.351-2.735,1.043c-0.75,0.693-1.13,1.539-1.13,2.519
		c0,0.971,0.379,1.814,1.128,2.506c0.761,0.701,1.682,1.056,2.737,1.056c0.596,0,1.173-0.126,1.713-0.376
		C82.638,79.912,83.075,79.579,83.426,79.166z"/>
	<path fill="#252935" d="M61.531,73.953c-0.48-0.367-1.04-0.55-1.682-0.55h-3.287v7.124h0.959v-6.224h2.324
		c0.384,0,0.713,0.095,0.985,0.284c0.31,0.217,0.464,0.49,0.464,0.823c0,0.331-0.154,0.602-0.464,0.811
		c-0.266,0.197-0.594,0.295-0.985,0.295h-1.756v0.899h1.758c0.634,0,1.196-0.186,1.683-0.559c0.495-0.387,0.743-0.869,0.743-1.445
		C62.273,74.839,62.025,74.354,61.531,73.953z"/>
	<rect x="34.016" y="70.942" fill="#252935" width="69.499" height="1.02"/>
	<path fill="#252935" d="M3.424,66.105c0-8.024,6.586-14.576,14.869-14.98c-0.298-0.012-0.599-0.02-0.9-0.02
		C7.787,51.105,0,57.821,0,66.105c0,8.284,7.787,15,17.393,15c0.302,0,0.602-0.007,0.9-0.02C10.01,80.681,3.424,74.129,3.424,66.105
		z"/>
	<path fill="#252935" d="M18.938,53.756c-0.304,0-0.603,0.014-0.901,0.032c6.023,0.432,10.785,5.782,10.785,12.322
		s-4.762,11.89-10.785,12.323c0.298,0.019,0.598,0.031,0.901,0.031c7.322,0,13.258-5.532,13.258-12.354
		C32.196,59.287,26.26,53.756,18.938,53.756z"/>
	<path fill="#252935" d="M17.792,64.944c0,0-0.673,0.648-0.029,1.5c0.644,0.854,1.363,0.412,1.458,0.351l4.564-3.527
		c0,0,0.75-0.619,0.023-1.583c0,0-3.427-5.845-9.106-2.49l-4.514,2.199c0,0-5.846,2.293-2.583,6.588c0,0,0.644,0.94,1.571,1.531
		c0,0,4.573,3.709,5.203,4.023c0,0,3.764,2.057,6.611-0.96c0,0.001,5.283-5.853,5.729-6.944c0,0,0.21-0.448,0.196-0.9
		c0,0-0.322-1.298-1.927,0.173c0,0-2.367,2.608-3.556,3.76c0,0-1.418,1.835-3.298,0.561c0,0-0.948-0.444-4.406-3.749
		c0,0-1.518-1.375-0.508-2.589c0,0,3.518-3.113,5.517-1.799c0,0,0.896,0.55,1.388,0.967c0,0,0.721,0.551-0.015,1.113L17.792,64.944z
		"/>
</g>
<g>
	<path id="path-1" fill="#252935" d="M12.357,274.494c-0.151,0.087-0.324,0.13-0.518,0.13c-0.432,0-0.799-0.238-0.994-0.584
		l-0.065-0.173l-3.089-6.792c-0.043-0.065-0.065-0.151-0.065-0.238c0-0.303,0.259-0.562,0.562-0.562c0.13,0,0.238,0.043,0.346,0.108
		l3.651,2.596c0.259,0.173,0.583,0.281,0.929,0.281c0.194,0,0.389-0.043,0.583-0.108l17.153-7.635
		c-3.068-3.634-8.145-5.991-13.87-5.991C7.605,255.525,0,261.862,0,269.692c0,4.261,2.29,8.111,5.876,10.707
		c0.281,0.195,0.475,0.541,0.475,0.93c0,0.13-0.022,0.238-0.065,0.368c-0.281,1.06-0.735,2.769-0.756,2.855
		c-0.043,0.13-0.086,0.281-0.086,0.411c0,0.303,0.259,0.562,0.562,0.562c0.13,0,0.216-0.043,0.324-0.108l3.716-2.141
		c0.281-0.151,0.583-0.26,0.907-0.26c0.173,0,0.346,0.022,0.497,0.065c1.728,0.497,3.608,0.779,5.552,0.779
		c9.376,0,16.981-6.337,16.981-14.167c0-2.379-0.691-4.607-1.944-6.554l-19.551,11.291L12.357,274.494L12.357,274.494z"/>
	<rect x="65.762" y="271.228" fill="#252935" width="9.527" height="0.8"/>
	<rect x="65.762" y="273.91" fill="#252935" width="9.527" height="0.865"/>
	<rect x="66.021" y="277.154" fill="#252935" width="9.03" height="5.126"/>
	<rect x="66.885" y="277.954" fill="#FFFFFF" width="7.28" height="3.526"/>
	<path fill="#252935" d="M63.688,266.275c-0.843,3.006-2.052,5.645-3.629,7.916l0.475,0.822c0.562-0.822,1.102-1.752,1.663-2.769
		v10.101h0.864v-11.918c0.562-1.19,1.015-2.422,1.404-3.699L63.688,266.275z"/>
	<path fill="#252935" d="M70.601,268.481l0.691-0.389c-0.13-0.303-0.713-1.492-0.886-1.882l-0.799,0.476
		c0.281,0.541,0.562,1.081,0.799,1.622c0.043,0.087,0.065,0.151,0.065,0.195h-5.639v0.865h11.472v-0.865h-5.703V268.481z"/>
	<polygon fill="#252935" points="49.105,266.491 49.905,266.491 49.905,270.795 51.59,270.795 51.59,267.767 52.389,267.767 
		52.389,271.595 46.556,271.595 46.556,267.767 47.355,267.767 47.355,270.795 49.105,270.795 	"/>
	<rect x="46.815" y="273.347" fill="#252935" width="5.163" height="0.8"/>
	<path fill="#252935" d="M52.713,278.019l-1.339,1.146V275.9H47.01v1.276c0.13,1.795-0.324,3.071-1.339,3.828l0.475,0.8
		c1.253-1.038,1.836-2.466,1.75-4.283v-0.8h2.679v1.947c-0.022,0.671-0.065,0.887-0.302,1.211l0.497,0.865
		c0.454-0.368,1.231-1.038,2.333-2.012L52.713,278.019z"/>
	<path fill="#252935" d="M45.325,266.339c-0.843,1.709-1.836,3.093-3.003,4.196l0.497,0.844c1.339-1.341,2.42-2.877,3.284-4.629
		L45.325,266.339z"/>
	<path fill="#252935" d="M45.217,270.73c-0.799,2.012-1.836,3.742-3.133,5.213l0.475,0.8c0.518-0.627,1.037-1.255,1.512-1.925v7.527
		h0.799v-8.868c0.389-0.692,0.756-1.471,1.123-2.293L45.217,270.73z"/>
	<path fill="#252935" d="M58.676,270.254v-0.8h-3.824c0.324-0.973,0.713-2.141,0.843-3.158h-0.843
		c-0.562,2.639-1.383,4.845-2.484,6.64l0.518,0.887c0.086-0.173,0.216-0.433,0.367-0.757c0.173-0.303,0.302-0.562,0.41-0.735
		c0.259,2.379,0.735,4.261,1.404,5.645c-0.648,1.103-1.599,2.249-2.895,3.396l0.475,0.844c1.383-1.298,2.312-2.422,2.808-3.353
		c0.583,1.06,1.577,2.293,2.657,3.396l0.497-0.844c-1.145-1.103-2.139-2.314-2.679-3.353c0.972-1.795,1.577-4.391,1.815-7.787h0.929
		V270.254z"/>
	<path fill="#FFFFFF" d="M55.522,277.046c-0.583-1.471-1.015-3.461-1.275-5.97c0.086-0.26,0.194-0.541,0.346-0.8h2.355
		C56.753,273.131,56.299,275.381,55.522,277.046z"/>
	<path fill="#252935" d="M104.562,278.149c-0.583-1.168-1.793-3.158-2.765-4.629l0.735-0.368c0.994,1.471,2.225,3.417,2.808,4.499
		L104.562,278.149z"/>
	<path fill="#252935" d="M93.717,282.194l0.238-0.757c-2.722-0.411-5.098-1.19-7.086-2.358c2.139-1.406,3.845-3.266,4.926-5.753
		l-0.562-0.389l-0.173,0.043h-4.602v-3.18h6.978v-0.865h-6.978v-2.985h-0.843v2.985h-6.956v0.865h6.956v3.18h-4.731v0.844
		c1.015,2.141,2.571,3.893,4.429,5.213c-2.096,1.19-4.558,1.947-7.108,2.422l0.238,0.8c0,0.022,0.022,0.022,0.022,0.043
		c2.722-0.541,5.358-1.406,7.605-2.725c2.117,1.319,4.666,2.206,7.605,2.66C93.695,282.237,93.695,282.215,93.717,282.194z"/>
	<path fill="#FFFFFF" d="M81.857,273.823h8.663c-0.994,2.012-2.528,3.547-4.429,4.758C84.255,277.349,82.807,275.77,81.857,273.823z
		"/>
	<path fill="#252935" d="M99.96,266.058c-1.059,2.855-2.744,5.58-4.558,7.441l0.367,0.93c0,0.022,0.022,0.043,0.022,0.043
		c0.756-0.757,1.469-1.665,2.139-2.66v10.49h0.843v-11.831c0.756-1.298,1.447-2.704,1.988-4.153L99.96,266.058z"/>
	<path fill="#252935" d="M108.775,270.038v-3.872h-0.843v3.872h-7.432v0.865h7.432v10.058c0,0.411-0.151,0.519-0.54,0.562
		c-0.324,0.022-0.67,0.087-1.599,0.087v0.757c1.253,0,1.685-0.022,2.16-0.151c0.562-0.151,0.843-0.433,0.843-1.276v-10.036h2.398
		v-0.865H108.775z"/>
</g>
<g>
	<path fill="#252935" d="M39.929,487.384c14.061,0,25.5,11.439,25.5,25.5c0,14.061-11.439,25.5-25.5,25.5s-25.5-11.439-25.5-25.5
		C14.429,498.823,25.868,487.384,39.929,487.384 M39.929,485.384c-15.188,0-27.5,12.312-27.5,27.5c0,15.188,12.312,27.5,27.5,27.5
		s27.5-12.312,27.5-27.5C67.429,497.696,55.116,485.384,39.929,485.384L39.929,485.384z"/>
	<g>
		<path fill="#252935" d="M2,513H0c0-22,17-39.761,39-40.273V461h2v14h-1C18.691,475,2,491,2,513z"/>
	</g>
	<g>
		<path fill="#252935" d="M41,565h-2v-14h1c20.598,0,38-18,38-38h2c0,21-18,39.15-39,39.702V565z"/>
	</g>
	<g>
		<path fill="#252935" d="M47.453,510.644c0,0.398-0.1,0.685-0.298,0.862c-0.199,0.178-0.538,0.267-1.019,0.267h-4.985v3.26h4.076
			c0.48,0,0.815,0.09,1.003,0.267c0.188,0.178,0.282,0.465,0.282,0.862c0,0.397-0.1,0.685-0.298,0.862
			c-0.199,0.178-0.538,0.267-1.019,0.267h-4.044v5.392c0,0.397-0.094,0.706-0.282,0.925c-0.188,0.219-0.501,0.329-0.94,0.329
			c-0.46,0-0.779-0.115-0.956-0.345c-0.178-0.23-0.267-0.533-0.267-0.909v-5.392h-4.044c-0.523,0-0.873-0.089-1.05-0.267
			c-0.178-0.178-0.267-0.465-0.267-0.862c0-0.397,0.094-0.684,0.282-0.862c0.188-0.177,0.522-0.267,1.003-0.267h4.076v-3.26h-4.985
			c-0.523,0-0.873-0.089-1.05-0.267c-0.178-0.177-0.267-0.465-0.267-0.862c0-0.397,0.094-0.684,0.282-0.862
			c0.189-0.177,0.522-0.266,1.004-0.266h2.477l-3.229-5.675c-0.209-0.377-0.298-0.726-0.266-1.05
			c0.031-0.324,0.182-0.569,0.454-0.737c0.271-0.167,0.565-0.24,0.878-0.219c0.314,0.021,0.585,0.24,0.815,0.658l3.919,7.023h2.414
			l3.794-6.803c0.146-0.251,0.308-0.444,0.486-0.58c0.177-0.136,0.349-0.224,0.517-0.267c0.167-0.041,0.324-0.047,0.47-0.016
			c0.146,0.031,0.271,0.079,0.376,0.141c0.293,0.21,0.444,0.46,0.455,0.753c0.01,0.293-0.1,0.648-0.329,1.066l-3.229,5.706h2.477
			c0.481,0,0.815,0.089,1.003,0.266C47.359,509.96,47.453,510.248,47.453,510.644z"/>
	</g>
</g>
<g>
	<path fill="#2575E9" d="M39.929,591.384c14.061,0,25.5,11.439,25.5,25.5s-11.439,25.5-25.5,25.5s-25.5-11.439-25.5-25.5
		S25.868,591.384,39.929,591.384 M39.929,589.384c-15.188,0-27.5,12.312-27.5,27.5s12.312,27.5,27.5,27.5s27.5-12.312,27.5-27.5
		S55.116,589.384,39.929,589.384L39.929,589.384z"/>
	<g>
		<path fill="#2575E9" d="M2,617H0c0-22,17-39.761,39-40.273V565h2v14h-1C18.691,579,2,595,2,617z"/>
	</g>
	<g>
		<path fill="#2575E9" d="M41,669h-2v-14h1c20.598,0,38-18,38-38h2c0,21-18,39.15-39,39.702V669z"/>
	</g>
	<g>
		<path fill="#2575E9" d="M47.453,614.644c0,0.398-0.1,0.685-0.298,0.862c-0.199,0.178-0.538,0.267-1.019,0.267h-4.985v3.26h4.076
			c0.48,0,0.815,0.09,1.003,0.267c0.188,0.178,0.282,0.465,0.282,0.862c0,0.397-0.1,0.685-0.298,0.862
			c-0.199,0.178-0.538,0.267-1.019,0.267h-4.044v5.392c0,0.397-0.094,0.706-0.282,0.925c-0.188,0.219-0.501,0.329-0.94,0.329
			c-0.46,0-0.779-0.115-0.956-0.345c-0.178-0.23-0.267-0.533-0.267-0.909v-5.392h-4.044c-0.523,0-0.873-0.089-1.05-0.267
			c-0.178-0.178-0.267-0.465-0.267-0.862c0-0.397,0.094-0.684,0.282-0.862c0.188-0.177,0.522-0.267,1.003-0.267h4.076v-3.26h-4.985
			c-0.523,0-0.873-0.089-1.05-0.267c-0.178-0.177-0.267-0.465-0.267-0.862c0-0.396,0.094-0.684,0.282-0.862
			c0.189-0.177,0.522-0.266,1.004-0.266h2.477l-3.229-5.675c-0.209-0.377-0.298-0.726-0.266-1.05
			c0.031-0.324,0.182-0.569,0.454-0.737c0.271-0.167,0.565-0.24,0.878-0.219c0.314,0.021,0.585,0.24,0.815,0.658l3.919,7.023h2.414
			l3.794-6.803c0.146-0.251,0.308-0.444,0.486-0.58c0.177-0.136,0.349-0.224,0.517-0.267c0.167-0.041,0.324-0.047,0.47-0.016
			c0.146,0.031,0.271,0.079,0.376,0.141c0.293,0.21,0.444,0.46,0.455,0.753c0.01,0.293-0.1,0.648-0.329,1.066l-3.229,5.706h2.477
			c0.481,0,0.815,0.089,1.003,0.266C47.359,613.96,47.453,614.248,47.453,614.644z"/>
	</g>
</g>
<g>
	<path fill="#252935" d="M43,671.313l41,23.837v47.699l-41,23.837L2,742.849v-47.699L43,671.313 M43,669L0,694v50l43,25l43-25v-50
		L43,669L43,669z"/>
	<g>
		<path fill="#252935" d="M18.571,712.605c0,0.649,0.15,1.205,0.452,1.668c0.301,0.463,0.695,0.869,1.181,1.216
			c0.486,0.348,1.048,0.672,1.685,0.973c0.637,0.301,1.291,0.603,1.963,0.903c0.88,0.394,1.668,0.799,2.363,1.216
			s1.286,0.892,1.772,1.424c0.486,0.533,0.856,1.146,1.112,1.841c0.254,0.695,0.382,1.506,0.382,2.432
			c0,1.02-0.186,1.963-0.556,2.832c-0.371,0.869-0.892,1.622-1.563,2.258c-0.672,0.637-1.477,1.135-2.415,1.494
			s-1.963,0.55-3.075,0.573c-0.881,0.023-1.743-0.076-2.588-0.295c-0.846-0.22-1.604-0.492-2.276-0.816
			c-0.996-0.509-1.645-1.042-1.945-1.598c-0.301-0.556-0.301-1.042,0-1.459c0.254-0.324,0.55-0.474,0.886-0.452
			c0.335,0.023,0.7,0.163,1.094,0.417c0.695,0.464,1.454,0.863,2.276,1.199c0.822,0.336,1.72,0.504,2.692,0.504
			c0.602,0,1.187-0.116,1.755-0.348c0.567-0.231,1.071-0.544,1.511-0.938c0.439-0.394,0.793-0.869,1.06-1.424
			c0.266-0.556,0.399-1.158,0.399-1.807s-0.127-1.233-0.382-1.754c-0.255-0.521-0.591-0.984-1.008-1.39
			c-0.417-0.405-0.886-0.752-1.407-1.042c-0.521-0.29-1.037-0.539-1.546-0.747c-0.95-0.37-1.83-0.752-2.641-1.146
			c-0.811-0.394-1.511-0.845-2.102-1.355c-0.591-0.509-1.048-1.117-1.373-1.824c-0.325-0.706-0.486-1.569-0.486-2.588
			c0-0.926,0.185-1.766,0.556-2.519c0.37-0.752,0.863-1.39,1.477-1.911c0.614-0.521,1.32-0.915,2.12-1.181
			c0.799-0.266,1.638-0.399,2.519-0.399s1.737,0.122,2.571,0.365c0.833,0.243,1.546,0.544,2.137,0.903
			c0.59,0.359,1.013,0.764,1.268,1.216c0.254,0.452,0.254,0.898,0,1.338c-0.208,0.347-0.521,0.516-0.938,0.503
			c-0.417-0.011-0.799-0.144-1.146-0.399c-0.464-0.324-1.042-0.654-1.737-0.99c-0.695-0.335-1.413-0.492-2.154-0.469
			c-1.181,0-2.125,0.336-2.832,1.007C18.924,710.706,18.571,711.563,18.571,712.605z"/>
		<path fill="#252935" d="M41.154,707.151c1.714,0,3.19,0.308,4.43,0.921c1.239,0.614,2.264,1.454,3.075,2.519
			c0.811,1.065,1.413,2.322,1.807,3.77c0.394,1.448,0.591,2.994,0.591,4.638c0,1.667-0.197,3.226-0.591,4.673
			c-0.394,1.448-0.99,2.71-1.789,3.787c-0.799,1.077-1.807,1.923-3.022,2.536c-1.216,0.614-2.658,0.921-4.326,0.921h-6.532
			c-0.695,0-1.112-0.099-1.251-0.295c-0.139-0.197-0.208-0.55-0.208-1.06v-21.055c0-0.509,0.07-0.862,0.208-1.06
			c0.139-0.196,0.556-0.295,1.251-0.295H41.154z M36.047,728.587h5.281c2.2,0,3.914-0.833,5.142-2.501
			c1.227-1.667,1.841-4.065,1.841-7.192c0-3.034-0.631-5.362-1.894-6.983c-1.263-1.621-3.249-2.432-5.958-2.432h-4.413V728.587z"/>
		<path fill="#252935" d="M57.796,730.012c0,0.394-0.093,0.701-0.278,0.92s-0.544,0.33-1.077,0.33c-0.51,0-0.869-0.116-1.077-0.347
			c-0.208-0.231-0.313-0.533-0.313-0.903v-21.888c0-0.417,0.104-0.747,0.313-0.99s0.567-0.365,1.077-0.365
			c0.486,0,0.833,0.116,1.042,0.347c0.208,0.232,0.313,0.568,0.313,1.008v8.546l9.276-8.408c0.278-0.231,0.55-0.463,0.816-0.695
			c0.266-0.231,0.533-0.417,0.799-0.556c0.266-0.139,0.521-0.203,0.765-0.191c0.243,0.012,0.492,0.134,0.747,0.365
			c0.556,0.58,0.428,1.24-0.382,1.98l-10.319,9.033l10.805,10.354c0.44,0.44,0.689,0.857,0.747,1.251
			c0.058,0.394-0.029,0.729-0.261,1.007c-0.51,0.648-1.205,0.602-2.084-0.139l-10.909-10.84V730.012z"/>
	</g>
</g>
<g>
	<path fill="#2575E9" d="M43,771.313l41,23.837v47.699l-41,23.837L2,842.849v-47.699L43,771.313 M43,769L0,794v50l43,25l43-25v-50
		L43,769L43,769z"/>
	<g>
		<path fill="#2575E9" d="M18.571,812.605c0,0.649,0.15,1.205,0.452,1.668c0.301,0.463,0.695,0.869,1.181,1.216
			c0.486,0.348,1.048,0.672,1.685,0.973c0.637,0.301,1.291,0.603,1.963,0.903c0.88,0.394,1.668,0.799,2.363,1.216
			s1.286,0.892,1.772,1.424c0.486,0.533,0.856,1.146,1.112,1.841c0.254,0.695,0.382,1.506,0.382,2.432
			c0,1.02-0.186,1.963-0.556,2.832c-0.371,0.869-0.892,1.622-1.563,2.258c-0.672,0.637-1.477,1.135-2.415,1.494
			s-1.963,0.55-3.075,0.573c-0.881,0.023-1.743-0.076-2.588-0.295c-0.846-0.22-1.604-0.492-2.276-0.816
			c-0.996-0.509-1.645-1.042-1.945-1.598c-0.301-0.556-0.301-1.042,0-1.459c0.254-0.324,0.55-0.474,0.886-0.452
			c0.335,0.023,0.7,0.163,1.094,0.417c0.695,0.464,1.454,0.863,2.276,1.199c0.822,0.336,1.72,0.504,2.692,0.504
			c0.602,0,1.187-0.116,1.755-0.348c0.567-0.231,1.071-0.544,1.511-0.938c0.439-0.394,0.793-0.869,1.06-1.424
			c0.266-0.556,0.399-1.158,0.399-1.807s-0.127-1.233-0.382-1.754c-0.255-0.521-0.591-0.984-1.008-1.39
			c-0.417-0.405-0.886-0.752-1.407-1.042c-0.521-0.29-1.037-0.539-1.546-0.747c-0.95-0.37-1.83-0.752-2.641-1.146
			c-0.811-0.394-1.511-0.845-2.102-1.355c-0.591-0.509-1.048-1.117-1.373-1.824c-0.325-0.706-0.486-1.569-0.486-2.588
			c0-0.926,0.185-1.766,0.556-2.519c0.37-0.752,0.863-1.39,1.477-1.911c0.614-0.521,1.32-0.915,2.12-1.181
			c0.799-0.266,1.638-0.399,2.519-0.399s1.737,0.122,2.571,0.365c0.833,0.243,1.546,0.544,2.137,0.903
			c0.59,0.359,1.013,0.764,1.268,1.216c0.254,0.452,0.254,0.898,0,1.338c-0.208,0.347-0.521,0.516-0.938,0.503
			c-0.417-0.011-0.799-0.144-1.146-0.399c-0.464-0.324-1.042-0.654-1.737-0.99c-0.695-0.335-1.413-0.492-2.154-0.469
			c-1.181,0-2.125,0.336-2.832,1.007C18.924,810.706,18.571,811.563,18.571,812.605z"/>
		<path fill="#2575E9" d="M41.154,807.151c1.714,0,3.19,0.308,4.43,0.921c1.239,0.614,2.264,1.454,3.075,2.519
			c0.811,1.065,1.413,2.322,1.807,3.77c0.394,1.448,0.591,2.994,0.591,4.638c0,1.667-0.197,3.226-0.591,4.673
			c-0.394,1.448-0.99,2.71-1.789,3.787c-0.799,1.077-1.807,1.923-3.022,2.536c-1.216,0.614-2.658,0.921-4.326,0.921h-6.532
			c-0.695,0-1.112-0.099-1.251-0.295c-0.139-0.197-0.208-0.55-0.208-1.06v-21.055c0-0.509,0.07-0.862,0.208-1.06
			c0.139-0.196,0.556-0.295,1.251-0.295H41.154z M36.047,828.587h5.281c2.2,0,3.914-0.833,5.142-2.501
			c1.227-1.667,1.841-4.065,1.841-7.192c0-3.034-0.631-5.362-1.894-6.983c-1.263-1.621-3.249-2.432-5.958-2.432h-4.413V828.587z"/>
		<path fill="#2575E9" d="M57.796,830.012c0,0.394-0.093,0.701-0.278,0.92s-0.544,0.33-1.077,0.33c-0.51,0-0.869-0.116-1.077-0.347
			c-0.208-0.231-0.313-0.533-0.313-0.903v-21.888c0-0.417,0.104-0.747,0.313-0.99s0.567-0.365,1.077-0.365
			c0.486,0,0.833,0.116,1.042,0.347c0.208,0.232,0.313,0.568,0.313,1.008v8.546l9.276-8.408c0.278-0.231,0.55-0.463,0.816-0.695
			c0.266-0.231,0.533-0.417,0.799-0.556c0.266-0.139,0.521-0.203,0.765-0.191c0.243,0.012,0.492,0.134,0.747,0.365
			c0.556,0.58,0.428,1.24-0.382,1.98l-10.319,9.033l10.805,10.354c0.44,0.44,0.689,0.857,0.747,1.251
			c0.058,0.394-0.029,0.729-0.261,1.007c-0.51,0.648-1.205,0.602-2.084-0.139l-10.909-10.84V830.012z"/>
	</g>
</g>
<g>
	<g>
		<path fill="#252935" d="M23.183,941.386C10.4,941.386,0,930.986,0,918.203s10.4-23.182,23.183-23.182c0.552,0,1,0.448,1,1
			s-0.448,1-1,1C11.502,897.021,2,906.523,2,918.203c0,11.481,9.182,20.858,20.588,21.175l11.974-22.4
			c0.182-0.342,0.55-0.547,0.933-0.527c0.387,0.02,0.728,0.262,0.875,0.62l7.517,18.398l11.288-31.785
			c0.136-0.383,0.489-0.645,0.895-0.665c0.409-0.004,0.783,0.209,0.954,0.576l14.755,31.638l8.888-27.748
			c0.168-0.525,0.729-0.816,1.257-0.647c0.526,0.168,0.816,0.731,0.647,1.257l-9.667,30.179c-0.125,0.393-0.478,0.667-0.889,0.693
			c-0.396,0.016-0.795-0.202-0.969-0.575l-14.803-31.74l-11.348,31.954c-0.139,0.391-0.504,0.655-0.919,0.665
			c-0.412,0.003-0.792-0.238-0.949-0.622l-7.704-18.854l-11.258,21.061C23.891,941.183,23.552,941.386,23.183,941.386z"/>
	</g>
	<g>
		<path fill="#252935" d="M78.183,941.386c-0.553,0-1-0.447-1-1s0.447-1,1-1c11.68,0,21.183-9.502,21.183-21.183
			c0-9.873-6.7-18.35-16.294-20.616c-0.893-0.211-1.812-0.365-2.731-0.458c-0.55-0.056-0.95-0.546-0.895-1.096
			c0.057-0.549,0.547-0.947,1.096-0.895c1.007,0.102,2.013,0.271,2.99,0.502c10.5,2.48,17.834,11.758,17.834,22.562
			C101.365,930.986,90.966,941.386,78.183,941.386z"/>
	</g>
	<g>
		<path fill="#252935" d="M83.217,896.983c-3.019-14.754-16.158-25.462-31.242-25.462c-14.837,0-27.931,10.498-31.134,24.961
			l-1.953-0.433c3.405-15.372,17.32-26.529,33.087-26.529c16.03,0,29.993,11.381,33.201,27.061L83.217,896.983z"/>
	</g>
</g>
<g>
	<g>
		<path fill="#2575E9" d="M23.183,1013.386C10.4,1013.386,0,1002.986,0,990.203s10.4-23.182,23.183-23.182c0.552,0,1,0.448,1,1
			s-0.448,1-1,1C11.502,969.021,2,978.523,2,990.203c0,11.481,9.182,20.858,20.588,21.175l11.974-22.4
			c0.182-0.342,0.55-0.547,0.933-0.527c0.387,0.02,0.728,0.262,0.875,0.62l7.517,18.398l11.288-31.785
			c0.136-0.383,0.489-0.645,0.895-0.665c0.409-0.004,0.783,0.209,0.954,0.576l14.755,31.638l8.888-27.748
			c0.168-0.525,0.729-0.816,1.257-0.647c0.526,0.168,0.816,0.731,0.647,1.257l-9.667,30.179c-0.125,0.393-0.478,0.667-0.889,0.693
			c-0.396,0.016-0.795-0.202-0.969-0.575l-14.803-31.74l-11.348,31.954c-0.139,0.391-0.504,0.655-0.919,0.665
			c-0.412,0.003-0.792-0.238-0.949-0.622l-7.704-18.854l-11.258,21.061C23.891,1013.183,23.552,1013.386,23.183,1013.386z"/>
	</g>
	<g>
		<path fill="#2575E9" d="M78.183,1013.386c-0.553,0-1-0.447-1-1s0.447-1,1-1c11.68,0,21.183-9.502,21.183-21.183
			c0-9.873-6.7-18.35-16.294-20.616c-0.893-0.211-1.812-0.365-2.731-0.458c-0.55-0.056-0.95-0.546-0.895-1.096
			c0.057-0.549,0.547-0.947,1.096-0.895c1.007,0.102,2.013,0.271,2.99,0.502c10.5,2.48,17.834,11.758,17.834,22.562
			C101.365,1002.986,90.966,1013.386,78.183,1013.386z"/>
	</g>
	<g>
		<path fill="#2575E9" d="M83.217,968.983c-3.019-14.754-16.158-25.462-31.242-25.462c-14.837,0-27.931,10.498-31.134,24.961
			l-1.953-0.433c3.405-15.372,17.32-26.529,33.087-26.529c16.03,0,29.993,11.381,33.201,27.061L83.217,968.983z"/>
	</g>
</g>
<g>
	<g>
		<g>
			<polygon fill="#FFFFFF" points="43.978,1116.094 0,1090.576 0,1039.425 44,1013.844 88,1039.425 88,1075 86,1075 86,1040.575 
				44,1016.156 2,1040.575 2,1089.424 43.975,1113.781 86.46,1089.011 87.474,1090.739 			"/>
		</g>
	</g>
	<g>
		<g>
			<path fill="#FFFFFF" d="M47.81,1041.481l-5.748,16.74L41.144,1061h2.808h19.256l-22.84,27.421l6.477-18.902l0.9-2.52h-2.794
				H25.841L47.81,1041.481 M53.077,1032.625L21.452,1069h23.5l-10,29.375l32.5-39.375h-23.5L53.077,1032.625L53.077,1032.625z"/>
		</g>
	</g>
</g>
<g>
	<g>
		<g>
			<polygon fill="#FFFFFF" points="43.978,1219.094 0,1193.576 0,1142.425 44,1116.844 88,1142.425 88,1178 86,1178 86,1143.575 
				44,1119.156 2,1143.575 2,1192.424 43.975,1216.781 86.46,1192.011 87.474,1193.739 			"/>
		</g>
	</g>
	<g>
		<g>
			<polygon fill="#2575E9" points="46.349,1171 23.646,1171 50.444,1140.178 42.548,1163 65.33,1163 37.66,1196.523 			"/>
		</g>
		<g>
			<g>
				<path fill="#FFFFFF" d="M47.81,1144.481l-5.748,16.74L41.144,1164h2.808h19.256l-22.84,27.421l6.477-18.902l0.9-2.52h-2.794
					H25.841L47.81,1144.481 M53.077,1135.625L21.452,1172h23.5l-10,29.375l32.5-39.375h-23.5L53.077,1135.625L53.077,1135.625z"/>
			</g>
		</g>
	</g>
</g>
<g>
	<path fill="#252935" d="M32.32,117.159v-8.362H1.136v8.382h13.249v7.988c0,1.477-0.256,2.21-0.762,2.655
		c-0.509,0.45-1.287,0.683-2.319,0.7v2.494c2.677-0.086,4.639-0.668,5.884-1.752c1.237-1.086,1.863-2.751,1.863-4.979v-7.107h13.27
		V117.159L32.32,117.159z"/>
	<path fill="#252935" d="M137.89,107.218h1.733H142v2.743h-4.113c-0.004,5.227-0.006,11.502,0.008,13.163
		c0.051,7.314-4.245,8.011-7.559,8.011v-1.244c2.325-0.626,2.735-2.142,2.735-5.673v-14.258h-13.804v-2.743h13.804v-4.894h4.824
		C137.895,102.323,137.893,104.382,137.89,107.218z"/>
	<rect x="5.632" y="111.406" fill="#FFFFFF" width="22.194" height="3.168"/>
	<polygon fill="#252935" points="19.072,104.428 19.072,102.459 14.385,102.459 14.385,104.428 0,104.428 0,107.034 33.457,107.034 
		33.457,104.428 	"/>
	<path fill="#252935" d="M0,130.936h2.656c5.67-4.957,7.148-12.027,7.148-12.027H4.686C4.062,123.914,1.965,128.123,0,130.936z"/>
	<path fill="#252935" d="M23.656,118.908c0,0,1.477,7.071,7.148,12.027h2.653c-1.962-2.813-4.06-7.021-4.683-12.027H23.656z"/>
	<path fill="#252935" d="M36.094,131h2.667c5.692-4.977,7.175-12.076,7.175-12.076h-5.137C40.172,123.95,38.067,128.177,36.094,131z
		"/>
	<path fill="#252935" d="M59.843,118.924c0,0,1.484,7.098,7.179,12.076h2.664c-1.972-2.823-4.078-7.05-4.702-12.076H59.843z"/>
	<path fill="#252935" d="M47.908,104.385l0.915-1.991h-4.705l-0.925,1.991h-7.104v2.616h5.885l-4.734,10.188h13.631v8.02
		c0,1.547-0.258,2.22-0.766,2.666c-0.515,0.451-1.292,0.686-2.327,0.702v2.505c2.687-0.086,4.654-0.671,5.902-1.759
		c1.245-1.091,1.874-2.761,1.874-4.998v-7.136h12.985v-2.616H55.554v-5.631h-4.682v5.631h-7.644l3.477-7.571h22.981v-2.616H47.908z"
		/>
	<path fill="#252935" d="M105.701,130.795c-7.206-0.984-12.88-2.259-17.025-3.816c-4.245,1.557-9.623,2.872-16.137,3.94v-2.585
		c5.13-0.819,9.327-1.887,12.585-3.201c-3.061-1.886-5.873-4.431-8.439-7.631h5.773c2.073,2.298,4.242,4.185,6.515,5.662
		c2.861-1.641,5.379-4.02,7.551-7.139H74.759v-2.709h11.843v-4.307H72.39v-2.708h14.212v-3.693h5.034v3.693h14.064v2.708H91.637
		v4.307h10.659v2.709c-2.765,3.938-5.973,6.935-9.623,8.984c3.453,1.56,7.795,2.628,13.028,3.201V130.795z"/>
	<path fill="#252935" d="M115.069,102.353c-0.966,4.739-3.185,8.024-6.661,9.853v2.245c1.543-0.415,2.896-0.913,4.054-1.496v18.085
		h4.489v-21.827c1.253-1.746,2.219-4.032,2.895-6.86H115.069z"/>
	<path fill="#252935" d="M121.585,113.329c1.35,2.662,2.219,5.282,2.605,7.858h4.344c-0.485-2.743-1.448-5.363-2.896-7.858H121.585z
		"/>
</g>
<g>
	<g>
		<path fill="#FFFFFF" d="M76.074,1302H5.83c-3.241,0-5.83-2.637-5.83-5.878v-70.244c0-3.241,2.589-5.878,5.83-5.878h70.244
			c3.241,0,5.926,2.637,5.926,5.878V1228h-2v-2.122c0-2.139-1.787-3.878-3.926-3.878H5.83c-2.138,0-3.83,1.739-3.83,3.878v70.244
			c0,2.139,1.692,3.878,3.83,3.878h70.244c2.139,0,3.926-1.739,3.926-3.878V1264h2v32.122C82,1299.363,79.315,1302,76.074,1302z"/>
	</g>
	<path fill="#FFFFFF" d="M92.62,1233.112l-26.362,4.504c-0.37,0.064-0.678,0.334-0.792,0.689c-0.113,0.356-0.026,0.754,0.239,1.018
		l2.09,2.09l3.536,3.536c0.39,0.39,0.087,0.693-0.303,1.083l-6.364,6.364l-7.778,7.778c-1.56,1.56-3.794,1.891-5.354,0.331
		l-6.364-6.364l-4.243-4.243c-1.949-1.949-5.424-2.281-7.374-0.331l-3.536,3.536l-16.263,16.263c-1.17,1.17-0.867,3.404,0.303,4.574
		l6.364,6.364c1.17,1.17,2.77,0.839,3.94-0.331l7.071-7.071l2.121-2.121l1.414-1.414c1.17-1.17,3.376-0.839,4.545,0.331l2.121,2.121
		l2.121,2.121l6.364,6.364c2.34,2.34,5.843,2.008,8.182-0.331l16.971-16.971l5.657-5.657l0.707-0.707
		c0.39-0.39,1.327-0.059,1.717,0.331l0.707,0.707l2.828,2.828l0.676,0.676c0.264,0.264,0.662,0.352,1.018,0.239
		c0.155-0.05,0.296-0.138,0.407-0.249c0.144-0.144,0.245-0.332,0.281-0.54l4.505-26.363c0.055-0.32-0.049-0.647-0.279-0.876
		S92.94,1233.058,92.62,1233.112z M87.611,1258.4l-2.137-2.137l-0.707-0.707c-1.17-1.17-3.376-1.501-4.545-0.331l-0.707,0.707
		l-5.657,5.657l-16.971,16.971c-1.56,1.56-3.794,1.891-5.354,0.331l-6.364-6.364l-2.121-2.121l-2.121-2.121
		c-1.949-1.949-5.424-2.281-7.374-0.331l-1.414,1.414l-2.121,2.121l-7.071,7.071c-0.39,0.39-0.721,0.721-1.111,0.331l-6.364-6.364
		c-0.39-0.39-0.693-1.355-0.303-1.745l16.263-16.263l3.536-3.536c1.17-1.17,3.376-0.839,4.545,0.331l4.243,4.243l6.364,6.364
		c2.34,2.339,5.843,2.008,8.182-0.331l7.778-7.778l6.364-6.364c1.17-1.17,1.473-2.742,0.303-3.912l-3.536-3.536l-0.723-0.723
		l23.064-3.94L87.611,1258.4z"/>
</g>
<g>
	<g>
		<g>
			<path fill="#FFFFFF" d="M76.074,1385H5.83c-3.241,0-5.83-2.637-5.83-5.878v-70.244c0-3.241,2.589-5.878,5.83-5.878h70.244
				c3.241,0,5.926,2.637,5.926,5.878V1311h-2v-2.122c0-2.139-1.787-3.878-3.926-3.878H5.83c-2.138,0-3.83,1.739-3.83,3.878v70.244
				c0,2.139,1.692,3.878,3.83,3.878h70.244c2.139,0,3.926-1.739,3.926-3.878V1347h2v32.122C82,1382.363,79.315,1385,76.074,1385z"/>
		</g>
	</g>
	<g>
		<g>
			<path fill="#2575E9" d="M53.901,1363.902c-1.159,0-2.222-0.451-3.076-1.305l-10.606-10.607c-0.848-0.847-2.093-1.353-3.331-1.353
				c-1.036,0-1.97,0.362-2.628,1.021l-10.607,10.607c-0.487,0.487-1.053,0.767-1.551,0.767c-0.363,0-0.682-0.143-0.975-0.436
				l-6.364-6.364c-0.779-0.779-1.072-2.391-0.303-3.16l19.799-19.799c0.654-0.653,1.591-1.014,2.637-1.014
				c1.238,0,2.48,0.503,3.323,1.345l10.606,10.606c0.857,0.857,1.924,1.311,3.086,1.311c1.316,0,2.624-0.583,3.683-1.642
				l14.142-14.142c0.248-0.248,0.503-0.504,0.654-0.85c0.25-0.574,0.122-1.175-0.352-1.648l-5.625-5.625l26.375-4.519l-4.504,26.364
				l-0.688-0.664l-3.536-3.535c-0.471-0.471-1.262-0.799-1.924-0.799c-0.484,0-0.902,0.161-1.208,0.468l-23.334,23.335
				C56.539,1363.321,55.227,1363.902,53.901,1363.902z"/>
		</g>
		<g>
			<path fill="#FFFFFF" d="M91.565,1318.321l-3.945,23.088l-2.146-2.146l-0.707-0.707c-0.663-0.663-1.696-1.092-2.631-1.092
				c-0.744,0-1.424,0.27-1.914,0.76l-0.707,0.707l-5.657,5.657l-16.971,16.971c-0.854,0.854-1.942,1.343-2.986,1.343
				c-0.887,0-1.706-0.35-2.369-1.012l-6.364-6.364l-2.121-2.121l-2.121-2.121c-1.031-1.031-2.54-1.646-4.038-1.646
				c-1.303,0-2.488,0.467-3.336,1.315l-1.414,1.414l-2.121,2.121l-7.071,7.071c-0.35,0.35-0.673,0.474-0.844,0.474
				c-0.043,0-0.124,0-0.268-0.143l-6.364-6.364c-0.238-0.238-0.415-0.651-0.451-1.05c-0.027-0.305,0.031-0.578,0.148-0.695
				l16.263-16.263l3.535-3.536c0.465-0.465,1.15-0.721,1.93-0.721c0.979,0,1.957,0.394,2.616,1.052l4.243,4.243l6.364,6.364
				c1.034,1.034,2.381,1.603,3.793,1.603c1.583,0,3.142-0.687,4.39-1.934l7.778-7.778l6.364-6.364
				c0.283-0.283,0.636-0.635,0.863-1.155c0.412-0.943,0.198-1.999-0.56-2.757l-3.536-3.536l-0.733-0.733L91.565,1318.321
				 M92.787,1316.098c-0.056,0-0.112,0.005-0.167,0.014l-26.362,4.504c-0.37,0.064-0.678,0.334-0.792,0.689
				c-0.113,0.356-0.026,0.754,0.239,1.018l2.09,2.09l3.536,3.536c0.39,0.39,0.087,0.693-0.303,1.083l-6.364,6.364l-7.778,7.778
				c-0.862,0.862-1.93,1.349-2.975,1.349c-0.847,0-1.68-0.319-2.379-1.017l-6.364-6.364l-4.243-4.243
				c-1.057-1.057-2.562-1.638-4.03-1.638c-1.239,0-2.452,0.414-3.344,1.307l-3.536,3.536l-16.263,16.263
				c-1.17,1.17-0.867,3.404,0.303,4.574l6.364,6.364c0.504,0.504,1.087,0.729,1.682,0.729c0.786,0,1.592-0.394,2.258-1.06
				l7.071-7.071l2.121-2.121l1.414-1.414c0.504-0.504,1.2-0.729,1.922-0.729c0.955,0,1.957,0.394,2.623,1.06l2.121,2.121
				l2.121,2.121l6.364,6.364c1.087,1.087,2.426,1.598,3.783,1.598c1.562,0,3.148-0.677,4.4-1.929l16.971-16.971l5.657-5.657
				l0.707-0.707c0.123-0.124,0.302-0.175,0.5-0.175c0.428,0,0.95,0.239,1.217,0.506l0.707,0.707l2.828,2.828l0.676,0.676
				c0.189,0.189,0.445,0.287,0.705,0.287c0.105,0,0.21-0.016,0.313-0.048c0.155-0.05,0.296-0.138,0.407-0.249
				c0.144-0.144,0.245-0.332,0.281-0.54l4.505-26.363c0.055-0.32-0.049-0.647-0.279-0.876
				C93.306,1316.202,93.051,1316.098,92.787,1316.098L92.787,1316.098z"/>
		</g>
	</g>
</g>
<g>
	<path fill="#FFFFFF" d="M45.5,1387.5c23.986,0,43.5,19.514,43.5,43.5s-19.514,43.5-43.5,43.5S2,1454.986,2,1431
		S21.514,1387.5,45.5,1387.5 M45.5,1385.5c-25.129,0-45.5,20.371-45.5,45.5s20.371,45.5,45.5,45.5S91,1456.129,91,1431
		S70.629,1385.5,45.5,1385.5L45.5,1385.5z"/>
	<g>
		<path fill="#FFFFFF" d="M62,1431c1.103,0,2,1.147,2,2.25v22c0,1.103-0.897,1.75-2,1.75H29c-1.103,0-2-0.647-2-1.75v-22
			c0-1.103,0.897-2.25,2-2.25H62 M62,1429H29c-2.209,0-4,2.041-4,4.25v22c0,2.209,1.791,3.75,4,3.75h33c2.209,0,4-1.541,4-3.75v-22
			c0-2.209-1.767-4.25-3.976-4.25H62z"/>
		<path fill="#FFFFFF" d="M33,1429v-11.75c0-6.893,5.607-12.5,12.5-12.5s12.5,5.607,12.5,12.5V1429h2v-11.75
			c0-8.008-6.492-14.5-14.5-14.5s-14.5,6.492-14.5,14.5V1429H33z"/>
	</g>
</g>
<g>
	<path fill="#FFFFFF" d="M45.5,1479.5c23.986,0,43.5,19.514,43.5,43.5s-19.514,43.5-43.5,43.5S2,1546.986,2,1523
		S21.514,1479.5,45.5,1479.5 M45.5,1477.5c-25.129,0-45.5,20.371-45.5,45.5s20.371,45.5,45.5,45.5S91,1548.129,91,1523
		S70.629,1477.5,45.5,1477.5L45.5,1477.5z"/>
	<g>
		<g>
			<g>
				<path fill="#2575E9" d="M29,1550c-1.738,0-3-1.156-3-2.75v-22c0-1.731,1.402-3.25,3-3.25h33c1.598,0,3,1.519,3,3.25v22
					c0,1.594-1.262,2.75-3,2.75H29z"/>
			</g>
			<g>
				<path fill="#FFFFFF" d="M62,1523c1.047,0,2,1.072,2,2.25v22c0,1.202-1.037,1.75-2,1.75H29c-0.963,0-2-0.548-2-1.75v-22
					c0-1.178,0.953-2.25,2-2.25H62 M62,1521H29c-2.209,0-4,2.041-4,4.25v22c0,2.209,1.791,3.75,4,3.75h33c2.209,0,4-1.541,4-3.75
					v-22c0-2.209-1.767-4.25-3.976-4.25H62z"/>
			</g>
		</g>
		<g>
			<path fill="#FFFFFF" d="M33,1521v-11.75c0-6.893,5.607-12.5,12.5-12.5s12.5,5.607,12.5,12.5V1521h2v-11.75
				c0-8.008-6.492-14.5-14.5-14.5s-14.5,6.492-14.5,14.5V1521H33z"/>
		</g>
	</g>
</g>
<g>
	<path fill="#FFFFFF" d="M45.5,1570.5c23.986,0,43.5,19.514,43.5,43.5s-19.514,43.5-43.5,43.5S2,1637.986,2,1614
		S21.514,1570.5,45.5,1570.5 M45.5,1568.5c-25.129,0-45.5,20.371-45.5,45.5s20.371,45.5,45.5,45.5S91,1639.129,91,1614
		S70.629,1568.5,45.5,1568.5L45.5,1568.5z"/>
	<g>
		<path fill="#FFFFFF" d="M20,1605.828l8.172,8.172L20,1622.172L11.828,1614L20,1605.828 M20,1603l-11,11l11,11l11-11L20,1603
			L20,1603z"/>
		<path fill="#FFFFFF" d="M46,1605.828l8.172,8.172L46,1622.172L37.828,1614L46,1605.828 M46,1603l-11,11l11,11l11-11L46,1603
			L46,1603z"/>
		<path fill="#FFFFFF" d="M72,1605.828l8.172,8.172L72,1622.172L63.828,1614L72,1605.828 M72,1603l-11,11l11,11l11-11L72,1603
			L72,1603z"/>
		<line fill="none" stroke="#FFFFFF" stroke-width="2" stroke-miterlimit="10" x1="28" y1="1614" x2="37" y2="1614"/>
		<line fill="none" stroke="#FFFFFF" stroke-width="2" stroke-miterlimit="10" x1="54" y1="1614" x2="62" y2="1614"/>
	</g>
</g>
<g>
	<path fill="#FFFFFF" d="M45.5,1661.5c23.986,0,43.5,19.514,43.5,43.5s-19.514,43.5-43.5,43.5S2,1728.986,2,1705
		S21.514,1661.5,45.5,1661.5 M45.5,1659.5c-25.129,0-45.5,20.371-45.5,45.5s20.371,45.5,45.5,45.5S91,1730.129,91,1705
		S70.629,1659.5,45.5,1659.5L45.5,1659.5z"/>
	<g>
		<g>
			<g>
				
					<rect x="39.222" y="1698.222" transform="matrix(-0.7071 0.7071 -0.7071 -0.7071 1284.1439 2878.0901)" fill="#2575E9" width="13.557" height="13.557"/>
			</g>
			<g>
				<path fill="#FFFFFF" d="M46,1696.828l8.172,8.172L46,1713.172L37.828,1705L46,1696.828 M46,1694l-11,11l11,11l11-11L46,1694
					L46,1694z"/>
			</g>
		</g>
		<g>
			<g>
				
					<rect x="65.222" y="1698.222" transform="matrix(-0.7071 0.7071 -0.7071 -0.7071 1328.5287 2859.7053)" fill="#2575E9" width="13.557" height="13.557"/>
			</g>
			<g>
				<path fill="#FFFFFF" d="M72,1696.828l8.172,8.172L72,1713.172L63.828,1705L72,1696.828 M72,1694l-11,11l11,11l11-11L72,1694
					L72,1694z"/>
			</g>
		</g>
		<g>
			<rect x="28" y="1704" fill="#FFFFFF" width="9" height="2"/>
		</g>
		<g>
			<rect x="54" y="1704" fill="#FFFFFF" width="8" height="2"/>
		</g>
		<g>
			<g>
				
					<rect x="13.222" y="1698.222" transform="matrix(-0.7071 0.7071 -0.7071 -0.7071 1239.7592 2896.4749)" fill="#2575E9" width="13.557" height="13.557"/>
			</g>
			<g>
				<path fill="#FFFFFF" d="M20,1696.828l8.172,8.172L20,1713.172L11.828,1705L20,1696.828 M20,1694l-11,11l11,11l11-11L20,1694
					L20,1694z"/>
			</g>
		</g>
	</g>
</g>
<g>
	<path fill="#FFFFFF" d="M13.538,1772.872c0.23,0,0.456,0.017,0.684,0.042c-0.613-2.852-3.661-4.971-7.143-4.971
		c-3.891,0-7.079,2.651-7.079,6.02c0,1.944,1.06,3.54,2.833,4.78l-0.708,2.129l2.475-1.24c0.885,0.174,1.595,0.354,2.479,0.354
		c0.223,0,0.443-0.01,0.66-0.026c-0.138-0.474-0.219-0.969-0.219-1.485C7.521,1775.382,10.176,1772.872,13.538,1772.872
		L13.538,1772.872z M9.733,1770.953c0.535,0,0.886,0.351,0.886,0.884c0,0.53-0.351,0.885-0.886,0.885
		c-0.529,0-1.061-0.355-1.061-0.885C8.671,1771.303,9.203,1770.953,9.733,1770.953L9.733,1770.953z M4.779,1772.722
		c-0.531,0-1.066-0.355-1.066-0.885c0-0.532,0.535-0.884,1.066-0.884c0.531,0,0.884,0.35,0.884,0.884
		C5.663,1772.367,5.31,1772.722,4.779,1772.722L4.779,1772.722z M4.779,1772.722"/>
	<path fill="#FFFFFF" d="M20,1778.39c0-2.83-2.833-5.136-6.014-5.136c-3.369,0-6.02,2.307-6.02,5.136
		c0,2.837,2.653,5.136,6.02,5.136c0.705,0,1.416-0.176,2.124-0.354l1.941,1.065l-0.533-1.77C18.94,1781.4,20,1779.986,20,1778.39
		L20,1778.39z M12.034,1777.503c-0.351,0-0.708-0.35-0.708-0.708c0-0.352,0.356-0.707,0.708-0.707c0.538,0,0.886,0.355,0.886,0.707
		C12.92,1777.153,12.571,1777.503,12.034,1777.503L12.034,1777.503z M15.928,1777.503c-0.349,0-0.704-0.35-0.704-0.708
		c0-0.352,0.354-0.707,0.704-0.707c0.533,0,0.886,0.355,0.886,0.707C16.814,1777.153,16.46,1777.503,15.928,1777.503
		L15.928,1777.503z M15.928,1777.503"/>
</g>
<g>
	<path fill="#FFFFFF" d="M14.812,1794.492c-0.778-0.151-0.399-0.571-0.399-0.571s0.761-1.258-0.151-2.172
		c-1.13-1.133-3.877,0.144-3.877,0.144c-1.049,0.326-0.771-0.149-0.622-0.958c0-0.953-0.326-2.566-3.12-1.613
		c-2.791,0.958-5.188,4.313-5.188,4.313c-1.667,2.23-1.445,3.953-1.445,3.953c0.416,3.804,4.448,4.849,7.584,5.096
		c3.299,0.26,7.752-1.14,9.102-4.016C18.046,1795.788,15.592,1794.648,14.812,1794.492L14.812,1794.492z M7.838,1801.611
		c-3.276,0.153-5.923-1.493-5.923-3.685c0-2.194,2.647-3.953,5.923-4.104c3.277-0.151,5.93,1.203,5.93,3.392
		C13.768,1799.405,11.115,1801.462,7.838,1801.611L7.838,1801.611z M7.838,1801.611"/>
	<path fill="#FFFFFF" d="M7.184,1795.267c-3.294,0.387-2.913,3.48-2.913,3.48s-0.033,0.98,0.884,1.479
		c1.927,1.047,3.912,0.413,4.915-0.885C11.072,1798.042,10.484,1794.883,7.184,1795.267L7.184,1795.267z M6.353,1799.609
		c-0.614,0.072-1.111-0.283-1.111-0.799c0-0.514,0.441-1.052,1.056-1.116c0.707-0.067,1.167,0.341,1.167,0.857
		C7.465,1799.064,6.967,1799.539,6.353,1799.609L6.353,1799.609z M8.295,1797.951c-0.209,0.156-0.465,0.134-0.575-0.053
		c-0.115-0.182-0.072-0.475,0.139-0.629c0.244-0.182,0.498-0.13,0.608,0.053C8.578,1797.509,8.499,1797.79,8.295,1797.951
		L8.295,1797.951z M8.295,1797.951"/>
	<path fill="#FFFFFF" d="M16.416,1793.152c0.265,0,0.491-0.197,0.529-0.454c0.005-0.019,0.007-0.036,0.007-0.057
		c0.402-3.627-2.964-3.003-2.964-3.003c-0.299,0-0.538,0.243-0.538,0.545c0,0.298,0.239,0.54,0.538,0.54
		c2.419-0.535,1.885,1.889,1.885,1.889C15.873,1792.912,16.116,1793.152,16.416,1793.152L16.416,1793.152z M16.416,1793.152"/>
	<path fill="#FFFFFF" d="M16.024,1786.822c-1.164-0.273-2.361-0.038-2.697,0.027c-0.026,0.002-0.05,0.027-0.074,0.032
		c-0.011,0.002-0.019,0.015-0.019,0.015c-0.331,0.094-0.573,0.401-0.573,0.763c0,0.432,0.349,0.787,0.785,0.787
		c0,0,0.423-0.057,0.711-0.17c0.285-0.115,2.695-0.086,3.893,1.93c0.653,1.471,0.287,2.456,0.241,2.614c0,0-0.155,0.382-0.155,0.759
		c0,0.435,0.349,0.707,0.782,0.707c0.362,0,0.666-0.049,0.755-0.663h0.005C20.965,1789.328,18.107,1787.309,16.024,1786.822
		L16.024,1786.822z M16.024,1786.822"/>
</g>
<g>
	<path fill="#FFFFFF" d="M18.518,1752.5H1.482c-0.819,0-1.482,0.662-1.482,1.48v11.48c0,0.819,0.663,1.483,1.482,1.483h17.037
		c0.817,0,1.482-0.664,1.482-1.483v-11.48C20,1753.162,19.336,1752.5,18.518,1752.5L18.518,1752.5z M19.064,1766.605l-6.489-6.467
		c-0.749,0.606-1.445,1.079-2.011,1.304c-0.306,0.121-1.009,0.124-1.314,0c-0.531-0.215-1.175-0.657-1.868-1.228l-6.37,6.291
		l-0.411-0.417l6.335-6.253c-2.832-2.471-6.235-6.68-6.235-6.68l0.414-0.323c0,0,5.467,6.609,8.116,7.963
		c0.302,0.154,1.054,0.154,1.354,0c2.768-1.435,8.487-7.963,8.487-7.963l0.323,0.323c0,0-3.469,4.131-6.371,6.609l6.451,6.429
		L19.064,1766.605L19.064,1766.605z M19.064,1766.605"/>
</g>
<circle fill="#2575E9" cx="57.952" cy="1786.324" r="35"/>
<g>
	<path fill="#E5E5E5" d="M25,1823.911c12.682,0,23,10.318,23,23s-10.318,23-23,23s-23-10.318-23-23S12.318,1823.911,25,1823.911
		 M25,1821.911c-13.807,0-25,11.193-25,25s11.193,25,25,25s25-11.193,25-25S38.807,1821.911,25,1821.911L25,1821.911z"/>
	<polygon fill="#E5E5E5" points="21.818,1844.79 28.182,1838.426 30.303,1840.547 23.939,1846.911 30.303,1853.275 28.182,1855.396 
		19.697,1846.911 	"/>
</g>
<g>
	<path fill="#E5E5E5" d="M75.952,1823.911c12.682,0,23,10.318,23,23s-10.318,23-23,23s-23-10.318-23-23
		S63.27,1823.911,75.952,1823.911 M75.952,1821.911c-13.807,0-25,11.193-25,25s11.193,25,25,25s25-11.193,25-25
		S89.759,1821.911,75.952,1821.911L75.952,1821.911z"/>
	<polygon fill="#E5E5E5" points="79.134,1844.79 72.77,1838.426 70.649,1840.547 77.013,1846.911 70.649,1853.275 72.77,1855.396 
		81.255,1846.911 	"/>
</g>
<g>
	<g>
		<path fill="#FFFFFF" d="M57.952,1767.907c12.682,0,23,7.626,23,17s-10.318,17-23,17c-1.592,0-3.182-0.122-4.726-0.362
			l-0.877-0.136l-0.689,0.559c-1.971,1.597-5.063,2.126-8.954,2.432c0.639-0.997,1.277-2.168,1.917-3.516l0.791-1.665l-1.595-0.924
			c-5.635-3.263-8.867-8.143-8.867-13.389C34.952,1775.533,45.27,1767.907,57.952,1767.907 M57.952,1765.907
			c-13.807,0-25,8.507-25,19c0,6.169,3.871,11.648,9.864,15.119c-1.258,2.648-3.392,6.393-5.531,6.714
			c6.875-0.412,12.269-0.492,15.634-3.219c1.626,0.253,3.309,0.385,5.033,0.385c13.807,0,25-8.507,25-19
			S71.759,1765.907,57.952,1765.907L57.952,1765.907z"/>
	</g>
	<g>
		<path fill="#FFFFFF" d="M45.785,1782.907c1.195,0,2.167,0.972,2.167,2.167s-0.972,2.167-2.167,2.167
			c-1.195,0-2.167-0.972-2.167-2.167S44.591,1782.907,45.785,1782.907 M45.785,1780.907c-2.301,0-4.167,1.865-4.167,4.167
			c0,2.301,1.865,4.167,4.167,4.167s4.167-1.865,4.167-4.167C49.952,1782.772,48.087,1780.907,45.785,1780.907L45.785,1780.907z"/>
	</g>
	<g>
		<path fill="#FFFFFF" d="M58.785,1782.907c1.195,0,2.167,0.972,2.167,2.167s-0.972,2.167-2.167,2.167
			c-1.195,0-2.167-0.972-2.167-2.167S57.591,1782.907,58.785,1782.907 M58.785,1780.907c-2.301,0-4.167,1.865-4.167,4.167
			c0,2.301,1.865,4.167,4.167,4.167s4.167-1.865,4.167-4.167C62.952,1782.772,61.087,1780.907,58.785,1780.907L58.785,1780.907z"/>
	</g>
	<g>
		<path fill="#FFFFFF" d="M71.785,1782.907c1.195,0,2.167,0.972,2.167,2.167s-0.972,2.167-2.167,2.167
			c-1.195,0-2.167-0.972-2.167-2.167S70.591,1782.907,71.785,1782.907 M71.785,1780.907c-2.301,0-4.167,1.865-4.167,4.167
			c0,2.301,1.865,4.167,4.167,4.167s4.167-1.865,4.167-4.167C75.952,1782.772,74.087,1780.907,71.785,1780.907L71.785,1780.907z"/>
	</g>
</g>
<g>
	<path fill="#252935" d="M7.312,16.296c-0.752,0.074-2.163,0.406-2.934,1.087c-2.313,2.01-0.929,5.687,3.751,5.687
		c2.72,0,5.439-1.735,7.575-4.511C12.667,17.081,10.092,16.022,7.312,16.296L7.312,16.296z M7.312,16.296"/>
	<path fill="#252935" d="M24.77,18.837c4.332,1.447,5.315,1.524,5.315,1.524V4.806C30.085,2.151,27.93,0,25.268,0H4.819
		C2.156,0,0,2.151,0,4.806v20.388C0,27.848,2.156,30,4.819,30h20.449c2.662,0,4.818-2.151,4.818-4.805v-0.197
		c0,0-7.825-3.253-11.777-5.148c-2.65,3.251-6.069,5.225-9.618,5.225c-6.003,0-8.041-5.238-5.199-8.686
		c0.62-0.751,1.674-1.469,3.311-1.872c2.559-0.627,6.633,0.392,10.45,1.648c0.686-1.262,1.264-2.65,1.695-4.13H7.181v-1.189h6.066
		v-2.13H5.9V7.528h7.347V4.489c0,0,0-0.512,0.52-0.512h2.965v3.551h7.265v1.189h-7.265v2.13h5.93
		c-0.567,2.318-1.43,4.451-2.511,6.325C21.951,17.82,23.567,18.436,24.77,18.837L24.77,18.837z M24.77,18.837"/>
	<path fill="#252935" d="M72.908,4.703h8.613v1.705h3.075v-2.02c-0.001-0.005-0.001-0.007-0.001-0.012
		c0-0.454-0.356-0.821-0.797-0.829H78.82v-1.59h-3.219v1.59h-5.769v2.861h3.076V4.703L72.908,4.703z M72.908,4.703"/>
	<path fill="#252935" d="M54.275,2.104l-3.154,7.458h2.419v8.875h2.645V6.666h-0.958l1.993-4.561H54.275z M54.275,2.104"/>
	<path fill="#252935" d="M84.949,18.03l-0.967-3.264c-0.063-0.208-0.253-0.359-0.476-0.36h-2.561l0.742,2.507h-3.011v-4.856h5.913
		v-1.157h-5.913V8.616h5.913V7.46H69.832v1.156h5.912v2.285h-5.912v1.157h5.912v4.856h-5.912v1.157h15.117l-0.012-0.04L84.949,18.03
		L84.949,18.03z M84.949,18.03"/>
	<path fill="#252935" d="M61.04,8.218c-0.101-0.205-0.306-0.347-0.544-0.348h-2.29l1.783,5.618h2.71L61.04,8.218L61.04,8.218z
		 M61.04,8.218"/>
	<path fill="#252935" d="M66.838,2.24h-2.749v2.873h-6.776v1.156h6.776v10.328c-0.024,0.236-0.21,0.421-0.444,0.433h-1.397v1.197
		h3.563c0.563-0.024,1.015-0.492,1.027-1.071V6.269h1.116V5.113h-1.116V2.24L66.838,2.24z M66.838,2.24"/>
	<path fill="#252935" d="M49.683,7.473h-5.281V5.581h6.123V4.402h-6.123V2.004l-2.73,0.001c-0.299,0-0.541,0.25-0.541,0.56v1.838
		h-6.08v1.179h6.08v1.893h-5.132v1.178h10.222c0,0-0.566,2.211-3.37,4.588c-2.512-1.902-3.352-3.416-3.352-3.416h-2.742
		c1.109,1.923,2.686,3.463,4.384,4.684c-1.559,1.013-3.582,1.991-6.197,2.771v1.412c0,0,4.034-0.761,7.933-3.058
		c3.905,2.279,7.827,3.058,7.827,3.058v-1.336c-2.51-0.914-4.499-1.918-6.061-2.888C46.906,12.792,48.888,10.516,49.683,7.473
		L49.683,7.473z M49.683,7.473"/>
	<path fill="#252935" d="M41.015,26.32l0.457,1.379h1.28l-2.521-6.845h-0.979l-2.512,6.845h1.281l0.476-1.379H41.015L41.015,26.32z
		 M39.777,22.618l0.947,2.839h-1.928L39.777,22.618L39.777,22.618z M39.777,22.618"/>
	<path fill="#252935" d="M46.791,20.854v6.845h4.144v-0.932h-2.913v-5.913H46.791z M46.791,20.854"/>
	<path fill="#252935" d="M55.451,20.854h1.232v6.844h-1.232V20.854L55.451,20.854z M55.451,20.854"/>
	<path fill="#252935" d="M64.335,20.854h-2.66v6.845h1.231v-2.631h1.429c1.327,0,2.255-0.866,2.255-2.107
		C66.589,21.721,65.662,20.854,64.335,20.854 M64.266,24.127h-1.36v-2.342h1.36c0.683,0,1.091,0.598,1.091,1.176
		C65.357,23.526,64.975,24.127,64.266,24.127L64.266,24.127z M64.266,24.127"/>
	<path fill="#252935" d="M73.819,26.32l0.457,1.379h1.28l-2.521-6.845h-0.978l-2.512,6.845h1.281l0.475-1.379H73.819L73.819,26.32z
		 M72.581,22.618l0.947,2.839H71.6L72.581,22.618L72.581,22.618z M72.581,22.618"/>
	<path fill="#252935" d="M82.414,20.854l-1.343,2.916l-1.363-2.916h-1.331l2.073,4.033v2.812h1.222v-2.812l0.008-0.015l2.065-4.018
		H82.414z M82.414,20.854"/>
</g>
<g>
	<g>
		<path fill="#252935" d="M8.599,357.735h10.956c1.533,0,2.483,1.251,2.125,2.785l-5.103,21.902
			c-0.358,1.531-1.891,2.779-3.42,2.779H2.198c-1.529,0-2.48-1.248-2.123-2.779l5.104-21.902
			C5.535,358.986,7.066,357.735,8.599,357.735L8.599,357.735L8.599,357.735z"/>
		<path fill="#252935" d="M18.647,357.735h12.599c1.528,0,0.841,1.251,0.481,2.785l-5.103,21.902
			c-0.357,1.531-0.244,2.779-1.778,2.779h-12.6c-1.533,0-2.483-1.248-2.122-2.779l5.1-21.902
			C15.586,358.986,17.114,357.735,18.647,357.735L18.647,357.735L18.647,357.735z"/>
		<path fill="#252935" d="M30.748,357.735h10.955c1.531,0,2.485,1.251,2.124,2.785l-5.102,21.902
			c-0.357,1.531-1.889,2.779-3.423,2.779H24.35c-1.534,0-2.484-1.248-2.124-2.779l5.099-21.902
			C27.686,358.986,29.215,357.735,30.748,357.735L30.748,357.735L30.748,357.735z"/>
		<path fill-rule="evenodd" clip-rule="evenodd" fill="#FFFFFF" d="M28.916,378.34h1.033l0.299-0.991h-1.031L28.916,378.34
			L28.916,378.34z M29.742,375.6l-0.353,1.173c0,0,0.392-0.2,0.603-0.263c0.21-0.048,0.534-0.088,0.534-0.088l0.251-0.822H29.742
			L29.742,375.6z M30.257,373.91l-0.344,1.128c0,0,0.383-0.172,0.594-0.23c0.214-0.055,0.532-0.076,0.532-0.076l0.248-0.823H30.257
			L30.257,373.91z M32.541,373.91l-1.335,4.419h0.359l-0.278,0.911h-0.358l-0.085,0.286h-1.27l0.087-0.286h-2.585l0.261-0.844H27.6
			l1.353-4.486l0.27-0.906h1.297l-0.136,0.458c0,0,0.347-0.25,0.675-0.335c0.324-0.084,2.207-0.117,2.207-0.117l-0.28,0.9H32.541
			L32.541,373.91z"/>
		<path fill="#FFFFFF" d="M33.113,373.01h1.384l0.013,0.516c-0.006,0.087,0.069,0.127,0.229,0.127h0.281l-0.258,0.852h-0.748
			c-0.648,0.048-0.891-0.23-0.876-0.543L33.113,373.01L33.113,373.01z"/>
		<path fill="#FFFFFF" d="M33.295,377.047h-1.317l0.226-0.758h1.507l0.217-0.69h-1.491l0.258-0.855h4.142l-0.26,0.855h-1.389
			l-0.218,0.69h1.393l-0.228,0.758h-1.507l-0.269,0.322h0.612l0.149,0.954c0.017,0.095,0.02,0.157,0.048,0.198
			c0.031,0.035,0.213,0.052,0.323,0.052h0.183L35.39,379.5h-0.47c-0.075,0-0.181-0.005-0.329-0.013
			c-0.142-0.011-0.242-0.094-0.338-0.141c-0.085-0.042-0.213-0.146-0.244-0.325l-0.148-0.952l-0.683,0.938
			c-0.218,0.297-0.514,0.524-1.012,0.524h-0.958l0.251-0.83h0.366c0.106,0,0.2-0.043,0.268-0.076
			c0.073-0.031,0.135-0.067,0.205-0.171L33.295,377.047L33.295,377.047z"/>
		<path fill="#FFFFFF" d="M18.85,374.974h3.492l-0.257,0.832h-1.397l-0.217,0.71H21.9l-0.262,0.861h-1.427l-0.346,1.154
			c-0.041,0.128,0.337,0.148,0.475,0.148l0.714-0.1l-0.285,0.952h-1.61c-0.13,0-0.227-0.02-0.366-0.051
			c-0.136-0.033-0.194-0.094-0.257-0.187c-0.059-0.094-0.148-0.173-0.087-0.373l0.463-1.531h-0.793l0.262-0.875h0.798l0.211-0.71
			h-0.791L18.85,374.974L18.85,374.974z"/>
		<path fill="#FFFFFF" d="M21.201,373.476h1.434l-0.263,0.872h-1.956l-0.214,0.182c-0.088,0.09-0.123,0.052-0.241,0.117
			c-0.11,0.055-0.343,0.166-0.645,0.166h-0.626l0.253-0.837h0.19c0.161,0,0.269-0.014,0.322-0.05
			c0.062-0.038,0.133-0.127,0.212-0.272l0.359-0.652h1.427L21.201,373.476L21.201,373.476z"/>
		<path fill-rule="evenodd" clip-rule="evenodd" fill="#FFFFFF" d="M23.95,374.908c0,0,0.39-0.356,1.06-0.47
			c0.151-0.032,1.104-0.021,1.104-0.021l0.144-0.478h-2.017L23.95,374.908L23.95,374.908z M25.839,375.274h-2.001l-0.123,0.402
			h1.731c0.205-0.026,0.248,0.006,0.264-0.006L25.839,375.274L25.839,375.274z M23.249,373.01h1.221l-0.177,0.614
			c0,0,0.385-0.306,0.653-0.417c0.269-0.1,0.878-0.191,0.878-0.191l1.974-0.01l-0.672,2.239c-0.112,0.386-0.244,0.632-0.326,0.746
			c-0.073,0.115-0.162,0.212-0.333,0.306c-0.168,0.088-0.321,0.142-0.461,0.156c-0.129,0.01-0.33,0.015-0.606,0.016h-1.904
			l-0.537,1.773c-0.049,0.176-0.075,0.26-0.04,0.307c0.027,0.042,0.092,0.091,0.182,0.091l0.838-0.081l-0.286,0.973h-0.94
			c-0.297,0-0.515-0.006-0.667-0.02c-0.145-0.012-0.297,0-0.397-0.078c-0.089-0.078-0.222-0.176-0.218-0.282
			c0.01-0.097,0.05-0.255,0.11-0.473L23.249,373.01L23.249,373.01z"/>
		<path fill="#FFFFFF" d="M26.807,376.627l-0.113,0.539c-0.049,0.167-0.091,0.295-0.217,0.404c-0.133,0.112-0.289,0.232-0.656,0.232
			l-0.677,0.026l-0.005,0.607c-0.009,0.176,0.036,0.156,0.064,0.184c0.031,0.03,0.059,0.044,0.088,0.054l0.214-0.01l0.646-0.036
			l-0.263,0.886h-0.744c-0.522,0-0.907-0.012-1.032-0.112c-0.126-0.078-0.143-0.179-0.14-0.347l0.048-2.374h1.186l-0.017,0.487
			h0.286c0.097,0,0.161-0.009,0.204-0.038c0.033-0.027,0.061-0.064,0.079-0.124l0.116-0.377H26.807L26.807,376.627z"/>
		<path fill="#FFFFFF" d="M9.895,364.734c-0.043,0.192-0.804,3.702-0.807,3.702c-0.163,0.711-0.281,1.218-0.683,1.543
			c-0.233,0.19-0.499,0.284-0.81,0.284c-0.498,0-0.79-0.25-0.84-0.723l-0.009-0.16c0,0,0.15-0.952,0.152-0.955
			c0,0,0.797-3.199,0.941-3.621c0.004-0.026,0.009-0.034,0.013-0.046c-1.556,0.014-1.831,0-1.849-0.024
			c-0.009,0.032-0.051,0.232-0.051,0.232l-0.813,3.6l-0.072,0.309l-0.133,0.999c0,0.294,0.057,0.537,0.174,0.741
			c0.374,0.65,1.431,0.746,2.029,0.746c0.774,0,1.496-0.163,1.984-0.462c0.849-0.501,1.075-1.289,1.271-1.984l0.093-0.356
			c0,0,0.824-3.323,0.964-3.755c0.003-0.026,0.006-0.034,0.012-0.046C10.334,364.77,10.003,364.758,9.895,364.734L9.895,364.734z"/>
		<path fill="#FFFFFF" d="M14.442,371.327c-0.551-0.007-0.744-0.007-1.387,0.024l-0.027-0.046c0.058-0.245,0.119-0.487,0.173-0.737
			l0.078-0.334c0.12-0.522,0.236-1.128,0.25-1.314c0.012-0.111,0.051-0.387-0.269-0.387c-0.134,0-0.272,0.065-0.414,0.127
			c-0.078,0.279-0.233,1.057-0.308,1.414c-0.159,0.749-0.17,0.833-0.24,1.203l-0.048,0.049c-0.567-0.007-0.763-0.007-1.419,0.024
			l-0.03-0.054c0.11-0.444,0.22-0.896,0.324-1.337c0.275-1.208,0.338-1.668,0.416-2.281l0.051-0.037
			c0.635-0.087,0.792-0.107,1.48-0.25l0.057,0.067l-0.103,0.384c0.116-0.069,0.229-0.139,0.349-0.202
			c0.325-0.159,0.687-0.206,0.887-0.206c0.3,0,0.632,0.083,0.77,0.433c0.13,0.313,0.044,0.695-0.129,1.451l-0.089,0.386
			c-0.176,0.84-0.206,0.994-0.306,1.571L14.442,371.327L14.442,371.327z"/>
		<path fill="#FFFFFF" d="M16.682,371.327c-0.332-0.002-0.548-0.007-0.755-0.002c-0.208,0.002-0.409,0.012-0.717,0.025l-0.019-0.025
			l-0.018-0.028c0.082-0.317,0.129-0.429,0.17-0.543c0.041-0.114,0.082-0.227,0.157-0.55c0.096-0.42,0.155-0.716,0.198-0.974
			c0.043-0.251,0.069-0.463,0.102-0.71l0.024-0.02l0.028-0.024c0.33-0.048,0.541-0.076,0.754-0.109
			c0.217-0.033,0.435-0.075,0.776-0.139l0.013,0.03l0.01,0.028c-0.063,0.262-0.126,0.523-0.19,0.79
			c-0.061,0.263-0.126,0.524-0.184,0.786c-0.124,0.555-0.173,0.761-0.201,0.91c-0.031,0.141-0.037,0.218-0.085,0.505l-0.031,0.027
			L16.682,371.327L16.682,371.327z"/>
		<path fill="#FFFFFF" d="M20.19,369.37c-0.028,0.139-0.154,0.673-0.323,0.898c-0.117,0.166-0.258,0.268-0.414,0.268
			c-0.044,0-0.315,0-0.321-0.405c-0.003-0.199,0.037-0.405,0.089-0.625c0.143-0.643,0.317-1.181,0.753-1.181
			C20.319,368.325,20.34,368.724,20.19,369.37L20.19,369.37z M21.632,369.43c0.192-0.848,0.045-1.242-0.145-1.486
			c-0.29-0.366-0.795-0.485-1.32-0.485c-0.316,0-1.068,0.031-1.658,0.577c-0.421,0.389-0.616,0.921-0.736,1.429
			c-0.118,0.517-0.257,1.453,0.602,1.8c0.268,0.113,0.647,0.144,0.893,0.144c0.631,0,1.276-0.172,1.759-0.688
			C21.402,370.304,21.573,369.685,21.632,369.43L21.632,369.43z"/>
		<path fill="#FFFFFF" d="M35.106,371.383c-0.665-0.005-0.855-0.005-1.473,0.021l-0.04-0.049c0.169-0.634,0.337-1.264,0.486-1.901
			c0.193-0.83,0.235-1.182,0.301-1.667l0.049-0.04c0.661-0.096,0.842-0.121,1.529-0.25l0.024,0.059
			c-0.127,0.518-0.253,1.04-0.372,1.562c-0.253,1.093-0.347,1.649-0.444,2.22L35.106,371.383L35.106,371.383z"/>
		<path fill="#FFFFFF" d="M34.108,369.442c-0.034,0.136-0.157,0.673-0.329,0.896c-0.113,0.16-0.38,0.259-0.535,0.259
			c-0.043,0-0.312,0-0.321-0.398c-0.003-0.196,0.039-0.404,0.088-0.628c0.147-0.626,0.316-1.163,0.755-1.163
			C34.108,368.407,34.254,368.796,34.108,369.442L34.108,369.442z M35.421,369.506c0.195-0.846-0.584-0.076-0.709-0.354
			c-0.19-0.434-0.072-1.314-0.838-1.61c-0.293-0.112-0.984,0.036-1.576,0.577c-0.417,0.386-0.618,0.913-0.734,1.42
			c-0.119,0.511-0.256,1.446,0.598,1.781c0.272,0.113,0.519,0.148,0.766,0.139c0.858-0.049,1.513-1.344,1.999-1.859
			C35.299,369.192,35.365,369.753,35.421,369.506L35.421,369.506z"/>
		<path fill="#FFFFFF" d="M25.397,371.327c-0.553-0.007-0.74-0.007-1.389,0.024l-0.023-0.046c0.054-0.245,0.116-0.487,0.174-0.737
			l0.078-0.334c0.119-0.522,0.235-1.128,0.249-1.314c0.01-0.111,0.049-0.387-0.267-0.387c-0.136,0-0.274,0.065-0.415,0.127
			c-0.078,0.279-0.237,1.057-0.314,1.414c-0.155,0.749-0.164,0.833-0.236,1.203l-0.048,0.049c-0.568-0.007-0.764-0.007-1.414,0.024
			l-0.031-0.054c0.11-0.444,0.216-0.896,0.321-1.337c0.272-1.208,0.336-1.668,0.414-2.281l0.05-0.037
			c0.638-0.087,0.792-0.107,1.482-0.25l0.055,0.067l-0.101,0.384c0.113-0.069,0.229-0.139,0.345-0.202
			c0.325-0.159,0.689-0.206,0.886-0.206c0.3,0,0.632,0.083,0.773,0.433c0.13,0.313,0.043,0.695-0.131,1.451l-0.087,0.386
			c-0.179,0.84-0.207,0.994-0.304,1.571L25.397,371.327L25.397,371.327z"/>
		<path fill="#FFFFFF" d="M30.171,364.728c-0.003,0-0.458,0.005-0.458,0.005c-1.192,0.014-1.668,0.008-1.864-0.016
			c-0.017,0.087-0.051,0.242-0.051,0.242s-0.424,1.979-0.424,1.981c0,0-1.02,4.207-1.069,4.404c1.037-0.012,1.466-0.012,1.643,0.006
			c0.043-0.197,0.284-1.372,0.287-1.372c0,0,0.205-0.861,0.217-0.892c0,0,0.064-0.088,0.132-0.126h0.095
			c0.897,0,1.911,0,2.705-0.583c0.537-0.402,0.907-0.993,1.073-1.71c0.042-0.178,0.074-0.39,0.074-0.598
			c0-0.275-0.054-0.546-0.216-0.761C31.907,364.741,31.104,364.734,30.171,364.728L30.171,364.728z M30.768,366.788
			c-0.098,0.438-0.381,0.807-0.746,0.987c-0.305,0.152-0.673,0.163-1.054,0.163h-0.247l0.019-0.097c0,0,0.455-1.975,0.454-1.969
			l0.01-0.101l0.01-0.078l0.18,0.019c0,0,0.935,0.082,0.958,0.082C30.723,365.934,30.874,366.307,30.768,366.788L30.768,366.788z"/>
		<path fill="#FFFFFF" d="M40.551,367.49l-0.051-0.058c-0.681,0.136-0.804,0.159-1.43,0.242l-0.045,0.045
			c-0.003,0.008-0.004,0.018-0.007,0.028l-0.003-0.01c-0.466,1.078-0.452,0.844-0.831,1.689c-0.003-0.039-0.003-0.064-0.006-0.103
			l-0.093-1.833l-0.06-0.058c-0.711,0.136-0.73,0.159-1.387,0.242l-0.054,0.045c-0.004,0.024-0.006,0.048-0.009,0.072l0.005,0.012
			c0.081,0.42,0.064,0.326,0.145,0.99c0.039,0.324,0.088,0.654,0.127,0.975c0.064,0.537,0.102,0.803,0.181,1.623
			c-0.444,0.733-0.551,1.011-0.974,1.655l0.024,0.061c0.643-0.024,0.792-0.024,1.269-0.024l0.105-0.12
			C37.814,372.191,40.551,367.49,40.551,367.49L40.551,367.49z"/>
		<path fill="#FFFFFF" d="M17.287,367.945c0.363-0.252,0.41-0.604,0.101-0.785c-0.31-0.184-0.852-0.127-1.219,0.127
			c-0.37,0.251-0.413,0.602-0.102,0.786C16.373,368.255,16.921,368.201,17.287,367.945L17.287,367.945z"/>
		<path fill="#FFFFFF" d="M37.404,373.03l-0.535,0.916c-0.171,0.312-0.483,0.547-0.984,0.548l-0.852-0.013l0.25-0.824h0.165
			c0.087,0,0.15-0.009,0.199-0.031c0.043-0.013,0.074-0.046,0.11-0.096l0.314-0.501H37.404L37.404,373.03z"/>
	</g>
	<g>
		<path fill="#252935" d="M54.817,375.781h2.195l0.947-4.089h4.787c0.782,0,1.315-0.569,1.315-0.569
			c0.523-0.499,0.639-1.09,0.639-1.09l1.233-5.304H59.58l0.51-2.177h-2.195l-0.507,2.183h-1.956c-1.19,0.02-2.44,0.982-2.44,0.982
			l0.227-0.981h-2.181l-1.615,6.956h6.345L54.817,375.781z M59.224,366.258h4.173l-0.828,3.562c0,0-0.123,0.328-0.47,0.348h-3.783
			L59.224,366.258z M51.954,370.167l0.908-3.91h4.17l-0.908,3.91H51.954z"/>
		<path fill="#252935" d="M78.941,375.78c0.723,0.006,1.236-0.502,1.236-0.502c0.573-0.496,0.705-1.153,0.705-1.153l2.695-11.576
			l-10.562,0.001c-1.196,0.03-2.442,0.984-2.442,0.984l0.227-0.981h-2.188L65.54,375.78H78.941z M70.445,364.078h10.591
			l-2.269,9.768c0,0-0.09,0.387-0.492,0.414H68.075L70.445,364.078z"/>
		<path fill="#252935" d="M69.861,371.579l-0.355,1.52h8.279l0.353-1.527h-0.421c0.012-0.572-0.038-1.101-0.038-1.101h-1.578
			c0.1,0.511,0.107,1.101,0.107,1.101h-1.12l0.382-1.646h3.051l0.354-1.522h-3.051l0.383-1.643h3.05l0.357-1.52h-8.28l-0.356,1.526
			h3.047l-0.38,1.639h-3.046l-0.353,1.515h3.043l-0.386,1.657H69.861z"/>
		<path fill="#252935" d="M88.221,365.092h3.662l0.356-1.526h-2.867c0.21-0.321,0.495-1.012,0.495-1.012h-2.297
			c-0.616,1.955-1.61,2.032-1.61,2.032h-0.682l-0.361,1.555h1.014C87.248,366.141,88.221,365.092,88.221,365.092z"/>
		<path fill="#252935" d="M84.941,374.405c0,0-0.24,0.785,0.347,1.163c0,0,0.245,0.192,0.79,0.213h3.312l0.354-1.519H87.61
			c0,0-0.441,0.003-0.351-0.49l0.484-2.075h2.598l0.355-1.527h-2.593l0.495-2.133h2.593l0.355-1.524h-6.33l-0.355,1.524h1.56
			l-0.496,2.133h-1.56l-0.355,1.529h1.561L84.941,374.405z"/>
		<path fill="#252935" d="M90.628,375.4c0.337,0.408,1.071,0.38,1.071,0.38h2.534l0.354-1.521h-1.429
			c-0.467-0.035-0.345-0.488-0.345-0.488l0.98-4.215h4.547c0.656,0,1.05-0.341,1.05-0.341c0.764-0.501,0.943-1.367,0.943-1.367
			l1.232-5.297h-3.929c-1.133,0.004-2.44,0.987-2.44,0.987l0.228-0.987h-2.188l-2.743,11.794
			C90.3,375.072,90.628,375.4,90.628,375.4z M95.067,364.088h3.953l-0.282,1.212H96.91c-1.176,0.072-2.352,0.972-2.352,0.972
			L95.067,364.088z M94.43,366.821h3.953l-0.281,1.211h-3.952L94.43,366.821z"/>
		<path fill="#252935" d="M98.348,370.171l-0.19,0.817c-0.068,0.239-0.353,0.239-0.353,0.239h-0.789l-0.023-1.059h-2.177
			l0.073,4.435c0.004,0.483,0.129,0.716,0.129,0.716c0.223,0.516,1.269,0.464,1.269,0.464h2.423l0.354-1.521h-1.593
			c-0.39,0-0.406-0.315-0.406-0.315l-0.026-1.54h1.021c0.85,0,1.199-0.303,1.199-0.303c0.387-0.25,0.492-0.782,0.492-0.782
			l0.267-1.15H98.348z"/>
		<path fill="#252935" d="M101.053,375.12h5.059l-0.155,0.662h2.182l0.154-0.658h0.637l0.354-1.519h-0.639l2.214-9.525h0.644
			l0.357-1.529h-2.777c-1.197,0.088-2.376,0.981-2.376,0.981l0.227-0.98h-2.178l-2.564,11.05h-0.785L101.053,375.12z
			 M106.579,364.078h2.098l-0.504,2.17c0,0-0.974,0.014-2.323,0.967L106.579,364.078z M105.721,367.768h2.1l-0.506,2.169
			c0,0-0.973,0.013-2.323,0.967L105.721,367.768z M104.869,371.439h2.097l-0.502,2.158h-2.097L104.869,371.439z"/>
		<path fill="#252935" d="M110.891,367.766l2.741-0.001l-0.335,1.446h-2.742l-0.35,1.508h2.509l-1.889,3.096
			c-0.324,0.464-0.643,0.446-0.643,0.446h-0.803l-0.353,1.518h1.586c0.849,0.013,1.304-0.418,1.304-0.418
			c0.393-0.306,0.717-0.913,0.717-0.913l1.11-1.837l0.317,1.813c0.077,0.581,0.279,0.847,0.279,0.847
			c0.324,0.501,1.179,0.51,1.179,0.51h1.161l0.355-1.525h-0.538c-0.277-0.033-0.378-0.586-0.378-0.586l-0.382-2.17h-1.312
			l0.469-0.778h2.964l0.352-1.507h-2.739l0.337-1.448h2.739l0.353-1.508h-7.657L110.891,367.766z"/>
		<path fill="#252935" d="M118.641,364.594c0,0,0.76-0.746,1.118-2.043h-2.377c0,0-0.178,0.547-0.408,0.875
			c0,0-0.305,0.477-1.123,0.491l-0.355,1.529h1.316C116.813,365.445,117.794,365.498,118.641,364.594z"/>
		<path fill="#252935" d="M113.712,365.445h1.315l0.355-1.529c-0.812-0.013-0.895-0.491-0.895-0.491c-0.076-0.328,0-0.875,0-0.875
			h-2.378c-0.245,1.297,0.17,2.043,0.17,2.043C112.707,365.498,113.712,365.445,113.712,365.445z"/>
		<path fill="#252935" d="M50.462,384.174c-1.141,0-2.073-1.076-1.731-2.549c0.353-1.523,1.778-2.558,2.917-2.558
			c1.098,0,1.585,0.299,1.793,0.405l0.665-1.024c-0.266-0.18-0.872-0.521-2.353-0.521c-2.111,0-4.105,1.524-4.611,3.698
			c-0.505,2.176,0.785,3.689,2.895,3.689c1.344,0,2.096-0.255,2.66-0.522l-0.213-1.013
			C52.074,383.929,51.507,384.174,50.462,384.174z"/>
		<path fill="#252935" d="M57.558,380.378c-0.822,0-1.531,0.439-1.753,0.565l0.767-3.305l-1.441,0.15l-1.715,7.388h1.406l0.786-3.38
			c0.209-0.118,0.609-0.372,1.026-0.372c0.543,0,0.687,0.255,0.577,0.724l-0.702,3.028h1.395l0.78-3.359
			C58.887,380.943,58.475,380.378,57.558,380.378z"/>
		<path fill="#252935" d="M60.24,378.79c-0.086,0.372,0.176,0.715,0.548,0.715c0.386,0,0.805-0.343,0.891-0.715
			c0.089-0.372-0.172-0.724-0.555-0.724C60.75,378.066,60.328,378.418,60.24,378.79z"/>
		<polygon fill="#252935" points="59.869,380.485 58.778,385.176 60.177,385.176 61.266,380.485 		"/>
		<path fill="#252935" d="M65.319,380.378c-0.853,0-1.55,0.439-1.773,0.565l0.053-0.459h-1.321l-1.09,4.691h1.398l0.783-3.38
			c0.209-0.118,0.579-0.372,1.026-0.372c0.533,0,0.687,0.255,0.577,0.724l-0.701,3.028h1.398l0.779-3.359
			C66.648,380.943,66.236,380.378,65.319,380.378z"/>
		<path fill="#252935" d="M69.872,380.378c-1.012,0-1.804,0.331-2.159,0.48l0.133,0.714c0.291-0.107,0.759-0.288,1.401-0.288
			c0.724,0,0.802,0.352,0.706,0.768l-0.055,0.234l-0.999,0.032c-1.206,0.053-2.09,0.736-2.292,1.61
			c-0.181,0.779,0.292,1.353,1.232,1.353c0.703,0,1.209-0.34,1.487-0.523c-0.026,0.108-0.025,0.289-0.002,0.417h1.46
			c-0.031-0.139-0.049-0.48,0.013-0.735l0.602-2.602C71.611,380.923,70.992,380.378,69.872,380.378z M69.507,383.971
			c-0.231,0.127-0.633,0.384-1.004,0.384c-0.256,0-0.712-0.065-0.592-0.576c0.124-0.533,0.714-0.693,1.141-0.735l0.683-0.054
			L69.507,383.971z"/>
		<path fill="#252935" d="M79.683,378.066l-1.041,4.477c-0.185,0.801-0.84,1.653-1.938,1.653c-1.109,0-1.43-0.598-1.184-1.653
			l1.039-4.477h-1.514l-1.081,4.659c-0.352,1.513,0.465,2.589,2.404,2.589c1.93,0,3.268-1.13,3.607-2.589l1.082-4.659H79.683z"/>
		<path fill="#252935" d="M84.55,380.378c-0.854,0-1.55,0.439-1.773,0.565l0.053-0.459h-1.321l-1.09,4.691h1.399l0.784-3.38
			c0.208-0.118,0.576-0.372,1.023-0.372c0.533,0,0.688,0.255,0.577,0.724l-0.701,3.028h1.396l0.779-3.359
			C85.88,380.943,85.468,380.378,84.55,380.378z"/>
		<path fill="#252935" d="M87.328,378.79c-0.087,0.372,0.173,0.715,0.547,0.715c0.384,0,0.805-0.343,0.891-0.715
			c0.087-0.372-0.173-0.724-0.556-0.724C87.837,378.066,87.415,378.418,87.328,378.79z"/>
		<polygon fill="#252935" points="85.866,385.176 87.263,385.176 88.353,380.485 86.956,380.485 		"/>
		<path fill="#252935" d="M91.788,380.378c-1.428,0-2.907,0.95-3.255,2.453c-0.349,1.504,0.688,2.451,2.116,2.451
			c1.43,0,2.907-0.947,3.255-2.451C94.254,381.328,93.216,380.378,91.788,380.378z M92.403,382.831
			c-0.187,0.799-0.834,1.524-1.538,1.524c-0.84,0-1.036-0.725-0.849-1.524c0.187-0.81,0.715-1.526,1.557-1.526
			C92.276,381.305,92.59,382.021,92.403,382.831z"/>
		<path fill="#252935" d="M98.217,380.378c-0.853,0-1.552,0.439-1.773,0.565l0.052-0.459h-1.321l-1.087,4.691h1.395l0.785-3.38
			c0.208-0.118,0.576-0.372,1.025-0.372c0.534,0,0.687,0.255,0.578,0.724l-0.703,3.028h1.396l0.779-3.359
			C99.545,380.943,99.133,380.378,98.217,380.378z"/>
		<path fill="#252935" d="M109.354,384.441l0.604-2.602c0.213-0.917-0.407-1.461-1.526-1.461c-1.014,0-1.804,0.331-2.159,0.48
			l0.132,0.714c0.292-0.107,0.76-0.288,1.4-0.288c0.725,0,0.804,0.352,0.707,0.768l-0.054,0.234l-0.999,0.032
			c-1.207,0.053-2.09,0.736-2.294,1.61c-0.179,0.779,0.293,1.353,1.232,1.353c0.703,0,1.21-0.34,1.487-0.523
			c-0.026,0.108-0.025,0.289,0,0.417h1.459C109.312,385.037,109.296,384.697,109.354,384.441z M108.066,383.971
			c-0.232,0.127-0.632,0.384-1.006,0.384c-0.256,0-0.711-0.065-0.592-0.576c0.124-0.533,0.715-0.693,1.142-0.735l0.683-0.054
			L108.066,383.971z"/>
		<path fill="#252935" d="M112.458,383.652l-0.459-3.167h-1.44l0.853,4.776l-0.318,0.502c-0.425,0.585-0.647,0.991-1.179,0.991
			c-0.343,0-0.554-0.096-0.769-0.182l-0.534,0.832c0.216,0.127,0.479,0.33,1.33,0.33c0.876,0,1.408-0.597,1.886-1.365l3.719-5.885
			h-1.204L112.458,383.652z"/>
		<path fill="#252935" d="M106.166,380.113c0.26-1.131-0.48-2.047-2.231-2.047h-2.32l-1.641,7.111h1.532l0.682-2.953h0.754
			C104.432,382.223,105.871,381.392,106.166,380.113z M104.558,380.113c-0.178,0.766-0.932,1.096-1.588,1.096h-0.548l0.499-2.152
			h0.546C104.123,379.057,104.727,379.377,104.558,380.113z"/>
	</g>
</g>
<g>
	<g>
		<g>
			<path fill="#252935" d="M5.293,164.73c-1.348,0-2.428,1.483-2.832,2.293c-0.404,0.809-1.484,10.251-1.484,10.251l2.967,0.134
				l1.754-10.25l5.801,0.135l-1.888,10.115h3.371l2.108-12.678C15.088,164.73,6.641,164.73,5.293,164.73z M8.156,177.419
				c-0.276-0.691,1.243-8.57,1.243-8.57H6.635c0,0-0.276,4.562-1.245,7.741C4.147,179.768,0,179.908,0,179.908l0.138,2.212
				c2.765,0.276,6.221-2.626,6.221-2.626c2.765,2.904,5.391,2.486,5.391,2.486l0.276-2.21C9.677,179.356,8.432,178.11,8.156,177.419
				z M26.472,166.665v-1.686h-3.306v1.621H16.55l-0.977,1.992c0,0,5.985,0,6.704,0.119c0.718,0.119,1.556,0.479,1.077,3.95
				c-0.479,3.47-4.908,8.858-4.908,8.858h4.789c1.557-0.839,2.784-13.039,2.784-13.039h1.751v-1.815H26.472z M18.566,169.668
				c0,0-2.514,6.704-3.232,7.661c-0.718,0.957-1.198,1.557-1.676,1.917c-0.479,0.359-0.479,2.274-0.479,2.274
				s-0.599,0.36,2.034-0.24c2.633-0.599,6.345-11.612,6.345-11.612H18.566z"/>
		</g>
	</g>
	<g>
		<g>
			<path fill="#252935" d="M36.759,159.972c0,0-2.754,3.831-3.231,4.309c-0.479,0.478-1.677,0.838-1.677,0.838l-0.359,2.514h2.154
				c-0.121,0.36-2.752,14.127-2.752,14.127h4.31l2.633-17.119l3.232-4.668H36.759z M58.905,162.367l0.359-2.274h-4.19l-0.359,2.393
				H41.428c-0.24,0.958-1.556,2.754-1.556,2.754h14.244l-1.077,4.668c3.95,9.097-7.66,13.407-7.66,13.407
				c5.745,0,9.097-2.873,10.295-5.625c1.198-2.752,2.274-12.69,2.274-12.69l1.317-0.119l0.479-2.514H58.905z"/>
		</g>
	</g>
	<g>
		<g>
			<path fill="#252935" d="M87.275,167.704c1.525-0.128,1.397-2.541,1.397-2.541H71.142l-1.015,1.907h12.956
				c0,0.635-0.763,1.523-0.763,1.523h-3.938v-0.508h-4.571l-0.381,0.762c0,0-2.287-0.38-3.176,0.636
				c-0.889,1.016-1.905,9.908-1.905,9.908l3.302-0.127l0.635-2.541h3.43l-0.254,2.668h3.684l0.254-2.922c0,0,2.412,0,3.048,0
				c0.636,0,0.762-1.524,0.762-1.524l-3.302-0.127l0.128-1.143c0,0,2.031,0,2.921-0.128c0.889-0.127,0.762-1.905,0.762-1.905h-3.175
				l0.126-0.889h3.812c2.033,3.174-2.668,8.638-2.668,8.638h4.192c0.253-0.38,2.286-10.289,2.286-10.289h-1.143
				C86.639,168.211,87.275,167.704,87.275,167.704z M75.844,174.816c-0.51,0-3.43-0.127-3.43-0.127s-0.254-1.017,0.254-1.143
				c0.507-0.126,3.556,0.128,3.556,0.128S76.353,174.816,75.844,174.816z M76.478,171.515c-0.761,0-3.303,0-3.303,0
				s-0.507-0.637,0-0.763h3.684C76.859,170.752,77.24,171.515,76.478,171.515z M68.73,180.659c-2.667-0.128-2.668-1.651-2.668-1.651
				l2.287-11.431h-4.699l-0.254,2.031h1.143c0,0-1.271,8.385-1.524,9.782c-0.254,1.397-1.651,1.015-1.651,1.015v1.905
				c0,0,2.159,0,2.54,0c0.382,0,1.271-1.015,1.271-1.015c0.889,1.016,3.556,1.142,3.556,1.142h17.782l0.382-1.778
				C86.894,180.659,71.397,180.787,68.73,180.659z"/>
		</g>
	</g>
	<path fill="#252935" d="M50.272,168.993c-2.554-2.114-6.606-1.435-9.048,1.518c-2.443,2.949-2.35,7.059,0.204,9.171
		c2.556,2.115,6.607,1.435,9.049-1.515C52.921,175.212,52.828,171.106,50.272,168.993z M47.505,176.242H42.97l0.647-4.535h4.32
		L47.505,176.242z"/>
	<path fill="#252935" d="M63.9,164.401h5.256c0,0-2.866-19.828-52.561-6.449C16.595,157.952,59.361,148.871,63.9,164.401z"/>
	<g>
		<g>
			<path fill="#252935" d="M1.57,163.08v-2.864H0.5v-0.383h2.574v0.383H2v2.864H1.57z"/>
			<path fill="#252935" d="M3.887,163.08v-3.247h2.348v0.383H4.317v0.995h1.797v0.381H4.317v1.105h1.993v0.383H3.887z"/>
			<path fill="#252935" d="M7.263,163.08v-3.247h0.441l1.706,2.549v-2.549h0.412v3.247H9.381l-1.706-2.552v2.552H7.263z"/>
			<path fill="#252935" d="M10.906,163.08v-3.247h1.225c0.216,0,0.38,0.01,0.494,0.031c0.16,0.027,0.293,0.077,0.401,0.151
				c0.107,0.075,0.194,0.18,0.26,0.314c0.066,0.134,0.098,0.282,0.098,0.443c0,0.276-0.088,0.51-0.263,0.701
				c-0.176,0.192-0.493,0.288-0.953,0.288h-0.833v1.32H10.906z M11.336,161.377h0.84c0.278,0,0.475-0.052,0.591-0.155
				c0.117-0.104,0.175-0.249,0.175-0.437c0-0.136-0.034-0.252-0.103-0.349c-0.068-0.096-0.159-0.161-0.271-0.191
				c-0.073-0.02-0.206-0.029-0.401-0.029h-0.831V161.377z"/>
			<path fill="#252935" d="M13.602,163.08l1.247-3.247h0.463l1.329,3.247h-0.49l-0.379-0.984h-1.358l-0.357,0.984H13.602z
				 M14.539,161.747h1.101l-0.339-0.9c-0.103-0.273-0.18-0.498-0.231-0.673c-0.041,0.208-0.099,0.415-0.175,0.62L14.539,161.747z"/>
			<path fill="#252935" d="M17.926,163.08v-1.376l-1.252-1.871h0.523l0.64,0.979c0.118,0.183,0.228,0.366,0.33,0.549
				c0.098-0.169,0.216-0.361,0.354-0.573l0.629-0.955h0.501l-1.296,1.871v1.376H17.926z"/>
			<path fill="#252935" d="M19.877,163.08v-0.454h0.454v0.454H19.877z"/>
			<path fill="#252935" d="M23.755,161.941l0.43,0.109c-0.09,0.353-0.252,0.623-0.486,0.808c-0.234,0.185-0.521,0.278-0.859,0.278
				c-0.35,0-0.635-0.071-0.854-0.214c-0.22-0.142-0.386-0.349-0.501-0.619c-0.114-0.27-0.172-0.56-0.172-0.871
				c0-0.338,0.065-0.633,0.194-0.885c0.129-0.251,0.313-0.443,0.551-0.573c0.239-0.131,0.501-0.196,0.788-0.196
				c0.325,0,0.598,0.084,0.819,0.249c0.221,0.165,0.376,0.398,0.463,0.698l-0.423,0.1c-0.075-0.237-0.184-0.409-0.328-0.517
				c-0.143-0.108-0.323-0.161-0.54-0.161c-0.25,0-0.458,0.059-0.626,0.179c-0.168,0.119-0.286,0.279-0.353,0.481
				c-0.068,0.202-0.102,0.409-0.102,0.624c0,0.275,0.04,0.516,0.121,0.723c0.081,0.206,0.206,0.36,0.375,0.462
				c0.17,0.102,0.354,0.153,0.552,0.153c0.241,0,0.445-0.069,0.611-0.208C23.584,162.421,23.696,162.215,23.755,161.941z"/>
			<path fill="#252935" d="M24.947,161.499c0-0.539,0.145-0.962,0.434-1.266c0.289-0.305,0.663-0.457,1.121-0.457
				c0.3,0,0.57,0.071,0.81,0.214c0.241,0.143,0.424,0.343,0.551,0.599c0.126,0.256,0.19,0.547,0.19,0.872
				c0,0.329-0.067,0.624-0.199,0.884c-0.133,0.26-0.321,0.457-0.565,0.59c-0.243,0.133-0.507,0.201-0.789,0.201
				c-0.306,0-0.579-0.074-0.819-0.222c-0.241-0.147-0.423-0.349-0.547-0.604C25.009,162.054,24.947,161.784,24.947,161.499z
				 M25.39,161.506c0,0.391,0.105,0.699,0.315,0.925c0.211,0.225,0.475,0.337,0.792,0.337c0.323,0,0.59-0.113,0.799-0.341
				c0.209-0.227,0.313-0.55,0.313-0.968c0-0.264-0.044-0.496-0.134-0.692c-0.09-0.197-0.22-0.35-0.392-0.458
				c-0.172-0.109-0.365-0.163-0.579-0.163c-0.304,0-0.566,0.104-0.785,0.314C25.5,160.667,25.39,161.017,25.39,161.506z"/>
			<path fill="#252935" d="M28.956,163.08v-3.247h0.647l0.768,2.299c0.071,0.215,0.123,0.375,0.155,0.481
				c0.037-0.118,0.094-0.291,0.173-0.521l0.777-2.259h0.578v3.247h-0.414v-2.719l-0.944,2.719h-0.388l-0.939-2.765v2.765H28.956z"/>
		</g>
	</g>
</g>
<g>
	<path fill="#252935" d="M23.765,219.072l-0.188,2.115c-0.192,2.198,1.469,3.047,2.025,3.189l-0.123,1.021
		c-1.576,0-4.61-0.631-5.278-3.606c-0.267-1.187-0.042-2.72-0.042-2.72H23.765L23.765,219.072L23.765,219.072z M23.765,219.072"/>
	<path fill="#252935" d="M36.798,212.101l-9.014-0.001c-1.003,0-1.041-0.866-0.637-1.599l1.238-2.806h3.725
		c0,0-0.663,1.688-0.801,2.029c-0.1,0.245-0.328,0.63,0.414,0.63h5.229L36.798,212.101L36.798,212.101L36.798,212.101z
		 M36.798,212.101"/>
	<path fill="#252935" d="M36.539,215.027l0.153-1.748h-9.847l-0.152,1.748h2.171l-0.136,1.563h-2.17h-2.575l0.411-4.715
		c0.075-0.858-0.753-1.523-1.897-1.523h-4.185l0.197-2.252c0.02-0.229-0.142-0.406-0.37-0.406h-3.262l-0.233,2.658h-4.578
		l-0.152,1.749h4.578l-0.393,4.489H9.522l-0.153,1.747h4.356c-0.964,2.756-3.506,5.274-4.884,6.029l-0.093,1.03
		c1.718,0,6.969-3.152,8.572-7.06h9.085h2.168l-0.479,5.487c-0.102,1.164,0.662,1.573,1.871,1.573c2.3,0,4.987-1.172,5.807-1.585
		l0.086-0.991c-0.832,0.197-2.128,0.486-3.056,0.557c-0.616,0.047-0.914-0.183-0.862-0.787l0.372-4.254h3.938l0.154-1.747h-3.938
		l0.137-1.563H36.539L36.539,215.027L36.539,215.027z M20.699,212.861l-0.323,3.729h-2.61l0.394-4.489h1.591
		C20.323,212.101,20.737,212.433,20.699,212.861L20.699,212.861L20.699,212.861z M20.699,212.861"/>
	<path fill="#252935" d="M48.634,207.596c0-1.039,0.841-1.881,1.88-1.881c1.039,0,1.881,0.842,1.881,1.881
		c0,1.038-0.842,1.88-1.881,1.88C49.475,209.476,48.634,208.634,48.634,207.596L48.634,207.596L48.634,207.596z M48.634,207.596"/>
	<path fill="#252935" d="M0.256,214.19l-0.246,2.367c-0.093,1.075,0.467,1.784,1.56,1.784l3.353-0.002l-0.618,7.057h3.316
		L9.134,208.1c0.02-0.229-0.142-0.406-0.37-0.406H5.854l-0.778,8.896H3.738c-0.506,0-0.556-0.442-0.556-0.442l0.199-1.891"/>
	<path fill="#252935" d="M54.566,226.007c0,1.869-2.674,6.307-7.933,6.307c-5.155,0-7.511-6.075-2.107-11.108
		c3.247-3.024,6.871-2.535,8.273-0.647c1.53,2.059-0.928,3.618-4.476,3.19c-3.373-0.407-5.221-3.602-5.359-7.648
		c-0.005-0.16,0.002-0.317,0.005-0.472c0.005-0.205,0.01-0.406,0.019-0.603v0.001h6.869l0.151-1.748H43.1
		c0.048-0.408,0.107-0.802,0.171-1.178h6.839l0.151-1.749h-6.623c0.331-1.329,0.656-2.169,0.656-2.169
		c0.02-0.23-0.142-0.399-0.371-0.387H40.78c0,0-0.312,0.987-0.608,2.555h-2.156l-0.153,1.749h2.029
		c-0.05,0.376-0.094,0.77-0.132,1.178h-2l-0.154,1.748h2.048c0,0-0.138,4.189,2.146,6.957c1.761,2.244,3.871,3.38,6.815,3.38
		c2.602,0,4.808-1.108,5.407-2.815c0.513-1.466-0.61-3.234-1.9-4.116c-4.436-3.03-12.654,0.715-13.782,7.626
		c-0.884,5.409,3.202,8.362,6.776,8.362C50.305,234.42,54.566,230.194,54.566,226.007L54.566,226.007L54.566,226.007z
		 M54.566,226.007"/>
	<path fill="#252935" d="M0.256,214.19c0,0,0.116-1.822,0.433-3.716c0.344-2.051,1.548-6.054,8.184-6.054h7.393h-0.357h1.089
		l-0.031,0.269c-0.037,0.302-0.234,0.468-0.757,0.468h-0.387h-0.051H9.45c-4.621,0-5.41,3.795-5.667,5.709
		c-0.237,1.768-0.403,3.391-0.403,3.391"/>
	<path fill="#252935" d="M6.41,230.974c-0.421,0.265-0.771,0.388-1.051,0.372c-0.941-0.032-1.397-0.496-1.368-1.391
		c0.151-0.977,0.778-1.506,1.877-1.59c1.155,0.05,1.702,0.704,1.642,1.963c-0.304,1.772-1.306,2.715-3.005,2.831
		c-0.315,0-0.452-0.042-0.411-0.124c-0.024-0.116,0.097-0.182,0.365-0.199C5.497,232.704,6.148,232.082,6.41,230.974L6.41,230.974
		L6.41,230.974z M5.593,230.948c0.546,0,0.858-0.348,0.936-1.043c0.034-0.761-0.189-1.151-0.668-1.168
		c-0.498,0.017-0.789,0.407-0.872,1.168C4.946,230.584,5.147,230.932,5.593,230.948L5.593,230.948L5.593,230.948z M5.593,230.948"/>
	<path fill="#252935" d="M10.459,230.974c-0.421,0.265-0.771,0.388-1.052,0.372c-0.941-0.032-1.396-0.496-1.368-1.391
		c0.152-0.977,0.778-1.506,1.878-1.59c1.154,0.05,1.701,0.704,1.641,1.963c-0.304,1.772-1.305,2.715-3.005,2.831
		c-0.314,0-0.451-0.042-0.41-0.124c-0.024-0.116,0.098-0.182,0.364-0.199C9.546,232.704,10.196,232.082,10.459,230.974
		L10.459,230.974L10.459,230.974z M9.642,230.948c0.546,0,0.858-0.348,0.936-1.043c0.033-0.761-0.19-1.151-0.668-1.168
		c-0.498,0.017-0.789,0.407-0.872,1.168C8.994,230.584,9.195,230.932,9.642,230.948L9.642,230.948L9.642,230.948z M9.642,230.948"/>
	<path fill="#252935" d="M12.117,232.463l0.295-3.377c0.009-0.1,0.027-0.349,0.037-0.447c-0.007-0.116,0.098-0.174,0.313-0.174h1.89
		c0.926,0.017,1.377,0.348,1.354,0.993c-0.071,0.613-0.477,1.002-1.22,1.168l-0.003,0.024c0.856,0.067,1.287,0.439,1.293,1.118
		c-0.109,0.861-0.718,1.308-1.831,1.341h-1.892c-0.215,0-0.309-0.067-0.28-0.199C12.081,232.828,12.106,232.596,12.117,232.463
		L12.117,232.463L12.117,232.463z M13.188,231.023l-0.103,1.167c-0.081,0.364,0.103,0.53,0.552,0.496
		c0.878,0,1.351-0.298,1.42-0.894c0.012-0.513-0.258-0.835-0.809-0.968L13.188,231.023L13.188,231.023L13.188,231.023z
		 M13.333,229.359l-0.111,1.267c1.126-0.183,1.714-0.571,1.766-1.168c0.015-0.364-0.291-0.555-0.919-0.571
		C13.525,228.854,13.28,229.011,13.333,229.359L13.333,229.359L13.333,229.359z M13.333,229.359"/>
	<path fill="#252935" d="M17.148,233.11h-0.372c-0.166,0-0.235-0.058-0.208-0.174c0.004-0.05,0.042-0.448,0.042-0.448l0.146-1.664
		c0.009-0.099-0.058-0.183-0.201-0.249c-0.079-0.05-0.115-0.107-0.109-0.174c-0.012-0.065,0.051-0.115,0.187-0.148l0.077-0.025
		c0.377-0.149,0.615-0.224,0.715-0.224c0.168-0.032,0.228,0.133,0.18,0.497l-0.173,1.987c0,0-0.041,0.397-0.045,0.448
		C17.376,233.052,17.297,233.11,17.148,233.11L17.148,233.11L17.148,233.11z M17.28,228.812c0.312,0.017,0.466,0.165,0.457,0.447
		c-0.043,0.298-0.229,0.447-0.561,0.447c-0.348,0-0.508-0.149-0.482-0.447C16.735,228.977,16.931,228.829,17.28,228.812
		L17.28,228.812L17.28,228.812z M17.28,228.812"/>
	<path fill="#252935" d="M20.532,233.11h-0.334c-0.183,0-0.26-0.058-0.234-0.174c0.006-0.065,0.053-0.473,0.053-0.473l0.295-3.377
		c0.01-0.115-0.049-0.199-0.177-0.248c-0.095-0.05-0.137-0.124-0.13-0.223c0.128-0.15,0.454-0.266,0.975-0.349
		c0.15-0.015,0.212,0.125,0.186,0.423l-0.331,3.775c0,0-0.032,0.407-0.039,0.473C20.786,233.052,20.698,233.11,20.532,233.11
		L20.532,233.11L20.532,233.11z M20.532,233.11"/>
	<path fill="#252935" d="M18.819,233.11h-0.336c-0.182,0-0.26-0.058-0.232-0.174c0.005-0.065,0.051-0.473,0.051-0.473l0.295-3.377
		c0.011-0.115-0.048-0.199-0.177-0.248c-0.094-0.05-0.138-0.124-0.128-0.223c0.128-0.15,0.452-0.266,0.974-0.349
		c0.15-0.015,0.213,0.125,0.187,0.423l-0.33,3.775c0,0-0.034,0.407-0.04,0.473C19.072,233.052,18.984,233.11,18.819,233.11
		L18.819,233.11L18.819,233.11z M18.819,233.11"/>
	<path fill="#252935" d="M22.218,233.134c-0.33-0.017-0.492-0.15-0.486-0.398c0.039-0.264,0.225-0.413,0.56-0.447
		c0.295,0.034,0.447,0.183,0.458,0.447C22.694,232.985,22.517,233.118,22.218,233.134L22.218,233.134L22.218,233.134z
		 M22.218,233.134"/>
	<path fill="#252935" d="M23.491,231.645c0.154-1.011,0.757-1.557,1.808-1.641c0.691,0.05,1.061,0.273,1.109,0.67
		c-0.034,0.199-0.176,0.299-0.424,0.299c-0.118,0.017-0.226-0.075-0.324-0.273c-0.113-0.232-0.252-0.348-0.417-0.348
		c-0.501,0.05-0.794,0.48-0.883,1.293c-0.025,0.661,0.243,1.017,0.802,1.067c0.248,0,0.505-0.108,0.773-0.323
		c0.126-0.116,0.214-0.174,0.264-0.174c0.098,0.016,0.143,0.074,0.134,0.174c-0.223,0.464-0.684,0.712-1.381,0.745
		C23.943,233.102,23.456,232.604,23.491,231.645L23.491,231.645L23.491,231.645z M23.491,231.645"/>
	<path fill="#252935" d="M30.128,231.594c-0.169,0.977-0.784,1.49-1.849,1.541c-1.089-0.05-1.624-0.563-1.604-1.541
		c0.152-0.977,0.778-1.506,1.878-1.59C29.604,230.088,30.13,230.617,30.128,231.594L30.128,231.594L30.128,231.594z M27.543,231.594
		c-0.051,0.779,0.204,1.176,0.765,1.193c0.533-0.034,0.85-0.431,0.949-1.193c0.034-0.761-0.212-1.167-0.738-1.217
		C27.952,230.427,27.627,230.833,27.543,231.594L27.543,231.594L27.543,231.594z M27.543,231.594"/>
	<path fill="#252935" d="M35.194,233.11h-0.379c-0.149,0-0.218-0.058-0.208-0.174c0.006-0.065,0.024-0.307,0.038-0.473l0.125-1.415
		c0.015-0.364-0.134-0.555-0.447-0.572c-0.401,0.034-0.64,0.216-0.717,0.548l-0.127,1.44c-0.015,0.166-0.028,0.407-0.034,0.473
		c-0.009,0.116-0.089,0.174-0.238,0.174h-0.373c-0.183,0-0.26-0.058-0.232-0.174c0.005-0.065,0.04-0.307,0.057-0.473l0.124-1.415
		c0.015-0.364-0.133-0.555-0.446-0.572c-0.401,0.034-0.64,0.216-0.719,0.548l-0.127,1.44c-0.014,0.166-0.032,0.407-0.037,0.473
		c-0.011,0.116-0.098,0.174-0.264,0.174h-0.342c-0.184,0-0.26-0.058-0.233-0.174c0.007-0.065,0.043-0.307,0.058-0.473l0.135-1.539
		c0.016-0.183-0.04-0.298-0.169-0.348c-0.08-0.033-0.115-0.1-0.107-0.199c0.031-0.165,0.315-0.289,0.853-0.372
		c0.169-0.033,0.228,0.141,0.178,0.521h0.025c0.244-0.331,0.598-0.504,1.064-0.521c0.412,0.017,0.687,0.19,0.824,0.521
		c0.28-0.348,0.658-0.521,1.138-0.521c0.676,0.033,1.003,0.372,0.98,1.019l-0.126,1.44c-0.015,0.166-0.028,0.407-0.034,0.473
		C35.423,233.052,35.342,233.11,35.194,233.11L35.194,233.11L35.194,233.11z M35.194,233.11"/>
</g>
<g>
	<path fill="#252935" d="M42.664,409.465l0.476,0.001c0.131,0.001,0.261,0.002,0.392,0.006c0.238,0.006,0.518,0.02,0.787,0.068
		c0.25,0.045,0.461,0.114,0.665,0.218c0.204,0.104,0.391,0.239,0.554,0.402c0.164,0.164,0.299,0.351,0.404,0.556
		c0.104,0.204,0.173,0.415,0.217,0.665c0.048,0.267,0.062,0.547,0.068,0.787c0.004,0.13,0.006,0.26,0.006,0.392
		c0.001,0.158,0.001,0.317,0.001,0.476v21.607c0,0.159,0,0.317-0.001,0.478c-0.001,0.131-0.002,0.261-0.006,0.391
		c-0.006,0.239-0.019,0.52-0.068,0.789c-0.045,0.248-0.113,0.46-0.217,0.663c-0.105,0.206-0.24,0.392-0.403,0.555
		c-0.164,0.164-0.35,0.299-0.555,0.403c-0.204,0.104-0.415,0.173-0.663,0.218c-0.274,0.049-0.565,0.062-0.786,0.068
		c-0.132,0.003-0.263,0.005-0.396,0.005c-0.158,0.001-0.317,0.001-0.475,0.001H4.197c-0.002,0-0.004,0-0.005,0
		c-0.157,0-0.314,0-0.472-0.001c-0.131-0.001-0.262-0.002-0.391-0.005c-0.223-0.006-0.515-0.019-0.787-0.068
		c-0.25-0.045-0.461-0.114-0.666-0.218c-0.205-0.104-0.391-0.239-0.555-0.403c-0.163-0.162-0.298-0.349-0.403-0.555
		c-0.104-0.204-0.173-0.415-0.218-0.665c-0.048-0.269-0.062-0.548-0.068-0.787c-0.003-0.131-0.005-0.261-0.006-0.391l-0.001-0.381
		v-0.096v-21.607v-0.096l0.001-0.381c0.001-0.131,0.002-0.261,0.006-0.392c0.006-0.238,0.019-0.518,0.068-0.788
		c0.045-0.249,0.114-0.46,0.218-0.665c0.104-0.205,0.24-0.392,0.403-0.555c0.163-0.163,0.35-0.299,0.555-0.403
		c0.204-0.104,0.415-0.173,0.665-0.218c0.269-0.049,0.549-0.062,0.788-0.068c0.131-0.003,0.261-0.005,0.392-0.006l0.477-0.001
		H42.664 M42.664,408.84H4.197c-0.16,0-0.321,0-0.481,0.001c-0.135,0.001-0.27,0.002-0.405,0.006
		c-0.294,0.008-0.591,0.025-0.881,0.078c-0.295,0.053-0.57,0.14-0.838,0.276c-0.263,0.134-0.504,0.309-0.713,0.518
		c-0.209,0.209-0.384,0.45-0.518,0.713c-0.136,0.268-0.223,0.543-0.276,0.838c-0.052,0.291-0.07,0.587-0.078,0.881
		c-0.004,0.135-0.005,0.27-0.006,0.405C0,412.716,0,412.876,0,413.037v21.607c0,0.161,0,0.32,0.001,0.481
		c0.001,0.135,0.002,0.27,0.006,0.405c0.008,0.294,0.025,0.59,0.078,0.881c0.053,0.295,0.139,0.57,0.276,0.838
		c0.134,0.264,0.309,0.505,0.518,0.713c0.209,0.209,0.45,0.385,0.713,0.518c0.268,0.137,0.543,0.223,0.838,0.276
		c0.29,0.052,0.587,0.07,0.881,0.078c0.135,0.003,0.27,0.005,0.405,0.005c0.16,0.001,0.32,0.001,0.481,0.001h38.468
		c0.16,0,0.32,0,0.48-0.001c0.135-0.001,0.27-0.002,0.405-0.005c0.294-0.008,0.59-0.026,0.881-0.078
		c0.295-0.053,0.569-0.14,0.837-0.276c0.264-0.134,0.504-0.309,0.713-0.518c0.209-0.209,0.384-0.45,0.518-0.713
		c0.137-0.268,0.223-0.543,0.276-0.838c0.052-0.29,0.07-0.587,0.077-0.881c0.004-0.135,0.005-0.27,0.006-0.405
		c0.001-0.161,0.001-0.32,0.001-0.481v-21.607c0-0.161,0-0.321-0.001-0.481c-0.001-0.135-0.002-0.27-0.006-0.405
		c-0.008-0.294-0.025-0.59-0.077-0.881c-0.052-0.295-0.139-0.57-0.276-0.838c-0.134-0.264-0.309-0.504-0.518-0.713
		c-0.209-0.209-0.45-0.384-0.713-0.518c-0.268-0.136-0.543-0.223-0.837-0.276c-0.291-0.052-0.588-0.07-0.881-0.078
		c-0.135-0.004-0.27-0.005-0.405-0.006C42.985,408.84,42.824,408.84,42.664,408.84L42.664,408.84z"/>
	<g>
		<g>
			<path fill="#252935" d="M14.617,415.861c-0.625,0.025-1.381,0.418-1.826,0.94c-0.403,0.464-0.752,1.206-0.655,1.918
				c0.695,0.054,1.403-0.354,1.836-0.878C14.404,417.316,14.696,416.588,14.617,415.861z M15.767,422.449
				c-0.014-1.57,1.281-2.326,1.341-2.364c-0.731-1.063-1.864-1.21-2.267-1.226c-0.965-0.095-1.886,0.569-2.374,0.569
				c-0.49,0-1.244-0.554-2.046-0.537c-1.052,0.015-2.023,0.612-2.565,1.554c-1.091,1.902-0.277,4.71,0.788,6.248
				c0.521,0.753,1.141,1.599,1.958,1.568c0.786-0.031,1.081-0.509,2.031-0.509c0.948-0.001,1.216,0.508,2.045,0.493
				c0.845-0.018,1.381-0.769,1.899-1.526c0.596-0.872,0.842-1.719,0.855-1.761C17.415,424.948,15.786,424.327,15.767,422.449z
				 M25.827,417.84c-0.315-0.304-0.721-0.54-1.207-0.702c-0.482-0.161-1.06-0.242-1.72-0.242c-0.455,0-0.881,0.022-1.265,0.066
				c-0.379,0.043-0.731,0.092-1.046,0.147l-0.102,0.017v11.042h1.008v-4.652c0.34,0.058,0.728,0.089,1.157,0.089
				c0.571,0,1.105-0.073,1.589-0.216c0.489-0.145,0.917-0.368,1.273-0.665c0.358-0.297,0.643-0.669,0.851-1.106
				c0.206-0.437,0.311-0.952,0.311-1.53c0-0.479-0.076-0.909-0.223-1.28C26.304,418.437,26.094,418.112,25.827,417.84z
				 M24.901,422.057c-0.518,0.434-1.25,0.654-2.179,0.654c-0.255,0-0.497-0.011-0.719-0.032c-0.184-0.018-0.353-0.046-0.506-0.085
				v-4.695c0.133-0.024,0.298-0.047,0.492-0.068c0.245-0.026,0.541-0.04,0.88-0.04c0.42,0,0.807,0.05,1.152,0.15
				c0.341,0.098,0.639,0.244,0.885,0.434c0.242,0.187,0.432,0.431,0.564,0.725c0.133,0.297,0.2,0.652,0.2,1.054
				C25.668,420.988,25.409,421.629,24.901,422.057z M32.702,427.133c-0.011-0.312-0.016-0.626-0.016-0.939v-3.069
				c0-0.363-0.037-0.735-0.109-1.103c-0.073-0.377-0.214-0.722-0.417-1.027c-0.205-0.308-0.492-0.562-0.851-0.755
				c-0.359-0.193-0.825-0.291-1.387-0.291c-0.41,0-0.81,0.053-1.189,0.159c-0.381,0.106-0.754,0.284-1.112,0.529l-0.082,0.057
				l0.341,0.797l0.123-0.083c0.26-0.176,0.553-0.316,0.873-0.415c0.319-0.099,0.643-0.149,0.967-0.149
				c0.42,0,0.756,0.076,0.995,0.226c0.243,0.152,0.426,0.34,0.544,0.56c0.123,0.227,0.204,0.468,0.239,0.719
				c0.038,0.26,0.056,0.494,0.056,0.694v0.089c-1.494-0.007-2.661,0.242-3.436,0.741c-0.813,0.524-1.226,1.27-1.226,2.216
				c0,0.272,0.049,0.547,0.145,0.818c0.098,0.275,0.245,0.52,0.439,0.73c0.195,0.212,0.447,0.386,0.748,0.515
				c0.3,0.131,0.653,0.197,1.047,0.197c0.312,0,0.605-0.04,0.872-0.118c0.264-0.079,0.503-0.184,0.712-0.315
				c0.208-0.128,0.392-0.273,0.549-0.431c0.071-0.07,0.132-0.14,0.192-0.211h0.039l0.093,0.896h0.972l-0.027-0.144
				C32.744,427.739,32.713,427.439,32.702,427.133z M31.677,425.561c0,0.107-0.026,0.255-0.074,0.432
				c-0.062,0.184-0.153,0.366-0.271,0.54c-0.117,0.172-0.265,0.33-0.439,0.467c-0.173,0.138-0.381,0.248-0.616,0.33
				c-0.236,0.082-0.508,0.123-0.808,0.123c-0.182,0-0.36-0.031-0.531-0.09c-0.169-0.06-0.319-0.149-0.447-0.267
				c-0.128-0.117-0.233-0.27-0.314-0.454c-0.079-0.183-0.12-0.41-0.12-0.674c0-0.432,0.116-0.782,0.344-1.039
				c0.236-0.266,0.538-0.471,0.898-0.609c0.367-0.142,0.776-0.234,1.215-0.277c0.356-0.034,0.706-0.051,1.036-0.051
				c0.043,0,0.085,0,0.127,0.001V425.561z M39.543,420.128l-1.881,5.114c-0.117,0.309-0.227,0.62-0.327,0.923
				c-0.049,0.151-0.095,0.294-0.14,0.431h-0.035c-0.045-0.143-0.093-0.291-0.144-0.447c-0.098-0.3-0.203-0.594-0.31-0.875
				l-2.012-5.146h-1.075l2.877,7.398c0.076,0.178,0.087,0.26,0.087,0.293c0,0.01-0.004,0.071-0.088,0.295
				c-0.179,0.443-0.386,0.825-0.61,1.135c-0.231,0.314-0.442,0.569-0.63,0.757c-0.219,0.218-0.444,0.398-0.674,0.533
				c-0.234,0.138-0.448,0.25-0.637,0.334l-0.109,0.049l0.35,0.852l0.111-0.042c0.092-0.034,0.262-0.112,0.522-0.239
				c0.262-0.129,0.553-0.334,0.863-0.612c0.266-0.232,0.51-0.508,0.726-0.818c0.212-0.305,0.425-0.663,0.634-1.061
				c0.206-0.397,0.413-0.848,0.614-1.343c0.201-0.497,0.417-1.052,0.641-1.649l2.324-5.884H39.543z"/>
		</g>
	</g>
</g>
<g>
	<path fill="#252935" d="M37.933,312.845H32.22v0.787c0,0.656,0.529,1.189,1.18,1.189h4.533h2.062l-0.74,2.431h-3.857H34.85
		c-0.988,0-1.792,0.806-1.792,1.797v3.84v1.976v3.681c0,0.974,0.768,1.758,1.731,1.792l0.003,0.006h12.107l0.008-0.008
		c0.028,0.003,0.053,0.008,0.083,0.008c0.988,0,1.789-0.804,1.789-1.797v-0.179v-3.505v-1.976v-3.661v-0.179
		c0-0.991-0.804-1.797-1.789-1.797c-0.042,0-0.078,0.008-0.12,0.011l-0.011-0.011h-0.417h-4.75l0.737-2.431h1.48h4.536
		c0.654,0,1.183-0.53,1.183-1.189v-0.787H43.91h-5.977V312.845z"/>
	<path fill="#FFFFFF" d="M46.439,325.969l0.006,2.397H35.401v-3.578h9.853c0.648,0,1.174,0.525,1.183,1.175L46.439,325.969
		L46.439,325.969z"/>
	<path fill="#FFFFFF" d="M45.223,319.224l0.003,0.003c0.651,0,1.177,0.533,1.18,1.183l0.003,0.003l0.003,2.397H35.356v-3.592h9.867
		V319.224z"/>
	<path fill="#252935" d="M92.788,315.845h0.548v-0.003h10.629c0.651,0,1.18,0.533,1.18,1.186h0.003v2.492v3.659v2.793h1.063
		c0.704,0,1.274-0.572,1.274-1.281v-1.513v-3.659v-3.678v-0.176v-0.003c0-0.993-0.801-1.794-1.789-1.794h-0.545H93.339v-1.019
		h-2.337v1.197C91.001,315.041,91.803,315.845,92.788,315.845L92.788,315.845z"/>
	<path fill="#252935" d="M103.289,328.372h-6.973h-2.975v-2.4h7.235h0.523c0.011,0,0.019,0.003,0.031,0.003
		c0.991,0,1.792-0.806,1.792-1.797c0-0.008-0.003-0.017-0.003-0.025v-0.156v-3.952v-0.179c0-0.993-0.801-1.797-1.789-1.797h-0.551
		h-7.235h-0.548c-0.988,0-1.789,0.804-1.789,1.797v8.676c0,0.991,0.796,1.792,1.784,1.797l0.006,0.006h0.548h2.975h6.973h3.943
		c0.654,0,1.183-0.53,1.183-1.189v-0.787h-5.128V328.372z"/>
	<path fill="#FFFFFF" d="M93.339,320.047h6.052h0.003h0.006h0.039l0.006,0.006c0.629,0.025,1.13,0.544,1.13,1.183
		c0,0.014-0.006,0.028-0.006,0.045v2.721h-7.235v-3.954H93.339z"/>
	<path fill="#252935" d="M68.079,316.266h-2.34v0.463h-7.095v-0.463h-2.337v0.463h-1.135v1.814h1.135v1.08v0.179l0.006,0.006
		c0.003,0.991,0.801,1.792,1.789,1.792h0.011h0.531h7.095h0.551h0.008c0.988,0,1.789-0.804,1.789-1.797
		c0-0.025-0.006-0.045-0.006-0.07v-0.106v-1.08h1.135v-1.814h-1.135v-0.466H68.079z"/>
	<polygon fill="#FFFFFF" points="65.739,319.76 58.643,319.76 58.643,318.543 65.739,318.543 65.739,319.76 	"/>
	<path fill="#252935" d="M62.405,312.853h-2.337v0.773h-5.927H53.64c-0.017,0-0.033-0.008-0.05-0.008
		c-0.019,0-0.039,0.006-0.061,0.008h-0.031l-0.003,0.003c-0.929,0.047-1.67,0.809-1.692,1.75l-0.003,0.003v0.218v14.752h1.063
		c0.704,0,1.277-0.572,1.277-1.281v-12.265l0.006-0.006v-0.011c0-0.659,0.529-1.189,1.183-1.189h13.885v-1.976h-6.809V312.853
		L62.405,312.853z"/>
	<path fill="#252935" d="M68.947,324.275c0.153-0.176,0.231-0.48,0.231-0.65c0-0.547-0.442-0.991-0.985-0.991v-0.008H67.55H55.168
		v1.794h10.997c-0.515,0.578-1.542,1.415-2.376,1.928c-1.689-0.742-3.225-1.097-4.472-1.108c-1.597-0.003-2.783,0.285-3.487,0.985
		c-0.003,0.003-0.006,0.008-0.011,0.017c-0.398,0.388-0.648,0.927-0.648,1.529c0,0.597,0.248,1.136,0.637,1.521
		c0,0.003,0.003,0.006,0.006,0.008c0.673,0.67,1.786,1.038,3.545,1.038c1.35,0,3.286-0.686,4.641-1.644
		c0.954,0.438,1.67,0.809,3.064,1.485c0.712,0.343,1.358,0.145,1.72-0.402l0.431-0.656c0,0-2.883-1.457-3.539-1.808
		C67.088,326.123,68.808,324.437,68.947,324.275L68.947,324.275z"/>
	<path fill="#FFFFFF" d="M58.805,329.086c-1.196,0-2.318-0.36-2.318-1.314c0-0.954,1.294-1.222,2.318-1.222
		c1.018,0,3.005,0.904,3.256,1.222C61.779,328.099,59.703,329.086,58.805,329.086L58.805,329.086z"/>
	<path fill="#252935" d="M73.727,313.09H71.39v1.409v0.176c0,0.996,0.801,1.8,1.789,1.8h4.088v-1.976h-3.539V313.09L73.727,313.09z"
		/>
	<path fill="#252935" d="M71.944,319.219h0.387l0.003,0.003c0.651,0.003,1.18,0.533,1.18,1.189v0.014v0.851h-1.817v1.976h0.634
		l0.006,0.008c0.651,0.003,1.177,0.533,1.177,1.189c0,0.011-0.003,0.022-0.003,0.033l0,0v3.631v0.148v0.025v0.017v0.006
		c0.017,0.98,0.804,1.769,1.781,1.772l0.006,0.006h1.967v-1.976h-0.47c-0.654,0-1.183-0.53-1.183-1.183l0,0v-3.675h1.658v-1.976
		h-1.658v-2.057h1.658v-1.976h-5.326V319.219L71.944,319.219z"/>
	<path fill="#252935" d="M88.049,327.66c-0.718-0.505-1.338-1.058-1.875-1.644l2.641-1.3v-2.612l-4.06,2.001
		c-0.698-1.175-1.144-2.378-1.427-3.472h5.487v-1.976h-5.86c-0.147-1.206-0.106-2.057-0.097-2.216h0.785h5.173v-0.117v-3.126h-2.332
		v1.27h-3.425H82.86v-1.647h-2.234v1.647h-0.008h-2.688v1.973h2.696v0.547c-0.008,0.58,0.011,1.136,0.05,1.669h-2.744v1.976h3.005
		c0.351,1.8,0.966,3.29,1.706,4.513l-3.865,1.903l0.47,0.96c0.309,0.634,1.071,0.896,1.703,0.586l3.114-1.535
		c2.243,2.487,4.758,3.271,4.758,3.271v-1.125C88.759,327.967,88.049,327.66,88.049,327.66L88.049,327.66z"/>
	<g>
		<path fill="#252935" d="M12.442,336.692C5.656,336.692,0,331.036,0,323.967c0-4.242,1.979-7.635,4.807-9.897
			c0.848-0.848,0.848-0.848,1.131-1.414c0,0-4.807-1.414-5.373-5.656c1.131,0.283,6.221,2.828,17.532-0.283
			c0.848,0,4.807-0.565,4.525,3.676c-0.849,0.283-3.676,0.283-6.504,1.414c-3.393,1.414-7.352,3.393-10.18,7.635
			c-0.848,1.414-1.414,2.828-1.414,4.524c0,4.525,3.676,8.201,7.918,8.201c4.524,0,7.918-3.676,7.918-8.201
			c0-3.959-2.828-7.352-6.221-7.918c0.283,0,0.283-0.283,0.283-0.283c7.918-2.262,10.18,5.656,10.18,5.656
			c0.283,0.848,0.283,1.697,0.283,2.545C24.885,330.754,19.229,336.692,12.442,336.692L12.442,336.692z M16.119,323.967
			l-3.676,3.959l-3.676-3.959l3.676-3.959L16.119,323.967L16.119,323.967z M16.119,323.967"/>
	</g>
</g>
<g>
</g>
<g>
</g>
<g>
</g>
<g>
</g>
<g>
</g>
<g>
</g>
<g>
</g>
<g>
</g>
<g>
</g>
<g>
</g>
<g>
</g>
<g>
</g>
<g>
</g>
<g>
</g>
<g>
</g>
</svg>
