<?xml version="1.0" encoding="utf-8"?>
<!-- Generator: Adobe Illustrator 17.0.0, SVG Export Plug-In . SVG Version: 6.00 Build 0)  -->
<!DOCTYPE svg PUBLIC "-//W3C//DTD SVG 1.1//EN" "http://www.w3.org/Graphics/SVG/1.1/DTD/svg11.dtd">
<svg version="1.1" id="图层_1" xmlns="http://www.w3.org/2000/svg" xmlns:xlink="http://www.w3.org/1999/xlink" x="0px" y="0px"
	 width="24px" height="913.8px" viewBox="0 0 24 913.8" enable-background="new 0 0 24 913.8" xml:space="preserve">
<g>
	<polygon fill="#008CFF" points="13.1,40.1 16.1,35.3 11,38.3 8,43.1 	"/>
	<path fill="#008CFF" d="M20.5,38.5H24c-0.3-6.2-5.2-11.2-11.5-11.5v3.5h-1V27C5.2,27.3,0.3,32.3,0,38.5h3.5v1H0
		C0.3,45.7,5.2,50.7,11.5,51v-3.5h1V51c6.2-0.3,11.2-5.2,11.5-11.5h-3.5V38.5z M13.8,40.8L5.1,46l5.2-8.3l8.7-5.1L13.8,40.8z"/>
</g>
<g>
	<path fill="#A7A7A7" d="M5.1,19l8.7-5.1L19,5.6l-8.7,5.1L5.1,19z M16,8.3l-3,4.8l-5.1,3l3-4.8L16,8.3z"/>
	<path fill="#A7A7A7" d="M21.9,18.8c0.1-0.1,0.1-0.2,0.2-0.2c0.2-0.2,0.3-0.5,0.5-0.8c0-0.1,0.1-0.2,0.1-0.3
		c0.1-0.2,0.3-0.5,0.4-0.8c0-0.1,0.1-0.2,0.1-0.3c0.1-0.2,0.2-0.5,0.3-0.7c0-0.1,0.1-0.3,0.1-0.4c0.1-0.2,0.1-0.4,0.2-0.6
		c0-0.2,0.1-0.4,0.1-0.6c0-0.2,0.1-0.4,0.1-0.6c0-0.2,0-0.4,0.1-0.6c0-0.1,0-0.2,0-0.3s0-0.2,0-0.3s0-0.3,0-0.4c0-0.1,0-0.2,0-0.4
		s0-0.4,0-0.6c0-0.2,0-0.5-0.1-0.7c0-0.2-0.1-0.4-0.1-0.6c0-0.2-0.1-0.4-0.2-0.7c0-0.2-0.1-0.4-0.1-0.6c-0.1-0.3-0.2-0.5-0.3-0.8
		c0-0.1-0.1-0.3-0.1-0.4c0,0,0,0,0-0.1l0,0c-0.1-0.3-0.3-0.6-0.5-0.9c0-0.1-0.1-0.1-0.1-0.2c-0.1-0.1-0.1-0.2-0.2-0.3l0,0
		c-1-1.3-2.3-2.6-3.7-3.6l0,0c-0.2-0.2-0.5-0.3-0.7-0.4c-0.1,0-0.1,0-0.2-0.1c-0.2-0.1-0.4-0.2-0.7-0.3c-0.2-0.1-0.5-0.2-0.7-0.3
		c-0.3-0.1-0.6-0.2-0.9-0.3c-0.2-0.1-0.3-0.1-0.5-0.1c-0.3-0.1-0.5-0.1-0.8-0.2c-0.2,0-0.3-0.1-0.5-0.1c-0.3,0-0.5-0.1-0.8-0.1
		c-0.1,0-0.2,0-0.2,0c-0.1,0-0.2,0-0.3,0s-0.2,0-0.4,0c-0.1,0-0.2,0-0.3,0c-0.2,0-0.4,0-0.6,0c-0.2,0-0.4,0-0.6,0.1
		c-0.2,0-0.4,0.1-0.7,0.1c-0.2,0-0.4,0.1-0.6,0.1c-0.2,0-0.4,0-0.6,0.1C8.4,0.6,8.2,0.6,8,0.7S7.7,0.8,7.5,0.9c-0.1,0-0.1,0-0.2,0.1
		c0,0-0.1,0-0.1,0.1c-0.3,0-0.5,0.2-0.8,0.3c-0.1,0-0.1,0.1-0.2,0.1C5.6,1.8,5,2.2,4.4,2.7c-0.1,0-0.1,0.1-0.2,0.2
		C4.1,3,3.9,3.2,3.7,3.4C3.6,3.5,3.5,3.5,3.4,3.6C3.2,3.8,3,4.1,2.8,4.3C2.7,4.4,2.7,4.5,2.6,4.6C2.4,4.8,2.3,4.9,2.2,5.1
		C2.1,5.3,2,5.4,1.9,5.5C1.8,5.7,1.7,5.8,1.6,6c0,0.1-0.1,0.3-0.2,0.4C1.2,6.7,1.1,6.9,1,7.2C0.9,7.4,0.9,7.5,0.8,7.7
		c0,0.1-0.1,0.3-0.2,0.5c0,0.1-0.1,0.3-0.1,0.4C0.4,8.9,0.4,9.1,0.3,9.3c0,0.1-0.1,0.2-0.1,0.3c-0.1,0.3-0.1,0.6-0.1,1
		c0,0.1,0,0.2,0,0.3s0,0.2,0,0.4c0,0.1,0,0.2,0,0.3s0,0.2,0,0.3s0,0.2,0,0.3c0,0.2,0,0.4,0,0.6c0,0.2,0,0.4,0.1,0.6
		c0,0.2,0.1,0.4,0.1,0.6c0,0.2,0.1,0.4,0.1,0.6c0,0.2,0.1,0.4,0.1,0.6c0.1,0.2,0.1,0.4,0.2,0.6s0.1,0.4,0.2,0.5
		c0.1,0.2,0.2,0.4,0.2,0.6c0.1,0.2,0.2,0.3,0.2,0.5c0.1,0.2,0.2,0.4,0.3,0.5c0.1,0.2,0.2,0.3,0.3,0.5s0.2,0.3,0.3,0.5
		c0.1,0.1,0.2,0.3,0.3,0.4c0.1,0.2,0.2,0.3,0.4,0.5C3,20,3.2,20.1,3.3,20.2s0.3,0.3,0.4,0.4C3.8,20.8,4,20.9,4.1,21s0.3,0.2,0.4,0.4
		c0.2,0.1,0.3,0.2,0.5,0.4c0.1,0.1,0.3,0.2,0.4,0.3c0.2,0.1,0.3,0.2,0.5,0.3c0.2,0.1,0.3,0.2,0.5,0.3C6.6,22.8,6.8,22.9,7,23
		c0.2,0.1,0.3,0.2,0.5,0.2c0.2,0.1,0.4,0.1,0.6,0.2c0.2,0.1,0.4,0.1,0.6,0.2c0.2,0.1,0.4,0.1,0.6,0.1c0.2,0,0.4,0.1,0.6,0.1
		c0.2,0,0.4,0.1,0.6,0.1c0.2,0,0.4,0.1,0.6,0.1c0.1,0,0.2,0,0.3,0c0.2,0,0.4,0,0.7,0l0,0l0,0l0,0c0.4,0,0.8,0,1.2-0.1
		c0.1,0,0.1,0,0.2,0c0.3,0,0.6-0.1,1-0.1c0.1,0,0.2,0,0.3-0.1c0.3-0.1,0.6-0.1,0.9-0.2c0.1,0,0.2-0.1,0.3-0.1
		c0.3-0.1,0.6-0.2,0.8-0.3c0.1,0,0.2-0.1,0.2-0.1c0.3-0.1,0.5-0.2,0.8-0.4c0.1,0,0.2-0.1,0.2-0.1c0.2-0.1,0.5-0.3,0.7-0.4
		c0.1-0.1,0.2-0.1,0.3-0.2c0.2-0.2,0.4-0.3,0.7-0.5c0.1-0.1,0.2-0.1,0.3-0.2c0.1-0.1,0.2-0.1,0.3-0.2c0.1-0.1,0.2-0.2,0.3-0.3
		c0.1-0.1,0.2-0.2,0.3-0.3c0.2-0.2,0.4-0.4,0.5-0.6c0.1-0.1,0.1-0.2,0.2-0.2C21.5,19.3,21.7,19.1,21.9,18.8z M21.7,6.7
		c0,0.1,0.1,0.1,0.1,0.2c0.2,0.3,0.3,0.6,0.4,0.9l0,0c0.1,0.1,0.1,0.3,0.2,0.4c0.1,0.2,0.2,0.4,0.2,0.7c0.1,0.2,0.1,0.4,0.1,0.5
		c0,0.2,0.1,0.4,0.1,0.6c0,0.2,0.1,0.4,0.1,0.6c0,0.2,0.1,0.4,0.1,0.6c0,0.1,0,0.3,0,0.4h-2.6v1H23c0,0.1,0,0.3,0,0.4
		c0,0.2,0,0.4-0.1,0.6c0,0.2-0.1,0.4-0.1,0.6c0,0.2-0.1,0.3-0.1,0.5s-0.1,0.4-0.2,0.6c0,0.1-0.1,0.3-0.1,0.4
		c-0.1,0.2-0.2,0.4-0.2,0.7c0,0.1-0.1,0.2-0.1,0.3c-0.1,0.2-0.2,0.5-0.3,0.7c0,0.1-0.1,0.2-0.1,0.2c-0.1,0.2-0.3,0.5-0.4,0.7
		c0,0.1-0.1,0.1-0.1,0.2c-0.2,0.2-0.3,0.4-0.5,0.6c-0.1,0.1-0.1,0.1-0.2,0.2c-0.2,0.2-0.3,0.4-0.5,0.6c-0.1,0.1-0.2,0.2-0.2,0.2
		c-0.2,0.2-0.3,0.3-0.5,0.5c-0.1,0.1-0.2,0.2-0.3,0.2c-0.2,0.1-0.4,0.3-0.6,0.4c-0.1,0.1-0.2,0.1-0.3,0.2c-0.2,0.1-0.4,0.3-0.6,0.4
		c-0.1,0.1-0.2,0.1-0.3,0.2c-0.2,0.1-0.4,0.2-0.6,0.3c-0.1,0.1-0.2,0.1-0.4,0.1c-0.2,0.1-0.4,0.2-0.6,0.2c-0.1,0-0.3,0.1-0.4,0.1
		c-0.2,0.1-0.4,0.1-0.6,0.2c-0.2,0-0.3,0.1-0.5,0.1s-0.4,0.1-0.6,0.1c-0.2,0-0.3,0-0.5,0c-0.1,0-0.3,0-0.4,0v-2.5h-1V23
		c-0.1,0-0.2,0-0.3,0c-0.2,0-0.4,0-0.6-0.1c-0.2,0-0.4,0-0.5-0.1c-0.2,0-0.4-0.1-0.6-0.1c-0.2,0-0.3-0.1-0.5-0.1
		c-0.2-0.1-0.3-0.1-0.5-0.2s-0.3-0.1-0.5-0.2S7.8,22.1,7.6,22s-0.3-0.2-0.5-0.2c-0.1-0.1-0.3-0.2-0.4-0.2c-0.2-0.1-0.3-0.2-0.5-0.3
		c-0.1-0.1-0.3-0.2-0.4-0.3c-0.2-0.1-0.3-0.2-0.4-0.3c-0.1-0.1-0.3-0.2-0.4-0.3c-0.1-0.1-0.3-0.2-0.4-0.4c-0.1-0.1-0.2-0.2-0.4-0.4
		c-0.1-0.1-0.2-0.3-0.4-0.4c-0.1-0.1-0.2-0.3-0.3-0.4s-0.2-0.3-0.3-0.4c-0.1-0.2-0.2-0.3-0.3-0.5c-0.1-0.1-0.2-0.3-0.3-0.4
		c-0.1-0.2-0.2-0.3-0.3-0.5c-0.1-0.1-0.1-0.3-0.2-0.4C2,16.4,2,16.3,1.9,16.1c-0.1-0.2-0.1-0.3-0.2-0.5s-0.1-0.3-0.2-0.5
		c0-0.2-0.1-0.4-0.1-0.5c0-0.2-0.1-0.3-0.1-0.5s-0.1-0.4-0.1-0.6c0-0.2,0-0.3,0-0.5c0-0.1,0-0.2,0-0.4h2.5v-1H1c0-0.2,0-0.3,0-0.5
		c0-0.1,0-0.2,0-0.3c0-0.3,0.1-0.6,0.1-0.9c0-0.1,0-0.2,0.1-0.3c0.1-0.2,0.1-0.5,0.2-0.7c0-0.1,0.1-0.3,0.1-0.4
		C1.6,8.3,1.7,8.2,1.7,8c0.1-0.1,0.1-0.3,0.2-0.4C2,7.3,2.1,7.1,2.2,6.9c0.1-0.1,0.1-0.3,0.2-0.4C2.5,6.3,2.6,6.2,2.7,6
		C2.8,5.9,2.9,5.8,3,5.7c0.1-0.2,0.3-0.3,0.4-0.5c0-0.1,0.1-0.2,0.1-0.3c0.2-0.2,0.4-0.4,0.6-0.7C4.2,4.1,4.2,4.1,4.3,4
		c0.2-0.2,0.4-0.3,0.6-0.5c0,0,0.1,0,0.1-0.1C5.6,3,6.1,2.7,6.7,2.3l0.1-0.1C7.1,2.1,7.4,2,7.6,1.9c0,0,0.1,0,0.1-0.1
		c0.2-0.1,0.4-0.1,0.6-0.2c0.2-0.1,0.4-0.1,0.5-0.2c0.2,0,0.4-0.1,0.6-0.1s0.3-0.1,0.5-0.1s0.4-0.1,0.6-0.1c0.2,0,0.4,0,0.5-0.1
		c0.1,0,0.2,0,0.4,0v2.5h1V1c0.1,0,0.3,0,0.4,0c0.2,0,0.5,0,0.7,0.1c0.2,0,0.3,0,0.5,0.1c0.2,0,0.5,0.1,0.7,0.2
		c0.2,0,0.3,0.1,0.5,0.1c0.3,0.1,0.5,0.2,0.8,0.3c0.2,0.1,0.5,0.2,0.7,0.3c0.2,0.1,0.4,0.2,0.6,0.3C19.1,3.3,20.6,4.8,21.7,6.7z"/>
</g>
<g>
	<path fill="none" stroke="#A6A7A7" stroke-miterlimit="10" d="M6.9,65l4.8,5.5h0.5L17,65"/>
	<g>
		<path fill="#A6A7A7" d="M12,76.9c-6.6,0-12-5.5-12-12.3c0-4.4,2.4-8.4,6.2-10.7l0.5,0.9c-3.5,2-5.7,5.8-5.7,9.8
			c0,6.2,4.9,11.3,11,11.3s11-5.1,11-11.3c0-4-2.2-7.7-5.8-9.8l0.5-0.9c3.9,2.2,6.2,6.3,6.2,10.7C24,71.4,18.6,76.9,12,76.9z"/>
	</g>
	<line fill="none" stroke="#A6A7A7" stroke-miterlimit="10" x1="12" y1="57.4" x2="12" y2="67"/>
</g>
<g>
	<path fill="#A6A7A7" d="M21,126.1c1.1,0,2,0.9,2,2s-0.9,2-2,2s-2-0.9-2-2S19.9,126.1,21,126.1 M21,125.1c-1.7,0-3,1.3-3,3
		c0,1.7,1.3,3,3,3s3-1.3,3-3C24,126.5,22.7,125.1,21,125.1L21,125.1z"/>
	<path fill="#A6A7A7" d="M4,109.1c1.1,0,2,0.9,2,2s-0.9,2-2,2s-2-0.9-2-2S2.9,109.1,4,109.1 M4,108.1c-1.7,0-3,1.3-3,3s1.3,3,3,3
		s3-1.3,3-3S5.6,108.1,4,108.1L4,108.1z"/>
	<path fill="none" stroke="#A6A7A7" stroke-miterlimit="10" d="M3.3,126.4c1.7-2.6,5-4.3,8.7-4.3c3.6,0,6.7,1.6,8.5,4"/>
	<path fill="#A6A7A7" d="M12,114.6c1.9,0,3.4,1.5,3.4,3.4s-1.5,3.4-3.4,3.4s-3.4-1.5-3.4-3.4S10.1,114.6,12,114.6 M12,113.6
		c-2.4,0-4.4,2-4.4,4.4s2,4.4,4.4,4.4s4.4-2,4.4-4.4S14.4,113.6,12,113.6L12,113.6z"/>
	<g>
		<path fill="#A6A7A7" d="M23,124l-0.9-0.4c0.6-1.4,0.9-2.9,0.9-4.4c0-6.1-4.9-11-11-11c-1.3,0-2.5,0.2-3.7,0.6L8,107.9
			c1.3-0.5,2.7-0.7,4.1-0.7c6.6,0,12,5.4,12,12C24,120.8,23.6,122.4,23,124z"/>
	</g>
	<g>
		<path fill="#A6A7A7" d="M12,131.1c-6.6,0-12-5.4-12-12c0-1.4,0.2-2.7,0.7-4l0.9,0.3c-0.4,1.2-0.6,2.4-0.6,3.7c0,6.1,4.9,11,11,11
			c1.5,0,2.9-0.3,4.3-0.9l0.4,0.9C15.2,130.8,13.6,131.1,12,131.1z"/>
	</g>
</g>
<g>
	<path fill="#008CFF" d="M2,138.1c0,0.4,0.1,0.7,0.3,1c0.8-1,1.7-2,2.7-2.7c-0.3-0.2-0.6-0.3-1-0.3C2.9,136.1,2,137,2,138.1z"/>
	<path fill="#008CFF" d="M19.1,155.8c0.3,0.8,1,1.4,1.9,1.4c1.1,0,2-0.9,2-2c0-0.9-0.6-1.6-1.4-1.9C20.9,154.2,20.1,155,19.1,155.8z
		"/>
	<path fill="#008CFF" d="M2.3,139.1c0.3,0.6,1,1,1.7,1c1.1,0,2-0.9,2-2c0-0.7-0.4-1.4-1-1.7C3.9,137.1,3,138.1,2.3,139.1z"/>
	<path fill="#008CFF" d="M20.1,153.4L20.1,153.4L20.1,153.4c-0.6,0.3-1.1,1-1.1,1.8c0,0.2,0,0.4,0.1,0.6c1-0.7,1.8-1.6,2.5-2.5
		c-0.2-0.1-0.4-0.1-0.6-0.1C20.7,153.1,20.3,153.2,20.1,153.4z"/>
	<path fill="#008CFF" d="M9.9,148.9c-1.4-0.7-2.3-2.2-2.3-3.8c0-2.4,2-4.4,4.4-4.4s4.4,2,4.4,4.4c0,1.6-0.9,3-2.2,3.8
		c2.5,0.4,4.7,1.6,6.2,3.4c0.2,0,0.4-0.1,0.6-0.1c0.4,0,0.8,0.1,1.2,0.3c1.1-1.8,1.8-4,1.8-6.3c0-6.6-5.4-12-12-12
		c-2.2,0-4.3,0.6-6.1,1.7c0.7,0.6,1.1,1.4,1.1,2.3c0,1.7-1.3,3-3,3c-0.9,0-1.8-0.4-2.3-1.1C0.6,141.9,0,144,0,146.2
		c0,2.7,0.9,5.2,2.5,7.3C4.1,151.2,7,149.4,9.9,148.9z"/>
	<path fill="#008CFF" d="M19.4,152.6c-1.8-1.9-4.5-3-7.4-3c-3.8,0-7.4,2.3-8.9,4.5c2.2,2.4,5.4,4,8.9,4c2.3,0,4.4-0.7,6.3-1.8
		c-0.2-0.4-0.3-0.8-0.3-1.2C18,154.1,18.6,153.1,19.4,152.6z"/>
	<path fill="#008CFF" d="M12,141.6c-1.9,0-3.4,1.5-3.4,3.4s1.5,3.4,3.4,3.4s3.4-1.5,3.4-3.4C15.4,143.2,13.9,141.6,12,141.6z"/>
	<path fill="#A6A7A7" d="M20.1,153.4L20.1,153.4L20.1,153.4z"/>
</g>
<path fill="none" stroke="#A6A7A7" stroke-miterlimit="10" d="M6.7,171.8h10.7"/>
<line fill="none" stroke="#A6A7A7" stroke-miterlimit="10" x1="15.6" y1="167.2" x2="11.9" y2="172.2"/>
<line fill="none" stroke="#A6A7A7" stroke-miterlimit="10" x1="8.4" y1="166.9" x2="12" y2="172"/>
<path fill="none" stroke="#A6A7A7" stroke-miterlimit="10" d="M12,172.2v7.1"/>
<path fill="none" stroke="#A6A7A7" stroke-miterlimit="10" d="M6.7,174.9h10.7"/>
<g>
	<path fill="#A6A7A7" d="M12,185.1c-6.6,0-12-5.4-12-12s5.4-12,12-12s12,5.4,12,12C24,179.7,18.6,185.1,12,185.1z M12,162.1
		c-6.1,0-11,5-11,11c0,6.1,5,11,11,11c6.1,0,11-5,11-11C23,167,18.1,162.1,12,162.1z"/>
</g>
<g>
	<path fill="#008CFF" d="M12,188.1c-6.6,0-12,5.4-12,12s5.4,12,12,12s12-5.4,12-12S18.6,188.1,12,188.1z M17.3,199.3h-4.8l0,0v2.1
		h4.8v1h-4.8v3.9h-1v-3.9H6.7v-1h4.8v-2.1H6.7v-1h4.2L8,194.2l0.8-0.6l3.2,4.6l3.1-4.3l0.8,0.6l-2.8,3.8h4.1L17.3,199.3L17.3,199.3z
		"/>
	<path fill="#A6A7A7" d="M12.5,199.3L12.5,199.3L12.5,199.3z"/>
</g>
<g>
	<g>
		<rect y="226.3" fill="#A6A7A7" width="24" height="1"/>
	</g>
	<g>
		<path fill="#A6A7A7" d="M20.4,238.5h-4.7v-1h4.7c1.1,0,2-0.9,2-2.1v-4.8h1v4.8C23.4,237.2,22,238.5,20.4,238.5z M8.3,238.5H3.6
			c-1.6,0-3-1.4-3-3.1v-4.8h1v4.8c0,1.1,0.9,2.1,2,2.1h4.7C8.3,237.5,8.3,238.5,8.3,238.5z M23.4,223h-1v-4.8c0-1.1-0.9-2.1-2-2.1
			h-4.7v-1h4.7c1.6,0,3,1.4,3,3.1V223z M1.6,223h-1v-4.8c0-1.7,1.3-3.1,3-3.1h4.6v1H3.6c-1.1,0-2,0.9-2,2.1
			C1.6,218.2,1.6,223,1.6,223z"/>
	</g>
</g>
<g>
	<path fill="#008CFF" d="M21,241.5H3c-1.7,0-3,1.3-3,3v18c0,1.7,1.3,3,3,3h18c1.7,0,3-1.3,3-3v-18C24,242.9,22.7,241.5,21,241.5z
		 M15.4,243.1h4.2c1.5,0,2.8,1.2,2.8,2.8v4.3h-1v-4.3c0-1-0.8-1.8-1.8-1.8h-4.2C15.4,244.1,15.4,243.1,15.4,243.1z M1.6,245.8
		c0-1.5,1.2-2.8,2.8-2.8h4.2v1H4.4c-1,0-1.8,0.8-1.8,1.8v4.3h-1C1.6,250.1,1.6,245.8,1.6,245.8z M8.6,264H4.4
		c-1.5,0-2.8-1.2-2.8-2.8V257h1v4.3c0,1,0.8,1.8,1.8,1.8h4.2V264z M22.4,261.2c0,1.5-1.2,2.8-2.8,2.8h-4.2v-1h4.2
		c1,0,1.8-0.8,1.8-1.8V257h1V261.2z M22.9,254H1.1v-1h21.8V254z"/>
</g>
<g>
	<path fill="#A6A7A7" d="M10.6,270.9v1.2c-3.6,0.5-6.5,3.3-7.1,6.9H2.4C3,274.7,6.4,271.4,10.6,270.9 M11.5,268.5l-1,1.4l0,0
		c-4.7,0.5-8.4,4.2-9.1,9l0,0l-1.4,1h1.3h3l0,0c0.3-3.8,3.4-6.9,7.2-7v-3V268.5L11.5,268.5z"/>
	<path fill="#A6A7A7" d="M21.2,279.4c0,0,0,0.1,0,0.2c0,0.2,0,0.9,0,1l0,0l0,0c0,4.8-3.5,8.9-8.1,9.6V289c3.4-0.6,6.1-3.2,6.9-6.7
		l0.2-0.9l-0.9-0.2l-3.1-0.8L21.2,279.4 M22,278.3l-10.1,2l7.1,1.8c-0.7,3.3-3.5,5.8-6.9,6l0,0l0,0v4.4l1-1.4l0,0
		c5.1-0.7,9-5.1,9-10.5l0,0l0,0c0,0,0-0.8,0-1C22.1,278.8,22,278.3,22,278.3L22,278.3z"/>
	<path fill="#A6A7A7" d="M11.9,276.9l1.7,1.8l-0.6,0.1l-0.5-0.5l-0.7-0.7l-0.7,0.7l-1.3,1.3l-0.6,0.6l0.6,0.6l1.3,1.3l0.7,0.7
		l0.7-0.7l0.4-0.4l0.6,0.2l-1.7,1.7l-3.3-3.4L11.9,276.9 M11.9,275.6l-4.6,4.7l4.6,4.7l0.1,0.1l3.4-3.5l-2.6-0.7l-0.8,0.8l-1.3-1.3
		l1.3-1.3l0.8,0.8l2.7-0.6L11.9,275.6L11.9,275.6z"/>
</g>
<g>
	<g>
		<path fill="#008CFF" d="M11.5,296.9v-1.4l-1,1.4l0,0c-4.7,0.5-8.4,4.2-9.1,9l0,0l-1.4,1h1.3h3l0,0c0.3-3.8,3.4-6.9,7.2-7V296.9z"
			/>
	</g>
	<g>
		<path fill="#008CFF" d="M22.2,307.5c0,0,0-0.8,0-1c-0.1-0.8-0.1-1.2-0.1-1.2l-10.1,2l7.1,1.8c-0.7,3.3-3.5,5.8-6.9,6l0,0l0,0v4.4
			l1-1.4l0,0C18.2,317.4,22.2,312.9,22.2,307.5L22.2,307.5L22.2,307.5z"/>
	</g>
	<g>
		<path fill="#008CFF" d="M12.7,307.9l-0.8,0.8l-1.3-1.3l1.3-1.3l0.8,0.8l2.7-0.6l-3.5-3.6l-4.6,4.7l4.6,4.7l0.1,0.1l3.4-3.5
			L12.7,307.9z"/>
	</g>
</g>
<g>
	<g>
		<path fill="#A6A7A7" d="M17.2,334.1c0.5,0,1,0.4,1,1s-0.4,1-1,1c-0.5,0-1-0.4-1-1S16.6,334.1,17.2,334.1 M17.2,333.1
			c-1.1,0-2,0.9-2,2s0.9,2,2,2s2-0.9,2-2S18.2,333.1,17.2,333.1L17.2,333.1z"/>
	</g>
	<path fill="none" stroke="#A6A7A7" stroke-miterlimit="10" d="M3,329.6c0.6,0,1.1,0.5,1.1,1.1s-0.5,1.1-1.1,1.1s-1.1-0.5-1.1-1.1
		S2.4,329.6,3,329.6z"/>
	<path fill="none" stroke="#A6A7A7" stroke-miterlimit="10" d="M2.4,333.9c-0.8-0.5-1.8-1.5-1.9-2.6c-0.2-1.6,0.9-3,2.6-3.1
		c0.8,0,1.9,0.6,2.3,1.5"/>
	<g>
		<path fill="#A6A7A7" d="M17.1,326.1c-0.4,1.3-0.3,2.5-0.1,3.3l0.1,0.4l0.4,0.2c1.4,0.9,2.5,2.2,3,3.6l0.3,0.7h0.7c0,0,0,0,0.1,0
			h1.1c0.2,0,0.4,0.2,0.4,0.4v3c0,0.2-0.2,0.4-0.4,0.4h-1.2c0,0,0,0-0.1,0l-0.8-0.2l-0.4,0.7c-0.6,1.2-1.5,2.2-2.7,3l-0.7,0.4
			l0.3,0.7l0.4,1.1c0.1,0.2,0,0.3,0,0.3c0,0.1-0.1,0.2-0.3,0.2l-1.4,0.5c-0.1,0-0.1,0-0.2,0c-0.2,0-0.4-0.1-0.4-0.3l-0.4-1.1
			l-0.3-0.8l-0.8,0.2c-0.7,0.1-1.3,0.2-2,0.2c-0.8,0-1.7-0.1-2.5-0.3l-0.9-0.2l-0.3,1l-0.4,1.2c-0.1,0.2-0.3,0.3-0.5,0.3
			c-0.1,0-0.1,0-0.2,0l-1.4-0.5c-0.1,0-0.2-0.1-0.3-0.3c0-0.1-0.1-0.2,0-0.4l0.6-1.5l0.3-0.7l-0.6-0.5c-1.8-1.4-2.9-3.3-2.9-5.4
			c0-4.1,4.1-7.4,9.1-7.4c0.7,0,1.3,0.1,2,0.2l0.8,0.1l0.3-0.7C15.2,327.2,16.1,326.6,17.1,326.1 M19.2,324.1c0,0-4.1,1-5.3,3.5
			c-0.7-0.1-1.5-0.2-2.2-0.2c-5.6,0-10.1,3.8-10.1,8.4c0,2.4,1.3,4.6,3.2,6.2l-0.6,1.5c-0.3,0.8,0.1,1.6,0.9,1.9l1.4,0.5
			C6.7,346,6.9,346,7,346c0.6,0,1.2-0.4,1.4-1l0.4-1.2c0.9,0.2,1.8,0.3,2.8,0.3c0.7,0,1.5-0.1,2.2-0.2l0.4,1.1
			c0.2,0.6,0.8,0.9,1.4,0.9c0.2,0,0.3,0,0.5-0.1l1.4-0.5c0.8-0.3,1.1-1.1,0.9-1.9l-0.4-1.1c1.3-0.9,2.4-2,3.1-3.4
			c0.1,0,0.2,0.1,0.4,0.1h1.2c0.8,0,1.4-0.6,1.4-1.4v-3c0-0.8-0.6-1.4-1.4-1.4h-1.2c0,0,0,0-0.1,0c-0.6-1.6-1.8-3-3.4-4.1
			C17.7,328.1,17.6,325.9,19.2,324.1L19.2,324.1z"/>
	</g>
	<g>
		<path fill="#A6A7A7" d="M7.5,323.5c1.1,0,2,0.9,2,2c0,0.1,0,0.1,0,0.2c-1.3,0.2-2.5,0.6-3.6,1.2c-0.3-0.4-0.5-0.8-0.5-1.3
			C5.4,324.5,6.3,323.5,7.5,323.5 M7.5,322.5c-1.7,0-3,1.4-3,3c0,1.1,0.6,2,1.4,2.6c1.3-0.8,2.8-1.3,4.5-1.5
			c0.1-0.3,0.2-0.7,0.2-1.1C10.5,323.9,9.2,322.5,7.5,322.5L7.5,322.5z"/>
	</g>
</g>
<g>
	<g>
		<g>
			<path fill="#008CFF" d="M22.5,360h-1.2c0,0,0,0-0.1,0c-0.6-1.7-1.9-3.1-3.5-4.1c-0.2-1.1-0.3-3.4,1.3-5.2c0,0-4.2,1.1-5.4,3.6
				c-0.7-0.1-1.5-0.2-2.3-0.2c-5.7,0-10.3,3.8-10.3,8.6c0,2.5,1.3,4.7,3.3,6.3l-0.6,1.5c-0.3,0.8,0.1,1.7,0.9,1.9l1.4,0.5
				c0.8,0.3,1.7-0.1,2-0.9l0.5-1.2c0.9,0.2,1.8,0.3,2.8,0.3c0.8,0,1.5-0.1,2.2-0.2l0.4,1.1c0.3,0.8,1.2,1.2,1.9,0.9l1.4-0.5
				c0.8-0.3,1.2-1.1,0.9-1.9l-0.4-1.2c1.4-0.9,2.4-2.1,3.1-3.4c0.1,0,0.2,0.1,0.4,0.1h1.2c0.8,0,1.5-0.7,1.5-1.5v-3
				C24,360.6,23.3,360,22.5,360z M17,363.8c-1.1,0-2-0.9-2-2s0.9-2,2-2s2,0.9,2,2S18.1,363.8,17,363.8z"/>
		</g>
		<g>
			<circle fill="#008CFF" cx="17" cy="361.8" r="1"/>
		</g>
	</g>
	<g>
		<path fill="#008CFF" d="M2.6,354.8c-1.7,0-2.8,1.5-2.6,3.1c0.1,1.1,1.1,2.2,1.9,2.7l3.1-4.4C4.6,355.4,3.5,354.7,2.6,354.8z
			 M2.5,358.5c-0.6,0-1.1-0.5-1.1-1.1s0.5-1.1,1.1-1.1s1.1,0.5,1.1,1.1S3.1,358.5,2.5,358.5z"/>
	</g>
	<g>
		<path fill="#008CFF" d="M5.4,354.7c-0.9-0.6-1.4-1.5-1.4-2.6c0-1.7,1.4-3.1,3.1-3.1s3.1,1.4,3.1,3.1c0,0.4-0.1,0.7-0.2,1.1
			C8.3,353.4,6.8,354,5.4,354.7z"/>
	</g>
</g>
<g>
	<g>
		<line fill="none" stroke="#A6A7A7" stroke-miterlimit="10" x1="19.9" y1="378.7" x2="18.1" y2="381.6"/>
		<line fill="none" stroke="#A6A7A7" stroke-miterlimit="10" x1="16.4" y1="378.7" x2="18.2" y2="381.6"/>
		<line fill="none" stroke="#A6A7A7" stroke-miterlimit="10" x1="18.1" y1="381.8" x2="18.1" y2="385.8"/>
		<line fill="none" stroke="#A6A7A7" stroke-miterlimit="10" x1="15.2" y1="383.1" x2="21" y2="383.1"/>
		<line fill="none" stroke="#A6A7A7" stroke-miterlimit="10" x1="15.2" y1="381.4" x2="21" y2="381.4"/>
	</g>
	<g>
		<path fill="#A6A7A7" d="M18.1,377c2.7,0,4.9,2.2,4.9,4.9c0,2.7-2.2,4.9-4.9,4.9s-4.9-2.2-4.9-4.9C13.2,379.2,15.4,377,18.1,377
			 M18.1,376c-3.3,0-5.9,2.6-5.9,5.9s2.6,5.9,5.9,5.9s5.9-2.6,5.9-5.9C24,378.7,21.3,376,18.1,376L18.1,376z"/>
	</g>
	<g>
		<path fill="#A6A7A7" d="M7.9,386.2L7.9,386.2c0.5,0,1.1,0.2,2.2,0.8c0.5,0.2,1.1,0.5,1.8,0.8c1.8,0.8,3,1.2,3.7,1.5
			c-0.2,0.2-0.4,0.4-0.7,0.4h-0.1c-1.1,0-4.3-0.9-5.3-1.3c-0.2-0.1-0.3-0.1-0.5-0.1c-0.5,0-0.9,0.3-1.1,0.7c-0.3,0.6-0.2,1.3,0.3,2
			s1.5,1.5,3.4,2.5c1.1,0.6,2.6,0.7,3.6,0.7c0.6,0,1.1,0,1.1,0h0.1h0.1c0,0,3.6-1.2,5.7-1.2h0.1c0.3,0,0.5,0,0.5,0.1
			c-1.3,0.5-4.2,1.7-5.2,2c-0.4,0.1-0.9,0.3-1.4,0.5c-1,0.4-2.1,0.9-3,0.9c-0.2,0-0.3,0-0.5-0.1c-0.6-0.2-2.1-0.8-3.5-1.4
			c-2.9-1.2-4.7-2-5.7-2c-0.1,0-0.3,0-0.5,0c-0.5,0-1.1,0-1.6,0.1H0.9c-0.2-0.9-0.1-2.4-0.1-3.7c0-0.6,0-1.2,0-1.7
			c2.2-0.2,4.1-0.7,5.3-1.1c0.4-0.1,0.8-0.2,1-0.3C7.6,386.2,7.7,386.2,7.9,386.2 M7.9,385.2c-0.2,0-0.5,0-0.7,0.1
			c-1.1,0.3-3.3,1.2-6.3,1.4c-0.5,0-0.8,0.4-0.8,0.9c0,1.4-0.3,4.3,0.1,5.7c0,0.1,0,0.1,0.1,0.2c0.1,0.2,0.3,0.4,0.6,0.5H1h0.1h0.1
			c0.7,0,1.5-0.1,2.1-0.1c0.2,0,0.3,0,0.4,0c1.4,0.1,7.3,2.9,9,3.3c0.2,0.1,0.5,0.1,0.7,0.1c1.6,0,3.4-1.1,4.7-1.5
			c1.4-0.4,6-2.3,6-2.3s0.5-1.7-1.6-1.7h-0.1c-2.3,0.1-6,1.3-6,1.3s-0.4,0-1,0c-0.9,0-2.2-0.1-3.2-0.6c-1.1-0.6-2.6-1.4-3.1-2.1
			c-0.4-0.6-0.3-1.1,0-1.1c0,0,0.1,0,0.2,0c0.9,0.3,4.4,1.3,5.7,1.3c0.1,0,0.1,0,0.2,0c1.1-0.1,1.9-1.3,1.6-2.1c0,0-1.4-0.3-4.4-1.7
			C9.9,385.8,8.9,385.2,7.9,385.2L7.9,385.2z"/>
	</g>
</g>
<g>
	<g>
		<g>
			<g>
				<path fill="#008CFF" d="M18.1,400.4c-3.3,0-5.9,2.6-5.9,5.9s2.6,5.9,5.9,5.9s5.9-2.6,5.9-5.9S21.3,400.4,18.1,400.4z M21,408
					h-2.4v2.2h-1V408h-2.4v-1h2.4v-0.8h-2.4v-1h2l-1.2-1.9l0.8-0.5l1.4,2.1l1.4-2.1l0.8,0.5l-1.2,1.9H21v1h-2.4v0.8H21V408z"/>
			</g>
		</g>
	</g>
	<g>
		<g>
			<path fill="#008CFF" d="M0.9,411c2.9-0.2,5.1-1.1,6.3-1.4c1.5-0.3,2.2,0.3,5.2,1.6c3,1.3,4.4,1.7,4.4,1.7c0.3,0.9-0.5,2-1.6,2.1
				s-4.9-1-5.9-1.3c-0.5-0.2-0.6,0.4-0.2,1.1c0.5,0.7,2,1.6,3.1,2.1c1.6,0.8,4.2,0.6,4.2,0.6s3.7-1.2,6-1.3c2.3-0.1,1.7,1.7,1.7,1.7
				s-4.6,1.9-6,2.3s-3.7,1.9-5.4,1.4s-7.6-3.3-9-3.3c-0.6,0-1.6,0-2.5,0.1H1.1c-0.1,0-0.2,0-0.2,0c-0.3-0.1-0.5-0.2-0.6-0.5
				c0-0.1,0-0.1-0.1-0.2c-0.4-1.5-0.1-4.3-0.1-5.7C0.1,411.5,0.4,411.1,0.9,411L0.9,411L0.9,411z"/>
		</g>
	</g>
</g>
<g>
	<line fill="none" stroke="#A6A7A7" stroke-miterlimit="10" x1="10.6" y1="436.2" x2="10.6" y2="445.8"/>
	<polyline fill="none" stroke="#A6A7A7" stroke-miterlimit="10" points="2.4,431.9 10.4,436.2 18.7,431.9 	"/>
	<g>
		<path fill="#A6A7A7" d="M10.6,425.9l9.6,5.4v10.8l-9.6,5.4L1,442.1v-10.8L10.6,425.9 M10.6,424.7l-10.6,6v12l10.6,6l10.6-6v-12
			L10.6,424.7L10.6,424.7z"/>
	</g>
</g>
<g>
	<g>
		<g>
			<path fill="#008CFF" d="M10.6,451.7l-10.6,6v12l10.6,6l10.6-6v-12L10.6,451.7z M11.1,472.8h-1v-9.2l-7.9-4.3l0.5-0.9l7.8,4.2
				l8.1-4.2l0.5,0.9l-7.9,4.1L11.1,472.8z"/>
		</g>
	</g>
</g>
<g>
	<g>
		<path fill="#A6A7A7" d="M3.2,484.9h7.7v1H3.2V484.9z"/>
		<path fill="#A6A7A7" d="M3.2,482.1H9v1H3.2V482.1z"/>
		<path fill="#A6A7A7" d="M3.2,488h7.9v0.9H3.2V488z"/>
		<path fill="none" stroke="#A6A7A7" stroke-width="0.9584" stroke-miterlimit="10" d="M13.7,492.5c1.7,0,3.1,1.4,3.1,3.1
			s-1.4,3.1-3.1,3.1s-3.1-1.4-3.1-3.1S12,492.5,13.7,492.5z"/>
		<path fill="none" stroke="#A6A7A7" stroke-width="0.9584" stroke-miterlimit="10" d="M12.4,494.2c0.5,0,0.9,0.4,0.9,0.9
			s-0.4,0.9-0.9,0.9s-0.9-0.4-0.9-0.9S11.9,494.2,12.4,494.2z"/>
		<path fill="none" stroke="#A6A7A7" stroke-width="0.9173" stroke-miterlimit="10" d="M15,479.8v3.4h3.3L15,479.8z"/>
		<path fill="none" stroke="#A6A7A7" stroke-width="0.9584" stroke-miterlimit="10" d="M14.2,492.5c4.1,0,5.3,2.1,7.5,4.2
			c-2.3,2.3-3.3,4.2-7.5,4.2s-5.6-2.3-7.5-4.2C8.7,494.7,10,492.5,14.2,492.5z"/>
		<path fill="none" stroke="#A6A7A7" stroke-width="0.9584" stroke-miterlimit="10" d="M14.2,491.1c-5.3,0-7.1,2.9-9.7,5.5
			c2.5,2.5,4.3,5.5,9.7,5.5c0.3,0,0.6,0,0.9,0l0,0H1.4c-0.5,0-0.9-0.4-0.9-0.9V480c0-0.5,0.4-0.9,0.9-0.9h12.3v5.3H19v7.7
			C17.8,491.6,16.3,491.1,14.2,491.1z"/>
	</g>
	<g>
		<path fill="#008CFF" d="M14.2,529.7h0.9l0,0C14.8,529.7,14.5,529.7,14.2,529.7z"/>
		<path fill="#008CFF" d="M4.1,523.9c2.7-2.7,4.5-5.8,10.1-5.8c2.2,0,3.8,0.4,5,1.2v-8.1h-5.5v-5.5H0.9c-0.5,0-0.9,0.4-0.9,0.9v22.2
			c0,0.5,0.4,0.9,0.9,0.9h13.3C8.7,529.7,6.7,526.5,4.1,523.9z M2.8,508.7h6v1h-6C2.8,509.7,2.8,508.7,2.8,508.7z M2.8,511.7h8v1h-8
			C2.8,512.7,2.8,511.7,2.8,511.7z M2.8,514.9H11v0.9H2.8V514.9z"/>
		<path fill="#008CFF" d="M11,522.8c0,1.5,1.2,2.7,2.7,2.7s2.7-1.2,2.7-2.7c0-1.4-1.1-2.6-2.5-2.7c-0.1,0-0.1,0-0.2,0
			c-0.2,0-0.4,0-0.6,0.1C12,520.4,11,521.5,11,522.8z M12.4,523.2c-0.5,0-0.9-0.4-0.9-0.9s0.4-0.9,0.9-0.9s0.9,0.4,0.9,0.9
			C13.3,522.8,12.9,523.2,12.4,523.2z"/>
		<path fill="#008CFF" d="M22.4,523.6c-0.3-0.3-0.7-0.7-1-1c-1.8-1.9-3.3-3.5-7.2-3.5c-0.1,0-0.2,0-0.3,0c0.7,0,1.3,0.2,1.9,0.6
			c0.3,0.2,0.5,0.4,0.8,0.7c0.6,0.7,0.9,1.5,0.9,2.4c0,2.1-1.7,3.7-3.7,3.7s-3.7-1.7-3.7-3.7c0-0.7,0.2-1.3,0.5-1.9
			c0.2-0.3,0.4-0.6,0.7-0.9c0.5-0.4,1.1-0.8,1.7-0.9c-3,0.3-4.6,1.9-6,3.5c-0.3,0.3-0.6,0.6-0.9,1L5.7,524l0.4,0.4
			c0.3,0.3,0.6,0.6,0.9,0.9c1.7,1.8,3.4,3.6,7.3,3.6c3.8,0,5.3-1.5,7.1-3.4c0.3-0.4,0.7-0.7,1.1-1.1l0.4-0.4L22.4,523.6z"/>
		<polygon fill="#008CFF" points="14.7,505.7 14.7,510.3 19.3,510.3 		"/>
	</g>
	<g>
		<path fill="none" stroke="#A6A7A7" stroke-width="0.9583" stroke-miterlimit="10" d="M4.1,549.8l3.5-2.9l2,2l3.5-3.4"/>
		<path fill="none" stroke="#A6A7A7" stroke-width="0.9583" stroke-miterlimit="10" d="M10,544.9h3.5v3.4"/>
		<path fill="none" stroke="#A6A7A7" stroke-width="0.9583" stroke-miterlimit="10" d="M9.5,556.2c-1.3,0-2.6-0.2-3.6-0.6
			c-1-0.4-1.9-0.9-2.7-1.5c-0.7-0.6-1.3-1.3-1.7-2.1s-0.7-1.5-0.8-2.3s-0.2-1.6,0-2.4c0.1-0.8,0.3-1.5,0.6-2.1
			c0.3-0.7,0.7-1.3,1.1-1.8s0.9-1,1.4-1.5c0.4-0.4,0.8-0.7,1.2-1c0.3-0.3,0.6-0.6,0.8-0.9c0.3-0.3,0.5-0.6,0.7-0.8
			c0.1-0.1,0.2-0.2,0.3-0.2l5.5,0.1c0.2,0,0.3,0.1,0.4,0.2c0.2,0.2,0.4,0.5,0.7,0.8c0.2,0.3,0.5,0.6,0.9,0.9
			c0.3,0.3,0.8,0.7,1.2,1.1c0.4,0.4,0.8,0.8,1.3,1.2c0.4,0.5,0.8,1.1,1.1,1.7c0.3,0.6,0.6,1.4,0.7,2.2s0.1,1.8-0.1,2.8
			c-0.2,0.9-0.5,1.7-1,2.4c-0.5,0.8-1.1,1.4-1.9,2c-0.8,0.5-1.7,1-2.7,1.3C12,556,10.8,556.2,9.5,556.2z M12.1,538.6H7
			c-0.2,0-0.3-0.1-0.4-0.2c-0.1-0.2-0.2-0.4-0.3-0.5c-0.1-0.2-0.2-0.3-0.3-0.5c-0.1-0.2-0.2-0.3-0.3-0.5c-0.1-0.2-0.3-0.4-0.5-0.6
			c-0.2-0.2-0.4-0.3-0.6-0.5c-0.3-0.2-0.5-0.5-0.6-0.8c-0.1-0.4,0-0.8,0.4-1.1c0.2-0.1,0.4-0.2,0.6-0.2h0.1c0.2,0,0.4,0.1,0.5,0.1
			l0.5,0.2h0.1c0.2,0,0.3-0.1,0.4-0.1c0.1-0.1,0.4-0.3,0.7-0.5c0.3-0.2,0.6-0.2,1-0.2c0.4,0.1,0.6,0.2,0.8,0.4
			c0.1,0.1,0.1,0.1,0.2,0.2c0.1,0,0.1,0.1,0.2,0.1c0,0,0,0,0.1,0c0.1-0.1,0.1-0.1,0.2-0.2c0.2-0.2,0.5-0.4,0.7-0.5
			c0.3-0.1,0.7-0.1,1.1,0.1c0.2,0.1,0.4,0.2,0.5,0.3l0.3,0.3c0.1,0.1,0.1,0.1,0.2,0.1H13c0.1,0,0.2-0.1,0.3-0.1s0.3-0.1,0.4-0.1h0.1
			c0.1,0,0.3,0,0.4,0.1c0.3,0.1,0.5,0.3,0.6,0.5s0.1,0.4,0.1,0.6c0,0.2-0.1,0.4-0.2,0.5c-0.1,0.2-0.3,0.3-0.5,0.4
			c-0.3,0.2-0.5,0.3-0.6,0.5c-0.2,0.2-0.3,0.4-0.5,0.6c-0.1,0.1-0.2,0.2-0.3,0.4c-0.1,0.1-0.2,0.3-0.3,0.4c-0.1,0.2-0.2,0.4-0.3,0.5
			C12.4,538.5,12.3,538.6,12.1,538.6z"/>
	</g>
	<g>
		<path fill="#008CFF" d="M4.8,562.4c0.2,0.1,0.4,0.3,0.6,0.5s0.3,0.4,0.5,0.6c0.1,0.1,0.2,0.3,0.3,0.5c0.1,0.2,0.2,0.3,0.3,0.5
			c0.1,0.2,0.2,0.4,0.3,0.6c0.1,0.1,0.2,0.2,0.4,0.2h5.2c0.1,0,0.3-0.1,0.4-0.2c0.1-0.2,0.2-0.4,0.4-0.5c0.1-0.1,0.2-0.3,0.3-0.4
			c0.1-0.1,0.2-0.3,0.3-0.4c0.2-0.2,0.3-0.4,0.5-0.6c0.1-0.2,0.3-0.3,0.6-0.5c0.2-0.1,0.3-0.3,0.5-0.4c0.1-0.2,0.2-0.4,0.3-0.6
			c0-0.2,0-0.4-0.1-0.6c-0.1-0.2-0.3-0.4-0.6-0.5c-0.2-0.1-0.3-0.1-0.4-0.1h-0.1c-0.1,0-0.3,0.1-0.4,0.1c-0.1,0-0.2,0.1-0.4,0.1
			c-0.1,0-0.4,0-0.5,0s-0.1-0.1-0.2-0.2l-0.3-0.3c-0.1-0.1-0.3-0.2-0.5-0.3c-0.4-0.2-0.8-0.2-1.1-0.1c-0.3,0.1-0.5,0.3-0.7,0.5
			c-0.1,0.1-0.1,0.1-0.2,0.2c0,0,0,0-0.1,0s-0.1-0.1-0.2-0.1c0,0-0.1-0.1-0.2-0.2c-0.2-0.2-0.5-0.3-0.8-0.4c-0.4-0.1-0.7,0-1,0.2
			s-0.5,0.4-0.7,0.5c-0.1,0.1-0.2,0.1-0.4,0.1H6.7l-0.5-0.2c-0.2-0.1-0.4-0.1-0.6-0.1H5.5c-0.2,0-0.4,0.1-0.6,0.2
			c-0.4,0.3-0.5,0.7-0.4,1.1C4.3,561.9,4.5,562.2,4.8,562.4z"/>
		<path fill="#008CFF" d="M19.5,574c-0.1-0.9-0.4-1.7-0.7-2.4c-0.3-0.7-0.8-1.3-1.2-1.8c-0.4-0.5-0.9-0.9-1.3-1.3
			c-0.5-0.4-0.9-0.7-1.2-1.1c-0.3-0.3-0.6-0.6-0.9-0.9c-0.3-0.3-0.5-0.5-0.6-0.7c-0.2-0.3-0.5-0.4-0.8-0.4L7,565.2
			c-0.3,0-0.6,0.1-0.7,0.3c-0.2,0.3-0.4,0.5-0.7,0.9c-0.2,0.2-0.5,0.5-0.8,0.8s-0.7,0.7-1.2,1c-0.6,0.5-1.1,1-1.5,1.6
			c-0.5,0.6-0.9,1.3-1.2,2s-0.6,1.5-0.7,2.3s-0.1,1.7,0,2.6c0.1,0.8,0.5,1.7,0.9,2.5c0.5,0.8,1.1,1.6,1.9,2.2
			c0.8,0.7,1.8,1.2,2.9,1.6c1.1,0.4,2.4,0.6,3.8,0.6h0.2c1.3,0,2.5-0.2,3.6-0.5s2.1-0.8,2.9-1.4c0.8-0.6,1.5-1.3,2-2.1
			s0.9-1.7,1-2.6C19.6,575.9,19.7,574.9,19.5,574z M9.8,576.4l-2.1-2L4.5,577l-0.6-0.8l4-3.3l2,2l2.9-2.8h-2.5v-1h4.1v4h-1v-2.2
			L9.8,576.4z"/>
	</g>
	<g>
		<path fill="none" stroke="#A6A7A7" stroke-width="0.953" stroke-miterlimit="10" d="M23.4,603.5c0,1.5-3,2.7-6.6,2.7
			c-1.2,0-2.2-0.1-3.2-0.3"/>
		<path fill="none" stroke="#A6A7A7" stroke-width="0.953" stroke-miterlimit="10" d="M23.4,599.7c0,1.5-3,2.7-6.6,2.7
			c-1.1,0-2.2-0.1-3.1-0.3"/>
		<path fill="none" stroke="#A6A7A7" stroke-width="0.953" stroke-miterlimit="10" d="M23.4,596.3c0,1.5-3,2.7-6.6,2.7
			c-1.1,0-2.2-0.1-3.1-0.3"/>
		<path fill="none" stroke="#A6A7A7" stroke-width="0.953" stroke-miterlimit="10" d="M23.4,593.2c0,1.5-3,2.7-6.6,2.7
			c-1.1,0-2.2-0.1-3.1-0.3"/>
		<path fill="none" stroke="#A6A7A7" stroke-width="0.953" stroke-miterlimit="10" d="M23.4,589.4v14.5 M10.2,593.2
			c0-2.1,0-3.8,0-3.8"/>
		<path fill="none" stroke="#A6A7A7" stroke-width="0.953" stroke-miterlimit="10" d="M16.8,587.1c3.6,0,6.6,1.2,6.6,2.7
			s-3,2.7-6.6,2.7s-6.6-1.2-6.6-2.7C10.2,588.3,13.2,587.1,16.8,587.1z"/>
		<path fill="none" stroke="#A6A7A7" stroke-width="0.953" stroke-miterlimit="10" d="M13.7,605.4c0,1.5-3,2.7-6.6,2.7
			s-6.6-1.2-6.6-2.7"/>
		<path fill="none" stroke="#A6A7A7" stroke-width="0.953" stroke-miterlimit="10" d="M13.7,602c0,1.5-3,2.7-6.6,2.7
			s-6.6-1.2-6.6-2.7"/>
		<path fill="none" stroke="#A6A7A7" stroke-width="0.953" stroke-miterlimit="10" d="M13.7,598.9c0,1.5-3,2.7-6.6,2.7
			s-6.6-1.2-6.6-2.7"/>
		<path fill="none" stroke="#A6A7A7" stroke-width="0.953" stroke-miterlimit="10" d="M13.7,595.1v10.7 M0.5,605.8v-10.7"/>
		<path fill="none" stroke="#A6A7A7" stroke-width="0.953" stroke-miterlimit="10" d="M7.1,592.9c3.6,0,6.6,1.2,6.6,2.7
			s-3,2.7-6.6,2.7s-6.6-1.2-6.6-2.7C0.5,594,3.5,592.9,7.1,592.9z"/>
	</g>
	<path fill="#008CFF" d="M23.8,614.4c-0.4-1.6-3.3-2.8-7-2.8s-6.6,1.2-7,2.8l0,0v0.3v0.1c0,0,0,0,0,0.1H9.7l0.1,0.6v2.1
		c-0.8-0.1-1.7-0.2-2.6-0.2c-3.8,0-6.6,1.2-7,2.8H0v0.4v0.3v3.1v3.1v3.4v0.1v0.2h0.1c0.1,0.5,0.4,0.9,1,1.3l0.1,0.1h0.1
		c0.8,0.6,2.1,1,3.6,1.2l0,0l0,0c0.7,0.1,1.5,0.2,2.3,0.2c1.6,0,3.1-0.2,4.3-0.6h0.1l0,0c1.1-0.4,1.9-0.9,2.3-1.5
		c0.2,0,0.5,0.1,0.7,0.1l0.2,0.1h0.1c0.6,0.1,1.3,0.1,1.9,0.1c1.4,0,2.7-0.2,3.8-0.5h0.1l0,0c1.5-0.4,2.6-1.1,3-1.9l0.2-0.1V629
		v-0.4v-3.8v-3.4v-3.1V615v-0.3L23.8,614.4L23.8,614.4L23.8,614.4z M22.9,619.8c-1.2,0.9-3.4,1.5-6.1,1.5c-0.9,0-1.8-0.1-2.6-0.2
		v-0.5v-0.1v-0.1v-0.2c0.8,0.2,1.7,0.2,2.6,0.2c3.5,0,6.1-1.2,6.1-2.2V619.8z M22.9,622.9c-1.2,0.9-3.4,1.5-6.1,1.5
		c-0.9,0-1.8-0.1-2.6-0.2V624v-0.7c0.8,0.2,1.7,0.2,2.6,0.2c3.5,0,6.1-1.2,6.1-2.2V622.9z M22.9,626.3c-1.2,0.9-3.4,1.5-6.1,1.5
		c-0.9,0-1.8-0.1-2.6-0.2V627v-0.3c0.8,0.2,1.7,0.2,2.6,0.2c3.5,0,6.1-1.2,6.1-2.2V626.3z M1,627c0,1,2.6,2.2,6.1,2.2
		c2.9,0,5.1-0.8,5.9-1.6v1.2c-1.2,0.8-3.4,1.4-5.9,1.4c-2.7,0-4.9-0.6-6.1-1.5V627z M1,620.5c0,0.1,0,0.2,0.1,0.3
		c0.1,0.2,0.2,0.3,0.4,0.5s0.4,0.3,0.7,0.5c1.1,0.6,2.9,1,5,1c2.4,0,4.4-0.5,5.4-1.2c0.2-0.1,0.3-0.3,0.5-0.4v1.2
		c-1.2,0.8-3.4,1.4-5.9,1.4c-2.7,0-4.9-0.6-6.1-1.5v-0.4v-0.2v-0.2V621L1,620.5L1,620.5z M1,623.9c0,1,2.6,2.2,6.1,2.2
		c2.9,0,5.2-0.8,5.9-1.7v1.2c-1.2,0.8-3.4,1.4-5.9,1.4c-2.7,0-4.9-0.6-6.1-1.5V623.9z M16.8,617.9c-2.6,0-4.8-0.6-6-1.4l-0.1-0.1
		v-0.6v-0.5v-0.5c0,0.2,0.1,0.3,0.2,0.5c0.1,0.2,0.3,0.3,0.6,0.5c1,0.6,3,1.2,5.3,1.2c2.1,0,4-0.4,5-1c0.3-0.1,0.5-0.3,0.7-0.5
		s0.3-0.3,0.4-0.5H23v0.5v0.3v0.2v0.4C21.7,617.3,19.5,617.9,16.8,617.9z"/>
	<g>
		<path fill="none" stroke="#A6A7A7" stroke-width="0.9999" stroke-miterlimit="10" d="M5.8,640.9c0.5,0,1,0.4,1,0.9v0.1
			c0,0.5-0.4,0.9-1,0.9s-1-0.4-1-0.9v-0.1C4.8,641.3,5.2,640.9,5.8,640.9z"/>
		<path fill="none" stroke="#A6A7A7" stroke-width="0.9999" stroke-miterlimit="10" d="M10,640.9c0.5,0,1,0.4,1,0.9v0.1
			c0,0.5-0.4,0.9-1,0.9s-1-0.4-1-0.9v-0.1C9,641.3,9.5,640.9,10,640.9z"/>
		<path fill="none" stroke="#A6A7A7" stroke-width="0.9999" stroke-miterlimit="10" d="M5.8,645c0.5,0,1,0.4,1,0.9v0.2
			c0,0.5-0.4,0.9-1,0.9s-1-0.4-1-0.9v-0.2C4.8,645.4,5.2,645,5.8,645z"/>
		<path fill="none" stroke="#A6A7A7" stroke-width="0.9999" stroke-miterlimit="10" d="M10,645c0.5,0,1,0.4,1,0.9v0.2
			c0,0.5-0.4,0.9-1,0.9s-1-0.4-1-0.9v-0.2C9,645.4,9.5,645,10,645z"/>
		<path fill="none" stroke="#A6A7A7" stroke-width="0.9914" stroke-miterlimit="10" d="M14.8,646c2.8,0,6.3,0,6.3,0
			c0.7,0,1.4,0.6,1.4,1.3c0,0,0,6.4,0,12.3"/>
		<path fill="none" stroke="#A6A7A7" stroke-width="0.9914" stroke-miterlimit="10" d="M0.1,659.7h23.8"/>
		<path fill="none" stroke="#A6A7A7" stroke-width="0.9914" stroke-miterlimit="10" d="M4,637.1h7.9c1.1,0,2,0.9,2,2v20.6H2v-20.6
			C2,638,2.9,637.1,4,637.1z"/>
	</g>
	<g>
		<path fill="#008CFF" stroke="#008CFF" stroke-width="0.9937" stroke-miterlimit="10" d="M0,686.4h23.9"/>
		<g>
			<path fill="#008CFF" d="M11.9,663.2h-8c-1.4,0-2.5,1.1-2.5,2.5v21.1h12.9v-21.1C14.4,664.3,13.2,663.2,11.9,663.2z M6.7,668.5
				c0,0.5-0.4,0.9-1,0.9s-1-0.4-1-0.9v-0.1c0-0.5,0.4-0.9,1-0.9S6.7,667.9,6.7,668.5L6.7,668.5z M4.7,672.5c0-0.5,0.4-0.9,1-0.9
				s1,0.4,1,0.9v0.2c0,0.5-0.4,0.9-1,0.9s-1-0.4-1-0.9V672.5z M11,668.5c0,0.5-0.4,0.9-1,0.9c-0.5,0-1-0.4-1-0.9v-0.1
				c0-0.5,0.4-0.9,1-0.9C10.5,667.5,11,667.9,11,668.5L11,668.5z M9,672.5c0-0.5,0.4-0.9,1-0.9c0.5,0,1,0.4,1,0.9v0.2
				c0,0.5-0.4,0.9-1,0.9c-0.5,0-1-0.4-1-0.9V672.5z"/>
			<path fill="#008CFF" d="M21.8,673.7L21.8,673.7h-0.3c0,0-3.7,0-6.5,0l0,0v12.9h6.8v-0.2h1l0.2,0.3c0-0.1,0-0.2,0-0.3
				c0-0.7,0-1.3,0-2c0-4.9,0-9.4,0-9.4C22.9,674.3,22.4,673.8,21.8,673.7z"/>
		</g>
	</g>
	<g>
		<path fill="none" stroke="#A6A7A7" stroke-width="0.9595" stroke-miterlimit="10" d="M16.2,700l-6.6-9.3c-0.2-0.3-0.7-0.3-0.9,0
			L2.1,700c-3.8,5.4-0.3,13,6.4,13.5c0.2,0,0.4,0,0.7,0s0.5,0,0.7,0C16.5,713,20,705.4,16.2,700L16.2,700z M12.6,703.8l-3.8,4.5
			c-0.1,0.2-0.4,0-0.4-0.2l0.4-2.4c0-0.1-0.1-0.2-0.2-0.2h-3c-0.2,0-0.3-0.2-0.2-0.3l3.9-4.7c0.1-0.2,0.4,0,0.4,0.2l-0.5,2.6
			c0,0.1,0.1,0.2,0.2,0.2h2.9C12.6,703.5,12.7,703.7,12.6,703.8L12.6,703.8z"/>
	</g>
	<g>
		<path fill="#008CFF" stroke="#008CFF" stroke-width="0.961" stroke-miterlimit="10" d="M16.2,727l-6.6-9.3c-0.2-0.3-0.7-0.3-0.9,0
			L2.1,727c-3.8,5.4-0.3,13,6.4,13.5c0.2,0,0.4,0,0.7,0s0.5,0,0.7,0C16.6,740.1,20.1,732.4,16.2,727L16.2,727z M12.7,730.9l-3.8,4.5
			c-0.1,0.2-0.4,0-0.4-0.2l0.4-2.4c0-0.1-0.1-0.2-0.2-0.2h-3c-0.2,0-0.3-0.2-0.2-0.3l3.9-4.7c0.1-0.2,0.4,0,0.4,0.2l-0.5,2.6
			c0,0.1,0.1,0.2,0.2,0.2h2.9C12.7,730.6,12.8,730.7,12.7,730.9L12.7,730.9z"/>
	</g>
	<g>
		<path fill="none" stroke="#A6A7A7" stroke-width="0.9545" stroke-miterlimit="10" d="M7.2,752.3c3.7,0,6.6,3,6.6,6.6
			s-3,6.6-6.6,6.6s-6.6-3-6.6-6.6C0.5,755.3,3.5,752.3,7.2,752.3z"/>
		<path fill="none" stroke="#A6A7A7" stroke-width="0.9545" stroke-miterlimit="10" d="M16.8,752.3c3.7,0,6.6,3,6.6,6.6
			s-3,6.6-6.6,6.6s-6.6-3-6.6-6.6C10.2,755.3,13.1,752.3,16.8,752.3z"/>
		<path fill="none" stroke="#A6A7A7" stroke-width="0.9545" stroke-miterlimit="10" d="M12,744.5c3.7,0,6.6,3,6.6,6.6
			s-3,6.6-6.6,6.6s-6.6-3-6.6-6.6C5.3,747.5,8.3,744.5,12,744.5z"/>
	</g>
	<g>
		<path fill="#008CFF" d="M20,777.6L20,777.6c0,0.2-0.1,0.3-0.1,0.5s-0.1,0.3-0.1,0.5c-0.7,2.2-2.3,3.9-4.3,4.9c0,0.2,0,0.3,0,0.5
			c0,2-0.7,3.8-1.9,5.3c-0.1,0.1-0.2,0.2-0.3,0.3s-0.2,0.2-0.2,0.3c1.1,0.7,2.5,1.2,3.9,1.2c2.9,0,5.4-1.8,6.5-4.2
			c0.4-0.9,0.6-1.8,0.6-2.8C23.9,781.1,22.3,778.7,20,777.6z"/>
		<path fill="#008CFF" d="M10.9,789.4c-0.1-0.1-0.2-0.2-0.3-0.3c-1.2-1.4-1.9-3.2-1.9-5.2c0-0.1,0-0.3,0-0.4c-2.1-0.9-3.8-2.8-4.5-5
			c0-0.1-0.1-0.3-0.1-0.5c0-0.1-0.1-0.3-0.1-0.5v-0.1c-2.4,1.2-4,3.6-4,6.4c0,1.5,0.5,2.9,1.2,4c0.6,1,1.5,1.7,2.5,2.3
			s2.2,0.9,3.4,0.9c1.5,0,2.9-0.5,4.1-1.3l0,0C11.1,789.6,11,789.5,10.9,789.4z"/>
		<path fill="#008CFF" d="M14.4,783.8h-0.1c-0.1,0-0.3,0.1-0.5,0.1s-0.3,0.1-0.5,0.1c-0.4,0.1-0.9,0.1-1.3,0.1c-0.5,0-0.9,0-1.4-0.1
			c-0.2,0-0.3-0.1-0.5-0.1c-0.1,0-0.2-0.1-0.4-0.1l0,0c0,1.7,0.6,3.3,1.6,4.5c0.1,0.1,0.2,0.2,0.3,0.3s0.2,0.2,0.3,0.3
			c0,0,0,0,0.1,0c0.1-0.1,0.2-0.2,0.2-0.2c0.1-0.1,0.2-0.2,0.3-0.3C13.7,787.2,14.4,785.6,14.4,783.8L14.4,783.8z"/>
		<path fill="#008CFF" d="M10.8,778.4c0.1-0.1,0.2-0.2,0.3-0.3l0.1-0.1c-1.2-0.8-2.6-1.3-4.1-1.3c-0.5,0-0.9,0-1.4,0.1
			c-0.2,0-0.3,0.1-0.4,0.1S5.1,777,4.9,777v0.1c0,0.2,0.1,0.3,0.1,0.5c0,0.1,0.1,0.3,0.1,0.4c0.6,1.9,1.9,3.4,3.6,4.3
			c0-0.1,0-0.2,0.1-0.4c0-0.2,0.1-0.3,0.1-0.5c0.3-1,0.8-2,1.5-2.8C10.6,778.7,10.7,778.5,10.8,778.4z"/>
		<path fill="#008CFF" d="M10.7,783c0.4,0.1,0.9,0.1,1.3,0.1c0.4,0,0.8,0,1.2-0.1c0.2,0,0.3-0.1,0.4-0.1c0.1,0,0.3-0.1,0.4-0.1h0.1
			c0-0.1,0-0.3-0.1-0.4c0-0.2-0.1-0.3-0.1-0.4c-0.3-1-0.8-1.8-1.4-2.6c-0.1-0.1-0.2-0.2-0.3-0.3s-0.2-0.2-0.3-0.3l-0.1,0.1
			c-0.1,0.1-0.2,0.2-0.3,0.3s-0.2,0.2-0.3,0.3c-0.6,0.7-1.1,1.6-1.3,2.6c0,0.1-0.1,0.3-0.1,0.4c0,0.1,0,0.2-0.1,0.4
			c0.1,0,0.2,0.1,0.4,0.1C10.4,782.9,10.5,783,10.7,783z"/>
		<path fill="#008CFF" d="M5.8,775.8c0.5-0.1,0.9-0.1,1.4-0.1c1.8,0,3.6,0.6,4.9,1.6c1.3-1,3-1.5,4.7-1.5c0.4,0,0.9,0,1.3,0.1
			c0.2,0,0.3,0,0.5,0.1c0.2,0,0.3,0.1,0.5,0.1l0,0l0,0c0-3.9-3.2-7-7.1-7c-1,0-1.9,0.2-2.8,0.6c-0.8,0.3-1.6,0.9-2.2,1.5
			c-1.3,1.3-2,3-2.1,4.9c0.1,0,0.3-0.1,0.4-0.1C5.5,775.8,5.6,775.8,5.8,775.8z"/>
		<path fill="#008CFF" d="M15.2,781.9c0,0.1,0.1,0.3,0.1,0.4c1.2-0.6,2.3-1.6,2.9-2.9c0.2-0.4,0.4-0.9,0.6-1.4
			c0-0.1,0.1-0.3,0.1-0.4c0-0.1,0.1-0.3,0.1-0.5l0,0l0,0c-0.1,0-0.3-0.1-0.4-0.1s-0.3-0.1-0.4-0.1c-0.4-0.1-0.8-0.1-1.2-0.1
			c-1,0-1.9,0.2-2.8,0.6c-0.4,0.2-0.8,0.4-1.1,0.6c0.1,0.1,0.2,0.2,0.3,0.3s0.2,0.2,0.3,0.3c0.7,0.8,1.2,1.7,1.5,2.8
			C15.1,781.6,15.1,781.7,15.2,781.9z"/>
	</g>
	<g>
		<path fill="none" stroke="#A6A7A7" stroke-width="0.9846" stroke-miterlimit="10" d="M8.6,814.9c-0.8,1.1-1.9,2.6-1.9,2.6H13
			c0,0-1-1.3-1.8-2.4"/>
		<path fill="none" stroke="#A6A7A7" stroke-width="0.9846" stroke-miterlimit="10" d="M7,797.4c0-1.6,1.4-2.9,3-2.9
			c1.7,0,3,1.3,3,3"/>
		<path fill="none" stroke="#A6A7A7" stroke-width="0.9846" stroke-miterlimit="10" d="M10,802.9c2.8,0,5,2.2,5,4.8
			c0,2.7-2.2,4.8-5,4.8s-5-2.2-5-4.8C5,805.1,7.3,802.9,10,802.9z"/>
		<path fill="none" stroke="#A6A7A7" stroke-width="0.9846" stroke-miterlimit="10" d="M9.9,796.9c5.2,0,9.4,4.1,9.4,9.1
			s-4.2,9.1-9.4,9.1S0.5,811,0.5,806S4.7,796.9,9.9,796.9z"/>
	</g>
	<g>
		<path fill="none" stroke="#008CFF" stroke-width="0.9893" stroke-miterlimit="10" d="M8.6,841.9c-0.8,1.2-1.9,2.6-1.9,2.6H13
			c0,0-1-1.3-1.8-2.5"/>
		<path fill="none" stroke="#008CFF" stroke-width="0.9893" stroke-miterlimit="10" d="M7,824.5c0-1.6,1.4-3,3.1-2.9
			c1.7,0,3,1.4,3,3"/>
		<path fill="#008CFF" d="M9.9,823.3c-5.5,0-9.9,4.3-9.9,9.6s4.4,9.6,9.9,9.6s9.9-4.3,9.9-9.6S15.4,823.3,9.9,823.3z M14.4,834.7
			c0,2.4-2,4.4-4.5,4.4s-4.5-2-4.5-4.4s2-4.4,4.5-4.4S14.4,832.3,14.4,834.7z"/>
	</g>
	<g>
		<path fill="none" stroke="#A6A7A7" stroke-width="0.9396" stroke-miterlimit="10" d="M19.4,858.8v2.2l1.4,1.3"/>
		<path fill="none" stroke="#A6A7A7" stroke-width="0.9396" stroke-miterlimit="10" d="M19.4,857c2.2,0,4.1,1.8,4.1,4s-1.8,4-4.1,4
			s-4.1-1.8-4.1-4C15.4,858.8,17.2,857,19.4,857z"/>
		<path fill="none" stroke="#A6A7A7" stroke-width="0.9396" stroke-miterlimit="10" d="M13.2,853.3l1.7-2.7"/>
		<path fill="none" stroke="#A6A7A7" stroke-width="0.9396" stroke-miterlimit="10" d="M10.9,853.3l1.7-2.7"/>
		<path fill="none" stroke="#A6A7A7" stroke-width="0.9396" stroke-miterlimit="10" d="M2.2,858.3h3.6"/>
		<path fill="none" stroke="#A6A7A7" stroke-width="0.9396" stroke-miterlimit="10" d="M2.2,856h5.9"/>
		<path fill="none" stroke="#A6A7A7" stroke-width="0.9396" stroke-miterlimit="10" d="M0.5,850.7h18.9v3.6H0.5V850.7z"/>
		<path fill="none" stroke="#A6A7A7" stroke-width="0.9174" stroke-miterlimit="10" d="M14.1,862.2H2.3c-1,0-1.8-0.8-1.8-1.9v-10
			c0-1,0.8-1.9,1.8-1.9h15.4c1,0,1.8,0.8,1.8,1.9v5.3"/>
	</g>
	<g>
		<path fill="#008CFF" d="M14,882.3c0-0.2-0.1-0.5-0.1-0.8c0-2.9,2.2-5.2,5.1-5.5c0.2,0,0.3,0,0.5,0l0,0c0.2,0,0.3,0,0.5,0v-5.2
			c0-1.3-1-2.4-2.3-2.4H2.3c-1.3,0-2.3,1.1-2.3,2.4v10c0,1.3,1,2.4,2.3,2.4h11.8V883c0-0.1,0-0.1-0.1-0.2
			C14,882.6,14,882.4,14,882.3z M2.3,877v-0.9h5.9v0.9H2.3z M5.9,878.3v0.9H2.3v-0.9H5.9z M1,871.7h10.7l-1.2,1.9l0.8,0.5l1.6-2.5
			h1.2l-1.2,1.9l0.8,0.5l1.6-2.5H19v2.6H1V871.7z"/>
		<path fill="#008CFF" d="M19.5,877c-2.5,0-4.5,2-4.5,4.5s2,4.5,4.5,4.5s4.5-2,4.5-4.5S21.9,877,19.5,877z M20.5,883.2l-1.5-1.5
			v-2.4h0.9v2l1.2,1.2L20.5,883.2z"/>
	</g>
</g>
<path fill="#008CFF" d="M12,80C5.4,80,0,85.3,0,92c0,6.6,5.4,12,12,12s12-5.4,12-12C24,85.3,18.6,80,12,80z M11.5,84.5h1v9.6h-1
	V84.5z M12.5,98.1h-1l-5-5.6l0.8-0.7l4.7,5.3l0,0l4.7-5.3l0.8,0.7L12.5,98.1z"/>
<g>
	<path fill-rule="evenodd" clip-rule="evenodd" fill="#BDBDBD" d="M8,908.8c0.6,0,1,0.4,1,1c0,0.6-0.4,1-1,1s-1-0.4-1-1
		C7,909.2,7.4,908.8,8,908.8z"/>
	<path fill-rule="evenodd" clip-rule="evenodd" fill="none" stroke="#BDBDBD" stroke-miterlimit="10" d="M6,892.8h4"/>
	<path fill-rule="evenodd" clip-rule="evenodd" fill="none" stroke="#BDBDBD" stroke-miterlimit="10" d="M1,905.7h14"/>
	<g>
		<path fill="#BDBDBD" d="M14,890.7c0.6,0,1,0.4,1,1v20c0,0.6-0.4,1-1,1H2c-0.6,0-1-0.4-1-1v-20c0-0.6,0.4-1,1-1H14 M14,889.7H2
			c-1.1,0-2,0.9-2,2v20c0,1.1,0.9,2,2,2h12c1.1,0,2-0.9,2-2v-20C16,890.6,15.1,889.7,14,889.7L14,889.7z"/>
	</g>
</g>
</svg>
