<?xml version="1.0" encoding="utf-8"?>
<!-- Generator: Adobe Illustrator 17.0.0, SVG Export Plug-In . SVG Version: 6.00 Build 0)  -->
<!DOCTYPE svg PUBLIC "-//W3C//DTD SVG 1.1//EN" "http://www.w3.org/Graphics/SVG/1.1/DTD/svg11.dtd">
<svg version="1.1" id="图层_1" xmlns="http://www.w3.org/2000/svg" xmlns:xlink="http://www.w3.org/1999/xlink" x="0px" y="0px"
	 width="24px" height="262.658px" viewBox="0 0 24 262.658" enable-background="new 0 0 24 262.658" xml:space="preserve">
<g>
	<g>
		<g>
			<path fill="#DBDCDC" d="M22.571,1.263H4.474c-0.838,0-1.674,0.682-1.869,1.521l-2.79,11.974
				c-0.195,0.836,0.325,1.519,1.161,1.519h18.096c0.838,0,1.675-0.682,1.871-1.519l2.789-11.974
				C23.928,1.945,23.407,1.263,22.571,1.263z"/>
		</g>
	</g>
	<g>
		<path fill="#DE3232" d="M5.144,1.946h5.443c0.761,0,1.233,0.622,1.056,1.384L9.107,14.21c-0.178,0.76-0.939,1.38-1.699,1.38H1.964
			c-0.76,0-1.232-0.62-1.055-1.38L3.444,3.33C3.621,2.567,4.382,1.946,5.144,1.946L5.144,1.946L5.144,1.946z"/>
		<path fill="#004888" d="M10.135,1.946h6.259c0.759,0,0.418,0.622,0.239,1.384l-2.535,10.88c-0.178,0.76-0.121,1.38-0.883,1.38
			h-6.26c-0.762,0-1.233-0.62-1.054-1.38L8.435,3.33C8.614,2.567,9.374,1.946,10.135,1.946L10.135,1.946L10.135,1.946z"/>
		<path fill="#008089" d="M16.147,1.946h5.442c0.76,0,1.235,0.622,1.055,1.384l-2.535,10.88c-0.178,0.76-0.938,1.38-1.7,1.38h-5.441
			c-0.762,0-1.234-0.62-1.055-1.38l2.533-10.88C14.625,2.567,15.385,1.946,16.147,1.946L16.147,1.946L16.147,1.946z"/>
		<path fill="#FFFFFF" d="M15.237,12.182h0.513l0.148-0.492h-0.512L15.237,12.182L15.237,12.182z M15.647,10.821l-0.175,0.583
			c0,0,0.195-0.1,0.299-0.131c0.104-0.024,0.265-0.044,0.265-0.044l0.125-0.408L15.647,10.821L15.647,10.821z M15.903,9.981
			l-0.171,0.561c0,0,0.19-0.085,0.295-0.114c0.106-0.027,0.264-0.038,0.264-0.038l0.123-0.409L15.903,9.981L15.903,9.981z
			 M17.037,9.981l-0.663,2.195h0.178l-0.138,0.453h-0.178l-0.042,0.142h-0.631l0.043-0.142h-1.284l0.13-0.419h0.13l0.672-2.229
			l0.134-0.45h0.644l-0.068,0.227c0,0,0.172-0.124,0.335-0.166c0.161-0.042,1.096-0.058,1.096-0.058l-0.139,0.447H17.037
			L17.037,9.981z"/>
		<path fill="#FFFFFF" d="M17.322,9.534h0.688l0.007,0.256c-0.003,0.043,0.034,0.063,0.114,0.063h0.14l-0.129,0.424H17.77
			c-0.322,0.024-0.443-0.114-0.435-0.27L17.322,9.534L17.322,9.534z"/>
		<path fill="#FFFFFF" d="M17.412,11.54h-0.654l0.112-0.377h0.749l0.108-0.343h-0.741l0.128-0.425h2.058l-0.13,0.425h-0.69
			l-0.108,0.343h0.692l-0.114,0.377h-0.749l-0.134,0.16h0.304l0.074,0.474c0.008,0.047,0.01,0.078,0.024,0.098
			c0.016,0.017,0.106,0.026,0.16,0.026h0.091l-0.14,0.461h-0.233c-0.037,0-0.09-0.002-0.163-0.007
			c-0.071-0.005-0.12-0.047-0.168-0.07c-0.042-0.021-0.106-0.073-0.121-0.161l-0.073-0.473l-0.34,0.466
			c-0.108,0.147-0.255,0.26-0.503,0.26h-0.476l0.125-0.412h0.182c0.053,0,0.1-0.022,0.133-0.038
			c0.036-0.016,0.067-0.033,0.102-0.085L17.412,11.54L17.412,11.54z"/>
		<path fill="#FFFFFF" d="M10.236,10.51h1.735l-0.128,0.414h-0.694l-0.108,0.353h0.71l-0.13,0.428h-0.709l-0.172,0.573
			c-0.02,0.063,0.168,0.074,0.236,0.074l0.355-0.05l-0.142,0.473h-0.8c-0.065,0-0.113-0.01-0.182-0.025
			c-0.067-0.016-0.096-0.047-0.128-0.093c-0.029-0.047-0.074-0.086-0.043-0.185l0.23-0.76H9.872l0.13-0.434h0.396l0.105-0.353H10.11
			L10.236,10.51L10.236,10.51z"/>
		<path fill="#FFFFFF" d="M11.404,9.766h0.712l-0.131,0.433h-0.972l-0.106,0.09c-0.044,0.045-0.061,0.026-0.12,0.058
			c-0.055,0.027-0.17,0.082-0.321,0.082h-0.311l0.126-0.416h0.094c0.08,0,0.134-0.007,0.16-0.025
			c0.031-0.019,0.066-0.063,0.105-0.135l0.178-0.324h0.709L11.404,9.766L11.404,9.766z"/>
		<path fill="#FFFFFF" d="M12.769,10.477c0,0,0.194-0.177,0.527-0.234c0.075-0.016,0.549-0.011,0.549-0.011l0.072-0.238h-1.002
			L12.769,10.477L12.769,10.477z M13.708,10.659h-0.994l-0.061,0.2h0.86c0.102-0.013,0.123,0.003,0.131-0.003L13.708,10.659
			L13.708,10.659z M12.421,9.534h0.606l-0.088,0.305c0,0,0.191-0.152,0.325-0.207c0.134-0.05,0.436-0.095,0.436-0.095l0.98-0.005
			l-0.334,1.112c-0.056,0.192-0.121,0.314-0.162,0.371c-0.036,0.057-0.081,0.105-0.165,0.152c-0.084,0.044-0.159,0.07-0.229,0.077
			c-0.064,0.005-0.164,0.007-0.301,0.008h-0.946l-0.267,0.881c-0.024,0.088-0.037,0.129-0.02,0.152
			c0.013,0.021,0.046,0.045,0.09,0.045l0.416-0.04l-0.142,0.483h-0.467c-0.148,0-0.256-0.003-0.332-0.01
			c-0.072-0.006-0.147,0-0.197-0.039c-0.044-0.039-0.11-0.088-0.108-0.14c0.005-0.048,0.025-0.127,0.055-0.235L12.421,9.534
			L12.421,9.534z"/>
		<path fill="#FFFFFF" d="M14.189,11.331l-0.056,0.268c-0.024,0.083-0.045,0.146-0.108,0.2c-0.066,0.056-0.144,0.115-0.326,0.115
			l-0.336,0.013l-0.002,0.302c-0.005,0.087,0.018,0.077,0.032,0.091c0.015,0.015,0.029,0.022,0.044,0.027l0.106-0.005l0.321-0.018
			l-0.131,0.44h-0.37c-0.259,0-0.45-0.006-0.513-0.056c-0.062-0.039-0.071-0.089-0.069-0.172l0.024-1.179h0.589l-0.009,0.242h0.142
			c0.048,0,0.08-0.005,0.101-0.019c0.016-0.013,0.03-0.032,0.039-0.062l0.058-0.187L14.189,11.331L14.189,11.331z"/>
		<path fill="#FFFFFF" d="M5.788,5.423C5.767,5.518,5.389,7.262,5.387,7.262c-0.081,0.353-0.14,0.605-0.34,0.766
			C4.931,8.122,4.799,8.169,4.645,8.169c-0.247,0-0.393-0.124-0.417-0.359L4.224,7.731c0,0,0.074-0.473,0.076-0.475
			c0,0,0.396-1.589,0.467-1.799C4.768,5.445,4.77,5.441,4.772,5.435c-0.773,0.007-0.91,0-0.919-0.012
			C3.849,5.438,3.829,5.538,3.829,5.538L3.425,7.327L3.389,7.48L3.323,7.976c0,0.146,0.028,0.267,0.086,0.368
			C3.595,8.667,4.12,8.715,4.417,8.715c0.385,0,0.743-0.081,0.985-0.229C5.824,8.237,5.936,7.846,6.033,7.5l0.046-0.177
			c0,0,0.409-1.651,0.479-1.865C6.56,5.445,6.561,5.441,6.564,5.435C6.005,5.441,5.841,5.435,5.788,5.423L5.788,5.423z"/>
		<path fill="#FFFFFF" d="M8.046,8.698C7.772,8.694,7.676,8.694,7.357,8.71L7.344,8.687C7.373,8.565,7.403,8.445,7.43,8.321
			l0.039-0.166c0.06-0.259,0.117-0.561,0.124-0.653C7.599,7.447,7.618,7.31,7.459,7.31c-0.067,0-0.135,0.032-0.206,0.063
			C7.214,7.512,7.137,7.898,7.1,8.076C7.021,8.448,7.016,8.49,6.981,8.674L6.957,8.699C6.675,8.695,6.578,8.695,6.252,8.711
			L6.237,8.684C6.292,8.463,6.346,8.239,6.398,8.02c0.136-0.6,0.168-0.829,0.207-1.133L6.63,6.869
			c0.316-0.043,0.393-0.053,0.735-0.124l0.028,0.033l-0.051,0.19c0.058-0.034,0.114-0.069,0.173-0.1
			c0.161-0.079,0.341-0.103,0.44-0.103c0.149,0,0.314,0.041,0.382,0.215c0.065,0.155,0.022,0.345-0.064,0.721L8.229,7.893
			C8.142,8.31,8.127,8.387,8.077,8.673L8.046,8.698L8.046,8.698z"/>
		<path fill="#FFFFFF" d="M9.159,8.698C8.994,8.697,8.887,8.694,8.784,8.697C8.681,8.698,8.581,8.703,8.428,8.71L8.419,8.697
			L8.41,8.683c0.041-0.157,0.064-0.213,0.084-0.27C8.515,8.357,8.535,8.3,8.572,8.14C8.62,7.932,8.649,7.784,8.67,7.656
			c0.022-0.125,0.034-0.23,0.051-0.353l0.012-0.01l0.014-0.012c0.164-0.024,0.269-0.038,0.375-0.054
			C9.23,7.211,9.338,7.19,9.508,7.158l0.006,0.015l0.005,0.014c-0.031,0.13-0.063,0.26-0.094,0.392
			C9.393,7.71,9.361,7.84,9.332,7.97c-0.062,0.276-0.086,0.378-0.1,0.452C9.217,8.492,9.214,8.53,9.19,8.673L9.175,8.686
			L9.159,8.698L9.159,8.698z"/>
		<path fill="#FFFFFF" d="M10.901,7.726c-0.014,0.069-0.076,0.334-0.16,0.446c-0.058,0.083-0.128,0.133-0.206,0.133
			c-0.022,0-0.156,0-0.159-0.201c-0.002-0.099,0.018-0.201,0.044-0.311c0.071-0.319,0.157-0.587,0.374-0.587
			C10.966,7.207,10.976,7.405,10.901,7.726L10.901,7.726z M11.618,7.755c0.095-0.421,0.023-0.617-0.072-0.738
			c-0.144-0.182-0.395-0.241-0.656-0.241c-0.157,0-0.531,0.015-0.824,0.287C9.857,7.256,9.76,7.521,9.7,7.773
			C9.642,8.03,9.572,8.495,9.999,8.667c0.133,0.056,0.322,0.071,0.444,0.071c0.313,0,0.634-0.086,0.874-0.342
			C11.504,8.19,11.589,7.883,11.618,7.755L11.618,7.755z"/>
		<path fill="#FFFFFF" d="M18.312,8.726c-0.33-0.002-0.425-0.002-0.732,0.01l-0.02-0.025c0.084-0.315,0.168-0.628,0.241-0.945
			c0.096-0.412,0.117-0.587,0.149-0.828l0.025-0.02c0.328-0.048,0.418-0.06,0.76-0.124l0.012,0.029
			c-0.063,0.258-0.126,0.517-0.185,0.776c-0.125,0.543-0.172,0.819-0.221,1.103L18.312,8.726L18.312,8.726z"/>
		<path fill="#FFFFFF" d="M17.816,7.761c-0.017,0.068-0.078,0.334-0.163,0.445c-0.056,0.079-0.189,0.128-0.266,0.128
			c-0.021,0-0.155,0-0.16-0.198c-0.001-0.097,0.019-0.2,0.044-0.312c0.073-0.311,0.157-0.578,0.375-0.578
			C17.816,7.248,17.888,7.441,17.816,7.761L17.816,7.761z M18.468,7.793c0.097-0.42-0.29-0.038-0.352-0.176
			c-0.094-0.215-0.036-0.653-0.416-0.8c-0.146-0.056-0.489,0.018-0.783,0.287c-0.207,0.192-0.307,0.454-0.365,0.705
			c-0.059,0.254-0.127,0.718,0.297,0.885c0.135,0.056,0.258,0.073,0.38,0.069c0.426-0.025,0.752-0.668,0.993-0.923
			C18.407,7.637,18.44,7.916,18.468,7.793L18.468,7.793z"/>
		<path fill="#FFFFFF" d="M13.488,8.698c-0.274-0.004-0.367-0.004-0.69,0.012l-0.011-0.023c0.027-0.122,0.058-0.242,0.086-0.366
			l0.039-0.166c0.059-0.259,0.117-0.561,0.124-0.653c0.005-0.055,0.024-0.192-0.133-0.192c-0.068,0-0.136,0.032-0.206,0.063
			c-0.039,0.139-0.118,0.525-0.156,0.703c-0.077,0.372-0.082,0.414-0.117,0.598L12.4,8.699c-0.282-0.004-0.38-0.004-0.702,0.012
			l-0.016-0.027c0.055-0.221,0.107-0.445,0.16-0.664c0.135-0.6,0.167-0.829,0.206-1.133l0.025-0.018
			c0.317-0.043,0.393-0.053,0.736-0.124l0.027,0.033l-0.05,0.191c0.056-0.034,0.114-0.069,0.171-0.1
			c0.161-0.079,0.342-0.103,0.44-0.103c0.149,0,0.314,0.041,0.384,0.215c0.065,0.155,0.022,0.345-0.065,0.721l-0.043,0.192
			c-0.089,0.417-0.103,0.494-0.151,0.78L13.488,8.698L13.488,8.698z"/>
		<path fill="#FFFFFF" d="M15.86,5.42c-0.001,0-0.228,0.003-0.228,0.003c-0.592,0.007-0.829,0.004-0.926-0.008
			c-0.009,0.043-0.025,0.12-0.025,0.12S14.47,6.518,14.47,6.519c0,0-0.507,2.09-0.531,2.188c0.515-0.006,0.729-0.006,0.816,0.003
			c0.021-0.098,0.141-0.682,0.143-0.682c0,0,0.102-0.428,0.108-0.443c0,0,0.032-0.044,0.065-0.063h0.047
			c0.446,0,0.949,0,1.344-0.289c0.267-0.2,0.451-0.493,0.533-0.849c0.021-0.088,0.037-0.194,0.037-0.297
			c0-0.137-0.027-0.271-0.107-0.378C16.723,5.427,16.323,5.423,15.86,5.42L15.86,5.42z M16.157,6.443
			c-0.049,0.218-0.189,0.401-0.371,0.49c-0.152,0.076-0.334,0.081-0.524,0.081h-0.123l0.009-0.048c0,0,0.226-0.981,0.226-0.978
			l0.005-0.05l0.005-0.039l0.09,0.01c0,0,0.464,0.041,0.476,0.041C16.134,6.019,16.209,6.204,16.157,6.443L16.157,6.443z"/>
		<path fill="#FFFFFF" d="M21.016,6.792l-0.025-0.029c-0.338,0.068-0.399,0.079-0.711,0.12l-0.022,0.022
			c-0.002,0.004-0.002,0.009-0.004,0.014l-0.002-0.005c-0.232,0.535-0.224,0.419-0.413,0.839c-0.001-0.019-0.001-0.032-0.003-0.051
			L19.79,6.791l-0.03-0.029c-0.353,0.068-0.362,0.079-0.689,0.12l-0.027,0.022c-0.002,0.012-0.003,0.024-0.004,0.036l0.002,0.006
			c0.04,0.209,0.032,0.162,0.072,0.492c0.019,0.161,0.044,0.325,0.063,0.484c0.032,0.267,0.051,0.399,0.09,0.806
			c-0.221,0.364-0.274,0.502-0.484,0.822l0.012,0.031c0.319-0.012,0.393-0.012,0.63-0.012l0.052-0.06
			C19.657,9.127,21.016,6.792,21.016,6.792L21.016,6.792z"/>
		<path fill="#FFFFFF" d="M9.459,7.018c0.18-0.125,0.204-0.3,0.05-0.39C9.356,6.537,9.086,6.565,8.904,6.691
			C8.72,6.816,8.699,6.99,8.853,7.082C9.006,7.172,9.277,7.145,9.459,7.018L9.459,7.018z"/>
		<path fill="#FFFFFF" d="M19.453,9.544l-0.266,0.455c-0.085,0.155-0.24,0.272-0.489,0.272l-0.423-0.007l0.124-0.409h0.082
			c0.043,0,0.074-0.004,0.099-0.016c0.022-0.007,0.037-0.023,0.055-0.047l0.156-0.249L19.453,9.544L19.453,9.544z"/>
	</g>
</g>
<g>
	<path fill="#00A1E8" d="M15.441,31.093c1.645-2.992,2.244-5.834,2.244-5.834h-0.299l0,0h-2.543h-2.692v-2.094h6.582v-0.897h-6.582
		v-3.141H9.159v3.141H3.176v0.897h5.983v2.094H4.073v0.897h10.321c0,0.15,0,0.15-0.15,0.299c0,1.047-0.748,2.543-1.346,3.74
		c-7.629-2.992-9.872-1.197-10.471-0.897c-5.086,3.59-0.299,8.077,0.449,7.928c5.385,1.197,8.825-1.047,11.219-3.889
		c0.149,0.15,0.299,0.15,0.449,0.15c1.645,0.897,9.573,4.637,9.573,4.637v-4.487C22.92,33.636,18.582,32.14,15.441,31.093
		L15.441,31.093z M11.552,32.439c-3.74,4.787-8.227,3.291-8.975,2.992c-1.795-0.449-2.393-3.74-0.15-4.787
		c3.74-1.197,7.03,0.15,9.424,1.346C11.702,32.29,11.552,32.439,11.552,32.439L11.552,32.439z"/>
</g>
<g>
	<path fill="#00CB00" d="M9.022,56.906c-1.436,0.804-1.649-0.451-1.649-0.451l-1.8-4.214c-0.693-2.003,0.6-0.903,0.6-0.903
		s1.109,0.841,1.95,1.354c0.841,0.513,1.8,0.15,1.8,0.15l11.77-5.45c-2.172-2.71-5.759-4.483-9.819-4.483
		c-6.627,0-11.999,4.717-11.999,10.535c0,3.347,1.779,6.326,4.549,8.256l-0.5,2.882c0,0-0.244,0.841,0.601,0.451
		c0.575-0.266,2.042-1.219,2.915-1.799c1.372,0.48,2.867,0.746,4.435,0.746c6.627,0,12-4.717,12-10.535
		c0-1.686-0.453-3.277-1.255-4.69C18.869,51.018,10.146,56.278,9.022,56.906L9.022,56.906z"/>
</g>
<g>
	<path fill="#333333" d="M18.494,80.828c-0.028-3.089,2.611-4.577,2.731-4.651c-1.487-2.093-3.796-2.384-4.619-2.416
		c-1.964-0.19-3.84,1.12-4.834,1.12c-0.998,0-2.533-1.089-4.168-1.058c-2.142,0.031-4.118,1.206-5.223,3.06
		c-2.223,3.74-0.566,9.273,1.605,12.3c1.061,1.484,2.325,3.149,3.988,3.088c1.601-0.058,2.202-1.001,4.135-1.001
		c1.932-0.003,2.477,1.001,4.165,0.97c1.721-0.035,2.813-1.515,3.868-3.002c1.213-1.717,1.715-3.385,1.741-3.47
		C21.848,85.749,18.532,84.523,18.494,80.828L18.494,80.828L18.494,80.828z M14.931,72.171c0.88-1.033,1.475-2.467,1.313-3.898
		c-1.27,0.05-2.812,0.821-3.719,1.85c-0.819,0.914-1.529,2.376-1.334,3.778C12.605,74.007,14.049,73.204,14.931,72.171
		L14.931,72.171L14.931,72.171z"/>
</g>
<g>
	<path fill="#C51F1C" d="M15.85,142.546h-3.273h-2.182v-2.182v-14.182V124h2.182h3.273c4.518,0,8.181,4.152,8.181,9.273
		S20.368,142.546,15.85,142.546L15.85,142.546z M15.85,126.182h-3.273v14.181h3.273c3.314,0,6-3.175,6-7.091
		C21.85,129.357,19.163,126.182,15.85,126.182L15.85,126.182z M1.122,142.546H0.031v-2.182h1.091c2.41,0,4.364-1.954,4.364-4.364
		v-12h2.182v12C7.668,139.615,4.737,142.546,1.122,142.546L1.122,142.546z"/>
</g>
<g>
	<path fill="#00A538" d="M3.08,159.612c0-5.981,4.909-10.866,11.084-11.167c-0.222-0.009-0.446-0.015-0.671-0.015
		c-7.161,0-12.965,5.006-12.965,11.182s5.804,11.182,12.965,11.182c0.225,0,0.449-0.005,0.671-0.015
		C7.989,170.478,3.08,165.593,3.08,159.612z"/>
	<path fill="#00A538" d="M14.644,150.407c-0.226,0-0.45,0.01-0.672,0.024c4.49,0.322,8.04,4.31,8.04,9.185s-3.55,8.864-8.04,9.186
		c0.222,0.014,0.446,0.023,0.672,0.023c5.458,0,9.883-4.124,9.883-9.209C24.527,154.53,20.102,150.407,14.644,150.407z"/>
	<path fill="#00A538" d="M13.79,158.746c0,0-0.502,0.483-0.022,1.118c0.48,0.637,1.016,0.307,1.087,0.262l3.402-2.629
		c0,0,0.559-0.461,0.017-1.18c0,0-2.555-4.357-6.788-1.856l-3.365,1.64c0,0-4.358,1.709-1.926,4.911c0,0,0.48,0.701,1.171,1.141
		c0,0,3.409,2.765,3.879,2.999c0,0,2.806,1.533,4.928-0.716c0,0.001,3.938-4.363,4.271-5.176c0,0,0.156-0.334,0.146-0.671
		c0,0-0.24-0.967-1.437,0.129c0,0-1.765,1.944-2.651,2.803c0,0-1.057,1.368-2.458,0.418c0,0-0.707-0.331-3.284-2.795
		c0,0-1.132-1.025-0.379-1.93c0,0,2.623-2.32,4.113-1.341c0,0,0.668,0.41,1.034,0.721c0,0,0.537,0.411-0.011,0.83L13.79,158.746z"/>
</g>
<g>
	<path fill="#F6211A" d="M11.875,119.523c-5.43,0-9.954-4.525-9.954-10.18c0-3.393,1.584-6.108,3.846-7.918
		c0.679-0.679,0.679-0.679,0.905-1.131c0,0-3.846-1.131-4.298-4.525c0.905,0.226,4.977,2.262,14.026-0.226
		c0.679,0,3.846-0.452,3.62,2.941c-0.679,0.226-2.941,0.226-5.203,1.131c-2.715,1.131-5.882,2.715-8.144,6.108
		c-0.679,1.131-1.131,2.262-1.131,3.62c0,3.62,2.941,6.561,6.334,6.561c3.62,0,6.334-2.941,6.334-6.561
		c0-3.167-2.262-5.882-4.977-6.334c0.226,0,0.226-0.226,0.226-0.226c6.334-1.81,8.144,4.525,8.144,4.525
		c0.226,0.679,0.226,1.357,0.226,2.036C21.829,114.772,17.304,119.523,11.875,119.523L11.875,119.523z M14.816,109.343l-2.941,3.167
		l-2.941-3.167l2.941-3.167L14.816,109.343L14.816,109.343z"/>
</g>
<g>
	<path fill="#BF0008" d="M6.247,208.338c0.059-0.683,0.116-1.334,0.174-2.01c-0.684,0-1.343,0-2.017,0
		c0.015-0.208,0.031-0.391,0.041-0.575c0.008-0.142,0.07-0.192,0.219-0.189c0.547,0.009,1.094,0.004,1.641,0.004
		c0.051,0,0.101,0,0.179,0c0.038-0.389,0.075-0.768,0.114-1.163c0.482,0,0.95-0.006,1.418,0.004
		c0.144,0.003,0.154,0.123,0.142,0.244c-0.028,0.293-0.05,0.588-0.078,0.916c0.095,0,0.169-0.001,0.243,0
		c0.585,0.008,1.171-0.003,1.754,0.032c0.519,0.03,0.727,0.322,0.673,0.844c-0.053,0.518-0.097,1.036-0.141,1.555
		c-0.009,0.102-0.001,0.205-0.001,0.329c0.065,0.003,0.126,0.009,0.188,0.009c0.573,0.001,1.145-0.004,1.718,0.004
		c0.154,0.002,0.223-0.037,0.222-0.201c-0.002-0.166,0.021-0.332,0.036-0.527c-0.321,0-0.631,0-0.957,0
		c0.024-0.257,0.046-0.484,0.068-0.726c1.44,0,2.87,0,4.314,0c-0.021,0.234-0.041,0.462-0.064,0.715c-0.202,0-0.393,0-0.584,0
		c-0.302,0-0.605,0.01-0.907-0.004c-0.18-0.008-0.276,0.028-0.269,0.232c0.006,0.158-0.02,0.318-0.034,0.5c0.579,0,1.136,0,1.726,0
		c-0.021,0.257-0.039,0.488-0.059,0.735c-0.58,0-1.144,0-1.731,0c-0.025,0.228-0.052,0.442-0.071,0.656
		c-0.036,0.41-0.068,0.82-0.099,1.23c-0.022,0.282,0.087,0.405,0.373,0.37c0.445-0.054,0.887-0.135,1.33-0.205
		c0.037,0.347,0.027,0.361-0.298,0.503c-0.67,0.291-1.361,0.508-2.093,0.561c-0.183,0.013-0.374-0.004-0.554-0.043
		c-0.312-0.067-0.457-0.275-0.431-0.613c0.049-0.64,0.113-1.279,0.169-1.919c0.015-0.171,0.025-0.342,0.039-0.528
		c-0.081-0.004-0.143-0.01-0.205-0.01c-1.531-0.001-3.063,0.001-4.594-0.003c-0.141,0-0.213,0.038-0.277,0.17
		c-0.413,0.857-1.059,1.519-1.827,2.053c-0.435,0.302-0.92,0.534-1.39,0.783c-0.127,0.067-0.282,0.082-0.439,0.126
		c-0.021-0.24-0.006-0.414,0.213-0.57c0.839-0.599,1.462-1.384,1.883-2.326c0.021-0.047,0.035-0.097,0.049-0.146
		c0.005-0.017-0.001-0.038-0.004-0.078c-0.62,0-1.24,0-1.888,0c0.023-0.256,0.043-0.488,0.065-0.739
		C4.903,208.338,5.562,208.338,6.247,208.338z M7.838,208.333c0.381,0,0.738,0.003,1.095-0.005c0.033-0.001,0.09-0.07,0.094-0.111
		c0.047-0.505,0.089-1.01,0.126-1.515c0.014-0.195-0.078-0.34-0.271-0.357c-0.284-0.025-0.571-0.006-0.868-0.006
		C7.956,206.996,7.899,207.641,7.838,208.333z"/>
	<path fill="#BF0008" d="M18.948,211.193c-0.701,0.927-0.913,2.266-0.209,3.201c0.403,0.534,0.951,0.82,1.615,0.861
		c1.472,0.091,2.605-0.501,3.412-1.729c0.053-0.08,0.095-0.168,0.139-0.253c0.041-0.08,0.078-0.162,0.125-0.239
		c-0.07,0.417-0.228,0.804-0.464,1.152c-0.875,1.291-2.098,1.973-3.656,1.981c-1.834,0.01-3.204-1.595-2.979-3.415
		c0.116-0.938,0.479-1.753,1.098-2.46c0.072-0.082,0.097-0.15,0.044-0.256c-0.346-0.704-0.503-1.454-0.519-2.234
		c-0.003-0.162-0.057-0.211-0.214-0.203c-0.23,0.012-0.46,0.003-0.701,0.003c0.024-0.253,0.046-0.481,0.071-0.73
		c0.224,0,0.436-0.011,0.646,0.003c0.173,0.012,0.268-0.027,0.258-0.223c-0.005-0.1,0.019-0.201,0.033-0.329
		c-0.305,0-0.591,0-0.892,0c0.02-0.23,0.028-0.435,0.061-0.636c0.008-0.047,0.098-0.111,0.154-0.114
		c0.218-0.013,0.437-0.01,0.656-0.004c0.11,0.003,0.155-0.033,0.178-0.146c0.056-0.283,0.133-0.562,0.196-0.844
		c0.024-0.106,0.076-0.141,0.187-0.139c0.38,0.007,0.759,0.001,1.139,0.004c0.217,0.001,0.26,0.068,0.194,0.274
		c-0.085,0.268-0.165,0.538-0.257,0.84c0.99,0,1.943,0,2.927,0c-0.016,0.248-0.024,0.469-0.053,0.688
		c-0.004,0.032-0.107,0.072-0.164,0.073c-0.534,0.006-1.068,0.003-1.602,0.003c-0.411,0-0.822,0-1.254,0
		c-0.028,0.176-0.055,0.344-0.086,0.537c1.016,0,2.016,0,3.047,0c-0.018,0.252-0.034,0.478-0.053,0.735c-1.006,0-2.011,0-3.028,0
		c-0.048,0.596-0.003,1.153,0.158,1.73c0.097-0.045,0.182-0.082,0.263-0.124c0.704-0.366,1.448-0.574,2.246-0.51
		c0.869,0.069,1.588,0.418,2.039,1.2c0.372,0.645,0.242,1.268-0.351,1.721c-0.454,0.347-0.981,0.503-1.542,0.544
		C20.73,212.235,19.758,211.968,18.948,211.193z M21.833,211.512c0.42,0.016,0.813-0.033,1.181-0.208
		c0.603-0.286,0.714-0.811,0.278-1.315c-0.375-0.433-0.87-0.605-1.425-0.607c-0.789-0.002-1.453,0.326-2.044,0.825
		c-0.223,0.188-0.223,0.19-0.034,0.418C20.326,211.27,21.021,211.548,21.833,211.512z"/>
	<path fill="#BF0008" d="M1.923,212.184c0.09-1.036,0.18-2.062,0.271-3.114c-0.292,0-0.56,0-0.829,0
		c-0.245,0-0.489,0.007-0.734-0.004c-0.37-0.016-0.607-0.247-0.6-0.617c0.007-0.353,0.043-0.706,0.082-1.057
		c0.068-0.612,0.125-1.227,0.226-1.834c0.231-1.395,1.125-2.278,2.517-2.503c0.341-0.055,0.69-0.083,1.036-0.086
		c1.133-0.011,2.265-0.004,3.398-0.004c0.057,0,0.114,0.006,0.179,0.009c0.025,0.169-0.051,0.248-0.203,0.264
		c-0.07,0.008-0.141,0.006-0.212,0.006c-0.927,0-1.853-0.006-2.78,0.004c-0.274,0.003-0.555,0.025-0.821,0.088
		c-0.981,0.234-1.473,0.939-1.683,1.864c-0.116,0.512-0.167,1.039-0.235,1.561c-0.054,0.414-0.088,0.83-0.133,1.245
		c-0.023,0.214,0.057,0.318,0.27,0.328c0.154,0.008,0.31,0.013,0.463-0.004c0.05-0.006,0.125-0.083,0.13-0.133
		c0.086-0.915,0.162-1.83,0.242-2.745c0.03-0.345,0.066-0.689,0.1-1.048c0.425,0,0.835-0.002,1.246,0.001
		c0.139,0.001,0.166,0.097,0.157,0.213c-0.033,0.404-0.064,0.807-0.099,1.211c-0.059,0.698-0.12,1.395-0.181,2.093
		c-0.069,0.787-0.141,1.574-0.21,2.362c-0.046,0.525-0.09,1.05-0.136,1.574c-0.009,0.107-0.025,0.214-0.038,0.325
		C2.867,212.184,2.406,212.184,1.923,212.184z"/>
	<path fill="#BF0008" d="M16.244,206.323c-0.087,0-0.157,0-0.226,0c-1.19,0-2.38,0-3.569,0c-0.52,0-0.651-0.202-0.441-0.674
		c0.162-0.364,0.327-0.727,0.482-1.093c0.046-0.108,0.098-0.157,0.224-0.155c0.475,0.008,0.95,0.003,1.451,0.003
		c-0.117,0.298-0.227,0.577-0.335,0.857c-0.099,0.256-0.066,0.306,0.215,0.307c0.682,0.002,1.363,0.001,2.045,0.001
		c0.069,0,0.138,0,0.227,0C16.29,205.83,16.268,206.068,16.244,206.323z"/>
	<path fill="#BF0008" d="M11.296,211.778c-0.017,0.133-0.032,0.259-0.051,0.407c-0.658-0.02-1.264-0.169-1.754-0.625
		c-0.622-0.579-0.661-1.326-0.566-2.12c0.514,0,1.025,0,1.556,0c-0.017,0.196-0.04,0.391-0.048,0.587
		c-0.01,0.256-0.041,0.518-0.001,0.769c0.066,0.42,0.328,0.716,0.707,0.907C11.19,211.728,11.242,211.752,11.296,211.778z"/>
	<path fill="#BF0008" d="M22.321,203.534c0.446-0.003,0.81,0.354,0.817,0.801c0.007,0.444-0.379,0.835-0.816,0.828
		c-0.432-0.007-0.812-0.389-0.814-0.818C21.506,203.907,21.877,203.536,22.321,203.534z"/>
	<path fill="#707070" d="M6.522,214.512c0.093,0.041,0.13,0.066,0.171,0.075c0.217,0.049,0.376,0.18,0.378,0.398
		c0.002,0.239-0.149,0.425-0.373,0.511c-0.146,0.056-0.31,0.078-0.468,0.088c-0.231,0.014-0.463,0.004-0.694,0.004
		c-0.127,0-0.177-0.041-0.159-0.187c0.047-0.38,0.072-0.763,0.104-1.145c0.015-0.172,0.029-0.344,0.039-0.517
		c0.007-0.119,0.076-0.144,0.181-0.143c0.283,0.004,0.566,0,0.848,0.003c0.255,0.003,0.441,0.126,0.489,0.32
		c0.034,0.138-0.113,0.379-0.295,0.48C6.686,214.43,6.626,214.458,6.522,214.512z M6.058,215.475c0.14-0.04,0.288-0.062,0.417-0.123
		c0.175-0.082,0.245-0.291,0.188-0.478c-0.054-0.176-0.224-0.314-0.407-0.285c-0.492,0.078-0.466-0.002-0.483,0.469
		c-0.001,0.026,0,0.051-0.003,0.077C5.742,215.41,5.78,215.453,6.058,215.475z M5.82,214.536c0.3-0.045,0.563-0.091,0.745-0.321
		c0.123-0.156,0.105-0.339-0.028-0.424c-0.164-0.106-0.58-0.08-0.646,0.042c-0.012,0.022-0.021,0.048-0.023,0.073
		C5.852,214.102,5.838,214.299,5.82,214.536z"/>
	<path fill="#707070" d="M13.576,215.542c-0.003-0.392,0.143-0.77-0.017-1.176c0.107-0.031,0.218-0.062,0.343-0.099
		c0.015,0.079,0.025,0.127,0.04,0.203c0.288-0.15,0.58-0.355,0.812-0.025c0.216-0.057,0.404-0.134,0.597-0.151
		c0.21-0.018,0.354,0.139,0.345,0.349c-0.012,0.274-0.039,0.549-0.077,0.821c-0.007,0.047-0.102,0.114-0.154,0.112
		c-0.046-0.002-0.129-0.087-0.128-0.134c0.004-0.197,0.025-0.395,0.055-0.591c0.04-0.257-0.011-0.401-0.171-0.421
		c-0.262-0.034-0.397,0.093-0.411,0.377c-0.01,0.205-0.023,0.41-0.041,0.614c-0.011,0.122-0.078,0.183-0.208,0.164
		c-0.132-0.019-0.11-0.095-0.097-0.196c0.03-0.228,0.039-0.459,0.053-0.69c0.008-0.123-0.008-0.236-0.157-0.268
		c-0.177-0.039-0.365,0.036-0.393,0.189c-0.046,0.244-0.064,0.494-0.082,0.742C13.87,215.589,13.799,215.635,13.576,215.542z"/>
	<path fill="#707070" d="M1.891,215.594c0.618-0.187,0.939-0.485,0.918-0.914c-0.075,0.023-0.146,0.043-0.216,0.066
		c-0.289,0.096-0.572,0.023-0.719-0.187c-0.123-0.176-0.075-0.528,0.101-0.732c0.252-0.293,0.732-0.362,1.047-0.144
		c0.231,0.16,0.307,0.418,0.266,0.662c-0.109,0.651-0.399,1.079-1.087,1.224C2.101,215.59,1.995,215.586,1.891,215.594z
		 M2.16,214.249c0.02,0.28,0.099,0.409,0.282,0.429c0.224,0.025,0.398-0.105,0.445-0.357c0.022-0.116,0.015-0.24,0.006-0.36
		c-0.011-0.154-0.082-0.273-0.248-0.299c-0.173-0.027-0.308,0.048-0.377,0.202C2.215,213.985,2.195,214.121,2.16,214.249z"/>
	<path fill="#707070" d="M4.636,214.648c-0.079,0.028-0.127,0.041-0.171,0.061c-0.298,0.135-0.615,0.093-0.769-0.104
		c-0.161-0.206-0.145-0.502,0.055-0.763c0.235-0.307,0.874-0.43,1.15-0.062c0.088,0.117,0.163,0.274,0.169,0.416
		c0.03,0.728-0.539,1.472-1.418,1.364C4.181,215.485,4.555,215.247,4.636,214.648z M3.923,214.256
		c0.041,0.263,0.131,0.401,0.307,0.422c0.213,0.026,0.389-0.089,0.435-0.319c0.029-0.147,0.037-0.31,0.002-0.453
		c-0.022-0.092-0.128-0.211-0.215-0.229c-0.099-0.021-0.264,0.023-0.32,0.099C4.03,213.913,3.989,214.094,3.923,214.256z"/>
	<path fill="#707070" d="M12.615,214.287c0.381-0.001,0.655,0.248,0.656,0.598c0.001,0.383-0.336,0.696-0.758,0.705
		c-0.384,0.008-0.715-0.255-0.691-0.586C11.85,214.612,12.086,214.313,12.615,214.287z M12.115,215.018
		c0.033,0.282,0.131,0.435,0.323,0.468c0.217,0.037,0.414-0.094,0.474-0.352c0.034-0.145,0.032-0.302,0.02-0.452
		c-0.013-0.152-0.105-0.263-0.266-0.288c-0.167-0.025-0.317,0.024-0.394,0.178C12.201,214.711,12.165,214.869,12.115,215.018z"/>
	<path fill="#707070" d="M8.922,213.61c-0.013,0.02-0.01,0.011-0.006,0.01c0.126-0.027,0.253-0.052,0.379-0.078
		c0,0.124,0.007,0.248-0.002,0.371c-0.037,0.491-0.075,0.981-0.125,1.471c-0.007,0.071-0.063,0.168-0.123,0.196
		c-0.088,0.04-0.179,0.003-0.17-0.129c0.018-0.262,0.032-0.523,0.053-0.785c0.02-0.261,0.053-0.521,0.065-0.782
		C8.998,213.805,8.954,213.724,8.922,213.61z"/>
	<path fill="#707070" d="M8.183,213.601c0.098-0.028,0.216-0.062,0.382-0.11c-0.018,0.279-0.03,0.518-0.05,0.756
		c-0.034,0.394-0.08,0.788-0.109,1.182c-0.01,0.133-0.076,0.16-0.186,0.159c-0.133-0.001-0.117-0.096-0.11-0.177
		c0.044-0.496,0.096-0.991,0.135-1.487C8.252,213.832,8.211,213.736,8.183,213.601z"/>
	<path fill="#707070" d="M11.588,215.256c-0.124,0.279-0.451,0.393-0.785,0.294c-0.277-0.082-0.423-0.324-0.377-0.629
		c0.065-0.431,0.528-0.733,0.949-0.616c0.037,0.01,0.084,0.014,0.107,0.039c0.056,0.059,0.103,0.126,0.144,0.196
		c0.004,0.007-0.073,0.085-0.09,0.077c-0.064-0.027-0.132-0.065-0.173-0.118c-0.14-0.18-0.388-0.193-0.484,0.015
		c-0.084,0.182-0.134,0.403-0.119,0.601c0.024,0.311,0.292,0.431,0.578,0.296C11.418,215.373,11.489,215.318,11.588,215.256z"/>
	<path fill="#707070" d="M7.371,214.385c0.077-0.025,0.206-0.068,0.384-0.127c-0.021,0.314-0.039,0.583-0.059,0.852
		c-0.007,0.095-0.027,0.19-0.028,0.285c-0.001,0.122-0.037,0.195-0.175,0.194c-0.143-0.001-0.125-0.1-0.12-0.188
		c0.012-0.223,0.035-0.445,0.04-0.668C7.417,214.628,7.389,214.522,7.371,214.385z"/>
	<path fill="#707070" d="M7.628,213.685c0.073,0.099,0.164,0.18,0.15,0.21c-0.036,0.074-0.114,0.155-0.188,0.171
		c-0.045,0.009-0.171-0.111-0.162-0.149C7.446,213.843,7.534,213.786,7.628,213.685z"/>
	<path fill="#707070" d="M10.09,215.441c-0.13,0.069-0.202,0.133-0.277,0.137c-0.051,0.003-0.106-0.08-0.158-0.125
		c0.062-0.052,0.12-0.135,0.189-0.147C9.9,215.296,9.971,215.372,10.09,215.441z"/>
</g>
<g>
	<path fill="#81C8F7" d="M16.145,174.804l-0.01-0.01l-4.202,3.641l0,0l-0.002,0.002l0,0l0,0l0.001,0.001
		c1.655,3.373,4.396,6.114,7.769,7.769l0.01,0.01l3.644-4.205l-0.024-0.024C20.263,180.385,17.749,177.871,16.145,174.804z"/>
	<path fill="#2575E9" d="M7.723,174.794c-1.606,3.076-4.126,5.596-7.202,7.201l-0.018,0.018l3.644,4.205l0.019-0.019
		c3.36-1.653,6.092-4.385,7.745-7.745l0.018-0.018L7.723,174.794z"/>
	<path fill="#81C8F7" d="M11.933,193.997l-0.001-0.001c-1.655-3.373-4.396-6.114-7.769-7.769l-0.01-0.01l-3.644,4.205l0.007,0.007
		c3.082,1.607,5.606,4.131,7.213,7.213l4.202-3.641l0,0L11.933,193.997L11.933,193.997L11.933,193.997z"/>
	<path fill="#2575E9" d="M16.139,197.635c1.606-3.077,4.127-5.598,7.204-7.204l0.01-0.01l-3.644-4.205l-0.019,0.019
		c-3.36,1.653-6.092,4.385-7.745,7.745l-0.018,0.018l4.205,3.644L16.139,197.635z"/>
</g>
<circle fill="#F99400" cx="12" cy="233.241" r="12"/>
<path fill="#FFFFFF" d="M9.549,223.981l-0.255,3.015l-2.659-0.225c0,0-0.194-0.006-0.22,0.299s-0.083,0.978-0.083,0.978
	s-0.039,0.222,0.196,0.232c0.275,0.023,0.998,0.085,0.998,0.085s0.86,0.021,0.707,0.86c-0.058,0.446-0.678,8.14-0.678,8.14
	s0.069,0.878-0.787,0.816l-1.09-0.092c0,0-0.19-0.067-0.226,0.36s-0.074,0.876-0.074,0.876s-0.109,0.319,0.304,0.292
	c0.469,0.04,2.597,0.227,2.597,0.227l-0.197,2.325c0,0-0.068,0.323,0.108,0.296c0.325,0.038,1.416,0.123,1.416,0.123
	s0.229,0.077,0.237-0.26c-0.003-0.205,0.197-2.312,0.197-2.312l1.699,0.154l0.214,0.018l-0.205,2.424c0,0,0.024,0.201,0.19,0.177
	c0.203,0.03,0.998,0.089,0.998,0.089s0.163,0.012,0.168-0.285c0.006-0.194,0.142-2.286,0.142-2.286s0-0.123,0.223-0.094
	c0.223,0.029,2.572,0.033,3.183-0.398c0.204-0.106,1.061-0.536,1.396-1.585c0.072-0.24,0.63-1.752-0.284-3.194
	c0,0-0.523-0.855-2.21-1.408c0,0,0.88-0.09,1.434-0.463c0.248-0.143,1.403-0.825,1.289-2.63c-0.02-0.125-0.155-2.896-3.705-3.011
	c-0.236,0.001-0.175-0.23-0.149-0.546c0.027-0.316,0.234-2.771,0.234-2.771s0.042-0.13-0.282-0.178
	c-0.183-0.015-0.917-0.077-0.917-0.077s-0.183-0.016-0.2,0.301c-0.017,0.317-0.259,3.066-0.259,3.066l-1.946-0.154l0.305-3.124
	c0,0,0.083-0.249-0.273-0.29s-1.273-0.108-1.273-0.108S9.584,223.573,9.549,223.981z"/>
<path fill="#F99400" d="M11.202,228.718l2.666,0.225c0,0,1.729,0.162,1.676,1.611c-0.015,0.449-0.014,2.257-1.911,2.22
	c-0.299-0.01-2.419-0.143-2.503-0.158s-0.458-0.038-0.458-0.038L11,228.7L11.202,228.718z"/>
<path fill="#F99400" d="M10.545,234.083l-0.373,4.416l2.666,0.225c0,0,2.088,0.053,2.453-1.162c0.077-0.324,0.325-1.296,0.054-1.919
	c0,0-0.097-0.855-1.865-1.235C13.113,234.377,10.545,234.083,10.545,234.083z"/>
</svg>
