<?xml version="1.0" encoding="utf-8"?>
<!-- Generator: Adobe Illustrator 17.0.0, SVG Export Plug-In . SVG Version: 6.00 Build 0)  -->
<!DOCTYPE svg PUBLIC "-//W3C//DTD SVG 1.1//EN" "http://www.w3.org/Graphics/SVG/1.1/DTD/svg11.dtd">
<svg version="1.1" id="图层_1" xmlns="http://www.w3.org/2000/svg" xmlns:xlink="http://www.w3.org/1999/xlink" x="0px" y="0px"
	 width="27.233px" height="19.522px" viewBox="0 0 27.233 19.522" enable-background="new 0 0 27.233 19.522" xml:space="preserve">
<rect x="20.833" y="14.304" fill-rule="evenodd" clip-rule="evenodd" fill="none" width="3.6" height="0.87"/>
<rect x="20.933" y="11.696" fill-rule="evenodd" clip-rule="evenodd" fill="none" width="0.9" height="3.478"/>
<path fill-rule="evenodd" clip-rule="evenodd" fill="#4BCAF9" d="M3.233,0.391h18.3c1.657,0,3,1.343,3,3v13.13c0,1.657-1.343,3-3,3
	h-18.3c-1.657,0-3-1.343-3-3V3.391C0.233,1.734,1.577,0.391,3.233,0.391z"/>
<ellipse fill-rule="evenodd" clip-rule="evenodd" fill="#DDF7FF" cx="21.833" cy="14.304" rx="5.4" ry="5.217"/>
<rect x="0.233" y="3.869" fill-rule="evenodd" clip-rule="evenodd" fill="#7B7B7B" width="24.3" height="3.478"/>
<rect x="8.433" y="13.435" fill-rule="evenodd" clip-rule="evenodd" fill="#FFFFFF" width="1.8" height="1.739"/>
<rect x="5.433" y="13.435" fill-rule="evenodd" clip-rule="evenodd" fill="#FFFFFF" width="1.8" height="1.739"/>
<rect x="2.433" y="13.435" fill-rule="evenodd" clip-rule="evenodd" fill="#FFFFFF" width="1.8" height="1.739"/>
<rect x="21.933" y="10.848" fill-rule="evenodd" clip-rule="evenodd" fill="#7D7D7D" width="0.9" height="4.326"/>
<rect x="19.644" y="13.985" fill-rule="evenodd" clip-rule="evenodd" fill="#7D7D7D" width="3.478" height="0.9"/>
</svg>
