<?xml version="1.0" encoding="utf-8"?>
<!-- Generator: Adobe Illustrator 17.0.0, SVG Export Plug-In . SVG Version: 6.00 Build 0)  -->
<!DOCTYPE svg PUBLIC "-//W3C//DTD SVG 1.1//EN" "http://www.w3.org/Graphics/SVG/1.1/DTD/svg11.dtd">
<svg version="1.1" id="图层_1" xmlns="http://www.w3.org/2000/svg" xmlns:xlink="http://www.w3.org/1999/xlink" x="0px" y="0px"
	 width="92px" height="387.488px" viewBox="0 0 92 387.488" enable-background="new 0 0 92 387.488" xml:space="preserve">
<g>
	<path fill-rule="evenodd" clip-rule="evenodd" fill="#27C8E8" d="M39.685,0C61.602,0,79.37,17.768,79.37,39.685
		c0,21.917-17.768,39.685-39.685,39.685S0,61.602,0,39.685C0,17.768,17.768,0,39.685,0z"/>
	<path fill-rule="evenodd" clip-rule="evenodd" fill="#FFFFFF" d="M58.19,42.78L43.463,55.566c-0.898,0.718-2.037,1.15-3.279,1.15
		c-1.231,0-2.361-0.426-3.256-1.133l-14.722-12.77c-0.321-0.366-0.522-0.839-0.522-1.363c0-0.954,0.651-1.75,1.532-1.996
		c0,0,0.212-0.082,0.521-0.082h4.338V26.049c0-1.916,1.455-3.333,3.382-3.333h17.453c1.928,0,3.383,1.417,3.383,3.333v13.324h4.255
		c0.014,0,0.027-0.004,0.041-0.004c0.014,0,0.027,0.004,0.042,0.004h0.049l0.002,0.006c1.112,0.049,2.002,0.954,2.002,2.072
		C58.685,41.959,58.494,42.419,58.19,42.78L58.19,42.78 M44.894,37.05c0.771,0,1.225-0.593,1.225-1.359
		c0-0.766-0.454-1.307-1.225-1.307l-2.969-0.001l3.068-3.055c0.549-0.546,0.549-1.431,0-1.976c-0.549-0.546-1.44-0.546-1.988,0
		l-2.843,2.826l-2.832-2.815c-0.549-0.546-1.439-0.546-1.988,0c-0.549,0.546-0.549,1.431,0,1.976l3.064,3.046l-2.929-0.001
		c-0.771,0-1.225,0.541-1.225,1.307c0,0.766,0.454,1.359,1.225,1.359h3.027v1.666h-3.027c-0.771,0-1.225,0.497-1.225,1.263
		c0,0.767,0.454,1.404,1.225,1.404h3.027v2c0,0.958,0.718,1.667,1.682,1.667c0.964,0,1.681-0.709,1.681-1.667v-2h3.114
		c0.771,0,1.139-0.512,1.139-1.278c0-0.997-0.537-1.389-1.308-1.389h-2.945V37.05H44.894L44.894,37.05 M44.894,37.05"/>
</g>
<g>
	<path fill-rule="evenodd" clip-rule="evenodd" fill="#27C8E8" d="M39.685,82.37c21.918,0,39.685,17.768,39.685,39.685
		c0,21.917-17.768,39.685-39.685,39.685C17.768,161.74,0,143.973,0,122.055C0,100.138,17.768,82.37,39.685,82.37z"/>
	<path fill-rule="evenodd" clip-rule="evenodd" fill="#FFFFFF" d="M40.716,124.126c5.821,0,10.54-4.71,10.54-10.52
		c0-5.81-4.719-10.52-10.54-10.52c-5.821,0-10.541,4.71-10.541,10.52C30.176,119.417,34.895,124.126,40.716,124.126L40.716,124.126z
		 M36.926,113.005c-0.43,0-0.778-0.347-0.778-0.778c0-0.429,0.348-0.776,0.778-0.776h2.435l-2.918-2.304
		c-0.336-0.266-0.394-0.755-0.128-1.091c0.271-0.338,0.76-0.394,1.095-0.127l3.219,2.541l3.412-2.554
		c0.342-0.256,0.83-0.19,1.09,0.156c0.257,0.343,0.187,0.83-0.157,1.087l-3.062,2.292h2.595c0.43,0,0.778,0.347,0.778,0.776
		c0,0.43-0.348,0.778-0.778,0.778h-3.013v2.136h3.013c0.43,0,0.778,0.347,0.778,0.777c0,0.429-0.348,0.776-0.778,0.776h-3.013v2.525
		c0,0.43-0.348,0.777-0.779,0.777c-0.43,0-0.778-0.348-0.778-0.777v-2.525h-3.012c-0.43,0-0.778-0.347-0.778-0.776
		c0-0.43,0.348-0.777,0.778-0.777h3.012v-2.136H36.926L36.926,113.005z M58.414,128.181c-0.685-1.637-2.76-1.625-3.914-1.351
		l-3.465,0.972c-0.113,1.159-0.597,2.194-1.461,3.016c-2.278,2.168-6.703,2.605-9.901,2.605c-1.857,0-3.301-0.147-3.672-0.189
		c-0.621-0.07-1.069-0.631-0.999-1.251c0.069-0.622,0.629-1.076,1.252-0.999c2.46,0.275,9.354,0.484,11.755-1.806
		c0.463-0.44,0.712-0.939,0.779-1.54c-0.686-0.929-1.834-1.321-2.715-1.331H23.647c-0.514,0-0.931,0.434-0.931,0.968v8.624
		c0,0.421,0.262,0.794,0.648,0.922c6.117,2.029,13.486,4.263,18.063,4.263c0.531,0,1.025-0.03,1.475-0.094
		c2.917-0.487,12.484-6.671,14.346-8.256C58.623,131.562,59.081,129.774,58.414,128.181L58.414,128.181z"/>
</g>
<g>
	<path fill-rule="evenodd" clip-rule="evenodd" fill="#27C8E8" d="M39.685,164.74c21.918,0,39.685,17.768,39.685,39.685
		c0,21.917-17.768,39.685-39.685,39.685C17.768,244.11,0,226.343,0,204.425C0,182.508,17.768,164.74,39.685,164.74z"/>
	<path fill-rule="evenodd" clip-rule="evenodd" fill="#FFFFFF" d="M50.514,185.456H29.03c-2.362,0-4.283,1.843-4.283,4.109v28.783
		c0,2.266,1.921,4.109,4.283,4.109h21.435c2.362,0,4.283-1.843,4.283-4.109v-28.783c0-2.266-1.92-4.109-4.283-4.109H50.514z
		 M39.759,220.995c-1.192,0-2.141-0.911-2.141-2.054s0.949-2.054,2.141-2.054c1.192,0,2.141,0.911,2.141,2.054
		S40.929,220.995,39.759,220.995L39.759,220.995z M52.748,215.456l-25.997,0.004v-25.125c0-1.462,1.464-2.879,2.997-2.879
		l20.266-0.006c1.505,0,2.744,1.173,2.744,2.644v24.932h-0.022L52.748,215.456z"/>
	<path fill-rule="evenodd" clip-rule="evenodd" fill="#FFFFFF" d="M46.748,193.456l-4.208-0.079l-3.09,3.558l-3.09-3.558
		l-3.612,0.079l5,7l-4.989-0.012v2.014l4.989-0.002v2l-4.988-0.013v2.014l4.988-0.001v5l2.989-0.01l0.011-4.99l5.986-0.007v-1.986
		l-5.986-0.007v-2l5.986,0.002v-2.014l-5.986,0.012l5-7H46.748z"/>
</g>
<g>
	<path fill-rule="evenodd" clip-rule="evenodd" fill="#27C8E8" d="M39.685,247.11c21.917,0,39.685,17.768,39.685,39.685
		c0,21.917-17.768,39.685-39.685,39.685C17.768,326.48,0,308.713,0,286.795C0,264.878,17.768,247.11,39.685,247.11z"/>
	<path fill-rule="evenodd" clip-rule="evenodd" fill="#FFFFFF" d="M39.279,267.826c0,0-15.5,15.702-15.5,24.348
		c0,7.671,6.388,13.653,15.5,13.653c9.112,0,15.5-5.984,15.5-13.653C54.779,283.529,39.279,267.826,39.279,267.826L39.279,267.826z
		 M37.844,298.845l1.434-6.981h-7.174l9.326-11.17l-1.434,6.981h7.174L37.844,298.845"/>
</g>
<g>
	<path fill="#27C8E8" d="M18.216,347.48v-7.239h-3.918c-0.131-3.522,1.436-6.194,4.701-8.022v-2.739
		c-5.484,2.088-8.227,5.937-8.227,11.543v6.456H18.216z M7.443,347.48v-7.239H3.33c-0.132-3.39,1.5-6.065,4.897-8.022v-2.739
		C2.742,331.568,0,335.417,0,341.024v6.456H7.443z"/>
</g>
<g>
	<g>
		<path fill-rule="evenodd" clip-rule="evenodd" fill="#27C8E8" d="M8.5,353.074c3.262,0,5.906,2.645,5.906,5.906
			c0,3.262-2.644,5.906-5.906,5.906c-3.262,0-5.906-2.645-5.906-5.906C2.594,355.718,5.238,353.074,8.5,353.074z"/>
	</g>
	<g>
		<path fill="#27C8E8" d="M8.5,367.48c-4.687,0-8.5-3.813-8.5-8.5s3.813-8.5,8.5-8.5c4.687,0,8.5,3.813,8.5,8.5
			S13.187,367.48,8.5,367.48z M8.5,351.48c-4.136,0-7.5,3.364-7.5,7.5s3.365,7.5,7.5,7.5c4.135,0,7.5-3.364,7.5-7.5
			S12.636,351.48,8.5,351.48z"/>
	</g>
</g>
<g>
	<path fill="#999999" d="M8.477,387.488c-4.687,0-8.5-3.813-8.5-8.5c0-4.687,3.813-8.5,8.5-8.5s8.5,3.813,8.5,8.5
		C16.977,383.675,13.164,387.488,8.477,387.488z M8.477,371.488c-4.136,0-7.5,3.364-7.5,7.5c0,4.136,3.364,7.5,7.5,7.5
		s7.5-3.365,7.5-7.5C15.977,374.852,12.612,371.488,8.477,371.488z"/>
</g>
</svg>
