<?xml version="1.0" encoding="utf-8"?>
<!-- Generator: Adobe Illustrator 17.0.0, SVG Export Plug-In . SVG Version: 6.00 Build 0)  -->
<!DOCTYPE svg PUBLIC "-//W3C//DTD SVG 1.1//EN" "http://www.w3.org/Graphics/SVG/1.1/DTD/svg11.dtd">
<svg version="1.1" id="图层_1" xmlns="http://www.w3.org/2000/svg" xmlns:xlink="http://www.w3.org/1999/xlink" x="0px" y="0px"
	 width="346px" height="120px" viewBox="0 0 346 120" enable-background="new 0 0 346 120" xml:space="preserve">
<g>
	<path fill="#666666" d="M322.7,12c1.3,0,2.5,0.2,3.7,0.7l-3.7,7.8c-0.8-1.9-2.5-6.1-3.3-8C320.4,12.2,321.5,12,322.7,12 M322.7,11
		c-1.4,0-2.8,0.3-4.1,0.8c-0.3,0.1-0.4,0.4-0.3,0.7c0.9,2.1,3.9,9.5,3.9,9.5c0.1,0.2,0.3,0.3,0.5,0.3c0,0,0,0,0,0
		c0.2,0,0.4-0.1,0.5-0.3l4.4-9.2c0.1-0.3,0-0.6-0.2-0.7C325.8,11.4,324.3,11,322.7,11L322.7,11z"/>
</g>
<g>
	<path fill="#666666" d="M329.8,15.4c3.2,1.7,5.2,5,5.2,8.6c0,1.3-0.3,2.7-0.8,3.9l-8.3-4.1L329.8,15.4 M329.6,14.2
		c-0.1,0-0.1,0-0.2,0c-0.1,0-0.2,0.1-0.3,0.3l-4.4,9.2c-0.1,0.3,0,0.6,0.2,0.7l9.2,4.6c0.1,0,0.2,0.1,0.2,0.1c0.2,0,0.4-0.1,0.5-0.3
		c0.8-1.5,1.2-3.1,1.2-4.8c0-4.1-2.4-7.9-6.2-9.7C329.7,14.2,329.6,14.2,329.6,14.2L329.6,14.2z"/>
</g>
<g>
	<path fill="#666666" d="M316.7,16.5c0.6,1.4,1.6,4,2.5,6l1.2,2.8l0.1,0.3l0.3,0.2l8.6,4.3c-1.7,3.1-5,4.9-8.5,4.9
		c-5.4,0-9.8-4.4-9.8-9.7C311,21.5,313.2,18.1,316.7,16.5 M316.9,15.3c-0.1,0-0.1,0-0.2,0c-4.1,1.7-6.7,5.6-6.7,9.9
		c0,5.9,4.9,10.7,10.8,10.7c4.1,0,7.8-2.3,9.6-5.9c0.1-0.1,0.1-0.3,0-0.4c0-0.1-0.1-0.2-0.3-0.3l-9-4.5c-0.5-1.1-3-7.3-3.8-9.3
		c-0.1-0.1-0.2-0.2-0.3-0.3C317,15.3,317,15.3,316.9,15.3L316.9,15.3z"/>
</g>
<g>
	<path fill="#666666" d="M322.6,109.9V92.7l12.8-4.7v15.1L322.6,109.9z M323.6,93.4v14.9l10.8-5.7V89.4L323.6,93.4z M321.4,109.9
		l-12.8-6.8V87.9l12.8,4.7V109.9z M309.6,102.5l10.8,5.7V93.3l-10.8-4V102.5z M322.1,91.6l-13.4-4.9l13.3-4.2l13.4,4.3L322.1,91.6z
		 M311.8,86.7l10.3,3.8l10.2-3.7L322,83.5L311.8,86.7z"/>
</g>
<g>
	<rect x="23.9" y="94.4" transform="matrix(0.8076 0.5898 -0.5898 0.8076 61.8975 4.3033)" fill="#666666" width="1" height="5.2"/>
</g>
<g>
	
		<rect x="18.8" y="96.3" transform="matrix(0.5853 0.8108 -0.8108 0.5853 87.3472 22.8153)" fill="#666666" width="5.2" height="1"/>
</g>
<g>
	<rect x="22.4" y="99.1" fill="#666666" width="1" height="5.9"/>
</g>
<g>
	<rect x="18" y="100.8" fill="#666666" width="9" height="1"/>
</g>
<g>
	<rect x="18" y="98.2" fill="#666666" width="9" height="1"/>
</g>
<g>
	<path fill="#666666" d="M22.4,110.5c-7.2,0-11.9-4.3-11.9-10.9c0-2.5,1.1-4.9,3.1-7.2c0.6-0.6,1.2-1.2,1.8-1.7
		c-0.8-0.7-1.3-1.6-1.3-2.6c0-1.9,1.8-3.5,4-3.5c0.5,0,0.9,0.1,1.4,0.3c0.1,0,0.1,0.1,0.2,0.1c0.2-0.2,0.4-0.4,0.6-0.6
		c1.5-1.3,3.4-1.3,4.9,0c0.2,0.2,0.4,0.4,0.6,0.6c0.1,0,0.1-0.1,0.2-0.1c0.4-0.2,0.9-0.3,1.4-0.3c2.2,0,4,1.6,4,3.5
		c0,1.2-0.7,2.2-1.7,2.9c0.6,0.5,1.2,1,1.7,1.6c2.1,2.2,3.1,4.6,3.1,6.9c0,4.1-1.6,7.2-4.6,9C27.9,109.9,25.3,110.5,22.4,110.5z
		 M18.1,85.8c-1.6,0-3,1.1-3,2.5c0,0.8,0.5,1.6,1.4,2.1l0.7,0.4l-1,0.7c-0.7,0.5-1.4,1.1-1.9,1.8c-1.9,2-2.9,4.2-2.9,6.5
		c0,7.3,5.6,9.9,10.9,9.9c2.7,0,5.1-0.6,7-1.7c2.8-1.7,4.1-4.4,4.1-8.2c0-2.1-1-4.2-2.9-6.2c-0.6-0.6-1.2-1.2-2-1.8l-1-0.8l0.9-0.3
		c1.1-0.4,1.8-1.3,1.8-2.3c0-1.4-1.3-2.5-3-2.5c-0.3,0-0.7,0.1-1,0.2c-0.1,0.1-0.2,0.1-0.3,0.2L26,86.2l-0.2,0
		c-0.2,0-0.4-0.1-0.6-0.3c-0.2-0.3-0.4-0.5-0.6-0.7c-1.1-1-2.5-1-3.6,0c-0.2,0.2-0.4,0.4-0.6,0.7c-0.2,0.2-0.5,0.3-0.6,0.3h-0.1
		l-0.1-0.1c-0.1-0.1-0.2-0.1-0.4-0.2C18.8,85.8,18.5,85.8,18.1,85.8z"/>
</g>
<g>
	<path fill="#666666" d="M27.5,26.5c-1.1,0-2-0.9-2-2s0.9-2,2-2s2,0.9,2,2S28.6,26.5,27.5,26.5z M27.5,23.5c-0.6,0-1,0.4-1,1
		s0.4,1,1,1s1-0.4,1-1S28.1,23.5,27.5,23.5z"/>
</g>
<g>
	<path fill="#666666" d="M26.8,36.5c-0.6,0-1.2-0.4-1.5-1l0,0c0,0-0.2-0.6-0.4-1.2c0-0.1-0.1-0.1-0.1-0.2c0,0,0,0-0.1,0
		c-0.1,0-0.3,0-0.6,0c-0.5,0.1-1.2,0.1-2.3,0.1c-1.2,0-2-0.2-2.4-0.3c-0.2,0-0.3-0.1-0.4-0.1c0,0,0,0.1-0.1,0.2l-0.5,1.3
		c-0.3,0.8-1.2,1.2-2,0.9l-2-0.8c-0.8-0.3-1.2-1.2-0.9-2c0,0,0.4-0.9,0.6-1.5c0.1-0.2,0-0.3-0.2-0.4c-1.6-1.3-3.4-3.3-3.4-5.9
		c0-1.2,0.1-2.2,0.4-3.1c0.1-0.2,0-0.4-0.4-0.8c-0.5-0.5-1.1-1.2-1.1-2.6c0-1.7,1.2-2.8,2.4-2.8c0.9,0,1.7,0.6,2,1.6l0,0
		c2-1.7,4.8-2.6,8-2.6c1.2,0,2.3,0.1,3.4,0.4c0.9-1.8,2.4-2.9,4.5-3.4l1-0.3l-0.5,1c-0.8,1.7-0.9,3.8-0.9,4.6
		c0.2,0.1,0.6,0.1,0.9,0.3c1.4,0.6,2.5,2,3.3,4.2c0,0,0,0.1,0.3,0.1h1c0.8,0,1.5,0.7,1.5,1.5v3c0,0.8-0.7,1.5-1.5,1.5h-1
		c-0.3,0-0.4,0.1-0.6,0.4c-0.7,1.5-1.9,2.8-3.3,3.5c-0.1,0.1-0.2,0.1-0.2,0.2l0,0.2l0.3,0.8c0.3,0.8-0.1,1.7-0.9,2l-2,0.8
		C27.2,36.5,27,36.5,26.8,36.5z M24.8,33.2c0.7,0,0.9,0.4,1.1,0.8c0.2,0.6,0.4,1.1,0.4,1.1c0.1,0.3,0.4,0.5,0.7,0.3l2-0.8
		c0.3-0.1,0.4-0.4,0.3-0.7L29,33.1c0,0-0.2-0.3-0.1-0.8c0.1-0.2,0.2-0.5,0.7-0.8c1.3-0.7,2.2-1.7,2.9-3.1c0.1-0.3,0.5-1,1.5-1h1
		c0.3,0,0.5-0.2,0.5-0.5v-3c0-0.3-0.2-0.5-0.5-0.5h-1c-0.9,0-1.2-0.6-1.3-0.8C32,20.7,31.1,19.5,30,19c-0.5-0.2-1-0.3-1-0.3l-0.4,0
		l0-0.4c0-0.1-0.1-2.3,0.6-4.5c-1.4,0.6-2.4,1.5-3,2.9l-0.2,0.4L25.5,17c-1.1-0.3-2.3-0.4-3.6-0.4c-3.2,0-5.8,0.9-7.7,2.7
		c0,0,0,0,0,0l0.1,0.4l-0.3-0.2c0,0,0,0,0,0c-0.7,0.8-1.4,1.5-2.1,1.3c-1-0.4-1.4-1.3-1.2-2.1c0.1-0.5,0.4-0.9,0.8-1.1
		c-0.6,0.2-1.1,0.8-1.1,1.7c0,1,0.4,1.5,0.9,2c0.4,0.4,0.9,0.9,0.6,1.8c-0.3,0.8-0.4,1.8-0.4,2.9c0,2.2,1.6,4,3,5.1
		c0.3,0.2,0.8,0.7,0.5,1.6c-0.2,0.6-0.6,1.5-0.6,1.5c-0.1,0.3,0,0.6,0.3,0.7l2,0.8c0.3,0.1,0.6,0,0.7-0.3l0.5-1.3
		c0.1-0.3,0.3-0.9,1-0.9c0.2,0,0.4,0,0.6,0.1c0.5,0.1,1.1,0.2,2.2,0.2c1,0,1.7-0.1,2.2-0.1C24.4,33.2,24.6,33.2,24.8,33.2z
		 M12.3,18.4c-0.3,0-0.5,0.2-0.6,0.5c-0.1,0.3,0.1,0.7,0.6,0.9c0.2,0,0.7-0.7,0.9-1c0,0,0,0,0,0l-0.2-0.1
		C12.8,18.5,12.5,18.4,12.3,18.4z M17.1,15.9l-0.2-0.2C16,15,15.6,14,15.6,12.9c0-2.1,1.7-3.8,3.8-3.8s3.8,1.7,3.8,3.8
		c0,0.7-0.2,1.4-0.6,2l-0.1,0.2l-0.5,0c0,0-0.1,0-0.1,0c-1.6,0-3.2,0.2-4.6,0.7L17.1,15.9z M19.4,10.1c-1.6,0-2.8,1.3-2.8,2.8
		c0,0.7,0.3,1.4,0.7,1.9c1.4-0.5,3-0.7,4.7-0.7c0.2-0.4,0.3-0.8,0.3-1.2C22.3,11.4,21,10.1,19.4,10.1z"/>
</g>
<g>
	<path fill="#666666" d="M23,1c12.1,0,22,9.9,22,22c0,12.1-9.9,22-22,22C10.9,45,1,35.1,1,23C1,10.9,10.9,1,23,1 M23,0
		C10.3,0,0,10.3,0,23c0,12.7,10.3,23,23,23c12.7,0,23-10.3,23-23C46,10.3,35.7,0,23,0L23,0z"/>
</g>
<g>
	<path fill="#666666" d="M23,74c12.1,0,22,9.9,22,22s-9.9,22-22,22c-12.1,0-22-9.9-22-22S10.9,74,23,74 M23,73C10.3,73,0,83.3,0,96
		c0,12.7,10.3,23,23,23c12.7,0,23-10.3,23-23C46,83.3,35.7,73,23,73L23,73z"/>
</g>
<g>
	<path fill="#666666" d="M322,1c12.1,0,22,9.9,22,22c0,12.1-9.9,22-22,22c-12.1,0-22-9.9-22-22C300,10.9,309.9,1,322,1 M322,0
		c-12.7,0-23,10.3-23,23c0,12.7,10.3,23,23,23c12.7,0,23-10.3,23-23C345,10.3,334.7,0,322,0L322,0z"/>
</g>
<g>
	<path fill="#666666" d="M322,74c12.1,0,22,9.9,22,22s-9.9,22-22,22c-12.1,0-22-9.9-22-22S309.9,74,322,74 M322,73
		c-12.7,0-23,10.3-23,23c0,12.7,10.3,23,23,23c12.7,0,23-10.3,23-23C345,83.3,334.7,73,322,73L322,73z"/>
</g>
<g>
	<path fill="#666666" d="M298.7,97.5l-0.1-1h0.1V97.5z M296.7,97.5h-2v-1h2V97.5z M292.7,97.5h-2v-1h2V97.5z M288.7,97.5h-2v-1h2
		V97.5z M284.7,97.5h-2v-1h2V97.5z M280.7,97.5h-2v-1h2V97.5z M276.7,97.5h-2v-1h2V97.5z M272.7,97.5h-2v-1h2V97.5z M268.7,97.5h-2
		v-1h2V97.5z M264.7,97.5h-2v-1h2V97.5z M260.6,97.5c-0.8-0.1-1.5-0.3-2.1-0.7l0.6-0.8c0.5,0.3,1.1,0.5,1.6,0.6L260.6,97.5z
		 M257,95.1c-0.3-0.6-0.5-1.4-0.5-2.1l1,0v0c0,0.6,0.1,1.1,0.4,1.6L257,95.1z M257.5,91h-1v-2h1V91z M257.5,87h-1v-2h1V87z
		 M257.5,83h-1v-2h1V83z M257.5,79h-1v-2h1V79z M257.5,75h-1v-2h1V75z M257.5,71h-1v-2h1V71z M257.5,67h-1v-2h1V67z M257.5,63h-1v-2
		h1V63z M257.5,59h-1v-2h1V59z M257.5,55h-1v-2h1V55z M257.5,51h-1v-2h1V51z M257.5,47h-1v-2h1V47z M257.5,43h-1v-2h1V43z M257.5,39
		h-1v-2h1V39z M257.5,35h-1v-2h1V35z M257.5,31h-1v-2h1V31z M257.6,27.1l-1-0.3c0.2-0.7,0.6-1.4,1.1-1.9l0.7,0.7
		C258.1,26,257.8,26.5,257.6,27.1z M259.9,24.7l-0.3-1c0.4-0.1,0.9-0.2,1.4-0.2h0.8v1H261C260.6,24.5,260.3,24.6,259.9,24.7z
		 M297.8,24.5h-2v-1h2V24.5z M293.8,24.5h-2v-1h2V24.5z M289.8,24.5h-2v-1h2V24.5z M285.8,24.5h-2v-1h2V24.5z M281.8,24.5h-2v-1h2
		V24.5z M277.8,24.5h-2v-1h2V24.5z M273.8,24.5h-2v-1h2V24.5z M269.8,24.5h-2v-1h2V24.5z M265.8,24.5h-2v-1h2V24.5z"/>
</g>
<g>
	<path fill="#666666" d="M81.6,97.5h-2v-1h2V97.5z M77.6,97.5h-2v-1h2V97.5z M73.6,97.5h-2v-1h2V97.5z M69.6,97.5h-2v-1h2V97.5z
		 M65.6,97.5h-2v-1h2V97.5z M61.6,97.5h-2v-1h2V97.5z M57.6,97.5h-2v-1h2V97.5z M53.6,97.5h-2v-1h2V97.5z M49.6,97.5h-2v-1h2V97.5z
		 M83.6,97.5l-0.1-1c0.6-0.1,1.1-0.3,1.6-0.7l0.6,0.8C85.1,97.1,84.4,97.3,83.6,97.5z M87.1,94.9l-0.9-0.4c0.2-0.5,0.3-0.9,0.3-1.5
		v-0.3h1V93C87.5,93.7,87.4,94.3,87.1,94.9z M87.5,90.7h-1v-2h1V90.7z M87.5,86.7h-1v-2h1V86.7z M87.5,82.7h-1v-2h1V82.7z
		 M87.5,78.7h-1v-2h1V78.7z M87.5,74.7h-1v-2h1V74.7z M87.5,70.7h-1v-2h1V70.7z M87.5,66.7h-1v-2h1V66.7z M87.5,62.7h-1v-2h1V62.7z
		 M87.5,58.7h-1v-2h1V58.7z M87.5,54.7h-1v-2h1V54.7z M87.5,50.7h-1v-2h1V50.7z M87.5,46.7h-1v-2h1V46.7z M87.5,42.7h-1v-2h1V42.7z
		 M87.5,38.7h-1v-2h1V38.7z M87.5,34.7h-1v-2h1V34.7z M87.5,30.7h-1v-2h1V30.7z M86.3,26.9c-0.2-0.6-0.5-1.1-0.9-1.5l0.7-0.7
		c0.6,0.5,1,1.2,1.2,1.9L86.3,26.9z M83.9,24.6c-0.3-0.1-0.6-0.1-0.9-0.1h-1v-1h1c0.4,0,0.8,0,1.1,0.1L83.9,24.6z M80,24.5h-2v-1h2
		V24.5z M76,24.5h-2v-1h2V24.5z M72,24.5h-2v-1h2V24.5z M68,24.5h-2v-1h2V24.5z M64,24.5h-2v-1h2V24.5z M60,24.5h-2v-1h2V24.5z
		 M56,24.5h-2v-1h2V24.5z M52,24.5h-2v-1h2V24.5z M48,24.5h-2v-1h2V24.5z"/>
</g>
<g>
	<rect x="147" y="48.5" fill="#0099FF" width="20" height="1"/>
</g>
<g>
	<path fill="#0099FF" d="M192,54.5h-6c-0.3,0-0.5-0.2-0.5-0.5V44c0-0.3,0.2-0.5,0.5-0.5h6v1h-5.5v9h5.5V54.5z"/>
</g>
<g>
	<path fill="#0099FF" d="M181,58.5h-4.5c-5.5,0-10-4.5-10-10s4.5-10,10-10h4.5c3,0,5.5,2.5,5.5,5.5v9C186.5,56,184,58.5,181,58.5z
		 M176.5,39.5c-5,0-9,4-9,9s4,9,9,9h4.5c2.5,0,4.5-2,4.5-4.5v-9c0-2.5-2-4.5-4.5-4.5H176.5z"/>
</g>
<g>
	<path fill="#666666" d="M183.2,105.4c-0.2,0.5-0.6,0.8-1,0.8h-20.4c-0.4,0-0.8-0.4-1-0.8H183.2 M184.3,104.4h-24.7v0.4
		c0,1.3,0.9,2.4,2.1,2.4h20.4c1.2,0,2.1-1.1,2.1-2.4V104.4L184.3,104.4z"/>
</g>
<g>
	<path fill="#666666" d="M258.9,109.2l-0.7,0.8H83.8l-0.7-0.8H258.9 M261,108.2H81l2.3,2.8h175.3L261,108.2L261,108.2z"/>
</g>
<g>
	<path fill="#666666" d="M260,105.4v2.7H82v-2.7H260 M261,104.4H81v4.7h180V104.4L261,104.4z"/>
</g>
<g>
	<path fill="#666666" d="M240.7,99.2H103.2V13.1h137.4V99.2z M104.2,98.2h135.4V14.1H104.2V98.2z"/>
</g>
<g>
	<path fill="#666666" d="M239.8,8c2.8,0,5,2.2,5,5v91.3H98.1V13c0-2.8,2.2-5,5-5H239.8 M239.8,7H103.1c-3.3,0-6,2.7-6,6v92.3h148.8
		V13C245.8,9.7,243.2,7,239.8,7L239.8,7z"/>
</g>
<g>
	<path fill-rule="evenodd" clip-rule="evenodd" fill="#FFFFFF" d="M55.6,21.2c1.9,0,3.4,1.5,3.4,3.4c0,1.9-1.5,3.4-3.4,3.4
		c-1.9,0-3.4-1.5-3.4-3.4C52.2,22.7,53.7,21.2,55.6,21.2z"/>
	<path fill="#0099FF" d="M55.6,28.4c-2.1,0-3.9-1.7-3.9-3.9s1.7-3.9,3.9-3.9s3.9,1.7,3.9,3.9S57.7,28.4,55.6,28.4z M55.6,21.7
		c-1.6,0-2.9,1.3-2.9,2.9s1.3,2.9,2.9,2.9s2.9-1.3,2.9-2.9S57.1,21.7,55.6,21.7z"/>
</g>
<g>
	<path fill-rule="evenodd" clip-rule="evenodd" fill="#FFFFFF" d="M55.6,93.4c1.9,0,3.4,1.5,3.4,3.4c0,1.9-1.5,3.4-3.4,3.4
		c-1.9,0-3.4-1.5-3.4-3.4C52.2,94.9,53.7,93.4,55.6,93.4z"/>
	<path fill="#0099FF" d="M55.6,100.6c-2.1,0-3.9-1.7-3.9-3.9s1.7-3.9,3.9-3.9s3.9,1.7,3.9,3.9S57.7,100.6,55.6,100.6z M55.6,93.9
		c-1.6,0-2.9,1.3-2.9,2.9c0,1.6,1.3,2.9,2.9,2.9s2.9-1.3,2.9-2.9C58.4,95.2,57.1,93.9,55.6,93.9z"/>
</g>
<g>
	<path fill-rule="evenodd" clip-rule="evenodd" fill="#FFFFFF" d="M290.6,21.2c1.9,0,3.4,1.5,3.4,3.4c0,1.9-1.5,3.4-3.4,3.4
		c-1.9,0-3.4-1.5-3.4-3.4C287.2,22.7,288.7,21.2,290.6,21.2z"/>
	<path fill="#0099FF" d="M290.6,28.4c-2.1,0-3.9-1.7-3.9-3.9s1.7-3.9,3.9-3.9s3.9,1.7,3.9,3.9S292.7,28.4,290.6,28.4z M290.6,21.7
		c-1.6,0-2.9,1.3-2.9,2.9s1.3,2.9,2.9,2.9s2.9-1.3,2.9-2.9S292.1,21.7,290.6,21.7z"/>
</g>
<g>
	<path fill-rule="evenodd" clip-rule="evenodd" fill="#FFFFFF" d="M290.6,93.4c1.9,0,3.4,1.5,3.4,3.4c0,1.9-1.5,3.4-3.4,3.4
		c-1.9,0-3.4-1.5-3.4-3.4C287.2,94.9,288.7,93.4,290.6,93.4z"/>
	<path fill="#0099FF" d="M290.6,100.6c-2.1,0-3.9-1.7-3.9-3.9s1.7-3.9,3.9-3.9s3.9,1.7,3.9,3.9S292.7,100.6,290.6,100.6z
		 M290.6,93.9c-1.6,0-2.9,1.3-2.9,2.9c0,1.6,1.3,2.9,2.9,2.9s2.9-1.3,2.9-2.9C293.4,95.2,292.1,93.9,290.6,93.9z"/>
</g>
<g>
	<path fill="#333333" d="M165.7,66.6l4.5,11.4h-1.4l-1.2-3.2h-5.2l-1.2,3.2h-1.4l4.5-11.4H165.7z M167.1,73.7L165,68h-0.1l-2.2,5.7
		H167.1z"/>
	<path fill="#333333" d="M176,66.6c2.6,0,3.9,1.1,3.9,3.4c0,2.3-1.3,3.4-4,3.4h-3.3V78h-1.3V66.6H176z M172.6,72.2h3.3
		c0.9,0,1.6-0.2,2-0.6c0.4-0.4,0.7-0.9,0.7-1.7c0-0.8-0.2-1.3-0.7-1.7c-0.4-0.4-1.1-0.6-2-0.6h-3.3V72.2z"/>
	<path fill="#333333" d="M183,66.6V78h-1.3V66.6H183z"/>
</g>
</svg>
