<?xml version="1.0" encoding="utf-8"?>
<!-- Generator: Adobe Illustrator 17.0.0, SVG Export Plug-In . SVG Version: 6.00 Build 0)  -->
<!DOCTYPE svg PUBLIC "-//W3C//DTD SVG 1.1//EN" "http://www.w3.org/Graphics/SVG/1.1/DTD/svg11.dtd">
<svg version="1.1" id="图层_1" xmlns="http://www.w3.org/2000/svg" xmlns:xlink="http://www.w3.org/1999/xlink" x="0px" y="0px"
	 width="672px" height="420px" viewBox="0 0 672 420" enable-background="new 0 0 672 420" xml:space="preserve">
<g>
	<g>
		<g>
			<path fill-rule="evenodd" clip-rule="evenodd" fill="#F5FBFF" d="M336.5,22.5C434.5,22.5,514,102,514,200
				c0,98-79.5,177.5-177.5,177.5C238.5,377.5,159,298,159,200C159,102,238.5,22.5,336.5,22.5z"/>
		</g>
		<g>
			<path fill-rule="evenodd" clip-rule="evenodd" fill="#E5F3FE" d="M337,51.5c82.3,0,149,66.7,149,149c0,82.3-66.7,149-149,149
				s-149-66.7-149-149C188,118.2,254.7,51.5,337,51.5z"/>
		</g>
		<g>
			<path fill-rule="evenodd" clip-rule="evenodd" fill="#FFFFFF" d="M336,75.5c68.5,0,124,55.5,124,124c0,68.5-55.5,124-124,124
				c-68.5,0-124-55.5-124-124C212,131,267.5,75.5,336,75.5z"/>
			<path fill="#666666" d="M336,324c-68.6,0-124.5-55.9-124.5-124.5S267.4,75,336,75s124.5,55.9,124.5,124.5S404.6,324,336,324z
				 M336,76c-68.1,0-123.5,55.4-123.5,123.5c0,68.1,55.4,123.5,123.5,123.5c68.1,0,123.5-55.4,123.5-123.5
				C459.5,131.4,404.1,76,336,76z"/>
		</g>
		<g>
			<path fill-rule="evenodd" clip-rule="evenodd" fill="#D9EEFF" d="M336,91.5c59.6,0,108,48.4,108,108c0,59.6-48.4,108-108,108
				c-59.6,0-108-48.4-108-108C228,139.9,276.4,91.5,336,91.5z"/>
		</g>
	</g>
	<g>
		<g>
			
				<rect x="444" y="54.7" transform="matrix(6.055399e-02 0.9982 -0.9982 6.055399e-02 473.1291 -391.3753)" fill="#666666" width="1" height="2"/>
		</g>
		<g>
			<path fill="#666666" d="M202.7,352.9l0-1c1.3,0,2.7,0,4,0l0,1C205.4,352.9,204.1,352.9,202.7,352.9z M198.7,352.9
				c-1.3,0-2.7,0-4,0l0-1c1.3,0,2.7,0,4,0L198.7,352.9z M210.8,352.8l0-1c1.3,0,2.7-0.1,4-0.1l0,1
				C213.4,352.8,212.1,352.8,210.8,352.8z M190.7,352.7c-1.3,0-2.7-0.1-4-0.1l0-1c1.3,0,2.7,0.1,4,0.1L190.7,352.7z M218.8,352.6
				l0-1c1.3,0,2.7-0.1,4-0.1l0,1C221.4,352.5,220.1,352.6,218.8,352.6z M182.7,352.5c-1.3-0.1-2.7-0.1-4-0.2l0.1-1
				c1.3,0.1,2.7,0.1,4,0.2L182.7,352.5z M226.8,352.3l0-1c1.3-0.1,2.7-0.1,4-0.2l0.1,1C229.4,352.2,228.1,352.2,226.8,352.3z
				 M174.7,352.1c-1.3-0.1-2.7-0.2-4-0.3l0.1-1c1.3,0.1,2.6,0.2,4,0.3L174.7,352.1z M234.7,351.9l-0.1-1c1.3-0.1,2.7-0.2,4-0.3
				l0.1,1C237.4,351.7,236.1,351.8,234.7,351.9z M166.7,351.5c-1.3-0.1-2.7-0.2-4-0.3l0.1-1c1.3,0.1,2.6,0.2,4,0.3L166.7,351.5z
				 M242.7,351.3l-0.1-1c1.3-0.1,2.7-0.2,4-0.3l0.1,1C245.4,351.1,244.1,351.2,242.7,351.3z M158.8,350.8c-1.3-0.1-2.7-0.3-4-0.4
				l0.1-1c1.3,0.2,2.6,0.3,4,0.4L158.8,350.8z M250.7,350.7l-0.1-1c1.3-0.1,2.6-0.2,4-0.4l0.1,1C253.4,350.4,252,350.5,250.7,350.7z
				 M258.7,349.9l-0.1-1c1.3-0.1,2.6-0.3,4-0.4l0.1,1C261.3,349.6,260,349.8,258.7,349.9z M150.8,349.9c-1.3-0.2-2.7-0.3-4-0.5
				l0.1-1c1.3,0.2,2.6,0.4,4,0.5L150.8,349.9z M266.6,349l-0.1-1c1.3-0.2,2.6-0.3,4-0.5l0.1,1C269.3,348.7,268,348.9,266.6,349z
				 M142.9,348.8c-1.3-0.2-2.6-0.4-4-0.6l0.2-1c1.3,0.2,2.6,0.4,3.9,0.6L142.9,348.8z M274.6,348.1l-0.1-1c1.3-0.2,2.6-0.3,4-0.5
				l0.1,1C277.2,347.7,275.9,347.9,274.6,348.1z M135,347.5c-1.3-0.2-2.6-0.5-3.9-0.7l0.2-1c1.3,0.2,2.6,0.5,3.9,0.7L135,347.5z
				 M282.5,347l-0.1-1c1.3-0.2,2.6-0.4,4-0.6l0.1,1C285.2,346.6,283.8,346.8,282.5,347z M127.1,346c-1.3-0.3-2.6-0.6-3.9-0.8l0.2-1
				c1.3,0.3,2.6,0.6,3.9,0.8L127.1,346z M290.4,345.9l-0.1-1c1.3-0.2,2.6-0.4,3.9-0.6l0.2,1C293.1,345.5,291.8,345.7,290.4,345.9z
				 M298.3,344.6l-0.2-1c1.3-0.2,2.6-0.4,3.9-0.7l0.2,1C301,344.2,299.7,344.4,298.3,344.6z M119.3,344.2c-1.3-0.3-2.6-0.6-3.9-1
				l0.2-1c1.3,0.3,2.6,0.6,3.9,1L119.3,344.2z M306.2,343.3l-0.2-1c1.3-0.2,2.6-0.5,3.9-0.7l0.2,1
				C308.9,342.8,307.6,343.1,306.2,343.3z M111.5,342.2c-1.3-0.4-2.6-0.7-3.9-1.1l0.3-1c1.3,0.4,2.5,0.7,3.8,1.1L111.5,342.2z
				 M314.1,341.9l-0.2-1c1.3-0.2,2.6-0.5,3.9-0.7l0.2,1C316.7,341.4,315.4,341.6,314.1,341.9z M322,340.4l-0.2-1
				c1.3-0.3,2.6-0.5,3.9-0.8l0.2,1C324.6,339.8,323.3,340.1,322,340.4z M103.8,340c-1.3-0.4-2.6-0.8-3.8-1.2l0.3-0.9
				c1.2,0.4,2.5,0.8,3.8,1.2L103.8,340z M329.8,338.8l-0.2-1c1.3-0.3,2.6-0.5,3.9-0.8l0.2,1C332.4,338.2,331.1,338.5,329.8,338.8z
				 M96.2,337.4c-1.3-0.5-2.5-0.9-3.8-1.4l0.4-0.9c1.2,0.5,2.5,0.9,3.7,1.4L96.2,337.4z M337.7,337.1l-0.2-1
				c1.3-0.3,2.6-0.6,3.9-0.9l0.2,1C340.3,336.5,339,336.8,337.7,337.1z M345.5,335.3l-0.2-1c1.3-0.3,2.6-0.6,3.9-0.9l0.2,1
				C348.1,334.7,346.8,335,345.5,335.3z M88.8,334.5c-1.2-0.5-2.5-1-3.7-1.6l0.4-0.9c1.2,0.5,2.4,1.1,3.7,1.6L88.8,334.5z
				 M353.2,333.5l-0.2-1c1.3-0.3,2.6-0.6,3.9-0.9l0.2,1C355.8,332.9,354.5,333.2,353.2,333.5z M361,331.6l-0.2-1
				c1.3-0.3,2.6-0.7,3.9-1l0.2,1C363.6,330.9,362.3,331.2,361,331.6z M81.4,331.2c-1.2-0.6-2.4-1.2-3.6-1.8l0.5-0.9
				c1.2,0.6,2.4,1.2,3.6,1.8L81.4,331.2z M368.7,329.6l-0.3-1c1.3-0.3,2.6-0.7,3.9-1l0.3,1C371.3,328.9,370,329.2,368.7,329.6z
				 M74.3,327.5c-1.2-0.7-2.4-1.3-3.5-2l0.5-0.9c1.1,0.7,2.3,1.3,3.4,2L74.3,327.5z M376.5,327.5l-0.3-1c1.3-0.4,2.6-0.7,3.8-1.1
				l0.3,1C379,326.8,377.8,327.1,376.5,327.5z M384.2,325.3l-0.3-1c1.3-0.4,2.6-0.7,3.8-1.1l0.3,1
				C386.7,324.6,385.5,324.9,384.2,325.3z M67.4,323.4c-1.1-0.7-2.2-1.5-3.3-2.3l0.6-0.8c1.1,0.8,2.2,1.5,3.3,2.2L67.4,323.4z
				 M391.8,323l-0.3-1c1.3-0.4,2.6-0.8,3.8-1.2l0.3,1C394.4,322.3,393.1,322.7,391.8,323z M399.5,320.7l-0.3-1
				c1.3-0.4,2.5-0.8,3.8-1.2l0.3,1C402.1,319.9,400.8,320.3,399.5,320.7z M60.9,318.7c-1.1-0.8-2.1-1.7-3.1-2.5l0.7-0.8
				c1,0.8,2,1.7,3.1,2.5L60.9,318.7z M407.1,318.3l-0.3-1c1.3-0.4,2.5-0.8,3.8-1.2l0.3,0.9C409.7,317.5,408.4,317.9,407.1,318.3z
				 M414.7,315.8l-0.3-0.9c1.3-0.4,2.5-0.9,3.8-1.3l0.3,0.9C417.3,314.9,416,315.4,414.7,315.8z M54.8,313.5c-1-0.9-1.9-1.9-2.8-2.8
				l0.7-0.7c0.9,0.9,1.8,1.9,2.8,2.8L54.8,313.5z M422.3,313.2l-0.3-0.9c1.3-0.4,2.5-0.9,3.8-1.3l0.3,0.9
				C424.8,312.3,423.6,312.8,422.3,313.2z M429.9,310.5l-0.3-0.9c1.3-0.5,2.5-0.9,3.8-1.4l0.3,0.9
				C432.4,309.6,431.1,310.1,429.9,310.5z M437.4,307.8l-0.3-0.9c1.3-0.5,2.5-0.9,3.7-1.4l0.4,0.9
				C439.9,306.8,438.6,307.3,437.4,307.8z M49.3,307.6c-0.9-1-1.7-2.1-2.5-3.1l0.8-0.6c0.8,1,1.6,2.1,2.5,3.1L49.3,307.6z
				 M444.9,304.9l-0.4-0.9c1.2-0.5,2.5-1,3.7-1.4l0.4,0.9C447.4,304,446.1,304.5,444.9,304.9z M452.3,302l-0.4-0.9
				c1.2-0.5,2.5-1,3.7-1.5l0.4,0.9C454.8,301,453.6,301.5,452.3,302z M44.5,301.2c-0.7-1.1-1.4-2.3-2.1-3.4l0.9-0.5
				c0.6,1.1,1.3,2.3,2,3.4L44.5,301.2z M459.7,299l-0.4-0.9c1.2-0.5,2.5-1,3.7-1.5l0.4,0.9C462.2,298,461,298.5,459.7,299z
				 M467.1,295.9l-0.4-0.9c1.2-0.5,2.5-1.1,3.7-1.6l0.4,0.9C469.6,294.9,468.3,295.4,467.1,295.9z M40.5,294.2
				c-0.6-1.2-1.1-2.5-1.6-3.7l0.9-0.4c0.5,1.2,1,2.5,1.5,3.6L40.5,294.2z M474.5,292.7l-0.4-0.9c1.2-0.5,2.4-1.1,3.7-1.6l0.4,0.9
				C476.9,291.6,475.7,292.2,474.5,292.7z M481.8,289.4l-0.4-0.9c1.2-0.6,2.4-1.1,3.6-1.7l0.4,0.9
				C484.2,288.3,483,288.9,481.8,289.4z M37.7,286.6c-0.4-1.3-0.7-2.6-1-3.9l1-0.2c0.3,1.3,0.6,2.6,1,3.8L37.7,286.6z M489,286.1
				l-0.4-0.9c1.2-0.6,2.4-1.1,3.6-1.7l0.4,0.9C491.4,284.9,490.2,285.5,489,286.1z M496.2,282.6l-0.4-0.9c1.2-0.6,2.4-1.2,3.6-1.8
				l0.4,0.9C498.6,281.4,497.4,282,496.2,282.6z M503.4,279l-0.5-0.9c1.2-0.6,2.4-1.2,3.6-1.8l0.5,0.9
				C505.8,277.8,504.6,278.4,503.4,279z M36,278.8c-0.2-1.3-0.3-2.7-0.4-4l1-0.1c0.1,1.3,0.2,2.6,0.4,3.9L36,278.8z M510.5,275.4
				l-0.5-0.9c1.2-0.6,2.4-1.2,3.5-1.9l0.5,0.9C512.9,274.1,511.7,274.8,510.5,275.4z M517.6,271.6l-0.5-0.9c1.2-0.6,2.3-1.3,3.5-1.9
				l0.5,0.9C519.9,270.3,518.8,271,517.6,271.6z M35.4,270.7L35.4,270.7c0-0.3,0-0.7,0-1c0-1,0.1-2,0.1-3l1,0.1c-0.1,1-0.1,2-0.1,3
				c0,0.3,0,0.7,0,1L35.4,270.7z M524.6,267.7l-0.5-0.9c1.2-0.7,2.3-1.3,3.5-2l0.5,0.9C526.9,266.4,525.8,267.1,524.6,267.7z
				 M531.5,263.8l-0.5-0.9c1.2-0.7,2.3-1.4,3.4-2l0.5,0.9C533.9,262.4,532.7,263.1,531.5,263.8z M36.9,262.8l-1-0.1
				c0.2-1.3,0.4-2.7,0.6-4l1,0.2C37.3,260.2,37.1,261.5,36.9,262.8z M538.4,259.7l-0.5-0.9c1.1-0.7,2.3-1.4,3.4-2.1l0.5,0.9
				C540.7,258.3,539.6,259,538.4,259.7z M545.2,255.5l-0.5-0.8c1.1-0.7,2.3-1.4,3.4-2.1l0.5,0.8C547.5,254,546.4,254.7,545.2,255.5z
				 M38.4,255l-1-0.2c0.3-1.3,0.7-2.6,1.1-3.9l1,0.3C39.1,252.5,38.7,253.8,38.4,255z M552,251.1l-0.5-0.8c1.1-0.7,2.2-1.5,3.3-2.2
				l0.6,0.8C554.2,249.7,553.1,250.4,552,251.1z M40.7,247.4l-0.9-0.3c0.4-1.2,0.9-2.5,1.4-3.8l0.9,0.4
				C41.6,245,41.1,246.2,40.7,247.4z M558.6,246.7l-0.6-0.8c1.1-0.8,2.2-1.5,3.3-2.3l0.6,0.8C560.8,245.2,559.7,245.9,558.6,246.7z
				 M565.2,242.1l-0.6-0.8c1.1-0.8,2.2-1.6,3.2-2.3l0.6,0.8C567.4,240.5,566.3,241.3,565.2,242.1z M43.7,240.1l-0.9-0.4
				c0.5-1.2,1.1-2.4,1.7-3.6l0.9,0.5C44.8,237.7,44.3,238.9,43.7,240.1z M571.7,237.4l-0.6-0.8c1.1-0.8,2.1-1.6,3.2-2.4l0.6,0.8
				C573.8,235.8,572.7,236.6,571.7,237.4z M47.3,233l-0.9-0.5c0.6-1.2,1.3-2.3,2-3.5l0.9,0.5C48.6,230.7,47.9,231.8,47.3,233z
				 M578,232.5l-0.6-0.8c1.1-0.8,2.1-1.7,3.1-2.5l0.6,0.8C580.1,230.8,579.1,231.7,578,232.5z M584.3,227.5l-0.6-0.8
				c1-0.9,2.1-1.7,3.1-2.6l0.6,0.8C586.3,225.8,585.3,226.6,584.3,227.5z M51.4,226.2l-0.8-0.5c0.7-1.1,1.5-2.2,2.2-3.3l0.8,0.6
				C52.8,223.9,52.1,225.1,51.4,226.2z M590.4,222.3l-0.7-0.8c1-0.9,2-1.8,3-2.6l0.7,0.7C592.4,220.5,591.4,221.4,590.4,222.3z
				 M55.9,219.6l-0.8-0.6c0.8-1.1,1.6-2.1,2.4-3.2l0.8,0.6C57.5,217.5,56.7,218.5,55.9,219.6z M596.3,216.9l-0.7-0.7
				c1-0.9,2-1.8,2.9-2.7l0.7,0.7C598.3,215.1,597.3,216,596.3,216.9z M60.7,213.3l-0.8-0.6c0.8-1,1.7-2.1,2.5-3.1l0.8,0.6
				C62.4,211.2,61.6,212.2,60.7,213.3z M602.1,211.4l-0.7-0.7c1-0.9,1.9-1.9,2.8-2.8l0.7,0.7C604,209.5,603.1,210.4,602.1,211.4z
				 M65.9,207.2l-0.8-0.7c0.9-1,1.8-2,2.7-3l0.7,0.7C67.6,205.2,66.7,206.2,65.9,207.2z M607.7,205.6L607,205c0.9-1,1.8-2,2.7-2.9
				l0.7,0.7C609.6,203.7,608.6,204.7,607.7,205.6z M71.3,201.3l-0.7-0.7c0.9-1,1.8-1.9,2.8-2.9l0.7,0.7
				C73.1,199.4,72.2,200.3,71.3,201.3z M613.1,199.7l-0.8-0.7c0.9-1,1.7-2,2.6-3l0.8,0.6C614.9,197.7,614,198.7,613.1,199.7z
				 M76.9,195.6l-0.7-0.7c0.9-0.9,1.9-1.9,2.9-2.8l0.7,0.7C78.8,193.7,77.8,194.7,76.9,195.6z M618.2,193.5l-0.8-0.6
				c0.8-1.1,1.6-2.1,2.4-3.2l0.8,0.6C619.9,191.4,619.1,192.5,618.2,193.5z M82.7,190.1l-0.7-0.7c1-0.9,2-1.8,3-2.7l0.7,0.7
				C84.6,188.3,83.6,189.2,82.7,190.1z M623.1,187.1l-0.8-0.6c0.8-1.1,1.5-2.2,2.3-3.3l0.8,0.6C624.6,184.9,623.8,186,623.1,187.1z
				 M88.6,184.8L88,184c1-0.9,2-1.7,3-2.6l0.6,0.8C90.6,183.1,89.6,183.9,88.6,184.8z M627.5,180.5l-0.8-0.5
				c0.7-1.1,1.4-2.3,2.1-3.4l0.9,0.5C628.9,178.2,628.2,179.3,627.5,180.5z M94.7,179.7l-0.6-0.8c1-0.8,2.1-1.7,3.1-2.5l0.6,0.8
				C96.8,178,95.8,178.8,94.7,179.7z M101,174.7l-0.6-0.8c1-0.8,2.1-1.6,3.2-2.4l0.6,0.8C103.1,173,102,173.9,101,174.7z
				 M631.6,173.5l-0.9-0.5c0.6-1.2,1.2-2.4,1.8-3.5l0.9,0.4C632.8,171.1,632.2,172.3,631.6,173.5z M107.3,169.8l-0.6-0.8
				c1.1-0.8,2.1-1.6,3.2-2.4l0.6,0.8C109.5,168.3,108.4,169,107.3,169.8z M635.1,166.3l-0.9-0.4c0.5-1.2,1.1-2.4,1.5-3.7l0.9,0.4
				C636.2,163.9,635.7,165.1,635.1,166.3z M113.8,165.1l-0.6-0.8c1.1-0.8,2.2-1.5,3.3-2.3l0.6,0.8
				C116,163.6,114.9,164.4,113.8,165.1z M120.4,160.6l-0.6-0.8c1.1-0.7,2.2-1.5,3.3-2.2l0.6,0.8
				C122.6,159.1,121.5,159.8,120.4,160.6z M638.1,158.9l-0.9-0.3c0.4-1.3,0.8-2.5,1.2-3.8l1,0.3
				C638.9,156.3,638.5,157.6,638.1,158.9z M127,156.2l-0.5-0.8c1.1-0.7,2.2-1.4,3.4-2.2l0.5,0.8C129.2,154.7,128.1,155.4,127,156.2z
				 M133.8,151.9l-0.5-0.8c1.1-0.7,2.3-1.4,3.4-2.1l0.5,0.9C136,150.5,134.9,151.2,133.8,151.9z M640.3,151.1l-1-0.2
				c0.3-1.3,0.6-2.6,0.8-3.9l1,0.2C640.8,148.5,640.6,149.8,640.3,151.1z M140.6,147.7l-0.5-0.9c1.1-0.7,2.3-1.4,3.4-2.1l0.5,0.9
				C142.8,146.3,141.7,147,140.6,147.7z M147.4,143.6l-0.5-0.9c1.1-0.7,2.3-1.3,3.5-2l0.5,0.9C149.7,142.3,148.6,143,147.4,143.6z
				 M641.6,143.2l-1-0.1c0.1-1.3,0.2-2.6,0.3-3.9l1,0C641.9,140.5,641.8,141.9,641.6,143.2z M154.4,139.7l-0.5-0.9
				c1.2-0.6,2.3-1.3,3.5-1.9l0.5,0.9C156.7,138.4,155.5,139,154.4,139.7z M161.4,135.8l-0.5-0.9c1.2-0.6,2.3-1.3,3.5-1.9l0.5,0.9
				C163.7,134.6,162.6,135.2,161.4,135.8z M641,135.2c0-1.3-0.1-2.6-0.2-4l1-0.1c0.1,1.3,0.2,2.7,0.2,4L641,135.2z M640.3,127.3
				c-0.2-1.3-0.5-2.6-0.8-3.9l1-0.2c0.3,1.3,0.6,2.6,0.8,3.9L640.3,127.3z M638.4,119.6c-0.4-1.2-0.9-2.5-1.3-3.7l0.9-0.4
				c0.5,1.2,1,2.5,1.4,3.8L638.4,119.6z M635.4,112.3c-0.6-1.2-1.2-2.3-1.9-3.5l0.9-0.5c0.7,1.2,1.3,2.4,1.9,3.5L635.4,112.3z
				 M631.5,105.5c-0.7-1.1-1.5-2.1-2.3-3.2l0.8-0.6c0.8,1.1,1.6,2.2,2.4,3.3L631.5,105.5z M626.6,99.2c-0.9-1-1.8-2-2.7-2.9l0.7-0.7
				c0.9,1,1.9,2,2.7,2.9L626.6,99.2z M621,93.6c-1-0.9-2-1.8-3-2.6l0.6-0.8c1,0.9,2.1,1.8,3,2.6L621,93.6z M614.9,88.5
				c-1-0.8-2.1-1.6-3.2-2.3l0.6-0.8c1.1,0.8,2.2,1.6,3.3,2.4L614.9,88.5z M608.4,83.9c-1.1-0.7-2.2-1.4-3.4-2.1l0.5-0.9
				c1.2,0.7,2.3,1.4,3.4,2.1L608.4,83.9z M601.6,79.9c-1.2-0.6-2.3-1.2-3.5-1.9l0.5-0.9c1.2,0.6,2.4,1.2,3.6,1.9L601.6,79.9z
				 M594.5,76.3c-1.2-0.6-2.4-1.1-3.6-1.6l0.4-0.9c1.2,0.5,2.5,1.1,3.7,1.7L594.5,76.3z M587.2,73.1c-1.2-0.5-2.5-1-3.7-1.5l0.4-0.9
				c1.3,0.5,2.5,1,3.7,1.5L587.2,73.1z M579.7,70.3c-1.2-0.4-2.5-0.9-3.8-1.3l0.3-0.9c1.3,0.4,2.5,0.9,3.8,1.3L579.7,70.3z
				 M572.1,67.8c-1.3-0.4-2.5-0.8-3.8-1.1l0.3-1c1.3,0.4,2.6,0.8,3.8,1.1L572.1,67.8z M564.5,65.5c-1.3-0.3-2.6-0.7-3.9-1l0.2-1
				c1.3,0.3,2.6,0.7,3.9,1L564.5,65.5z M556.7,63.6c-1.3-0.3-2.6-0.6-3.9-0.9l0.2-1c1.3,0.3,2.6,0.6,3.9,0.9L556.7,63.6z
				 M548.9,61.9c-1.3-0.3-2.6-0.5-3.9-0.8l0.2-1c1.3,0.2,2.6,0.5,3.9,0.8L548.9,61.9z M541.1,60.4c-1.3-0.2-2.6-0.4-3.9-0.7l0.2-1
				c1.3,0.2,2.6,0.4,4,0.7L541.1,60.4z M533.2,59.2c-1.3-0.2-2.6-0.4-4-0.6l0.1-1c1.3,0.2,2.7,0.4,4,0.6L533.2,59.2z M525.3,58.1
				c-1.3-0.2-2.6-0.3-4-0.5l0.1-1c1.3,0.1,2.7,0.3,4,0.5L525.3,58.1z M517.3,57.2c-1.3-0.1-2.6-0.3-4-0.4l0.1-1
				c1.3,0.1,2.7,0.2,4,0.4L517.3,57.2z M509.4,56.5c-1.3-0.1-2.6-0.2-4-0.3l0.1-1c1.3,0.1,2.7,0.2,4,0.3L509.4,56.5z M501.4,56
				c-1.3-0.1-2.7-0.1-4-0.2l0-1c1.3,0.1,2.7,0.1,4,0.2L501.4,56z M449.5,55.9l0-1c1.3-0.1,2.7-0.1,4-0.2l0,1
				C452.2,55.8,450.8,55.8,449.5,55.9z M493.4,55.6c-1.3-0.1-2.7-0.1-4-0.1l0-1c1.3,0,2.7,0.1,4,0.1L493.4,55.6z M457.5,55.6l0-1
				c1.3,0,2.7-0.1,4-0.1l0,1C460.2,55.5,458.8,55.5,457.5,55.6z M485.4,55.4c-1.3,0-2.7-0.1-4-0.1l0-1c1.3,0,2.7,0,4,0.1L485.4,55.4
				z M465.5,55.3l0-1c1.3,0,2.7,0,4-0.1l0,1C468.1,55.3,466.8,55.3,465.5,55.3z M477.5,55.3c-0.8,0-1.5,0-2.3,0l-1.7,0l0-1l1.7,0
				c0.8,0,1.5,0,2.3,0L477.5,55.3z"/>
		</g>
		<g>
			
				<rect x="168.9" y="130" transform="matrix(0.462 0.8869 -0.8869 0.462 207.3305 -79.7644)" fill="#666666" width="1" height="2"/>
		</g>
	</g>
	<g>
		<path fill-rule="evenodd" clip-rule="evenodd" fill="#F5FBFF" d="M630,65.5c23.2,0,42,18.8,42,42c0,23.2-18.8,42-42,42
			c-23.2,0-42-18.8-42-42C588,84.3,606.8,65.5,630,65.5z"/>
	</g>
	<g>
		<path fill-rule="evenodd" clip-rule="evenodd" fill="#F5FBFF" d="M38,238.5c21,0,38,17,38,38c0,21-17,38-38,38s-38-17-38-38
			C0,255.5,17,238.5,38,238.5z"/>
	</g>
	<g>
		<path fill-rule="evenodd" clip-rule="evenodd" fill="#F5FBFF" d="M564,199.5c22.1,0,40,17.9,40,40c0,22.1-17.9,40-40,40
			c-22.1,0-40-17.9-40-40C524,217.4,541.9,199.5,564,199.5z"/>
	</g>
	<g>
		<path fill-rule="evenodd" clip-rule="evenodd" fill="#D9EEFF" d="M123.2,89.2l-5.8-8.7l8.1,6.5l8.4-5.3l-5.9,7.7l5.6,8.8l-8.1-6.5
			l-8.5,5.6L123.2,89.2z"/>
	</g>
	<g>
		<path fill-rule="evenodd" clip-rule="evenodd" fill="#D9EEFF" d="M470.6,402.3l-1.4-10.3l4.5,9.4l9.8-1l-8.7,4.3l1.2,10.3
			l-4.5-9.4l-10.1,1.3L470.6,402.3z"/>
	</g>
	<g>
		<path fill-rule="evenodd" clip-rule="evenodd" fill="#D9EEFF" d="M543.5,114.2l2.2-13.7l2.2,13.7l13.1,2.4l-12.9,2.2l-2.4,13.7
			l-2.2-13.7l-13.5-2.2L543.5,114.2z"/>
	</g>
	<g>
		<path fill-rule="evenodd" clip-rule="evenodd" fill="#D9EEFF" d="M119.1,255.2l6.8-7.9l-4,9.6l7.3,6.7l-9-3.6l-6.9,7.8l4-9.6
			l-7.7-6.7L119.1,255.2z"/>
	</g>
	<g>
		<path fill-rule="evenodd" clip-rule="evenodd" fill="#666666" d="M444.5,16.5h-1v-6h1V16.5z"/>
	</g>
	<g>
		<path fill="#666666" d="M450,20.5c-0.6,0-1,0.4-1,1c0,0.6,0.4,1,1,1s1-0.4,1-1C451,20.9,450.6,20.5,450,20.5L450,20.5z"/>
	</g>
	<g>
		<path fill="#666666" d="M447,20.5c-0.6,0-1,0.4-1,1c0,0.6,0.4,1,1,1c0.6,0,1-0.4,1-1C448,20.9,447.6,20.5,447,20.5L447,20.5z"/>
	</g>
	<g>
		<path fill-rule="evenodd" clip-rule="evenodd" fill="#666666" d="M442,21.5v1h-5v-1H442z"/>
	</g>
	<g>
		<path fill-rule="evenodd" clip-rule="evenodd" fill="#666666" d="M439,19.5h1v5h-1V19.5z"/>
	</g>
	<g>
		<path fill="#666666" d="M449,27h-10c-3,0-5.5-2.5-5.5-5.5S436,16,439,16h10c3,0,5.5,2.5,5.5,5.5S452,27,449,27z M439,17
			c-2.5,0-4.5,2-4.5,4.5s2,4.5,4.5,4.5h10c2.5,0,4.5-2,4.5-4.5s-2-4.5-4.5-4.5H439z"/>
	</g>
	<g>
		<path fill="#666666" d="M444,39c-10.8,0-19.5-8.7-19.5-19.5S433.2,0,444,0s19.5,8.7,19.5,19.5S454.8,39,444,39z M444,1
			c-10.2,0-18.5,8.3-18.5,18.5S433.8,38,444,38s18.5-8.3,18.5-18.5S454.2,1,444,1z"/>
	</g>
	<g>
		<path fill="#666666" d="M553.2,364.5c-1.8,0-3.2-1.4-3.2-3.2s1.4-3.2,3.2-3.2s3.2,1.4,3.2,3.2S555,364.5,553.2,364.5z
			 M553.2,359.1c-1.2,0-2.2,1-2.2,2.2s1,2.2,2.2,2.2s2.2-1,2.2-2.2S554.4,359.1,553.2,359.1z"/>
	</g>
	<g>
		<path fill="#666666" d="M537.4,364.5c-1.7,0-3.2-1.4-3.2-3.2s1.4-3.2,3.2-3.2s3.2,1.4,3.2,3.2S539.2,364.5,537.4,364.5z
			 M537.4,359.1c-1.2,0-2.2,1-2.2,2.2s1,2.2,2.2,2.2s2.2-1,2.2-2.2S538.6,359.1,537.4,359.1z"/>
	</g>
	<g>
		<path fill="#666666" d="M552.3,357.2h-11.8c-2.5,0-4.5-1.8-4.6-4l-3.4-11h19.8c2.5,0,4.6,1.8,4.6,4.1v6.9
			C556.9,355.3,554.9,357.2,552.3,357.2z M533.9,343.1l3.1,10c0,1.7,1.6,3.1,3.6,3.1h11.8c2,0,3.6-1.4,3.6-3.1v-6.9
			c0-1.7-1.6-3.1-3.6-3.1H533.9z"/>
	</g>
	<g>
		<path fill="#666666" d="M542,380c-17.4,0-31.5-14.1-31.5-31.5S524.6,317,542,317s31.5,14.1,31.5,31.5S559.4,380,542,380z M542,318
			c-16.8,0-30.5,13.7-30.5,30.5S525.2,379,542,379s30.5-13.7,30.5-30.5S558.8,318,542,318z"/>
	</g>
	<g>
		<path fill="#666666" d="M113.9,126.2c-2.1,0-3.8-1.7-3.8-3.8s1.7-3.8,3.8-3.8s3.8,1.7,3.8,3.8S116,126.2,113.9,126.2z
			 M113.9,119.5c-1.6,0-2.8,1.3-2.8,2.8s1.3,2.8,2.8,2.8s2.8-1.3,2.8-2.8S115.4,119.5,113.9,119.5z"/>
	</g>
	<g>
		<path fill="#666666" d="M108,135.4c-3.9,0-7-4.5-7-10.1h1c0,5,2.7,9.1,6,9.1s6-4.1,6-9.1h1C115.1,130.9,111.9,135.4,108,135.4z"/>
	</g>
	<g>
		<path fill="#666666" d="M105.1,126.3h-6.7c-1.7,0-3.2-1.4-3.2-3v-7.5c0-1.7,1.4-3,3.2-3v1c-1.2,0-2.2,0.9-2.2,2v7.5
			c0,1.1,1,2,2.2,2h6.7c1.2,0,2.2-0.9,2.2-2v-7.5c0-1.1-1-2-2.2-2v-1c1.7,0,3.2,1.4,3.2,3v7.5C108.3,125,106.9,126.3,105.1,126.3z"
			/>
	</g>
	<g>
		<path fill="#666666" d="M105,143c-11.3,0-20.5-9.2-20.5-20.5S93.7,102,105,102s20.5,9.2,20.5,20.5S116.3,143,105,143z M105,103
			c-10.8,0-19.5,8.7-19.5,19.5S94.2,142,105,142s19.5-8.7,19.5-19.5S115.8,103,105,103z"/>
	</g>
	<g>
		<path fill="#666666" d="M252.5,411c-1.1,0-2-0.9-2-2s0.9-2,2-2s2,0.9,2,2S253.6,411,252.5,411z M252.5,408c-0.6,0-1,0.4-1,1
			s0.4,1,1,1s1-0.4,1-1S253.1,408,252.5,408z"/>
	</g>
	<g>
		<path fill="#666666" d="M245.5,411c-1.1,0-2-0.9-2-2s0.9-2,2-2s2,0.9,2,2S246.6,411,245.5,411z M245.5,408c-0.6,0-1,0.4-1,1
			s0.4,1,1,1s1-0.4,1-1S246.1,408,245.5,408z"/>
	</g>
	<g>
		<path fill="#666666" d="M252.5,408h-7v-23h7V408z M246.5,407h5v-21h-5V407z"/>
	</g>
	<g>
		<path fill="#666666" d="M253.5,385.9h-9v-6.5c0-1.4,1.1-2.5,2.5-2.5h4c1.4,0,2.5,1.1,2.5,2.5V385.9z M245.5,384.9h7v-5.5
			c0-0.8-0.7-1.5-1.5-1.5h-4c-0.8,0-1.5,0.7-1.5,1.5V384.9z"/>
	</g>
	<g>
		<path fill="#666666" d="M253,408h-8c-2.5,0-4.5-2-4.5-4.5v-14c0-2.5,2-4.5,4.5-4.5h8c2.5,0,4.5,2,4.5,4.5v14
			C257.5,406,255.5,408,253,408z M245,386c-1.9,0-3.5,1.6-3.5,3.5v14c0,1.9,1.6,3.5,3.5,3.5h8c1.9,0,3.5-1.6,3.5-3.5v-14
			c0-1.9-1.6-3.5-3.5-3.5H245z"/>
	</g>
	<g>
		<path fill="#666666" d="M249,419c-13.5,0-24.5-11-24.5-24.5s11-24.5,24.5-24.5c13.5,0,24.5,11,24.5,24.5S262.5,419,249,419z
			 M249,371c-13,0-23.5,10.5-23.5,23.5S236,418,249,418c13,0,23.5-10.5,23.5-23.5S262,371,249,371z"/>
	</g>
	<g>
		<path fill-rule="evenodd" clip-rule="evenodd" fill="#FFFFFF" d="M648,116.9c0,0-0.2,2,2.5,2.2c2.5,0.1,2.9-2,3.1-2.5"/>
		<path fill="#666666" d="M650.6,119.6c-0.1,0-0.2,0-0.2,0c-1.1-0.1-1.9-0.4-2.4-1c-0.6-0.8-0.5-1.7-0.5-1.7l1,0.1l-0.5-0.1l0.5,0.1
			c0,0,0,0.5,0.3,1c0.3,0.4,0.9,0.6,1.7,0.6c1.8,0.1,2.3-1.1,2.5-2l0-0.1l1,0.3C653.4,119.1,651.9,119.6,650.6,119.6z"/>
	</g>
	<g>
		<g>
			<path fill-rule="evenodd" clip-rule="evenodd" fill="#FFFFFF" d="M650.7,117.8c-1.7,0-2.9-0.8-2.9-1.5s1.2-1.5,2.9-1.5
				s2.9,0.8,2.9,1.5S652.4,117.8,650.7,117.8z"/>
		</g>
		<g>
			<path fill="#666666" d="M650.7,115.3c1.5,0,2.4,0.7,2.4,1c0,0.4-0.9,1-2.4,1c-1.5,0-2.4-0.7-2.4-1
				C648.2,115.9,649.2,115.3,650.7,115.3 M650.7,114.3c-1.9,0-3.4,0.9-3.4,2c0,1.1,1.5,2,3.4,2c1.9,0,3.4-0.9,3.4-2
				C654.1,115.2,652.5,114.3,650.7,114.3L650.7,114.3z"/>
		</g>
	</g>
	<g>
		<path fill-rule="evenodd" clip-rule="evenodd" fill="#FFFFFF" d="M632.5,88.6L641,81l15.7,16.2L641,111"/>
		<polygon fill="#666666" points="641.4,111.3 640.7,110.6 656,97.1 641,81.7 632.8,89 632.1,88.2 641.1,80.3 657.5,97.2 		"/>
	</g>
	<g>
		<path fill-rule="evenodd" clip-rule="evenodd" fill="#FFFFFF" d="M607.2,89.6h32.3v39h-32.3V89.6z"/>
		<path fill="#666666" d="M640.1,129.1h-33.3v-40h33.3V129.1z M607.8,128.1h31.3v-38h-31.3V128.1z"/>
	</g>
	<g>
		<path fill-rule="evenodd" clip-rule="evenodd" fill="#FFFFFF" d="M643.4,126.2c0,0-0.4,3.1,3.8,3.3c3.9,0.2,4.6-3.2,4.8-3.8"/>
		<path fill="#666666" d="M647.6,130c-0.1,0-0.3,0-0.4,0c-1.6-0.1-2.8-0.6-3.5-1.4c-0.9-1.1-0.8-2.4-0.8-2.4l1,0.1l-0.5-0.1l0.5,0.1
			c0,0-0.1,0.9,0.6,1.7c0.6,0.6,1.5,1,2.8,1.1c3.3,0.2,4-2.4,4.2-3.3l0-0.2l1,0.3l0,0.1C651.7,128.7,650.1,130,647.6,130z"/>
	</g>
	<g>
		<g>
			<path fill-rule="evenodd" clip-rule="evenodd" fill="#FFFFFF" d="M647.5,128.1c-2.4,0-4.5-1.2-4.5-2.6s2.1-2.6,4.5-2.6
				s4.5,1.2,4.5,2.6S649.9,128.1,647.5,128.1z"/>
		</g>
		<g>
			<path fill="#666666" d="M647.5,123.4c2.4,0,4,1.1,4,2.1c0,1-1.6,2.1-4,2.1c-2.4,0-4-1.1-4-2.1
				C643.5,124.5,645.1,123.4,647.5,123.4 M647.5,122.4c-2.8,0-5,1.4-5,3.1c0,1.7,2.2,3.1,5,3.1c2.8,0,5-1.4,5-3.1
				C652.5,123.8,650.2,122.4,647.5,122.4L647.5,122.4z"/>
		</g>
	</g>
	<g>
		
			<rect x="615.7" y="117.4" transform="matrix(0.7052 0.7091 -0.7091 0.7052 267.3777 -401.3152)" fill="#666666" width="1" height="6.8"/>
	</g>
	<g>
		
			<rect x="613.3" y="119.7" transform="matrix(0.7087 0.7055 -0.7055 0.7087 264.4181 -399.8886)" fill="#666666" width="6.2" height="1"/>
	</g>
	<g>
		<rect x="615.8" y="104.2" fill="#666666" width="1" height="6.8"/>
	</g>
	<g>
		<path fill-rule="evenodd" clip-rule="evenodd" fill="#666666" d="M630.2,117.2c0.3,0,0.6,0.3,0.6,0.6v0c0,0.3-0.3,0.6-0.6,0.6
			c-0.3,0-0.6-0.3-0.6-0.6v0C629.7,117.5,629.9,117.2,630.2,117.2z"/>
	</g>
	<g>
		<path fill-rule="evenodd" clip-rule="evenodd" fill="#FFFFFF" d="M22.9,264.3h40v23.3"/>
		<polygon fill="#666666" points="63.3,287.6 62.3,287.6 62.3,264.8 22.9,264.8 22.9,263.8 63.3,263.8 		"/>
	</g>
	<g>
		<path fill-rule="evenodd" clip-rule="evenodd" fill="#666666" d="M630.2,122.3c0.3,0,0.6,0.3,0.6,0.6c0,0.3-0.3,0.6-0.6,0.6
			c-0.3,0-0.6-0.3-0.6-0.6C629.7,122.6,629.9,122.3,630.2,122.3z"/>
	</g>
	<g>
		<rect x="627.1" y="119.6" fill="#666666" width="6.2" height="1"/>
	</g>
	<g>
		<rect x="627.1" y="106.6" fill="#666666" width="6.2" height="1"/>
	</g>
	<g>
		<rect x="612.9" y="106.6" fill="#666666" width="6.2" height="1"/>
	</g>
	<g>
		<path fill="#666666" d="M634.4,100.2h-22.6V93h22.6V100.2z M612.8,99.2h20.6V94h-20.6V99.2z"/>
	</g>
	<g>
		<path fill-rule="evenodd" clip-rule="evenodd" fill="#FFFFFF" d="M17.1,267.7h42.6v26.5H17.4L17.1,267.7z"/>
		<path fill="#666666" d="M60.2,294.8H16.9l-0.3-27.5h43.6V294.8z M17.9,293.8h41.3v-25.5H17.6L17.9,293.8z"/>
	</g>
	<g>
		<path fill="#666666" d="M56.6,292.7H20.8l0.2-0.6c0,0,0.2-0.7-0.1-1.2c-0.2-0.3-0.5-0.4-0.9-0.5l-0.4-0.1v-18.7l0.4-0.1
			c0.2,0,0.8-0.3,1-0.7c0.1-0.2,0-0.5-0.2-0.9l-0.4-0.8h36.2l0,0.5c0,0.2,0.1,1,0.4,1.3c0.2,0.2,0.4,0.2,0.7,0.2l0.6-0.1v19.5
			l-0.5,0c-0.2,0-0.8,0.1-1.1,0.5c-0.2,0.2-0.2,0.5-0.1,0.9L56.6,292.7z M22,291.7h33.4c0-0.4,0.1-0.8,0.4-1.1
			c0.4-0.5,1-0.7,1.4-0.8v-17.5c-0.4-0.1-0.7-0.2-1-0.5c-0.4-0.4-0.6-1.1-0.7-1.5H21.9c0.1,0.4,0.1,0.7-0.1,1.1
			c-0.3,0.6-0.9,1-1.3,1.1v17.1c0.5,0.1,0.9,0.4,1.2,0.8C22,290.8,22,291.3,22,291.7z"/>
	</g>
	<g>
		
			<rect x="39.9" y="274.4" transform="matrix(0.8117 0.5841 -0.5841 0.8117 169.7135 28.6768)" fill="#666666" width="1" height="6.3"/>
	</g>
	<g>
		
			<rect x="33.6" y="276.8" transform="matrix(0.5798 0.8148 -0.8148 0.5798 241.3896 86.563)" fill="#666666" width="6.3" height="1"/>
	</g>
	<g>
		<rect x="38.1" y="280.1" fill="#666666" width="1" height="7.2"/>
	</g>
	<g>
		<rect x="33.1" y="282.3" fill="#666666" width="10.9" height="1"/>
	</g>
	<g>
		<rect x="33.1" y="279.2" fill="#666666" width="10.9" height="1"/>
	</g>
	<g>
		<path fill-rule="evenodd" clip-rule="evenodd" fill="#FFFFFF" d="M568,227.7c0,0,2.5,0.3,4.1,1.4c1.6,1.1,2.5-4,5.9-3.2
			c3.4,0.8,1.4,1.8,1.4,1.8s-1.8,2.9-0.9,4.5c0.9,1.7,4.1,2.8,4.6,6.4h2.3c0,0,2.2,1.7,1.8,3.2v5c0,0-1.3,2.1-2.7,1.8
			c-1.4-0.3-3,8-7.3,9.1v4.1c0,0-0.9,1.1-1.8,0.9h-5.9c0,0-1.4-0.4-1.4-1.4v-1.4h-4.6v1.8c0,0-0.1,1.1-0.9,0.9h-6.8
			c0,0-1.4,0-1.4-0.9c0.1-0.9,0.6-2.8-0.5-4.1c-1-1.3-7-6.2-5.5-15.9"/>
		<path fill="#666666" d="M575.5,263.2c-0.1,0-0.2,0-0.3,0l-5.9,0l-0.1,0c-0.7-0.2-1.8-0.8-1.7-1.9l0-0.8H564v1.3
			c0,0.1-0.1,0.8-0.6,1.2c-0.3,0.2-0.6,0.2-0.9,0.2l-6.7,0c-0.1,0-1.1,0-1.6-0.6c-0.2-0.2-0.3-0.5-0.3-0.9c0-0.2,0-0.4,0.1-0.6
			c0.1-0.9,0.3-2.2-0.4-3.2c-0.1-0.2-0.3-0.4-0.6-0.6c-1.8-1.9-6.4-6.9-5-15.7l1,0.2c-1.3,8.3,2.9,12.9,4.8,14.8
			c0.3,0.3,0.5,0.5,0.6,0.7c1,1.2,0.8,2.8,0.6,3.9c0,0.2,0,0.4-0.1,0.5c0,0.1,0,0.1,0,0.1c0.2,0.2,0.6,0.2,0.8,0.3h6.8
			c0.2,0,0.2,0,0.2,0c0.1-0.1,0.2-0.3,0.2-0.5l0-2.3h5.6v1.9c0,0.5,0.7,0.8,0.9,0.9h5.8c0.5,0.1,1.1-0.3,1.3-0.6v-4.3l0.4-0.1
			c2.4-0.6,3.9-3.8,5-6.1c0.9-1.9,1.5-3.2,2.5-3c0.8,0.2,1.8-0.9,2.1-1.5l0-5c0.2-0.9-0.9-2.1-1.5-2.6h-2.5l-0.1-0.4
			c-0.3-2.2-1.6-3.4-2.9-4.4c-0.7-0.6-1.3-1.1-1.6-1.8c-1.1-1.9,0.8-4.9,0.9-5.1l0.1-0.1l0.1-0.1c0.1-0.1,0.3-0.2,0.3-0.3h0
			c0,0-0.2-0.3-1.6-0.6c-1.6-0.4-2.6,0.8-3.4,1.9c-0.7,0.9-1.6,1.9-2.6,1.2c-1.5-1-3.8-1.3-3.9-1.3l0.1-1c0.1,0,2.7,0.3,4.3,1.5
			c0.3,0.2,0.5,0,1.3-1c0.9-1.2,2.2-2.8,4.4-2.3c1.5,0.4,2.3,0.8,2.4,1.5c0.1,0.6-0.5,1-0.7,1.2c-0.5,0.8-1.4,2.8-0.8,3.9
			c0.3,0.5,0.8,0.9,1.4,1.5c1.2,1,2.7,2.3,3.1,4.6h2l0.1,0.1c0.2,0.2,2.4,1.9,2,3.6v5.1l-0.1,0.1c-0.1,0.1-1.5,2.4-3.3,2
			c-0.3,0.1-0.9,1.4-1.4,2.4c-1.2,2.4-2.7,5.6-5.3,6.6v3.9l-0.1,0.1C577.5,262.1,576.6,263.2,575.5,263.2z"/>
	</g>
	<g>
		<path fill-rule="evenodd" clip-rule="evenodd" fill="#FFFFFF" d="M556,223.2c4.2,0,7.5,3.4,7.5,7.5c0,4.1-3.4,7.5-7.5,7.5
			s-7.5-3.4-7.5-7.5C548.5,226.5,551.8,223.2,556,223.2z"/>
		<path fill="#666666" d="M556,238.6c-4.4,0-8-3.6-8-8s3.6-8,8-8s8,3.6,8,8S560.4,238.6,556,238.6z M556,223.7c-3.9,0-7,3.1-7,7
			s3.1,7,7,7s7-3.1,7-7S559.9,223.7,556,223.7z"/>
	</g>
	<g>
		<path fill-rule="evenodd" clip-rule="evenodd" fill="#FFFFFF" d="M565.8,211.3c2.8,0,5,2.2,5,5c0,2.8-2.2,5-5,5c-2.8,0-5-2.2-5-5
			C560.8,213.6,563,211.3,565.8,211.3z"/>
		<path fill="#666666" d="M565.8,221.8c-3,0-5.5-2.5-5.5-5.5s2.5-5.5,5.5-5.5s5.5,2.5,5.5,5.5S568.8,221.8,565.8,221.8z
			 M565.8,211.8c-2.5,0-4.5,2-4.5,4.5s2,4.5,4.5,4.5s4.5-2,4.5-4.5S568.3,211.8,565.8,211.8z"/>
	</g>
	<g>
		
			<rect x="567.2" y="241.1" transform="matrix(0.8145 0.5801 -0.5801 0.8145 246.8532 -284.11)" fill="#666666" width="1" height="5.9"/>
	</g>
	<g>
		
			<rect x="561.5" y="243.3" transform="matrix(0.5763 0.8173 -0.8173 0.5763 438.382 -357.9851)" fill="#666666" width="5.9" height="1"/>
	</g>
	<g>
		<rect x="565.7" y="246.4" fill="#666666" width="1" height="6.7"/>
	</g>
	<g>
		<rect x="561.2" y="248.4" fill="#666666" width="10" height="1"/>
	</g>
	<g>
		<rect x="561.2" y="245.5" fill="#666666" width="10" height="1"/>
	</g>
	<g>
		
			<rect x="397.3" y="199.8" transform="matrix(0.8088 0.5881 -0.5881 0.8088 195.3914 -195.1376)" fill="#0099FF" width="1" height="6.2"/>
	</g>
	<g>
		
			<rect x="391.2" y="202.2" transform="matrix(0.5833 0.8123 -0.8123 0.5833 328.9461 -235.7837)" fill="#0099FF" width="6.2" height="1"/>
	</g>
	<g>
		<rect x="395.6" y="205.5" fill="#0099FF" width="1" height="7"/>
	</g>
	<g>
		<rect x="390.3" y="207.6" fill="#0099FF" width="10.7" height="1"/>
	</g>
	<g>
		<rect x="390.3" y="204.5" fill="#0099FF" width="10.7" height="1"/>
	</g>
	<g>
		<path fill="#0099FF" d="M378.3,206.6l4.8-16.9l-10.2,1.3l18.1-25.1l-4.8,17.5l10.2-0.9L378.3,206.6z M384.5,188.5l-3.8,13.2
			l13.6-18l-9.4,0.8l3.7-13.5l-13.5,18.7L384.5,188.5z"/>
	</g>
	<g>
		<path fill="#0099FF" d="M405.5,223c-0.1,0-0.2,0-0.3,0l-6.3,0l-0.1,0c-0.7-0.2-1.9-0.8-1.8-2l0-0.9h-3.9v1.4
			c0,0.1-0.1,0.9-0.6,1.2c-0.3,0.2-0.6,0.3-0.9,0.2l-7.2,0c-0.1,0-1.1,0-1.6-0.6c-0.2-0.2-0.3-0.5-0.3-0.9c0-0.2,0-0.4,0.1-0.6
			c0.1-1,0.3-2.4-0.5-3.3c-0.1-0.2-0.3-0.4-0.6-0.7c-1.9-2-6.8-7.2-5.3-16.4l1,0.2c-1.4,8.7,3.1,13.5,5.1,15.5
			c0.3,0.3,0.5,0.5,0.7,0.7c1,1.3,0.8,3,0.7,4.1c0,0.2-0.1,0.4-0.1,0.6c0,0.1,0,0.1,0,0.1c0.2,0.2,0.6,0.3,0.9,0.3h7.3
			c0.2,0,0.2,0,0.2,0c0.1-0.1,0.2-0.4,0.2-0.5l0-2.3h5.9v1.9c0,0.5,0.7,0.8,1,0.9h6.2c0.6,0.1,1.2-0.4,1.4-0.6v-4.5l0.4-0.1
			c2.5-0.6,4.2-4,5.4-6.4c1-2,1.6-3.3,2.6-3.1c0.9,0.2,1.9-1,2.3-1.6l0-5.2c0.2-0.9-1-2.2-1.6-2.7h-2.7l-0.1-0.4
			c-0.3-2.3-1.7-3.5-3-4.6c-0.7-0.6-1.4-1.2-1.7-1.8c-1.1-2,0.9-5.1,1-5.3l0.1-0.1l0.1-0.1c0.2-0.1,0.3-0.2,0.4-0.3l0,0
			c0,0-0.2-0.3-1.7-0.7c-1.7-0.4-2.8,0.9-3.7,2c-0.8,0.9-1.7,2-2.8,1.2c-1.6-1.1-4.1-1.3-4.1-1.3l0.1-1c0.1,0,2.8,0.3,4.6,1.5
			c0.3,0.2,0.6,0,1.4-1.1c1-1.2,2.4-2.9,4.7-2.4c1.6,0.4,2.4,0.8,2.5,1.5c0.1,0.6-0.5,1.1-0.8,1.2c-0.5,0.9-1.5,3-0.9,4.1
			c0.3,0.5,0.9,1,1.5,1.6c1.3,1.1,2.9,2.4,3.3,4.8h2.2l0.1,0.1c0.3,0.2,2.5,2,2.1,3.8v5.3l-0.1,0.1c-0.1,0.1-1.6,2.5-3.4,2.1
			c-0.3,0.1-1,1.5-1.5,2.5c-1.2,2.5-2.9,5.9-5.7,6.9v4.1l-0.1,0.1C407.6,221.9,406.7,223,405.5,223z"/>
	</g>
	<g>
		<path fill="#0099FF" d="M295.5,225h-43v-17.8c0-5.6,0-10.9,7.5-10.9h2.2l9.3,18.8l-3.4-16.7l4.6-4.6c-5.5-0.6-9.8-5.2-9.8-10.8
			c0-6,4.9-10.9,11-10.9c6.1,0,11,4.9,11,10.9c0,5.6-4.3,10.3-9.8,10.8l4.6,4.6l-3.4,16.7l9.3-18.8h2.2c7.5,0,7.5,5.3,7.5,10.9V225z
			 M253.5,224h41v-16.8c0-5.7,0-9.9-6.5-9.9h-1.6L274,222.1l0,0.2l-0.1-0.1l-0.1,0.1l0-0.2l-12.4-24.8H260c-6.5,0-6.5,4.2-6.5,9.9
			V224z M269.3,198.7L274,222l4.7-23.3L274,194L269.3,198.7z M274,192.6l0.2,0.2c5.4-0.1,9.8-4.5,9.8-9.9c0-5.5-4.5-9.9-10-9.9
			c-5.5,0-10,4.4-10,9.9c0,5.4,4.4,9.8,9.8,9.9L274,192.6z"/>
	</g>
	<g>
		<polygon fill="#0099FF" points="361.4,198.5 307,198.5 307,196.5 356.6,196.5 347.3,187.2 348.7,185.8 		"/>
	</g>
	<g>
		<rect x="307" y="203.5" fill="#0099FF" width="54" height="2"/>
	</g>
	<g>
		<g>
			<path fill-rule="evenodd" clip-rule="evenodd" fill="#FFFFFF" d="M137.9,141.5c4.2,0,7.7,3.4,7.7,7.7c0,4.2-3.4,7.7-7.7,7.7
				c-4.2,0-7.7-3.4-7.7-7.7C130.2,144.9,133.7,141.5,137.9,141.5z"/>
			<path fill="#0099FF" d="M137.9,157.4c-4.5,0-8.2-3.7-8.2-8.2s3.7-8.2,8.2-8.2s8.2,3.7,8.2,8.2S142.4,157.4,137.9,157.4z
				 M137.9,142c-4,0-7.2,3.2-7.2,7.2s3.2,7.2,7.2,7.2s7.2-3.2,7.2-7.2S141.8,142,137.9,142z"/>
		</g>
		<g>
			<path fill-rule="evenodd" clip-rule="evenodd" fill="#FFFFFF" d="M147.4,342.5c4.2,0,7.7,3.4,7.7,7.7c0,4.2-3.4,7.7-7.7,7.7
				c-4.2,0-7.7-3.4-7.7-7.7C139.8,346,143.2,342.5,147.4,342.5z"/>
			<path fill="#0099FF" d="M147.4,358.4c-4.5,0-8.2-3.7-8.2-8.2s3.7-8.2,8.2-8.2s8.2,3.7,8.2,8.2S151.9,358.4,147.4,358.4z
				 M147.4,343c-4,0-7.2,3.2-7.2,7.2s3.2,7.2,7.2,7.2s7.2-3.2,7.2-7.2S151.4,343,147.4,343z"/>
		</g>
		<g>
			<path fill-rule="evenodd" clip-rule="evenodd" fill="#FFFFFF" d="M561.4,55.5c4.2,0,7.7,3.4,7.7,7.7c0,4.3-3.4,7.7-7.7,7.7
				c-4.2,0-7.7-3.4-7.7-7.7C553.8,59,557.2,55.5,561.4,55.5z"/>
			<path fill="#0099FF" d="M561.4,71.4c-4.5,0-8.2-3.7-8.2-8.2s3.7-8.2,8.2-8.2s8.2,3.7,8.2,8.2S565.9,71.4,561.4,71.4z M561.4,56
				c-4,0-7.2,3.2-7.2,7.2s3.2,7.2,7.2,7.2c4,0,7.2-3.2,7.2-7.2S565.4,56,561.4,56z"/>
		</g>
		<g>
			<path fill-rule="evenodd" clip-rule="evenodd" fill="#FFFFFF" d="M431.7,300.5c4.2,0,7.7,3.4,7.7,7.7c0,4.3-3.4,7.7-7.7,7.7
				c-4.2,0-7.7-3.4-7.7-7.7C424,304,427.4,300.5,431.7,300.5z"/>
			<path fill="#0099FF" d="M431.7,316.4c-4.5,0-8.2-3.7-8.2-8.2s3.7-8.2,8.2-8.2s8.2,3.7,8.2,8.2S436.2,316.4,431.7,316.4z
				 M431.7,301c-4,0-7.2,3.2-7.2,7.2s3.2,7.2,7.2,7.2c4,0,7.2-3.2,7.2-7.2S435.6,301,431.7,301z"/>
		</g>
		<g>
			<path fill-rule="evenodd" clip-rule="evenodd" fill="#0099FF" d="M137.9,144.6c2.5,0,4.6,2.1,4.6,4.6c0,2.6-2.1,4.6-4.6,4.6
				c-2.5,0-4.6-2.1-4.6-4.6C133.3,146.6,135.4,144.6,137.9,144.6z"/>
		</g>
		<g>
			<path fill-rule="evenodd" clip-rule="evenodd" fill="#0099FF" d="M561.4,58.6c2.5,0,4.6,2.1,4.6,4.6c0,2.5-2.1,4.6-4.6,4.6
				c-2.5,0-4.6-2.1-4.6-4.6C556.8,60.7,558.9,58.6,561.4,58.6z"/>
		</g>
		<g>
			<path fill-rule="evenodd" clip-rule="evenodd" fill="#0099FF" d="M431.7,303.6c2.5,0,4.6,2.1,4.6,4.6c0,2.5-2.1,4.6-4.6,4.6
				c-2.5,0-4.6-2.1-4.6-4.6C427.1,305.7,429.1,303.6,431.7,303.6z"/>
		</g>
		<g>
			<path fill-rule="evenodd" clip-rule="evenodd" fill="#0099FF" d="M147.4,345.6c2.5,0,4.6,2.1,4.6,4.6c0,2.5-2.1,4.6-4.6,4.6
				c-2.5,0-4.6-2.1-4.6-4.6C142.8,347.7,144.9,345.6,147.4,345.6z"/>
		</g>
	</g>
	<g>
		<path fill="#666666" d="M533.3,343.2c-0.2,0-0.4-0.1-0.4-0.3l-2.5-4.9h-8.8c-0.3,0-0.5-0.2-0.5-0.5s0.2-0.5,0.5-0.5h9.1
			c0.2,0,0.4,0.1,0.4,0.3l2.7,5.2c0.1,0.2,0,0.5-0.2,0.7C533.4,343.2,533.4,343.2,533.3,343.2z"/>
	</g>
</g>
</svg>
