<?xml version="1.0" encoding="utf-8"?>
<!-- Generator: Adobe Illustrator 17.0.0, SVG Export Plug-In . SVG Version: 6.00 Build 0)  -->
<!DOCTYPE svg PUBLIC "-//W3C//DTD SVG 1.1//EN" "http://www.w3.org/Graphics/SVG/1.1/DTD/svg11.dtd">
<svg version="1.1" id="图层_1" xmlns="http://www.w3.org/2000/svg" xmlns:xlink="http://www.w3.org/1999/xlink" x="0px" y="0px"
	 width="129.168px" height="988px" viewBox="0 0 129.168 988" enable-background="new 0 0 129.168 988" xml:space="preserve">
<g>
	<g>
		<circle fill="#ECF6FF" cx="37" cy="37" r="37"/>
		<g>
			<g>
				<path fill="#0099FF" d="M35.566,40.043l-0.262-0.268c0,0-4.292-4.382-4.875-4.965l0.52-0.624
					c0.54,0.539,3.729,3.793,4.671,4.754c0,0,10.4-8.659,10.75-9.009c0.131-0.131,0.233-0.168,0.31-0.163
					c0.127,0.008,0.552,0.497,0.552,0.497L35.566,40.043z"/>
			</g>
			<g>
				<path fill="#0099FF" d="M37.007,55l-0.171-0.081c-0.41-0.193-10.083-4.82-13.271-11.684c-3.379-7.276-0.145-21.328-0.006-21.923
					L23.632,21l26.76,0.032l0.072,0.313c0.137,0.598,3.326,14.709-0.015,21.891c-3.234,6.951-12.863,11.495-13.272,11.685L37.007,55
					z M24.278,21.81c-0.462,2.135-2.97,14.643,0.021,21.085c2.838,6.111,11.39,10.552,12.711,11.21
					c1.318-0.648,9.829-5.021,12.708-11.21c2.958-6.36,0.483-18.913,0.027-21.055L24.278,21.81z"/>
			</g>
		</g>
	</g>
	<g>
		<circle fill="#ECF6FF" cx="37" cy="114" r="37"/>
		<g>
			<g>
				<path fill="#0099FF" d="M29.091,130.242c-5.564,0-10.091-4.533-10.091-10.105s4.527-10.105,10.091-10.105
					c5.565,0,10.092,4.533,10.092,10.105S34.656,130.242,29.091,130.242z M29.091,110.91c-5.08,0-9.212,4.139-9.212,9.226
					c0,5.088,4.133,9.226,9.212,9.226s9.213-4.139,9.213-9.226S34.172,110.91,29.091,110.91z"/>
			</g>
			<g>
				<path fill="#0099FF" d="M44.895,130.242c-5.572,0-10.105-4.533-10.105-10.105s4.533-10.105,10.105-10.105S55,114.565,55,120.137
					S50.468,130.242,44.895,130.242z M44.895,110.91c-5.088,0-9.226,4.139-9.226,9.226c0,5.088,4.139,9.226,9.226,9.226
					s9.226-4.139,9.226-9.226C54.121,115.049,49.983,110.91,44.895,110.91z"/>
			</g>
			<g>
				<path fill="#0099FF" d="M36.986,117.968c-5.572,0-10.105-4.533-10.105-10.105s4.533-10.105,10.105-10.105
					s10.105,4.533,10.105,10.105S42.559,117.968,36.986,117.968z M36.986,98.637c-5.088,0-9.226,4.139-9.226,9.226
					c0,5.088,4.139,9.226,9.226,9.226s9.226-4.139,9.226-9.226C46.213,102.776,42.074,98.637,36.986,98.637z"/>
			</g>
		</g>
	</g>
	<g>
		<circle fill="#ECF6FF" cx="37" cy="191" r="37"/>
		<g>
			<g>
				<rect x="36.988" y="188.326" fill="#0099FF" width="0.896" height="20.674"/>
			</g>
			<g>
				<path fill="#0099FF" d="M29.856,173l6.092,15.101l-0.812,0.671l-6.092-15.102L29.856,173z"/>
			</g>
			<g>
				<path fill="#0099FF" d="M45.07,173l-5.862,15.095l0.781,0.67l5.862-15.095L45.07,173z"/>
			</g>
			<g>
				<rect x="27.586" y="195.027" fill="#0099FF" width="19.725" height="0.896"/>
			</g>
			<g>
				<rect x="23.999" y="187.878" fill="#0099FF" width="26.002" height="0.896"/>
			</g>
		</g>
	</g>
	<g>
		<circle fill="#ECF6FF" cx="37" cy="268" r="37"/>
		<g>
			<g>
				<g>
					<rect x="34.263" y="270.411" fill="#0099FF" width="10.054" height="0.857"/>
				</g>
				<g>
					<rect x="34.256" y="260.817" fill="#0099FF" width="0.857" height="9.946"/>
				</g>
			</g>
			<g>
				<polygon fill="#0099FF" points="52.111,269.076 47.723,265.52 48.262,264.853 52.111,267.973 55.961,264.853 56.5,265.52 				
					"/>
			</g>
			<g>
				<path fill="#0099FF" d="M35.02,285.558c-9.661,0-17.52-7.877-17.52-17.558s7.859-17.558,17.52-17.558
					c9.66,0,17.519,7.877,17.519,17.558h-0.857c0-9.209-7.475-16.701-16.662-16.701S18.357,258.791,18.357,268
					c0,9.209,7.476,16.701,16.663,16.701c5.753,0,11.023-2.914,14.099-7.795l0.725,0.457
					C46.611,282.494,41.068,285.558,35.02,285.558z"/>
			</g>
		</g>
	</g>
	<g>
		<circle fill="#ECF6FF" cx="37.047" cy="345" r="37"/>
		<g>
			<g>
				<rect x="36.643" y="331.512" fill="#0099FF" width="0.808" height="6.384"/>
			</g>
			<g>
				
					<rect x="26.575" y="337.062" transform="matrix(-0.7071 -0.7071 0.7071 -0.7071 -187.8094 597.1381)" fill="#0099FF" width="6.383" height="0.808"/>
			</g>
			<g>
				<rect x="23.306" y="343.783" fill="#0099FF" width="6.459" height="0.808"/>
			</g>
			<g>
				
					<rect x="28.906" y="348.677" transform="matrix(-0.7071 -0.7071 0.7071 -0.7071 -198.7731 621.4014)" fill="#0099FF" width="0.808" height="6.383"/>
			</g>
			<g>
				<rect x="36.439" y="352.283" fill="#0099FF" width="0.808" height="6.459"/>
			</g>
			<g>
				
					<rect x="40.522" y="351.915" transform="matrix(-0.707 -0.7072 0.7072 -0.707 -174.5427 632.3259)" fill="#0099FF" width="6.383" height="0.808"/>
			</g>
			<g>
				<rect x="44.33" y="344.599" fill="#0099FF" width="6.459" height="0.808"/>
			</g>
			<g>
				
					<rect x="43.756" y="334.725" transform="matrix(-0.7071 -0.7071 0.7071 -0.7071 -163.5571 608.086)" fill="#0099FF" width="0.808" height="6.383"/>
			</g>
			<g>
				<path fill="#0099FF" d="M48.388,336.615c-0.791,0-1.533-0.308-2.091-0.867c-1.154-1.153-1.154-3.03,0-4.183
					c1.116-1.117,3.064-1.117,4.182,0c1.154,1.154,1.154,3.03,0,4.183C49.921,336.307,49.178,336.615,48.388,336.615z
					 M48.388,331.508c-0.574,0-1.113,0.223-1.519,0.629c-0.838,0.838-0.838,2.202,0,3.04c0.812,0.812,2.227,0.812,3.039,0
					c0.838-0.838,0.838-2.201,0-3.04C49.502,331.731,48.962,331.508,48.388,331.508z"/>
			</g>
			<g>
				<path fill="#0099FF" d="M53.086,347.958c-1.631,0-2.957-1.327-2.957-2.957s1.327-2.958,2.957-2.958s2.957,1.327,2.957,2.958
					S54.716,347.958,53.086,347.958z M53.086,342.851c-1.185,0-2.149,0.964-2.149,2.15s0.964,2.149,2.149,2.149
					s2.149-0.964,2.149-2.149S54.27,342.851,53.086,342.851z"/>
			</g>
			<g>
				<path fill="#0099FF" d="M47.559,359.301c-0.791,0-1.533-0.307-2.091-0.866c-1.154-1.154-1.154-3.029,0-4.183
					c1.118-1.117,3.064-1.118,4.182,0c1.154,1.154,1.154,3.029,0,4.183C49.09,358.994,48.348,359.301,47.559,359.301z
					 M47.559,354.195c-0.574,0-1.114,0.223-1.52,0.629c-0.406,0.406-0.629,0.946-0.629,1.52s0.223,1.114,0.629,1.52
					c0.811,0.811,2.226,0.812,3.039,0c0.838-0.838,0.838-2.202,0-3.04C48.672,354.419,48.132,354.195,47.559,354.195z"/>
			</g>
			<g>
				<path fill="#0099FF" d="M37.047,364c-1.631,0-2.957-1.327-2.957-2.958s1.327-2.957,2.957-2.957c1.631,0,2.957,1.327,2.957,2.957
					C40.004,362.673,38.678,364,37.047,364z M37.047,358.893c-1.185,0-2.149,0.964-2.149,2.149s0.964,2.15,2.149,2.15
					s2.149-0.964,2.149-2.15S38.232,358.893,37.047,358.893z"/>
			</g>
			<g>
				<path fill="#0099FF" d="M25.706,359.301c-0.791,0-1.533-0.307-2.091-0.866c-1.154-1.154-1.154-3.029,0-4.183
					c1.118-1.118,3.066-1.118,4.182,0c1.154,1.154,1.154,3.029,0,4.183C27.239,358.994,26.497,359.301,25.706,359.301z
					 M25.706,354.195c-0.574,0-1.114,0.223-1.52,0.629s-0.629,0.946-0.629,1.52s0.223,1.114,0.629,1.52
					c0.812,0.812,2.227,0.812,3.039,0c0.838-0.838,0.838-2.202,0-3.04C26.819,354.419,26.28,354.195,25.706,354.195z"/>
			</g>
			<g>
				<path fill="#0099FF" d="M21.009,347.958c-1.631,0-2.957-1.327-2.957-2.957s1.327-2.958,2.957-2.958s2.957,1.327,2.957,2.958
					S22.64,347.958,21.009,347.958z M21.009,342.851c-1.185,0-2.149,0.964-2.149,2.15s0.964,2.149,2.149,2.149
					s2.149-0.964,2.149-2.149S22.194,342.851,21.009,342.851z"/>
			</g>
			<g>
				<path fill="#0099FF" d="M25.706,336.615c-0.791,0-1.533-0.308-2.091-0.867c-1.154-1.153-1.154-3.03,0-4.183
					c1.118-1.117,3.066-1.117,4.182,0c1.154,1.154,1.154,3.03,0,4.183C27.239,336.307,26.497,336.615,25.706,336.615z
					 M25.706,331.508c-0.574,0-1.114,0.223-1.52,0.629c-0.838,0.838-0.838,2.202,0,3.04c0.812,0.812,2.227,0.812,3.039,0
					c0.838-0.838,0.838-2.201,0-3.04C26.819,331.731,26.28,331.508,25.706,331.508z"/>
			</g>
			<g>
				<path fill="#0099FF" d="M37.047,331.916c-1.631,0-2.957-1.327-2.957-2.958S35.417,326,37.047,326
					c1.631,0,2.957,1.327,2.957,2.958S38.678,331.916,37.047,331.916z M37.047,326.808c-1.185,0-2.149,0.964-2.149,2.15
					c0,1.185,0.964,2.15,2.149,2.15s2.149-0.964,2.149-2.15C39.196,327.773,38.232,326.808,37.047,326.808z"/>
			</g>
			<g>
				<path fill="#0099FF" d="M37.047,352.338c-4.1,0-7.435-3.336-7.435-7.435s3.336-7.435,7.435-7.435s7.435,3.335,7.435,7.435
					C44.482,349.003,41.147,352.338,37.047,352.338z M37.047,338.276c-3.654,0-6.627,2.973-6.627,6.627
					c0,3.654,2.973,6.627,6.627,6.627c3.653,0,6.627-2.973,6.627-6.627S40.701,338.276,37.047,338.276z"/>
			</g>
		</g>
	</g>
	<g>
		<circle fill="#ECF6FF" cx="37" cy="422" r="37"/>
		<g>
			<g>
				<rect x="36.61" y="404.495" fill="#0099FF" width="0.798" height="34.305"/>
			</g>
			<g>
				<rect x="23.444" y="420.064" fill="#0099FF" width="27.911" height="0.798"/>
			</g>
			<g>
				<path fill="#0099FF" d="M37.006,440c-5.293,0-14.766-7.902-14.766-15.679V409.11l2.851-0.036
					c0.026-0.001,2.743-0.092,5.417-1.205c2.66-1.117,4.439-2.352,4.768-2.588L36.994,404l1.709,1.268
					c0.477,0.34,2.249,1.544,4.789,2.602c2.76,1.145,5.39,1.204,5.417,1.205l2.842,0.041l0.009,15.205
					c0,3.516-1.957,7.441-5.37,10.769C43.331,438.072,39.647,440,37.006,440z M23.037,409.903v14.418
					c0,7.381,8.961,14.881,13.968,14.881c5.003,0,13.958-7.5,13.958-14.881l-0.009-14.419l-2.056-0.03
					c-0.021,0-2.791-0.054-5.712-1.266c-2.617-1.091-4.452-2.338-4.952-2.694l-1.239-0.919l-1.297,0.962
					c-0.3,0.219-2.144,1.5-4.884,2.65c-2.864,1.192-5.693,1.266-5.719,1.266L23.037,409.903z"/>
			</g>
		</g>
	</g>
</g>
<g>
	<path fill="#F9FBFE" stroke="#DFF0FF" stroke-width="1.0007" stroke-miterlimit="10" stroke-dasharray="2.0015,2.0015" d="
		M64.538,461.922c35.347,0,64,28.654,64,64s-28.654,64-64,64c-35.347,0-64-28.654-64-64S29.191,461.922,64.538,461.922z"/>
	<path fill="#0099FF" d="M64.522,485.92c22.097,0,40.01,17.91,40.01,40.002c0,22.093-17.913,40.002-40.01,40.002
		s-40.01-17.909-40.01-40.002C24.512,503.83,42.425,485.92,64.522,485.92z"/>
	<path fill="none" stroke="#B7E2FF" stroke-width="1.0007" stroke-miterlimit="10" d="M64.538,475.001
		c28.13,0,50.935,22.805,50.935,50.937c0,28.131-22.805,50.937-50.935,50.937s-50.935-22.805-50.935-50.937
		C13.603,497.806,36.407,475.001,64.538,475.001z"/>
	<path fill="#FFFFFF" d="M64.678,538.538h1v6.007h-1V538.538z"/>
	<path fill="#FFFFFF" d="M64.678,543.544h18.005v1.001H64.678V543.544z"/>
	<path fill="none" stroke="#FFFFFF" stroke-width="1.0007" stroke-miterlimit="10" d="M47.049,544.523
		c0-9.953,7.949-18.022,17.754-18.022s17.754,8.069,17.754,18.022"/>
	<path fill="none" stroke="#FFFFFF" stroke-width="1.0007" stroke-miterlimit="10" d="M64.553,504.474
		c6.077,0,11.003,4.931,11.003,11.013c0,6.082-4.926,11.013-11.003,11.013c-6.077,0-11.003-4.931-11.003-11.013
		C53.55,509.405,58.476,504.474,64.553,504.474z"/>
</g>
<g>
	<path fill="#F9FBFE" stroke="#DFF0FF" stroke-width="1.0006" stroke-miterlimit="10" stroke-dasharray="2.0012,2.0012" d="
		M64.584,593.802c35.346,0,64,28.654,64,64s-28.654,64-64,64s-64-28.654-64-64C0.584,622.456,29.238,593.802,64.584,593.802z"/>
	<path fill="#0099FF" d="M64.584,617.753c22.091,0,40,17.931,40,40.049s-17.909,40.049-40,40.049s-40-17.93-40-40.049
		C24.584,635.684,42.492,617.753,64.584,617.753z"/>
	<path fill="none" stroke="#B7E2FF" stroke-width="1.0006" stroke-miterlimit="10" d="M64.583,606.865
		c28.132,0,50.938,22.806,50.938,50.937s-22.805,50.937-50.938,50.937s-50.937-22.806-50.937-50.937
		C13.647,629.67,36.451,606.865,64.583,606.865z"/>
	<g>
		<path fill="none" stroke="#FFFFFF" stroke-width="1.0006" stroke-miterlimit="10" d="M51.881,651.397l-4.979,0.931
			c-0.729,0.108-1.334,0.636-1.558,1.357c-0.229,0.718-0.039,1.511,0.489,2.037l7.973,7.581l-2.083,11.017
			c-0.124,0.745,0.17,1.505,0.77,1.945c0.335,0.254,0.734,0.383,1.136,0.383c0.306,0,0.618-0.077,0.899-0.227l10.056-5.056
			l9.992,5.056c0.281,0.151,0.592,0.227,0.901,0.227c0.399,0,0.798-0.13,1.133-0.383c0.595-0.441,0.899-1.2,0.773-1.945
			l-2.019-11.017l7.976-7.652c0.526-0.525,0.713-1.317,0.484-2.034l0,0c-0.227-0.721-0.829-1.249-1.558-1.357l-11.022-1.992
			l-4.929-10.206c-0.322-0.679-0.994-1.107-1.731-1.107c-0.736,0-1.406,0.43-1.736,1.107l-4.926,10.206"/>
	</g>
</g>
<g>
	<path fill="#F9FBFE" stroke="#DFF0FF" stroke-width="1.0006" stroke-miterlimit="10" stroke-dasharray="2.0012,2.0012" d="
		M64.584,725.678c35.346,0,64,28.654,64,64s-28.654,64-64,64s-64-28.654-64-64C0.584,754.332,29.238,725.678,64.584,725.678z"/>
	<path fill="#0099FF" d="M64.584,749.629c22.091,0,40,17.931,40,40.049s-17.909,40.049-40,40.049s-40-17.93-40-40.049
		C24.584,767.56,42.493,749.629,64.584,749.629z"/>
	<path fill="none" stroke="#B7E2FF" stroke-width="1.0006" stroke-miterlimit="10" d="M64.585,738.741
		c28.132,0,50.937,22.805,50.937,50.937s-22.805,50.937-50.937,50.937s-50.938-22.806-50.938-50.937S36.453,738.741,64.585,738.741z
		"/>
	<g>
		<path fill="none" stroke="#FFFFFF" stroke-width="1.0006" stroke-miterlimit="10" d="M85.544,795.455
			c-2.979,11.479-14.748,18.177-26.286,14.962c-9.351-2.606-15.68-10.924-16.158-20.093c-0.04-0.775-0.039-1.555,0.006-2.339
			c0.079-1.387,6.097,3.641,6.097,3.641"/>
		<path fill="none" stroke="#FFFFFF" stroke-width="1.0006" stroke-miterlimit="10" d="M70.815,780.617l-5.208,5.498"/>
		<path fill="none" stroke="#FFFFFF" stroke-width="1.0006" stroke-miterlimit="10" d="M57.714,780.173l4.473,5.583"/>
		<path fill="none" stroke="#FFFFFF" stroke-width="1.0006" stroke-miterlimit="10" d="M64.423,785.756v15.632"/>
		<path fill="none" stroke="#FFFFFF" stroke-width="1.0006" stroke-miterlimit="10" d="M56.595,792.455h14.536"/>
		<path fill="none" stroke="#FFFFFF" stroke-width="1.0006" stroke-miterlimit="10" d="M56.595,785.756h14.536"/>
		<path fill="none" stroke="#FFFFFF" stroke-width="1.0006" stroke-miterlimit="10" d="M43.589,783.924
			c2.982-11.496,14.76-18.204,26.307-14.984c9.358,2.609,15.693,10.939,16.171,20.124c0.04,0.775,0.039,1.557-0.006,2.342
			c-0.079,1.389-6.102-3.646-6.102-3.646"/>
	</g>
</g>
<g>
	<path fill="#F9FBFE" stroke="#DFF0FF" stroke-width="1.0007" stroke-miterlimit="10" stroke-dasharray="2.0015,2.0015" d="
		M64.584,857.854c35.346,0,64,28.654,64,64s-28.654,64-64,64c-35.347,0-64-28.654-64-64S29.237,857.854,64.584,857.854z"/>
	<path fill="#0099FF" d="M64.584,881.805c22.097,0,40.01,17.931,40.01,40.049s-17.913,40.049-40.01,40.049
		s-40.01-17.93-40.01-40.049S42.487,881.805,64.584,881.805z"/>
	<path fill="none" stroke="#B7E2FF" stroke-width="1.0007" stroke-miterlimit="10" d="M64.583,870.917
		c28.139,0,50.951,22.805,50.951,50.937c0,28.131-22.812,50.937-50.951,50.937s-50.95-22.805-50.95-50.937
		C13.634,893.723,36.445,870.917,64.583,870.917z"/>
	<g>
		<path fill="none" stroke="#FFFFFF" stroke-width="1.0007" stroke-miterlimit="10" d="M69.97,904.832h7.419
			c2.323,0,4.205,1.818,4.205,4.061c0,0,0,3.35,0,7.566"/>
		<path fill="none" stroke="#FFFFFF" stroke-width="1.0007" stroke-miterlimit="10" d="M48.403,937.561l14.631-19.63l5.69,4.089
			l11.38-16.358"/>
		<path fill="none" stroke="#FFFFFF" stroke-width="1.0007" stroke-miterlimit="10" d="M80.764,923.949c0,5.621,0,10.776,0,10.776
			c0,2.293-1.857,4.152-4.149,4.152c0,0-17.584,0-23.195,0c-1.065,0-1.698,0-1.698,0 M47.574,934.725c0,0,0-0.623,0-1.672
			c0-0.098,0-0.201,0-0.306c0-5.895,0-22.932,0-22.932c0-2.293,1.857-4.152,4.149-4.152c0,0,5.382,0,11.141,0"/>
	</g>
</g>
</svg>
