<?xml version="1.0" encoding="utf-8"?>
<!-- Generator: Adobe Illustrator 17.0.0, SVG Export Plug-In . SVG Version: 6.00 Build 0)  -->
<!DOCTYPE svg PUBLIC "-//W3C//DTD SVG 1.1//EN" "http://www.w3.org/Graphics/SVG/1.1/DTD/svg11.dtd">
<svg version="1.1" id="图层_1" xmlns="http://www.w3.org/2000/svg" xmlns:xlink="http://www.w3.org/1999/xlink" x="0px" y="0px"
	 width="482px" height="264.13px" viewBox="0 0 482 264.13" enable-background="new 0 0 482 264.13" xml:space="preserve">
<path fill-rule="evenodd" clip-rule="evenodd" fill="none" stroke="#333333" stroke-linejoin="round" stroke-miterlimit="10" d="
	M12,99.13c0-5.037,3.184-9.368,7.748-11.282c0.274-0.115,0.554-0.222,0.838-0.319 M29.307,87.493
	c0.197,0.065,0.392,0.135,0.584,0.21C34.647,89.536,38,93.962,38,99.13"/>
<g>
	<path fill="#333333" d="M25,74.13c3.98,0,7.219,3.238,7.219,7.219c0,3.98-3.238,7.219-7.219,7.219s-7.219-3.238-7.219-7.219
		C17.781,77.368,21.02,74.13,25,74.13 M25,73.13c-4.539,0-8.219,3.68-8.219,8.219c0,4.539,3.68,8.219,8.219,8.219
		s8.219-3.68,8.219-8.219C33.219,76.81,29.539,73.13,25,73.13L25,73.13z"/>
</g>
<g>
	<path fill="#333333" d="M25,63.13c13.234,0,24,10.766,24,24s-10.766,24-24,24s-24-10.766-24-24S11.766,63.13,25,63.13 M25,62.13
		c-13.807,0-25,11.193-25,25s11.193,25,25,25s25-11.193,25-25S38.807,62.13,25,62.13L25,62.13z"/>
</g>
<g>
	<path fill="#333333" d="M246.5,63.63c13.234,0,24,10.766,24,24s-10.766,24-24,24s-24-10.766-24-24S233.266,63.63,246.5,63.63
		 M246.5,62.63c-13.807,0-25,11.193-25,25s11.193,25,25,25s25-11.193,25-25S260.307,62.63,246.5,62.63L246.5,62.63z"/>
</g>
<path fill="#333333" d="M238.341,230.767l6.815,9.252l-6.144,0.125l-0.093,0.894L246,241.13v3l-6.988-0.004l0,0.995l6.988,0.01v6h1
	v-6l7.016-0.01l0-0.995L247,244.13v-3l7.046-0.092l-0.032-0.894l-6.206-0.125l6.815-9.252h-1.649l-6.492,8.858l-6.492-8.858H238.341
	z"/>
<g>
	<path fill="#333333" d="M246,215.13c13.234,0,24,10.766,24,24s-10.766,24-24,24s-24-10.766-24-24S232.766,215.13,246,215.13
		 M246,214.13c-13.807,0-25,11.193-25,25s11.193,25,25,25s25-11.193,25-25S259.807,214.13,246,214.13L246,214.13z"/>
</g>
<g>
	<path fill-rule="evenodd" clip-rule="evenodd" fill="#333333" d="M467.312,80.411c0.742,0,1.344,0.616,1.344,1.375
		c0,0.759-0.602,1.375-1.344,1.375c-0.742,0-1.344-0.616-1.344-1.375C465.969,81.027,466.57,80.411,467.312,80.411z"/>
</g>
<g>
	<path fill-rule="evenodd" clip-rule="evenodd" fill="#333333" d="M467.312,93.161c0.742,0,1.344,0.609,1.344,1.359
		c0,0.751-0.602,1.359-1.344,1.359c-0.742,0-1.344-0.609-1.344-1.359C465.969,93.77,466.57,93.161,467.312,93.161z"/>
</g>
<g>
	<path fill="#333333" d="M471,78.13v6.992h-27V78.13H471 M472,77.13h-29v8.992h29V77.13L472,77.13z"/>
</g>
<g>
	<path fill="#333333" d="M471,91.139v6.992h-27v-6.992H471 M472,90.139h-29v8.992h29V90.139L472,90.139z"/>
</g>
<g>
	<path fill="#333333" d="M457,63.13c13.234,0,24,10.766,24,24s-10.766,24-24,24c-13.234,0-24-10.766-24-24S443.766,63.13,457,63.13
		 M457,62.13c-13.807,0-25,11.193-25,25s11.193,25,25,25c13.807,0,25-11.193,25-25S470.807,62.13,457,62.13L457,62.13z"/>
</g>
<path fill="#333333" d="M212,82.633l-5.006,2.503V80.13L212,82.633z"/>
<path fill="#333333" d="M281,87.627l5.006-2.503v5.006L281,87.627z"/>
<path fill="#333333" d="M246.497,196.13l-2.503-5.006H249L246.497,196.13z"/>
<path fill-rule="evenodd" clip-rule="evenodd" fill="#CCCCCC" d="M52,82.13h155v1H52V82.13z"/>
<path fill-rule="evenodd" clip-rule="evenodd" fill="#CCCCCC" d="M282,73.13h135v1H282V73.13z"/>
<path fill-rule="evenodd" clip-rule="evenodd" fill="#CCCCCC" d="M286,87.13h135v1H286V87.13z"/>
<path fill-rule="evenodd" clip-rule="evenodd" fill="#CCCCCC" d="M24,239.13h189v1H24V239.13z"/>
<path fill-rule="evenodd" clip-rule="evenodd" fill="#CCCCCC" d="M24,125.13h1v114h-1V125.13z"/>
<path fill-rule="evenodd" clip-rule="evenodd" fill="#CCCCCC" d="M246,127.13h1v64h-1V127.13z"/>
<path fill-rule="evenodd" clip-rule="evenodd" fill="#CCCCCC" d="M276,238.13h181.992v1H276V238.13z"/>
<path fill-rule="evenodd" clip-rule="evenodd" fill="#CCCCCC" d="M456.992,21.142h1v30.974h-1V21.142z"/>
<path fill-rule="evenodd" clip-rule="evenodd" fill="#CCCCCC" d="M24,21.13h434v1H24V21.13z"/>
<path fill-rule="evenodd" clip-rule="evenodd" fill="#CCCCCC" d="M456.992,130.127h1V238.63h-1V130.127z"/>
<path fill-rule="evenodd" clip-rule="evenodd" fill="#CCCCCC" d="M23.998,21.142h1v30.974h-1V21.142z"/>
<text transform="matrix(1 0 0 1 87.6668 73.1304)" fill="#666666" font-family="'STHeitiSC-Light'" font-size="12">①  发送支付要素 </text>
<text transform="matrix(1 -0.0086 0.0086 1 302.5021 68.988)" fill="#666666" font-family="'STHeitiSC-Light'" font-size="12">②  发送预支付请求</text>
<text transform="matrix(1 -0.0086 0.0086 1 308.5019 101.2007)" fill="#666666" font-family="'STHeitiSC-Light'" font-size="12">③  返回支付对象</text>
<text transform="matrix(1 -0.0086 0.0086 1 254.6237 164.1449)" fill="#666666" font-family="'STHeitiSC-Light'" font-size="12">④  发起支付请求</text>
<text transform="matrix(1 -0.0086 0.0086 1 50.3183 232.4487)" fill="#666666" font-family="'STHeitiSC-Light'" font-size="12">⑤  同步返回支付结果 </text>
<text transform="matrix(1 -0.0086 0.0086 1 304.683 229.782)" fill="#666666" font-family="'STHeitiSC-Light'" font-size="12">⑥  异步返回支付结果</text>
<text transform="matrix(1 -0.0086 0.0086 1 180.0163 12.4487)" fill="#666666" font-family="'STHeitiSC-Light'" font-size="12">⑦  异步返回支付结果</text>
<g>
	<path d="M234.352,81.361c-1.234,0-2.262,0.254-3.05,0.777c-0.891,0.558-1.32,1.352-1.32,2.399c0,0.98,0.463,1.741,1.405,2.264
		c0.411,0.237,1.354,0.558,2.81,0.963c1.388,0.372,2.279,0.693,2.691,0.929c0.823,0.456,1.251,1.098,1.251,1.926
		c0,0.71-0.343,1.284-0.994,1.707c-0.668,0.406-1.542,0.625-2.622,0.625c-1.131,0-2.005-0.254-2.622-0.743
		c-0.686-0.558-1.08-1.403-1.2-2.535h-1.028c0.103,1.453,0.617,2.552,1.542,3.278c0.805,0.625,1.919,0.946,3.325,0.946
		c1.388,0,2.502-0.287,3.342-0.862c0.874-0.608,1.32-1.436,1.32-2.467c0-1.098-0.514-1.943-1.525-2.535
		c-0.548-0.338-1.594-0.71-3.153-1.149c-1.2-0.338-1.988-0.608-2.348-0.777c-0.771-0.405-1.148-0.929-1.148-1.605
		c0-0.76,0.309-1.335,0.96-1.707c0.566-0.338,1.337-0.507,2.331-0.507c1.062,0,1.885,0.237,2.468,0.727
		c0.583,0.49,0.943,1.2,1.08,2.146h1.045c-0.103-1.25-0.566-2.197-1.371-2.839C236.751,81.682,235.689,81.361,234.352,81.361z"/>
	<path d="M241.016,81.598v12.065h4.13c1.885,0,3.342-0.558,4.37-1.673c0.977-1.065,1.474-2.518,1.474-4.36
		c0-1.876-0.446-3.329-1.32-4.343c-0.96-1.132-2.399-1.69-4.301-1.69H241.016z M242.062,82.51h3.153
		c1.645,0,2.879,0.439,3.667,1.352c0.72,0.828,1.08,2.078,1.08,3.768c0,1.622-0.411,2.873-1.234,3.751
		c-0.857,0.912-2.108,1.369-3.736,1.369h-2.931V82.51z"/>
	<path d="M261.15,81.598l-7.129,6.624v-6.624h-1.045v12.065h1.045v-4.241l2.193-2.011l5.673,6.252h1.439l-6.392-6.911l5.621-5.154
		H261.15z"/>
</g>
<path fill="#333333" d="M421,73.633l-5.006,2.503V71.13L421,73.633z"/>
<path fill="#333333" d="M457.503,126.13l2.503,5.006H455L457.503,126.13z"/>
<path fill="#333333" d="M24.497,54.13l-2.503-5.006H27L24.497,54.13z"/>
<path fill="#333333" d="M24.497,122.13l-2.503,5.006H27L24.497,122.13z"/>
</svg>
