<?xml version="1.0" encoding="utf-8"?>
<!-- Generator: Adobe Illustrator 17.0.0, SVG Export Plug-In . SVG Version: 6.00 Build 0)  -->
<!DOCTYPE svg PUBLIC "-//W3C//DTD SVG 1.1//EN" "http://www.w3.org/Graphics/SVG/1.1/DTD/svg11.dtd">
<svg version="1.1" id="图层_1" xmlns="http://www.w3.org/2000/svg" xmlns:xlink="http://www.w3.org/1999/xlink" x="0px" y="0px"
	 width="324px" height="296.5px" viewBox="-7.333 -7.716 324 296.5" enable-background="new -7.333 -7.716 324 296.5"
	 xml:space="preserve">
<g>
	<path fill="#F5FBFF" d="M156.406,0.569c78.148,0,141.5,63.352,141.5,141.5s-63.352,141.5-141.5,141.5s-141.5-63.352-141.5-141.5
		C14.906,63.921,78.257,0.569,156.406,0.569z"/>
	<path fill="#FFFFFF" d="M63.359,212.439V62.011c0-7.912,6.868-14.326,15.34-14.326h157.787c8.472,0,15.34,6.414,15.34,14.326
		V212.44"/>
	<path fill="#FFFFFF" d="M217.863,211.792c0,0,11.937,0.993,13.149,13.278h20.462v-14.84L217.863,211.792z"/>
	<path fill="#FFFFFF" d="M98.099,211.792c0,0-11.937,0.993-13.149,13.278H63.661l-0.298-14.84L98.099,211.792z"/>
	<path fill="none" stroke="#666666" stroke-miterlimit="10" d="M63.363,224.521V63.061c0-8.492,6.868-15.376,15.34-15.376H236.49
		c8.472,0,15.34,6.884,15.34,15.376v161.46"/>
	<path fill="#FFFFFF" stroke="#666666" stroke-miterlimit="10" d="M86.718,63.069h142.875c4.418,0,8,3.582,8,8v119.094
		c0,4.418-3.582,8-8,8H86.718c-4.418,0-8-3.582-8-8V71.069C78.718,66.651,82.3,63.069,86.718,63.069z"/>
	<path fill="#FFFFFF" stroke="#666666" stroke-miterlimit="10" d="M289.64,102.601c11.192,0,20.266,9.101,20.266,20.328
		s-9.073,20.328-20.266,20.328c-11.192,0-20.266-9.101-20.266-20.328C269.374,111.702,278.448,102.601,289.64,102.601z"/>
	<path fill="#FFFFFF" stroke="#666666" stroke-miterlimit="10" d="M193.749,223.413c9.682,0,17.531,7.87,17.531,17.578
		s-7.849,17.578-17.531,17.578s-17.531-7.87-17.531-17.578C176.218,231.283,184.067,223.413,193.749,223.413z"/>
	<path fill="#FFFFFF" stroke="#666666" stroke-miterlimit="10" d="M25.015,150.945c13.315,0,24.109,10.815,24.109,24.156
		s-10.794,24.156-24.109,24.156S0.906,188.442,0.906,175.101C0.906,161.76,11.7,150.945,25.015,150.945z"/>
	<path fill="#666666" d="M30.491,237.652v-1h120.532v1H30.491z"/>
	<path fill="#666666" d="M110.48,248.684v-1.099h56.979v1.099H110.48z"/>
	<path fill="#666666" d="M217.863,232.209v-1.098h70.128v1.098H217.863z"/>
	<path fill="none" stroke="#666666" stroke-miterlimit="10" d="M85.278,225.618c0-7.278,5.887-13.18,13.149-13.18h119.436
		c7.262,0,13.149,5.901,13.149,13.18"/>
	<path fill="#666666" d="M230.999,224.507h21.318v1.125h-21.318V224.507z"/>
	<path fill="#666666" d="M62.906,224.507h22.849v1.125H62.906V224.507z"/>
	<path fill="none" stroke="#666666" stroke-miterlimit="10" d="M279.598,132.151h20.468"/>
	<path fill="none" stroke="#666666" stroke-miterlimit="10" d="M299.247,120.249v9.029"/>
	<path fill="none" stroke="#666666" stroke-miterlimit="10" d="M290.241,120.249v9.029"/>
	<path fill="none" stroke="#666666" stroke-miterlimit="10" d="M281.235,120.249v9.029"/>
	<path fill="none" stroke="#666666" stroke-miterlimit="10" d="M290.241,112.452l-13.509,5.746h25.789L290.241,112.452z"/>
	<path fill="none" stroke="#666666" stroke-miterlimit="10" d="M185.076,248.978h17.702"/>
	<path fill="none" stroke="#666666" stroke-miterlimit="10" d="M202.07,238.684v7.809"/>
	<path fill="none" stroke="#666666" stroke-miterlimit="10" d="M194.281,238.684v7.809"/>
	<path fill="none" stroke="#666666" stroke-miterlimit="10" d="M186.492,238.684v7.809"/>
	<path fill="none" stroke="#666666" stroke-miterlimit="10" d="M194.281,231.94l-11.683,4.969h22.304L194.281,231.94z"/>
	<path fill="none" stroke="#666666" stroke-miterlimit="10" d="M13.076,186.07h24.34"/>
	<path fill="none" stroke="#666666" stroke-miterlimit="10" d="M36.443,171.916v10.737"/>
	<path fill="none" stroke="#666666" stroke-miterlimit="10" d="M25.733,171.916v10.737"/>
	<path fill="none" stroke="#666666" stroke-miterlimit="10" d="M15.024,171.916v10.737"/>
	<path fill="none" stroke="#666666" stroke-miterlimit="10" d="M25.733,162.643l-16.065,6.833h30.669L25.733,162.643z"/>
	<path fill="#D9EEFF" d="M208.562,162.257c3.935,0,7.125,3.19,7.125,7.125s-3.19,7.125-7.125,7.125s-7.125-3.19-7.125-7.125
		S204.627,162.257,208.562,162.257z"/>
	<path fill="#D9EEFF" d="M186.624,162.257c3.935,0,7.125,3.19,7.125,7.125s-3.19,7.125-7.125,7.125s-7.125-3.19-7.125-7.125
		S182.689,162.257,186.624,162.257z"/>
	<path fill="#D9EEFF" d="M164.718,162.257c3.935,0,7.125,3.19,7.125,7.125s-3.19,7.125-7.125,7.125s-7.125-3.19-7.125-7.125
		S160.783,162.257,164.718,162.257z"/>
	<path fill="#D9EEFF" d="M208.562,143.476c3.935,0,7.125,3.197,7.125,7.141s-3.19,7.141-7.125,7.141s-7.125-3.197-7.125-7.141
		S204.627,143.476,208.562,143.476z"/>
	<path fill="#D9EEFF" d="M186.624,143.476c3.935,0,7.125,3.197,7.125,7.141s-3.19,7.141-7.125,7.141s-7.125-3.197-7.125-7.141
		S182.689,143.476,186.624,143.476z"/>
	<path fill="#D9EEFF" d="M164.718,143.476c3.935,0,7.125,3.197,7.125,7.141s-3.19,7.141-7.125,7.141s-7.125-3.197-7.125-7.141
		S160.783,143.476,164.718,143.476z"/>
	<path fill="#D9EEFF" d="M208.562,124.882c3.935,0,7.125,3.197,7.125,7.141s-3.19,7.141-7.125,7.141s-7.125-3.197-7.125-7.141
		C201.437,128.079,204.627,124.882,208.562,124.882z"/>
	<path fill="#D9EEFF" d="M186.624,124.882c3.935,0,7.125,3.197,7.125,7.141s-3.19,7.141-7.125,7.141s-7.125-3.197-7.125-7.141
		C179.499,128.079,182.689,124.882,186.624,124.882z"/>
	<path fill="#D9EEFF" d="M164.718,124.882c3.935,0,7.125,3.197,7.125,7.141s-3.19,7.141-7.125,7.141s-7.125-3.197-7.125-7.141
		C157.593,128.079,160.783,124.882,164.718,124.882z"/>
	<path fill="#D9EEFF" d="M119.781,123.788c14.825,0,26.844,12.054,26.844,26.922c0,14.868-12.018,26.922-26.844,26.922
		c-14.825,0-26.844-12.054-26.844-26.922C92.937,135.842,104.955,123.788,119.781,123.788z"/>
	<path fill="#F5FBFF" d="M155.906,19.569c18.225,0,33,14.775,33,33s-14.775,33-33,33s-33-14.775-33-33
		C122.906,34.344,137.68,19.569,155.906,19.569z"/>
	<path fill="#FFFFFF" d="M233.218,92.167h8.75v11.062h-8.75V92.167z"/>
	<path fill="#FFFFFF" d="M233.218,158.03h8.75v11.062h-8.75V158.03z"/>
	<path fill="none" stroke="#666666" stroke-miterlimit="10" d="M238.039,169.602h-5.479c-3.328,0-6.027-2.705-6.027-6.041
		s2.698-6.041,6.027-6.041h5.479"/>
	<path fill="none" stroke="#666666" stroke-miterlimit="10" d="M238.039,103.7h-5.479c-3.328,0-6.027-2.704-6.027-6.041
		c0-3.336,2.698-6.041,6.027-6.041h5.479"/>
	<path fill="#FFFFFF" stroke="#666666" stroke-miterlimit="10" d="M148.004,52.569l14.174-15.291c0.46-0.497,1.24-0.511,1.741-0.033
		l11.339,10.829c0.501,0.478,0.534,1.269,0.073,1.765L161.157,65.13c-0.461,0.497-1.24,0.512-1.741,0.033l-11.339-10.829
		C147.577,53.857,147.544,53.066,148.004,52.569z"/>
	<path fill="#FFFFFF" stroke="#666666" stroke-miterlimit="10" d="M179.093,59.601c2.244,0,4.062,1.854,4.062,4.141
		s-1.819,4.14-4.062,4.14c-2.244,0-4.062-1.854-4.062-4.14C175.031,61.454,176.849,59.601,179.093,59.601z"/>
	<path fill="#FFFFFF" stroke="#666666" stroke-miterlimit="10" d="M155.39,23.507c2.235,0,4.047,1.854,4.047,4.141
		s-1.812,4.141-4.047,4.141s-4.047-1.854-4.047-4.141S153.155,23.507,155.39,23.507z"/>
	<path fill="#FFFFFF" stroke="#666666" stroke-miterlimit="10" d="M133.921,59.601c2.235,0,4.047,1.854,4.047,4.141
		s-1.812,4.14-4.047,4.14s-4.047-1.854-4.047-4.14C129.874,61.454,131.686,59.601,133.921,59.601z"/>
	<path fill="none" stroke="#666666" stroke-miterlimit="10" d="M129.121,53.705c-0.009-0.291-0.013-0.583-0.013-0.875
		c0-10.568,5.809-19.759,14.362-24.465 M166.35,26.874c10.263,4.015,17.545,14.122,17.545,25.955c0,0.316-0.005,0.631-0.016,0.944
		c-0.006,0.195-0.015,0.389-0.025,0.583 M174.202,74.051c-4.774,4.107-10.953,6.584-17.701,6.584c-7.452,0-14.209-3.02-19.148-7.921
		c-0.106-0.105-0.212-0.212-0.316-0.319"/>
	<path fill="#FFFFFF" stroke="#666666" stroke-miterlimit="10" d="M153.17,37.26l17.82,17.201c0.579,0.559,0.591,1.499,0.028,2.101
		l-12.755,13.614c-0.563,0.602-1.49,0.636-2.069,0.078l-17.82-17.201c-0.579-0.56-0.591-1.5-0.028-2.101l12.755-13.615
		C151.665,36.736,152.591,36.701,153.17,37.26z"/>
	<path fill="#666666" d="M152.125,58.918c0.096-0.096,0.248-0.092,0.339,0.01l6.925,7.757c0.091,0.102,0.087,0.262-0.009,0.36
		c-0.096,0.096-0.248,0.091-0.339-0.01l-6.925-7.757C152.025,59.176,152.029,59.015,152.125,58.918z"/>
	<path fill="#666666" d="M160.269,51.403c0.096-0.097,0.248-0.092,0.339,0.01l6.925,7.757c0.091,0.102,0.087,0.263-0.009,0.36
		c-0.096,0.096-0.248,0.092-0.339-0.01l-6.925-7.757C160.169,51.661,160.173,51.5,160.269,51.403z"/>
	<path fill="#666666" d="M152.531,51.464c0.148-0.143,0.383-0.137,0.523,0.014l10.691,11.459c0.141,0.15,0.134,0.388-0.014,0.531
		c-0.148,0.143-0.383,0.136-0.523-0.014l-10.691-11.459C152.376,51.844,152.382,51.606,152.531,51.464z"/>
	<path fill="none" stroke="#0099FF" stroke-width="1.0812" stroke-miterlimit="10" d="M124.255,154.064v12.082h-8.967v-12.082"/>
	<path fill="none" stroke="#0099FF" stroke-miterlimit="10" d="M115.303,154.495c-2.773-1.534-4.696-4.446-4.817-7.849
		c-0.184-5.153,3.835-9.479,8.976-9.662c5.14-0.183,9.457,3.846,9.64,8.999c0.133,3.745-1.952,7.052-5.074,8.651"/>
	<g>
		<path fill="#104097" d="M115.282,93.508h-1.927c-0.512,0-0.986,0.276-1.236,0.723l-2.222,3.957h1.927
			c0.513,0,0.985-0.277,1.236-0.723L115.282,93.508z"/>
		<path fill="#2CB5A9" d="M115.282,93.508h1.928c0.512,0,0.985,0.276,1.236,0.723l2.222,3.957h-1.927
			c-0.513,0-0.986-0.277-1.237-0.723L115.282,93.508z"/>
		<path fill="#2CB5A9" d="M115.282,113.351h-1.927c-0.512,0-0.986-0.277-1.236-0.724l-2.222-3.956h1.927
			c0.513,0,0.985,0.276,1.236,0.723L115.282,113.351z"/>
		<path fill="#104097" d="M115.282,113.351h1.928c0.512,0,0.985-0.277,1.236-0.724l2.222-3.956h-1.927
			c-0.513,0-0.986,0.276-1.237,0.723L115.282,113.351z"/>
		<path fill="#104097" d="M109.582,98.749h-1.927c-0.512,0-0.985,0.276-1.236,0.724l-2.222,3.957h2.757L109.582,98.749z"/>
		<path fill="#2CB5A9" d="M109.897,98.749h1.927c0.512,0,0.985,0.276,1.236,0.724l2.222,3.957h-2.757L109.897,98.749z"/>
		<path fill="#2CB5A9" d="M109.582,108.11h-1.927c-0.512,0-0.985-0.277-1.236-0.724l-2.222-3.957h2.757L109.582,108.11z"/>
		<path fill="#104097" d="M109.897,108.11h1.927c0.512,0,0.985-0.277,1.236-0.724l2.222-3.957h-2.757L109.897,108.11z"/>
		<path fill="#104097" d="M120.668,98.749h-1.927c-0.513,0-0.986,0.276-1.237,0.724l-2.222,3.957h2.757L120.668,98.749z"/>
		<path fill="#2CB5A9" d="M120.983,98.749h1.927c0.513,0,0.986,0.276,1.237,0.724l2.222,3.957h-2.757L120.983,98.749z"/>
		<path fill="#2CB5A9" d="M120.668,108.11h-1.927c-0.513,0-0.986-0.277-1.237-0.724l-2.222-3.957h2.757L120.668,108.11z"/>
		<path fill="#104097" d="M120.983,108.11h1.927c0.513,0,0.986-0.277,1.237-0.724l2.222-3.957h-2.757L120.983,108.11z"/>
		<path fill="#104097" d="M158.999,99.4h1.409c0.348,0.995,0.662,1.487,1.676,2.006l-0.629,0.65
			C160.431,101.727,159.474,100.785,158.999,99.4"/>
		<path fill="#104097" d="M162.035,95.187h-0.837c-0.432,0-0.477,0.099-0.646,0.302c-1.208,1.457-2.64,1.777-3.857,2.211
			l-0.533-0.773c0.978-0.448,2.222-0.755,3.038-2.022c0.394-0.611,0.735-0.82,1.851-0.82h0.982v1.102H162.035z"/>
		<path fill="#104097" d="M161.983,94.085h0.982c1.117,0,1.45,0.214,1.851,0.82c0.835,1.262,1.957,1.494,2.907,1.93l-0.559,0.865
			c-1.223-0.435-2.505-0.753-3.698-2.211c-0.168-0.205-0.214-0.302-0.645-0.302h-0.837L161.983,94.085L161.983,94.085z"/>
		<path fill="#104097" d="M155.865,102.526c1.642-1.004,2.627-3.379,2.759-5.074h1.624c-0.326,2.715-1.918,4.972-3.598,5.944
			L155.865,102.526z"/>
		<path fill="#104097" d="M161.162,102.532c1.651-1.158,2.608-3.132,2.732-5.08h1.624c-0.326,2.715-1.895,4.971-3.576,5.944
			L161.162,102.532z"/>
		<path fill="#104097" d="M164.083,99.409h1.52c0.14,1.057,1.134,2.419,2.282,3.178l-0.728,0.81
			C165.969,102.743,164.315,101.049,164.083,99.409"/>
		<path fill="#104097" d="M192.077,95.991L192.077,95.991h-3.303v-0.947h2.921c0.211,0,0.382,0.152,0.382,0.338L192.077,95.991
			L192.077,95.991z M192.077,97.492L192.077,97.492c0,0.187-0.171,0.338-0.382,0.338h-2.921v-1.005h3.303L192.077,97.492
			L192.077,97.492z M192.479,94.21h-4.725c-0.211,0-0.382,0.151-0.382,0.338v7.987c0,0.513,0.47,0.93,1.049,0.93h1.514l0.55-0.985
			h-1.328c-0.211,0-0.382-0.151-0.382-0.338V98.65h3.705c0.579,0,1.049-0.415,1.049-0.929v-2.582
			C193.528,94.626,193.057,94.21,192.479,94.21z"/>
		<path fill="#104097" d="M192.935,103.521c-1.63-0.973-3.06-2.524-3.654-4.389h1.443c0.427,1.35,1.522,2.859,2.908,3.646
			L192.935,103.521z"/>
		<path fill="#104097" d="M191.375,101.831l-0.659-0.556c1.199-0.594,1.45-1.296,1.57-2.143h1.256
			C193.253,100.884,192.332,101.457,191.375,101.831"/>
		<path fill="#104097" d="M182.55,97.103l-0.69-0.625c1.231-0.556,1.633-1.299,1.979-2.518h1.428
			C184.979,95.713,183.493,96.677,182.55,97.103"/>
		<path fill="#104097" d="M185.401,97.834v4.125c0,0.305,0.26,0.552,0.605,0.552h0.924l-0.47,0.84h-1.213
			c-0.693,0-1.255-0.498-1.255-1.112v-4.405H185.401z"/>
		<rect x="183.807" y="95.075" fill="#104097" width="3.011" height="0.835"/>
		<rect x="183.171" y="97.057" fill="#104097" width="3.647" height="0.834"/>
		<rect x="182.586" y="99.108" fill="#104097" width="4.231" height="0.834"/>
		<path fill="#104097" d="M195.909,97.132l-0.761-0.624c1.358-0.556,1.959-1.3,2.34-2.518h1.575
			C198.744,95.742,196.964,96.758,195.909,97.132"/>
		<path fill="#104097" d="M195.909,99.719l-0.761-0.625c1.358-0.556,1.959-1.3,2.34-2.518h1.575
			C198.744,98.328,196.964,99.344,195.909,99.719"/>
		<path fill="#104097" d="M201.74,103.492l0.331-0.955h0.988c0.38,0,0.687-0.247,0.687-0.552v-4.239h-4.181v-0.975h7.601v0.975
			h-1.72v4.633c0,0.614-0.62,1.112-1.385,1.112L201.74,103.492L201.74,103.492z"/>
		<rect x="200.242" y="94.239" fill="#104097" width="6.406" height="0.984"/>
		<rect x="196.986" y="97.957" fill="#104097" width="1.403" height="5.534"/>
		<path fill="#104097" d="M172.114,93.962c-0.256,0-0.463,0.199-0.463,0.444c0.001,1.197,0.003,4.431,0.003,4.95
			c0,1.806-1.428,2.971-2.315,3.38l0.733,0.784c0.086-0.031,0.33-0.121,0.483-0.209c1.431-0.817,2.59-1.911,2.59-4.175v-5.174
			C173.145,93.962,172.114,93.962,172.114,93.962z"/>
		<rect x="169.167" y="97.4" fill="#104097" width="6.08" height="0.979"/>
		<path fill="#104097" d="M175.614,103.463v-8.917c0-0.186,0.184-0.338,0.411-0.338l3.287,0.001c0.781,0.001,1.327,0.636,1.066,1.24
			c-0.311,0.718-0.674,1.589-0.846,1.967c-0.049,0.107-0.029,0.228,0.054,0.32c0.821,0.916,1.215,1.611,1.183,2.401
			c0,0.528-0.115,0.861-0.42,1.111c-0.44,0.306-1.195,0.346-1.871,0.346h-0.536l-0.491-0.832h0.991
			c0.54-0.027,0.761-0.221,0.761-0.833s-0.423-1.244-1.369-2.299c0.124-0.287,0.626-1.574,0.881-2.211
			c0.074-0.186-0.095-0.376-0.332-0.376l-1.262-0.002v8.42h-1.507V103.463z"/>
		<rect x="169.167" y="95.269" fill="#104097" width="6.08" height="0.979"/>
		<rect x="169.167" y="99.532" fill="#104097" width="6.08" height="0.979"/>
		<rect x="131.019" y="94.55" fill="#104097" width="5.778" height="0.979"/>
		<rect x="130.296" y="96.352" fill="#104097" width="11.556" height="0.979"/>
		<path fill="#104097" d="M130.406,103.324l-0.411-1.156c0.411-0.011,0.987-0.049,1.385-0.094v-3.867h1.29v3.783
			c0.559-0.038,1.023-0.074,1.393-0.126v-4.119h1.342v1.092h2.218v0.925h-2.218v2.018c1.168-0.111,1.864-0.192,2.372-0.236v0.951
			C137.398,102.523,132.879,103.051,130.406,103.324"/>
		<path fill="#104097" d="M137.627,95.984c-0.12-0.765-0.178-1.209-0.314-2.022h1.444c0.137,0.756,0.894,5.758,1.032,6.347
			c0.207,0.981,0.849,1.882,2.225,2.359l-0.729,0.853c-1.692-0.455-2.613-1.34-2.941-3.001
			C138.15,99.536,137.641,96.073,137.627,95.984"/>
		<path fill="#104097" d="M140.098,95.937c-0.207-0.439-0.415-1.026-0.515-1.387h1.29c0.146,0.392,0.36,0.902,0.619,1.387H140.098z"
			/>
		<path fill="#104097" d="M143.089,103.463c0.626-1.184,1.281-2.839,1.582-4.036h1.754c-0.334,1.242-1.152,3.073-1.837,4.036
			H143.089z"/>
		<path fill="#104097" d="M144.977,96.694c0.496,0.673,0.926,1.612,1.174,2.186h-1.57c-0.31-0.601-0.872-1.459-1.39-2.186H144.977z"
			/>
		<path fill="#104097" d="M145.028,93.962c0.445,0.588,0.878,1.622,1.091,2.312h-1.448c-0.394-0.748-0.814-1.417-1.429-2.312
			H145.028z"/>
		<path fill="#104097" d="M150.471,101.201c-0.834,0.714-1.834,1.506-3.211,2.319l-1.006-0.812c1.187-0.773,2.335-1.532,4.382-3.718
			c0.985-1.051,1.517-1.876,1.976-2.969c0,0,0.021-0.059,0.041-0.107c0.044-0.109,0.05-0.176,0.011-0.229
			c-0.064-0.089-0.212-0.126-0.424-0.126h-5.511V94.55c0,0,4.672-0.001,6.443,0c0.637,0.001,1.078,0.084,1.325,0.336
			c0.212,0.224,0.264,0.532,0.159,0.924C154.091,97.437,152.003,99.889,150.471,101.201"/>
		<path fill="#104097" d="M154.295,103.52c-1.576-0.681-2.806-1.599-3.761-2.397c-1.468-1.226-2.919-3.403-3.599-4.849h1.839
			c0.538,1.049,1.277,2.395,2.486,3.623c1.089,1.104,2.415,2.123,3.848,2.774L154.295,103.52z"/>
		<rect x="153.466" y="109.405" fill="#104097" width="4.057" height="0.888"/>
		<path fill="#104097" d="M145.291,106.716h4.591h1.575h0.083h0.202l-4.567,5.052h2.131c1.011-0.034,1.84-0.078,2.744-0.278
			l-0.839,1.409h-0.429h-4.532h-1.159h-0.722h-0.394l4.763-5.162h-3.171h-1.658h-0.202l0.949-1.021
			C144.656,106.716,145.291,106.716,145.291,106.716z"/>
		<path fill="#104097" d="M185.932,106.716h1.533v2.866l3.649-2.804c0.053-0.04,0.117-0.062,0.183-0.062h1.872
			c0.042,0,0.059,0.053,0.026,0.078l-3.298,2.434l3.545,3.598c0.027,0.027,0.008,0.073-0.031,0.073h-1.844
			c-0.082,0-0.16-0.033-0.217-0.092l-2.65-2.756l-1.236,0.926v1.922h-1.533L185.932,106.716L185.932,106.716z"/>
		<path fill="#104097" d="M159.686,106.892c0-0.097,0.079-0.176,0.176-0.176h4.648c1.666,0,2.095,0.754,2.095,1.542
			c0,0.883-0.603,1.134-0.991,1.29c0.562,0.147,1.328,0.493,1.328,1.533c0,0.693-0.511,1.818-2.483,1.818h-4.597
			c-0.097,0-0.176-0.079-0.176-0.176V106.892z M161.219,109.227h2.862c0.429,0,0.991-0.087,0.991-0.788
			c0-0.511-0.368-0.753-1.257-0.753h-2.596V109.227z M161.219,111.928h2.749c0.685,0,1.38-0.112,1.38-0.909
			c0-0.571-0.47-0.874-1.155-0.874h-2.974V111.928z"/>
		<path fill="#104097" d="M171.1,106.716h1.342c0.147,0,0.281,0.081,0.35,0.211l3.139,5.971h-1.707l-0.766-1.532h-3.434
			l-0.756,1.532h-1.656l3.139-5.971C170.819,106.797,170.954,106.716,171.1,106.716 M172.998,110.396l-1.247-2.606l-1.267,2.606
			H172.998z"/>
		<path fill="#104097" d="M176.91,106.716h1.441c0.202,0,0.395,0.084,0.533,0.231l4.127,4.41h0.02v-4.641h1.472v6.183h-1.412
			c-0.201,0-0.393-0.083-0.531-0.229l-4.158-4.412h-0.02v4.641h-1.472L176.91,106.716L176.91,106.716z"/>
	</g>
</g>
</svg>
