<?xml version="1.0" encoding="utf-8"?>
<!-- Generator: Adobe Illustrator 17.0.0, SVG Export Plug-In . SVG Version: 6.00 Build 0)  -->
<!DOCTYPE svg PUBLIC "-//W3C//DTD SVG 1.1//EN" "http://www.w3.org/Graphics/SVG/1.1/DTD/svg11.dtd">
<svg version="1.1" id="图层_1" xmlns="http://www.w3.org/2000/svg" xmlns:xlink="http://www.w3.org/1999/xlink" x="0px" y="0px"
	 width="785px" height="302.333px" viewBox="0 0 785 302.333" enable-background="new 0 0 785 302.333" xml:space="preserve">
<path fill="#FFF5E9" d="M681.902,49.75c0,22.644-18.356,41-41,41s-41-18.356-41-41s18.356-41,41-41
	C663.546,8.75,681.902,27.106,681.902,49.75z"/>
<path fill="#FFF5E9" d="M402.5,46.884c54.676,0,99,44.324,99,99s-44.324,99-99,99s-99-44.324-99-99S347.824,46.884,402.5,46.884z"/>
<path fill="#FFEACB" d="M402.5,52.884c51.362,0,93,41.637,93,93s-41.638,93-93,93c-51.363,0-93-41.637-93-93
	S351.137,52.884,402.5,52.884z"/>
<path fill="#FFF5E9" d="M666.402,263.25c0,16.569-13.431,30-30,30c-16.568,0-30-13.432-30-30s13.431-30,30-30
	C652.971,233.25,666.402,246.682,666.402,263.25z"/>
<path fill="#FFF5E9" d="M734.402,214.25c0,22.092-17.909,40-40,40s-40-17.909-40-40s17.909-40,40-40
	C716.494,174.25,734.402,192.159,734.402,214.25z"/>
<path fill="#E4F5FF" d="M92.402,65.217c46.944,0,85,38.056,85,85s-38.056,85-85,85s-85-38.056-85-85S45.458,65.217,92.402,65.217z"
	/>
<path fill="#FFF5E9" d="M772.902,116.25c0,31.757-25.744,57.5-57.5,57.5s-57.5-25.744-57.5-57.5s25.744-57.5,57.5-57.5
	C747.159,58.75,772.902,84.494,772.902,116.25z"/>
<g>
	<g>
		<g>
			
				<line fill="none" stroke="#666666" stroke-width="0.8908" stroke-miterlimit="10" x1="525" y1="150.884" x2="525.891" y2="150.884"/>
			
				<line fill="none" stroke="#666666" stroke-width="0.8908" stroke-miterlimit="10" stroke-dasharray="1.7706,1.7706" x1="527.661" y1="150.884" x2="594.057" y2="150.884"/>
			
				<line fill="none" stroke="#666666" stroke-width="0.8908" stroke-miterlimit="10" x1="594.943" y1="150.884" x2="595.833" y2="150.884"/>
		</g>
	</g>
</g>
<g>
	<g>
		<g>
			
				<line fill="none" stroke="#666666" stroke-width="0.9374" stroke-miterlimit="10" x1="207.833" y1="150.884" x2="208.771" y2="150.884"/>
			
				<line fill="none" stroke="#666666" stroke-width="0.9374" stroke-miterlimit="10" stroke-dasharray="1.8671,1.8671" x1="210.638" y1="150.884" x2="284.386" y2="150.884"/>
			
				<line fill="none" stroke="#666666" stroke-width="0.9374" stroke-miterlimit="10" x1="285.32" y1="150.884" x2="286.257" y2="150.884"/>
		</g>
	</g>
</g>
<path fill="#FFEACB" d="M663.402,263.25c0,14.912-12.088,27-27,27s-27-12.088-27-27c0-14.911,12.088-27,27-27
	C651.314,236.25,663.402,248.338,663.402,263.25z"/>
<path fill="#FFEACB" d="M730.402,214.25c0,19.882-16.118,36-36,36s-36-16.118-36-36s16.118-36,36-36
	C714.285,178.25,730.402,194.368,730.402,214.25z"/>
<path fill="#FFF1DF" d="M404.5,146.884c25.405,0,46,20.595,46,46s-20.595,46-46,46s-46-20.595-46-46S379.095,146.884,404.5,146.884z
	"/>
<path fill="#BFE7FF" d="M92.402,71.218c43.631,0,79,35.369,79,79c0,43.63-35.37,79-79,79s-79-35.37-79-79
	C13.402,106.587,48.772,71.218,92.402,71.218z"/>
<path fill="#FFEACB" d="M767.902,116.25c0,28.995-23.505,52.5-52.5,52.5s-52.5-23.505-52.5-52.5s23.505-52.5,52.5-52.5
	S767.902,87.255,767.902,116.25z"/>
<g>
	<path fill="#FF6C00" d="M683.306,206.206v2.193h6.418v0.864h-6.418v2.706h4.338v0.768c-0.913,1.857-2.257,3.425-4.05,4.738
		c0.849,0.528,1.793,1.008,2.849,1.425c1.153,0.448,2.369,0.832,3.666,1.152l-0.48,0.769c-1.376-0.353-2.689-0.8-3.906-1.313
		c-1.056-0.464-2.017-0.976-2.865-1.521c-1.825,1.185-4.034,2.129-6.626,2.833l-0.496-0.752c2.529-0.64,4.674-1.489,6.418-2.577
		c-0.833-0.624-1.584-1.345-2.225-2.161c-0.608-0.769-1.024-1.617-1.28-2.545h-1.329v-0.816h5.09v-2.706h-6.322v-0.864h6.322v-2.193
		L683.306,206.206L683.306,206.206z M686.667,212.784h-7.171c0.272,0.913,0.736,1.729,1.393,2.465
		c0.576,0.656,1.249,1.249,1.985,1.761C684.538,215.826,685.803,214.417,686.667,212.784z"/>
	<path fill="#FF6C00" d="M696.072,206.446c-0.352,1.104-0.784,2.161-1.296,3.153v11.252h-0.864v-9.732
		c-0.64,0.993-1.345,1.937-2.145,2.817l-0.288-0.896c1.761-2.049,3.009-4.37,3.777-6.963L696.072,206.446z M702.875,209.775v-3.538
		h0.865v3.538h2.369v0.864h-2.369v8.515c0,1.024-0.464,1.537-1.377,1.537h-2.289l-0.192-0.832c0.752,0.032,1.473,0.064,2.177,0.064
		c0.544,0,0.816-0.336,0.816-0.993v-8.291h-6.354v-0.864H702.875z M700.746,216.434l-0.736,0.513
		c-0.705-1.185-1.665-2.497-2.881-3.938l0.704-0.448C699.098,214.033,700.074,215.33,700.746,216.434z"/>
	<path fill="#FF6C00" d="M714.394,208.431c0.64,0.56,0.96,1.312,0.96,2.241c0,1.312-0.624,2.177-1.856,2.593
		c0.656,0.208,1.168,0.544,1.537,1.008s0.56,1.024,0.56,1.697c0,1.024-0.368,1.873-1.072,2.529c-0.72,0.641-1.649,0.977-2.785,0.977
		c-1.024,0-1.873-0.272-2.545-0.8c-0.833-0.64-1.281-1.617-1.376-2.897h0.992c0.048,0.977,0.384,1.713,1.024,2.225
		c0.512,0.416,1.136,0.625,1.889,0.625c0.88,0,1.584-0.256,2.129-0.752c0.512-0.496,0.769-1.121,0.769-1.873
		c0-0.72-0.256-1.28-0.736-1.696c-0.48-0.417-1.121-0.608-1.937-0.608h-1.008v-0.8h0.912c0.816,0,1.441-0.192,1.889-0.561
		c0.416-0.384,0.64-0.912,0.64-1.616c0-0.672-0.224-1.217-0.656-1.633c-0.464-0.416-1.104-0.625-1.905-0.625
		s-1.44,0.224-1.905,0.688c-0.48,0.448-0.769,1.072-0.864,1.905h-0.977c0.096-1.072,0.496-1.921,1.185-2.545
		c0.656-0.608,1.504-0.913,2.561-0.913C712.873,207.598,713.737,207.871,714.394,208.431z"/>
</g>
<g>
	<path fill="#FF6C00" d="M534.46,122.117l-0.168-0.728c0.406,0.028,0.798,0.056,1.163,0.056c0.378,0,0.575-0.196,0.575-0.575v-3.768
		c-0.575,0.238-1.163,0.448-1.765,0.63l-0.196-0.756c0.672-0.168,1.331-0.378,1.961-0.616v-3.376h-1.793v-0.742h1.793v-2.718h0.756
		v2.718h1.513v0.742h-1.513v3.054c0.448-0.21,0.896-0.434,1.331-0.672v0.771c-0.448,0.224-0.882,0.448-1.331,0.645v4.272
		c0,0.701-0.364,1.064-1.065,1.064h-1.261V122.117z M546.437,115.87v0.7h-3.586v1.807h3.04v0.687h-3.04v2.073
		c0.588,0.084,1.289,0.14,2.129,0.14c0.714,0,1.316-0.028,1.807-0.056l-0.21,0.757c-0.56,0-1.079-0.014-1.541-0.028
		c-1.849,0-3.11-0.182-3.768-0.532c-0.561-0.308-1.065-0.924-1.513-1.821c-0.336,0.953-0.84,1.835-1.513,2.633l-0.56-0.504
		c1.121-1.316,1.723-2.801,1.821-4.454l0.687,0.084c-0.028,0.504-0.098,0.98-0.21,1.443c0.477,1.05,1.037,1.723,1.653,2.017
		c0.14,0.056,0.294,0.112,0.476,0.168v-4.413h-3.642v-0.7L546.437,115.87L546.437,115.87z M545.484,110v4.721h-5.996V110H545.484z
		 M544.728,112.074v-1.429h-4.497v1.429H544.728z M544.728,112.69h-4.497v1.387h4.497V112.69z"/>
	<path fill="#FF6C00" d="M548.11,116.136l-0.238-0.812c1.597-1.751,2.745-3.74,3.446-5.967l0.7,0.336
		c-0.378,1.121-0.854,2.185-1.415,3.166v9.399h-0.756v-8.222C549.329,114.777,548.754,115.478,548.11,116.136z M554.147,112.536
		v-2.998h0.756v2.998h2.788v-2.998h0.756v2.998h1.961v0.756h-1.961v3.502h2.353v0.743h-8.951v-0.743h2.297v-3.502h-1.919v-0.756
		H554.147z M555.226,118.657c-0.729,1.358-1.597,2.535-2.605,3.53l-0.659-0.462c0.995-0.953,1.849-2.087,2.578-3.404
		L555.226,118.657z M557.691,116.794v-3.502h-2.788v3.502H557.691z M560.605,121.725l-0.672,0.477
		c-0.645-1.079-1.541-2.27-2.689-3.572l0.616-0.392C559.064,119.567,559.975,120.73,560.605,121.725z"/>
	<path fill="#FF6C00" d="M568.764,109.468v1.919h5.617v0.756h-5.617v2.367h3.796v0.672c-0.798,1.625-1.975,2.998-3.544,4.146
		c0.743,0.462,1.569,0.882,2.494,1.247c1.008,0.392,2.073,0.729,3.208,1.008l-0.42,0.672c-1.205-0.308-2.353-0.7-3.417-1.148
		c-0.925-0.406-1.765-0.854-2.507-1.331c-1.597,1.037-3.53,1.863-5.799,2.479l-0.434-0.658c2.213-0.56,4.09-1.303,5.617-2.255
		c-0.728-0.546-1.387-1.176-1.947-1.891c-0.532-0.672-0.896-1.415-1.121-2.228h-1.163v-0.714h4.454v-2.367h-5.533v-0.756h5.533
		v-1.919L568.764,109.468L568.764,109.468z M571.705,115.225h-6.275c0.238,0.798,0.645,1.513,1.219,2.157
		c0.504,0.574,1.093,1.093,1.737,1.541C569.842,117.887,570.949,116.654,571.705,115.225z"/>
	<path fill="#FF6C00" d="M579.934,109.678c-0.308,0.966-0.687,1.891-1.135,2.759v9.848h-0.756v-8.517
		c-0.56,0.868-1.176,1.695-1.877,2.465l-0.252-0.785c1.541-1.793,2.633-3.824,3.306-6.093L579.934,109.678z M585.887,112.592v-3.096
		h0.756v3.096h2.073v0.756h-2.073v7.452c0,0.896-0.406,1.345-1.205,1.345h-2.003l-0.168-0.729c0.658,0.028,1.289,0.056,1.905,0.056
		c0.477,0,0.714-0.294,0.714-0.869v-7.256h-5.561v-0.756L585.887,112.592L585.887,112.592z M584.024,118.419l-0.645,0.448
		c-0.616-1.037-1.457-2.185-2.521-3.446l0.617-0.392C582.582,116.318,583.436,117.453,584.024,118.419z"/>
	<path fill="#FF6C00" d="M548.88,139.071l-0.588-0.518c0.561-1.317,0.854-2.97,0.869-4.987v-6.625h3.894v10.926
		c0,0.756-0.364,1.148-1.093,1.148h-1.121l-0.182-0.672c0.392,0.014,0.742,0.028,1.078,0.028c0.393,0,0.603-0.252,0.603-0.756
		v-3.432h-2.507C549.763,136.171,549.441,137.796,548.88,139.071z M552.34,127.655h-2.493v2.577h2.493V127.655z M549.847,133.468
		h2.493v-2.549h-2.493V133.468z M555.1,139.057h-0.714V126.94h5.519c0,1.653-0.084,2.759-0.252,3.306
		c-0.154,0.56-0.672,0.84-1.569,0.84h-1.079l-0.21-0.658h0.938c0.364,0,0.63-0.028,0.812-0.084c0.168-0.056,0.308-0.196,0.406-0.42
		c0.112-0.364,0.182-1.121,0.196-2.283H555.1v4.468h4.805v0.645c-0.294,1.513-0.784,2.788-1.485,3.824
		c0.672,0.672,1.485,1.274,2.41,1.793l-0.364,0.63c-0.98-0.561-1.807-1.177-2.465-1.849c-0.63,0.771-1.387,1.387-2.27,1.863
		l-0.392-0.602c0.84-0.477,1.569-1.064,2.157-1.793c-0.953-1.121-1.597-2.396-1.933-3.824H555.1V139.057z M557.916,136.045
		c0.602-0.925,1.036-2.017,1.303-3.25h-2.998C556.529,134,557.103,135.093,557.916,136.045z"/>
	<path fill="#FF6C00" d="M567.139,126.338c-0.168,0.406-0.378,0.798-0.602,1.163h6.205v0.616c-0.938,1.093-2.087,2.003-3.446,2.746
		c1.625,0.729,3.46,1.205,5.491,1.429l-0.336,0.714c-2.241-0.266-4.23-0.84-5.981-1.723c-1.737,0.798-3.754,1.373-6.079,1.737
		l-0.35-0.7c2.143-0.294,4.02-0.785,5.631-1.471c-0.868-0.518-1.681-1.106-2.437-1.779c-0.546,0.504-1.177,0.98-1.891,1.401
		l-0.462-0.603c1.723-0.98,2.886-2.199,3.488-3.642L567.139,126.338z M568.469,132.403c0,0.616-0.056,1.177-0.154,1.709h4.987
		c-0.028,2.297-0.238,3.684-0.645,4.132s-1.121,0.686-2.129,0.686c-0.42,0-0.938-0.014-1.541-0.042l-0.196-0.7
		c0.63,0.028,1.149,0.056,1.569,0.056c0.925-0.014,1.513-0.196,1.751-0.561c0.238-0.378,0.378-1.345,0.435-2.886h-4.398
		c-0.14,0.42-0.294,0.799-0.49,1.149c-0.743,1.261-2.381,2.297-4.931,3.109l-0.504-0.602c2.297-0.687,3.838-1.569,4.623-2.633
		c0.196-0.322,0.35-0.659,0.49-1.023h-4.329v-0.686h4.539c0.112-0.532,0.182-1.107,0.182-1.709h0.741V132.403z M571.663,128.215
		h-5.645c-0.098,0.112-0.196,0.224-0.28,0.336c0.827,0.756,1.737,1.387,2.746,1.919C569.716,129.84,570.781,129.083,571.663,128.215
		z"/>
</g>
<g>
	<path fill="#FF6C00" d="M624.806,254.705v2.193h6.418v0.864h-6.418v2.706h4.338v0.768c-0.913,1.857-2.257,3.425-4.05,4.738
		c0.849,0.528,1.793,1.008,2.849,1.425c1.153,0.448,2.369,0.832,3.666,1.152l-0.48,0.769c-1.376-0.353-2.689-0.8-3.906-1.313
		c-1.056-0.464-2.017-0.976-2.865-1.521c-1.825,1.185-4.034,2.129-6.626,2.833l-0.496-0.752c2.529-0.64,4.674-1.489,6.418-2.577
		c-0.833-0.624-1.584-1.345-2.225-2.161c-0.608-0.769-1.024-1.617-1.28-2.545h-1.329v-0.816h5.09v-2.706h-6.322v-0.864h6.322v-2.193
		L624.806,254.705L624.806,254.705z M628.167,261.283h-7.171c0.272,0.913,0.736,1.729,1.393,2.465
		c0.576,0.656,1.249,1.249,1.985,1.761C626.038,264.325,627.303,262.916,628.167,261.283z"/>
	<path fill="#FF6C00" d="M637.572,254.945c-0.352,1.104-0.784,2.161-1.296,3.153v11.252h-0.864v-9.732
		c-0.64,0.993-1.345,1.937-2.145,2.817l-0.288-0.896c1.761-2.049,3.009-4.37,3.777-6.963L637.572,254.945z M644.375,258.274v-3.538
		h0.865v3.538h2.369v0.864h-2.369v8.515c0,1.024-0.464,1.537-1.377,1.537h-2.289l-0.192-0.832c0.752,0.032,1.473,0.064,2.177,0.064
		c0.544,0,0.816-0.336,0.816-0.993v-8.291h-6.354v-0.864H644.375z M642.246,264.933l-0.736,0.513
		c-0.705-1.185-1.665-2.497-2.881-3.938l0.704-0.448C640.598,262.532,641.574,263.829,642.246,264.933z"/>
	<path fill="#FF6C00" d="M655.653,256.321v7.939h1.937v0.816h-1.937v2.673h-0.944v-2.673h-5.891v-0.945l5.891-7.811h0.944V256.321z
		 M649.699,264.261h5.01v-6.611h-0.048L649.699,264.261z"/>
</g>
<g>
	<path fill="#0099FF" d="M66.085,158.16l-0.28-1.06l1.98,0.06c0.58,0,0.88-0.3,0.88-0.9v-14.263H55.143v16.244h-1.08v-17.304h15.683
		V156.5c0,1.1-0.54,1.66-1.62,1.66H66.085z M59.324,150.599c-0.76,2.081-1.7,3.841-2.78,5.301l-0.7-0.84
		c1.12-1.561,2.041-3.381,2.761-5.481c-1.021-1.36-2-2.581-2.941-3.621l0.68-0.68c0.8,0.84,1.68,1.9,2.621,3.161
		c0.44-1.52,0.78-3.161,1.06-4.921l1.021,0.18c-0.34,2.12-0.78,4.041-1.32,5.761c0.8,1.08,1.62,2.3,2.48,3.641l-0.72,0.7
		C60.744,152.639,60.024,151.579,59.324,150.599z M65.165,151.059c-0.84,2.081-1.84,3.841-3,5.321l-0.68-0.84
		c1.2-1.56,2.181-3.42,2.96-5.541c-1-1.46-1.96-2.741-2.9-3.861l0.7-0.68c0.8,0.92,1.68,2.041,2.601,3.381
		c0.52-1.601,0.92-3.361,1.22-5.261l1.02,0.18c-0.38,2.28-0.88,4.321-1.5,6.161c0.8,1.2,1.66,2.561,2.561,4.081l-0.72,0.72
		C66.646,153.399,65.885,152.179,65.165,151.059z"/>
	<path fill="#0099FF" d="M73.542,145.558l-0.32-1.061c2.38-1.36,4.101-2.86,5.161-4.541l0.92,0.44c-0.52,0.84-1.16,1.62-1.92,2.36
		v4.921h-1.08v-3.961C75.483,144.357,74.563,144.978,73.542,145.558z M82.705,150.839c-0.26,2.561-0.88,4.301-1.84,5.221
		c-1.08,1.121-3.381,1.801-6.921,2.081l-0.42-0.98c3.261-0.18,5.421-0.78,6.461-1.78c0.94-0.92,1.5-2.461,1.661-4.641
		L82.705,150.839z M88.206,154.58h-1.081v-4.881H77.104v5.061h-1.06v-6.061h12.163L88.206,154.58L88.206,154.58z M89.986,143.037
		l-5.921,1.02c0.26,0.4,0.54,0.76,0.82,1.081c1.02,1.06,2.14,1.6,3.36,1.62c0.26,0,0.48-0.12,0.68-0.34
		c0.22-0.36,0.4-0.96,0.561-1.841l1.04,0.44c-0.28,1.12-0.56,1.86-0.84,2.2c-0.3,0.36-0.68,0.54-1.16,0.54c-1.6,0-3-0.6-4.241-1.76
		c-0.5-0.48-0.94-1.06-1.32-1.74l-4.281,0.74l-0.14-1l3.921-0.7c-0.44-0.92-0.82-1.98-1.141-3.161l1.141-0.12
		c0.3,1.2,0.66,2.22,1.08,3.101l6.301-1.101L89.986,143.037z M90.386,157.34l-0.62,0.94c-2.32-1.24-4.681-2.241-7.102-2.96
		l0.58-0.82C85.845,155.28,88.226,156.22,90.386,157.34z M87.826,141.537l-0.66,0.64c-0.6-0.54-1.4-1.1-2.42-1.7l0.64-0.62
		C86.345,140.417,87.166,140.977,87.826,141.537z"/>
	<path fill="#0099FF" d="M109.966,141.037v1.08h-7.602v7.902h8.342v1.06h-8.342v7.202h-1.081v-7.202h-8.182v-1.06h8.182v-7.902
		h-7.381v-1.08H109.966z M98.264,148.278l-1.02,0.5c-0.68-1.74-1.42-3.281-2.181-4.641l1-0.48
		C96.843,145.058,97.583,146.598,98.264,148.278z M108.826,143.977c-0.64,1.641-1.48,3.221-2.481,4.741l-0.98-0.5
		c1.04-1.581,1.86-3.141,2.46-4.701L108.826,143.977z"/>
	<path fill="#0099FF" d="M113.623,146.858c1.94-0.8,4.181-3.081,6.702-6.841l1.1,0.38c-1.94,2.82-3.861,4.961-5.781,6.421
		c4.241-0.18,8.142-0.44,11.743-0.8c-0.88-1.2-1.76-2.3-2.641-3.301l1-0.48c1.761,2.041,3.421,4.241,4.941,6.642l-1.041,0.52
		c-0.52-0.86-1.06-1.661-1.58-2.42c-4.241,0.4-8.982,0.7-14.243,0.9L113.623,146.858z M128.466,158.32h-1.08v-1.14h-10.962v1.14
		h-1.08v-8.202h13.123L128.466,158.32L128.466,158.32z M127.386,156.12v-4.961h-10.962v4.961H127.386z"/>
</g>
<g>
	<path fill="#FF6C00" d="M381.204,87.781c0.28-0.74,0.54-1.48,0.74-2.24l1.1,0.12c-0.2,0.74-0.44,1.44-0.68,2.121h10.402v1.06
		h-10.822c-0.72,1.721-1.641,3.301-2.721,4.761v10.282h-1.08v-8.942c-0.78,0.9-1.621,1.76-2.541,2.561l-0.66-0.88
		c2.561-2.24,4.501-4.821,5.821-7.782h-5.161v-1.06h5.602V87.781z M386.865,97.003v-2.021c1.2-0.68,2.36-1.48,3.441-2.42h-7.822
		v-1.021h9.222v1.021c-1.1,1.02-2.36,1.98-3.761,2.88v1.561h5.141v1.06h-5.141v4.161c0,1.041-0.54,1.561-1.58,1.561h-2.5l-0.28-1.02
		c0.72,0.02,1.521,0.04,2.36,0.04c0.601,0,0.92-0.32,0.92-0.92v-3.821h-5.941v-1.06L386.865,97.003L386.865,97.003z"/>
	<path fill="#FF6C00" d="M396.123,90.342l-0.92-0.58c1.24-1.28,2.161-2.701,2.741-4.281l1.06,0.22c-0.2,0.48-0.4,0.96-0.62,1.42
		h5.621v0.98h-3.621c0.52,0.7,0.92,1.34,1.22,1.94l-0.98,0.38c-0.4-0.8-0.88-1.561-1.4-2.32h-1.38
		C397.343,88.901,396.763,89.662,396.123,90.342z M412.466,94.603h-1.06v-2.5h-14.643v2.5h-1.061v-3.44h8.082
		c-0.24-0.54-0.48-1.021-0.72-1.46l1.06-0.2c0.26,0.48,0.5,1.041,0.72,1.661h7.622V94.603z M409.726,97.243h-10.183v1.621h11.103
		v4.961h-1.08v-0.9h-10.022v0.88h-1.08V93.502h11.263v3.741H409.726z M408.665,96.343v-1.92h-9.122v1.92H408.665z M409.565,101.944
		v-2.181h-10.022v2.181H409.565z M405.205,90.082l-0.92-0.6c0.98-1.18,1.7-2.5,2.161-3.98l1.02,0.22c-0.16,0.48-0.34,0.96-0.52,1.4
		h5.981v0.98h-3.781c0.48,0.64,0.86,1.22,1.141,1.78l-0.98,0.34c-0.38-0.72-0.82-1.44-1.34-2.12h-1.48
		C406.104,88.821,405.685,89.481,405.205,90.082z"/>
	<path fill="#FF6C00" d="M420.664,86.241c-1.14,2.241-2.921,4.201-5.361,5.861l-0.34-1.08c2.18-1.541,3.761-3.281,4.721-5.241
		L420.664,86.241z M421.604,90.802c-0.62,1.2-1.38,2.321-2.3,3.361v9.682h-1.06v-8.582c-0.88,0.8-1.821,1.561-2.841,2.261
		l-0.34-1.081c2.581-1.8,4.441-3.821,5.582-6.101L421.604,90.802z M433.006,92.142v1.061h-3.32v8.942c0,1.06-0.62,1.6-1.821,1.6
		h-2.94l-0.24-1.04c0.98,0.04,1.92,0.08,2.821,0.08c0.72,0,1.08-0.3,1.08-0.9v-8.682h-6.521v-1.061H433.006z M432.086,87.001v1.061
		h-9.442v-1.061H432.086z"/>
</g>
<g>
	<path fill="#FF6C00" d="M350.703,126.437h-0.864v-1.088h-8.835v1.088h-0.864v-12.613h3.377c0.384-0.656,0.672-1.329,0.848-2.033
		l0.88,0.128c-0.192,0.672-0.464,1.312-0.816,1.905h6.274L350.703,126.437L350.703,126.437z M349.839,117.313v-2.657h-8.835v2.657
		H349.839z M349.839,120.819v-2.673h-8.835v2.673H349.839z M349.839,124.516v-2.865h-8.835v2.865H349.839z"/>
	<path fill="#FF6C00" d="M354.922,115.521v-0.848h13.014v0.848h-6.067v4.114h5.282v0.832h-5.282v4.578h6.611v0.848h-14.102v-0.848
		h6.611v-4.578h-5.298v-0.832h5.298v-4.114H354.922z M361.901,114.256l-0.784,0.288c-0.272-0.848-0.608-1.681-1.008-2.481
		l0.864-0.24C361.357,112.719,361.677,113.52,361.901,114.256z"/>
	<path fill="#FF6C00" d="M373.884,115.92v0.688c-0.592,1.024-1.281,2.017-2.065,2.977h2.657v0.592
		c-0.352,1.377-0.816,2.529-1.376,3.441c0.128,0.064,0.256,0.16,0.384,0.272c0.497,0.48,1.024,0.848,1.601,1.104
		c0.56,0.208,1.312,0.32,2.273,0.336c0.896,0,1.904,0.016,3.041,0.016c1.104,0,2.545-0.032,4.322-0.064l-0.192,0.832h-4.002
		c-1.28,0-2.369-0.016-3.233-0.032c-1.12-0.032-1.969-0.16-2.561-0.417c-0.656-0.272-1.264-0.688-1.825-1.232
		c-0.128-0.112-0.272-0.16-0.4-0.16c-0.417,0-0.993,0.688-1.697,2.081l-0.624-0.56c0.752-1.489,1.472-2.273,2.145-2.353
		c0.544-0.88,0.977-1.921,1.312-3.105h-2.849v-0.672c0.849-0.992,1.569-1.969,2.161-2.945h-2.641v-0.801h3.569V115.92z
		 M374.028,114.176l-0.608,0.608c-0.64-0.672-1.488-1.376-2.577-2.113l0.608-0.576C372.475,112.783,373.339,113.472,374.028,114.176
		z M384.544,116.497v0.832h-5.218c-0.993,2.561-1.857,4.306-2.561,5.202c2.305-0.224,4.209-0.496,5.682-0.832
		c-0.432-0.977-0.913-1.921-1.44-2.817l0.72-0.224c0.896,1.473,1.681,3.153,2.385,5.058l-0.784,0.192
		c-0.176-0.512-0.368-0.992-0.56-1.44c-1.761,0.384-4.114,0.704-7.059,0.96l-0.224-0.769c0.688-0.192,1.681-1.969,2.977-5.33h-3.457
		v-0.832H384.544z M383.375,112.832v0.832h-7.347v-0.832H383.375z"/>
	<path fill="#FF6C00" d="M390.284,113.023v-1.152h0.864v1.152h4.546v-1.152h0.864v1.152h3.697v0.784h-3.697v1.041h-0.864v-1.041
		h-4.546v1.041h-0.864v-1.041h-3.698v-0.784H390.284z M399.744,118.498h-0.848v-2.097h-10.949v2.177h-0.848v-2.945h12.645V118.498z
		 M398.847,126.453h-0.848v-0.672h-8.996v0.672h-0.848v-4.37h10.692V126.453z M397.999,125.028v-2.177h-8.996v2.177H397.999z
		 M397.311,117.729v3.105h-7.715v-3.105H397.311z M396.495,118.417h-6.083v1.729h6.083V118.417z"/>
	<path fill="#FF6C00" d="M420.031,126.437h-0.864v-1.088h-8.835v1.088h-0.864v-12.613h3.377c0.384-0.656,0.672-1.329,0.848-2.033
		l0.88,0.128c-0.192,0.672-0.464,1.312-0.816,1.905h6.274L420.031,126.437L420.031,126.437z M419.167,117.313v-2.657h-8.835v2.657
		H419.167z M419.167,120.819v-2.673h-8.835v2.673H419.167z M419.167,124.516v-2.865h-8.835v2.865H419.167z"/>
	<path fill="#FF6C00" d="M424.25,115.521v-0.848h13.014v0.848h-6.067v4.114h5.282v0.832h-5.282v4.578h6.611v0.848h-14.102v-0.848
		h6.611v-4.578h-5.298v-0.832h5.298v-4.114H424.25z M431.229,114.256l-0.784,0.288c-0.272-0.848-0.608-1.681-1.008-2.481l0.864-0.24
		C430.686,112.719,431.005,113.52,431.229,114.256z"/>
	<path fill="#FF6C00" d="M440.379,115.648l-0.736-0.464c0.992-1.024,1.729-2.161,2.193-3.426l0.848,0.176
		c-0.16,0.384-0.32,0.768-0.496,1.136h4.498v0.785h-2.897c0.416,0.56,0.736,1.072,0.977,1.553l-0.785,0.304
		c-0.32-0.64-0.704-1.249-1.12-1.856h-1.104C441.355,114.496,440.891,115.104,440.379,115.648z M453.456,119.058h-0.848v-2.001
		h-11.717v2.001h-0.849v-2.753h6.467c-0.192-0.432-0.384-0.816-0.576-1.168l0.848-0.16c0.208,0.384,0.4,0.833,0.576,1.329h6.099
		V119.058z M451.263,121.171h-8.147v1.296H452v3.97h-0.864v-0.72h-8.02v0.704h-0.864v-8.243h9.012L451.263,121.171L451.263,121.171z
		 M450.415,120.451v-1.537h-7.299v1.537H450.415z M451.135,124.932v-1.745h-8.02v1.745H451.135z M447.646,115.44l-0.736-0.48
		c0.785-0.944,1.361-2.001,1.729-3.186l0.816,0.176c-0.128,0.384-0.272,0.768-0.417,1.12h4.786v0.785h-3.025
		c0.384,0.512,0.688,0.976,0.913,1.424l-0.784,0.272c-0.304-0.577-0.657-1.153-1.073-1.697h-1.185
		C448.366,114.432,448.03,114.96,447.646,115.44z"/>
	<path fill="#FF6C00" d="M457.659,117.874v-4.066h-2.113v-0.832h5.074v0.832h-2.097v4.066h1.905v0.848h-1.905v3.986
		c0.672-0.24,1.312-0.496,1.921-0.752v0.848c-1.473,0.625-3.073,1.137-4.786,1.553l-0.208-0.816c0.769-0.16,1.505-0.336,2.209-0.56
		v-4.258h-1.889v-0.848L457.659,117.874L457.659,117.874z M469.136,112.543v7.203h-3.377v2.145h3.697v0.816h-3.697v2.385h4.306
		v0.849h-9.572v-0.849h4.402v-2.385h-3.697v-0.816h3.697v-2.145h-3.377v-7.203H469.136z M464.894,115.792v-2.465h-2.545v2.465
		H464.894z M464.894,116.545h-2.545v2.417h2.545V116.545z M465.759,115.792h2.529v-2.465h-2.529V115.792z M468.288,116.545h-2.529
		v2.417h2.529V116.545z"/>
</g>
<g>
	<path fill="#0099FF" d="M218.097,122.117l-0.168-0.728c0.42,0.028,0.812,0.056,1.177,0.056s0.561-0.196,0.561-0.561v-3.782
		c-0.617,0.252-1.233,0.477-1.863,0.672l-0.196-0.756c0.7-0.182,1.387-0.406,2.059-0.672v-3.362h-1.821v-0.742h1.821v-2.746h0.756
		v2.746h1.274v0.742h-1.274v3.04c0.434-0.21,0.868-0.434,1.303-0.672v0.771c-0.435,0.224-0.869,0.448-1.303,0.645v4.314
		c0,0.686-0.351,1.036-1.051,1.036h-1.275V122.117z M225.856,115.281c-0.168,0.448-0.336,0.882-0.518,1.289h5.015v0.729h-1.499
		c-0.224,1.121-0.687,2.059-1.415,2.802c1.009,0.476,1.989,0.98,2.941,1.541l-0.42,0.603c-0.911-0.561-1.933-1.107-3.082-1.653
		c-0.938,0.686-2.438,1.232-4.497,1.653l-0.294-0.687c1.765-0.336,3.109-0.771,4.006-1.331c-0.896-0.42-1.863-0.827-2.899-1.233
		c0.364-0.588,0.7-1.148,0.995-1.695h-2.003v-0.729h2.367c0.225-0.476,0.42-0.938,0.575-1.373L225.856,115.281z M226.655,110.799
		h3.208v0.7h-1.05c-0.28,0.938-0.603,1.779-0.967,2.507h2.269v0.715h-7.746v-0.715h2.228c-0.252-0.896-0.561-1.737-0.939-2.507
		h-0.952v-0.7h3.208c-0.182-0.504-0.378-0.953-0.602-1.345l0.784-0.14C226.291,109.748,226.487,110.239,226.655,110.799z
		 M224.988,117.298c-0.252,0.49-0.532,0.953-0.84,1.401c0.868,0.322,1.737,0.672,2.577,1.064c0.714-0.645,1.191-1.457,1.415-2.465
		C228.14,117.298,224.988,117.298,224.988,117.298z M228.042,111.499h-3.586c0.308,0.729,0.602,1.555,0.882,2.507h1.793
		C227.468,113.208,227.776,112.368,228.042,111.499z"/>
	<path fill="#0099FF" d="M237.812,110.883h-2.143v-0.756h2.717c0.393,4.314,2.381,8.083,5.967,11.332l-0.434,0.645
		c-3.096-2.746-5.043-5.939-5.827-9.567c-0.98,4.132-2.956,7.312-5.953,9.525l-0.477-0.645c3.222-2.381,5.267-5.869,6.164-10.463
		C237.812,110.925,237.812,110.897,237.812,110.883z"/>
	<path fill="#0099FF" d="M248.282,109.65c-0.14,0.532-0.28,1.022-0.42,1.499h2.844v0.714h-3.096
		c-0.392,1.022-0.827,1.947-1.331,2.76l-0.63-0.406c0.868-1.401,1.499-2.97,1.905-4.721L248.282,109.65z M250.383,113.853v0.7
		h-1.555v2.059h2.017v0.714h-2.017v3.628c0.56-0.182,1.121-0.434,1.695-0.756l0.14,0.672c-0.756,0.406-1.639,0.743-2.634,1.023
		l-0.294-0.645c0.238-0.07,0.364-0.182,0.364-0.322v-3.6h-2.115v-0.714h2.115v-2.059h-1.037v-0.7
		C247.062,113.853,250.383,113.853,250.383,113.853z M258.241,117.229c-0.672,0.784-1.429,1.373-2.283,1.765
		c0.616,0.98,1.429,1.807,2.465,2.494l-0.393,0.644c-2.185-1.513-3.502-3.614-3.95-6.303h-1.765v5.295
		c0.882-0.224,1.765-0.532,2.647-0.911l0.168,0.687c-0.966,0.392-2.185,0.784-3.642,1.148l-0.168-0.645
		c0.182-0.056,0.28-0.14,0.28-0.266v-11.052h5.743v5.743h-2.578c0.168,0.938,0.448,1.793,0.854,2.577
		c0.756-0.364,1.457-0.91,2.115-1.667L258.241,117.229z M256.644,110.785h-4.328v1.849h4.328V110.785z M252.316,115.141h4.328
		v-1.835h-4.328L252.316,115.141L252.316,115.141z"/>
	<path fill="#0099FF" d="M263.654,109.93c-0.798,1.569-2.045,2.942-3.754,4.104l-0.238-0.756c1.527-1.079,2.634-2.297,3.306-3.67
		L263.654,109.93z M264.312,113.124c-0.434,0.84-0.966,1.625-1.611,2.354v6.779h-0.742v-6.009c-0.616,0.561-1.275,1.093-1.989,1.583
		l-0.238-0.756c1.807-1.261,3.109-2.675,3.908-4.272L264.312,113.124z M272.297,114.062v0.743h-2.325v6.261
		c0,0.742-0.434,1.121-1.274,1.121h-2.059l-0.168-0.729c0.687,0.028,1.345,0.056,1.975,0.056c0.504,0,0.756-0.21,0.756-0.63v-6.079
		h-4.566v-0.743C264.636,114.062,272.297,114.062,272.297,114.062z M271.653,110.462v0.743h-6.612v-0.743H271.653z"/>
	<path fill="#0099FF" d="M221.15,129.77c-0.7,0.742-1.569,1.442-2.605,2.087l-0.504-0.574c1.064-0.63,1.947-1.303,2.661-2.031
		L221.15,129.77z M224.512,133.958c-0.196,1.765-0.616,2.97-1.289,3.6c-0.729,0.771-2.325,1.261-4.776,1.457l-0.308-0.686
		c2.241-0.126,3.726-0.532,4.454-1.219c0.645-0.645,1.037-1.709,1.149-3.222L224.512,133.958z M220.968,127.613l-0.406,0.63
		c-0.743-0.448-1.513-0.785-2.297-1.023l0.392-0.574C219.497,126.912,220.268,127.234,220.968,127.613z M228.462,136.675h-0.771
		v-3.446h-7.34v3.53h-0.771v-4.245h8.881L228.462,136.675L228.462,136.675z M224.063,126.324c-0.112,0.351-0.252,0.672-0.406,0.981
		h5.757v0.476c-0.168,0.7-0.406,1.373-0.7,2.031l-0.729-0.21c0.266-0.476,0.476-1.022,0.645-1.611h-2.634
		c-0.07,0.364-0.168,0.714-0.28,1.022c0.756,1.163,2.213,1.961,4.398,2.381l-0.266,0.659c-2.101-0.42-3.586-1.219-4.426-2.396
		c-0.196,0.308-0.42,0.603-0.672,0.854c-0.687,0.645-1.807,1.148-3.348,1.513l-0.294-0.686c1.415-0.309,2.438-0.729,3.068-1.289
		c0.56-0.504,0.924-1.19,1.106-2.059h-2.045c-0.378,0.532-0.84,1.009-1.401,1.429l-0.462-0.602c0.967-0.701,1.611-1.569,1.947-2.578
		L224.063,126.324z M229.849,138.468l-0.406,0.63c-1.611-0.784-3.264-1.4-4.958-1.849l0.392-0.575
		C226.697,137.152,228.35,137.754,229.849,138.468z"/>
	<path fill="#0099FF" d="M238.372,126.422c1.373,1.709,3.362,3.11,5.981,4.23l-0.42,0.63c-2.437-1.037-4.398-2.423-5.869-4.132
		c-1.639,1.737-3.6,3.124-5.897,4.16l-0.42-0.616c2.438-1.106,4.44-2.536,6.009-4.272H238.372z M241.706,130.26v0.686h-3.264v2.27
		h5.085v0.714h-5.085v3.992h1.751c0.532-0.953,0.98-1.989,1.359-3.082l0.686,0.267c-0.378,1.064-0.798,2.003-1.274,2.815h3.054
		v0.728h-11.92v-0.728h3.04c-0.322-0.953-0.729-1.863-1.233-2.718l0.687-0.252c0.476,0.812,0.911,1.807,1.289,2.97h1.807v-3.992
		h-5.099v-0.714h5.099v-2.27h-3.264v-0.686H241.706z"/>
	<path fill="#0099FF" d="M250.033,127.809c0.196-0.518,0.378-1.037,0.518-1.569l0.771,0.084c-0.14,0.519-0.308,1.009-0.476,1.485
		h7.284v0.743h-7.578c-0.504,1.205-1.148,2.311-1.905,3.333v7.2h-0.756v-6.262c-0.546,0.63-1.135,1.233-1.779,1.793L245.648,134
		c1.793-1.569,3.151-3.375,4.076-5.449h-3.614v-0.743L250.033,127.809L250.033,127.809z M253.997,134.266v-1.415
		c0.841-0.477,1.653-1.037,2.41-1.695h-5.477v-0.714h6.458v0.714c-0.771,0.714-1.653,1.387-2.634,2.017v1.092h3.6v0.743h-3.6v2.914
		c0,0.728-0.378,1.092-1.106,1.092h-1.751L251.7,138.3c0.504,0.014,1.064,0.028,1.653,0.028c0.42,0,0.644-0.224,0.644-0.645v-2.675
		h-4.16v-0.743h4.16V134.266z"/>
	<path fill="#0099FF" d="M260.475,129.602l-0.645-0.406c0.869-0.896,1.513-1.891,1.919-2.998l0.742,0.154
		c-0.14,0.336-0.28,0.672-0.434,0.995h3.936v0.686h-2.535c0.364,0.49,0.644,0.938,0.854,1.359l-0.686,0.266
		c-0.28-0.56-0.616-1.093-0.98-1.625h-0.967C261.329,128.593,260.923,129.125,260.475,129.602z M271.919,132.585h-0.743v-1.751
		h-10.253v1.751h-0.742v-2.409h5.659c-0.168-0.378-0.336-0.715-0.504-1.023l0.742-0.14c0.182,0.336,0.35,0.729,0.504,1.163h5.337
		V132.585z M270,134.434h-7.13v1.135h7.774v3.474h-0.756v-0.63h-7.018v0.616h-0.756v-7.214H270V134.434z M269.257,133.804v-1.345
		h-6.387v1.345H269.257z M269.888,137.726v-1.527h-7.018v1.527H269.888z M266.834,129.419L266.19,129
		c0.686-0.827,1.19-1.751,1.513-2.788l0.714,0.154c-0.112,0.336-0.238,0.673-0.364,0.981h4.188v0.686h-2.647
		c0.336,0.448,0.602,0.854,0.798,1.247l-0.687,0.238c-0.266-0.504-0.574-1.008-0.938-1.485h-1.037
		C267.464,128.537,267.17,129,266.834,129.419z"/>
</g>
<g>
	<path fill="#FF8650" d="M385.252,174.579c-0.352,1.104-0.784,2.161-1.296,3.153v11.252h-0.864v-9.732
		c-0.64,0.993-1.345,1.937-2.145,2.817l-0.288-0.896c1.761-2.049,3.009-4.37,3.777-6.963L385.252,174.579z M392.055,177.909v-3.538
		h0.865v3.538h2.369v0.864h-2.369v8.515c0,1.024-0.464,1.537-1.377,1.537h-2.289l-0.192-0.832c0.752,0.032,1.473,0.064,2.177,0.064
		c0.544,0,0.816-0.336,0.816-0.993v-8.291H385.7v-0.864H392.055z M389.926,184.567l-0.736,0.513
		c-0.705-1.185-1.665-2.497-2.881-3.938l0.704-0.448C388.277,182.166,389.254,183.463,389.926,184.567z"/>
	<path fill="#FF8650" d="M399.875,174.515c-0.16,0.608-0.336,1.2-0.512,1.745h3.186v0.816h-3.474
		c-0.448,1.121-0.96,2.145-1.553,3.073l-0.704-0.448c1.008-1.584,1.745-3.377,2.225-5.362L399.875,174.515z M402.101,179.349v0.8
		h-1.633v2.321h2.321v0.833h-2.321v3.938c0.848-0.352,1.713-0.833,2.593-1.473l0.144,0.8c-1.057,0.752-2.273,1.376-3.649,1.857
		l-0.368-0.752c0.288-0.096,0.432-0.224,0.432-0.4v-3.97h-2.369v-0.833h2.369v-2.321h-1.185v-0.8H402.101z M410.552,178.084
		l-4.001,0.656c0.032,0.849,0.08,1.649,0.16,2.401l4.114-0.736l0.128,0.833l-4.146,0.752c0.032,0.352,0.08,0.672,0.144,0.992
		c0.16,0.833,0.353,1.569,0.592,2.209c0.833-0.8,1.569-1.713,2.225-2.737l0.688,0.448c-0.801,1.201-1.665,2.225-2.593,3.089
		c0.096,0.24,0.208,0.464,0.336,0.672c0.544,0.8,1.024,1.216,1.441,1.216c0.416,0,0.768-0.864,1.072-2.577l0.752,0.48
		c-0.4,1.985-0.977,2.993-1.729,2.993c-0.704-0.016-1.393-0.496-2.064-1.457c-0.16-0.256-0.32-0.512-0.448-0.769
		c-1.312,1.073-2.737,1.841-4.258,2.305l-0.496-0.656c1.665-0.544,3.137-1.345,4.417-2.417c-0.288-0.704-0.528-1.505-0.72-2.401
		c-0.08-0.417-0.144-0.833-0.208-1.249l-2.753,0.496l-0.128-0.833l2.77-0.496c-0.096-0.768-0.144-1.584-0.176-2.417l-2.353,0.384
		l-0.112-0.816l2.449-0.416v-3.698h0.864v3.073c0,0.16,0,0.32,0.016,0.48l3.89-0.641L410.552,178.084z M409.959,176.292l-0.672,0.48
		c-0.417-0.608-0.993-1.265-1.713-2.001l0.656-0.416C408.983,175.091,409.56,175.748,409.959,176.292z"/>
	<path fill="#FF8650" d="M418.165,181.654c-0.656,0.353-1.329,0.688-2.001,0.993v4.85c0,0.865-0.432,1.313-1.28,1.313h-1.425
		l-0.192-0.833c0.448,0.032,0.896,0.064,1.312,0.064c0.48,0,0.736-0.256,0.736-0.768v-4.258c-0.769,0.304-1.553,0.576-2.353,0.832
		l-0.208-0.88c0.88-0.224,1.729-0.496,2.561-0.816v-3.922h-2.321v-0.848h2.321v-2.978h0.848v2.978h1.905v0.848h-1.905v3.569
		c0.688-0.32,1.361-0.656,2.001-1.008L418.165,181.654L418.165,181.654z M423.126,187.384c0.769-2.225,1.457-4.994,2.033-8.323
		l0.833,0.208c-0.528,3.073-1.185,5.778-1.969,8.115h3.313v0.848h-9.172v-0.848H423.126z M422.438,177.028
		c-0.256-0.945-0.528-1.793-0.848-2.561l0.88-0.16c0.288,0.784,0.544,1.697,0.8,2.721h3.698v0.816h-8.388v-0.816L422.438,177.028
		L422.438,177.028z M421.606,186.184l-0.8,0.224c-0.368-2.401-0.833-4.722-1.376-6.931l0.784-0.256
		C420.726,181.254,421.19,183.575,421.606,186.184z"/>
</g>
<g>
	<path fill="#FF8650" d="M374.097,206.854c-0.966,1.177-2.157,2.199-3.558,3.082l-0.477-0.603c1.387-0.841,2.563-1.835,3.516-2.956
		L374.097,206.854z M374.027,210.188l-0.154-0.715c0.519,0.028,1.022,0.057,1.499,0.057c0.336,0,0.504-0.169,0.504-0.505v-3.571
		c-1.457,0.084-3.04,0.168-4.749,0.237l-0.21-0.658c0.252-0.027,0.476-0.069,0.672-0.14c1.499-0.477,3.18-1.261,5.057-2.367
		c-1.681,0.111-3.348,0.21-5.015,0.294l-0.112-0.673c1.821-0.476,3.614-1.414,5.407-2.815l0.574,0.406
		c-1.289,1.009-2.647,1.821-4.09,2.438c1.443-0.084,2.872-0.182,4.301-0.294c0.63-0.393,1.289-0.826,1.961-1.289l0.714,0.351
		c-2.802,1.905-5.239,3.264-7.326,4.048c2.689-0.14,4.987-0.294,6.878-0.49c-0.364-0.504-0.756-1.022-1.177-1.541l0.561-0.35
		c1.079,1.316,1.905,2.451,2.479,3.418l-0.602,0.42c-0.252-0.435-0.532-0.883-0.841-1.358c-1.092,0.126-2.339,0.237-3.74,0.322v3.81
		c0,0.645-0.336,0.967-0.995,0.967h-1.596V210.188z M379.7,197.973c-1.121,0.435-2.241,0.784-3.39,1.064
		c-1.275,0.309-2.872,0.603-4.805,0.883l-0.406-0.631c1.751-0.196,3.292-0.448,4.637-0.756c1.232-0.28,2.339-0.589,3.32-0.953
		L379.7,197.973z M381.857,209.459l-0.532,0.532c-0.827-1.037-1.961-2.129-3.39-3.278l0.491-0.476
		C379.798,207.315,380.946,208.395,381.857,209.459z"/>
	<path fill="#FF8650" d="M387.074,197.763c-0.742,1.905-1.485,3.403-2.241,4.482c0.729-0.112,1.457-0.252,2.185-0.435
		c0.252-0.477,0.504-0.967,0.785-1.484l0.672,0.252c-1.317,2.507-2.41,4.258-3.264,5.238c1.079-0.252,2.157-0.616,3.222-1.092v0.714
		c-1.443,0.603-2.83,1.022-4.174,1.261l-0.196-0.729c0.14-0.056,0.252-0.126,0.35-0.21c0.603-0.645,1.331-1.709,2.186-3.208
		c-0.854,0.183-1.695,0.337-2.521,0.477l-0.182-0.714c0.112-0.057,0.224-0.154,0.322-0.295c0.812-1.288,1.527-2.801,2.143-4.538
		L387.074,197.763z M388.433,207.96c-1.289,0.658-2.746,1.19-4.371,1.583l-0.098-0.757c1.709-0.392,3.194-0.91,4.469-1.54V207.96z
		 M390.912,204.164c-0.07,1.751-0.294,3.04-0.672,3.852c-0.406,0.869-1.079,1.598-2.017,2.199l-0.49-0.602
		c0.854-0.532,1.457-1.177,1.821-1.919c0.35-0.743,0.546-1.92,0.602-3.53H390.912z M388.769,202.791
		c0.07-0.027,0.126-0.042,0.168-0.069c0.49-0.364,1.149-1.345,1.975-2.956h-2.563v-0.715h3.698
		c-0.196-0.588-0.434-1.106-0.687-1.582l0.756-0.141c0.252,0.505,0.477,1.079,0.701,1.723h3.208v0.715h-4.314
		c-0.701,1.373-1.303,2.367-1.835,2.956c1.443-0.112,2.886-0.295,4.343-0.547c-0.351-0.504-0.729-1.009-1.135-1.526l0.574-0.379
		c0.995,1.261,1.751,2.34,2.269,3.264l-0.588,0.435c-0.21-0.378-0.448-0.771-0.701-1.162c-1.751,0.279-3.656,0.504-5.701,0.672
		L388.769,202.791z M393.994,209.991c-0.729,0-1.079-0.378-1.079-1.106v-4.833h0.714v4.707c0,0.336,0.126,0.518,0.378,0.546h0.995
		c0.364-0.014,0.588-0.168,0.658-0.477c0.084-0.378,0.126-1.036,0.126-1.961l0.658,0.238c0,1.289-0.098,2.102-0.266,2.424
		c-0.182,0.279-0.561,0.434-1.135,0.462L393.994,209.991L393.994,209.991z"/>
	<path fill="#FF8650" d="M398.553,210.271l-0.588-0.519c0.561-1.316,0.854-2.97,0.869-4.986v-6.626h3.894v10.926
		c0,0.757-0.364,1.148-1.093,1.148h-1.121l-0.182-0.672c0.392,0.014,0.742,0.028,1.078,0.028c0.393,0,0.603-0.253,0.603-0.757
		v-3.432h-2.507C399.436,207.372,399.113,208.997,398.553,210.271z M402.013,198.855h-2.493v2.577h2.493V198.855z M399.52,204.668
		h2.493v-2.549h-2.493V204.668z M404.772,210.257h-0.714v-12.116h5.519c0,1.653-0.084,2.76-0.252,3.306
		c-0.154,0.561-0.672,0.841-1.569,0.841h-1.079l-0.21-0.658h0.938c0.364,0,0.63-0.028,0.812-0.084
		c0.168-0.057,0.308-0.196,0.406-0.421c0.112-0.364,0.182-1.12,0.196-2.283h-4.048v4.469h4.805v0.645
		c-0.294,1.513-0.784,2.787-1.485,3.824c0.672,0.672,1.485,1.274,2.41,1.793l-0.364,0.63c-0.98-0.561-1.807-1.177-2.465-1.849
		c-0.63,0.771-1.387,1.387-2.27,1.862l-0.392-0.602c0.84-0.477,1.569-1.064,2.157-1.793c-0.953-1.121-1.597-2.396-1.933-3.824
		h-0.462L404.772,210.257L404.772,210.257z M407.588,207.246c0.602-0.925,1.036-2.018,1.303-3.25h-2.998
		C406.201,205.2,406.775,206.293,407.588,207.246z"/>
	<path fill="#FF8650" d="M416.811,197.538c-0.168,0.406-0.378,0.799-0.602,1.163h6.205v0.616c-0.938,1.093-2.087,2.003-3.446,2.745
		c1.625,0.729,3.46,1.205,5.491,1.429l-0.336,0.715c-2.241-0.267-4.23-0.841-5.981-1.723c-1.737,0.798-3.754,1.372-6.079,1.736
		l-0.35-0.7c2.143-0.294,4.02-0.784,5.631-1.471c-0.868-0.519-1.681-1.106-2.437-1.779c-0.546,0.505-1.177,0.98-1.891,1.401
		l-0.462-0.603c1.723-0.98,2.886-2.199,3.488-3.642L416.811,197.538z M418.142,203.604c0,0.616-0.056,1.177-0.154,1.709h4.987
		c-0.028,2.297-0.238,3.685-0.645,4.133s-1.121,0.686-2.129,0.686c-0.42,0-0.938-0.014-1.541-0.042l-0.196-0.7
		c0.63,0.028,1.149,0.057,1.569,0.057c0.925-0.015,1.513-0.196,1.751-0.561c0.238-0.379,0.378-1.345,0.435-2.886h-4.398
		c-0.14,0.42-0.294,0.799-0.49,1.148c-0.743,1.261-2.381,2.298-4.931,3.109l-0.504-0.602c2.297-0.687,3.838-1.569,4.623-2.634
		c0.196-0.322,0.35-0.658,0.49-1.022h-4.329v-0.687h4.539c0.112-0.532,0.182-1.106,0.182-1.709h0.741V203.604z M421.335,199.415
		h-5.645c-0.098,0.112-0.196,0.225-0.28,0.337c0.827,0.756,1.737,1.387,2.746,1.919C419.389,201.04,420.453,200.284,421.335,199.415
		z"/>
	<path fill="#FF8650" d="M432.548,198.688h5.617v0.728h-12.159v-0.728h5.757c-0.168-0.448-0.336-0.869-0.504-1.233l0.798-0.126
		C432.226,197.734,432.394,198.183,432.548,198.688z M430.475,201.572h3.04c0.42-0.616,0.798-1.261,1.106-1.961l0.729,0.267
		c-0.308,0.63-0.645,1.19-1.022,1.694h3.208v7.494c0,0.742-0.378,1.121-1.121,1.121h-1.471l-0.196-0.7l1.443,0.027
		c0.392,0,0.603-0.21,0.603-0.603v-6.653h-2.788v1.387c0,0.322,0.154,0.49,0.49,0.49h1.793v0.658h-2.129
		c-0.575,0-0.854-0.279-0.854-0.84v-1.695h-2.396c-0.112,0.883-0.35,1.569-0.742,2.073c-0.448,0.532-1.135,0.967-2.06,1.289
		l-0.364-0.603c0.812-0.28,1.415-0.645,1.807-1.093c0.336-0.406,0.546-0.967,0.645-1.667h-2.844v7.887h-0.742v-8.573h3.096
		c-0.224-0.616-0.519-1.19-0.854-1.723l0.7-0.266C429.887,200.144,430.195,200.802,430.475,201.572z M434.649,205.564v3.418h-5.127
		v-3.418H434.649z M433.921,206.223h-3.67v2.088h3.67V206.223z"/>
</g>
<g>
	<path fill="#FF6C00" d="M700.355,108.076v2.467h7.22v0.972h-7.22v3.043h4.879v0.864c-1.026,2.088-2.539,3.853-4.555,5.33
		c0.955,0.594,2.017,1.134,3.205,1.603c1.296,0.504,2.665,0.936,4.123,1.296l-0.54,0.864c-1.548-0.396-3.025-0.9-4.393-1.477
		c-1.188-0.522-2.269-1.098-3.223-1.71c-2.053,1.333-4.538,2.395-7.454,3.187l-0.558-0.846c2.845-0.72,5.257-1.675,7.22-2.899
		c-0.936-0.702-1.782-1.513-2.502-2.431c-0.684-0.864-1.152-1.819-1.44-2.863h-1.495v-0.918h5.726v-3.043h-7.112v-0.972h7.112
		v-2.467C699.348,108.076,700.355,108.076,700.355,108.076z M704.136,115.476h-8.066c0.306,1.026,0.828,1.945,1.566,2.773
		c0.648,0.738,1.405,1.405,2.233,1.981C701.742,118.897,703.164,117.312,704.136,115.476z"/>
	<path fill="#FF6C00" d="M714.718,108.346c-0.396,1.242-0.882,2.431-1.458,3.547v12.658h-0.973v-10.947
		c-0.72,1.116-1.512,2.178-2.413,3.169l-0.324-1.009c1.98-2.305,3.385-4.915,4.249-7.832L714.718,108.346z M722.37,112.091v-3.979
		h0.973v3.979h2.665v0.972h-2.665v9.579c0,1.152-0.522,1.729-1.549,1.729h-2.575l-0.216-0.937c0.846,0.036,1.656,0.072,2.449,0.072
		c0.612,0,0.918-0.378,0.918-1.117v-9.327h-7.148v-0.972L722.37,112.091L722.37,112.091z M719.976,119.581l-0.828,0.576
		c-0.792-1.333-1.873-2.809-3.241-4.429l0.792-0.504C718.121,116.88,719.219,118.339,719.976,119.581z"/>
	<path fill="#FF6C00" d="M735.329,110.65c0.756,0.666,1.134,1.548,1.134,2.665c0,1.116-0.432,2.125-1.279,3.024
		c-0.414,0.433-1.296,1.117-2.665,2.053c-1.836,1.243-2.845,2.359-3.043,3.349h7.004v1.008h-8.354c0-1.08,0.414-2.106,1.278-3.061
		c0.522-0.594,1.422-1.333,2.701-2.214c1.116-0.792,1.836-1.369,2.179-1.711c0.702-0.756,1.062-1.584,1.062-2.466
		c0-0.846-0.27-1.513-0.792-1.981s-1.225-0.702-2.106-0.702c-0.937,0-1.675,0.306-2.215,0.937c-0.576,0.63-0.864,1.548-0.864,2.737
		h-1.116c0-1.44,0.396-2.575,1.188-3.403c0.756-0.828,1.765-1.242,3.025-1.242C733.618,109.642,734.573,109.966,735.329,110.65z"/>
</g>
<path fill="#FFEACB" d="M676.902,49.75c0,19.882-16.118,36-36,36s-36-16.118-36-36s16.118-36,36-36
	C660.785,13.75,676.902,29.868,676.902,49.75z"/>
<g>
	<path fill="#FF6C00" d="M630.306,41.704v2.193h6.418v0.864h-6.418v2.706h4.338v0.768c-0.913,1.857-2.257,3.425-4.05,4.738
		c0.849,0.528,1.793,1.008,2.849,1.425c1.153,0.448,2.369,0.832,3.666,1.152l-0.48,0.769c-1.376-0.353-2.689-0.8-3.906-1.313
		c-1.056-0.464-2.017-0.976-2.865-1.521c-1.825,1.185-4.034,2.129-6.626,2.833l-0.496-0.752c2.529-0.64,4.674-1.489,6.418-2.577
		c-0.833-0.624-1.584-1.345-2.225-2.161c-0.608-0.769-1.024-1.617-1.28-2.545h-1.329v-0.816h5.09v-2.706h-6.322v-0.864h6.322v-2.193
		C629.41,41.704,630.306,41.704,630.306,41.704z M633.667,48.283h-7.171c0.272,0.913,0.736,1.729,1.393,2.465
		c0.576,0.656,1.249,1.249,1.985,1.761C631.538,51.324,632.803,49.916,633.667,48.283z"/>
	<path fill="#FF6C00" d="M643.072,41.944c-0.352,1.104-0.784,2.161-1.296,3.153V56.35h-0.864v-9.732
		c-0.64,0.993-1.345,1.937-2.145,2.817l-0.288-0.896c1.761-2.049,3.009-4.37,3.777-6.963L643.072,41.944z M649.875,45.274v-3.538
		h0.865v3.538h2.369v0.864h-2.369v8.515c0,1.024-0.464,1.537-1.377,1.537h-2.289l-0.192-0.832c0.752,0.032,1.473,0.064,2.177,0.064
		c0.544,0,0.816-0.336,0.816-0.993v-8.291h-6.354v-0.864H649.875z M647.746,51.932l-0.736,0.513
		c-0.705-1.185-1.665-2.497-2.881-3.938l0.704-0.448C646.098,49.531,647.074,50.828,647.746,51.932z"/>
	<path fill="#FF6C00" d="M658.368,43.321V54.75h-0.992V44.538c-0.736,0.8-1.649,1.36-2.737,1.681v-0.993
		c0.528-0.16,1.057-0.4,1.568-0.72c0.513-0.336,0.977-0.736,1.361-1.185C657.568,43.321,658.368,43.321,658.368,43.321z"/>
</g>
<path fill="none" stroke="#878787" stroke-miterlimit="10" d="M532,155.878l-7-5l7-6"/>
<path fill="none" stroke="#878787" stroke-miterlimit="10" d="M279.257,145.006l7,6l-7,5"/>
</svg>
