<?xml version="1.0" encoding="utf-8"?>
<!-- Generator: Adobe Illustrator 17.0.0, SVG Export Plug-In . SVG Version: 6.00 Build 0)  -->
<!DOCTYPE svg PUBLIC "-//W3C//DTD SVG 1.1//EN" "http://www.w3.org/Graphics/SVG/1.1/DTD/svg11.dtd">
<svg version="1.1" id="图层_1" xmlns="http://www.w3.org/2000/svg" xmlns:xlink="http://www.w3.org/1999/xlink" x="0px" y="0px"
	 width="120px" height="736.699px" viewBox="0 0 120 736.699" enable-background="new 0 0 120 736.699" xml:space="preserve">
<g>
	<path fill="none" stroke="#B5B5B5" stroke-miterlimit="10" d="M5.507,33.588l3,3l5-4"/>
	<path fill="none" stroke="#B5B5B5" stroke-miterlimit="10" d="M17.459,27.507c-0.002-0.127-0.056-0.249-0.148-0.335
		c-0.092-0.087-0.215-0.131-0.34-0.124c-3.929,0.247-7.551-2.268-7.704-2.376c-0.157-0.111-0.365-0.111-0.523,0
		c-0.152,0.107-3.775,2.622-7.704,2.376c-0.125-0.008-0.248,0.037-0.34,0.124s-0.145,0.208-0.147,0.335
		c-0.035,2.072-0.001,8.617,0,8.681c0,1.088,0.315,2.13,0.964,3.186c0.09,0.146,0.296,0.431,1.049,1.215
		c0.746,0.777,3.117,2.714,3.218,2.796c0.006,0.005,0.012,0.01,0.018,0.014l1.552,1.145c0.469,0.373,1.578,1.038,1.724,1.047
		c0.124,0.006,1.111-0.674,1.581-1.047l1.552-1.145c0.006-0.004,0.012-0.009,0.018-0.014c0.101-0.082,2.472-2.019,3.218-2.796
		c0.753-0.784,0.959-1.069,1.049-1.215c0.649-1.056,0.964-2.098,0.964-3.183C17.459,36.124,17.494,29.578,17.459,27.507
		L17.459,27.507z"/>
</g>
<g>
	<path fill="none" stroke="#B5B5B5" stroke-miterlimit="10" d="M5.334,20.56H25.95"/>
	<path fill="none" stroke="#B5B5B5" stroke-miterlimit="10" d="M25.126,8.497v9.152"/>
	<path fill="none" stroke="#B5B5B5" stroke-miterlimit="10" d="M16.054,8.497v9.152"/>
	<path fill="none" stroke="#B5B5B5" stroke-miterlimit="10" d="M6.983,8.497v9.152"/>
	<path fill="none" stroke="#B5B5B5" stroke-miterlimit="10" d="M16.054,0.593L2.448,6.417h25.977L16.054,0.593z"/>
</g>
<g>
	<path fill="none" stroke="#B5B5B5" stroke-miterlimit="10" d="M2.538,49.615h15c1.105,0,2,0.896,2,2v17c0,1.104-0.896,2-2,2h-15
		c-1.105,0-2-0.896-2-2v-17C0.538,50.511,1.433,49.615,2.538,49.615z"/>
	<path fill="none" stroke="#B5B5B5" stroke-miterlimit="10" d="M5.684,63.611h4.75"/>
	<path fill="none" stroke="#B5B5B5" stroke-miterlimit="10" d="M5.684,59.333h8.313"/>
	<path fill="none" stroke="#B5B5B5" stroke-miterlimit="10" d="M5.684,56.222h6.333"/>
</g>
<g>
	<path fill="none" stroke="#B5B5B5" stroke-miterlimit="10" d="M14.17,130.567l-3.047,4.258"/>
	<path fill="none" stroke="#B5B5B5" stroke-miterlimit="10" d="M8.167,130.354l3.028,4.279"/>
	<path fill="none" stroke="#B5B5B5" stroke-miterlimit="10" d="M11.194,134.835v5.972"/>
	<path fill="none" stroke="#B5B5B5" stroke-miterlimit="10" d="M6.346,137.07h8.934"/>
	<path fill="none" stroke="#B5B5B5" stroke-miterlimit="10" d="M6.343,134.458h8.938"/>
	<path fill="none" stroke="#B5B5B5" stroke-miterlimit="10" d="M11.038,124.505c5.799,0,10.5,4.701,10.5,10.5
		c0,5.799-4.701,10.5-10.5,10.5s-10.5-4.701-10.5-10.5C0.538,129.206,5.239,124.505,11.038,124.505z"/>
</g>
<g>
	<path fill="none" stroke="#B5B5B5" stroke-miterlimit="10" d="M12.7,99.568l-5.909,6.682L12.7,119l5.838-12.75L12.7,99.568"/>
	<path fill="none" stroke="#B5B5B5" stroke-miterlimit="10" d="M1.024,106.25H24.7"/>
	<path fill="none" stroke="#B5B5B5" stroke-miterlimit="10" d="M6.467,99.249h12.071l6.162,7l-12,14l-12-14L6.467,99.249z"/>
</g>
<g>
	<path fill="none" stroke="#B5B5B5" stroke-miterlimit="10" d="M20.662,74.708h-4"/>
	<path fill="none" stroke="#B5B5B5" stroke-miterlimit="10" d="M20.136,74.708v4"/>
	<path fill="none" stroke="#B5B5B5" stroke-miterlimit="10" d="M0.546,87.313v8.148"/>
	<path fill="none" stroke="#B5B5B5" stroke-miterlimit="10" d="M7.435,81.634v13.827"/>
	<path fill="none" stroke="#B5B5B5" stroke-miterlimit="10" d="M21.212,82.869v12.345"/>
	<path fill="none" stroke="#B5B5B5" stroke-miterlimit="10" d="M0.355,80.709l6-5l6,6l8-7"/>
	<path fill="none" stroke="#B5B5B5" stroke-miterlimit="10" d="M14.354,86.72v8.989"/>
</g>
<g>
	<path fill="none" stroke="#B5B5B5" stroke-miterlimit="10" d="M4.312,206.551v12.218"/>
	<path fill="none" stroke="#B5B5B5" stroke-miterlimit="10" d="M4.691,206.13c0.188,0.015,2.907-6.741,2.907-6.741
		s2.266-3.391,4.568,1.264c0.274,0.554-1.102,4.588-1.246,5.056s0,0,0,0h7.476c0,0,2.59-0.261,2.077,2.528
		c-0.516,2.799-1.661,8.847-1.661,8.847s-0.286,2.087-2.076,2.107H0.538V206.13C0.538,206.13,4.503,206.115,4.691,206.13z"/>
</g>
<g>
	<path fill="none" stroke="#B5B5B5" stroke-miterlimit="10" d="M3.48,159.205c0-2.314,0-4.085,0-4.085
		c0-3.081,2.488-5.578,5.558-5.578c3.069,0,5.558,2.497,5.558,5.578c0,0,0,1.762,0,4.069"/>
	<path fill="none" stroke="#B5B5B5" stroke-miterlimit="10" d="M9.25,163.537v1.969"/>
	<path fill="none" stroke="#B5B5B5" stroke-miterlimit="10" d="M2.538,159.073h13c1.104,0,2,0.895,2,2v7.469c0,1.105-0.896,2-2,2
		h-13c-1.105,0-2-0.895-2-2v-7.469C0.538,159.968,1.433,159.073,2.538,159.073z"/>
</g>
<g>
	<path fill="none" stroke="#B5B5B5" stroke-miterlimit="10" d="M3.807,174.445l-3.437,3.38"/>
	<path fill="none" stroke="#B5B5B5" stroke-miterlimit="10" d="M16.781,174.445l3.349,3.294"/>
	<path fill="none" stroke="#B5B5B5" stroke-miterlimit="10" d="M10.083,178.398v6.917h6.698"/>
	<path fill="none" stroke="#B5B5B5" stroke-miterlimit="10" d="M10.411,175.115c5.367,0,9.719,4.274,9.719,9.547
		s-4.351,9.547-9.719,9.547s-9.719-4.274-9.719-9.547C0.692,179.389,5.043,175.115,10.411,175.115z"/>
</g>
<g>
	<path fill="#ECF6FF" d="M37,236.209c20.435,0,37,16.565,37,37s-16.565,37-37,37s-37-16.565-37-37S16.565,236.209,37,236.209z"/>
	<path fill="none" stroke="#0099FF" stroke-miterlimit="10" d="M39.154,263.033l6.011-5.928c0.531-0.523,1.392-0.523,1.923,0
		l6.01,5.928c0.531,0.524,0.531,1.373,0,1.897l-6.01,5.928c-0.531,0.524-1.392,0.524-1.923,0l-6.011-5.928
		C38.623,264.406,38.623,263.557,39.154,263.033z"/>
	<path fill="none" stroke="#0099FF" stroke-miterlimit="10" d="M43.625,274.959H49.5c2.209,0,4,1.791,4,4v5.75c0,2.209-1.791,4-4,4
		h-5.875c-2.209,0-4-1.791-4-4v-5.75C39.625,276.75,41.416,274.959,43.625,274.959z"/>
	<path fill="none" stroke="#0099FF" stroke-miterlimit="10" d="M25.5,274.959h5.875c2.209,0,4,1.791,4,4v5.75c0,2.209-1.791,4-4,4
		H25.5c-2.209,0-4-1.791-4-4v-5.75C21.5,276.75,23.291,274.959,25.5,274.959z"/>
	<path fill="none" stroke="#0099FF" stroke-miterlimit="10" d="M25.5,257.115h5.875c2.209,0,4,1.79,4,4v5.719c0,2.209-1.791,4-4,4
		H25.5c-2.209,0-4-1.791-4-4v-5.719C21.5,258.906,23.291,257.115,25.5,257.115z"/>
</g>
<g>
	<path fill="#ECF6FF" d="M37,313.209c20.435,0,37,16.565,37,37s-16.565,37-37,37s-37-16.565-37-37
		C0,329.774,16.565,313.209,37,313.209z"/>
	<path fill="none" stroke="#0099FF" stroke-miterlimit="10" d="M20.448,365.232H52.19"/>
	<path fill="none" stroke="#0099FF" stroke-miterlimit="10" d="M38.12,346.491v14.217"/>
	<path fill="none" stroke="#0099FF" stroke-miterlimit="10" d="M24.154,346.491v14.217"/>
	<path fill="none" stroke="#0099FF" stroke-miterlimit="10" d="M50.188,346.491v14.217"/>
	<path fill="none" stroke="#0099FF" stroke-miterlimit="10" d="M36.954,333.213l-20.949,9.047h39.994L36.954,333.213z"/>
</g>
<g>
	<path fill="#ECF6FF" d="M37,390.209c20.435,0,37,16.566,37,37c0,20.435-16.566,37-37,37s-37-16.565-37-37
		C0,406.774,16.566,390.209,37,390.209z"/>
	<path fill="none" stroke="#0099FF" stroke-miterlimit="10" d="M22.471,434.418h9.388"/>
	<path fill="none" stroke="#0099FF" stroke-miterlimit="10" d="M22.024,429.328h12.518"/>
	<path fill="none" stroke="#0099FF" stroke-miterlimit="10" d="M18.447,419.149h37.106"/>
	<path fill="none" stroke="#0099FF" stroke-miterlimit="10" d="M22,412.209h30c2.209,0,4,1.791,4,4v23c0,2.209-1.791,4-4,4H22
		c-2.209,0-4-1.791-4-4v-23C18,413.999,19.791,412.209,22,412.209z"/>
</g>
<g>
	<path fill="#ECF6FF" d="M37,467.208c20.434,0,37,16.565,37,37c0,20.434-16.565,37-37,37s-37-16.565-37-37
		C0,483.774,16.566,467.208,37,467.208z"/>
	<path fill="none" stroke="#0099FF" stroke-miterlimit="10" d="M24.339,509.065c0-1.31,0-2.144,0-2.144
		c0-1.334,1.062-2.416,2.373-2.416h19.576c1.31,0,2.373,1.081,2.373,2.416c0,0,0,0.853,0,2.188"/>
	<path fill="none" stroke="#0099FF" stroke-miterlimit="10" d="M48.547,508.927c3.012,0,5.453,2.525,5.453,5.641
		c0,3.115-2.441,5.641-5.453,5.641c-3.012,0-5.453-2.526-5.453-5.641S45.535,508.927,48.547,508.927z"/>
	<path fill="none" stroke="#0099FF" stroke-miterlimit="10" d="M24.453,508.927c3.012,0,5.453,2.525,5.453,5.641
		c0,3.115-2.441,5.641-5.453,5.641S19,517.683,19,514.568S21.441,508.927,24.453,508.927z"/>
	<path fill="none" stroke="#0099FF" stroke-miterlimit="10" d="M36.5,488.208c3.02,0,5.469,2.526,5.469,5.641
		s-2.449,5.641-5.469,5.641s-5.469-2.525-5.469-5.641S33.48,488.208,36.5,488.208z"/>
	<path fill="none" stroke="#0099FF" stroke-miterlimit="10" d="M36.797,499.069v5.436"/>
</g>
<g>
	<path fill="#ECF6FF" d="M37,544.208c20.435,0,37,16.565,37,37c0,20.434-16.565,37-37,37s-37-16.565-37-37
		C0,560.774,16.565,544.208,37,544.208z"/>
	<path fill="none" stroke="#0099FF" stroke-miterlimit="10" d="M29.141,592.99c0.854,0,1.547,0.72,1.547,1.609
		s-0.693,1.609-1.547,1.609s-1.547-0.721-1.547-1.609S28.286,592.99,29.141,592.99z"/>
	<path fill="none" stroke="#0099FF" stroke-miterlimit="10" d="M47.688,593.396c0.759,0,1.375,0.63,1.375,1.406
		c0,0.777-0.616,1.406-1.375,1.406s-1.375-0.63-1.375-1.406C46.313,594.025,46.928,593.396,47.688,593.396z"/>
	<path fill="none" stroke="#0099FF" stroke-miterlimit="10" d="M28.329,569.879l20.315,0.405c0,0,2.128,0.639,2.344,2.43v6.481
		c0,0,0.294,1.612-1.953,2.43c-2.247,0.819-21.487,3.241-21.487,3.241"/>
	<path fill="none" stroke="#0099FF" stroke-miterlimit="10" d="M17,564.208h4.688l7.032,24.304h21.877"/>
</g>
<g>
	<path fill="#ECF6FF" d="M37,621.208c20.434,0,37,16.565,37,37s-16.566,37-37,37s-37-16.565-37-37
		C0,637.774,16.566,621.208,37,621.208z"/>
	<path fill="none" stroke="#0099FF" stroke-miterlimit="10" d="M51.473,646.502c-0.004-0.209-0.092-0.409-0.244-0.551
		s-0.356-0.215-0.562-0.203c-6.496,0.406-12.484-3.727-12.736-3.903c-0.26-0.182-0.604-0.182-0.864,0
		c-0.252,0.176-6.241,4.308-12.736,3.903c-0.207-0.013-0.41,0.06-0.562,0.203c-0.152,0.142-0.24,0.341-0.244,0.551
		c-0.057,3.403-0.001,14.156,0,14.261c0,1.786,0.521,3.498,1.594,5.233c0.148,0.24,0.489,0.707,1.734,1.996
		c1.233,1.276,5.153,4.459,5.32,4.593c0.009,0.008,0.019,0.016,0.029,0.023l2.565,1.881c0.776,0.613,2.609,1.706,2.851,1.719
		c0.204,0.01,1.837-1.106,2.613-1.719l2.566-1.881c0.01-0.007,0.02-0.015,0.029-0.023c0.166-0.135,4.087-3.317,5.32-4.593
		c1.245-1.288,1.586-1.756,1.734-1.996c1.072-1.735,1.594-3.446,1.594-5.229C51.474,660.658,51.531,649.905,51.473,646.502
		L51.473,646.502z"/>
	<path fill="none" stroke="#0099FF" stroke-miterlimit="10" d="M39.648,648.208L30.5,660.009l4.622,0.093l-1.059,9.106l9.437-11.987
		l-4.815,0.093L39.648,648.208z"/>
</g>
<g>
	<path fill="#0099FF" d="M10.546,233.209v-4.223H8.278c-0.076-2.054,0.831-3.613,2.722-4.68v-1.598
		c-3.175,1.218-4.763,3.464-4.763,6.734v3.766h4.309V233.209z M4.309,233.209v-4.223H1.928c-0.076-1.978,0.868-3.538,2.835-4.68
		v-1.598C1.588,223.927,0,226.172,0,229.442v3.766L4.309,233.209L4.309,233.209z"/>
</g>
<image overflow="visible" width="212" height="68" xlink:href="logo.png"  transform="matrix(0.566 0 0 0.566 0 698.208)">
</image>
</svg>
