<?xml version="1.0" encoding="utf-8"?>
<!-- Generator: Adobe Illustrator 17.0.0, SVG Export Plug-In . SVG Version: 6.00 Build 0)  -->
<!DOCTYPE svg PUBLIC "-//W3C//DTD SVG 1.1//EN" "http://www.w3.org/Graphics/SVG/1.1/DTD/svg11.dtd">
<svg version="1.1" id="图层_1" xmlns="http://www.w3.org/2000/svg" xmlns:xlink="http://www.w3.org/1999/xlink" x="0px" y="0px"
	 width="351px" height="299.272px" viewBox="0 0 351 299.272" enable-background="new 0 0 351 299.272" xml:space="preserve">
<path fill-rule="evenodd" clip-rule="evenodd" fill="#F5FBFF" d="M176.503,15.636c77.044,0,139.5,62.456,139.5,139.5
	s-62.456,139.5-139.5,139.5c-77.044,0-139.5-62.457-139.5-139.5S99.46,15.636,176.503,15.636z"/>
<path fill-rule="evenodd" clip-rule="evenodd" fill="#D9EEFF" d="M134.285,105.573h82.594c6.627,0,12,5.373,12,12v53.157
	c0,6.627-5.373,12-12,12h-82.594c-6.627,0-12-5.372-12-12v-53.157C122.285,110.946,127.657,105.573,134.285,105.573z"/>
<path fill-rule="evenodd" clip-rule="evenodd" fill="#D9EEFF" d="M154.285,267.762l1.34-8.126l1.34,8.126l8.038,1.434l-7.917,1.315
	l-1.462,8.126l-1.34-8.126l-8.282-1.315L154.285,267.762z"/>
<path fill-rule="evenodd" clip-rule="evenodd" fill="#D9EEFF" d="M248.978,76.479l1.128-6.843l1.128,6.843l6.769,1.207l-6.667,1.107
	l-1.231,6.842l-1.128-6.842l-6.974-1.107L248.978,76.479z"/>
<path fill-rule="evenodd" clip-rule="evenodd" fill="#D9EEFF" d="M227.029,56.9l1.622-10.264l1.622,10.264l9.731,1.812l-9.583,1.66
	l-1.769,10.264l-1.622-10.264l-10.026-1.66L227.029,56.9z"/>
<path fill-rule="evenodd" clip-rule="evenodd" fill="#FFFFFF" stroke="#666666" stroke-miterlimit="10" d="M55.629,137.642
	c1.81,2.024,3.256,4.338,4.284,6.828c0.145,0.351,0.281,0.705,0.41,1.063c1.8,5.024,1.936,10.68-0.005,16.097
	c-4.445,12.41-18.103,18.864-30.506,14.416c-12.403-4.447-18.854-18.113-14.409-30.523c4.445-12.41,18.103-18.865,30.506-14.417"/>
<path fill-rule="evenodd" clip-rule="evenodd" fill="#FFFFFF" stroke="#666666" stroke-miterlimit="10" d="M313.128,129.698
	c13.186,0,23.875,10.689,23.875,23.875c0,13.186-10.689,23.875-23.875,23.875s-23.875-10.689-23.875-23.875
	C289.253,140.388,299.942,129.698,313.128,129.698z"/>
<path fill-rule="evenodd" clip-rule="evenodd" fill="#FFFFFF" stroke="#666666" stroke-miterlimit="10" d="M156.066,4.636h37.375
	V49.48h-37.375V4.636z"/>
<path fill-rule="evenodd" clip-rule="evenodd" fill="#FFFFFF" stroke="#666666" stroke-width="0.9958" stroke-miterlimit="10" d="
	M92.922,195.799L84.22,89.077l46.773,43.12l44.598-63.602l44.598,63.602l45.686-42.042l-7.614,105.644H92.922z"/>
<path fill-rule="evenodd" clip-rule="evenodd" fill="#666666" d="M84.992,232.186v-1h182.742v1H84.992z"/>
<path fill-rule="evenodd" clip-rule="evenodd" fill="none" stroke="#666666" stroke-miterlimit="10" d="M270.225,195.799H80.957
	v14.134h4.351v21.744h-4.351v11.96h189.268v-11.96h-3.263v-21.744h3.263V195.799z"/>
<path fill-rule="evenodd" clip-rule="evenodd" fill="#666666" d="M68.992,154.485v-1.087h7.614v1.087H68.992z"/>
<path fill-rule="evenodd" clip-rule="evenodd" fill="#666666" d="M272.401,154.485v-1.087h7.614v1.087H272.401z"/>
<path fill-rule="evenodd" clip-rule="evenodd" fill="#666666" d="M174.503,56.636h1.088v7.611h-1.088V56.636z"/>
<path fill-rule="evenodd" clip-rule="evenodd" fill="#D9EEFF" d="M109.335,227.239l-0.359-20.568H85.308v-5.436h180.566v5.436
	h-21.669v20.657L109.335,227.239z"/>
<path fill-rule="evenodd" clip-rule="evenodd" fill="none" stroke="#666666" stroke-miterlimit="10" d="M331.069,163.845
	l-0.199,0.363l2.187,1.192l0.199-0.363L331.069,163.845z"/>
<path fill-rule="evenodd" clip-rule="evenodd" fill="none" stroke="#666666" stroke-miterlimit="10" d="M292.791,142.986
	l-0.199,0.363l2.187,1.192l0.199-0.363L292.791,142.986z"/>
<path fill-rule="evenodd" clip-rule="evenodd" fill="none" stroke="#666666" stroke-miterlimit="10" d="M295.071,163.649
	l0.198,0.363l-2.177,1.193l-0.198-0.363L295.071,163.649z"/>
<path fill-rule="evenodd" clip-rule="evenodd" fill="none" stroke="#666666" stroke-miterlimit="10" d="M333.166,142.778
	l0.198,0.363l-2.177,1.193l-0.198-0.363L333.166,142.778z"/>
<path fill-rule="evenodd" clip-rule="evenodd" fill="none" stroke="#666666" stroke-miterlimit="10" d="M302.937,135.804l0.36-0.203
	l-1.214-2.166l-0.36,0.203L302.937,135.804z"/>
<path fill-rule="evenodd" clip-rule="evenodd" fill="none" stroke="#666666" stroke-miterlimit="10" d="M324.18,173.702l0.36-0.203
	l-1.214-2.166l-0.36,0.203L324.18,173.702z"/>
<path fill-rule="evenodd" clip-rule="evenodd" fill="none" stroke="#666666" stroke-miterlimit="10" d="M324.012,136.135
	l-0.362-0.204l1.219-2.171l0.362,0.203L324.012,136.135z"/>
<path fill-rule="evenodd" clip-rule="evenodd" fill="none" stroke="#666666" stroke-miterlimit="10" d="M302.673,174.13
	l-0.362-0.204l1.219-2.171l0.362,0.203L302.673,174.13z"/>
<path fill-rule="evenodd" clip-rule="evenodd" fill="none" stroke="#666666" stroke-miterlimit="10" d="M333.666,153.364v-0.415
	h2.49v0.415H333.666z"/>
<path fill-rule="evenodd" clip-rule="evenodd" fill="none" stroke="#666666" stroke-miterlimit="10" d="M290.099,153.364v-0.415
	h2.49v0.415H290.099z"/>
<path fill-rule="evenodd" clip-rule="evenodd" fill="none" stroke="#666666" stroke-miterlimit="10" d="M313.335,174.117h0.415
	v2.491h-0.415V174.117z"/>
<path fill-rule="evenodd" clip-rule="evenodd" fill="none" stroke="#666666" stroke-miterlimit="10" d="M313.335,130.536h0.415
	v2.491h-0.415V130.536z"/>
<path fill-rule="evenodd" clip-rule="evenodd" fill="none" stroke="#666666" stroke-miterlimit="10" d="M324.122,142.988
	l-8.713,8.301"/>
<path fill-rule="evenodd" clip-rule="evenodd" fill="none" stroke="#666666" stroke-miterlimit="10" d="M313.566,150.042
	c1.726,0,3.125,1.406,3.125,3.141c0,1.735-1.399,3.141-3.125,3.141s-3.125-1.406-3.125-3.141
	C310.441,151.448,311.84,150.042,313.566,150.042z"/>
<path fill-rule="evenodd" clip-rule="evenodd" fill="#D9EEFF" d="M176.894,134.479c13.177,0,23.859,10.689,23.859,23.875
	c0,13.186-10.682,23.875-23.859,23.875s-23.859-10.689-23.859-23.875C153.035,145.169,163.717,134.479,176.894,134.479z"/>
<path fill-rule="evenodd" clip-rule="evenodd" fill="none" stroke="#0099FF" stroke-miterlimit="10" d="M184.002,148.285
	l-6.932,9.682"/>
<path fill-rule="evenodd" clip-rule="evenodd" fill="none" stroke="#0099FF" stroke-miterlimit="10" d="M170.346,147.802
	l6.887,9.728"/>
<path fill-rule="evenodd" clip-rule="evenodd" fill="none" stroke="#0099FF" stroke-miterlimit="10" d="M177.233,157.989v13.578"/>
<path fill-rule="evenodd" clip-rule="evenodd" fill="none" stroke="#0099FF" stroke-miterlimit="10" d="M166.204,163.07h20.325"/>
<path fill-rule="evenodd" clip-rule="evenodd" fill="none" stroke="#0099FF" stroke-miterlimit="10" d="M166.196,157.133h20.333"/>
<path fill-rule="evenodd" clip-rule="evenodd" fill="none" stroke="#666666" stroke-miterlimit="10" d="M249.55,117.542
	c4.202,0,7.609,3.4,7.609,7.594c0,4.194-3.407,7.594-7.609,7.594s-7.609-3.4-7.609-7.594
	C241.941,120.942,245.348,117.542,249.55,117.542z"/>
<path fill-rule="evenodd" clip-rule="evenodd" fill="none" stroke="#666666" stroke-miterlimit="10" d="M175.597,94.698
	c4.211,0,7.625,3.4,7.625,7.593c0,4.194-3.414,7.594-7.625,7.594c-4.211,0-7.625-3.4-7.625-7.594
	C167.972,98.098,171.386,94.698,175.597,94.698z"/>
<path fill-rule="evenodd" clip-rule="evenodd" fill="none" stroke="#666666" stroke-miterlimit="10" d="M100.535,116.448
	c4.194,0,7.594,3.4,7.594,7.594c0,4.194-3.4,7.594-7.594,7.594s-7.594-3.4-7.594-7.594
	C92.941,119.848,96.341,116.448,100.535,116.448z"/>
<path fill-rule="evenodd" clip-rule="evenodd" fill="#666666" d="M220.189,211.019h1.088v9.785h-1.088V211.019z"/>
<path fill-rule="evenodd" clip-rule="evenodd" fill="#666666" d="M130.993,211.019h1.088v9.785h-1.088V211.019z"/>
<path fill-rule="evenodd" clip-rule="evenodd" fill="#666666" d="M174.503,211.019h1.088v9.785h-1.088V211.019z"/>
<path fill-rule="evenodd" clip-rule="evenodd" fill="none" stroke="#666666" stroke-miterlimit="10" d="M36.965,161.946
	c-2.089,2.229-2.65,2.827-2.65,2.827c-2.077,2.216-5.516,2.289-7.681,0.162c-2.165-2.127-2.236-5.647-0.159-7.863l6.448-6.88
	c2.077-2.216,5.516-2.289,7.681-0.163"/>
<path fill-rule="evenodd" clip-rule="evenodd" fill="none" stroke="#666666" stroke-miterlimit="10" d="M37.709,145.113
	c2.106-2.196,2.67-2.785,2.67-2.785c2.093-2.183,5.559-2.255,7.741-0.16c2.182,2.094,2.254,5.562,0.16,7.745l-6.498,6.777
	c-2.093,2.183-5.559,2.255-7.741,0.16"/>
<g>
	<path fill-rule="evenodd" clip-rule="evenodd" fill="none" stroke="#666666" stroke-miterlimit="10" d="M169.255,37.825
		l-5.564,5.513"/>
	<path fill-rule="evenodd" clip-rule="evenodd" fill="none" stroke="#666666" stroke-width="1.0913" stroke-miterlimit="10" d="
		M163.691,37.591l5.564,5.518"/>
	<path fill-rule="evenodd" clip-rule="evenodd" fill="none" stroke="#666666" stroke-miterlimit="10" d="M166.473,20.859v7.797"/>
	<path fill-rule="evenodd" clip-rule="evenodd" fill="#666666" d="M182.777,36.479h0.422c0.237,0,0.43,0.192,0.43,0.43v0.453
		c0,0.237-0.192,0.43-0.43,0.43h-0.422c-0.237,0-0.43-0.192-0.43-0.43v-0.453C182.347,36.672,182.539,36.479,182.777,36.479z"/>
	<path fill-rule="evenodd" clip-rule="evenodd" fill="#666666" d="M182.777,42.292h0.422c0.237,0,0.43,0.192,0.43,0.43v0.453
		c0,0.237-0.192,0.43-0.43,0.43h-0.422c-0.237,0-0.43-0.193-0.43-0.43v-0.453C182.347,42.484,182.539,42.292,182.777,42.292z"/>
	<path fill-rule="evenodd" clip-rule="evenodd" fill="none" stroke="#666666" stroke-miterlimit="10" d="M179.381,39.702h7.213"/>
	<path fill-rule="evenodd" clip-rule="evenodd" fill="none" stroke="#666666" stroke-miterlimit="10" d="M179.028,24.758h7.213"/>
	<path fill-rule="evenodd" clip-rule="evenodd" fill="none" stroke="#666666" stroke-miterlimit="10" d="M162.635,24.758h7.213"/>
	<path fill-rule="evenodd" clip-rule="evenodd" fill="none" stroke="#666666" stroke-miterlimit="10" d="M162.003,9.198h24.875
		v7.125h-24.875V9.198z"/>
</g>
</svg>
