<?xml version="1.0" encoding="utf-8"?>
<!-- Generator: Adobe Illustrator 17.0.0, SVG Export Plug-In . SVG Version: 6.00 Build 0)  -->
<!DOCTYPE svg PUBLIC "-//W3C//DTD SVG 1.1//EN" "http://www.w3.org/Graphics/SVG/1.1/DTD/svg11.dtd">
<svg version="1.1" id="图层_1" xmlns="http://www.w3.org/2000/svg" xmlns:xlink="http://www.w3.org/1999/xlink" x="0px" y="0px"
	 width="351px" height="299.272px" viewBox="0 0 351 299.272" enable-background="new 0 0 351 299.272" xml:space="preserve">
<g>
	<path fill="none" stroke="#666666" stroke-miterlimit="10" d="M746.327,550.71l1.34-8.126l1.34,8.126l8.039,1.434l-7.917,1.315
		l-1.461,8.126l-1.34-8.126l-8.282-1.315L746.327,550.71z"/>
	<path fill="none" stroke="#666666" stroke-miterlimit="10" d="M841.019,359.427l1.128-6.843l1.128,6.843l6.769,1.207l-6.667,1.107
		l-1.231,6.842l-1.128-6.842l-6.974-1.107L841.019,359.427z"/>
	<path fill="none" stroke="#666666" stroke-miterlimit="10" d="M819.071,339.849l1.622-10.264l1.622,10.264l9.731,1.811l-9.583,1.66
		l-1.769,10.264l-1.622-10.264l-10.026-1.66L819.071,339.849z"/>
	<path fill="none" stroke="#666666" stroke-miterlimit="10" d="M629.007,444.895c-2.089,2.229-2.65,2.827-2.65,2.827
		c-2.077,2.216-5.516,2.289-7.682,0.162c-2.165-2.127-2.236-5.647-0.159-7.863l6.448-6.88c2.077-2.216,5.516-2.289,7.681-0.163"/>
	<path fill="none" stroke="#666666" stroke-miterlimit="10" d="M629.751,428.061c2.105-2.196,2.67-2.785,2.67-2.785
		c2.094-2.183,5.56-2.255,7.742-0.159c2.182,2.094,2.254,5.562,0.16,7.745l-6.498,6.777c-2.093,2.183-5.559,2.255-7.741,0.16"/>
	<path fill="none" stroke="#666666" stroke-miterlimit="10" d="M647.671,420.59c1.81,2.024,3.255,4.338,4.284,6.828
		c0.145,0.351,0.281,0.705,0.409,1.063c1.8,5.024,1.936,10.68-0.005,16.096c-4.445,12.41-18.103,18.864-30.506,14.416
		c-12.403-4.447-18.854-18.113-14.409-30.523c4.445-12.41,18.103-18.865,30.506-14.417"/>
	<path fill="none" stroke="#666666" stroke-miterlimit="10" d="M923.111,446.793l-0.199,0.363l2.187,1.192l0.199-0.363
		L923.111,446.793z"/>
	<path fill="none" stroke="#666666" stroke-miterlimit="10" d="M884.833,425.934l-0.199,0.363l2.187,1.192l0.199-0.363
		L884.833,425.934z"/>
	<path fill="none" stroke="#666666" stroke-miterlimit="10" d="M887.113,446.598l0.198,0.363l-2.177,1.193l-0.198-0.363
		L887.113,446.598z"/>
	<path fill="none" stroke="#666666" stroke-miterlimit="10" d="M925.208,425.726l0.198,0.363l-2.177,1.193l-0.198-0.363
		L925.208,425.726z"/>
	<path fill="none" stroke="#666666" stroke-miterlimit="10" d="M894.979,418.753l0.36-0.203l-1.214-2.166l-0.36,0.203
		L894.979,418.753z"/>
	<path fill="none" stroke="#666666" stroke-miterlimit="10" d="M916.221,456.65l0.36-0.203l-1.214-2.166l-0.36,0.203L916.221,456.65
		z"/>
	<path fill="none" stroke="#666666" stroke-miterlimit="10" d="M916.054,419.083l-0.362-0.204l1.219-2.171l0.362,0.203
		L916.054,419.083z"/>
	<path fill="none" stroke="#666666" stroke-miterlimit="10" d="M894.715,457.079l-0.362-0.204l1.219-2.171l0.362,0.204
		L894.715,457.079z"/>
	<path fill="none" stroke="#666666" stroke-miterlimit="10" d="M925.708,436.313v-0.415h2.49v0.415H925.708z"/>
	<path fill="none" stroke="#666666" stroke-miterlimit="10" d="M882.141,436.313v-0.415h2.49v0.415H882.141z"/>
	<path fill="none" stroke="#666666" stroke-miterlimit="10" d="M905.376,457.065h0.415v2.491h-0.415V457.065z"/>
	<path fill="none" stroke="#666666" stroke-miterlimit="10" d="M905.376,413.485h0.415v2.491h-0.415V413.485z"/>
	<path fill="none" stroke="#666666" stroke-miterlimit="10" d="M916.164,425.936l-8.713,8.301"/>
	<path fill="none" stroke="#666666" stroke-miterlimit="10" d="M905.608,432.991c1.726,0,3.125,1.406,3.125,3.141
		s-1.399,3.141-3.125,3.141s-3.125-1.406-3.125-3.141S903.882,432.991,905.608,432.991z"/>
	<path fill="none" stroke="#666666" stroke-miterlimit="10" d="M905.17,412.647c13.186,0,23.875,10.689,23.875,23.875
		c0,13.186-10.689,23.875-23.875,23.875s-23.875-10.689-23.875-23.875C881.295,423.336,891.984,412.647,905.17,412.647z"/>
	<path fill="none" stroke="#666666" stroke-miterlimit="10" d="M761.297,320.774l-5.564,5.513"/>
	<path fill="none" stroke="#666666" stroke-miterlimit="10" d="M756.196,320.314l5.1,5.054"/>
	<path fill="none" stroke="#666666" stroke-miterlimit="10" d="M758.611,304.457v7.797"/>
	<path fill="none" stroke="#666666" stroke-miterlimit="10" d="M774.819,319.428h0.422c0.237,0,0.43,0.193,0.43,0.43v0.453
		c0,0.237-0.192,0.429-0.43,0.429h-0.422c-0.237,0-0.43-0.192-0.43-0.429v-0.453C774.389,319.62,774.581,319.428,774.819,319.428z"
		/>
	<path fill="none" stroke="#666666" stroke-miterlimit="10" d="M774.819,325.24h0.422c0.237,0,0.43,0.193,0.43,0.43v0.453
		c0,0.237-0.192,0.43-0.43,0.43h-0.422c-0.237,0-0.43-0.193-0.43-0.43v-0.453C774.389,325.433,774.581,325.24,774.819,325.24z"/>
	<path fill="none" stroke="#666666" stroke-miterlimit="10" d="M771.07,322.651h7.213"/>
	<path fill="none" stroke="#666666" stroke-miterlimit="10" d="M771.07,307.706h7.213"/>
	<path fill="none" stroke="#666666" stroke-miterlimit="10" d="M754.676,307.706h7.213"/>
	<path fill="none" stroke="#666666" stroke-miterlimit="10" d="M754.045,292.147h24.875v7.125h-24.875V292.147z"/>
	<path fill="none" stroke="#666666" stroke-miterlimit="10" d="M748.108,287.584h37.375v44.844h-37.375V287.584z"/>
	<path fill="none" stroke="#666666" stroke-miterlimit="10" d="M776.044,431.234l-6.932,9.682"/>
	<path fill="none" stroke="#666666" stroke-miterlimit="10" d="M762.388,430.75l6.887,9.728"/>
	<path fill="none" stroke="#666666" stroke-miterlimit="10" d="M769.275,440.938v13.578"/>
	<path fill="none" stroke="#666666" stroke-miterlimit="10" d="M758.245,446.019h20.325"/>
	<path fill="none" stroke="#666666" stroke-miterlimit="10" d="M758.238,440.081h20.333"/>
	<path fill="none" stroke="#666666" stroke-miterlimit="10" d="M768.936,417.428c13.177,0,23.859,10.69,23.859,23.875
		c0,13.186-10.682,23.875-23.859,23.875s-23.859-10.689-23.859-23.875C745.076,428.117,755.758,417.428,768.936,417.428z"/>
	<path fill="none" stroke="#666666" stroke-miterlimit="10" d="M841.592,400.491c4.203,0,7.609,3.4,7.609,7.594
		c0,4.194-3.407,7.594-7.609,7.594s-7.609-3.4-7.609-7.594C833.983,403.891,837.389,400.491,841.592,400.491z"/>
	<path fill="none" stroke="#666666" stroke-miterlimit="10" d="M767.639,377.647c4.211,0,7.625,3.4,7.625,7.594
		c0,4.194-3.414,7.594-7.625,7.594s-7.625-3.4-7.625-7.594C760.014,381.047,763.428,377.647,767.639,377.647z"/>
	<path fill="none" stroke="#666666" stroke-miterlimit="10" d="M692.576,399.397c4.194,0,7.594,3.4,7.594,7.594
		c0,4.194-3.4,7.594-7.594,7.594s-7.594-3.4-7.594-7.594C684.983,402.797,688.383,399.397,692.576,399.397z"/>
	<path fill="none" stroke="#666666" stroke-miterlimit="10" d="M684.964,479.835l-8.702-107.634l46.773,43.489l44.598-64.145
		l44.598,64.145l45.685-42.401l-7.614,106.547L684.964,479.835L684.964,479.835z"/>
	<path fill="none" stroke="#666666" stroke-miterlimit="10" d="M677.35,515.712v-1.087h182.742v1.087H677.35z"/>
	<path fill="none" stroke="#666666" stroke-miterlimit="10" d="M862.267,478.747H672.999v14.134h4.351v21.744h-4.351v11.96h189.268
		v-11.96h-3.263v-21.744h3.263V478.747z"/>
	<path fill="none" stroke="#666666" stroke-miterlimit="10" d="M812.231,493.968h1.088v9.785h-1.088V493.968z"/>
	<path fill="none" stroke="#666666" stroke-miterlimit="10" d="M723.035,493.968h1.088v9.785h-1.088V493.968z"/>
	<path fill="none" stroke="#666666" stroke-miterlimit="10" d="M766.545,493.968h1.088v9.785h-1.088V493.968z"/>
	<path fill="none" stroke="#666666" stroke-miterlimit="10" d="M661.033,437.433v-1.087h7.614v1.087H661.033z"/>
	<path fill="none" stroke="#666666" stroke-miterlimit="10" d="M864.443,437.433v-1.087h7.614v1.087H864.443z"/>
	<path fill="none" stroke="#666666" stroke-miterlimit="10" d="M766.545,339.585h1.088v7.611h-1.088V339.585z"/>
	<path fill="none" stroke="#666666" stroke-miterlimit="10" d="M726.326,388.522h82.594c6.627,0,12,5.373,12,12v53.156
		c0,6.627-5.373,12-12,12h-82.594c-6.628,0-12-5.372-12-12v-53.156C714.326,393.894,719.699,388.522,726.326,388.522z"/>
	<path fill="none" stroke="#666666" stroke-miterlimit="10" d="M701.377,510.187l-0.359-20.568H677.35v-5.436h180.566v5.436h-21.669
		v20.657L701.377,510.187z"/>
	<path fill="none" stroke="#666666" stroke-miterlimit="10" d="M768.545,298.584c77.044,0,139.5,62.456,139.5,139.5
		s-62.456,139.5-139.5,139.5s-139.5-62.456-139.5-139.5S691.501,298.584,768.545,298.584z"/>
</g>
<g>
	<path fill="#F0F7FD" d="M186.407,7.528c78.424,0,142,63.576,142,142s-63.576,142-142,142s-142-63.576-142-142
		C44.407,71.104,107.983,7.528,186.407,7.528z"/>
	<path fill="none" stroke="#666666" stroke-miterlimit="10" d="M138.243,109.121v145.895"/>
	<path fill="none" stroke="#666666" stroke-miterlimit="10" d="M39.096,143.578l90.304-99.08l98.963,44.586l51.956-65.641"/>
	<path fill="none" stroke="#666666" stroke-miterlimit="10" d="M224.123,156.186v98.831"/>
	<path fill="#FFFFFF" stroke="#666666" stroke-miterlimit="10" d="M253.775,75.277c-0.02-1.152-0.504-2.247-1.34-3.03
		c-0.838-0.784-1.956-1.183-3.092-1.116c-35.713,2.236-68.633-20.506-70.018-21.474c-1.428-1-3.321-1-4.75,0
		c-1.385,0.967-34.312,23.704-70.019,21.474c-1.138-0.073-2.255,0.332-3.091,1.116c-0.838,0.783-1.321,1.877-1.341,3.03
		c-0.316,18.726-0.004,77.889-0.001,78.466c0,9.83,2.866,19.247,8.761,28.793c0.815,1.319,2.689,3.893,9.533,10.981
		c6.776,7.022,28.333,24.533,29.247,25.274c0.052,0.043,0.107,0.084,0.161,0.124l14.104,10.35c4.265,3.371,14.342,9.386,15.672,9.46
		c1.123,0.054,10.101-6.088,14.366-9.46l14.105-10.35c0.054-0.04,0.108-0.082,0.161-0.124c0.914-0.742,22.47-18.252,29.247-25.274
		c6.845-7.088,8.718-9.662,9.533-10.981c5.896-9.545,8.761-18.96,8.761-28.772C253.779,153.167,254.09,94.004,253.775,75.277
		L253.775,75.277z"/>
	<path fill="#E7F5FF" d="M235.738,92.833c-0.015-0.881-0.382-1.718-1.014-2.316c-0.634-0.599-1.48-0.904-2.34-0.853
		c-27.026,1.71-51.939-15.677-52.986-16.418c-1.081-0.764-2.513-0.764-3.594,0c-1.048,0.739-25.966,18.123-52.987,16.418
		c-0.861-0.055-1.706,0.253-2.339,0.853c-0.634,0.599-1,1.435-1.015,2.316c-0.239,14.317-0.003,59.549,0,59.989
		c0,7.516,2.169,14.716,6.63,22.014c0.617,1.008,2.035,2.976,7.214,8.395c5.128,5.369,21.441,18.756,22.133,19.323
		c0.04,0.033,0.081,0.064,0.122,0.095l10.673,7.912c3.227,2.577,10.854,7.177,11.86,7.232c0.85,0.042,7.644-4.655,10.871-7.232
		l10.674-7.912c0.041-0.031,0.082-0.062,0.122-0.095c0.691-0.568,17.005-13.954,22.133-19.323c5.18-5.419,6.598-7.387,7.214-8.395
		c4.462-7.298,6.63-14.496,6.63-21.997C235.741,152.382,235.977,107.15,235.738,92.833L235.738,92.833z"/>
	<path fill="#F9FBFE" stroke="#666666" stroke-miterlimit="10" d="M156.626,266.185c4.781,0,8.656,3.882,8.656,8.672
		c0,4.789-3.876,8.672-8.656,8.672c-4.781,0-8.656-3.882-8.656-8.672C147.969,270.067,151.845,266.185,156.626,266.185z"/>
	<path fill="#F9FBFE" stroke="#666666" stroke-miterlimit="10" d="M331.344,154.091c5.972,0,10.812,4.855,10.812,10.844
		s-4.841,10.844-10.812,10.844c-5.972,0-10.812-4.855-10.812-10.844C320.532,158.946,325.373,154.091,331.344,154.091z"/>
	<path fill="#F9FBFE" stroke="#666666" stroke-miterlimit="10" d="M77.751,243.279c5.972,0,10.812,4.855,10.812,10.844
		c0,5.989-4.841,10.844-10.812,10.844c-5.971,0-10.812-4.855-10.812-10.844C66.939,248.134,71.779,243.279,77.751,243.279z"/>
	<path opacity="0.7" fill="none" stroke="#666666" stroke-miterlimit="10" d="M310.002,47.937v207.079"/>
	<path fill="none" stroke="#666666" stroke-miterlimit="10" d="M47.592,193.833v61.184"/>
	<path fill="none" stroke="#0099FF" stroke-miterlimit="10" d="M158.192,164.142l-24.378,18.765"/>
	<path fill="none" stroke="#0099FF" stroke-miterlimit="10" d="M234.449,90.807l-34.663,26.514"/>
	<path fill="#F9FBFE" stroke="#666666" stroke-miterlimit="10" d="M38.438,139.779c3.228,0,5.844,2.609,5.844,5.828
		c0,3.219-2.616,5.828-5.844,5.828c-3.227,0-5.844-2.609-5.844-5.828C32.594,142.388,35.211,139.779,38.438,139.779z"/>
	<path fill="#F9FBFE" stroke="#666666" stroke-miterlimit="10" d="M129.048,40.279c3.202,0,5.797,2.602,5.797,5.813
		c0,3.21-2.595,5.812-5.797,5.812c-3.201,0-5.797-2.602-5.797-5.812C123.251,42.881,125.846,40.279,129.048,40.279z"/>
	<path fill="#F9FBFE" stroke="#666666" stroke-miterlimit="10" d="M279.532,18.528c3.21,0,5.812,2.609,5.812,5.828
		s-2.602,5.828-5.812,5.828c-3.21,0-5.812-2.609-5.812-5.828S276.322,18.528,279.532,18.528z"/>
	<path fill="#F0F7FD" d="M229.36,161.372c22.601,0,40.922,18.419,40.922,41.141c0,22.721-18.321,41.141-40.922,41.141
		c-22.6,0-40.922-18.419-40.922-41.141C188.438,179.791,206.76,161.372,229.36,161.372z"/>
	<path fill="#FFFFFF" d="M203.707,195.783l8.913-14.665h33.425l10.028,14.665l-26.74,32.713L203.707,195.783z"/>
	<path fill="none" stroke="#666666" stroke-miterlimit="10" d="M212.771,181.219l6.535,14.564l10.054-14.126l11.115,14.126
		l5.571-14.665"/>
	<path fill="none" stroke="#666666" stroke-miterlimit="10" d="M203.707,195.783h52.366"/>
	<path fill="#666666" d="M246.157,221.216h0.875v8.156h-0.875V221.216z"/>
	<path fill="#666666" d="M242.563,224.841h8.094v0.937h-8.094V224.841z"/>
	<path fill="none" stroke="#666666" stroke-miterlimit="10" d="M219.306,195.783l10.054,32.29l11.207-32.532"/>
	<path fill="none" stroke="#666666" stroke-miterlimit="10" d="M203.707,195.783l8.913-14.665h33.425l10.028,14.665l-26.74,32.713
		L203.707,195.783z"/>
	
		<text transform="matrix(1 0 0 1 148.9695 147.5691)" fill="#0099FF" font-family="'MFLangQian_Noncommercial-Regular-GBpc-EUC-H'" font-size="24">P2P</text>
	<path fill="#F9FBFE" stroke="#666666" stroke-miterlimit="10" d="M331.346,159.25l5.686,5.692l-5.686,5.692l-5.686-5.692
		L331.346,159.25z"/>
	<path fill="#F9FBFE" stroke="#666666" stroke-miterlimit="10" d="M156.615,270.306l4.548,4.553l-4.548,4.554l-4.549-4.554
		L156.615,270.306z"/>
	<path fill="#F9FBFE" stroke="#666666" stroke-miterlimit="10" d="M77.753,248.422l5.686,5.692l-5.686,5.692l-5.686-5.692
		L77.753,248.422z"/>
	<path fill="#FFFFFF" d="M51.65,255.57h39.142v21.062H51.65V255.57z"/>
	<path fill="none" stroke="#666666" stroke-miterlimit="10" d="M9.423,255.057H343.4"/>
</g>
</svg>
