<?xml version="1.0" encoding="utf-8"?>
<!-- Generator: Adobe Illustrator 17.0.0, SVG Export Plug-In . SVG Version: 6.00 Build 0)  -->
<!DOCTYPE svg PUBLIC "-//W3C//DTD SVG 1.1//EN" "http://www.w3.org/Graphics/SVG/1.1/DTD/svg11.dtd">
<svg version="1.1" id="图层_1" xmlns="http://www.w3.org/2000/svg" xmlns:xlink="http://www.w3.org/1999/xlink" x="0px" y="0px"
	 width="350.458px" height="350px" viewBox="0 0 350.458 350" enable-background="new 0 0 350.458 350" xml:space="preserve">
<g>
	<path fill="#666666" d="M298.845,263.504h-5.429l-0.001-0.262c-0.006-1.216-0.475-2.357-1.321-3.214
		c-0.845-0.856-1.967-1.328-3.159-1.328c-0.789,0-1.563,0.211-2.24,0.61l-0.23,0.136l-2.713-4.753l0.224-0.132
		c1.039-0.612,1.783-1.594,2.095-2.765c0.312-1.171,0.155-2.392-0.442-3.439c-0.396-0.694-0.967-1.269-1.654-1.664l-0.227-0.131
		l2.715-4.754l0.229,0.134c0.688,0.401,1.469,0.613,2.257,0.613c0.775,0,1.54-0.203,2.214-0.586
		c0.693-0.395,1.271-0.974,1.671-1.674c0.397-0.695,0.604-1.486,0.598-2.288l-0.002-0.265l5.431-0.001v0.263
		c0,2.518,2.01,4.567,4.481,4.567c0.792,0,1.57-0.213,2.25-0.617l0.23-0.137l2.714,4.755l-0.225,0.132
		c-2.152,1.26-2.898,4.046-1.662,6.21c0.393,0.691,0.961,1.264,1.643,1.658l0.226,0.131l-2.713,4.753l-0.229-0.133
		c-0.686-0.397-1.462-0.607-2.246-0.607c-0.775,0-1.54,0.203-2.214,0.586c-0.693,0.395-1.271,0.973-1.671,1.673
		c-0.393,0.691-0.6,1.474-0.598,2.265L298.845,263.504z M293.933,262.978h4.391c0.039-0.792,0.266-1.569,0.661-2.263
		c0.447-0.782,1.092-1.429,1.867-1.87c0.753-0.428,1.608-0.655,2.474-0.655c0.789,0,1.571,0.19,2.278,0.551l2.198-3.851
		c-0.663-0.432-1.218-1.021-1.613-1.716c-1.334-2.337-0.596-5.325,1.632-6.788l-2.197-3.849c-0.704,0.367-1.488,0.56-2.285,0.56
		c-2.674,0-4.866-2.144-5.001-4.83l-4.388,0.001c-0.036,0.804-0.263,1.59-0.662,2.288c-0.446,0.782-1.092,1.429-1.867,1.87
		c-0.752,0.428-1.608,0.655-2.474,0.655c-0.793,0-1.579-0.192-2.289-0.557l-2.198,3.849c0.668,0.433,1.227,1.024,1.625,1.723
		c0.666,1.168,0.842,2.53,0.494,3.835c-0.325,1.221-1.072,2.258-2.116,2.945l2.198,3.85c0.7-0.363,1.48-0.554,2.273-0.554
		c1.334,0,2.589,0.527,3.534,1.485C293.35,260.552,293.865,261.723,293.933,262.978z M296.14,255.996
		c-2.931,0-5.315-2.41-5.315-5.373c0-2.963,2.384-5.373,5.315-5.373c2.931,0,5.315,2.41,5.315,5.373
		C301.455,253.585,299.071,255.996,296.14,255.996z M296.14,245.776c-2.64,0-4.788,2.174-4.788,4.846
		c0,2.672,2.148,4.846,4.788,4.846c2.64,0,4.788-2.174,4.788-4.846C300.928,247.95,298.78,245.776,296.14,245.776z"/>
	<path fill="#666666" d="M70.673,102.763h-4.235l-0.001-0.204c-0.005-0.948-0.371-1.838-1.03-2.507
		c-0.659-0.668-1.534-1.036-2.464-1.036c-0.615,0-1.219,0.165-1.747,0.476l-0.179,0.106L58.9,95.891l0.174-0.103
		c0.81-0.477,1.39-1.243,1.634-2.156c0.243-0.913,0.121-1.866-0.345-2.682c-0.309-0.541-0.755-0.99-1.29-1.298l-0.177-0.102
		l2.117-3.708l0.179,0.104c0.537,0.313,1.145,0.478,1.76,0.478c0.604,0,1.201-0.158,1.726-0.457
		c0.541-0.308,0.991-0.759,1.303-1.305c0.31-0.542,0.471-1.159,0.466-1.785l-0.002-0.207l4.236-0.001v0.205
		c0,1.964,1.568,3.562,3.495,3.562c0.618,0,1.224-0.166,1.755-0.481l0.18-0.107l2.117,3.708l-0.175,0.103
		c-1.678,0.983-2.26,3.156-1.297,4.843c0.307,0.539,0.75,0.986,1.281,1.293l0.177,0.102l-2.116,3.707l-0.179-0.104
		c-0.535-0.31-1.141-0.473-1.752-0.473c-0.604,0-1.201,0.158-1.726,0.457c-0.541,0.308-0.991,0.759-1.303,1.305
		c-0.307,0.539-0.468,1.149-0.466,1.766L70.673,102.763z M66.841,102.352h3.425c0.031-0.618,0.207-1.224,0.515-1.765
		c0.348-0.61,0.852-1.114,1.456-1.459c0.587-0.334,1.254-0.511,1.93-0.511c0.615,0,1.225,0.148,1.776,0.43l1.714-3.003
		c-0.517-0.337-0.95-0.797-1.258-1.338c-1.041-1.823-0.465-4.153,1.273-5.294l-1.714-3.002c-0.549,0.286-1.16,0.437-1.782,0.437
		c-2.086,0-3.795-1.672-3.9-3.767l-3.422,0.001c-0.028,0.627-0.205,1.24-0.516,1.785c-0.348,0.61-0.852,1.114-1.456,1.459
		c-0.587,0.334-1.254,0.511-1.93,0.511c-0.619,0-1.231-0.15-1.785-0.434l-1.714,3.002c0.521,0.338,0.957,0.799,1.267,1.343
		c0.52,0.911,0.656,1.973,0.385,2.991c-0.254,0.952-0.836,1.761-1.65,2.297l1.714,3.003c0.546-0.283,1.155-0.432,1.773-0.432
		c1.04,0,2.019,0.411,2.756,1.158C66.387,100.46,66.788,101.373,66.841,102.352z M68.563,96.907c-2.286,0-4.145-1.88-4.145-4.19
		c0-2.311,1.86-4.19,4.145-4.19c2.286,0,4.145,1.88,4.145,4.19C72.708,95.027,70.848,96.907,68.563,96.907z M68.563,88.936
		c-2.059,0-3.735,1.696-3.735,3.78c0,2.084,1.675,3.78,3.735,3.78c2.059,0,3.735-1.696,3.735-3.78
		C72.297,90.632,70.622,88.936,68.563,88.936z"/>
	<path fill-rule="evenodd" clip-rule="evenodd" fill="none" stroke="#666666" stroke-miterlimit="10" d="M152.486,73.035
		l19.544-15.655h4.886"/>
	<path fill-rule="evenodd" clip-rule="evenodd" fill="none" stroke="#666666" stroke-miterlimit="10" d="M147.905,79.481
		l25.346-19.953h5.802c0,0,2.951-3.634,0-8.595h-5.802L147.905,30.98"/>
	<path fill-rule="evenodd" clip-rule="evenodd" fill="none" stroke="#666666" stroke-miterlimit="10" d="M145.208,60.237
		c-0.034-1.569-0.051-3.192-0.051-4.854c0-13.478,1.162-24.404,2.596-24.404c1.434,0,2.596,10.926,2.596,24.404
		c0,13.478-1.162,24.404-2.596,24.404c-0.757,0-1.439-3.05-1.914-7.916"/>
	<path fill-rule="evenodd" clip-rule="evenodd" fill="none" stroke="#666666" stroke-miterlimit="10" d="M148.974,56.765
		c-1.096,0-1.985-0.893-1.985-1.995c0-1.102,0.889-1.995,1.985-1.995"/>
	<path fill-rule="evenodd" clip-rule="evenodd" fill="none" stroke="#666666" stroke-miterlimit="10" d="M141.798,65.547h2.443"/>
	<path fill-rule="evenodd" clip-rule="evenodd" fill="none" stroke="#666666" stroke-miterlimit="10" d="M142.718,62.898
		c1.691,0,3.062,1.378,3.062,3.078c0,1.7-1.371,3.078-3.062,3.078s-3.062-1.378-3.062-3.078
		C139.655,64.276,141.026,62.898,142.718,62.898z"/>
	<path fill-rule="evenodd" clip-rule="evenodd" fill="none" stroke="#666666" stroke-miterlimit="10" d="M133.437,51.13
		l-2.817,3.937"/>
	<path fill-rule="evenodd" clip-rule="evenodd" fill="none" stroke="#666666" stroke-miterlimit="10" d="M127.887,50.933
		l2.799,3.956"/>
	<path fill-rule="evenodd" clip-rule="evenodd" fill="none" stroke="#666666" stroke-miterlimit="10" d="M130.686,55.076v5.522"/>
	<path fill-rule="evenodd" clip-rule="evenodd" fill="none" stroke="#666666" stroke-miterlimit="10" d="M126.204,57.143h8.26"/>
	<path fill-rule="evenodd" clip-rule="evenodd" fill="none" stroke="#666666" stroke-miterlimit="10" d="M126.201,54.728h8.264"/>
	<path fill-rule="evenodd" clip-rule="evenodd" fill="none" stroke="#666666" stroke-miterlimit="10" d="M130.546,45.523
		c5.359,0,9.703,4.344,9.703,9.703s-4.344,9.703-9.703,9.703c-5.359,0-9.703-4.344-9.703-9.703S125.187,45.523,130.546,45.523z"/>
	<path fill-rule="evenodd" clip-rule="evenodd" fill="#666666" d="M41.28,295.331v-0.626h181.022v0.626H41.28z"/>
	<path fill-rule="evenodd" clip-rule="evenodd" fill="#666666" d="M93.831,304.492v-0.626H315.78v0.626H93.831z"/>
	<g>
		<g>
			<g>
				<line fill="none" stroke="#666666" stroke-miterlimit="10" x1="180.962" y1="54.291" x2="181.962" y2="54.291"/>
				<path fill="none" stroke="#666666" stroke-miterlimit="10" stroke-dasharray="2.0337,2.0337" d="M183.992,54.416
					c6.077,0.863,10.75,6.084,10.75,12.396v13.636"/>
				<line fill="none" stroke="#666666" stroke-miterlimit="10" x1="194.742" y1="81.465" x2="194.742" y2="82.465"/>
			</g>
		</g>
	</g>
	<path fill-rule="evenodd" clip-rule="evenodd" fill="#D9EEFF" d="M165.296,126.304c19.373,0,35.078,15.698,35.078,35.063
		c0,19.364-15.705,35.062-35.078,35.062c-19.373,0-35.078-15.698-35.078-35.062C130.218,142.002,145.923,126.304,165.296,126.304z"
		/>
	<g>
		<g>
			<g>
				<path fill="none" stroke="#666666" stroke-miterlimit="10" d="M252.368,199.541c0.336,0,0.67,0.013,1,0.039"/>
				<path fill="none" stroke="#666666" stroke-miterlimit="10" stroke-dasharray="1.9795,1.9795" d="M255.323,199.892
					c5.493,1.328,9.572,6.273,9.572,12.171c0,6.915-5.609,12.521-12.527,12.521h-29.966"/>
				<line fill="none" stroke="#666666" stroke-miterlimit="10" x1="221.423" y1="224.584" x2="220.423" y2="224.584"/>
			</g>
		</g>
	</g>
	<g>
		<g>
			<g>
				<line fill="none" stroke="#666666" stroke-miterlimit="10" x1="60.071" y1="285.94" x2="60.071" y2="284.94"/>
				<path fill="none" stroke="#666666" stroke-miterlimit="10" stroke-dasharray="2.0163,2.0163" d="M60.071,282.924v-47.696
					c0-6.915,5.609-12.521,12.527-12.521h32.442"/>
				<line fill="none" stroke="#666666" stroke-miterlimit="10" x1="106.049" y1="222.706" x2="107.049" y2="222.706"/>
			</g>
		</g>
	</g>
	<path fill-rule="evenodd" clip-rule="evenodd" fill="none" stroke="#666666" stroke-miterlimit="10" d="M97.027,168.864v46.33"/>
	<g>
		<g>
			<g>
				<path fill="none" stroke="#666666" stroke-miterlimit="10" d="M76.357,185.768c-0.336,0-0.67-0.013-1-0.039"/>
				<path fill="none" stroke="#666666" stroke-miterlimit="10" stroke-dasharray="2.0334,2.0334" d="M73.349,185.405
					c-5.466-1.346-9.52-6.279-9.52-12.158c0-6.915,5.609-12.522,12.527-12.522h39.961"/>
				<line fill="none" stroke="#666666" stroke-miterlimit="10" x1="117.324" y1="160.724" x2="118.324" y2="160.724"/>
			</g>
		</g>
	</g>
	<g>
		<g>
			<g>
				<path fill="none" stroke="#666666" stroke-miterlimit="10" d="M252.368,136.934c0.336,0,0.67,0.013,1,0.039"/>
				<path fill="none" stroke="#666666" stroke-miterlimit="10" stroke-dasharray="2.0334,2.0334" d="M255.376,137.297
					c5.466,1.346,9.52,6.279,9.52,12.158c0,6.915-5.609,12.522-12.527,12.522h-39.961"/>
				<line fill="none" stroke="#666666" stroke-miterlimit="10" x1="211.401" y1="161.977" x2="210.401" y2="161.977"/>
			</g>
		</g>
	</g>
	<path fill-rule="evenodd" clip-rule="evenodd" fill="none" stroke="#666666" stroke-miterlimit="10" d="M119.577,248.123h45.725"/>
	<path fill-rule="evenodd" clip-rule="evenodd" fill="none" stroke="#666666" stroke-miterlimit="10" d="M119.577,235.602h90.824"/>
	<path fill-rule="evenodd" clip-rule="evenodd" fill="none" stroke="#666666" stroke-miterlimit="10" d="M119.577,235.602h90.824"/>
	<g>
		<g>
			<g>
				<line fill="none" stroke="#666666" stroke-miterlimit="10" x1="119.577" y1="223.332" x2="120.577" y2="223.332"/>
				
					<line fill="none" stroke="#666666" stroke-miterlimit="10" stroke-dasharray="1.9739,1.9739" x1="122.551" y1="223.332" x2="208.414" y2="223.332"/>
				<line fill="none" stroke="#666666" stroke-miterlimit="10" x1="209.401" y1="223.332" x2="210.401" y2="223.332"/>
			</g>
		</g>
	</g>
	<path fill-rule="evenodd" clip-rule="evenodd" fill="#D9EEFF" d="M206.78,92.492h35v7h-35V92.492z"/>
	<path fill-rule="evenodd" clip-rule="evenodd" fill="#D9EEFF" d="M235.28,92.492h7v58.5h-7V92.492z"/>
	<path fill-rule="evenodd" clip-rule="evenodd" fill="#D9EEFF" d="M87.78,92.492h35v7h-35V92.492z"/>
	<path fill-rule="evenodd" clip-rule="evenodd" fill="#D9EEFF" d="M87.78,93.492h7v58.5h-7V93.492z"/>
	<path fill-rule="evenodd" clip-rule="evenodd" fill="#D9EEFF" d="M234.78,231.992h7v18.5h-7V231.992z"/>
	<path fill-rule="evenodd" clip-rule="evenodd" fill="#D9EEFF" d="M235.659,168.992h7v46.5h-7V168.992z"/>
	<path fill-rule="evenodd" clip-rule="evenodd" fill="#D9EEFF" d="M87.78,168.992h7v46.5h-7V168.992z"/>
	<path fill-rule="evenodd" clip-rule="evenodd" fill="#D9EEFF" d="M87.78,232.992h7v17h-7V232.992z"/>
	<path fill-rule="evenodd" clip-rule="evenodd" fill="#D9EEFF" d="M101.78,276.492h105v9.5h-105V276.492z"/>
	<path fill-rule="evenodd" clip-rule="evenodd" fill="#D9EEFF" d="M129.78,93.492h68l-9.458,10.542l-51.542-0.042L129.78,93.492z"/>
	<path fill-rule="evenodd" clip-rule="evenodd" fill="none" stroke="#666666" stroke-miterlimit="10" d="M126.467,91.856l8.769,14.4
		h54.494l11.901-14.4"/>
	<path fill-rule="evenodd" clip-rule="evenodd" fill="none" stroke="#666666" stroke-miterlimit="10" d="M244.852,168.864v46.33"/>
	<path fill-rule="evenodd" clip-rule="evenodd" fill="none" stroke="#666666" stroke-miterlimit="10" d="M233.577,168.864v46.33"/>
	<path fill-rule="evenodd" clip-rule="evenodd" fill="none" stroke="#666666" stroke-miterlimit="10" d="M97.027,168.864v46.33"/>
	<path fill-rule="evenodd" clip-rule="evenodd" fill="none" stroke="#666666" stroke-miterlimit="10" d="M86.379,168.864v46.33"/>
	<path fill-rule="evenodd" clip-rule="evenodd" fill="none" stroke="#666666" stroke-miterlimit="10" d="M207.269,100.621h26.308
		v50.086"/>
	<path fill-rule="evenodd" clip-rule="evenodd" fill="none" stroke="#666666" stroke-miterlimit="10" d="M123.335,101.873H97.027
		v50.086"/>
	<path fill-rule="evenodd" clip-rule="evenodd" fill="none" stroke="#666666" stroke-miterlimit="10" d="M97.011,232.097v41.947
		h116.174l19.156-18.156v-23.791"/>
	<path fill-rule="evenodd" clip-rule="evenodd" fill="none" stroke="#666666" stroke-miterlimit="10" d="M244.225,229.593v59.477
		H85.126v-58.851"/>
	<path fill-rule="evenodd" clip-rule="evenodd" fill="none" stroke="#666666" stroke-miterlimit="10" d="M85.126,153.212V90.604
		h159.099v58.851"/>
	<path fill-rule="evenodd" clip-rule="evenodd" fill="#FFFFFF" stroke="#69BBFF" stroke-miterlimit="10" d="M255.473,133.137
		c2.097,0,3.797,1.7,3.797,3.797s-1.7,3.797-3.797,3.797c-2.097,0-3.797-1.7-3.797-3.797S253.376,133.137,255.473,133.137z"/>
	<path fill-rule="evenodd" clip-rule="evenodd" fill="#0099FF" d="M255.489,135.043c1.053,0,1.906,0.853,1.906,1.906
		c0,1.053-0.854,1.906-1.906,1.906c-1.053,0-1.906-0.854-1.906-1.906C253.582,135.897,254.436,135.043,255.489,135.043z"/>
	<path fill-rule="evenodd" clip-rule="evenodd" fill="#FFFFFF" stroke="#69BBFF" stroke-miterlimit="10" d="M75.466,182.096
		c2.097,0,3.797,1.7,3.797,3.797s-1.7,3.797-3.797,3.797c-2.097,0-3.797-1.7-3.797-3.797S73.369,182.096,75.466,182.096z"/>
	<path fill-rule="evenodd" clip-rule="evenodd" fill="#0099FF" d="M75.482,184.002c1.053,0,1.906,0.853,1.906,1.906
		c0,1.053-0.854,1.906-1.906,1.906c-1.053,0-1.906-0.854-1.906-1.906C73.576,184.856,74.429,184.002,75.482,184.002z"/>
	<path fill-rule="evenodd" clip-rule="evenodd" fill="#FFFFFF" stroke="#666666" stroke-miterlimit="10" d="M68.843,251.523h31.312
		v37.563H68.843V251.523z"/>
	<path fill-rule="evenodd" clip-rule="evenodd" fill="none" stroke="#666666" stroke-miterlimit="10" d="M80.324,278.889
		l-4.662,4.62"/>
	<path fill-rule="evenodd" clip-rule="evenodd" fill="none" stroke="#666666" stroke-miterlimit="10" d="M75.609,278.947
		l4.274,4.234"/>
	<path fill-rule="evenodd" clip-rule="evenodd" fill="none" stroke="#666666" stroke-miterlimit="10" d="M77.632,265.116v6.533"/>
	<path fill-rule="evenodd" clip-rule="evenodd" fill="#666666" d="M90.976,278.211h0.234c0.237,0,0.43,0.192,0.43,0.43v0.234
		c0,0.237-0.192,0.43-0.43,0.43h-0.234c-0.237,0-0.43-0.192-0.43-0.43v-0.234C90.546,278.403,90.739,278.211,90.976,278.211z"/>
	<path fill-rule="evenodd" clip-rule="evenodd" fill="#666666" d="M90.976,283.085h0.234c0.237,0,0.43,0.193,0.43,0.43v0.234
		c0,0.238-0.192,0.43-0.43,0.43h-0.234c-0.237,0-0.43-0.192-0.43-0.43v-0.234C90.546,283.278,90.739,283.085,90.976,283.085z"/>
	<path fill-rule="evenodd" clip-rule="evenodd" fill="none" stroke="#666666" stroke-miterlimit="10" d="M88.071,280.904h6.044"/>
	<path fill-rule="evenodd" clip-rule="evenodd" fill="none" stroke="#666666" stroke-miterlimit="10" d="M88.071,268.383h6.044"/>
	<path fill-rule="evenodd" clip-rule="evenodd" fill="none" stroke="#666666" stroke-miterlimit="10" d="M74.61,268.383h6.044"/>
	<path fill-rule="evenodd" clip-rule="evenodd" fill="none" stroke="#666666" stroke-miterlimit="10" d="M73.811,255.335h20.844
		v5.969H73.811V255.335z"/>
	<path fill-rule="evenodd" clip-rule="evenodd" fill="#FFFFFF" d="M206.655,247.742h92.688v68.25h-92.688V247.742z"/>
	<path fill-rule="evenodd" clip-rule="evenodd" fill="#FFFFFF" stroke="#666666" stroke-miterlimit="10" d="M218.214,305.809
		v-46.437c0-1.578,1.287-2.858,2.875-2.858h70.433c1.588,0,2.875,1.28,2.875,2.858v46.437"/>
	<path fill-rule="evenodd" clip-rule="evenodd" fill="none" stroke="#666666" stroke-width="1.011" stroke-miterlimit="10" d="
		M210.473,307.238h91.089"/>
	<path fill-rule="evenodd" clip-rule="evenodd" fill="none" stroke="#666666" stroke-miterlimit="10" d="M247.554,310.81h16.89"/>
	<path fill-rule="evenodd" clip-rule="evenodd" fill="none" stroke="#666666" stroke-miterlimit="10" d="M301.098,307.238v4.644
		c0,1.578-1.287,2.858-2.875,2.858h-84.448c-1.588,0-2.875-1.28-2.875-2.858v-4.644"/>
	<g>
		<path fill-rule="evenodd" clip-rule="evenodd" fill="none" stroke="#D9EEFF" stroke-miterlimit="10" d="M231.875,289.604
			l17.249-18.801l10.421,20.004l23.717-21.432"/>
		<path fill-rule="evenodd" clip-rule="evenodd" fill="#8DD1FF" d="M283.082,267.961c1.096,0,1.984,0.874,1.984,1.953
			c0,1.079-0.888,1.953-1.984,1.953c-1.096,0-1.984-0.874-1.984-1.953C281.098,268.835,281.986,267.961,283.082,267.961z"/>
		<path fill-rule="evenodd" clip-rule="evenodd" fill="#8DD1FF" d="M259.363,288.679c1.096,0,1.984,0.874,1.984,1.953
			c0,1.079-0.888,1.953-1.984,1.953c-1.096,0-1.984-0.874-1.984-1.953C257.379,289.554,258.268,288.679,259.363,288.679z"/>
		<path fill-rule="evenodd" clip-rule="evenodd" fill="#8DD1FF" d="M248.957,269.367c1.096,0,1.984,0.881,1.984,1.969
			c0,1.087-0.888,1.969-1.984,1.969c-1.096,0-1.984-0.882-1.984-1.969C246.973,270.248,247.861,269.367,248.957,269.367z"/>
		<path fill-rule="evenodd" clip-rule="evenodd" fill="#8DD1FF" d="M231.707,288.304c1.096,0,1.985,0.882,1.985,1.969
			c0,1.087-0.889,1.969-1.985,1.969c-1.096,0-1.984-0.882-1.984-1.969C229.723,289.186,230.611,288.304,231.707,288.304z"/>
	</g>
	<path fill-rule="evenodd" clip-rule="evenodd" fill="none" stroke="#0099FF" stroke-miterlimit="10" d="M174.092,148.918
		l-8.542,11.939"/>
	<path fill-rule="evenodd" clip-rule="evenodd" fill="none" stroke="#0099FF" stroke-miterlimit="10" d="M157.264,148.321
		l8.488,11.995"/>
	<path fill-rule="evenodd" clip-rule="evenodd" fill="none" stroke="#0099FF" stroke-miterlimit="10" d="M165.75,160.883v16.743"/>
	<path fill-rule="evenodd" clip-rule="evenodd" fill="none" stroke="#0099FF" stroke-miterlimit="10" d="M152.159,167.148h25.047"/>
	<path fill-rule="evenodd" clip-rule="evenodd" fill="none" stroke="#0099FF" stroke-miterlimit="10" d="M152.15,159.827h25.057"/>
</g>
</svg>
