<?xml version="1.0" encoding="utf-8"?>
<!-- Generator: Adobe Illustrator 17.0.0, SVG Export Plug-In . SVG Version: 6.00 Build 0)  -->
<!DOCTYPE svg PUBLIC "-//W3C//DTD SVG 1.1//EN" "http://www.w3.org/Graphics/SVG/1.1/DTD/svg11.dtd">
<svg version="1.1" id="图层_1" xmlns="http://www.w3.org/2000/svg" xmlns:xlink="http://www.w3.org/1999/xlink" x="0px" y="0px"
	 width="349.611px" height="349.782px" viewBox="0 0 349.611 349.782" enable-background="new 0 0 349.611 349.782"
	 xml:space="preserve">
<g>
	<g>
		<path fill="none" stroke="#666666" stroke-miterlimit="10" d="M155.841,282.673c-1.795,0-3.255-1.461-3.255-3.255
			c0-1.795,1.46-3.256,3.255-3.256c1.795,0,3.255,1.46,3.255,3.256C159.096,281.212,157.636,282.673,155.841,282.673z"/>
		<path fill="none" stroke="#666666" stroke-miterlimit="10" d="M156.817,286.905h-1.953c-0.539,0-0.977-0.439-0.977-0.977v-0.234
			c-0.001-0.148-0.412-0.563-0.627-0.668c-0.154-0.005-0.338,0.07-0.479,0.211l-0.164,0.164c-0.367,0.368-1.013,0.368-1.381,0
			l-1.381-1.38c-0.183-0.183-0.286-0.432-0.285-0.691c0-0.262,0.101-0.507,0.285-0.691l0.164-0.164
			c0.104-0.104,0.109-0.688,0.031-0.913c-0.022-0.056-0.221-0.193-0.487-0.193h-0.234c-0.538,0-0.977-0.439-0.977-0.977
			l-0.001-1.953c0-0.538,0.438-0.977,0.977-0.977h0.235c0.144-0.001,0.566-0.417,0.666-0.626c0.022-0.055-0.023-0.293-0.21-0.48
			l-0.163-0.163c-0.381-0.381-0.381-1,0-1.381l1.381-1.382c0.368-0.368,1.013-0.368,1.381,0l0.164,0.164
			c0.022,0.022,0.153,0.084,0.456,0.084c0.209,0,0.395-0.031,0.456-0.053c0.056-0.022,0.194-0.221,0.194-0.487v-0.234
			c0-0.539,0.438-0.977,0.977-0.977h1.953c0.539,0,0.977,0.438,0.977,0.977v0.234c0.001,0.148,0.412,0.563,0.627,0.666
			c0.15-0.003,0.337-0.07,0.479-0.211l0.164-0.164c0.367-0.368,1.013-0.368,1.381,0l1.381,1.381
			c0.183,0.184,0.285,0.429,0.285,0.691c0,0.261-0.102,0.507-0.285,0.69l-0.164,0.164c-0.104,0.104-0.111,0.688-0.032,0.913
			c0.023,0.056,0.221,0.193,0.487,0.193h0.235c0.538,0,0.977,0.438,0.977,0.977v1.953c0,0.538-0.439,0.977-0.977,0.977h-0.235
			c-0.147,0.001-0.563,0.412-0.666,0.627c-0.022,0.055,0.024,0.291,0.211,0.478l0.164,0.164c0.183,0.183,0.285,0.432,0.285,0.691
			c0,0.262-0.102,0.507-0.285,0.691l-1.381,1.382c-0.367,0.368-1.013,0.368-1.381,0l-0.165-0.165
			c-0.022-0.022-0.151-0.084-0.455-0.084c-0.209,0-0.395,0.032-0.456,0.053c-0.055,0.022-0.193,0.22-0.193,0.487v0.234
			C157.794,286.466,157.356,286.905,156.817,286.905L156.817,286.905z"/>
	</g>
	<polygon fill-rule="evenodd" clip-rule="evenodd" fill="#FFFFFF" points="156.841,288.852 134.155,288.852 134.155,275.977 
		153.84,275.977 	"/>
	<g>
		<g>
			<g>
				<path fill="none" stroke="#666666" stroke-miterlimit="10" d="M23.686,188.692c-0.01-0.332-0.019-0.664-0.026-0.997"/>
				<path fill="none" stroke="#666666" stroke-miterlimit="10" stroke-dasharray="1.9958,1.9958" d="M23.627,185.702
					c-0.004-0.455-0.006-0.91-0.006-1.365c0-66.885,45.855-123.06,107.842-138.804"/>
				<path fill="none" stroke="#666666" stroke-miterlimit="10" d="M132.436,45.289c0.323-0.08,0.647-0.158,0.972-0.236"/>
			</g>
			<g>
				<path fill="none" stroke="#666666" stroke-miterlimit="10" d="M289.136,258.853c-0.174,0.284-0.348,0.568-0.524,0.852"/>
				<path fill="none" stroke="#666666" stroke-miterlimit="10" stroke-dasharray="2.0035,2.0035" d="M287.544,261.4
					c-25.443,39.773-70.003,66.14-120.721,66.14c-50.845,0-95.502-26.499-120.912-66.44"/>
				<path fill="none" stroke="#666666" stroke-miterlimit="10" d="M45.376,260.251c-0.177-0.282-0.353-0.565-0.528-0.849"/>
			</g>
			<g>
				<path fill="none" stroke="#666666" stroke-miterlimit="10" d="M209.158,47.494c0.319,0.098,0.637,0.198,0.954,0.299"/>
				<path fill="none" stroke="#666666" stroke-miterlimit="10" stroke-dasharray="1.9896,1.9896" d="M212.005,48.407
					c56.949,18.92,98.022,72.628,98.022,135.93c0,1.018-0.011,2.034-0.032,3.048"/>
				<path fill="none" stroke="#666666" stroke-miterlimit="10" d="M309.971,188.377c-0.009,0.332-0.02,0.665-0.031,0.996"/>
			</g>
		</g>
	</g>
	<path fill-rule="evenodd" clip-rule="evenodd" fill="#666666" d="M120.34,289.086h66.656v0.469H120.34V289.086z"/>
	<path fill-rule="evenodd" clip-rule="evenodd" fill="none" stroke="#666666" stroke-width="1.0474" stroke-miterlimit="10" d="
		M189.71,53.324c0,0-0.274,2.013,2.853,2.154c2.95,0.134,3.425-2.041,3.566-2.463"/>
	<path fill-rule="evenodd" clip-rule="evenodd" fill="none" stroke="#666666" stroke-miterlimit="10" d="M192.808,50.133
		c1.881,0,3.406,0.902,3.406,2.015c0,1.113-1.525,2.016-3.406,2.016c-1.881,0-3.406-0.902-3.406-2.016
		C189.402,51.036,190.927,50.133,192.808,50.133z"/>
	<path fill-rule="evenodd" clip-rule="evenodd" fill="none" stroke="#666666" stroke-width="1.0584" stroke-miterlimit="10" d="
		M185.06,62.287c0,0-0.409,3.112,4.266,3.331c4.412,0.206,5.122-3.154,5.333-3.806"/>
	<path fill-rule="evenodd" clip-rule="evenodd" fill="none" stroke="#666666" stroke-miterlimit="10" d="M189.621,58.227
		c2.762,0,5,1.385,5,3.094s-2.238,3.094-5,3.094c-2.761,0-5-1.385-5-3.094S186.859,58.227,189.621,58.227z"/>
	<path fill-rule="evenodd" clip-rule="evenodd" fill="none" stroke="#666666" stroke-miterlimit="10" d="M174.611,24.441
		l8.569-7.613l15.709,16.177L183.18,46.803"/>
	<path fill-rule="evenodd" clip-rule="evenodd" fill="none" stroke="#666666" stroke-miterlimit="10" d="M160.794,54.292
		l-4.819,4.798"/>
	<path fill-rule="evenodd" clip-rule="evenodd" fill="none" stroke="#666666" stroke-miterlimit="10" d="M155.993,54.534
		l4.417,4.398"/>
	<path fill-rule="evenodd" clip-rule="evenodd" fill="none" stroke="#666666" stroke-miterlimit="10" d="M158.468,40.094v6.785"/>
	<path fill-rule="evenodd" clip-rule="evenodd" fill="#666666" d="M172.298,53.102c0.311,0,0.562,0.252,0.562,0.563v0.031
		c0,0.311-0.252,0.563-0.562,0.563c-0.311,0-0.562-0.252-0.562-0.563v-0.031C171.736,53.354,171.987,53.102,172.298,53.102z"/>
	<path fill-rule="evenodd" clip-rule="evenodd" fill="#666666" d="M172.298,58.196c0.311,0,0.562,0.252,0.562,0.562
		c0,0.311-0.252,0.563-0.562,0.563c-0.311,0-0.562-0.252-0.562-0.563C171.736,58.448,171.987,58.196,172.298,58.196z"/>
	<path fill-rule="evenodd" clip-rule="evenodd" fill="none" stroke="#666666" stroke-miterlimit="10" d="M169.258,56.102h6.247"/>
	<path fill-rule="evenodd" clip-rule="evenodd" fill="none" stroke="#666666" stroke-miterlimit="10" d="M169.258,42.921h6.247"/>
	<path fill-rule="evenodd" clip-rule="evenodd" fill="none" stroke="#666666" stroke-miterlimit="10" d="M155.261,43.486h6.247"/>
	<path fill-rule="evenodd" clip-rule="evenodd" fill="none" stroke="#666666" stroke-miterlimit="10" d="M154.496,29.352h21.594
		v6.219h-21.594V29.352z"/>
	<path fill-rule="evenodd" clip-rule="evenodd" fill="none" stroke="#666666" stroke-miterlimit="10" d="M149.402,25.415h32.344v39
		h-32.344V25.415z"/>
	<path fill-rule="evenodd" clip-rule="evenodd" fill="#FFFFFF" stroke="#69BBFF" stroke-miterlimit="10" d="M167.48,323.258
		c2.097,0,3.797,1.7,3.797,3.797c0,2.097-1.7,3.797-3.797,3.797c-2.097,0-3.797-1.7-3.797-3.797
		C163.683,324.958,165.383,323.258,167.48,323.258z"/>
	<path fill-rule="evenodd" clip-rule="evenodd" fill="#FFFFFF" stroke="#69BBFF" stroke-miterlimit="10" d="M284.105,97.727
		c2.097,0,3.797,1.7,3.797,3.797s-1.7,3.797-3.797,3.797c-2.097,0-3.797-1.7-3.797-3.797S282.008,97.727,284.105,97.727z"/>
	<path fill-rule="evenodd" clip-rule="evenodd" fill="#D9EEFF" d="M92.514,111.103h81.83l-5.384-6.46h-68.91L92.514,111.103z"/>
	<path fill-rule="evenodd" clip-rule="evenodd" fill="none" stroke="#666666" stroke-width="0.9253" stroke-miterlimit="10" d="
		M247.561,242.477v12.905"/>
	<path fill-rule="evenodd" clip-rule="evenodd" fill="none" stroke="#666666" stroke-width="0.9253" stroke-miterlimit="10" d="
		M214.183,242.477v12.905"/>
	<path fill-rule="evenodd" clip-rule="evenodd" fill="none" stroke="#666666" stroke-miterlimit="10" d="M162.501,255.382h94.751"/>
	<path fill-rule="evenodd" clip-rule="evenodd" fill="#FFFFFF" stroke="#0099FF" stroke-miterlimit="10" d="M162.501,247.845h40.915
		"/>
	<path fill-rule="evenodd" clip-rule="evenodd" fill="none" stroke="#666666" stroke-miterlimit="10" d="M48.369,255.382h57.066"/>
	<path fill-rule="evenodd" clip-rule="evenodd" fill="none" stroke="#666666" stroke-miterlimit="10" d="M261.559,255.382h15.074"/>
	<path fill-rule="evenodd" clip-rule="evenodd" fill="#FFFFFF" stroke="#0099FF" stroke-miterlimit="10" d="M48.369,247.845h57.066"
		/>
	<path fill-rule="evenodd" clip-rule="evenodd" fill="#D9EEFF" d="M113.152,246.543h19v6h6v-4.5h18v8.5h-43V246.543z"/>
	<path fill-rule="evenodd" clip-rule="evenodd" fill="none" stroke="#666666" stroke-miterlimit="10" d="M126.969,226.311v18.304
		h-16.151v13.997h47.375v-12.921h-17.227v-19.381h-5.384v24.764"/>
	<path fill-rule="evenodd" clip-rule="evenodd" fill="none" stroke="#666666" stroke-miterlimit="10" d="M161.424,190.779
		c0,0,23.698-21.379,43.069,7.537"/>
	<path fill-rule="evenodd" clip-rule="evenodd" fill="none" stroke="#666666" stroke-miterlimit="10" d="M138.813,191.856
		c0,0,14.688-4.23,23.688,7.537"/>
	<path fill-rule="evenodd" clip-rule="evenodd" fill="none" stroke="#666666" stroke-miterlimit="10" d="M73.133,199.393
		c0,0,27.84-36.955,62.449,0"/>
	<path fill-rule="evenodd" clip-rule="evenodd" fill="#666666" d="M66.683,220.915h116.281v1.094H66.683V220.915z"/>
	<path fill-rule="evenodd" clip-rule="evenodd" fill="none" stroke="#666666" stroke-miterlimit="10" d="M194.038,134.573
		c0.393-0.061,71.917,48.37-11.079,86.354"/>
	<path fill-rule="evenodd" clip-rule="evenodd" fill="none" stroke="#666666" stroke-miterlimit="10" d="M76.363,153.094
		c0,0-14.139,5.06-9.69,19.381c0.284,0.913-42.263,21.503,0.542,48.986"/>
	<path fill-rule="evenodd" clip-rule="evenodd" fill="none" stroke="#231815" stroke-miterlimit="10" d="M188.342,173.552v5.384"/>
	<path fill-rule="evenodd" clip-rule="evenodd" fill="none" stroke="#666666" stroke-miterlimit="10" d="M81.747,173.552v11.844"/>
	<path fill-rule="evenodd" clip-rule="evenodd" fill="none" stroke="#666666" stroke-miterlimit="10" d="M119.969,183.242
		l6.46-8.614h7.537l-8.614,12.92"/>
	<path fill-rule="evenodd" clip-rule="evenodd" fill="none" stroke="#666666" stroke-miterlimit="10" d="M96.821,177.859l3.23-3.23
		h8.614l-2.154,4.307"/>
	<path fill-rule="evenodd" clip-rule="evenodd" fill="#D9EEFF" d="M168.418,148.821c3.271,0,5.922,2.645,5.922,5.906
		c0,3.262-2.651,5.906-5.922,5.906c-3.271,0-5.922-2.644-5.922-5.906C162.496,151.465,165.147,148.821,168.418,148.821z"/>
	<path fill-rule="evenodd" clip-rule="evenodd" fill="#D9EEFF" d="M168.418,121.852c3.271,0,5.922,2.658,5.922,5.938
		c0,3.279-2.651,5.938-5.922,5.938c-3.271,0-5.922-2.658-5.922-5.938C162.496,124.51,165.147,121.852,168.418,121.852z"/>
	<path fill-rule="evenodd" clip-rule="evenodd" fill="none" stroke="#666666" stroke-miterlimit="10" d="M81.736,114.685
		l15.085-14.35h74.294l16.161,14.017"/>
	<path fill-rule="evenodd" clip-rule="evenodd" fill="#D9EEFF" d="M128.202,147.711h8.614l-10.767,16.151h-8.614L128.202,147.711z"
		/>
	<path fill-rule="evenodd" clip-rule="evenodd" fill="#D9EEFF" d="M106.551,147.711h8.614l-10.767,16.151h-8.614L106.551,147.711z"
		/>
	<path fill-rule="evenodd" clip-rule="evenodd" fill="#D9EEFF" d="M130.202,119.716h8.614l-10.767,16.151h-8.614L130.202,119.716z"
		/>
	<path fill-rule="evenodd" clip-rule="evenodd" fill="#D9EEFF" d="M106.551,119.716h8.614l-10.767,16.151h-8.614L106.551,119.716z"
		/>
	<path fill-rule="evenodd" clip-rule="evenodd" fill="none" stroke="#666666" stroke-miterlimit="10" d="M81.736,146.634v22.611
		h105.54v-22.611"/>
	<path fill-rule="evenodd" clip-rule="evenodd" fill="none" stroke="#666666" stroke-miterlimit="10" d="M81.736,114.685
		l105.54-0.333v27.969H81.747L81.736,114.685z"/>
	<path fill="#FFFFFF" stroke="#666666" stroke-miterlimit="10" d="M144.556,298.836h-3.084c-0.851,0-1.542-0.693-1.542-1.542v-0.37
		c-0.002-0.233-0.651-0.89-0.99-1.054c-0.244-0.008-0.533,0.11-0.756,0.333l-0.259,0.259c-0.58,0.58-1.601,0.58-2.181,0
		l-2.181-2.179c-0.289-0.289-0.451-0.682-0.45-1.091c0-0.414,0.16-0.801,0.45-1.091l0.259-0.259
		c0.165-0.165,0.173-1.086,0.049-1.442c-0.035-0.088-0.349-0.305-0.769-0.305h-0.37c-0.85,0-1.542-0.693-1.542-1.542l-0.001-3.085
		c0-0.85,0.692-1.542,1.542-1.542h0.371c0.228-0.002,0.894-0.658,1.051-0.988c0.035-0.087-0.036-0.462-0.332-0.758l-0.258-0.258
		c-0.601-0.601-0.601-1.579,0-2.181l2.181-2.182c0.58-0.58,1.601-0.58,2.181,0l0.259,0.259c0.034,0.035,0.241,0.133,0.72,0.133
		c0.329,0,0.625-0.05,0.72-0.083c0.088-0.035,0.306-0.349,0.306-0.77v-0.37c0-0.851,0.692-1.542,1.542-1.542h3.084
		c0.851,0,1.542,0.692,1.542,1.542v0.37c0.002,0.233,0.651,0.89,0.99,1.052c0.237-0.005,0.532-0.11,0.757-0.333l0.259-0.259
		c0.58-0.581,1.601-0.581,2.181-0.001l2.181,2.181c0.289,0.29,0.45,0.678,0.45,1.091s-0.161,0.8-0.45,1.09l-0.259,0.259
		c-0.165,0.165-0.175,1.086-0.05,1.442c0.036,0.088,0.349,0.305,0.769,0.305h0.372c0.85,0,1.542,0.692,1.542,1.542v3.085
		c0,0.849-0.693,1.542-1.542,1.542h-0.372c-0.233,0.002-0.89,0.651-1.052,0.99c-0.034,0.086,0.038,0.46,0.333,0.755l0.259,0.259
		c0.289,0.289,0.451,0.682,0.45,1.091c0,0.414-0.161,0.801-0.45,1.091l-2.181,2.183c-0.58,0.58-1.601,0.58-2.181,0l-0.261-0.261
		c-0.034-0.034-0.239-0.132-0.719-0.132c-0.329,0-0.624,0.05-0.721,0.084c-0.086,0.034-0.305,0.347-0.305,0.769v0.37
		C146.098,298.143,145.408,298.836,144.556,298.836L144.556,298.836z"/>
	<path fill-rule="evenodd" clip-rule="evenodd" fill="#FFFFFF" stroke="#69BBFF" stroke-miterlimit="10" d="M49.902,97.727
		c2.106,0,3.812,1.7,3.812,3.797s-1.707,3.797-3.812,3.797c-2.106,0-3.812-1.7-3.812-3.797S47.796,97.727,49.902,97.727z"/>
	<path fill-rule="evenodd" clip-rule="evenodd" fill="#0099FF" d="M49.902,99.633c1.053,0,1.906,0.853,1.906,1.906
		c0,1.053-0.853,1.906-1.906,1.906c-1.053,0-1.906-0.854-1.906-1.906C47.996,100.487,48.849,99.633,49.902,99.633z"/>
	<path fill="none" stroke="#666666" stroke-miterlimit="10" d="M143.014,292.153c-2.835,0-5.141-2.308-5.141-5.141
		c0-2.835,2.307-5.142,5.141-5.142c2.835,0,5.141,2.306,5.141,5.142C148.155,289.845,145.849,292.153,143.014,292.153z"/>
	<path fill="#FFFFFF" stroke="#666666" stroke-width="0.7" stroke-miterlimit="10" d="M231.792,155.885h-1.842
		c-0.508,0-0.921-0.414-0.921-0.921v-0.221c-0.001-0.139-0.389-0.531-0.591-0.63c-0.146-0.005-0.319,0.066-0.452,0.199l-0.155,0.155
		c-0.347,0.347-0.956,0.347-1.303,0l-1.303-1.302c-0.173-0.173-0.27-0.407-0.269-0.651c0-0.247,0.095-0.479,0.269-0.652l0.155-0.155
		c0.098-0.098,0.103-0.649,0.029-0.861c-0.021-0.053-0.209-0.182-0.459-0.182h-0.221c-0.508,0-0.921-0.414-0.921-0.921l-0.001-1.843
		c0-0.508,0.413-0.921,0.921-0.921h0.221c0.136-0.001,0.534-0.393,0.628-0.59c0.021-0.052-0.022-0.276-0.199-0.453l-0.154-0.154
		c-0.359-0.359-0.359-0.944,0-1.303l1.303-1.303c0.347-0.347,0.956-0.347,1.303,0l0.155,0.155c0.02,0.021,0.144,0.08,0.43,0.08
		c0.197,0,0.373-0.03,0.43-0.05c0.053-0.021,0.183-0.208,0.183-0.46v-0.221c0-0.508,0.413-0.921,0.921-0.921h1.842
		c0.509,0,0.921,0.413,0.921,0.921v0.221c0.001,0.139,0.389,0.531,0.591,0.629c0.142-0.003,0.318-0.066,0.452-0.199l0.155-0.155
		c0.347-0.347,0.956-0.347,1.303,0l1.303,1.303c0.173,0.173,0.269,0.405,0.269,0.651s-0.096,0.478-0.269,0.651l-0.155,0.155
		c-0.098,0.098-0.104,0.649-0.03,0.861c0.022,0.052,0.209,0.182,0.459,0.182h0.222c0.508,0,0.921,0.413,0.921,0.921v1.843
		c0,0.507-0.414,0.921-0.921,0.921h-0.222c-0.139,0.001-0.531,0.389-0.629,0.591c-0.02,0.052,0.023,0.275,0.199,0.451l0.155,0.155
		c0.173,0.173,0.269,0.407,0.269,0.651c0,0.247-0.096,0.479-0.269,0.652l-1.303,1.304c-0.347,0.347-0.956,0.347-1.303,0
		l-0.156-0.156c-0.02-0.02-0.143-0.079-0.43-0.079c-0.197,0-0.373,0.03-0.431,0.05c-0.052,0.02-0.182,0.208-0.182,0.459v0.221
		C232.713,155.471,232.3,155.885,231.792,155.885L231.792,155.885z"/>
	<path fill="none" stroke="#666666" stroke-width="0.7" stroke-miterlimit="10" d="M230.871,151.892
		c-1.693,0-3.071-1.378-3.071-3.071c0-1.694,1.378-3.072,3.071-3.072c1.694,0,3.071,1.378,3.071,3.072
		C233.942,150.514,232.564,151.892,230.871,151.892z"/>
	<rect x="126.135" y="289.555" fill-rule="evenodd" clip-rule="evenodd" fill="#FFFFFF" width="32.059" height="17.449"/>
	<path fill-rule="evenodd" clip-rule="evenodd" fill="#0099FF" d="M167.48,325.165c1.044,0,1.891,0.846,1.891,1.891
		c0,1.044-0.846,1.891-1.891,1.891c-1.044,0-1.891-0.846-1.891-1.891C165.59,326.011,166.436,325.165,167.48,325.165z"/>
	<path fill-rule="evenodd" clip-rule="evenodd" fill="#0099FF" d="M284.121,99.633c1.053,0,1.906,0.853,1.906,1.906
		c0,1.053-0.854,1.906-1.906,1.906c-1.053,0-1.906-0.854-1.906-1.906C282.215,100.487,283.068,99.633,284.121,99.633z"/>
	<path fill-rule="evenodd" clip-rule="evenodd" fill="#FFFFFF" d="M5.985,190.852h64.167v67.5H5.985V190.852z"/>
	<path fill-rule="evenodd" clip-rule="evenodd" fill="none" stroke="#666666" stroke-miterlimit="10" d="M33.134,230.454
		l-3.417,4.792"/>
	<path fill-rule="evenodd" clip-rule="evenodd" fill="none" stroke="#666666" stroke-miterlimit="10" d="M26.403,230.214
		l3.395,4.815"/>
	<path fill-rule="evenodd" clip-rule="evenodd" fill="none" stroke="#666666" stroke-miterlimit="10" d="M29.797,235.256v6.721"/>
	<path fill-rule="evenodd" clip-rule="evenodd" fill="none" stroke="#666666" stroke-miterlimit="10" d="M24.361,237.771H34.38"/>
	<path fill-rule="evenodd" clip-rule="evenodd" fill="none" stroke="#666666" stroke-miterlimit="10" d="M24.357,234.832H34.38"/>
	<path fill-rule="evenodd" clip-rule="evenodd" fill="none" stroke="#666666" stroke-miterlimit="10" d="M19.136,212.008
		c4.151,0,7.516,3.351,7.516,7.484c0,4.134-3.365,7.484-7.516,7.484c-4.151,0-7.516-3.351-7.516-7.484
		C11.621,215.359,14.986,212.008,19.136,212.008z"/>
	<path fill-rule="evenodd" clip-rule="evenodd" fill="none" stroke="#666666" stroke-miterlimit="10" d="M28.949,200.165
		c2.77,0,5.016,2.246,5.016,5.015c0,2.77-2.246,5.016-5.016,5.016c-2.77,0-5.016-2.246-5.016-5.016
		C23.933,202.41,26.179,200.165,28.949,200.165z"/>
	<path fill-rule="evenodd" clip-rule="evenodd" fill="none" stroke="#666666" stroke-miterlimit="10" d="M31.19,216.52
		c0,0,2.517,0.262,4.1,1.364c1.583,1.102,2.518-3.96,5.922-3.182c3.404,0.778,1.367,1.819,1.367,1.819s-1.838,2.891-0.911,4.546
		c0.927,1.656,4.133,2.771,4.555,6.365h2.278c0,0,2.177,1.734,1.822,3.183v5c0,0-1.288,2.131-2.733,1.819
		c-1.445-0.313-3.02,7.981-7.289,9.092v4.092c0,0-0.853,1.078-1.822,0.909h-5.922c0,0-1.447-0.391-1.367-1.364v-1.364h-4.556v1.819
		c0,0-0.137,1.055-0.911,0.909H18.89c0,0-1.425-0.026-1.367-0.909c0.058-0.883,0.555-2.771-0.456-4.092
		c-1.011-1.32-7.04-6.192-5.467-15.911"/>
	<path fill-rule="evenodd" clip-rule="evenodd" fill="#FFFFFF" stroke="#666666" stroke-miterlimit="10" d="M179.433,162.79H282.34
		c2.209,0,4,1.791,4,4v71.687c0,2.209-1.791,4-4,4H179.433c-2.209,0-4-1.791-4-4V166.79
		C175.433,164.58,177.224,162.79,179.433,162.79z"/>
	<g>
		<path fill-rule="evenodd" clip-rule="evenodd" fill="#D9EEFF" d="M184.964,169.227h91.813c1.104,0,2,0.896,2,2v56.313
			c0,1.105-0.896,2-2,2h-91.813c-1.104,0-2-0.895-2-2v-56.313C182.965,170.123,183.86,169.227,184.964,169.227z"/>
		<path fill-rule="evenodd" clip-rule="evenodd" fill="none" stroke="#0099FF" stroke-miterlimit="10" d="M236.019,181.089
			l-17.529,24.479l10.896-1.44l-4.738,16.799l17.529-23.519l-10.896,0.96L236.019,181.089z"/>
		<path fill-rule="evenodd" clip-rule="evenodd" fill="#666666" d="M175.433,233.883H286.34v1H175.433V233.883z"/>
	</g>
	<path fill-rule="evenodd" clip-rule="evenodd" fill="#FFFFFF" d="M266.652,191.352h62.5v67.5h-62.5V191.352z"/>
	<path fill-rule="evenodd" clip-rule="evenodd" fill="none" stroke="#666666" stroke-miterlimit="10" d="M280.291,217.596h42.558
		v26.516h-42.272L280.291,217.596z"/>
	<path fill-rule="evenodd" clip-rule="evenodd" fill="none" stroke="#666666" stroke-miterlimit="10" d="M286.004,214.137h39.987
		v23.346"/>
	<path fill-rule="evenodd" clip-rule="evenodd" fill="none" stroke="#666666" stroke-miterlimit="10" d="M305.796,224.813
		l-3.704,5.148"/>
	<path fill-rule="evenodd" clip-rule="evenodd" fill="none" stroke="#666666" stroke-miterlimit="10" d="M298.498,224.556
		l3.681,5.173"/>
	<path fill-rule="evenodd" clip-rule="evenodd" fill="none" stroke="#666666" stroke-miterlimit="10" d="M302.178,229.972v7.22"/>
	<path fill-rule="evenodd" clip-rule="evenodd" fill="none" stroke="#666666" stroke-miterlimit="10" d="M296.284,232.675h10.861"/>
	<path fill-rule="evenodd" clip-rule="evenodd" fill="none" stroke="#666666" stroke-miterlimit="10" d="M296.281,229.517h10.866"/>
</g>
</svg>
