<?xml version="1.0" encoding="utf-8"?>
<!-- Generator: Adobe Illustrator 17.0.0, SVG Export Plug-In . SVG Version: 6.00 Build 0)  -->
<!DOCTYPE svg PUBLIC "-//W3C//DTD SVG 1.1//EN" "http://www.w3.org/Graphics/SVG/1.1/DTD/svg11.dtd">
<svg version="1.1" id="图层_1" xmlns="http://www.w3.org/2000/svg" xmlns:xlink="http://www.w3.org/1999/xlink" x="0px" y="0px"
	 width="1326.448px" height="743.75px" viewBox="0 0 1326.448 743.75" enable-background="new 0 0 1326.448 743.75"
	 xml:space="preserve">
<g>
	<g>
		<circle fill="#EDF7FF" cx="37" cy="37" r="37"/>
	</g>
</g>
<g>
	<g>
		<circle fill="#EDF7FF" cx="37" cy="113.875" r="37"/>
	</g>
</g>
<g>
	<circle fill="#EDF7FF" cx="37.514" cy="191" r="37"/>
</g>
<g>
	<circle fill="#EDF7FF" cx="37" cy="267.314" r="37"/>
</g>
<g>
	<g>
		<circle fill="#EDF7FF" cx="37" cy="345" r="37"/>
	</g>
</g>
<g>
	<g>
		<circle fill="#EDF7FF" cx="37" cy="422" r="37"/>
	</g>
</g>
<g>
	<g>
		<g>
			<path fill="#0099FF" d="M37,57.547c-11.304,0-20.5-9.217-20.5-20.547S25.696,16.453,37,16.453S57.5,25.67,57.5,37
				S48.304,57.547,37,57.547z M37,17.453c-10.752,0-19.5,8.769-19.5,19.547S26.248,56.547,37,56.547S56.5,47.778,56.5,37
				S47.752,17.453,37,17.453z"/>
		</g>
	</g>
	<g>
		<g>
			
				<rect x="41.576" y="18.335" transform="matrix(0.8655 0.5009 -0.5009 0.8655 19.8388 -17.2686)" fill="#0099FF" width="1" height="19.947"/>
		</g>
	</g>
	<g>
		<g>
			<g>
				<polygon fill="#0099FF" points="52.865,49.625 36.292,37.149 36.292,17.174 37.292,17.174 37.292,36.65 53.467,48.826 				"/>
			</g>
		</g>
	</g>
</g>
<g>
	<path fill="#0099FF" d="M23.439,128.148c-0.125,0-0.25-0.047-0.348-0.141c-7.864-7.615-8.023-20.273-0.355-28.217
		c3.737-3.872,8.744-6.054,14.098-6.144c5.293-0.087,10.287,1.881,14.073,5.548c7.865,7.615,8.025,20.274,0.356,28.218
		c-0.19,0.199-0.507,0.205-0.707,0.013c-0.198-0.192-0.204-0.508-0.012-0.707c7.286-7.548,7.137-19.573-0.333-26.805
		c-3.595-3.481-8.339-5.367-13.361-5.267c-5.086,0.086-9.844,2.16-13.395,5.839c-7.287,7.548-7.138,19.572,0.331,26.804
		c0.199,0.192,0.204,0.509,0.012,0.707C23.7,128.097,23.569,128.148,23.439,128.148z"/>
</g>
<g>
	<path fill="#0099FF" d="M52.514,204.906h-30c-2.481,0-4.5-2.019-4.5-4.5v-23.062c0-2.481,2.019-4.5,4.5-4.5h30
		c2.481,0,4.5,2.019,4.5,4.5v23.062C57.014,202.887,54.995,204.906,52.514,204.906z M22.514,173.844c-1.93,0-3.5,1.57-3.5,3.5
		v23.062c0,1.93,1.57,3.5,3.5,3.5h30c1.93,0,3.5-1.57,3.5-3.5v-23.062c0-1.93-1.57-3.5-3.5-3.5H22.514z"/>
</g>
<g>
	<path fill="#0099FF" d="M56.066,181.312H18.961c-0.276,0-0.5-0.224-0.5-0.5s0.224-0.5,0.5-0.5h37.105c0.276,0,0.5,0.224,0.5,0.5
		S56.343,181.312,56.066,181.312z"/>
</g>
<path fill="#0099FF" d="M28.37,278.067c-0.162,0-0.319,0.059-0.392,0.147l-4.425,5.383c-0.061,0.074-0.09,0.204-0.076,0.338
	c0.014,0.137,0.071,0.261,0.147,0.323c0.064,0.052,0.172,0.083,0.287,0.083l0,0c0.161,0,0.317-0.059,0.389-0.146l4.426-5.385
	c0.061-0.074,0.09-0.203,0.077-0.338c-0.014-0.137-0.07-0.261-0.147-0.324C28.593,278.098,28.485,278.067,28.37,278.067z
	 M30.905,280.12c-0.162,0-0.319,0.06-0.392,0.148l-2.161,2.629c-0.061,0.074-0.089,0.204-0.076,0.339
	c0.014,0.136,0.07,0.259,0.146,0.321c0.155,0.125,0.554,0.087,0.676-0.062l2.163-2.63c0.06-0.073,0.089-0.203,0.076-0.337
	c-0.014-0.138-0.07-0.262-0.147-0.325C31.126,280.151,31.02,280.12,30.905,280.12z M40.119,283.641L40.119,283.641
	c-1.599,0-2.98-0.385-3.607-1.005c-0.52-0.515-0.745-1.03-0.668-1.53c0.071-0.464,0.379-0.753,0.573-0.893l0.461-0.896
	c-0.964,0.272-2.316,0.605-3.139,0.605c-0.396,0-0.67-0.073-0.864-0.23l-6.841-5.542c-0.16-0.13-0.618-0.5-0.409-3.994l-0.823,0.652
	c-0.16,0.349-0.544,0.814-1.215,0.814c-0.363,0-0.763-0.141-1.187-0.42c-0.765-0.505-1.433-1.826-1.742-3.449
	c-0.458-2.396-0.013-4.78,1.22-6.541c1.835-2.621,4.422-3.95,7.688-3.95c0.275,0,0.546,0.009,0.81,0.026
	c5.703-6.957,13.303-8.002,17.35-8.002c2.343,0,3.855,0.335,3.871,0.338c0.166,0.038,0.301,0.157,0.359,0.316
	c1.127,3.004,4.092,13.154-3.321,22.146c0.954,3.516,0.224,6.561-2.172,9.055C44.3,283.397,41.307,283.641,40.119,283.641z
	 M37.03,281.004c0,0-0.178,0.105-0.198,0.256c-0.021,0.159,0.118,0.401,0.384,0.664c0.348,0.345,1.405,0.716,2.902,0.716h0.001
	c1.059,0,3.726-0.214,5.624-2.191c2.219-2.309,2.827-5.037,1.86-8.339c-0.048-0.161-0.011-0.335,0.098-0.463
	c7.141-8.465,4.512-18.086,3.415-21.098c-0.505-0.089-1.714-0.264-3.39-0.264c-3.907,0-11.276,1.018-16.735,7.832
	c-0.104,0.129-0.26,0.197-0.431,0.186c-0.32-0.026-0.653-0.042-0.994-0.042c-2.962,0-5.209,1.152-6.869,3.523
	c-1.532,2.188-1.25,4.771-1.057,5.78c0.278,1.455,0.87,2.51,1.311,2.801c0.321,0.211,0.523,0.255,0.637,0.255
	c0.216,0,0.3-0.205,0.32-0.268c0.031-0.094,0.091-0.185,0.168-0.246l1.821-1.444c0.157-0.125,0.372-0.143,0.547-0.049
	c0.176,0.094,0.279,0.284,0.262,0.483c-0.152,1.798-0.183,3.969,0.014,4.333l6.78,5.477c-0.005-0.008,0.067,0.012,0.241,0.012
	c0.996,0,3.202-0.648,3.967-0.898c0.19-0.066,0.404-0.004,0.536,0.151c0.131,0.154,0.156,0.373,0.063,0.553l-1.062,2.061
	C37.198,280.881,37.123,280.957,37.03,281.004L37.03,281.004z M25.685,275.684c-0.161,0-0.317,0.059-0.389,0.146l-2.986,3.631
	c-0.061,0.074-0.09,0.204-0.076,0.339c0.014,0.136,0.07,0.26,0.147,0.321c0.064,0.052,0.171,0.083,0.287,0.083l0,0
	c0.161,0,0.317-0.059,0.389-0.146l2.986-3.631c0.061-0.074,0.089-0.202,0.076-0.336c-0.014-0.138-0.07-0.262-0.147-0.325
	C25.907,275.715,25.8,275.684,25.685,275.684z"/>
<g>
	<path fill="#0099FF" d="M42.678,265.643c-2.628,0-4.766-2.124-4.766-4.734s2.138-4.734,4.766-4.734s4.767,2.124,4.767,4.734
		S45.306,265.643,42.678,265.643z M42.678,257.175c-2.076,0-3.766,1.675-3.766,3.734s1.689,3.734,3.766,3.734
		s3.767-1.675,3.767-3.734S44.755,257.175,42.678,257.175z"/>
</g>
<g>
	<path fill="#0099FF" d="M24.346,359.854c-0.124,0-0.249-0.046-0.345-0.138c-3.801-3.627-5.942-8.51-6.031-13.75
		c-0.089-5.301,1.926-10.327,5.675-14.154c7.689-7.85,20.363-8.115,28.25-0.589c3.901,3.724,6.045,8.737,6.034,14.117
		c-0.001,0.276-0.225,0.499-0.5,0.499h-0.001c-0.276,0-0.5-0.225-0.499-0.501c0.01-5.103-2.022-9.859-5.725-13.391
		c-7.492-7.15-19.535-6.896-26.845,0.565c-3.56,3.634-5.474,8.406-5.389,13.437c0.083,4.97,2.115,9.603,5.721,13.043
		c0.2,0.191,0.207,0.507,0.017,0.707C24.61,359.802,24.478,359.854,24.346,359.854z"/>
</g>
<g>
	<path fill="#0099FF" d="M38.152,363.752c-0.126,0-0.251-0.047-0.348-0.14l-5.036-4.864l-5.009,4.033
		c-0.216,0.173-0.53,0.138-0.703-0.076c-0.173-0.215-0.139-0.53,0.076-0.703l5.353-4.309c0.195-0.157,0.479-0.145,0.661,0.03
		l5.059,4.886l18.397-12.693c0.227-0.155,0.538-0.101,0.695,0.127c0.157,0.228,0.101,0.539-0.127,0.696l-18.734,12.926
		C38.351,363.723,38.251,363.752,38.152,363.752z"/>
</g>
<g>
	<path fill="#0099FF" d="M55.205,356.537c-0.063,0-0.128-0.012-0.189-0.038c-0.256-0.104-0.378-0.397-0.273-0.652l2.651-6.462
		c0.105-0.256,0.4-0.379,0.652-0.272c0.256,0.104,0.378,0.397,0.273,0.652l-2.651,6.462
		C55.588,356.42,55.401,356.537,55.205,356.537z"/>
</g>
<g>
	<path fill="#0099FF" d="M50.837,350.857c-0.247,0-0.463-0.184-0.495-0.436c-0.035-0.274,0.158-0.524,0.433-0.56l6.927-0.893
		c0.269-0.03,0.524,0.158,0.56,0.432s-0.158,0.524-0.433,0.56l-6.927,0.893C50.88,350.855,50.858,350.857,50.837,350.857z"/>
</g>
<g>
	<path fill="#0099FF" d="M37.947,420.889h7.85c4.605,0,8.352-3.741,8.352-8.339s-3.746-8.339-8.352-8.339
		c-4.604,0-8.35,3.741-8.35,8.339v7.839C37.447,420.665,37.671,420.889,37.947,420.889z M38.447,412.55
		c0-4.047,3.297-7.339,7.35-7.339c4.054,0,7.352,3.292,7.352,7.339s-3.298,7.339-7.352,7.339h-7.35V412.55z"/>
</g>
<g>
	<path fill="#0099FF" d="M36.294,421.539h-7.851c-4.604,0-8.351,3.741-8.351,8.338s3.746,8.338,8.351,8.338s8.351-3.741,8.351-8.338
		v-7.838C36.794,421.763,36.57,421.539,36.294,421.539z M35.794,429.877c0,4.046-3.297,7.338-7.351,7.338s-7.351-3.292-7.351-7.338
		s3.297-7.338,7.351-7.338h7.351V429.877z"/>
</g>
<g>
	<path fill="#0099FF" d="M28.443,404.081c-4.604,0-8.351,3.741-8.351,8.339s3.746,8.339,8.351,8.339h7.851
		c0.276,0,0.5-0.224,0.5-0.5v-7.839C36.794,407.822,33.048,404.081,28.443,404.081z M35.794,419.759h-7.351
		c-4.053,0-7.351-3.292-7.351-7.339s3.297-7.339,7.351-7.339s7.351,3.292,7.351,7.339V419.759z"/>
</g>
<g>
	<path fill="#0099FF" d="M45.797,422.539c4.054,0,7.352,3.292,7.352,7.338c0,0.67-0.116,1.32-0.293,1.954
		c0.038,0.177,0.144,0.371,0.426,0.419c0.334,0.057,0.501-0.137,0.586-0.321c0.172-0.667,0.281-1.35,0.281-2.052
		c0-4.598-3.746-8.338-8.352-8.338h-7.85c-0.276,0-0.5,0.224-0.5,0.5v7.838c0,4.598,3.746,8.338,8.35,8.338
		c1.003,0,1.988-0.192,2.917-0.539c0.032-0.027,0.264-0.233,0.176-0.583c-0.092-0.369-0.515-0.36-0.527-0.359
		c-0.817,0.308-1.683,0.481-2.567,0.481c-4.053,0-7.35-3.292-7.35-7.338v-7.338L45.797,422.539L45.797,422.539z"/>
</g>
<g>
	<g>
		<path fill="#0099FF" d="M37.055,97.604c0,0,0.073,1.065,0.182,2.663c0.125,1.598,0.215,3.728,0.33,5.858
			c0.054,1.065,0.155,2.13,0.177,3.129c-0.001,0.999-0.072,1.931-0.166,2.73c-0.178,1.598-0.491,2.664-0.491,2.664
			c-0.011,0.039-0.052,0.062-0.092,0.05c-0.025-0.007-0.043-0.027-0.05-0.05c0,0-0.317-1.065-0.501-2.662
			c-0.097-0.799-0.172-1.731-0.176-2.729c0.018-0.999,0.116-2.064,0.165-3.129c0.107-2.131,0.189-4.261,0.308-5.859
			c0.103-1.598,0.172-2.664,0.172-2.664c0.002-0.039,0.036-0.069,0.075-0.066C37.025,97.54,37.052,97.569,37.055,97.604z"/>
	</g>
</g>
<g>
	<g>
		<path fill="#0099FF" d="M43.598,190.083H31.431c-0.276,0-0.5-0.224-0.5-0.5s0.224-0.5,0.5-0.5h12.167c0.276,0,0.5,0.224,0.5,0.5
			S43.874,190.083,43.598,190.083z"/>
	</g>
	<g>
		<path fill="#0099FF" d="M43.598,194.834H31.431c-0.276,0-0.5-0.224-0.5-0.5s0.224-0.5,0.5-0.5h12.167c0.276,0,0.5,0.224,0.5,0.5
			S43.874,194.834,43.598,194.834z"/>
	</g>
	<g>
		<path fill="#0099FF" d="M37.514,201.083c-0.276,0-0.5-0.224-0.5-0.5v-11c0-0.276,0.224-0.5,0.5-0.5s0.5,0.224,0.5,0.5v11
			C38.014,200.86,37.79,201.083,37.514,201.083z"/>
	</g>
	<g>
		<path fill="#0099FF" d="M37.514,190.083c-0.106,0-0.213-0.034-0.304-0.103l-5.722-4.377c-0.219-0.167-0.261-0.481-0.093-0.701
			s0.482-0.26,0.701-0.093l5.722,4.377c0.22,0.167,0.261,0.481,0.094,0.701C37.812,190.016,37.664,190.083,37.514,190.083z"/>
	</g>
	<g>
		<path fill="#0099FF" d="M37.708,189.96c-0.15,0-0.299-0.067-0.397-0.196c-0.168-0.219-0.126-0.533,0.093-0.701l5.723-4.376
			c0.219-0.168,0.533-0.127,0.701,0.093c0.167,0.219,0.126,0.533-0.094,0.701l-5.723,4.376
			C37.921,189.926,37.814,189.96,37.708,189.96z"/>
	</g>
</g>
<g>
	<g>
		<path fill="#0099FF" d="M44.098,341.833H31.931c-0.276,0-0.5-0.224-0.5-0.5s0.224-0.5,0.5-0.5h12.167c0.276,0,0.5,0.224,0.5,0.5
			S44.374,341.833,44.098,341.833z"/>
	</g>
	<g>
		<path fill="#0099FF" d="M44.098,346.584H31.931c-0.276,0-0.5-0.224-0.5-0.5s0.224-0.5,0.5-0.5h12.167c0.276,0,0.5,0.224,0.5,0.5
			S44.374,346.584,44.098,346.584z"/>
	</g>
	<g>
		<path fill="#0099FF" d="M38.014,352.833c-0.276,0-0.5-0.224-0.5-0.5v-11c0-0.276,0.224-0.5,0.5-0.5s0.5,0.224,0.5,0.5v11
			C38.514,352.61,38.29,352.833,38.014,352.833z"/>
	</g>
	<g>
		<path fill="#0099FF" d="M38.014,341.833c-0.106,0-0.213-0.034-0.304-0.103l-5.722-4.377c-0.219-0.167-0.261-0.481-0.093-0.701
			c0.168-0.22,0.481-0.26,0.701-0.093l5.722,4.377c0.22,0.167,0.261,0.481,0.094,0.701
			C38.312,341.766,38.164,341.833,38.014,341.833z"/>
	</g>
	<g>
		<path fill="#0099FF" d="M38.208,341.71c-0.15,0-0.299-0.067-0.397-0.196c-0.167-0.219-0.126-0.533,0.094-0.701l5.723-4.376
			c0.22-0.168,0.533-0.127,0.701,0.093c0.167,0.219,0.126,0.533-0.094,0.701l-5.723,4.376
			C38.421,341.676,38.314,341.71,38.208,341.71z"/>
	</g>
</g>
<g>
	<g>
		<g>
			<path fill="#ECF7FF" d="M62.047,719.625c-3.443,0-6.234,2.792-6.234,6.234c0,3.443,2.791,6.234,6.234,6.234
				c3.443,0,6.234-2.791,6.234-6.234C68.281,722.417,65.49,719.625,62.047,719.625z M95.312,510.562c5.16,0,9.344-4.19,9.344-9.359
				s-4.183-9.359-9.344-9.359s-9.344,4.19-9.344,9.359C85.969,506.372,90.152,510.562,95.312,510.562z M133.656,574
				c-26.13,0-47.312,21.189-47.312,47.328s21.182,47.328,47.312,47.328s47.312-21.189,47.312-47.328S159.786,574,133.656,574z
				 M464.391,624.969c-8.621,0-15.609,6.982-15.609,15.594s6.989,15.594,15.609,15.594S480,649.175,480,640.562
				C480,631.95,473.011,624.969,464.391,624.969z M379.531,508.469c-17.224,0-31.188,13.97-31.188,31.203
				c0,17.233,13.963,31.203,31.188,31.203s31.188-13.97,31.188-31.203C410.719,522.439,396.756,508.469,379.531,508.469z"/>
		</g>
	</g>
</g>
<path fill="#EDF7FF" d="M872.215,147.309c51.432,0,93.125,41.693,93.125,93.125s-41.693,93.125-93.125,93.125
	c-51.431,0-93.125-41.693-93.125-93.125C779.09,189.003,820.784,147.309,872.215,147.309z"/>
<path fill="#0099FF" d="M872.215,234.434c3.314,0,6,2.686,6,6s-2.686,6-6,6s-6-2.686-6-6S868.901,234.434,872.215,234.434z"/>
<path fill="#0099FF" d="M872.215,238.338c1.105,0,2,0.895,2,2v76c0,1.105-0.896,2-2,2s-2-0.895-2-2v-76
	C870.215,239.234,871.111,238.338,872.215,238.338z"/>
<path fill="#0099FF" d="M872.215,162.41c0.552,0,1,0.448,1,1v78c0,0.552-0.448,1-1,1s-1-0.448-1-1v-78
	C871.215,162.858,871.663,162.41,872.215,162.41z"/>
<g>
	<path fill="none" stroke="#0099FF" stroke-width="3.9685" stroke-miterlimit="10" d="M873.215,350.434
		c-60.751,0-110-49.249-110-110s49.249-110,110-110"/>
	<path fill="none" stroke="#FFAA31" stroke-width="3.9685" stroke-miterlimit="10" d="M871.215,130.434c60.751,0,110,49.249,110,110
		s-49.249,110-110,110"/>
</g>
<g>
	<g>
		
			<circle fill="none" stroke="#666666" stroke-miterlimit="10" stroke-dasharray="1.0004,1.0004,1.1336,1.1336" cx="872.215" cy="240.434" r="180"/>
	</g>
</g>
<g>
	<g>
		<path fill="#0099FF" d="M735.702,355.666c-1.648-0.193-3.142,0.985-3.336,2.632c-0.195,1.646,0.984,3.137,2.633,3.331
			c1.648,0.193,3.142-0.985,3.336-2.631C738.529,357.351,737.351,355.859,735.702,355.666z M704.582,304.749
			c-1.642-0.193-3.13,0.985-3.323,2.631c-0.194,1.647,0.98,3.138,2.623,3.331c1.642,0.193,3.13-0.985,3.323-2.632
			C707.398,306.434,706.224,304.942,704.582,304.749z M692.018,249.157c-1.642-0.193-3.13,0.985-3.324,2.631
			c-0.193,1.646,0.981,3.138,2.623,3.331s3.13-0.984,3.323-2.631C694.834,250.842,693.66,249.35,692.018,249.157z M698.422,188.654
			c-1.648-0.193-3.142,0.984-3.337,2.629c-0.194,1.644,0.984,3.134,2.633,3.327s3.142-0.984,3.336-2.628
			C701.249,190.337,700.07,188.847,698.422,188.654z M723.292,135.437c-1.644-0.193-3.134,0.985-3.328,2.631
			s0.982,3.138,2.625,3.331c1.644,0.193,3.134-0.985,3.328-2.631S724.935,135.63,723.292,135.437z M768.053,91.377
			c-1.65-0.194-3.146,0.986-3.341,2.635s0.986,3.142,2.636,3.336c1.65,0.193,3.146-0.986,3.341-2.635
			C770.884,93.064,769.704,91.57,768.053,91.377z"/>
	</g>
</g>
<g>
	<g>
		<path fill="#FFAA31" d="M1008.572,355.029c-1.648,0.193-2.827,1.683-2.633,3.328c0.194,1.645,1.688,2.822,3.336,2.629
			s2.827-1.683,2.633-3.328C1011.714,356.014,1010.22,354.837,1008.572,355.029z M1039.692,304.166
			c-1.642,0.193-2.816,1.683-2.623,3.328c0.194,1.646,1.682,2.822,3.323,2.629c1.642-0.193,2.816-1.683,2.623-3.328
			S1041.334,303.973,1039.692,304.166z M1055.579,251.26c-0.194-1.645-1.682-2.822-3.323-2.628
			c-1.642,0.193-2.816,1.683-2.622,3.328c0.194,1.645,1.682,2.822,3.323,2.629C1054.599,254.395,1055.773,252.905,1055.579,251.26z
			 M1045.852,188.192c-1.648,0.193-2.827,1.681-2.633,3.324s1.688,2.818,3.336,2.625c1.648-0.193,2.827-1.681,2.633-3.324
			C1048.994,189.174,1047.5,187.999,1045.852,188.192z M1020.982,135.03c-1.644,0.193-2.819,1.683-2.625,3.328
			s1.684,2.822,3.328,2.628c1.644-0.193,2.819-1.683,2.625-3.328C1024.116,136.014,1022.626,134.836,1020.982,135.03z
			 M976.221,91.016c-1.65,0.193-2.831,1.685-2.636,3.332s1.69,2.825,3.341,2.632s2.831-1.685,2.636-3.332
			S977.871,90.822,976.221,91.016z"/>
	</g>
</g>
<g>
	<g>
		<path fill="#EDF7FF" d="M658.69,349.01h-78c-6.075,0-11,4.925-11,11v4c0,6.075,4.925,11,11,11h78c6.075,0,11-4.925,11-11v-4
			C669.69,353.935,664.765,349.01,658.69,349.01z M669.378,309.009v-4c0-6.075-4.925-11-11-11h-128c-6.075,0-11,4.925-11,11v4
			c0,6.075,4.925,11,11,11h128C664.453,320.01,669.378,315.084,669.378,309.009z M530.378,264.009h128c6.075,0,11-4.925,11-11v-4
			c0-6.075-4.925-11-11-11h-128c-6.075,0-11,4.925-11,11v4C519.378,259.084,524.303,264.009,530.378,264.009z M658.69,178.01h-98
			c-6.075,0-11,4.925-11,11v4c0,6.075,4.925,11,11,11h98c6.075,0,11-4.925,11-11v-4C669.69,182.935,664.765,178.01,658.69,178.01z
			 M658.69,123.01h-78c-6.075,0-11,4.925-11,11v4c0,6.075,4.925,11,11,11h78c6.075,0,11-4.925,11-11v-4
			C669.69,127.935,664.765,123.01,658.69,123.01z M661.034,80.01h-160c-5.523,0-10,4.477-10,10v6c0,5.523,4.477,10,10,10h160
			c5.523,0,10-4.477,10-10v-6C671.034,84.487,666.557,80.01,661.034,80.01z"/>
	</g>
</g>
<g opacity="0.1">
	<g>
		<path fill="#FFAA31" d="M1193.701,361.425h-94c-7.18,0-13,5.82-13,13s5.82,13,13,13h94c7.18,0,13-5.82,13-13
			S1200.881,361.425,1193.701,361.425z M1099.701,339.424h74c7.18,0,13-5.82,13-13s-5.82-13-13-13h-74c-7.18,0-13,5.82-13,13
			S1092.522,339.424,1099.701,339.424z M1223.701,256.425h-124c-7.18,0-13,5.82-13,13c0,7.179,5.82,13,13,13h124
			c7.18,0,13-5.821,13-13C1236.701,262.245,1230.881,256.425,1223.701,256.425z M1099.701,222.424h74c7.18,0,13-5.82,13-13
			c0-7.179-5.82-13-13-13h-74c-7.18,0-13,5.821-13,13C1086.701,216.604,1092.522,222.424,1099.701,222.424z M1099.701,167.424h74
			c7.18,0,13-5.82,13-13s-5.82-13-13-13h-74c-7.18,0-13,5.82-13,13S1092.522,167.424,1099.701,167.424z M1253.701,99.424h-154
			c-7.18,0-13,5.82-13,13s5.82,13,13,13h154c7.18,0,13-5.82,13-13S1260.881,99.424,1253.701,99.424z"/>
	</g>
</g>
<path fill="none" stroke="#666666" stroke-miterlimit="10" stroke-dasharray="1.0006,1.0006,1.1339,1.1339" d="M461.026,445.01
	h299.369l29.427-46.009"/>
<g>
	<g>
		<path fill="#0099FF" d="M789.148,397.47c-2.198-0.258-4.19,1.313-4.449,3.508c-0.259,2.196,1.312,4.184,3.51,4.442
			s4.189-1.313,4.449-3.509C792.917,399.717,791.346,397.728,789.148,397.47z M460.148,440.47c-2.198-0.258-4.19,1.313-4.449,3.509
			c-0.26,2.196,1.312,4.184,3.51,4.442c2.198,0.257,4.19-1.313,4.449-3.509C463.917,442.716,462.346,440.728,460.148,440.47z"/>
	</g>
</g>
<path fill="none" stroke="#666666" stroke-miterlimit="10" stroke-dasharray="1.0006,1.0006,1.1339,1.1339" d="M952.023,399.502
	l29.427,46.009h299.37"/>
<g>
	<g>
		<path fill="#FFAA31" d="M953.209,397.47c-2.198,0.258-3.769,2.246-3.51,4.442c0.259,2.196,2.251,3.766,4.449,3.509
			c2.198-0.258,3.77-2.246,3.51-4.442C957.398,398.783,955.407,397.213,953.209,397.47z M1286.658,443.979
			c-0.259-2.196-2.251-3.767-4.449-3.509s-3.769,2.246-3.51,4.442s2.251,3.766,4.449,3.509
			C1285.345,448.162,1286.917,446.174,1286.658,443.979z"/>
	</g>
</g>
<g>
	<g>
		
			<image overflow="visible" opacity="0.14" enable-background="new    " width="275" height="504" xlink:href="CD734BB647DE1843.png"  transform="matrix(0.9976 0 0 0.9976 120.035 -15.5412)">
		</image>
		<g>
			<g>
				<path fill="#FFFFFF" d="M174.672,11.147h164c15.464,0,28,12.536,28,28v393c0,15.464-12.536,28-28,28h-164
					c-15.464,0-28-12.536-28-28v-393C146.672,23.682,159.208,11.147,174.672,11.147z"/>
				<path fill="none" stroke="#EEEEEE" stroke-width="0.5669" stroke-miterlimit="10" d="M174.672,11.147h164
					c15.464,0,28,12.536,28,28v393c0,15.464-12.536,28-28,28h-164c-15.464,0-28-12.536-28-28v-393
					C146.672,23.682,159.208,11.147,174.672,11.147z"/>
			</g>
		</g>
	</g>
	<circle fill="#FFFFFF" stroke="#EEEEEE" stroke-width="0.5669" stroke-miterlimit="10" cx="257.394" cy="27.848" r="2.702"/>
	<g>
		<path fill="#FFFFFF" stroke="#EEEEEE" stroke-width="0.5669" stroke-miterlimit="10" d="M369.172,109.146v31
			c0,1.381-1.119,2.5-2.5,2.5s-2.5-1.119-2.5-2.5v-31c0-1.381,1.119-2.5,2.5-2.5C368.052,106.646,369.172,107.764,369.172,109.146z"
			/>
		<path fill="#FFFFFF" stroke="#EEEEEE" stroke-width="0.5669" stroke-miterlimit="10" d="M146.672,66.903h2c1.105,0,2,1.022,2,2.28
			v13.682c0,1.259-0.896,2.28-2,2.28h-2c-1.105,0-2-1.02-2-2.28V69.183C144.672,67.924,145.567,66.903,146.672,66.903z"/>
		<path fill="#FFFFFF" stroke="#EEEEEE" stroke-width="0.5669" stroke-miterlimit="10" d="M146.672,147.775h3
			c1.104,0,2,1.42,2,3.173v26.025c0,1.751-0.896,3.173-2,3.173h-3c-1.105,0-2-1.42-2-3.173v-26.025
			C144.672,149.197,145.567,147.775,146.672,147.775z"/>
		<path fill="#FFFFFF" stroke="#EEEEEE" stroke-width="0.5669" stroke-miterlimit="10" d="M146.672,105.909h3
			c1.104,0,2,1.42,2,3.173v26.025c0,1.751-0.896,3.173-2,3.173h-3c-1.105,0-2-1.42-2-3.173v-26.025
			C144.672,107.331,145.567,105.909,146.672,105.909z"/>
	</g>
	<path fill="#FFFFFF" d="M174.672,11.147h164c15.464,0,28,12.536,28,28v393c0,15.464-12.536,28-28,28h-164
		c-15.464,0-28-12.536-28-28v-393C146.672,23.682,159.208,11.147,174.672,11.147z"/>
	<path fill="#FFFFFF" d="M338.672,13.147c14.336,0,26,11.664,26,26v393c0,14.336-11.664,26-26,26h-164c-14.336,0-26-11.663-26-26
		v-393c0-14.336,11.664-26,26-26L338.672,13.147"/>
	<path fill="#FFFFFF" stroke="#EEEEEE" stroke-width="0.5669" stroke-miterlimit="10" d="M161.672,67.146h191v337.5h-191V67.146z"/>
	<path fill="#FFFFFF" stroke="#EEEEEE" stroke-width="0.5669" stroke-miterlimit="10" d="M257.172,411.771
		c10.425,0,18.875,8.45,18.875,18.875s-8.45,18.875-18.875,18.875c-10.425,0-18.875-8.45-18.875-18.875
		C238.297,420.222,246.748,411.771,257.172,411.771z"/>
	<path fill="#FFFFFF" stroke="#EEEEEE" stroke-width="0.5669" stroke-miterlimit="10" d="M274.727,42.396
		c0,0.966-0.672,1.75-1.5,1.75H241.56c-0.828,0-1.5-0.783-1.5-1.75l0,0c0-0.966,0.672-1.75,1.5-1.75h31.667
		C274.056,40.646,274.727,41.429,274.727,42.396L274.727,42.396z"/>
	<path fill="#FFFFFF" stroke="#EEEEEE" stroke-width="0.5669" stroke-miterlimit="10" d="M228.581,41.896
		c0,2.071-1.679,3.75-3.75,3.75l0,0c-2.071,0-3.75-1.679-3.75-3.75l0,0c0-2.071,1.679-3.75,3.75-3.75l0,0
		C226.902,38.146,228.581,39.825,228.581,41.896L228.581,41.896z"/>
	<path fill="#FFFFFF" stroke="#EEEEEE" stroke-width="0.5669" stroke-miterlimit="10" d="M253.029,423.74h7.366
		c2.034,0,3.683,1.649,3.683,3.683v7.366c0,2.034-1.649,3.683-3.683,3.683h-7.366c-2.034,0-3.683-1.649-3.683-3.683v-7.366
		C249.346,425.389,250.995,423.74,253.029,423.74z"/>
</g>
</svg>
