<?xml version="1.0" encoding="utf-8"?>
<!-- Generator: Adobe Illustrator 17.0.0, SVG Export Plug-In . SVG Version: 6.00 Build 0)  -->
<!DOCTYPE svg PUBLIC "-//W3C//DTD SVG 1.1//EN" "http://www.w3.org/Graphics/SVG/1.1/DTD/svg11.dtd">
<svg version="1.1" id="图层_1" xmlns="http://www.w3.org/2000/svg" xmlns:xlink="http://www.w3.org/1999/xlink" x="0px" y="0px"
	 width="129.5px" height="913px" viewBox="0 0 129.5 913" enable-background="new 0 0 129.5 913" xml:space="preserve">
<g>
	<path fill="none" stroke="#666666" stroke-miterlimit="10" d="M25.593,11.765l-5.524,7.753"/>
	<path fill="none" stroke="#666666" stroke-miterlimit="10" d="M14.71,11.377l5.489,7.79"/>
	<path fill="none" stroke="#666666" stroke-miterlimit="10" d="M20.198,19.535V30.41"/>
	<path fill="none" stroke="#666666" stroke-miterlimit="10" d="M11.409,23.605h16.197"/>
	<path fill="none" stroke="#666666" stroke-miterlimit="10" d="M11.403,19.147h16.204"/>
	<path fill="none" stroke="#666666" stroke-linecap="round" stroke-miterlimit="10" d="M2.21,27.587l0.149,6.536"/>
	<path fill="none" stroke="#666666" stroke-linecap="round" stroke-miterlimit="10" d="M37.493,12.249l0.149-6.541"/>
	<path fill="none" stroke="#666666" stroke-linecap="round" stroke-miterlimit="10" d="M39.054,19.778
		c0,10.632-8.618,19.25-19.25,19.25c-7.859,0-14.618-4.71-17.609-11.461 M0.554,19.778c0-10.631,8.618-19.25,19.25-19.25
		c7.957,0,14.786,4.827,17.719,11.713"/>
</g>
<g>
	<path fill="#666666" d="M20.484,66.125c0.526,0,0.953,0.42,0.953,0.937c0,0.518-0.427,0.937-0.953,0.937s-0.953-0.42-0.953-0.937
		S19.958,66.125,20.484,66.125z"/>
	<path fill="none" stroke="#666666" stroke-miterlimit="10" d="M0.5,64.239h38.524"/>
	<path fill="#666666" d="M8.125,74.328h22.812v1H8.125V74.328z"/>
	<path fill="none" stroke="#666666" stroke-miterlimit="10" d="M2.5,43.062h35c1.105,0,2,0.895,2,2v22.812c0,1.105-0.895,2-2,2h-35
		c-1.105,0-2-0.895-2-2V45.062C0.5,43.958,1.395,43.062,2.5,43.062z"/>
</g>
<g>
	<path fill="#EDF7FF" d="M37,78.328c20.435,0,37,16.565,37,37c0,20.434-16.565,37-37,37s-37-16.566-37-37S16.565,78.328,37,78.328z"
		/>
	<path fill="none" stroke="#0099FF" stroke-miterlimit="10" d="M47,110.328c6.628,0,12,5.373,12,12s-5.373,12-12,12s-12-5.373-12-12
		C35,115.701,40.373,110.328,47,110.328z"/>
	<path fill="none" stroke="#0099FF" stroke-miterlimit="10" d="M28,110.328c6.627,0,12,5.373,12,12s-5.373,12-12,12s-12-5.373-12-12
		C16,115.701,21.373,110.328,28,110.328z"/>
	<path fill="none" stroke="#0099FF" stroke-miterlimit="10" d="M38,94.328c6.627,0,12,5.373,12,12s-5.373,12-12,12s-12-5.373-12-12
		C26,99.701,31.373,94.328,38,94.328z"/>
</g>
<g>
	<path fill="#EDF7FF" d="M37,155.137c20.434,0,37,16.566,37,37s-16.566,37-37,37s-37-16.566-37-37
		C0,171.702,16.566,155.137,37,155.137z"/>
	<path fill="none" stroke="#0099FF" stroke-miterlimit="10" d="M38.016,176.676v7.554"/>
	<path fill="none" stroke="#0099FF" stroke-miterlimit="10" d="M26.703,181.045l5.341,5.341"/>
	<path fill="none" stroke="#0099FF" stroke-miterlimit="10" d="M21.743,192.137h7.643"/>
	<path fill="none" stroke="#0099FF" stroke-miterlimit="10" d="M26.169,203.425l5.341-5.341"/>
	<path fill="none" stroke="#0099FF" stroke-miterlimit="10" d="M38.197,208.896v-7.643"/>
	<path fill="none" stroke="#0099FF" stroke-miterlimit="10" d="M48.549,203.96l-5.341-5.341"/>
	<path fill="none" stroke="#0099FF" stroke-miterlimit="10" d="M53.765,192.639h-7.643"/>
	<path fill="none" stroke="#0099FF" stroke-miterlimit="10" d="M49.083,181.579l-5.341,5.341"/>
	<path fill="none" stroke="#0099FF" stroke-miterlimit="10" d="M53.061,177.078c1.18,1.18,1.18,3.093,0,4.273s-3.093,1.18-4.273,0
		s-1.18-3.093,0-4.273C49.968,175.898,51.881,175.898,53.061,177.078z"/>
	<path fill="none" stroke="#0099FF" stroke-miterlimit="10" d="M59.505,192.636c0,1.669-1.353,3.021-3.021,3.021
		c-1.669,0-3.022-1.353-3.022-3.021s1.353-3.021,3.022-3.021S59.505,190.968,59.505,192.636z"/>
	<path fill="none" stroke="#0099FF" stroke-miterlimit="10" d="M53.061,208.194c-1.18,1.18-3.093,1.18-4.273,0s-1.18-3.093,0-4.273
		s3.093-1.18,4.273,0S54.241,207.014,53.061,208.194z"/>
	<path fill="none" stroke="#0099FF" stroke-miterlimit="10" d="M38.197,214.638c-1.668,0-3.021-1.353-3.021-3.021
		c0-1.669,1.353-3.021,3.021-3.021c1.669,0,3.021,1.353,3.021,3.021S39.865,214.638,38.197,214.638z"/>
	<path fill="none" stroke="#0099FF" stroke-miterlimit="10" d="M21.946,208.194c-1.18-1.18-1.18-3.093,0-4.273s3.093-1.18,4.273,0
		c1.18,1.18,1.18,3.093,0,4.273C25.039,209.374,23.126,209.374,21.946,208.194z"/>
	<path fill="none" stroke="#0099FF" stroke-miterlimit="10" d="M15.502,192.137c0-1.669,1.353-3.021,3.021-3.021
		c1.669,0,3.021,1.353,3.021,3.021s-1.353,3.021-3.021,3.021C16.854,195.158,15.502,193.805,15.502,192.137z"/>
	<path fill="none" stroke="#0099FF" stroke-miterlimit="10" d="M21.946,177.078c1.18-1.179,3.093-1.179,4.273,0
		c1.18,1.18,1.18,3.093,0,4.273s-3.093,1.18-4.273,0S20.766,178.258,21.946,177.078z"/>
	<path fill="none" stroke="#0099FF" stroke-miterlimit="10" d="M38.016,170.634c1.669,0,3.021,1.353,3.021,3.021
		c0,1.669-1.353,3.021-3.021,3.021s-3.021-1.353-3.021-3.021C34.994,171.986,36.347,170.634,38.016,170.634z"/>
	<path fill="none" stroke="#0099FF" stroke-miterlimit="10" d="M38.016,184.199c4.6,0,8.328,3.729,8.328,8.328
		s-3.729,8.328-8.328,8.328s-8.328-3.729-8.328-8.328S33.416,184.199,38.016,184.199z"/>
</g>
<g>
	<path fill="#EDF7FF" d="M37,232.137c20.435,0,37,16.565,37,37c0,20.434-16.565,37-37,37s-37-16.565-37-37
		S16.566,232.137,37,232.137z"/>
	<path fill="none" stroke="#0099FF" stroke-miterlimit="10" d="M48.393,271.945H35.984"/>
	<path fill="none" stroke="#0099FF" stroke-miterlimit="10" d="M36.55,259.671v12.274"/>
	<path fill="none" stroke="#0099FF" stroke-miterlimit="10" d="M63.144,265.808l-5.085,4.119l-5.084-4.119"/>
	<path fill="none" stroke="#0099FF" stroke-linecap="round" stroke-miterlimit="10" d="M54.813,280.422
		c-3.736,5.928-10.334,9.866-17.849,9.866c-11.651,0-21.095-9.464-21.095-21.138s9.445-21.138,21.095-21.138
		s21.095,9.463,21.095,21.138"/>
</g>
<g>
	<path fill="#EDF7FF" d="M37,309.137c20.435,0,37,16.566,37,37s-16.565,37-37,37s-37-16.565-37-37S16.565,309.137,37,309.137z"/>
	<path fill="none" stroke="#0099FF" stroke-miterlimit="10" d="M55.466,330.75c-0.004-0.266-0.116-0.521-0.309-0.702
		c-0.193-0.181-0.451-0.274-0.713-0.259c-8.236,0.519-15.828-4.753-16.147-4.977c-0.329-0.232-0.766-0.232-1.095,0
		c-0.319,0.224-7.913,5.494-16.147,4.977c-0.262-0.016-0.52,0.077-0.713,0.259c-0.193,0.182-0.305,0.436-0.309,0.702
		c-0.073,4.34-0.001,18.054,0,18.188c0,2.279,0.661,4.461,2.021,6.674c0.188,0.305,0.62,0.902,2.198,2.545
		c1.563,1.628,6.534,5.687,6.745,5.858c0.012,0.01,0.025,0.02,0.037,0.029l3.253,2.399c0.984,0.781,3.308,2.175,3.614,2.192
		c0.259,0.013,2.329-1.411,3.313-2.192l3.253-2.399c0.013-0.01,0.025-0.019,0.037-0.029c0.211-0.172,5.182-4.23,6.745-5.858
		c1.579-1.643,2.01-2.24,2.198-2.545c1.36-2.213,2.02-4.395,2.02-6.669C55.467,348.803,55.539,335.09,55.466,330.75L55.466,330.75z"
		/>
	<path fill="#0099FF" d="M28.781,344.293h17.5v0.875h-17.5C28.781,345.168,28.781,344.293,28.781,344.293z"/>
	<path fill="#0099FF" d="M37.062,336.012H38v17.437h-0.938V336.012z"/>
</g>
<g>
	<path fill="#FFFFFF" stroke="#DFF0FF" stroke-miterlimit="10" stroke-dasharray="2,2" d="M64.547,387.047
		c35.338,0,63.984,28.619,63.984,63.922s-28.647,63.922-63.984,63.922c-35.338,0-63.984-28.619-63.984-63.922
		S29.209,387.047,64.547,387.047z"/>
	<path fill="#0099FF" d="M64.531,411.016c22.091,0,40,17.888,40,39.953c0,22.066-17.909,39.953-40,39.953s-40-17.887-40-39.953
		C24.531,428.904,42.44,411.016,64.531,411.016z"/>
	<path fill="none" stroke="#B7E2FF" stroke-miterlimit="10" d="M64.547,400.11c28.123,0,50.922,22.777,50.922,50.875
		c0,28.097-22.799,50.875-50.922,50.875s-50.922-22.777-50.922-50.875C13.625,422.887,36.423,400.11,64.547,400.11z"/>
	<path fill="#FFFFFF" d="M64.687,463.57h1v6h-1V463.57z"/>
	<path fill="#FFFFFF" d="M64.687,468.57h18v1h-18V468.57z"/>
	<path fill="none" stroke="#FFFFFF" stroke-miterlimit="10" d="M47.062,469.547c0-9.941,7.947-18,17.75-18s17.75,8.059,17.75,18"/>
	<path fill="none" stroke="#FFFFFF" stroke-miterlimit="10" d="M64.562,429.547c6.075,0,11,4.925,11,11s-4.925,11-11,11
		s-11-4.925-11-11S58.487,429.547,64.562,429.547z"/>
</g>
<g>
	<path fill="#FFFFFF" stroke="#DFF0FF" stroke-miterlimit="10" stroke-dasharray="2,2" d="M64.562,519.333
		c35.346,0,64,28.619,64,63.922s-28.654,63.922-64,63.922s-64-28.619-64-63.922C0.562,547.952,29.216,519.333,64.562,519.333z"/>
	<path fill="#0099FF" d="M64.594,543.333c22.091,0,40,17.909,40,40s-17.909,40-40,40s-40-17.908-40-40
		C24.594,561.242,42.502,543.333,64.594,543.333z"/>
	<path fill="none" stroke="#B7E2FF" stroke-miterlimit="10" d="M64.562,532.396c28.132,0,50.938,22.778,50.938,50.875
		s-22.805,50.875-50.938,50.875s-50.937-22.778-50.937-50.875C13.625,555.173,36.43,532.396,64.562,532.396z"/>
	<path fill="none" stroke="#FFFFFF" stroke-miterlimit="10" d="M56.066,570.192c3.724,0,6.742,3.059,6.742,6.832
		s-3.019,6.832-6.742,6.832s-6.742-3.059-6.742-6.832S52.342,570.192,56.066,570.192z"/>
	<path fill="none" stroke="#FFFFFF" stroke-miterlimit="10" d="M64.865,559.333c2.488,0,4.506,2.054,4.506,4.588
		s-2.017,4.588-4.506,4.588c-2.488,0-4.506-2.054-4.506-4.588C60.359,561.387,62.376,559.333,64.865,559.333z"/>
	<path fill="none" stroke="#FFFFFF" stroke-miterlimit="10" d="M66.863,574.296c0,0,2.257,0.24,3.676,1.248
		c1.42,1.007,2.258-3.623,5.311-2.912c3.052,0.712,1.225,1.664,1.225,1.664s-1.648,2.645-0.817,4.159
		c0.831,1.515,3.707,2.535,4.085,5.823h2.042c0,0,1.952,1.587,1.634,2.912v4.574c0,0-1.155,1.95-2.451,1.664
		s-2.708,7.301-6.536,8.318v3.743c0,0-0.765,0.987-1.634,0.832h-5.31c0,0-1.298-0.358-1.225-1.248v-1.248h-4.085v1.664
		c0,0-0.123,0.965-0.817,0.832h-6.127c0,0-1.278-0.024-1.226-0.832s0.498-2.536-0.409-3.743s-6.313-5.665-4.902-14.556"/>
</g>
<g>
	<path fill="#FFFFFF" stroke="#DFF0FF" stroke-miterlimit="10" stroke-dasharray="2,2" d="M64.562,651.803
		c35.346,0,64,28.619,64,63.922s-28.654,63.922-64,63.922s-64-28.619-64-63.922C0.562,680.422,29.216,651.803,64.562,651.803z"/>
	<path fill="#0099FF" d="M64.312,675.803c22.091,0,40,17.909,40,40s-17.909,40-40,40s-40-17.908-40-40
		C24.312,693.712,42.221,675.803,64.312,675.803z"/>
	<path fill="none" stroke="#B7E2FF" stroke-miterlimit="10" d="M64.562,664.866c28.132,0,50.937,22.777,50.937,50.875
		s-22.805,50.875-50.937,50.875s-50.938-22.778-50.938-50.875S36.43,664.866,64.562,664.866z"/>
	<path fill="#FFFFFF" d="M52.531,734.303h24v1h-24V734.303z"/>
	<path fill="none" stroke="#FFFFFF" stroke-miterlimit="10" d="M46.531,698.803h37c1.105,0,2,0.895,2,2v24.5c0,1.104-0.896,2-2,2
		h-37c-1.105,0-2-0.895-2-2v-24.5C44.531,699.699,45.426,698.803,46.531,698.803z"/>
</g>
<g>
	<path fill="#FFFFFF" stroke="#DFF0FF" stroke-miterlimit="10" stroke-dasharray="2,2" d="M64.547,784.358
		c35.337,0,63.984,28.619,63.984,63.922s-28.647,63.922-63.984,63.922c-35.338,0-63.984-28.619-63.984-63.922
		S29.209,784.358,64.547,784.358z"/>
	<path fill="#0099FF" d="M64.562,808.358c22.091,0,40,17.909,40,40s-17.909,40-40,40s-40-17.908-40-40
		C24.562,826.266,42.471,808.358,64.562,808.358z"/>
	<path fill="none" stroke="#B7E2FF" stroke-miterlimit="10" d="M64.562,797.42c28.132,0,50.938,22.777,50.938,50.875
		c0,28.097-22.806,50.875-50.938,50.875s-50.937-22.777-50.937-50.875C13.625,820.198,36.43,797.42,64.562,797.42z"/>
	<path fill="none" stroke="#FFFFFF" stroke-miterlimit="10" d="M76.101,829.892L64.68,845.988"/>
	<path fill="none" stroke="#FFFFFF" stroke-miterlimit="10" d="M53.331,829.854l11.349,16.173"/>
	<path fill="none" stroke="#FFFFFF" stroke-width="1.031" stroke-miterlimit="10" d="M64.726,845.366v23.998"/>
	<path fill="none" stroke="#FFFFFF" stroke-miterlimit="10" d="M47.982,855.237h33.489"/>
	<path fill="none" stroke="#FFFFFF" stroke-miterlimit="10" d="M47.975,845.366h33.503"/>
</g>
</svg>
