<?xml version="1.0" encoding="utf-8"?>
<!-- Generator: Adobe Illustrator 17.0.0, SVG Export Plug-In . SVG Version: 6.00 Build 0)  -->
<!DOCTYPE svg PUBLIC "-//W3C//DTD SVG 1.1//EN" "http://www.w3.org/Graphics/SVG/1.1/DTD/svg11.dtd">
<svg version="1.1" id="图层_1" xmlns="http://www.w3.org/2000/svg" xmlns:xlink="http://www.w3.org/1999/xlink" x="0px" y="0px"
	 width="85.982px" height="86px" viewBox="0 0 85.982 86" enable-background="new 0 0 85.982 86" xml:space="preserve">
<g>
	<g>
		<defs>
			<circle id="SVGID_1_" cx="42.982" cy="43" r="43"/>
		</defs>
		<clipPath id="SVGID_2_">
			<use xlink:href="#SVGID_1_"  overflow="visible"/>
		</clipPath>
		<ellipse clip-path="url(#SVGID_2_)" fill="#E3F2FF" cx="41.904" cy="49.281" rx="50.475" ry="53.805"/>
	</g>
	<g>
		<defs>
			<circle id="SVGID_3_" cx="42.982" cy="43" r="43"/>
		</defs>
		<clipPath id="SVGID_4_">
			<use xlink:href="#SVGID_3_"  overflow="visible"/>
		</clipPath>
		<g clip-path="url(#SVGID_4_)">
			<ellipse fill="#D7DCE1" cx="43.877" cy="93.982" rx="17.308" ry="2.445"/>
			<g>
				<path fill="#FFFFFF" d="M30.399,75.344c0,0-4.353,3.79-4.731,8.275c0,0-0.472,3.802,4.239,3.63l10.157-3.09l15.829,3.09
					c4.711,0.172,4.239-3.63,4.239-3.63c-0.378-4.486-4.625-8.184-4.625-8.184l-12.022-1.367l-13.15,1.333"/>
				<path fill="#0088FF" d="M56.199,87.645c-0.105,0-0.211-0.002-0.319-0.006l-15.795-3.078l-10.164,3.078
					c-1.68,0.063-2.936-0.352-3.741-1.228c-1.091-1.189-0.909-2.773-0.9-2.84c0.385-4.575,4.679-8.363,4.861-8.522l0.178,0.204
					l-0.024-0.241l13.192-1.337l0.042,0.005l12.143,1.381l0.092,0.08c0.178,0.155,4.371,3.855,4.758,8.445
					c0.007,0.052,0.189,1.636-0.902,2.825C58.868,87.231,57.718,87.645,56.199,87.645z M40.044,83.757l15.925,3.109
					c1.383,0.045,2.432-0.282,3.075-0.982c0.85-0.926,0.703-2.204,0.701-2.216c-0.332-3.941-3.807-7.305-4.406-7.858l-11.856-1.349
					l-12.978,1.315c-0.759,0.711-4.127,4.069-4.447,7.876c-0.003,0.027-0.144,1.319,0.705,2.237c0.635,0.687,1.667,1.014,3.08,0.971
					L40.044,83.757z"/>
			</g>
			<g>
				<path fill="#FFFFFF" d="M54.822,79.727c0,0,4.837,5.805-0.922,12.599c0,0-3.477,4.95-8.119-1.055c0,0-2.62,0.694-5.277,0
					c0,0-4.378,6.416-8.655,0.387c0,0-4.862-5.657-0.386-11.93"/>
				<path fill="#192728" d="M50.416,94.634c-1.623,0-3.233-0.984-4.788-2.927c-0.709,0.152-2.785,0.506-4.962,0.005
					c-0.547,0.717-2.405,2.897-4.794,2.918c-0.012,0-0.024,0-0.036,0c-1.563,0-3.011-0.924-4.305-2.748
					c-0.028-0.031-4.986-5.935-0.386-12.383l0.637,0.453c-4.249,5.956,0.318,11.396,0.365,11.45c1.169,1.645,2.41,2.478,3.718,2.446
					c2.394-0.022,4.298-2.771,4.317-2.799l0.155-0.228l0.266,0.07c2.528,0.661,5.052,0.007,5.077,0l0.251-0.066l0.159,0.205
					c1.47,1.902,2.917,2.845,4.393,2.821c1.863-0.039,3.085-1.734,3.098-1.751c5.505-6.497,0.987-12.069,0.941-12.125l0.601-0.499
					c0.05,0.061,4.979,6.137-0.924,13.101c-0.037,0.055-1.431,2.003-3.692,2.055C50.477,94.633,50.446,94.634,50.416,94.634z"/>
			</g>
			<g>
				<g>
					<circle fill="#0088FF" cx="43.142" cy="84.224" r="3.111"/>
				</g>
				<g>
					<g>
						<path fill="#FFFFFF" d="M43.799,82.449l-0.002-0.002l-0.654,0.566l0,0l0,0l0,0l0,0l0,0c0.258,0.524,0.685,0.951,1.21,1.208
							l0.002,0.002l0.567-0.654l-0.004-0.004C44.44,83.317,44.048,82.926,43.799,82.449z"/>
					</g>
					<g>
						<path fill="#FFFFFF" d="M42.487,82.448c-0.25,0.478-0.643,0.87-1.122,1.12l-0.003,0.003l0.567,0.654l0.003-0.003
							c0.523-0.257,0.949-0.682,1.206-1.204l0.003-0.003L42.487,82.448z"/>
					</g>
					<g>
						<path fill="#FFFFFF" d="M43.143,85.433L43.143,85.433c-0.258-0.525-0.685-0.951-1.21-1.208l-0.002-0.002l-0.567,0.654
							l0.001,0.001c0.48,0.25,0.873,0.642,1.123,1.122L43.143,85.433L43.143,85.433L43.143,85.433L43.143,85.433L43.143,85.433z"/>
					</g>
					<g>
						<path fill="#FFFFFF" d="M43.798,85.999c0.25-0.478,0.643-0.87,1.122-1.12l0.002-0.001l-0.567-0.654l-0.003,0.003
							c-0.523,0.257-0.949,0.682-1.206,1.204l-0.003,0.003L43.798,85.999L43.798,85.999z"/>
					</g>
				</g>
				<g>
					<path fill="#E1E1E1" d="M43.142,88.492c-2.357,0-4.275-1.915-4.275-4.268s1.917-4.268,4.275-4.268
						c2.357,0,4.274,1.915,4.274,4.268C47.417,86.578,45.499,88.492,43.142,88.492z M43.142,80.424c-2.098,0-3.806,1.705-3.806,3.8
						s1.707,3.8,3.806,3.8c2.098,0,3.805-1.705,3.805-3.8C46.948,82.128,45.241,80.424,43.142,80.424z"/>
				</g>
			</g>
			<g>
				<ellipse fill="#84CDFF" cx="43.017" cy="25.554" rx="6.38" ry="5.131"/>
				<path fill="#0088FF" d="M43.017,31.076c-3.734,0-6.771-2.477-6.771-5.521c0-3.045,3.038-5.522,6.771-5.522
					c3.734,0,6.771,2.477,6.771,5.522C49.788,28.599,46.751,31.076,43.017,31.076z M43.017,20.814c-3.303,0-5.989,2.127-5.989,4.741
					c0,2.614,2.687,4.74,5.989,4.74s5.989-2.127,5.989-4.74C49.006,22.94,46.32,20.814,43.017,20.814z"/>
			</g>
			<g>
				<rect x="42.466" y="10.815" fill="#0088FF" width="1.102" height="9.477"/>
			</g>
			<g>
				<circle fill="#84CDFF" cx="43.008" cy="10.072" r="1.927"/>
				<path fill="#0088FF" d="M43.008,12.386c-1.278,0-2.318-1.038-2.318-2.315s1.04-2.315,2.318-2.315s2.318,1.038,2.318,2.315
					S44.286,12.386,43.008,12.386z M43.008,8.538c-0.847,0-1.536,0.688-1.536,1.534s0.689,1.534,1.536,1.534
					s1.536-0.688,1.536-1.534S43.855,8.538,43.008,8.538z"/>
			</g>
			<g>
				<path fill="#84CDFF" d="M23.174,54.711c0,3.665-2.65,6.637-6.321,6.637l-0.439,0.244c-2.928,0-6.11-2.734-6.696-6.637
					c-0.164-1.092-0.042-2.437,0.163-3.757c0.222-1.431,0.778-3.108,1.596-4.246c1.226-1.704,3.044-2.57,5.245-2.57l-0.195,0.179
					c3.671,0,6.646,2.971,6.646,6.637L23.174,54.711L23.174,54.711z"/>
				<path fill="#0088FF" d="M16.516,61.982h-0.102c-3.328,0-6.505-3.126-7.082-6.969c-0.147-0.978-0.095-2.209,0.163-3.875
					c0.259-1.675,0.882-3.325,1.665-4.413c1.286-1.788,3.21-2.733,5.563-2.733h1.006l-0.263,0.241c3.439,0.459,6.1,3.408,6.1,6.965
					v3.514c0,3.97-2.834,6.973-6.609,7.026L16.516,61.982z M15.629,44.853c-1.594,0.244-2.905,1.036-3.834,2.327
					c-0.704,0.979-1.29,2.541-1.528,4.077c-0.246,1.586-0.297,2.743-0.162,3.64c0.577,3.844,3.65,6.242,6.21,6.303l0.437-0.243
					h0.102c3.38,0,5.93-2.685,5.93-6.246v-3.514c0-3.444-2.806-6.246-6.255-6.246h-1.006L15.629,44.853z"/>
			</g>
			<g>
				<path fill="#84CDFF" d="M62.789,54.711c0,3.665,2.65,6.637,6.321,6.637l0.439,0.244c2.928,0,6.11-2.734,6.696-6.637
					c0.164-1.092,0.042-2.437-0.163-3.757c-0.222-1.431-0.778-3.108-1.596-4.246c-1.226-1.704-3.044-2.57-5.245-2.57l0.195,0.179
					c-3.671,0-6.646,2.971-6.646,6.637L62.789,54.711L62.789,54.711z"/>
				<path fill="#0088FF" d="M69.549,61.982h-0.102l-0.44-0.245c-3.775-0.053-6.609-3.056-6.609-7.026v-3.514
					c0-3.557,2.661-6.506,6.1-6.965l-0.263-0.241h1.006c2.353,0,4.277,0.945,5.563,2.733c0.783,1.088,1.406,2.738,1.665,4.414
					c0.258,1.666,0.31,2.897,0.163,3.875C76.054,58.856,72.877,61.982,69.549,61.982z M69.435,44.951
					c-3.449,0-6.255,2.802-6.255,6.246v3.514c0,3.561,2.549,6.246,5.93,6.246h0.102l0.437,0.243c2.56-0.061,5.633-2.459,6.21-6.303
					c0.135-0.897,0.083-2.054-0.163-3.64c-0.238-1.536-0.823-3.099-1.528-4.077c-0.929-1.29-2.24-2.083-3.834-2.327l0.107,0.098
					L69.435,44.951L69.435,44.951z"/>
			</g>
			<g>
				<path fill="#FFFFFF" d="M72.11,50.725c3.185,14.496-11.077,26.872-29.062,26.872c-18.506,0-32.449-11.586-29.062-26.872
					c3.388-15.29,21.112-26.872,29.062-26.872C49.824,23.854,68.721,35.305,72.11,50.725z"/>
				<path fill="#192728" d="M43.048,77.987c-10.726,0-20.294-3.935-25.593-10.525c-3.886-4.833-5.218-10.65-3.85-16.821
					c3.48-15.701,21.426-27.178,29.443-27.178c7.001,0,25.993,11.477,29.444,27.179c1.269,5.777-0.176,11.62-4.07,16.454
					C62.928,73.916,53.442,77.987,43.048,77.987z M43.048,24.244c-7.602,0-25.338,11.485-28.68,26.566
					c-1.315,5.932-0.036,11.521,3.697,16.163c5.152,6.408,14.492,10.234,24.983,10.234c10.16,0,19.418-3.963,24.764-10.6
					c3.797-4.713,5.151-10.176,3.916-15.797C68.417,35.742,49.672,24.244,43.048,24.244z"/>
			</g>
			<g>
				<path fill="#D7DCE1" d="M39.165,90.807c-0.752,0.33-1.572,0.514-2.433,0.514c-3.63,0-6.329-3.176-6.329-7.148
					c0-0.709,0.034-1.436,0.208-2.083c-1.042,2.133-1.727,6.214,1.631,10.176c0,0,3.81,4.936,8.061-1.403
					c0,0,0.032,0.007,0.079,0.017C40.254,90.709,39.458,90.678,39.165,90.807z"/>
			</g>
			<g>
				<path fill="#D7DCE1" d="M47.152,90.807c0.752,0.33,1.572,0.514,2.433,0.514c3.63,0,6.329-3.176,6.329-7.148
					c0-0.709-0.034-1.436-0.208-2.083c1.042,2.133,1.727,6.214-1.631,10.176c0,0-3.81,4.936-8.061-1.403
					c0,0-0.032,0.007-0.079,0.017C46.064,90.709,46.86,90.678,47.152,90.807z"/>
			</g>
			<g>
				<path fill="#0088FF" d="M50.416,94.634c-1.623,0-3.233-0.984-4.788-2.927c-0.709,0.152-2.785,0.506-4.962,0.005
					c-0.547,0.717-2.405,2.897-4.794,2.918c-0.012,0-0.024,0-0.036,0c-1.563,0-3.011-0.924-4.305-2.748
					c-0.028-0.031-4.986-5.935-0.386-12.383l0.637,0.453c-4.249,5.956,0.318,11.396,0.365,11.45c1.169,1.645,2.41,2.478,3.718,2.446
					c2.394-0.022,4.298-2.771,4.317-2.799l0.155-0.228l0.266,0.07c2.528,0.661,5.052,0.007,5.077,0l0.251-0.066l0.159,0.205
					c1.47,1.902,2.917,2.845,4.393,2.821c1.863-0.039,3.085-1.734,3.098-1.751c5.505-6.497,0.987-12.069,0.941-12.125l0.601-0.499
					c0.05,0.061,4.979,6.137-0.924,13.101c-0.037,0.055-1.431,2.003-3.692,2.055C50.477,94.633,50.446,94.634,50.416,94.634z"/>
			</g>
			<g>
				<path fill="#0088FF" d="M42.996,91.926c-2.972,0-4.903-1.186-5.022-1.262l0.417-0.661c0.04,0.026,4.151,2.531,9.545-0.022
					l0.335,0.705C46.309,91.616,44.516,91.926,42.996,91.926z"/>
			</g>
			<g>
				<path fill="#D7DCE1" d="M72.11,50.725c-3.302-15.027-21.326-26.28-28.515-26.844c7.516,2.57,22.396,13.458,25.34,26.858
					c3.147,14.32-10.467,25.752-28.233,25.752c-5.666,0-10.898-1.102-15.323-3.069c4.894,2.655,10.98,4.175,17.669,4.175
					C61.033,77.597,75.295,65.221,72.11,50.725z"/>
			</g>
			<g>
				<path fill="#0088FF" d="M43.048,77.987c-10.726,0-20.294-3.935-25.593-10.525c-3.886-4.833-5.218-10.65-3.85-16.821
					c3.48-15.701,21.426-27.178,29.443-27.178c7.001,0,25.993,11.477,29.444,27.179c1.269,5.777-0.176,11.62-4.07,16.454
					C62.928,73.916,53.442,77.987,43.048,77.987z M43.048,24.244c-7.602,0-25.338,11.485-28.68,26.566
					c-1.315,5.932-0.036,11.521,3.697,16.163c5.152,6.408,14.492,10.234,24.983,10.234c10.16,0,19.418-3.963,24.764-10.6
					c3.797-4.713,5.151-10.176,3.916-15.797C68.417,35.742,49.672,24.244,43.048,24.244z"/>
			</g>
			<g>
				<path fill="#0088FF" d="M67.99,58.915c0,8.543-10.008,13.526-15.492,14.949c-5.359,1.391-13.001,1.406-18.962-0.024
					c-5.49-1.318-15.492-6.381-15.492-14.925l0,0c0-11.183,5.62-13.769,14.67-15.184c0,0,5.432-0.748,9.961-0.748
					c5.082,0,10.687,0.781,10.687,0.781C64.08,45.293,67.99,49.49,67.99,58.915L67.99,58.915z"/>
			</g>
			<g>
				<path fill="#FFFFFF" d="M60.065,59.05c0,0.997-0.81,1.806-1.808,1.806l0,0c-0.999,0-1.808-0.808-1.808-1.806v-2.724
					c0-0.997,0.81-1.806,1.808-1.806l0,0c0.999,0,1.808,0.808,1.808,1.806V59.05z"/>
			</g>
			<g>
				<g>
					<path fill="#FFFFFF" d="M58.323,46.84c0,0,7.468,3.027,6.913,10.882c0,0-0.129-7.237-6.92-9.857L58.323,46.84z"/>
				</g>
				<g>
					<path fill="#FFFFFF" d="M57.2,46.62l-0.007,1.017c0,0-0.668-0.339-1.756-0.444l0.007-0.935
						C55.443,46.259,56.276,46.265,57.2,46.62z"/>
				</g>
			</g>
			<path fill="none" stroke="#FFFFFF" stroke-width="0.786" stroke-miterlimit="10" d="M26.026,54.949c0,0,5.065,1.133,7.464,3.776
				c0,0-4.265-1.133-7.464,1.322"/>
		</g>
	</g>
</g>
</svg>
