<svg id="logo" xmlns="http://www.w3.org/2000/svg" width="151" height="151" viewBox="0 0 151 151">
  <defs>
    <style>
      .cls-1 {
        fill: #fff;
        stroke: #e5e5e5;
        stroke-linejoin: round;
        stroke-width: 1px;
        opacity: 0.53;
      }

      .cls-2 {
        fill: #27c8e8;
        fill-rule: evenodd;
      }
    </style>
  </defs>
  <rect id="圆角矩形_557" data-name="圆角矩形 557" class="cls-1" x="0.5" y="0.5" width="150" height="150" rx="30" ry="30"/>
  <path id="logo_拷贝" data-name="logo 拷贝" class="cls-2" d="M601,1430.73l-0.046-.05-18.94,16.7h0l-0.01.01h0l0.007,0.01a77.407,77.407,0,0,0,35.018,35.64l0.047,0.05L633.5,1463.8l-0.109-.11A77.426,77.426,0,0,1,601,1430.73Zm-37.961-.05a77.369,77.369,0,0,1-32.462,33.03l-0.081.09,16.423,19.29,0.085-.09a77.386,77.386,0,0,0,34.908-35.52l0.079-.09Zm18.973,88.09-0.007-.01a77.456,77.456,0,0,0-35.017-35.64l-0.048-.04-16.423,19.29,0.03,0.03a77.428,77.428,0,0,1,32.512,33.08l18.94-16.7h0l0.01-.01h0Zm18.959,16.69a77.416,77.416,0,0,1,32.472-33.05l0.044-.04-16.423-19.29-0.084.08a77.405,77.405,0,0,0-34.909,35.53l-0.079.08,18.954,16.71Z" transform="translate(-506.5 -1407.5)"/>
</svg>
