<?xml version="1.0" encoding="utf-8"?>
<!-- Generator: Adobe Illustrator 17.0.0, SVG Export Plug-In . SVG Version: 6.00 Build 0)  -->
<!DOCTYPE svg PUBLIC "-//W3C//DTD SVG 1.1//EN" "http://www.w3.org/Graphics/SVG/1.1/DTD/svg11.dtd">
<svg version="1.1" id="图层_1" xmlns="http://www.w3.org/2000/svg" xmlns:xlink="http://www.w3.org/1999/xlink" x="0px" y="0px"
	 width="300px" height="190px" viewBox="0 0 300 190" enable-background="new 0 0 300 190" xml:space="preserve">
<g>
	<g>
		<path fill-rule="evenodd" clip-rule="evenodd" fill="#F5FBFF" d="M177.4,131.4c-1.9,0-3.5-1.6-3.5-3.5V70.4c0-1.9,1.6-3.5,3.5-3.5
			H262c1.9,0,3.5,1.6,3.5,3.5v57.5c0,1.9-1.6,3.5-3.5,3.5H177.4z"/>
	</g>
	<g>
		<path fill="#666666" d="M262,67.4c1.7,0,3,1.3,3,3v57.5c0,1.7-1.3,3-3,3h-84.6c-1.7,0-3-1.3-3-3V70.4c0-1.7,1.3-3,3-3H262
			 M262,66.4h-84.6c-2.2,0-4,1.8-4,4v57.5c0,2.2,1.8,4,4,4H262c2.2,0,4-1.8,4-4V70.4C266,68.2,264.2,66.4,262,66.4L262,66.4z"/>
	</g>
</g>
<g>
	
		<rect x="24.3" y="167" transform="matrix(0.8129 0.5823 -0.5823 0.8129 102.8295 17.0682)" fill="#666666" width="1" height="3.3"/>
</g>
<g>
	
		<rect x="21.3" y="168" transform="matrix(0.5785 0.8157 -0.8157 0.5785 147.1056 52.2671)" fill="#666666" width="3.3" height="1"/>
</g>
<g>
	<rect x="23.4" y="169.9" fill="#666666" width="1" height="3.8"/>
</g>
<g>
	<rect x="20.9" y="170.8" fill="#666666" width="5.6" height="1"/>
</g>
<g>
	<rect x="20.9" y="169.2" fill="#666666" width="5.6" height="1"/>
</g>
<g>
	<path fill="#666666" d="M18,158c1.8,0,3.2,1.4,3.2,3.2c0,1.7-1.5,3.2-3.2,3.2c-1.8,0-3.2-1.4-3.2-3.2C14.7,159.4,16.2,158,18,158
		 M18,157c-2.3,0-4.2,1.9-4.2,4.2c0,2.3,1.9,4.2,4.2,4.2c2.3,0,4.2-1.9,4.2-4.2C22.2,158.8,20.3,157,18,157L18,157z"/>
</g>
<g>
	<path fill="#666666" d="M23.5,151.4c1,0,1.8,0.8,1.8,1.8c0,1-0.8,1.8-1.8,1.8s-1.8-0.8-1.8-1.8C21.7,152.2,22.5,151.4,23.5,151.4
		 M23.5,150.4c-1.6,0-2.8,1.2-2.8,2.8c0,1.5,1.3,2.8,2.8,2.8s2.8-1.2,2.8-2.8C26.3,151.6,25,150.4,23.5,150.4L23.5,150.4z"/>
</g>
<g>
	<path fill="#666666" d="M28.8,179.4c-0.1,0-0.1,0-0.2,0l-3.2,0c0,0-0.1,0-0.1,0c-0.5-0.1-1.2-0.5-1.1-1.3l0-0.2h-1.6v0.5
		c0,0.2-0.1,0.6-0.4,0.9c-0.2,0.1-0.4,0.2-0.7,0.1l-3.7,0c-0.1,0-0.7,0-1-0.4c-0.2-0.2-0.2-0.4-0.2-0.6c0-0.1,0-0.2,0-0.3
		c0.1-0.5,0.1-1.2-0.2-1.6c-0.1-0.1-0.2-0.2-0.3-0.3c-1-1.1-3.7-3.9-2.9-8.9l1,0.2c-0.7,4.5,1.6,7,2.6,8.1c0.2,0.2,0.3,0.3,0.4,0.4
		c0.6,0.8,0.5,1.8,0.4,2.3c0,0.1,0,0.1,0,0.2c0.1,0,0.2,0,0.3,0.1h3.8c0,0,0-0.1,0-0.1l0-1c0-0.3,0.2-0.5,0.5-0.5h2.6
		c0.3,0,0.5,0.2,0.5,0.5v0.8c0,0.1,0.2,0.2,0.3,0.3h3.2c0.2,0,0.4-0.1,0.5-0.2v-2.1c0-0.2,0.2-0.4,0.4-0.5c1.2-0.3,2.1-2,2.7-3.3
		c0.6-1.2,0.9-1.9,1.6-1.8c0.3,0.1,0.7-0.4,0.9-0.7v-2.6c0,0,0-0.1,0-0.1c0.1-0.3-0.3-0.8-0.7-1.2H33c-0.3,0-0.5-0.2-0.5-0.4
		c-0.1-1.1-0.8-1.7-1.5-2.3c-0.4-0.3-0.8-0.6-1-1c-0.6-1.2,0.4-2.9,0.5-3.1c0,0,0.1-0.1,0.1-0.1c-0.1,0-0.3-0.1-0.5-0.2
		c-0.7-0.2-1.1,0.3-1.7,1c-0.4,0.5-1,1.2-1.8,0.7c-0.8-0.5-2.1-0.7-2.1-0.7l0.1-1c0.1,0,1.6,0.2,2.5,0.8c0,0,0.3-0.3,0.4-0.5
		c0.5-0.7,1.3-1.6,2.7-1.3c0.7,0.1,1.4,0.4,1.5,1c0,0.4-0.2,0.7-0.5,0.9c-0.3,0.5-0.7,1.5-0.4,1.9c0.1,0.2,0.4,0.5,0.8,0.8
		c0.6,0.6,1.5,1.3,1.8,2.5h0.9c0.1,0,0.2,0,0.3,0.1c0.1,0.1,1.4,1.2,1.2,2.2v2.7c0,0.1,0,0.2-0.1,0.3c-0.1,0.1-0.9,1.4-1.9,1.3
		c-0.2,0.2-0.5,0.8-0.7,1.2c-0.6,1.3-1.5,3.1-3,3.7v1.9c0,0.1,0,0.2-0.1,0.3C30.1,178.8,29.5,179.4,28.8,179.4z"/>
</g>
<g>
	<path fill="#666666" d="M29.1,12.5c1.8,3,4.2,5.4,7.2,7.2l-3,3.4c-3.2-1.7-5.9-4.4-7.7-7.7L29.1,12.5 M29.4,10.9l-5,4.3l0,0l0,0h0
		l0,0l0,0c2,4,5.2,7.2,9.2,9.1l0,0l4.3-4.9l0,0C34.2,17.5,31.3,14.5,29.4,10.9L29.4,10.9L29.4,10.9z"/>
</g>
<g>
	<path fill="#666666" d="M19.7,12.5l3.4,3c-1.8,3.2-4.4,5.9-7.7,7.7l-3-3.4C15.5,17.9,17.9,15.4,19.7,12.5 M19.5,10.9
		c-1.9,3.6-4.9,6.6-8.5,8.5l0,0l4.3,4.9l0,0c4-1.9,7.2-5.2,9.1-9.1l0,0L19.5,10.9L19.5,10.9z"/>
</g>
<g>
	<path fill="#666666" d="M15.5,25.6c3.2,1.8,5.9,4.4,7.7,7.7l-3.4,3c-1.8-3-4.2-5.4-7.2-7.2L15.5,25.6 M15.2,24.4l-4.3,4.9l0,0
		c3.6,1.9,6.6,4.9,8.5,8.5l5-4.3l0,0l0,0l0,0l0,0l0,0C22.5,29.5,19.2,26.3,15.2,24.4L15.2,24.4L15.2,24.4z"/>
</g>
<g>
	<path fill="#666666" d="M33.3,25.6l3,3.4c-3,1.8-5.4,4.2-7.2,7.2l-3.4-3C27.4,30,30.1,27.4,33.3,25.6 M33.6,24.4L33.6,24.4
		c-4,2-7.2,5.2-9.2,9.1l0,0l5,4.3l0,0c1.9-3.6,4.9-6.6,8.5-8.5l0,0L33.6,24.4L33.6,24.4z"/>
</g>
<g>
	<path fill="#666666" d="M21.5,108.9c-1.3,0-2.3-1.1-2.3-2.4V106c-0.1-0.1-0.5-0.6-0.8-0.8c-0.1,0-0.3,0.1-0.4,0.2l-0.3,0.3
		c-0.8,0.9-2.5,0.9-3.3,0l-2.6-2.6c-0.4-0.4-0.7-1-0.7-1.7c0-0.6,0.2-1.2,0.7-1.7l0.3-0.3c0-0.1,0-0.8,0-1.1c-0.1,0-0.2-0.1-0.5-0.1
		h-0.4c-1.3,0-2.3-1.1-2.3-2.4l0-3.7c0-1.3,1.1-2.4,2.3-2.4h0.4c0.1-0.1,0.6-0.5,0.8-0.8c0-0.1-0.1-0.3-0.3-0.4l-0.3-0.3
		c-0.9-0.9-0.9-2.4,0-3.3l2.6-2.6c0.8-0.9,2.5-0.9,3.3,0l0.3,0.3c0.1,0,0.2,0.1,0.6,0.1c0.3,0,0.5,0,0.6-0.1c0-0.1,0.1-0.3,0.1-0.5
		v-0.4c0-1.3,1.1-2.4,2.3-2.4h3.7c1.3,0,2.3,1.1,2.3,2.4v0.4c0.1,0.1,0.5,0.6,0.8,0.8c0.1,0,0.3-0.1,0.4-0.2l0.3-0.3
		c0.4-0.4,1-0.7,1.7-0.7c0,0,0,0,0,0c0.6,0,1.2,0.2,1.7,0.7l2.6,2.6c0.4,0.4,0.7,1,0.7,1.7s-0.2,1.2-0.7,1.7l-0.3,0.3
		c0,0.1,0,0.8,0,1.1c0.1,0,0.2,0.1,0.5,0.1h0.4c1.3,0,2.3,1.1,2.3,2.4h-1c0-0.8-0.6-1.4-1.3-1.4h-0.4c-0.6,0-1.2-0.3-1.4-0.7
		c-0.2-0.5-0.3-1.9,0.2-2.3l0.3-0.3c0.3-0.3,0.4-0.6,0.4-1s-0.1-0.7-0.4-1L31.7,83c-0.2-0.2-0.6-0.4-0.9-0.4c0,0,0,0,0,0
		c-0.4,0-0.7,0.1-0.9,0.4l-0.3,0.3c-0.3,0.3-0.8,0.5-1.2,0.6c-0.1,0-0.2,0-0.2-0.1c-0.4-0.2-1.5-1.1-1.5-1.7v-0.5
		c0-0.8-0.6-1.4-1.3-1.4h-3.7c-0.7,0-1.3,0.6-1.3,1.4v0.4c0,0.6-0.3,1.2-0.7,1.4c-0.2,0.1-0.7,0.1-1,0.1c-0.3,0-1,0-1.2-0.3L16.9,83
		c-0.5-0.5-1.4-0.5-1.9,0l-2.6,2.6c-0.5,0.5-0.5,1.4,0,1.9l0.3,0.3c0.4,0.4,0.7,1.1,0.5,1.5c-0.2,0.4-1.1,1.5-1.7,1.5h-0.4
		c-0.7,0-1.3,0.6-1.3,1.4l0,3.7c0,0.8,0.6,1.4,1.3,1.4h0.4c0.6,0,1.2,0.3,1.4,0.7c0.2,0.5,0.3,1.8-0.2,2.3l-0.3,0.3
		c-0.3,0.3-0.4,0.6-0.4,1c0,0.4,0.1,0.7,0.4,1l2.6,2.6c0.5,0.5,1.4,0.5,1.9,0l0.3-0.3c0.4-0.4,0.8-0.6,1.3-0.6c0.1,0,0.1,0,0.2,0.1
		c0.4,0.2,1.5,1.1,1.5,1.7v0.5c0,0.8,0.6,1.4,1.3,1.4V108.9z"/>
</g>
<g>
	<path fill="#666666" d="M38.4,108.4h-1c0-3.3-3.2-6-7.1-6s-7.1,2.7-7.1,6h-1c0-3.9,3.7-7,8.1-7S38.4,104.5,38.4,108.4z"/>
</g>
<g>
	<path fill="#666666" d="M30.2,92.3c2.4,0,4.3,1.9,4.3,4.3c0,2.4-1.9,4.3-4.3,4.3S26,99,26,96.6C26,94.2,27.9,92.3,30.2,92.3
		 M30.2,91.3c-2.9,0-5.3,2.4-5.3,5.3c0,2.9,2.4,5.3,5.3,5.3c2.9,0,5.3-2.4,5.3-5.3C35.5,93.7,33.1,91.3,30.2,91.3L30.2,91.3z"/>
</g>
<g>
	<path fill="#666666" d="M24,2c12.1,0,22,9.8,22,21.9c0,12.1-9.9,21.9-22,21.9S2,36,2,23.9C2,11.8,11.9,2,24,2 M24,1
		C11.3,1,1,11.3,1,23.9c0,12.7,10.3,22.9,23,22.9c12.7,0,23-10.3,23-22.9C47,11.3,36.7,1,24,1L24,1z"/>
</g>
<g>
	<path fill="#666666" d="M24,72c12.1,0,22,9.8,22,22c0,12.1-9.9,22-22,22S2,106,2,93.9C2,81.8,11.9,72,24,72 M24,71
		c-12.7,0-23,10.3-23,23c0,12.7,10.3,23,23,23c12.7,0,23-10.3,23-23C47,81.2,36.7,71,24,71L24,71z"/>
</g>
<g>
	<path fill="#666666" d="M24,143c12.1,0,22,9.8,22,21.9s-9.9,21.9-22,21.9S2,177,2,164.9S11.9,143,24,143 M24,142
		c-12.7,0-23,10.3-23,22.9c0,12.7,10.3,22.9,23,22.9c12.7,0,23-10.3,23-22.9C47,152.2,36.7,142,24,142L24,142z"/>
</g>
<g>
	<path fill="#666666" d="M141.4,96.3h-2v-1h2V96.3z M137.4,96.3h-2v-1h2V96.3z M133.4,96.3h-2v-1h2V96.3z M129.4,96.3h-2v-1h2V96.3z
		 M125.4,96.3h-2v-1h2V96.3z M121.4,96.3h-2v-1h2V96.3z M117.4,96.3h-2v-1h2V96.3z M113.4,96.3h-2v-1h2V96.3z M109.4,96.3h-2v-1h2
		V96.3z M105.4,96.3h-2v-1h2V96.3z M101.4,96.3h-2v-1h2V96.3z M97.4,96.3h-2v-1h2V96.3z M93.4,96.3h-2v-1h2V96.3z M89.4,96.3h-2v-1
		h2V96.3z M85.4,96.3h-2v-1h2V96.3z M81.4,96.3h-2v-1h2V96.3z M77.4,96.3h-2v-1h2V96.3z M73.4,96.3h-2v-1h2V96.3z M69.4,96.3h-2v-1
		h2V96.3z M65.4,96.3h-2v-1h2V96.3z M61.4,96.3h-2v-1h2V96.3z M57.4,96.3h-2v-1h2V96.3z M53.4,96.3h-2v-1h2V96.3z M49.4,96.3h-2v-1
		h2V96.3z"/>
</g>
<g>
	<path fill="#666666" d="M124.1,166.8h-2v-1h2V166.8z M120.1,166.8h-2v-1h2V166.8z M116.1,166.8h-2v-1h2V166.8z M112.1,166.8h-2v-1
		h2V166.8z M108.1,166.8h-2v-1h2V166.8z M104.1,166.8h-2v-1h2V166.8z M100.1,166.8h-2v-1h2V166.8z M96.1,166.8h-2v-1h2V166.8z
		 M92,166.8h-2v-1h2V166.8z M88,166.8h-2v-1h2V166.8z M84,166.8h-2v-1h2V166.8z M80,166.8h-2v-1h2V166.8z M76,166.8h-2v-1h2V166.8z
		 M72,166.8h-2v-1h2V166.8z M68,166.8h-2v-1h2V166.8z M64,166.8h-2v-1h2V166.8z M60,166.8h-2v-1h2V166.8z M56,166.8h-2v-1h2V166.8z
		 M52,166.8h-2v-1h2V166.8z M48,166.8h-0.5v-1H48V166.8z M126.3,166.4l-0.4-0.9c0.5-0.3,0.9-0.7,1.2-1.1l0.9,0.5
		C127.6,165.5,127,166.1,126.3,166.4z M128.5,162.7h-1v-2h1V162.7z M128.5,158.7h-1v-2h1V158.7z M128.5,154.7h-1v-2h1V154.7z
		 M128.5,150.7h-1v-2h1V150.7z M128.5,146.7h-1v-2h1V146.7z M128.5,142.7h-1v-2h1V142.7z M128.5,138.7h-1v-2h1V138.7z M128.5,134.7
		h-1v-2h1V134.7z M128.5,130.7h-1v-2h1V130.7z M128.5,126.7h-1v-2h1V126.7z M128.5,122.7h-1v-2h1V122.7z M128.5,118.7h-1v-2h1V118.7
		z M128.5,114.7h-1v-2h1V114.7z M128.5,110.7h-1v-2h1V110.7z M128.5,106.7h-1v-2h1V106.7z M128.5,102.7h-1v-2h1V102.7z M128.5,98.7
		h-1v-2h1V98.7z M128.5,94.7h-1v-2h1V94.7z M128.5,90.7h-1v-2h1V90.7z M128.5,86.7h-1v-2h1V86.7z M128.5,82.7h-1v-2h1V82.7z
		 M128.5,78.7h-1v-2h1V78.7z M128.5,74.7h-1v-2h1V74.7z M128.5,70.7h-1v-2h1V70.7z M128.5,66.7h-1v-2h1V66.7z M128.5,62.7h-1v-2h1
		V62.7z M128.5,58.7h-1v-2h1V58.7z M128.5,54.7h-1v-2h1V54.7z M128.5,50.7h-1v-2h1V50.7z M128.5,46.7h-1v-2h1V46.7z M128.5,42.7h-1
		v-2h1V42.7z M128.5,38.7h-1v-2h1V38.7z M128.5,34.7h-1v-2h1V34.7z M128.5,30.7h-1v-2h1V30.7z M127.5,26.7c0-0.6-0.2-1.1-0.6-1.6
		l0.8-0.6c0.5,0.6,0.7,1.4,0.8,2.1L127.5,26.7z M125.5,24.2c-0.3-0.1-0.6-0.2-0.9-0.2h-0.9v-1h0.9c0.4,0,0.8,0.1,1.3,0.2L125.5,24.2
		z M121.7,24h-2v-1h2V24z M117.7,24h-2v-1h2V24z M113.6,24h-2v-1h2V24z M109.6,24h-2v-1h2V24z M105.6,24h-2v-1h2V24z M101.6,24h-2
		v-1h2V24z M97.6,24h-2v-1h2V24z M93.6,24h-2v-1h2V24z M89.6,24h-2v-1h2V24z M85.6,24h-2v-1h2V24z M81.6,24h-2v-1h2V24z M77.6,24h-2
		v-1h2V24z M73.6,24h-2v-1h2V24z M69.6,24h-2v-1h2V24z M65.6,24h-2v-1h2V24z M61.6,24h-2v-1h2V24z M57.6,24h-2v-1h2V24z M53.6,24h-2
		v-1h2V24z M49.5,24h-2v-1h2V24z"/>
</g>
<g>
	<path fill="#0099FF" d="M212.6,114.7c-1.3,0-2.7-0.5-3.7-1.5c-1-1-1.5-2.3-1.5-3.7s0.5-2.7,1.5-3.7l5.7-5.7c2-2,5.3-2,7.3,0
		l-0.7,0.7c-1.6-1.6-4.3-1.6-5.9,0l-5.7,5.7c-0.8,0.8-1.2,1.8-1.2,3c0,1.1,0.4,2.2,1.2,3c1.6,1.6,4.3,1.6,5.9,0l5.7-5.7l0.7,0.7
		l-5.7,5.7C215.3,114.2,213.9,114.7,212.6,114.7z"/>
</g>
<g>
	<path fill="#0099FF" d="M221.1,106.2c-1.3,0-2.7-0.5-3.7-1.5l0.7-0.7c1.6,1.6,4.3,1.6,5.9,0l5.7-5.7c0.8-0.8,1.2-1.8,1.2-3
		c0-1.1-0.4-2.2-1.2-3c-1.6-1.6-4.3-1.6-5.9,0l-5.7,5.7l-0.7-0.7l5.7-5.7c2-2,5.3-2,7.3,0c1,1,1.5,2.3,1.5,3.7
		c0,1.4-0.5,2.7-1.5,3.7l-5.7,5.7C223.8,105.7,222.5,106.2,221.1,106.2z"/>
</g>
<g>
	<path fill="#666666" d="M181.2,71.6c0.4,0,0.7,0.3,0.7,0.7c0,0.4-0.3,0.7-0.7,0.7c-0.4,0-0.7-0.3-0.7-0.7
		C180.5,71.9,180.8,71.6,181.2,71.6 M181.2,70.6c-0.9,0-1.7,0.8-1.7,1.7c0,0.9,0.7,1.7,1.7,1.7c0.9,0,1.7-0.8,1.7-1.7
		C182.9,71.3,182.1,70.6,181.2,70.6L181.2,70.6z"/>
</g>
<g>
	<path fill="#666666" d="M187.9,71.6c0.4,0,0.7,0.3,0.7,0.7c0,0.4-0.3,0.7-0.7,0.7c-0.4,0-0.7-0.3-0.7-0.7
		C187.2,71.9,187.5,71.6,187.9,71.6 M187.9,70.6c-0.9,0-1.7,0.8-1.7,1.7s0.8,1.7,1.7,1.7c0.9,0,1.7-0.8,1.7-1.7
		S188.8,70.6,187.9,70.6L187.9,70.6z"/>
</g>
<g>
	<path fill="#666666" d="M194.5,71.6c0.4,0,0.7,0.3,0.7,0.7c0,0.4-0.3,0.7-0.7,0.7s-0.7-0.3-0.7-0.7
		C193.9,71.9,194.2,71.6,194.5,71.6 M194.5,70.6c-0.9,0-1.7,0.8-1.7,1.7s0.7,1.7,1.7,1.7c0.9,0,1.7-0.8,1.7-1.7
		S195.5,70.6,194.5,70.6L194.5,70.6z"/>
</g>
<g>
	<path fill="#666666" d="M262,67.4c1.7,0,3,1.3,3,3v6.8h-90.6v-6.8c0-1.7,1.3-3,3-3H262 M262,66.4h-84.6c-2.2,0-4,1.8-4,4v7.8H266
		v-7.8C266,68.2,264.2,66.4,262,66.4L262,66.4z"/>
</g>
<g>
	<path fill="#666666" d="M240.6,156.4v14.8h-41.8v-14.8H240.6 M241.6,155.4h-43.8v16.8h43.8V155.4L241.6,155.4z"/>
</g>
<g>
	<path fill="#666666" d="M283.5,59v81.2H155.9V59H283.5 M284.5,58H154.9v83.2h129.6V58L284.5,58z"/>
</g>
<g>
	<rect x="146.5" y="145.6" fill="#666666" width="146.5" height="1"/>
</g>
<g>
	<path fill="#666666" d="M288.9,51.4c1.7,0,3,1.3,3,3v97.8c0,1.7-1.3,3-3,3H150.5c-1.7,0-3-1.3-3-3V54.4c0-1.7,1.3-3,3-3H288.9
		 M288.9,50.4H150.5c-2.2,0-4,1.8-4,4v97.8c0,2.2,1.8,4,4,4h138.5c2.2,0,4-1.8,4-4V54.4C292.9,52.2,291.1,50.4,288.9,50.4
		L288.9,50.4z"/>
</g>
<g>
	<rect x="149" y="170.9" fill="#666666" width="149" height="1"/>
</g>
<g>
	<g>
		<g>
			<circle fill-rule="evenodd" clip-rule="evenodd" fill="#FFFFFF" cx="127.1" cy="94.9" r="2.9"/>
		</g>
	</g>
	<g>
		<g>
			<path fill="#0099FF" d="M127.1,92.6c1.3,0,2.4,1.1,2.4,2.4c0,1.3-1.1,2.4-2.4,2.4c-1.3,0-2.4-1.1-2.4-2.4
				C124.8,93.6,125.8,92.6,127.1,92.6 M127.1,91.6c-1.9,0-3.4,1.5-3.4,3.4c0,1.9,1.5,3.4,3.4,3.4c1.9,0,3.4-1.5,3.4-3.4
				C130.5,93.1,129,91.6,127.1,91.6L127.1,91.6z"/>
		</g>
	</g>
</g>
<g>
	<g>
		<g>
			<ellipse fill-rule="evenodd" clip-rule="evenodd" fill="#FFFFFF" cx="55.6" cy="23.5" rx="2.9" ry="2.9"/>
		</g>
	</g>
	<g>
		<g>
			<path fill="#0099FF" d="M55.6,21.2c1.3,0,2.4,1.1,2.4,2.4c0,1.3-1.1,2.4-2.4,2.4s-2.4-1.1-2.4-2.4C53.2,22.2,54.3,21.2,55.6,21.2
				 M55.6,20.2c-1.9,0-3.4,1.5-3.4,3.4c0,1.9,1.5,3.4,3.4,3.4c1.9,0,3.4-1.5,3.4-3.4C58.9,21.7,57.4,20.2,55.6,20.2L55.6,20.2z"/>
		</g>
	</g>
</g>
<g>
	<g>
		<g>
			<ellipse fill-rule="evenodd" clip-rule="evenodd" fill="#FFFFFF" cx="55.6" cy="95.8" rx="2.9" ry="2.9"/>
		</g>
	</g>
	<g>
		<g>
			<path fill="#0099FF" d="M55.6,93.4c1.3,0,2.4,1.1,2.4,2.4c0,1.3-1.1,2.4-2.4,2.4s-2.4-1.1-2.4-2.4C53.2,94.5,54.3,93.4,55.6,93.4
				 M55.6,92.4c-1.9,0-3.4,1.5-3.4,3.4c0,1.9,1.5,3.4,3.4,3.4c1.9,0,3.4-1.5,3.4-3.4C58.9,93.9,57.4,92.4,55.6,92.4L55.6,92.4z"/>
		</g>
	</g>
</g>
<g>
	<g>
		<g>
			<path fill-rule="evenodd" clip-rule="evenodd" fill="#FFFFFF" d="M55.6,168.3c-1.6,0-2.9-1.3-2.9-2.9c0-1.6,1.3-2.9,2.9-2.9
				s2.9,1.3,2.9,2.9C58.4,167.1,57.1,168.3,55.6,168.3z"/>
		</g>
	</g>
	<g>
		<g>
			<path fill="#0099FF" d="M55.6,163.1c1.3,0,2.4,1.1,2.4,2.4c0,1.3-1.1,2.4-2.4,2.4s-2.4-1.1-2.4-2.4
				C53.2,164.2,54.3,163.1,55.6,163.1 M55.6,162.1c-1.9,0-3.4,1.5-3.4,3.4c0,1.9,1.5,3.4,3.4,3.4c1.9,0,3.4-1.5,3.4-3.4
				C58.9,163.6,57.4,162.1,55.6,162.1L55.6,162.1z"/>
		</g>
	</g>
</g>
</svg>
