<?xml version="1.0" encoding="utf-8"?>
<!-- Generator: Adobe Illustrator 17.0.0, SVG Export Plug-In . SVG Version: 6.00 Build 0)  -->
<!DOCTYPE svg PUBLIC "-//W3C//DTD SVG 1.1//EN" "http://www.w3.org/Graphics/SVG/1.1/DTD/svg11.dtd">
<svg version="1.1" id="图层_1" xmlns="http://www.w3.org/2000/svg" xmlns:xlink="http://www.w3.org/1999/xlink" x="0px" y="0px"
	 width="74px" height="1096px" viewBox="0 0 74 1096" enable-background="new 0 0 74 1096" xml:space="preserve">
<g>
	<g>
		<circle fill="#ECF6FF" cx="37" cy="37" r="37"/>
	</g>
	<g>
		<g>
			<path fill="#0099FF" d="M19.7,58c-0.1,0-0.2,0-0.3-0.1c-0.2-0.1-0.3-0.4-0.2-0.6l3.5-9.3l-5.3-0.1c-0.2,0-0.4-0.1-0.5-0.3
				c-0.1-0.2,0-0.4,0.1-0.5l11.8-11.6c0.2-0.2,0.4-0.2,0.6-0.1c0.2,0.1,0.3,0.3,0.2,0.6L27.1,45l4.4,0.3c0.2,0,0.4,0.1,0.4,0.3
				s0,0.4-0.1,0.5L20.1,57.9C20,58,19.8,58,19.7,58z M18.7,47l4.8,0c0.2,0,0.3,0.1,0.4,0.2c0.1,0.1,0.1,0.3,0.1,0.5l-3,7.9l9.4-9.2
				L26.5,46c-0.1,0-0.3-0.1-0.4-0.2C26,45.7,26,45.5,26,45.4l2.3-7.8L18.7,47z"/>
		</g>
		<g>
			<path fill="#0099FF" d="M37,55.7c-0.3,0-0.5-0.2-0.5-0.5s0.2-0.5,0.5-0.5c10.5,0,19-8.5,19-18.8C56,25.5,47.5,17,37,17
				s-19,8.5-19,18.8c0,0.3-0.2,0.5-0.5,0.5S17,36.1,17,35.8C17,24.9,26,16,37,16c11,0,20,8.9,20,19.8C57,46.8,48,55.7,37,55.7z"/>
		</g>
		<g>
			<path fill="#0099FF" d="M45,39h-8.5c-0.3,0-0.5-0.2-0.5-0.5V26c0-0.3,0.2-0.5,0.5-0.5S37,25.7,37,26v12h8c0.3,0,0.5,0.2,0.5,0.5
				S45.3,39,45,39z"/>
		</g>
	</g>
</g>
<g>
	<g>
		<circle fill="#ECF6FF" cx="37" cy="114" r="37"/>
	</g>
	<g>
		<g>
			<path fill="#0099FF" d="M46.8,133c-3.1,0-5.7-2.6-5.7-5.7c0-3.1,2.5-5.7,5.7-5.7s5.7,2.6,5.7,5.7C52.5,130.4,50,133,46.8,133z
				 M46.8,122.6c-2.6,0-4.7,2.1-4.7,4.7c0,2.6,2.1,4.7,4.7,4.7s4.7-2.1,4.7-4.7C51.5,124.7,49.4,122.6,46.8,122.6z"/>
		</g>
		<g>
			<path fill="#0099FF" d="M27.2,133c-3.1,0-5.7-2.6-5.7-5.7c0-3.1,2.6-5.7,5.7-5.7s5.7,2.6,5.7,5.7C32.9,130.4,30.3,133,27.2,133z
				 M27.2,122.6c-2.6,0-4.7,2.1-4.7,4.7c0,2.6,2.1,4.7,4.7,4.7s4.7-2.1,4.7-4.7C31.9,124.7,29.8,122.6,27.2,122.6z"/>
		</g>
		<g>
			<path fill="#0099FF" d="M42,125.5c-0.2,0-0.3-0.1-0.4-0.2L23.4,95.8c-0.1-0.2-0.1-0.5,0.2-0.7c0.2-0.1,0.5-0.1,0.7,0.2l18.2,29.5
				c0.1,0.2,0.1,0.5-0.2,0.7C42.2,125.4,42.1,125.5,42,125.5z"/>
		</g>
		<g>
			<path fill="#0099FF" d="M32,125.5c-0.1,0-0.2,0-0.3-0.1c-0.2-0.1-0.3-0.5-0.2-0.7l18-29c0.1-0.2,0.5-0.3,0.7-0.2
				c0.2,0.1,0.3,0.5,0.2,0.7l-18,29C32.3,125.4,32.2,125.5,32,125.5z"/>
		</g>
	</g>
</g>
<g>
	<g>
		<circle fill="#ECF6FF" cx="37" cy="191" r="37"/>
	</g>
	<g>
		<g>
			<path fill="#0099FF" d="M37,210.6l-13-9.8l-4.1-19.5l17.1-9.8l17.1,9.8L50,200.8L37,210.6z M24.9,200.2l12.1,9.2l12.1-9.2
				l3.9-18.5L37,172.6l-15.9,9.2L24.9,200.2z"/>
		</g>
		<g>
			<g>
				<path fill="#0099FF" d="M44,191H29c-0.3,0-0.5-0.2-0.5-0.5s0.2-0.5,0.5-0.5h15c0.3,0,0.5,0.2,0.5,0.5S44.3,191,44,191z"/>
			</g>
			<g>
				<path fill="#0099FF" d="M36.5,198.5c-0.3,0-0.5-0.2-0.5-0.5v-15c0-0.3,0.2-0.5,0.5-0.5s0.5,0.2,0.5,0.5v15
					C37,198.3,36.8,198.5,36.5,198.5z"/>
			</g>
		</g>
	</g>
</g>
<g>
	<g>
		<circle fill="#ECF6FF" cx="37" cy="268" r="37"/>
	</g>
	<g>
		<g>
			<path fill="#0099FF" d="M19,259.1c1.1,0,2,0.9,2,2c0,1.1-0.9,2-2,2c-1.1,0-2-0.9-2-2C17,260,17.9,259.1,19,259.1 M19,258.1
				c-1.7,0-3,1.3-3,3c0,1.7,1.3,3,3,3s3-1.3,3-3C22,259.4,20.6,258.1,19,258.1L19,258.1z"/>
		</g>
		<g>
			<path fill="#0099FF" d="M55,259.1c1.1,0,2,0.9,2,2s-0.9,2-2,2c-1.1,0-2-0.9-2-2S53.9,259.1,55,259.1 M55,258.1c-1.7,0-3,1.3-3,3
				c0,1.7,1.3,3,3,3c1.7,0,3-1.3,3-3C58,259.4,56.7,258.1,55,258.1L55,258.1z"/>
		</g>
		<g>
			<path fill="#0099FF" d="M37,251.5c1.1,0,2,0.9,2,2c0,1.1-0.9,2-2,2c-1.1,0-2-0.9-2-2C35,252.4,35.9,251.5,37,251.5 M37,250.5
				c-1.7,0-3,1.3-3,3c0,1.7,1.3,3,3,3c1.7,0,3-1.3,3-3C40,251.8,38.7,250.5,37,250.5L37,250.5z"/>
		</g>
		<g>
			<path fill="#0099FF" d="M37.1,257.6l7.1,12.5l0.6,1l0.9-0.7l7-5.2l-2.1,14.7c-1.4,1-7,4.6-14.2,4.6c-6.8,0-11.7-3.6-12.9-4.5
				l-2.2-14.9l8,5.4l0.9,0.6l0.5-1L37.1,257.6 M37,255.5l-7.1,14.2L20,263l2.6,17.5c0,0,5.5,5,13.8,5c8.7,0,15.1-5,15.1-5L54,263
				l-9,6.7L37,255.5L37,255.5z M54,263L54,263L54,263z"/>
		</g>
	</g>
</g>
<g>
	<g>
		<circle fill="#ECF6FF" cx="37" cy="345" r="37"/>
	</g>
	<g>
		<g>
			<path fill="#0099FF" d="M28,337.5c-5,0-9-2-9-4.5s4-4.5,9-4.5s9,2,9,4.5S33,337.5,28,337.5z M28,329.5c-4.8,0-8,1.8-8,3.5
				s3.2,3.5,8,3.5s8-1.8,8-3.5S32.8,329.5,28,329.5z"/>
		</g>
		<g>
			<path fill="#0099FF" d="M46,358.5c-5,0-9-2-9-4.5c0-0.3,0.2-0.5,0.5-0.5s0.5,0.2,0.5,0.5c0,1.7,3.2,3.5,8,3.5s8-1.8,8-3.5
				c0-0.3,0.2-0.5,0.5-0.5s0.5,0.2,0.5,0.5C55,356.5,51,358.5,46,358.5z"/>
		</g>
		<g>
			<path fill="#0099FF" d="M46,353.5c-5,0-9-2-9-4.5c0-0.3,0.2-0.5,0.5-0.5s0.5,0.2,0.5,0.5c0,1.7,3.2,3.5,8,3.5s8-1.8,8-3.5
				c0-0.3,0.2-0.5,0.5-0.5s0.5,0.2,0.5,0.5C55,351.5,51,353.5,46,353.5z"/>
		</g>
		<g>
			<path fill="#0099FF" d="M28,361.5c-5,0-9-2-9-4.5c0-0.3,0.2-0.5,0.5-0.5s0.5,0.2,0.5,0.5c0,1.7,3.2,3.5,8,3.5s8-1.8,8-3.5
				c0-0.3,0.2-0.5,0.5-0.5s0.5,0.2,0.5,0.5C37,359.5,33,361.5,28,361.5z"/>
		</g>
		<g>
			<path fill="#0099FF" d="M28,355.5c-5,0-9-2-9-4.5c0-0.3,0.2-0.5,0.5-0.5s0.5,0.2,0.5,0.5c0,1.7,3.2,3.5,8,3.5s8-1.8,8-3.5
				c0-0.3,0.2-0.5,0.5-0.5s0.5,0.2,0.5,0.5C37,353.5,33,355.5,28,355.5z"/>
		</g>
		<g>
			<path fill="#0099FF" d="M28,349.5c-5,0-9-2-9-4.5c0-0.3,0.2-0.5,0.5-0.5s0.5,0.2,0.5,0.5c0,1.7,3.2,3.5,8,3.5s8-1.8,8-3.5
				c0-0.3,0.2-0.5,0.5-0.5s0.5,0.2,0.5,0.5C37,347.5,33,349.5,28,349.5z"/>
		</g>
		<g>
			<path fill="#0099FF" d="M28,343.5c-5,0-9-2-9-4.5c0-0.3,0.2-0.5,0.5-0.5s0.5,0.2,0.5,0.5c0,1.7,3.2,3.5,8,3.5s8-1.8,8-3.5
				c0-0.3,0.2-0.5,0.5-0.5s0.5,0.2,0.5,0.5C37,341.5,33,343.5,28,343.5z"/>
		</g>
		<g>
			<path fill="#0099FF" d="M46,347.5c-5,0-9-2-9-4.5s4-4.5,9-4.5s9,2,9,4.5S51,347.5,46,347.5z M46,339.5c-4.8,0-8,1.8-8,3.5
				s3.2,3.5,8,3.5s8-1.8,8-3.5S50.8,339.5,46,339.5z"/>
		</g>
	</g>
</g>
<g>
	<g>
		<circle fill="#ECF6FF" cx="37" cy="422" r="37"/>
	</g>
	<g>
		<g>
			<path fill="#0099FF" d="M37,440.5c-1.8,0-3.6-0.3-5.3-0.8c-4-1.2-7.6-3.8-10-7.2c-1.4-2.1-2.4-4.4-2.9-6.9
				c-0.1-0.3,0.1-0.5,0.4-0.6c0.3-0.1,0.5,0.1,0.6,0.4c0.5,2.4,1.4,4.6,2.8,6.6c2.3,3.3,5.6,5.7,9.4,6.9c4.3,1.3,8.9,0.9,12.9-1.1
				c0.2-0.1,0.5,0,0.7,0.2s0,0.5-0.2,0.7C42.7,439.8,39.9,440.5,37,440.5z M55,421.1c-0.3,0-0.5-0.2-0.5-0.5
				c-0.5-7.2-5.5-13.4-12.4-15.4c-4.5-1.3-9.3-0.8-13.4,1.4c-0.2,0.1-0.5,0-0.7-0.2c-0.1-0.2,0-0.5,0.2-0.7
				c4.4-2.4,9.4-2.9,14.2-1.5c7.3,2.2,12.6,8.7,13.2,16.3C55.5,420.9,55.3,421.1,55,421.1C55,421.1,55,421.1,55,421.1z"/>
		</g>
		<g>
			<g>
				<g>
					<path fill-rule="evenodd" clip-rule="evenodd" fill="#ECF6FF" d="M20,426.6c-1.9,0-3.5-1.6-3.5-3.5s1.6-3.5,3.5-3.5
						s3.5,1.6,3.5,3.5S21.9,426.6,20,426.6z"/>
				</g>
			</g>
			<g>
				<g>
					<path fill="#0099FF" d="M20,420.1c1.7,0,3,1.3,3,3c0,1.7-1.3,3-3,3s-3-1.3-3-3C17,421.5,18.3,420.1,20,420.1 M20,419.1
						c-2.2,0-4,1.8-4,4c0,2.2,1.8,4,4,4s4-1.8,4-4C24,420.9,22.2,419.1,20,419.1L20,419.1z"/>
				</g>
			</g>
		</g>
		<g>
			<g>
				<g>
					<path fill-rule="evenodd" clip-rule="evenodd" fill="#ECF6FF" d="M54,426.6c-1.9,0-3.5-1.6-3.5-3.5s1.6-3.5,3.5-3.5
						s3.5,1.6,3.5,3.5S55.9,426.6,54,426.6z"/>
				</g>
			</g>
			<g>
				<g>
					<path fill="#0099FF" d="M54,420.1c1.7,0,3,1.3,3,3c0,1.7-1.3,3-3,3c-1.7,0-3-1.3-3-3C51,421.5,52.3,420.1,54,420.1 M54,419.1
						c-2.2,0-4,1.8-4,4c0,2.2,1.8,4,4,4c2.2,0,4-1.8,4-4C58,420.9,56.2,419.1,54,419.1L54,419.1z"/>
				</g>
			</g>
		</g>
	</g>
</g>
<g>
	<g>
		<circle fill="#ECF6FF" cx="37" cy="499" r="37"/>
	</g>
	<g>
		<g>
			<path fill="#0099FF" d="M43,517.5c-4.1,0-7.5-3.4-7.5-7.5v-13c0-0.3,0.2-0.5,0.5-0.5s0.5,0.2,0.5,0.5v13c0,3.6,2.9,6.5,6.5,6.5
				s6.5-2.9,6.5-6.5c0-0.3,0.2-0.5,0.5-0.5s0.5,0.2,0.5,0.5C50.5,514.1,47.1,517.5,43,517.5z"/>
		</g>
		<g>
			<path fill="#0099FF" d="M53,497.5C53,497.5,53,497.5,53,497.5H21c-0.3,0-0.5-0.2-0.5-0.5c0-9.1,7.4-16.5,16.5-16.5
				c9.1,0,16.4,7.3,16.5,16.4c0,0,0,0.1,0,0.1C53.5,497.3,53.3,497.5,53,497.5z M21.5,496.5h31c-0.3-8.3-7.1-15-15.5-15
				C28.6,481.5,21.8,488.2,21.5,496.5z"/>
		</g>
	</g>
</g>
<g>
	<g>
		<circle fill="#ECF6FF" cx="37" cy="576" r="37"/>
	</g>
	<g>
		<g>
			<path fill="#0099FF" d="M37.5,580.5c-2.2,0-4-1.8-4-4s1.8-4,4-4c2.2,0,4,1.8,4,4S39.7,580.5,37.5,580.5z M37.5,573.5
				c-1.7,0-3,1.3-3,3s1.3,3,3,3c1.7,0,3-1.3,3-3S39.2,573.5,37.5,573.5z"/>
		</g>
		<g>
			<path fill="#0099FF" d="M37.5,588.4c-3.9,0-7.8-1.9-10.2-5.3c-0.2-0.2-0.1-0.5,0.1-0.7c0.2-0.2,0.5-0.1,0.7,0.1
				c2.8,3.8,7.6,5.7,12,4.6c2.9-0.7,5.3-2.6,6.7-5.2c0.1-0.2,0.4-0.3,0.7-0.2c0.2,0.1,0.3,0.4,0.2,0.7c-1.6,2.9-4.2,4.9-7.3,5.7
				C39.5,588.2,38.5,588.4,37.5,588.4z"/>
		</g>
		<g>
			<path fill="#0099FF" d="M47.3,570.5c-0.2,0-0.3-0.1-0.4-0.3c-1.4-2.6-3.8-4.5-6.7-5.2c-4.4-1.1-9.2,0.7-12,4.6
				c-0.2,0.2-0.5,0.3-0.7,0.1c-0.2-0.2-0.3-0.5-0.1-0.7c3-4.2,8.3-6.2,13.1-4.9c3.1,0.8,5.7,2.8,7.3,5.7c0.1,0.2,0,0.5-0.2,0.7
				C47.4,570.5,47.4,570.5,47.3,570.5z"/>
		</g>
		<g>
			<path fill="#0099FF" d="M46.5,591.6c-0.2,0-0.3-0.1-0.4-0.2c-0.1-0.2-0.1-0.5,0.2-0.7c6.1-3.8,9.4-11,8.1-18.1
				c-0.9-4.6-3.5-8.6-7.4-11.3c-0.2-0.2-0.3-0.5-0.1-0.7c0.2-0.2,0.5-0.3,0.7-0.1c4.1,2.8,6.9,7,7.8,11.9c1.4,7.5-2,15.2-8.5,19.2
				C46.6,591.6,46.5,591.6,46.5,591.6z M27.5,591.6c-0.1,0-0.2,0-0.3-0.1c-6.5-4-9.9-11.7-8.5-19.2c0.9-4.9,3.7-9.1,7.8-11.9
				c0.2-0.2,0.5-0.1,0.7,0.1c0.2,0.2,0.1,0.5-0.1,0.7c-3.9,2.6-6.5,6.6-7.4,11.3c-1.3,7.1,1.9,14.4,8.1,18.1
				c0.2,0.1,0.3,0.5,0.2,0.7C27.9,591.5,27.7,591.6,27.5,591.6z"/>
		</g>
	</g>
</g>
<g>
	<circle fill="#ECF6FF" cx="37" cy="653" r="37"/>
	<g>
		
			<path fill-rule="evenodd" clip-rule="evenodd" fill="none" stroke="#0099FF" stroke-linecap="round" stroke-linejoin="round" stroke-miterlimit="10" d="
			M37,646v19.1"/>
		
			<path fill-rule="evenodd" clip-rule="evenodd" fill="none" stroke="#0099FF" stroke-linecap="round" stroke-linejoin="round" stroke-miterlimit="10" d="
			M41.6,652.9c0,0-0.2-3.6-5.2-3.6c0,0-3.7,0.4-3.7,2.9c0,0-0.4,2.7,4.2,3.3c0,0,4.9,0.5,4.9,3.3c0,0,0.4,3.3-4.4,3.3
			c0,0-4.6,0.3-5.2-3.8"/>
		<path fill="#0099FF" d="M36.6,632.5c5.2,0,10.6,0,10.6,2c0,2-4.3,4.3-10.6,4.3S26,636.5,26,634.4C26,632.5,31.4,632.5,36.6,632.5
			 M36.6,631.5c-6.4,0-11.6,0-11.6,3c0,2.9,5.2,5.3,11.6,5.3s11.6-2.4,11.6-5.3C48.1,631.5,43,631.5,36.6,631.5L36.6,631.5z"/>
		<path fill="#0099FF" d="M37,639.9c10,0,18.5,11.2,18.5,20.4c0,8-6.9,12.7-18.5,12.7c-11.6,0-18.5-4.8-18.5-12.7
			C18.5,651.1,27,639.9,37,639.9 M37,638.9c-10.8,0-19.5,12-19.5,21.4c0,9.5,8.7,13.7,19.5,13.7c10.8,0,19.5-4.2,19.5-13.7
			C56.5,650.8,47.8,638.9,37,638.9L37,638.9z"/>
	</g>
</g>
<g>
	
		<path fill-rule="evenodd" clip-rule="evenodd" fill="none" stroke="#0099FF" stroke-linecap="round" stroke-linejoin="round" stroke-miterlimit="10" d="
		M19.4,937.8v17.9"/>
	
		<path fill-rule="evenodd" clip-rule="evenodd" fill="none" stroke="#0099FF" stroke-linecap="round" stroke-linejoin="round" stroke-miterlimit="10" d="
		M23.6,944.3c0,0-0.2-3.4-4.9-3.4c0,0-3.5,0.3-3.5,2.7c0,0-0.3,2.5,3.9,3.1c0,0,4.6,0.5,4.6,3.1c0,0,0.4,3.1-4.2,3.1
		c0,0-4.3,0.2-4.9-3.6"/>
	<path fill="#0099FF" d="M18.9,925.1c4.9,0,10,0,10,1.8c0,1.9-4.1,4.1-10,4.1s-10-2.1-10-4.1C9,925.1,14,925.1,18.9,925.1
		 M18.9,924.1c-6,0-10.9,0-10.9,2.8c0,2.8,4.9,5,10.9,5s10.9-2.2,10.9-5C29.8,924.2,25,924.1,18.9,924.1L18.9,924.1z"/>
	<path fill="#0099FF" d="M19.4,932c9.4,0,17.4,10.6,17.4,19.2c0,7.5-6.5,12-17.4,12c-10.9,0-17.4-4.5-17.4-12
		C1.9,942.6,10,932,19.4,932 M19.4,931.1C9.2,931.1,1,942.3,1,951.2c0,8.9,8.2,12.9,18.4,12.9c10.1,0,18.4-4,18.4-12.9
		C37.7,942.3,29.5,931.1,19.4,931.1L19.4,931.1z"/>
</g>
<g>
	<circle fill="#ECF6FF" cx="37" cy="807" r="37"/>
	<g>
		<g>
			<path fill="#0099FF" d="M30.8,808.9c-1.9,0-3.4-1.5-3.4-3.4s1.5-3.4,3.4-3.4s3.4,1.5,3.4,3.4S32.6,808.9,30.8,808.9z M30.8,803.2
				c-1.3,0-2.4,1.1-2.4,2.4s1.1,2.4,2.4,2.4s2.4-1.1,2.4-2.4S32.1,803.2,30.8,803.2z"/>
		</g>
		<g>
			<path fill="#0099FF" d="M30.8,810.8c-2.9,0-5.2-2.4-5.2-5.2s2.4-5.2,5.2-5.2s5.2,2.4,5.2,5.2S33.7,810.8,30.8,810.8z M30.8,801.3
				c-2.3,0-4.2,1.9-4.2,4.2s1.9,4.2,4.2,4.2s4.2-1.9,4.2-4.2S33.1,801.3,30.8,801.3z"/>
		</g>
		<g>
			<path fill="#0099FF" d="M48.3,819.3H25.8c-1.9,0-3.5-1.6-3.5-3.5v-22.6c0-1.9,1.6-3.5,3.5-3.5h22.5c1.9,0,3.5,1.6,3.5,3.5v22.6
				C51.8,817.8,50.2,819.3,48.3,819.3z M25.8,790.7c-1.4,0-2.5,1.1-2.5,2.5v22.6c0,1.4,1.1,2.5,2.5,2.5h22.5c1.4,0,2.5-1.1,2.5-2.5
				v-22.6c0-1.4-1.1-2.5-2.5-2.5H25.8z"/>
		</g>
		<g>
			<path fill="#0099FF" d="M45.5,824.7c0.5,0,1,0.4,1,1v0.8c0,0.5-0.4,1-1,1h-0.8c-0.5,0-1-0.4-1-1v-0.8c0-0.5,0.4-1,1-1H45.5
				 M45.5,823.7h-0.8c-1.1,0-2,0.9-2,2v0.8c0,1.1,0.9,2,2,2h0.8c1.1,0,2-0.9,2-2v-0.8C47.5,824.6,46.6,823.7,45.5,823.7L45.5,823.7z
				"/>
		</g>
		<g>
			<path fill="#0099FF" d="M29.3,824.7c0.5,0,1,0.4,1,1v0.8c0,0.5-0.4,1-1,1h-0.8c-0.5,0-1-0.4-1-1v-0.8c0-0.5,0.4-1,1-1H29.3
				 M29.3,823.7h-0.8c-1.1,0-2,0.9-2,2v0.8c0,1.1,0.9,2,2,2h0.8c1.1,0,2-0.9,2-2v-0.8C31.3,824.6,30.4,823.7,29.3,823.7L29.3,823.7z
				"/>
		</g>
		<g>
			<path fill="#0099FF" d="M53,824.2H21c-1.9,0-3.5-1.6-3.5-3.5v-32.2c0-1.9,1.6-3.5,3.5-3.5h32c1.9,0,3.5,1.6,3.5,3.5v32.2
				C56.5,822.6,54.9,824.2,53,824.2z M21,786c-1.4,0-2.5,1.1-2.5,2.5v32.2c0,1.4,1.1,2.5,2.5,2.5h32c1.4,0,2.5-1.1,2.5-2.5v-32.2
				c0-1.4-1.1-2.5-2.5-2.5H21z"/>
		</g>
	</g>
</g>
<g>
	<g>
		<path fill="#0099FF" d="M13.2,1032.6c-1.7,0-3.1-1.4-3.1-3.1s1.4-3.1,3.1-3.1s3.1,1.4,3.1,3.1S14.9,1032.6,13.2,1032.6z
			 M13.2,1027.3c-1.2,0-2.2,1-2.2,2.2c0,1.2,1,2.2,2.2,2.2s2.2-1,2.2-2.2C15.4,1028.3,14.4,1027.3,13.2,1027.3z"/>
	</g>
	<g>
		<path fill="#0099FF" d="M13.2,1034.4c-2.7,0-4.8-2.2-4.8-4.8s2.2-4.8,4.8-4.8s4.8,2.2,4.8,4.8S15.9,1034.4,13.2,1034.4z
			 M13.2,1025.6c-2.2,0-3.9,1.8-3.9,3.9s1.8,3.9,3.9,3.9s3.9-1.8,3.9-3.9S15.4,1025.6,13.2,1025.6z"/>
	</g>
	<g>
		<path fill="#0099FF" d="M29.3,1042.2H8.6c-1.8,0-3.2-1.4-3.2-3.2v-20.8c0-1.8,1.4-3.2,3.2-3.2h20.7c1.8,0,3.2,1.4,3.2,3.2v20.8
			C32.5,1040.8,31.1,1042.2,29.3,1042.2z M8.6,1015.9c-1.3,0-2.3,1-2.3,2.3v20.8c0,1.3,1,2.3,2.3,2.3h20.7c1.3,0,2.3-1,2.3-2.3
			v-20.8c0-1.3-1-2.3-2.3-2.3H8.6z"/>
	</g>
	<g>
		<path fill="#0099FF" d="M26.7,1047.1c0.5,0,0.9,0.4,0.9,0.9v0.8c0,0.5-0.4,0.9-0.9,0.9H26c-0.5,0-0.9-0.4-0.9-0.9v-0.8
			c0-0.5,0.4-0.9,0.9-0.9H26.7 M26.7,1046.2H26c-1,0-1.8,0.8-1.8,1.8v0.8c0,1,0.8,1.8,1.8,1.8h0.7c1,0,1.8-0.8,1.8-1.8v-0.8
			C28.6,1047,27.7,1046.2,26.7,1046.2L26.7,1046.2z"/>
	</g>
	<g>
		<path fill="#0099FF" d="M11.8,1047.1c0.5,0,0.9,0.4,0.9,0.9v0.8c0,0.5-0.4,0.9-0.9,0.9h-0.7c-0.5,0-0.9-0.4-0.9-0.9v-0.8
			c0-0.5,0.4-0.9,0.9-0.9H11.8 M11.8,1046.2h-0.7c-1,0-1.8,0.8-1.8,1.8v0.8c0,1,0.8,1.8,1.8,1.8h0.7c1,0,1.8-0.8,1.8-1.8v-0.8
			C13.7,1047,12.9,1046.2,11.8,1046.2L11.8,1046.2z"/>
	</g>
	<g>
		<path fill="#0099FF" d="M33.6,1046.7H4.2c-1.8,0-3.2-1.4-3.2-3.2v-29.6c0-1.8,1.4-3.2,3.2-3.2h29.4c1.8,0,3.2,1.4,3.2,3.2v29.6
			C36.9,1045.2,35.4,1046.7,33.6,1046.7z M4.2,1011.6c-1.3,0-2.3,1-2.3,2.3v29.6c0,1.3,1,2.3,2.3,2.3h29.4c1.3,0,2.3-1,2.3-2.3
			v-29.6c0-1.3-1-2.3-2.3-2.3H4.2z"/>
	</g>
</g>
<g>
	<circle fill="#ECF6FF" cx="37" cy="884" r="37"/>
	<g>
		<g>
			<path fill-rule="evenodd" clip-rule="evenodd" fill="#0099FF" d="M36.5,874.3h1v30h-1V874.3z"/>
		</g>
		<g>
			<path fill="#0099FF" d="M50.4,883.3c0.6,0,1,0.4,1,1v19c0,0.6-0.4,1-1,1H23.6c-0.6,0-1-0.4-1-1v-19c0-0.6,0.4-1,1-1H50.4
				 M50.4,882.3H23.6c-1.1,0-2,0.9-2,2v19c0,1.1,0.9,2,2,2h26.8c1.1,0,2-0.9,2-2v-19C52.4,883.2,51.5,882.3,50.4,882.3L50.4,882.3z"
				/>
		</g>
		<g>
			<path fill="#0099FF" d="M35.6,873.8L35.6,873.8c-1.3,0-3.5-1.6-5.3-4c-1.7-2.2-2.7-4.5-2.4-5.8c0.1-0.5,0.4-0.8,0.6-1
				c0.2-0.2,0.5-0.2,0.8-0.2c1.3,0,3.5,1.6,5.3,4c1.7,2.2,2.7,4.5,2.4,5.8c-0.1,0.5-0.4,0.8-0.6,1C36.2,873.7,35.9,873.8,35.6,873.8
				z M29.2,863.8c-0.1,0-0.2,0-0.2,0.1c-0.1,0-0.1,0.1-0.1,0.3c-0.1,0.8,0.5,2.7,2.3,5c1.8,2.4,3.7,3.6,4.5,3.6c0.1,0,0.2,0,0.2-0.1
				c0.1,0,0.1-0.1,0.1-0.3c0.1-0.8-0.6-2.8-2.3-5C31.9,865,30.1,863.8,29.2,863.8z"/>
		</g>
		<g>
			<path fill="#0099FF" d="M38.8,873.8c-0.3,0-0.6-0.1-0.8-0.2c-0.2-0.1-0.5-0.4-0.5-1c-0.2-1.3,0.7-3.6,2.4-5.8
				c1.8-2.4,3.9-4,5.2-4c0.3,0,0.6,0.1,0.8,0.2c0.2,0.1,0.5,0.4,0.5,1c0.2,1.3-0.7,3.6-2.4,5.8C42.2,872.1,40.1,873.8,38.8,873.8z
				 M45,863.8c-0.8,0-2.6,1.3-4.4,3.6c-1.6,2.2-2.3,4.2-2.2,5c0,0.1,0.1,0.2,0.1,0.3c0,0,0.1,0,0.2,0c0.8,0,2.6-1.3,4.4-3.6
				c1.7-2.3,2.3-4.2,2.2-5c0-0.1-0.1-0.2-0.1-0.3C45.1,863.8,45.1,863.8,45,863.8z"/>
		</g>
		<g>
			<path fill="#0099FF" d="M55.5,874.3c0.6,0,1,0.4,1,1v6c0,0.6-0.4,1-1,1h-37c-0.6,0-1-0.4-1-1v-6c0-0.6,0.4-1,1-1H55.5
				 M55.5,873.3h-37c-1.1,0-2,0.9-2,2v6c0,1.1,0.9,2,2,2h37c1.1,0,2-0.9,2-2v-6C57.5,874.2,56.6,873.3,55.5,873.3L55.5,873.3z"/>
		</g>
	</g>
</g>
<g>
	<g>
		<path fill-rule="evenodd" clip-rule="evenodd" fill="#0099FF" d="M19.8,1064.6h1v28.2h-1V1064.6z"/>
	</g>
	<g>
		<path fill="#0099FF" d="M32.9,1073.1c0.5,0,0.9,0.4,0.9,0.9v17.9c0,0.5-0.4,0.9-0.9,0.9H7.7c-0.5,0-0.9-0.4-0.9-0.9V1074
			c0-0.5,0.4-0.9,0.9-0.9H32.9 M32.9,1072.1H7.7c-1,0-1.9,0.8-1.9,1.9v17.9c0,1,0.8,1.9,1.9,1.9h25.2c1,0,1.9-0.8,1.9-1.9V1074
			C34.8,1073,33.9,1072.1,32.9,1072.1L32.9,1072.1z"/>
	</g>
	<g>
		<path fill="#0099FF" d="M19,1064.1L19,1064.1c-1.3,0-3.3-1.5-5-3.8c-1.6-2.1-2.5-4.2-2.3-5.4c0.1-0.5,0.3-0.8,0.5-0.9
			c0.2-0.1,0.5-0.2,0.7-0.2c1.3,0,3.3,1.5,5,3.8c1.6,2.1,2.5,4.2,2.3,5.4c-0.1,0.5-0.3,0.8-0.5,0.9C19.5,1064,19.3,1064.1,19,1064.1
			z M13,1054.7c-0.1,0-0.2,0-0.2,0c-0.1,0-0.1,0.1-0.1,0.3c-0.1,0.8,0.5,2.6,2.1,4.7c1.7,2.2,3.5,3.4,4.3,3.4c0.1,0,0.2,0,0.2,0
			c0.1,0,0.1-0.1,0.1-0.3c0.1-0.8-0.6-2.7-2.1-4.7C15.5,1055.9,13.8,1054.7,13,1054.7z"/>
	</g>
	<g>
		<path fill="#0099FF" d="M22,1064.1c-0.3,0-0.5-0.1-0.7-0.2c-0.2-0.1-0.4-0.4-0.5-0.9c-0.2-1.2,0.7-3.4,2.2-5.5
			c1.7-2.3,3.6-3.8,4.9-3.8c0.3,0,0.5,0.1,0.7,0.2c0.2,0.1,0.4,0.4,0.5,0.9c0.2,1.2-0.7,3.4-2.2,5.4
			C25.2,1062.6,23.2,1064.1,22,1064.1z M27.8,1054.7c-0.8,0-2.5,1.2-4.1,3.4c-1.5,2.1-2.2,3.9-2.1,4.7c0,0.1,0.1,0.2,0.1,0.3
			c0,0,0.1,0,0.2,0c0.8,0,2.5-1.2,4.1-3.4c1.6-2.2,2.2-4,2.1-4.7c0-0.1-0.1-0.2-0.1-0.3C28,1054.7,27.9,1054.7,27.8,1054.7z"/>
	</g>
	<g>
		<path fill="#0099FF" d="M37.7,1064.6c0.5,0,0.9,0.4,0.9,0.9v5.6c0,0.5-0.4,0.9-0.9,0.9H2.9c-0.5,0-0.9-0.4-0.9-0.9v-5.6
			c0-0.5,0.4-0.9,0.9-0.9H37.7 M37.7,1063.6H2.9c-1,0-1.9,0.8-1.9,1.9v5.6c0,1,0.8,1.9,1.9,1.9h34.8c1,0,1.9-0.8,1.9-1.9v-5.6
			C39.6,1064.5,38.7,1063.6,37.7,1063.6L37.7,1063.6z"/>
	</g>
</g>
<g>
	<circle fill="#ECF6FF" cx="37" cy="730" r="37"/>
	<g>
		<g>
			<path fill="#0099FF" d="M27.4,748.5l-9.5-5.5l20.5-35.5l9.5,5.5L27.4,748.5z M19.3,742.7l7.8,4.5l19.5-33.8l-7.8-4.5L19.3,742.7z
				"/>
		</g>
		<g>
			<g>
				
					<rect x="42" y="715.2" transform="matrix(0.8661 0.4999 -0.4999 0.8661 363.6131 74.0948)" fill="#0099FF" width="3" height="1"/>
			</g>
			<g>
				
					<rect x="40" y="718.6" transform="matrix(0.8661 0.4999 -0.4999 0.8661 365.0769 75.5586)" fill="#0099FF" width="3" height="1"/>
			</g>
			<g>
				
					<rect x="38" y="722.1" transform="matrix(0.8661 0.4999 -0.4999 0.8661 366.5412 77.0225)" fill="#0099FF" width="3" height="1"/>
			</g>
			<g>
				
					<rect x="36" y="725.6" transform="matrix(0.8661 0.4999 -0.4999 0.8661 368.005 78.4862)" fill="#0099FF" width="3" height="1"/>
			</g>
			<g>
				<rect x="34" y="729" transform="matrix(0.866 0.5 -0.5 0.866 369.5216 79.9773)" fill="#0099FF" width="3" height="1"/>
			</g>
			<g>
				<rect x="32" y="732.5" transform="matrix(0.866 0.5 -0.5 0.866 370.9856 81.4413)" fill="#0099FF" width="3" height="1"/>
			</g>
			<g>
				<rect x="30" y="736" transform="matrix(0.866 0.5 -0.5 0.866 372.45 82.9054)" fill="#0099FF" width="3" height="1"/>
			</g>
			<g>
				<rect x="28" y="739.4" transform="matrix(0.866 0.5 -0.5 0.866 373.914 84.3695)" fill="#0099FF" width="3" height="1"/>
			</g>
			<g>
				<rect x="26" y="742.9" transform="matrix(0.866 0.5 -0.5 0.866 375.3779 85.8335)" fill="#0099FF" width="3" height="1"/>
			</g>
		</g>
		<g>
			<path fill="#0099FF" d="M38.6,749.2l-5.2-3l14.5-25.1l5.2,3L38.6,749.2z M34.8,745.8l3.5,2l13.5-23.4l-3.5-2L34.8,745.8z"/>
		</g>
		<g>
			<path fill="#0099FF" d="M53.6,723.2l-5.2-3l2.5-4.3l5.2,3L53.6,723.2z M49.8,719.9l3.5,2l1.5-2.6l-3.5-2L49.8,719.9z"/>
		</g>
		<g>
			<path fill="#0099FF" d="M33.2,752.5l-0.8-5.7l6.1,3.5L33.2,752.5z M33.7,748.7l0.3,2.4l2.2-0.9L33.7,748.7z"/>
		</g>
	</g>
</g>
<g>
	<g>
		<path fill="#0099FF" d="M9.5,1004L1,999.1l18.2-31.6l8.5,4.9L9.5,1004z M2.2,998.8l6.9,4l17.4-30.1l-6.9-4L2.2,998.8z"/>
	</g>
	<g>
		<g>
			
				<rect x="22.5" y="974.3" transform="matrix(0.8661 0.4999 -0.4999 0.8661 490.5024 118.6569)" fill="#0099FF" width="2.7" height="0.9"/>
		</g>
		<g>
			
				<rect x="20.7" y="977.4" transform="matrix(0.8661 0.4999 -0.4999 0.8661 491.8052 119.9596)" fill="#0099FF" width="2.7" height="0.9"/>
		</g>
		<g>
			
				<rect x="18.9" y="980.5" transform="matrix(0.8661 0.4999 -0.4999 0.8661 493.1083 121.2624)" fill="#0099FF" width="2.7" height="0.9"/>
		</g>
		<g>
			
				<rect x="17.1" y="983.6" transform="matrix(0.8661 0.4999 -0.4999 0.8661 494.4111 122.5651)" fill="#0099FF" width="2.7" height="0.9"/>
		</g>
		<g>
			<rect x="15.3" y="986.7" transform="matrix(0.866 0.5 -0.5 0.866 495.784 123.9069)" fill="#0099FF" width="2.7" height="0.9"/>
		</g>
		<g>
			<rect x="13.6" y="989.8" transform="matrix(0.866 0.5 -0.5 0.866 497.0869 125.2098)" fill="#0099FF" width="2.7" height="0.9"/>
		</g>
		<g>
			<rect x="11.8" y="992.8" transform="matrix(0.866 0.5 -0.5 0.866 498.3902 126.5129)" fill="#0099FF" width="2.7" height="0.9"/>
		</g>
		<g>
			<rect x="10" y="995.9" transform="matrix(0.866 0.5 -0.5 0.866 499.6931 127.8158)" fill="#0099FF" width="2.7" height="0.9"/>
		</g>
		<g>
			<rect x="8.2" y="999" transform="matrix(0.866 0.5 -0.5 0.866 500.996 129.1188)" fill="#0099FF" width="2.7" height="0.9"/>
		</g>
	</g>
	<g>
		<path fill="#0099FF" d="M19.4,1004.6l-4.6-2.7l12.9-22.4l4.6,2.7L19.4,1004.6z M16,1001.6l3.1,1.8l12-20.8l-3.1-1.8L16,1001.6z"/>
	</g>
	<g>
		<path fill="#0099FF" d="M32.8,981.5l-4.6-2.7l2.2-3.9l4.6,2.7L32.8,981.5z M29.4,978.5l3.1,1.8l1.3-2.3l-3.1-1.8L29.4,978.5z"/>
	</g>
	<g>
		<path fill="#0099FF" d="M14.6,1007.5l-0.7-5.1l5.4,3.1L14.6,1007.5z M15.1,1004.2l0.3,2.1l2-0.8L15.1,1004.2z"/>
	</g>
</g>
</svg>
