<?xml version="1.0" encoding="utf-8"?>
<!-- Generator: Adobe Illustrator 17.0.0, SVG Export Plug-In . SVG Version: 6.00 Build 0)  -->
<!DOCTYPE svg PUBLIC "-//W3C//DTD SVG 1.1//EN" "http://www.w3.org/Graphics/SVG/1.1/DTD/svg11.dtd">
<svg version="1.1" id="图层_1" xmlns="http://www.w3.org/2000/svg" xmlns:xlink="http://www.w3.org/1999/xlink" x="0px" y="0px"
	 width="100px" height="708px" viewBox="0 0 100 708" enable-background="new 0 0 100 708" xml:space="preserve">
<circle fill="#3598FE" cx="50" cy="153" r="50"/>
<g>
	<path fill="#FFFFFF" d="M48.6,160.4c-7,0-12.7-5.7-12.7-12.7c0-7,5.7-12.7,12.7-12.7c7,0,12.7,5.7,12.7,12.7c0,2.6-0.8,5-2.1,7
		l-3.5-3.2c0.6-1.1,0.9-2.4,0.9-3.8c0-4.4-3.6-8-8-8c-4.4,0-8,3.6-8,8c0,4.3,3.4,7.9,7.8,8l0.5,4.7
		C48.7,160.4,48.7,160.4,48.6,160.4z"/>
	<path fill="#FFFFFF" d="M64,161.9c-0.1,0.2-0.3,0.3-0.5,0.3l-4.8,0l3.3,6.7c0.1,0.2,0,0.5-0.2,0.7l-2.8,1.4c-0.2,0.1-0.5,0-0.7-0.2
		l-3.3-6.7l-2.9,3.9c-0.1,0.2-0.3,0.2-0.5,0.2c-0.2-0.1-0.3-0.2-0.4-0.4l-1.7-16c-0.3,0.1-0.6,0.1-0.9,0.1c-2.3,0-4.1-1.8-4.1-4.1
		c0-2.3,1.8-4.1,4.1-4.1c2.3,0,4.1,1.8,4.1,4.1c0,0.9-0.3,1.8-0.8,2.5l12,11.2C64.1,161.5,64.1,161.7,64,161.9z"/>
</g>
<g>
	<g>
		<path fill="#FFFFFF" d="M32,372.5c-17.4,0-31.5-14.1-31.5-31.5s14.1-31.5,31.5-31.5s31.5,14.1,31.5,31.5S49.4,372.5,32,372.5z"/>
		<path fill="#3598FE" d="M32,310c17.1,0,31,13.9,31,31s-13.9,31-31,31S1,358.1,1,341S14.9,310,32,310 M32,309
			c-17.7,0-32,14.3-32,32c0,17.7,14.3,32,32,32s32-14.3,32-32C64,323.3,49.7,309,32,309L32,309z"/>
	</g>
	<ellipse fill="none" stroke="#3598FE" stroke-linecap="square" stroke-miterlimit="10" cx="38.5" cy="332.1" rx="6.5" ry="4.1"/>
	<path fill="none" stroke="#3598FE" stroke-linecap="square" stroke-miterlimit="10" d="M45,335.7c0,2.3-2.9,4.1-6.5,4.1
		c-3.6,0-6.5-1.9-6.5-4.1"/>
	<path fill="none" stroke="#3598FE" stroke-linecap="square" stroke-miterlimit="10" d="M45,339.2c0,2.3-2.9,4.1-6.5,4.1
		c-3.6,0-6.5-1.9-6.5-4.1"/>
	<path fill="none" stroke="#3598FE" stroke-linecap="square" stroke-miterlimit="10" d="M45,342.8c0,2.3-2.9,4.1-6.5,4.1
		c-3.6,0-6.5-1.9-6.5-4.1"/>
	<path fill="none" stroke="#3598FE" stroke-linecap="square" stroke-miterlimit="10" d="M45,346.3c0,2.3-2.9,4.1-6.5,4.1
		c-3.6,0-6.5-1.9-6.5-4.1"/>
	<path fill="none" stroke="#3598FE" stroke-linecap="square" stroke-miterlimit="10" d="M45,349.9c0,2.3-2.9,4.1-6.5,4.1
		c-3.6,0-6.5-1.9-6.5-4.1"/>
	<ellipse fill="none" stroke="#3598FE" stroke-linecap="square" stroke-miterlimit="10" cx="25.5" cy="338.9" rx="6.5" ry="4.1"/>
	<path fill="none" stroke="#3598FE" stroke-linecap="square" stroke-miterlimit="10" d="M32,342.5c0,2.3-2.9,4.1-6.5,4.1
		c-3.6,0-6.5-1.9-6.5-4.1"/>
	<path fill="none" stroke="#3598FE" stroke-linecap="square" stroke-miterlimit="10" d="M32,346c0,2.3-2.9,4.1-6.5,4.1
		c-3.6,0-6.5-1.9-6.5-4.1"/>
	<path fill="none" stroke="#3598FE" stroke-linecap="square" stroke-miterlimit="10" d="M32,349.6c0,2.3-2.9,4.1-6.5,4.1
		c-3.6,0-6.5-1.9-6.5-4.1"/>
	<line fill="none" stroke="#3598FE" stroke-linecap="square" stroke-miterlimit="10" x1="32" y1="332.2" x2="32" y2="350.3"/>
	<line fill="none" stroke="#3598FE" stroke-linecap="square" stroke-miterlimit="10" x1="45" y1="332.2" x2="45" y2="349.8"/>
	<line fill="none" stroke="#3598FE" stroke-linecap="square" stroke-miterlimit="10" x1="19" y1="339.1" x2="19" y2="349.8"/>
</g>
<g>
	<g>
		<path fill="#FFFFFF" d="M32,439.5c-17.4,0-31.5-14.1-31.5-31.5s14.1-31.5,31.5-31.5s31.5,14.1,31.5,31.5S49.4,439.5,32,439.5z"/>
		<path fill="#3598FE" d="M32,377c17.1,0,31,13.9,31,31c0,17.1-13.9,31-31,31S1,425.1,1,408C1,390.9,14.9,377,32,377 M32,376
			c-17.7,0-32,14.3-32,32c0,17.7,14.3,32,32,32s32-14.3,32-32C64,390.3,49.7,376,32,376L32,376z"/>
	</g>
	<g>
		<path fill="none" stroke="#3598FE" stroke-miterlimit="10" d="M44,418.3H20c-0.5,0-1-0.5-1-1v-20c0-0.5,0.5-1,1-1h24
			c0.5,0,1,0.5,1,1v20C45,417.9,44.5,418.3,44,418.3z"/>
		<line fill="none" stroke="#3598FE" stroke-miterlimit="10" x1="32" y1="396.7" x2="32" y2="419.7"/>
		<line fill="none" stroke="#3598FE" stroke-miterlimit="10" x1="21.7" y1="402.6" x2="29.7" y2="402.6"/>
		<line fill="none" stroke="#3598FE" stroke-miterlimit="10" x1="21.7" y1="407.3" x2="26.7" y2="407.3"/>
		<line fill="none" stroke="#3598FE" stroke-miterlimit="10" x1="35.4" y1="404.8" x2="41.4" y2="404.8"/>
	</g>
</g>
<g>
	<g>
		<path fill="#FFFFFF" d="M32,506.5c-17.4,0-31.5-14.1-31.5-31.5s14.1-31.5,31.5-31.5s31.5,14.1,31.5,31.5S49.4,506.5,32,506.5z"/>
		<path fill="#3598FE" d="M32,444c17.1,0,31,13.9,31,31s-13.9,31-31,31S1,492.1,1,475S14.9,444,32,444 M32,443
			c-17.7,0-32,14.3-32,32c0,17.7,14.3,32,32,32s32-14.3,32-32C64,457.3,49.7,443,32,443L32,443z"/>
	</g>
	<g>
		<path fill="none" stroke="#3598FE" stroke-linecap="round" stroke-linejoin="round" stroke-miterlimit="10" d="M45,481.2
			c0,1.3-1,2.3-2.3,2.3H21.3c-1.3,0-2.3-1-2.3-2.3v-12.5c0-1.3,1-2.3,2.3-2.3h21.5c1.3,0,2.3,1,2.3,2.3V481.2z"/>
		
			<rect x="19" y="477.2" fill="none" stroke="#3598FE" stroke-linecap="round" stroke-linejoin="round" stroke-miterlimit="10" width="26" height="3.6"/>
		
			<line fill="none" stroke="#3598FE" stroke-linecap="round" stroke-linejoin="round" stroke-miterlimit="10" x1="22.1" y1="470.1" x2="25.7" y2="470.1"/>
		
			<line fill="none" stroke="#3598FE" stroke-linecap="round" stroke-linejoin="round" stroke-miterlimit="10" x1="22.1" y1="472.8" x2="30.2" y2="472.8"/>
	</g>
</g>
<g>
	<g>
		<path fill="#FFFFFF" d="M32,640.5c-17.4,0-31.5-14.1-31.5-31.5s14.1-31.5,31.5-31.5s31.5,14.1,31.5,31.5S49.4,640.5,32,640.5z"/>
		<path fill="#3598FE" d="M32,578c17.1,0,31,13.9,31,31s-13.9,31-31,31S1,626.1,1,609S14.9,578,32,578 M32,577
			c-17.7,0-32,14.3-32,32s14.3,32,32,32s32-14.3,32-32S49.7,577,32,577L32,577z"/>
	</g>
	<g>
		
			<circle fill="none" stroke="#3598FE" stroke-linecap="round" stroke-linejoin="round" stroke-miterlimit="10" cx="32" cy="609" r="13"/>
		
			<line fill="none" stroke="#3598FE" stroke-linecap="round" stroke-linejoin="round" stroke-miterlimit="10" x1="32" y1="609" x2="24.1" y2="598.8"/>
		
			<line fill="none" stroke="#3598FE" stroke-linecap="round" stroke-linejoin="round" stroke-miterlimit="10" x1="32" y1="609" x2="43.3" y2="603.3"/>
		
			<line fill="none" stroke="#3598FE" stroke-linecap="round" stroke-linejoin="round" stroke-miterlimit="10" x1="32" y1="609" x2="43.3" y2="614.7"/>
	</g>
</g>
<g>
	<g>
		<path fill="#FFFFFF" d="M32,573.5c-17.4,0-31.5-14.1-31.5-31.5s14.1-31.5,31.5-31.5s31.5,14.1,31.5,31.5S49.4,573.5,32,573.5z"/>
		<path fill="#3598FE" d="M32,511c17.1,0,31,13.9,31,31s-13.9,31-31,31S1,559.1,1,542S14.9,511,32,511 M32,510
			c-17.7,0-32,14.3-32,32s14.3,32,32,32s32-14.3,32-32S49.7,510,32,510L32,510z"/>
	</g>
	<g>
		
			<line fill="none" stroke="#3598FE" stroke-linecap="round" stroke-linejoin="round" stroke-miterlimit="10" x1="31.6" y1="529.6" x2="31.6" y2="544.8"/>
		<g>
			<polyline fill="none" stroke="#3598FE" stroke-linecap="round" stroke-linejoin="round" stroke-miterlimit="10" points="
				26.4,540.3 24.1,529 21.7,540.3 			"/>
			<path fill="none" stroke="#3598FE" stroke-linecap="round" stroke-linejoin="round" stroke-miterlimit="10" d="M27.7,540.6
				c0,1.8-1.6,3.6-3.6,3.6s-3.6-1.9-3.6-3.6H27.7z"/>
		</g>
		<g>
			<polyline fill="none" stroke="#3598FE" stroke-linecap="round" stroke-linejoin="round" stroke-miterlimit="10" points="
				42.3,540.2 39.9,529 37.6,540.2 			"/>
			<path fill="none" stroke="#3598FE" stroke-linecap="round" stroke-linejoin="round" stroke-miterlimit="10" d="M43.6,540.6
				c0,1.8-1.6,3.6-3.6,3.6s-3.6-1.9-3.6-3.6H43.6z"/>
		</g>
		
			<line fill="none" stroke="#3598FE" stroke-linecap="round" stroke-linejoin="round" stroke-miterlimit="10" x1="20.5" y1="529" x2="42.7" y2="529"/>
		
			<line fill="none" stroke="#3598FE" stroke-linecap="round" stroke-linejoin="round" stroke-miterlimit="10" x1="22.3" y1="555" x2="41" y2="555"/>
		
			<circle fill="none" stroke="#3598FE" stroke-linecap="round" stroke-linejoin="round" stroke-miterlimit="10" cx="31.6" cy="547.1" r="2.2"/>
		
			<line fill="none" stroke="#3598FE" stroke-linecap="round" stroke-linejoin="round" stroke-miterlimit="10" x1="31.6" y1="551.9" x2="31.6" y2="554.6"/>
		<line fill="none" stroke="#3598FE" stroke-linejoin="round" stroke-miterlimit="10" x1="31.6" y1="549.2" x2="31.6" y2="551.9"/>
	</g>
</g>
<g>
	<g>
		<path fill="#FFFFFF" d="M32,707.5c-17.4,0-31.5-14.1-31.5-31.5s14.1-31.5,31.5-31.5s31.5,14.1,31.5,31.5S49.4,707.5,32,707.5z"/>
		<path fill="#3598FE" d="M32,645c17.1,0,31,13.9,31,31s-13.9,31-31,31S1,693.1,1,676S14.9,645,32,645 M32,644
			c-17.7,0-32,14.3-32,32s14.3,32,32,32s32-14.3,32-32S49.7,644,32,644L32,644z"/>
	</g>
	<g>
		<rect x="24" y="671.4" fill="none" stroke="#3598FE" stroke-miterlimit="10" width="21" height="14.2"/>
		<line fill="none" stroke="#3598FE" stroke-miterlimit="10" x1="19" y1="666.9" x2="39.6" y2="666.9"/>
		<line fill="none" stroke="#3598FE" stroke-miterlimit="10" x1="39.6" y1="666.4" x2="39.6" y2="671.4"/>
		<line fill="none" stroke="#3598FE" stroke-miterlimit="10" x1="19" y1="666.4" x2="19" y2="683.3"/>
		<line fill="none" stroke="#3598FE" stroke-miterlimit="10" x1="19" y1="682.8" x2="24" y2="682.8"/>
		<text transform="matrix(1 0 0 1 31.5417 682.7982)" fill="#3598FE" font-family="'MicrosoftYaHei'" font-size="10">¥</text>
	</g>
</g>
<circle fill="#3598FE" cx="50" cy="50" r="50"/>
<path fill="#FFFFFF" d="M68,48.9h-2.4c-0.6-7.7-6.8-13.8-14.5-14.3V32h-2.2v2.6c-7.7,0.5-13.9,6.7-14.5,14.3H32v2.2h2.3
	c0.4,7.9,6.7,14.2,14.6,14.7V68h2.2v-2.2c7.8-0.5,14.1-6.9,14.6-14.7H68V48.9z M61.4,48.9h-4.3c-0.5-3-2.9-5.3-6-5.8v-4.3
	C56.5,39.3,60.8,43.6,61.4,48.9z M48.9,38.8v4.3c-3,0.5-5.4,2.8-6,5.8h-4.3C39.2,43.6,43.5,39.3,48.9,38.8z M38.6,51.1h4.3
	c0.4,3.2,2.9,5.7,6,6.2v4.3C43.4,61,39,56.6,38.6,51.1z M51.1,61.6v-4.3c3.2-0.5,5.6-3,6-6.2h4.3C61,56.6,56.6,61.1,51.1,61.6z"/>
<circle fill="#3598FE" cx="50" cy="256" r="50"/>
<g>
	<path fill="#FFFFFF" d="M60.1,253c-3,0-5.5,2.5-5.5,5.5c0,3,2.5,5.5,5.5,5.5c3,0,5.5-2.5,5.5-5.5C65.6,255.5,63.1,253,60.1,253z
		 M60.1,262.5c-2.2,0-4-1.8-4-4c0-2.2,1.8-4,4-4c2.2,0,4,1.8,4,4C64.1,260.7,62.3,262.5,60.1,262.5z"/>
	<path fill="#FFFFFF" d="M60.1,256c-1.4,0-2.5,1.1-2.5,2.5c0,1.4,1.1,2.5,2.5,2.5s2.5-1.1,2.5-2.5C62.6,257.1,61.5,256,60.1,256z"/>
	<path fill="#FFFFFF" d="M41.1,253.7c0-0.3,0-0.7-0.1-1l6.3-4.4c0.8,0.6,1.7,0.9,2.7,0.9c2.5,0,4.5-2,4.5-4.5c0-2.5-2-4.5-4.5-4.5
		c-2.5,0-4.5,2-4.5,4.5c0,0.9,0.3,1.7,0.7,2.4l-5.8,4.1c-0.8-1.2-2.2-2-3.8-2c-2.5,0-4.5,2-4.5,4.5c0,2.5,2,4.5,4.5,4.5
		C39.1,258.3,41.1,256.2,41.1,253.7z"/>
	<path fill="#FFFFFF" d="M60.1,250.6c-1.5,0-2.9,0.4-4.1,1.1l-2.6-3.7c-0.4,0.4-0.9,0.7-1.4,1l2.6,3.7c-1.5,1.4-2.5,3.5-2.5,5.7
		c0,1.4,0.4,2.7,1,3.9l-3.3,1.8c0.4,0.4,0.6,0.9,0.8,1.4l3.4-1.9c1.4,1.6,3.6,2.7,5.9,2.7c4.4,0,7.9-3.5,7.9-7.9
		C68,254.2,64.5,250.6,60.1,250.6z M60.1,265.5c-3.8,0-7-3.1-7-7c0-3.8,3.1-7,7-7c3.8,0,7,3.1,7,7C67.1,262.4,63.9,265.5,60.1,265.5
		z"/>
	<path fill="#FFFFFF" d="M46.1,262.8c-0.6,0-1.1,0.1-1.7,0.3l-4.2-6.2c-0.4,0.4-0.8,0.8-1.3,1.1l4.1,6c-0.9,0.8-1.5,2-1.5,3.3
		c0,2.5,2,4.5,4.5,4.5c2.5,0,4.5-2,4.5-4.5C50.7,264.9,48.7,262.8,46.1,262.8z"/>
</g>
</svg>
