<?xml version="1.0" encoding="utf-8"?>
<!-- Generator: Adobe Illustrator 17.0.0, SVG Export Plug-In . SVG Version: 6.00 Build 0)  -->
<!DOCTYPE svg PUBLIC "-//W3C//DTD SVG 1.1//EN" "http://www.w3.org/Graphics/SVG/1.1/DTD/svg11.dtd">
<svg version="1.1" id="图层_1" xmlns="http://www.w3.org/2000/svg" xmlns:xlink="http://www.w3.org/1999/xlink" x="0px" y="0px"
	 width="988.25px" height="590.25px" viewBox="0 0 988.25 590.25" enable-background="new 0 0 988.25 590.25" xml:space="preserve">
<g>
	<g>
		<path fill-rule="evenodd" clip-rule="evenodd" fill="none" stroke="#EEEEEE" stroke-miterlimit="10" d="M5,1h978
			c2.209,0,4,1.791,4,4v580c0,2.209-1.791,4-4,4H5c-2.209,0-4-1.791-4-4V5C1,2.791,2.791,1,5,1z"/>
		<path fill-rule="evenodd" clip-rule="evenodd" fill="#EDF8FF" d="M58,95h60v400H58V95z"/>
		<path fill-rule="evenodd" clip-rule="evenodd" fill="#EDF8FF" d="M740,441.062h150v60H740V441.062z"/>
		<path fill-rule="evenodd" clip-rule="evenodd" fill="#EDF8FF" d="M571,441.062h150v60H571V441.062z"/>
		<path fill-rule="evenodd" clip-rule="evenodd" fill="#EDF8FF" d="M739,88.062h150v60H739V88.062z"/>
		<path fill-rule="evenodd" clip-rule="evenodd" fill="#EDF8FF" d="M571,88.062h150v60H571V88.062z"/>
		<path fill-rule="evenodd" clip-rule="evenodd" fill="#EDF8FF" d="M570,170h320v250H570V170z"/>
		<path fill-rule="evenodd" clip-rule="evenodd" fill="none" stroke="#EAEAEA" stroke-miterlimit="10" d="M533,71h394v448H533V71z"
			/>
	</g>
	<g>
		<circle fill-rule="evenodd" clip-rule="evenodd" fill="#E5F5FF" cx="383" cy="414" r="55"/>
		<circle fill-rule="evenodd" clip-rule="evenodd" fill="#CEECFF" cx="383" cy="414" r="50"/>
		<circle fill-rule="evenodd" clip-rule="evenodd" fill="#E5F5FF" cx="383" cy="184" r="55"/>
		<circle fill-rule="evenodd" clip-rule="evenodd" fill="#CEECFF" cx="383" cy="184" r="50"/>
	</g>
	<path fill-rule="evenodd" clip-rule="evenodd" fill="none" stroke="#666666" stroke-miterlimit="10" d="M310,173.907l7.011,6.012
		L310,185.931"/>
	<path fill-rule="evenodd" clip-rule="evenodd" fill="none" stroke="#666666" stroke-miterlimit="10" d="M310,404.224l7.011,6.012
		L310,416.248"/>
	<path fill-rule="evenodd" clip-rule="evenodd" fill="none" stroke="#666666" stroke-miterlimit="10" d="M511.456,173.574
		l7.01,6.012l-7.01,6.012"/>
	<path fill-rule="evenodd" clip-rule="evenodd" fill="none" stroke="#666666" stroke-miterlimit="10" d="M511.456,404.224
		l7.01,6.012l-7.01,6.012"/>
	<path fill-rule="evenodd" clip-rule="evenodd" fill="none" stroke="#666666" stroke-miterlimit="10" d="M460,173.586l-7,6l7,6"/>
	<path fill-rule="evenodd" clip-rule="evenodd" fill="none" stroke="#666666" stroke-miterlimit="10" d="M460,404l-7,6l7,6"/>
	<path fill-rule="evenodd" clip-rule="evenodd" fill="none" stroke="#666666" stroke-miterlimit="10" d="M155,173.919l-7,6l7,6"/>
	<path fill-rule="evenodd" clip-rule="evenodd" fill="none" stroke="#666666" stroke-miterlimit="10" d="M155,404l-7,6l7,6"/>
	<path fill="#0099FF" d="M365.933,398.522v1.04h5.081v2.46h-3.501v5.32h8.062v-5.32h-3.481v-2.46h5.041v-1.04h-5.041v-2.34h-1.08
		v2.34H365.933z M374.555,406.382h-6.021v-3.42h6.021V406.382z M379.476,394.122h-15.863v17.259h1.1v-1h13.683v1h1.08V394.122z
		 M364.713,409.362v-14.199h13.683v14.199H364.713z"/>
	<path fill="#0099FF" d="M387.739,399.182v1.04h5.361v9.2c-0.32-0.08-0.62-0.16-0.9-0.24c-1.48-0.48-2.721-1.64-3.681-3.5
		c0.36-1.06,0.68-2.22,0.94-3.48l-1.04-0.2c-0.68,3.56-2,6.4-3.961,8.5l0.7,0.86c1.18-1.24,2.161-2.76,2.941-4.58
		c0.82,1.42,1.92,2.46,3.301,3.12c1.68,0.72,4.501,1.08,8.422,1.08h2.481l0.22-1.06c-1.1,0.04-2.16,0.08-3.181,0.08
		c-2.04-0.02-3.761-0.14-5.161-0.36v-4.48h6.121v-1.04h-6.121v-3.9h5.201v-1.04H387.739z M401.582,395.262h-7.242
		c-0.32-0.88-0.66-1.64-1-2.32l-1.14,0.2c0.36,0.62,0.72,1.32,1.04,2.12h-7.742v4.16h1.08v-3.12h13.923v3.04h1.08V395.262z"/>
	<path fill="#0099FF" d="M364.213,417.162v2.36h-1.38v1.02h1.38v8.84h-1.58v1h9.362v-1h-1.44v-8.84h1.34v-1.02h-1.34v-2.32h-1.04
		v2.32h-4.261v-2.36H364.213z M365.253,429.382v-2.3h4.261v2.3H365.253z M369.514,420.542v2.32h-4.261v-2.32H369.514z
		 M365.253,426.102v-2.26h4.261v2.26H365.253z M368.774,431.142l-0.84,0.54c0.92,1.22,1.66,2.34,2.2,3.36l0.9-0.62
		C370.514,433.482,369.774,432.382,368.774,431.142z M365.233,431.082c-0.76,1.4-1.66,2.6-2.701,3.6l0.86,0.6
		c1.04-1.06,1.96-2.32,2.741-3.76L365.233,431.082z M374.435,423.822h4.141v3.96h-4.161c0-0.22,0.02-0.44,0.02-0.68V423.822z
		 M378.576,422.822h-4.141v-3.84h4.141V422.822z M374.335,428.782h4.241v4.48c0,0.6-0.3,0.92-0.88,0.92c-0.64,0-1.32-0.02-2.08-0.04
		l0.28,1.04h2.16c1.08,0,1.62-0.52,1.62-1.54v-15.679h-6.341v9.2c-0.04,3-0.78,5.5-2.26,7.46l0.84,0.74
		C373.275,433.622,374.075,431.422,374.335,428.782z"/>
	<path fill="#0099FF" d="M385.358,418.042v17.339h1.08v-16.319h3.701c-0.52,1.72-1.26,3.66-2.22,5.8c1.42,1.7,2.141,3.24,2.141,4.62
		c0,0.48-0.16,0.82-0.48,1.02c-0.3,0.2-0.9,0.32-1.8,0.36c-0.16,0-0.36-0.02-0.58-0.06l0.34,1.12c1.4-0.02,2.38-0.26,2.941-0.7
		c0.42-0.36,0.64-0.94,0.66-1.74c-0.1-1.48-0.8-3.08-2.101-4.78c0.84-2,1.58-3.92,2.221-5.8v-0.86H385.358z M393.44,422.742h6.361
		v2.6h-6.361V422.742z M399.801,421.762h-6.361v-2.66h6.361V421.762z M396.08,426.342c0.72,3.78,2.741,6.74,6.101,8.86l0.6-0.94
		c-1.6-0.96-2.901-2.12-3.861-3.52c1.22-0.6,2.301-1.48,3.241-2.64l-0.7-0.7c-0.96,1.16-1.98,2-3.061,2.54
		c-0.62-1.08-1.06-2.28-1.32-3.6h3.801v-8.28h-8.522v15.619c0,0.2-0.12,0.32-0.36,0.4l0.24,0.94c2.16-0.58,3.941-1.18,5.341-1.82
		l-0.26-1.04c-1.28,0.62-2.56,1.12-3.881,1.48v-7.3H396.08z"/>
	<path fill="#0099FF" d="M363.353,164.022v17.219h1.02v-16.239h2.741c-0.32,1.64-0.76,3.44-1.36,5.42c0.94,1.58,1.42,3.02,1.42,4.3
		c0,0.48-0.1,0.82-0.26,1.04c-0.2,0.2-0.52,0.3-0.92,0.34c-0.24,0-0.56-0.02-0.92-0.06l0.32,1.02c1.1,0,1.86-0.22,2.3-0.66
		c0.3-0.32,0.46-0.88,0.46-1.68c-0.04-1.26-0.5-2.74-1.4-4.46c0.56-1.88,1-3.68,1.36-5.4v-0.84H363.353z M369.494,164.322l-0.8,0.5
		c0.82,1.18,1.46,2.26,1.94,3.22l0.8-0.56C370.994,166.582,370.334,165.522,369.494,164.322z M376.855,180.022
		c-0.72,0-1.44-0.02-2.141-0.04c-0.76-0.06-1.38-0.18-1.88-0.38c-0.6-0.3-1.08-0.72-1.48-1.26c-0.1-0.12-0.2-0.22-0.3-0.3v-8.1
		h-2.861v1h1.84v7c-0.7,0.28-1.56,1.12-2.601,2.54l0.64,0.8c1.16-1.6,1.96-2.4,2.401-2.4c0.2,0,0.4,0.14,0.64,0.46
		c0.44,0.58,1,1,1.64,1.26c0.64,0.24,1.4,0.38,2.281,0.4c0.6,0.02,1.16,0.04,1.72,0.04h3.581l0.28-1.06
		C379.416,180.002,378.176,180.022,376.855,180.022z M372.034,165.162v1h2.601c-0.68,2.34-1.72,4.26-3.101,5.74l0.6,0.74
		c0.6-0.58,1.14-1.26,1.64-2.06v7.96h0.96v-3.44h4.001v1.84c0,0.42-0.2,0.64-0.58,0.64c-0.46,0-0.96-0.02-1.48-0.04l0.26,0.94h1.52
		c0.82-0.02,1.24-0.44,1.24-1.24v-8.78h-4.841c0.3-0.7,0.58-1.46,0.82-2.3h4.861v-1h-4.601c0.14-0.6,0.28-1.24,0.4-1.88l-1.06-0.14
		c-0.12,0.68-0.24,1.36-0.38,2.02H372.034z M374.735,172.282h4.001v1.9h-4.001V172.282z M378.736,171.382h-4.001v-2.04h4.001
		V171.382z"/>
	<path fill="#0099FF" d="M385.058,165.322v1.06h5.161c-1.32,2.96-3.261,5.54-5.821,7.78l0.66,0.88c0.92-0.8,1.76-1.66,2.54-2.56
		v8.94h1.08v-10.28c1.08-1.46,2-3.04,2.72-4.76h10.822v-1.06h-10.402c0.24-0.68,0.48-1.38,0.68-2.12l-1.1-0.12
		c-0.2,0.76-0.46,1.5-0.74,2.24H385.058z M390.379,174.542v1.06h5.941v3.82c0,0.6-0.32,0.92-0.92,0.92c-0.84,0-1.64-0.02-2.361-0.04
		l0.28,1.02h2.501c1.04,0,1.58-0.52,1.58-1.56v-4.16h5.141v-1.06h-5.141v-1.56c1.4-0.9,2.661-1.86,3.761-2.88v-1.02h-9.222v1.02
		h7.822c-1.08,0.94-2.241,1.74-3.441,2.42v2.02H390.379z"/>
	<path fill="#0099FF" d="M363.353,188.022v17.219h1.02v-16.239h2.741c-0.32,1.64-0.76,3.44-1.36,5.42c0.94,1.58,1.42,3.02,1.42,4.3
		c0,0.48-0.1,0.82-0.26,1.04c-0.2,0.2-0.52,0.3-0.92,0.34c-0.24,0-0.56-0.02-0.92-0.06l0.32,1.02c1.1,0,1.86-0.22,2.3-0.66
		c0.3-0.32,0.46-0.88,0.46-1.68c-0.04-1.26-0.5-2.74-1.4-4.46c0.56-1.88,1-3.68,1.36-5.4v-0.84H363.353z M369.494,188.322l-0.8,0.5
		c0.82,1.18,1.46,2.26,1.94,3.22l0.8-0.56C370.994,190.582,370.334,189.522,369.494,188.322z M376.855,204.022
		c-0.72,0-1.44-0.02-2.141-0.04c-0.76-0.06-1.38-0.18-1.88-0.38c-0.6-0.3-1.08-0.72-1.48-1.26c-0.1-0.12-0.2-0.22-0.3-0.3v-8.1
		h-2.861v1h1.84v7c-0.7,0.28-1.56,1.12-2.601,2.54l0.64,0.8c1.16-1.6,1.96-2.4,2.401-2.4c0.2,0,0.4,0.14,0.64,0.46
		c0.44,0.58,1,1,1.64,1.26c0.64,0.24,1.4,0.38,2.281,0.4c0.6,0.02,1.16,0.04,1.72,0.04h3.581l0.28-1.06
		C379.416,204.002,378.176,204.022,376.855,204.022z M372.034,189.162v1h2.601c-0.68,2.34-1.72,4.26-3.101,5.74l0.6,0.74
		c0.6-0.58,1.14-1.26,1.64-2.06v7.96h0.96v-3.44h4.001v1.84c0,0.42-0.2,0.64-0.58,0.64c-0.46,0-0.96-0.02-1.48-0.04l0.26,0.94h1.52
		c0.82-0.02,1.24-0.44,1.24-1.24v-8.78h-4.841c0.3-0.7,0.58-1.46,0.82-2.3h4.861v-1h-4.601c0.14-0.6,0.28-1.24,0.4-1.88l-1.06-0.14
		c-0.12,0.68-0.24,1.36-0.38,2.02H372.034z M374.735,196.282h4.001v1.9h-4.001V196.282z M378.736,195.382h-4.001v-2.04h4.001
		V195.382z"/>
	<path fill="#0099FF" d="M394.42,200.122l-1.92,0.48v-11.559h1.64v-1.02h-9.422v1.02h1.68v12.759c-0.62,0.08-1.26,0.18-1.9,0.26
		l0.28,1.08c2.32-0.36,4.521-0.76,6.641-1.22v3.48h1.08v-3.72l1.92-0.48V200.122z M391.419,200.862
		c-1.28,0.28-2.581,0.54-3.941,0.76v-3.78h3.941V200.862z M387.479,196.842v-3.36h3.941v3.36H387.479z M387.479,192.482v-3.44h3.941
		v3.44H387.479z M400.801,190.122c-0.4,3.24-1.2,6.08-2.421,8.52c-1.28-2.56-2.06-5.4-2.32-8.52H400.801z M397.821,199.662
		c-1.1,1.88-2.48,3.48-4.161,4.82l0.7,0.84c1.58-1.24,2.941-2.78,4.061-4.6c0.96,1.64,2.141,3.18,3.561,4.62l0.72-0.84
		c-1.48-1.44-2.721-3.02-3.721-4.76c1.44-2.66,2.381-5.88,2.821-9.66v-1h-7.542v1.04h0.82
		C395.36,193.582,396.28,196.762,397.821,199.662z"/>
	<path fill-rule="evenodd" clip-rule="evenodd" fill="none" stroke="#666666" stroke-miterlimit="10" stroke-dasharray="3" d="
		M148.992,179.919c92.86,0,167.001,0,167.001,0"/>
	<path fill-rule="evenodd" clip-rule="evenodd" fill="none" stroke="#666666" stroke-miterlimit="10" stroke-dasharray="3" d="
		M452.997,179.586c34.819,0,62.62,0,62.62,0"/>
	<path fill-rule="evenodd" clip-rule="evenodd" fill="none" stroke="#666666" stroke-miterlimit="10" stroke-dasharray="3" d="
		M452.997,409.993c34.819,0,62.62,0,62.62,0"/>
	<path fill-rule="evenodd" clip-rule="evenodd" fill="none" stroke="#666666" stroke-miterlimit="10" stroke-dasharray="3" d="
		M148.992,409.994c93.418,0,168.005,0,168.005,0"/>
	<path fill="#666666" d="M152.212,376.22v0.936h2.683v2.682c0,0.198-0.018,0.396-0.018,0.594h-2.899v0.936h2.863
		c-0.252,3.564-1.314,6.192-3.151,7.92l0.738,0.648c1.531-1.458,2.557-3.51,3.061-6.138c0.774,0.81,1.711,1.944,2.791,3.42
		l0.558-0.81c-1.08-1.314-2.143-2.484-3.187-3.528c0.072-0.486,0.126-0.99,0.162-1.512h2.845v-0.936h-2.809
		c0-0.198,0.018-0.396,0.018-0.594v-2.682h2.539v-0.936h-2.539v-2.574h-0.972v2.574H152.212z M166.652,374.276h-7.004v9.738h0.954
		v-8.82h5.095v8.82h0.954V374.276z M166.274,389.648c0.576,0,0.99-0.126,1.26-0.378c0.306-0.342,0.504-1.224,0.612-2.646
		l-0.846-0.288c-0.072,1.188-0.198,1.908-0.414,2.16c-0.144,0.18-0.414,0.288-0.774,0.288h-0.99c-0.432,0-0.648-0.234-0.648-0.702
		v-3.906h-0.918v4.086c0,0.918,0.414,1.386,1.278,1.386H166.274z M162.691,376.904V380c-0.036,2.358-0.414,4.266-1.17,5.724
		c-0.846,1.44-2.269,2.556-4.249,3.384l0.522,0.81c2.035-0.846,3.493-2.016,4.393-3.51c0.9-1.602,1.387-3.744,1.423-6.408v-3.096
		H162.691z"/>
	<path fill="#666666" d="M184.405,381.494v-2.736h1.674v-0.882h-1.674v-2.754h-3.889v-1.674h-0.972v1.674h-3.475v0.864h3.475v1.89
		h-4.357v0.882h4.357v1.872h-3.565v0.864h3.565v1.8h-3.799v0.864h3.799v1.962h-4.663v0.9h4.663v2.898h0.972v-2.898h5.366v-0.9
		h-5.366v-1.962h4.393v-0.864h-4.393v-1.8H184.405z M180.516,375.986h2.953v1.89h-2.953V375.986z M180.516,378.758h2.953v1.872
		h-2.953V378.758z M172.251,381.962v7.902h0.972v-9.126c0.504-0.684,0.936-1.422,1.296-2.214l-0.846-0.396
		c-0.792,1.818-2.107,3.456-3.943,4.914l0.288,0.936C170.847,383.348,171.585,382.682,172.251,381.962z M173.476,373.448
		c-0.756,1.674-2.017,3.186-3.763,4.518l0.306,0.954c1.962-1.44,3.403-3.132,4.339-5.076L173.476,373.448z"/>
	<path fill="#666666" d="M188.365,376.886c-0.054,1.746-0.27,3.402-0.666,4.986l0.81,0.216c0.378-1.62,0.594-3.33,0.648-5.13
		L188.365,376.886z M192.578,376.562l-0.738,0.234c0.432,1.008,0.792,2.052,1.08,3.132l0.792-0.198
		C193.371,378.542,192.993,377.48,192.578,376.562z M190.364,373.502v16.309h0.972v-16.309H190.364z M195.459,377.948h3.115v4.626
		h-4.231v0.954h4.231v4.824h-5.276v0.954h10.785v-0.954h-4.537v-4.824h3.745v-0.954h-3.745v-4.626h4.069v-0.954h-4.069v-3.474
		h-0.972v3.474h-2.917c0.126-0.756,0.198-1.53,0.234-2.358l-0.9-0.108c-0.108,2.43-0.684,4.608-1.747,6.534l0.738,0.648
		C194.631,380.558,195.135,379.316,195.459,377.948z"/>
	<path fill="#666666" d="M206.982,373.934l-0.504,0.738c1.008,0.306,1.999,0.738,2.953,1.314l0.522-0.81
		C209.053,374.69,208.062,374.276,206.982,373.934z M212.978,373.412c-0.432,1.296-1.26,2.412-2.503,3.312l0.594,0.774
		c0.72-0.54,1.314-1.152,1.8-1.836h2.629c-0.234,1.116-0.702,1.998-1.422,2.646c-0.81,0.72-2.125,1.26-3.943,1.656l0.378,0.882
		c1.981-0.468,3.421-1.116,4.303-1.944c0.324-0.324,0.612-0.702,0.864-1.098c1.08,1.512,2.989,2.538,5.69,3.078l0.342-0.846
		c-2.809-0.54-4.681-1.566-5.654-3.06c0.144-0.396,0.27-0.846,0.36-1.314h3.385c-0.216,0.756-0.486,1.458-0.828,2.07l0.936,0.27
		c0.378-0.846,0.684-1.71,0.9-2.61v-0.612h-7.4c0.198-0.396,0.378-0.81,0.522-1.26L212.978,373.412z M219.586,381.476H208.17v5.454
		h0.99v-4.536h9.435v4.428h0.99V381.476z M213.518,383.24c-0.144,1.944-0.648,3.312-1.477,4.14
		c-0.936,0.882-2.845,1.404-5.726,1.566l0.396,0.882c3.151-0.252,5.203-0.882,6.14-1.872c0.864-0.81,1.404-2.358,1.656-4.626
		L213.518,383.24z M209.611,377.282c-0.918,0.936-2.053,1.8-3.421,2.61l0.648,0.738c1.332-0.828,2.449-1.728,3.349-2.682
		L209.611,377.282z M214.976,386.822l-0.504,0.738c2.179,0.576,4.303,1.368,6.374,2.376l0.522-0.81
		C219.442,388.208,217.317,387.434,214.976,386.822z"/>
	<path fill="#666666" d="M227.255,378.578v0.882h4.195v2.916h-6.554v0.918h6.554v5.13h-2.323c-0.486-1.494-1.044-2.772-1.657-3.816
		l-0.882,0.324c0.648,1.098,1.17,2.268,1.584,3.492h-3.907v0.936h15.322v-0.936h-3.925c0.612-1.044,1.152-2.25,1.639-3.618
		l-0.882-0.342c-0.486,1.404-1.062,2.736-1.746,3.96h-2.251v-5.13h6.536v-0.918h-6.536v-2.916h4.195v-0.882H227.255z
		 M231.54,373.646c-2.017,2.232-4.591,4.068-7.724,5.49l0.54,0.792c2.953-1.332,5.474-3.114,7.58-5.346
		c1.89,2.196,4.411,3.978,7.544,5.31l0.54-0.81c-3.367-1.44-5.924-3.24-7.688-5.436H231.54z"/>
	<path fill="#666666" d="M243.891,389.702c0.9,0,1.368-0.468,1.368-1.368v-5.49c0.576-0.252,1.134-0.54,1.711-0.828v-0.99
		c-0.558,0.306-1.134,0.594-1.711,0.864v-3.924h1.945v-0.954h-1.945v-3.492h-0.972v3.492h-2.305v0.954h2.305v4.338
		c-0.81,0.306-1.657,0.576-2.521,0.792l0.252,0.972c0.774-0.234,1.531-0.504,2.269-0.81v4.842c0,0.486-0.252,0.738-0.738,0.738
		c-0.468,0-0.972-0.036-1.494-0.072l0.216,0.936H243.891z M248.735,374.132v6.066h7.706v-6.066H248.735z M255.469,379.37h-5.78
		v-1.782h5.78V379.37z M249.689,376.796v-1.836h5.78v1.836H249.689z M247.42,381.674v0.9h4.681v5.67
		c-0.234-0.072-0.432-0.144-0.612-0.216c-0.792-0.378-1.512-1.242-2.125-2.592c0.144-0.594,0.234-1.206,0.27-1.854l-0.882-0.108
		c-0.126,2.124-0.9,4.032-2.341,5.724l0.72,0.648c0.864-1.026,1.512-2.16,1.945-3.384c0.576,1.152,1.224,1.944,1.945,2.34
		c0.846,0.45,2.467,0.684,4.844,0.684c0.594,0.018,1.26,0.036,1.981,0.036l0.27-0.972c-0.63,0.036-1.404,0.072-2.323,0.072
		c-1.08,0-1.981-0.072-2.737-0.18v-2.664h3.907v-0.882h-3.907v-2.322h4.609v-0.9H247.42z"/>
	<path fill="#666666" d="M268.342,373.628c-2.233,0.99-4.897,1.62-8.012,1.89l0.306,0.9c1.332-0.108,2.611-0.306,3.835-0.576v4.554
		h-4.501v0.972h4.483c-0.162,3.564-1.549,6.192-4.177,7.848l0.738,0.648c2.773-1.818,4.231-4.644,4.411-8.496h5.204v8.496h0.972
		v-8.496h4.267v-0.972h-4.267v-6.768h-0.972v6.768h-5.186v-4.788c1.188-0.324,2.305-0.702,3.385-1.17L268.342,373.628z"/>
	<path fill="#666666" d="M278.604,386.246c1.404-0.36,2.773-0.792,4.069-1.26v4.806h0.954v-16.255h-0.954v10.494
		c-1.008,0.378-2.017,0.72-3.061,1.008v-10.062h-0.972v10.044c0,0.18-0.108,0.306-0.324,0.378L278.604,386.246z M287.301,377.264
		h3.961c-0.072,2.682-0.702,5.022-1.891,7.002c-1.152-1.566-2.089-3.312-2.809-5.238
		C286.814,378.488,287.066,377.894,287.301,377.264z M285.986,380.072c0.72,1.836,1.638,3.528,2.791,5.076
		c-1.152,1.53-2.701,2.79-4.663,3.798l0.558,0.882c1.945-1.044,3.511-2.358,4.699-3.924c1.188,1.476,2.593,2.808,4.231,4.014
		l0.666-0.774c-1.657-1.206-3.079-2.574-4.303-4.086c1.368-2.16,2.125-4.77,2.233-7.794h1.674v-0.954h-6.266
		c0.252-0.846,0.468-1.764,0.648-2.736l-0.972-0.18c-0.54,3.186-1.548,5.724-3.061,7.614l0.594,0.72
		C285.23,381.224,285.626,380.684,285.986,380.072z"/>
	<path fill="#666666" d="M309.536,382.466h-11.055v5.814h-2.449v0.936h15.827v-0.936h-2.323V382.466z M299.435,388.28v-4.896h2.395
		v4.896H299.435z M302.766,388.28v-4.896h2.467v4.896H302.766z M306.151,388.28v-4.896h2.413v4.896H306.151z M296.392,376.742v0.936
		h15.107v-0.936h-4.627c0.72-0.864,1.386-1.872,1.963-3.006l-0.954-0.342c-0.576,1.188-1.278,2.304-2.071,3.348H296.392z
		 M299.615,373.43l-0.792,0.504c0.99,0.99,1.783,1.89,2.359,2.718l0.792-0.54C301.434,375.338,300.642,374.438,299.615,373.43z
		 M306.331,378.596l-0.522,0.774c1.927,0.882,3.799,2.07,5.618,3.564l0.558-0.828C310.275,380.738,308.384,379.568,306.331,378.596z
		 M301.524,378.47c-1.512,1.476-3.403,2.664-5.69,3.564l0.432,0.9c2.377-1.008,4.321-2.25,5.87-3.762L301.524,378.47z"/>
	<path fill="#666666" d="M168.939,143.358l-1.062,0.18c0.234,0.45,0.45,0.954,0.648,1.512h-7.544v0.936h15.827v-0.936h-7.256
		C169.353,144.42,169.155,143.862,168.939,143.358z M173.962,159.828c1.224,0,1.837-0.54,1.837-1.62v-6.246h-13.792v7.902h0.918
		v-7.02h11.956v5.166c0,0.648-0.414,0.972-1.224,0.972l-1.458-0.036l0.234,0.882H173.962z M164.023,147.372v3.312h9.777v-3.312
		H164.023z M172.864,149.892h-7.904v-1.728h7.904V149.892z M165.481,154.194v3.474h6.878v-3.474H165.481z M171.459,156.894h-5.095
		v-1.908h5.095V156.894z"/>
	<path fill="#666666" d="M184.224,150.81c3.133-0.18,6.014-0.396,8.643-0.684c0.306,0.468,0.594,0.918,0.846,1.368l0.81-0.558
		c-0.648-1.116-1.566-2.412-2.773-3.888l-0.774,0.504c0.486,0.594,0.936,1.188,1.332,1.764c-2.233,0.252-4.483,0.432-6.752,0.576
		c0.702-0.72,1.53-1.908,2.467-3.582h6.572v-0.9h-4.807c-0.27-0.81-0.558-1.53-0.882-2.178l-0.99,0.18
		c0.324,0.612,0.63,1.278,0.9,1.998h-5.186v0.9h3.385c-1.152,1.926-2.089,3.114-2.809,3.564c-0.054,0.036-0.126,0.054-0.198,0.09
		L184.224,150.81z M180.137,143.79l-0.684,0.666c1.152,0.828,2.071,1.602,2.755,2.358l0.702-0.702
		C182.154,145.338,181.235,144.564,180.137,143.79z M179.705,148.074l-0.702,0.666c1.206,0.936,2.161,1.818,2.863,2.646l0.702-0.684
		C181.812,149.838,180.857,148.956,179.705,148.074z M181.848,152.826c-0.684,2.196-1.512,4.338-2.449,6.444l0.882,0.396
		c0.9-2.034,1.693-4.212,2.413-6.516L181.848,152.826z M188.023,151.782v7.722h0.99v-7.722H188.023z M185.089,151.782
		c-0.072,2.16-0.27,3.726-0.63,4.734c-0.378,1.008-1.008,1.854-1.909,2.574l0.612,0.774c1.008-0.81,1.746-1.782,2.179-2.934
		c0.396-1.098,0.63-2.808,0.702-5.148H185.089z M193.461,159.702c0.648-0.036,1.08-0.216,1.278-0.54
		c0.198-0.342,0.306-1.26,0.306-2.754l-0.864-0.324c0,1.008-0.036,1.728-0.108,2.16c-0.072,0.36-0.288,0.54-0.648,0.558h-0.918
		c-0.288-0.018-0.432-0.198-0.432-0.54V151.8h-0.936v6.606c0,0.864,0.45,1.296,1.368,1.296H193.461z"/>
	<path fill="#666666" d="M197.583,144.834v0.918h6.41v-0.918H197.583z M196.863,149.676v0.972h2.647
		c-0.972,3.456-1.747,5.562-2.323,6.318c-0.036,0.036-0.108,0.054-0.198,0.09l0.234,0.918c2.251-0.414,4.339-0.954,6.266-1.638
		c0.198,0.432,0.396,0.918,0.612,1.422l0.864-0.432c-0.792-1.836-1.62-3.51-2.503-5.058l-0.828,0.396
		c0.504,0.864,0.99,1.818,1.494,2.862c-1.584,0.594-3.169,1.044-4.771,1.332c0.594-1.17,1.296-3.24,2.107-6.21h4.231v-0.972H196.863
		z M207.594,143.502v3.762h-2.539v0.936h2.539v0.27c-0.036,4.932-1.224,8.532-3.547,10.765l0.738,0.648
		c2.467-2.412,3.727-6.21,3.781-11.413v-0.27h3.025c-0.036,4.896-0.108,7.866-0.252,8.874c-0.162,1.152-0.72,1.746-1.657,1.746
		c-0.504,0-1.08-0.018-1.764-0.036l0.234,0.846c0.756,0.036,1.296,0.054,1.621,0.054c1.494,0,2.323-0.774,2.503-2.304
		c0.162-1.296,0.252-4.68,0.252-10.117h-3.961v-3.762H207.594z"/>
	<path fill="#666666" d="M214.958,144.618v0.954h12.532v12.241c0,0.702-0.342,1.062-1.008,1.062c-0.9,0-1.855-0.036-2.845-0.072
		l0.216,0.936h2.971c1.098,0,1.656-0.558,1.656-1.674v-12.493h2.449v-0.954H214.958z M223.87,148.632h-6.734v8.01h0.936v-1.638
		h5.798V148.632z M218.073,154.104v-4.59h4.861v4.59H218.073z"/>
	<path fill="#666666" d="M240.363,143.448v2.466h-7.112v0.972h7.112v3.042h-5.726v0.918h1.494c0.288,1.044,0.756,1.998,1.441,2.862
		c0.72,0.918,1.566,1.728,2.503,2.43c-1.963,1.224-4.375,2.178-7.22,2.898l0.558,0.846c2.917-0.792,5.402-1.854,7.454-3.186
		c0.954,0.612,2.035,1.188,3.223,1.71c1.368,0.576,2.845,1.08,4.393,1.476l0.54-0.864c-1.458-0.36-2.827-0.792-4.123-1.296
		c-1.188-0.468-2.251-1.008-3.205-1.602c2.017-1.476,3.529-3.24,4.555-5.328v-0.864h-4.879v-3.042h7.22v-0.972h-7.22v-2.466H240.363
		z M240.885,155.598c-0.828-0.576-1.584-1.242-2.233-1.98c-0.738-0.828-1.26-1.746-1.567-2.772h8.066
		C244.18,152.682,242.757,154.266,240.885,155.598z"/>
	<path fill="#666666" d="M267.046,155.076l-0.954-0.306c-0.072,1.512-0.198,2.502-0.342,3.006c-0.18,0.504-0.558,0.774-1.134,0.774
		h-2.953c-0.432-0.018-0.648-0.36-0.648-1.026v-6.174h4.988v-7.02h-6.338v0.936h5.402v5.148h-5.023v7.416
		c0,1.08,0.432,1.638,1.296,1.638h3.439c0.81,0,1.368-0.27,1.656-0.81C266.722,158.118,266.938,156.912,267.046,155.076z
		 M250.895,144.312v0.936h2.521v2.376h-1.999v12.187h0.882v-1.062h5.456v1.062h0.9v-12.187h-2.143v-2.376h2.449v-0.936H250.895z
		 M252.299,157.812v-1.998h5.456v1.998H252.299z M253.578,148.524v1.314c-0.018,1.71-0.378,2.952-1.08,3.726l0.558,0.486
		c0.792-0.882,1.206-2.286,1.224-4.212v-1.314h1.332v3.384c0,0.774,0.342,1.17,1.044,1.17h1.098v1.836h-5.456v-6.39H253.578z
		 M254.262,147.624v-2.376h1.386v2.376H254.262z M257.755,152.304h-0.936c-0.324,0-0.486-0.198-0.486-0.558v-3.222h1.422V152.304z"
		/>
	<path fill="#666666" d="M269.998,143.934l-0.504,0.738c1.008,0.306,1.999,0.738,2.953,1.314l0.522-0.81
		C272.068,144.69,271.078,144.276,269.998,143.934z M275.994,143.412c-0.432,1.296-1.26,2.412-2.503,3.312l0.594,0.774
		c0.72-0.54,1.314-1.152,1.801-1.836h2.629c-0.234,1.116-0.702,1.998-1.422,2.646c-0.81,0.72-2.125,1.26-3.943,1.656l0.378,0.882
		c1.981-0.468,3.421-1.116,4.303-1.944c0.324-0.324,0.612-0.702,0.864-1.098c1.08,1.512,2.989,2.538,5.69,3.078l0.342-0.846
		c-2.809-0.54-4.681-1.566-5.654-3.06c0.144-0.396,0.27-0.846,0.36-1.314h3.385c-0.216,0.756-0.486,1.458-0.828,2.07l0.936,0.27
		c0.378-0.846,0.684-1.71,0.9-2.61v-0.612h-7.4c0.198-0.396,0.378-0.81,0.522-1.26L275.994,143.412z M282.602,151.476h-11.415v5.454
		h0.99v-4.536h9.435v4.428h0.99V151.476z M276.534,153.24c-0.144,1.944-0.648,3.312-1.476,4.14
		c-0.936,0.882-2.845,1.404-5.726,1.566l0.396,0.882c3.151-0.252,5.203-0.882,6.14-1.872c0.864-0.81,1.404-2.358,1.656-4.626
		L276.534,153.24z M272.627,147.282c-0.918,0.936-2.053,1.8-3.421,2.61l0.648,0.738c1.332-0.828,2.449-1.728,3.349-2.682
		L272.627,147.282z M277.992,156.822l-0.504,0.738c2.179,0.576,4.303,1.368,6.374,2.376l0.522-0.81
		C282.457,158.208,280.333,157.434,277.992,156.822z"/>
	<path fill="#666666" d="M290.271,148.578v0.882h4.195v2.916h-6.554v0.918h6.554v5.13h-2.323c-0.486-1.494-1.044-2.772-1.656-3.816
		l-0.882,0.324c0.648,1.098,1.17,2.268,1.585,3.492h-3.907v0.936h15.323v-0.936h-3.925c0.612-1.044,1.152-2.25,1.638-3.618
		l-0.882-0.342c-0.486,1.404-1.062,2.736-1.747,3.96h-2.251v-5.13h6.536v-0.918h-6.536v-2.916h4.195v-0.882H290.271z
		 M294.556,143.646c-2.017,2.232-4.591,4.068-7.724,5.49l0.54,0.792c2.953-1.332,5.474-3.114,7.58-5.346
		c1.891,2.196,4.411,3.978,7.544,5.31l0.54-0.81c-3.367-1.44-5.924-3.24-7.688-5.436H294.556z"/>
	<path fill="#0099FF" d="M87.52,245.104c-2.36,2.68-5.321,4.94-8.882,6.74l0.56,1.04c3.621-1.92,6.521-4.2,8.722-6.8
		c2.381,2.78,5.261,5.04,8.642,6.78l0.58-1.04c-3.341-1.64-6.281-3.88-8.822-6.72H87.52z M87.96,250.324v11.04h-4.241v-8.16h-1.06
		v8.16h-3.141v1.06h16.563v-1.06H89.02v-5.32h5.621v-1.06H89.02v-4.66H87.96z"/>
	<path fill="#0099FF" d="M85.219,265.259v16.019h-6.101v1.06h17.604v-1.06h-6.141v-16.019h-1.06v16.019H86.28v-16.019H85.219z
		 M95.142,268.839c-0.88,3.68-1.92,6.72-3.101,9.12l0.98,0.36c1.26-2.64,2.281-5.7,3.081-9.22L95.142,268.839z M80.598,268.779
		l-0.94,0.32c1.12,3,2.061,6.12,2.781,9.34l1-0.24C82.599,274.659,81.659,271.519,80.598,268.779z"/>
	<path fill="#0099FF" d="M84.339,296.094v4.66h7.142v-4.66H84.339z M90.421,299.774h-5.021v-2.7h5.021V299.774z M89.701,292.114
		l-0.72,0.72c1.74,1.28,3.121,2.5,4.141,3.66l0.8-0.78C92.801,294.514,91.381,293.314,89.701,292.114z M87.76,284.834l-1.16,0.18
		c0.28,0.54,0.56,1.14,0.84,1.8h-8.322v1.04h4.221c0.48,0.82,0.88,1.72,1.2,2.7h-4.321v12.559h1.06v-11.579h13.243v9.66
		c0,0.68-0.3,1.02-0.9,1.02l-1.96-0.04l0.28,1h2.021c1.08,0,1.62-0.6,1.62-1.76v-10.86h-4.541c0.48-0.78,0.9-1.68,1.3-2.7h4.381
		v-1.04H88.6C88.34,286.074,88.06,285.414,87.76,284.834z M85.64,290.554c-0.32-1-0.7-1.9-1.1-2.7h6.601
		c-0.38,0.96-0.8,1.86-1.26,2.7H85.64z M86,292.154c-1.16,1.32-2.561,2.46-4.241,3.44l0.68,0.88c1.72-1.04,3.161-2.24,4.341-3.62
		L86,292.154z"/>
	<path fill="#0099FF" d="M94.141,308.649v4.32H82.299v-4.32H94.141z M82.299,314.029h12.943v-6.46H88.92
		c-0.36-1-0.74-1.88-1.14-2.66l-1.14,0.2c0.44,0.72,0.84,1.54,1.2,2.46h-6.601v6.1c-0.02,3.64-0.9,6.62-2.621,8.94l0.82,0.74
		C81.259,320.749,82.219,317.629,82.299,314.029z"/>
	<path fill="#0099FF" d="M783.877,467.881v0.882h4.195v2.916h-6.554v0.918h6.554v5.13h-2.323c-0.486-1.494-1.044-2.772-1.656-3.816
		l-0.882,0.324c0.648,1.098,1.17,2.268,1.585,3.492h-3.907v0.936h15.323v-0.936h-3.925c0.612-1.044,1.152-2.25,1.638-3.618
		l-0.882-0.342c-0.486,1.404-1.062,2.736-1.747,3.96h-2.251v-5.13h6.536v-0.918h-6.536v-2.916h4.195v-0.882H783.877z
		 M788.162,462.949c-2.017,2.232-4.591,4.068-7.724,5.49l0.54,0.792c2.953-1.332,5.474-3.114,7.58-5.346
		c1.891,2.196,4.411,3.978,7.544,5.31l0.54-0.81c-3.367-1.44-5.924-3.24-7.688-5.436H788.162z"/>
	<path fill="#0099FF" d="M807.692,466.027v6.912h2.629v4.572c-0.936,0.162-1.909,0.306-2.899,0.432l0.216,0.918
		c2.089-0.324,4.033-0.702,5.87-1.134l0.324,1.314l0.828-0.216c-0.396-1.728-0.864-3.24-1.386-4.572l-0.774,0.252
		c0.288,0.756,0.54,1.548,0.774,2.376c-0.648,0.162-1.332,0.306-2.035,0.45v-4.392h2.629v-6.912h-2.629v-3.204h-0.918v3.204H807.692
		z M813.022,472.075h-1.818v-5.184h1.818V472.075z M810.357,472.075h-1.8v-5.184h1.8V472.075z M798.582,463.543v0.9h8.445v-0.9
		H798.582z M799.662,465.829v3.708h6.302v-3.708H799.662z M805.082,468.745h-4.537v-2.106h4.537V468.745z M800.544,474.848v0.774
		h1.819v3.348h0.828v-3.348h1.873v-0.774h-1.314c0.342-0.666,0.648-1.422,0.918-2.25l-0.72-0.27c-0.27,0.9-0.576,1.728-0.936,2.52
		H800.544z M801.552,472.489l-0.666,0.216c0.324,0.612,0.612,1.26,0.828,1.944l0.666-0.18
		C802.129,473.731,801.859,473.065,801.552,472.489z M805.532,479.06c0.756,0,1.152-0.396,1.152-1.17v-7.074h-7.76v8.352h0.864
		v-7.506h6.014v6.048c0,0.342-0.198,0.522-0.558,0.522l-1.314-0.054l0.234,0.882H805.532z"/>
	<path fill="#0099FF" d="M826.286,465.955h5.888v-0.954h-5.564c0.216-0.684,0.396-1.422,0.54-2.214l-1.008-0.18
		c-0.468,2.646-1.368,4.752-2.665,6.3l0.612,0.756C824.99,468.673,825.71,467.431,826.286,465.955z M828.141,467.395l-0.792,0.486
		c0.954,1.224,1.711,2.34,2.269,3.366l0.792-0.576C829.888,469.735,829.131,468.655,828.141,467.395z M821.515,462.679v8.856h0.954
		v-8.856H821.515z M817.752,463.561v7.308h0.954v-7.308H817.752z M830.608,472.615h-12.1v5.022h-2.089v0.882h16.187v-0.882h-1.999
		V472.615z M819.463,477.638v-4.122h2.683v4.122H819.463z M823.1,477.638v-4.122h2.845v4.122H823.1z M826.899,477.638v-4.122h2.755
		v4.122H826.899z"/>
	<path fill="#0099FF" d="M847.617,469.879h-10.137v9.27h0.972v-0.792h9.021v0.81h0.972v-4.464h-9.993v-1.458h9.165V469.879z
		 M838.453,477.476v-1.962h9.021v1.962H838.453z M838.453,472.435v-1.728h8.21v1.728H838.453z M850.084,467.773h-6.86
		c-0.198-0.558-0.414-1.062-0.648-1.494l-0.954,0.18c0.216,0.396,0.432,0.828,0.648,1.314h-7.274v3.096h0.954v-2.25h13.18v2.25
		h0.954V467.773z M836.922,465.019h1.242c0.468,0.684,0.9,1.368,1.26,2.088l0.882-0.342c-0.27-0.54-0.63-1.116-1.098-1.746h3.259
		v-0.882h-5.06c0.198-0.414,0.378-0.846,0.558-1.278l-0.954-0.198c-0.522,1.422-1.35,2.7-2.467,3.852l0.828,0.522
		C835.95,466.423,836.472,465.739,836.922,465.019z M844.701,465.019h1.332c0.468,0.612,0.864,1.26,1.206,1.908l0.882-0.306
		c-0.252-0.504-0.594-1.026-1.026-1.602h3.403v-0.882h-5.384c0.162-0.396,0.324-0.828,0.468-1.26l-0.918-0.198
		c-0.414,1.332-1.062,2.52-1.945,3.582l0.828,0.54C843.98,466.261,844.359,465.667,844.701,465.019z"/>
	<path fill="#0099FF" d="M605.425,466.909l-0.81,0.504c1.224,1.512,2.341,2.97,3.349,4.374c-1.116,1.71-2.503,3.204-4.159,4.464
		l0.666,0.81c1.62-1.224,2.989-2.682,4.123-4.374c0.972,1.404,1.837,2.754,2.593,4.086l0.864-0.612
		c-0.792-1.35-1.747-2.826-2.881-4.41c0.918-1.584,1.656-3.366,2.215-5.346l-0.972-0.18c-0.45,1.674-1.08,3.222-1.891,4.644
		C607.586,469.609,606.559,468.295,605.425,466.909z M602.544,463.543v6.876c-0.072,3.24-0.738,5.94-2.035,8.082l0.81,0.648
		c1.422-2.34,2.161-5.256,2.197-8.73v-5.922h9.435v6.156c0,3.348,0.18,5.562,0.558,6.66c0.36,1.116,0.936,1.692,1.729,1.692
		c0.306,0,0.576-0.216,0.828-0.63c0.27-0.54,0.504-1.458,0.684-2.79l-0.864-0.414c-0.198,1.8-0.45,2.7-0.738,2.718
		c-0.342,0-0.63-0.432-0.846-1.278c-0.252-0.882-0.36-2.862-0.36-5.958v-7.11H602.544z"/>
	<path fill="#0099FF" d="M619.212,463.633v15.553h0.972v-14.653h3.115c-0.468,1.548-1.098,3.294-1.927,5.238
		c1.224,1.548,1.836,2.952,1.836,4.212c0,0.396-0.126,0.666-0.36,0.828c-0.252,0.18-0.756,0.288-1.476,0.324
		c-0.144,0-0.306-0.018-0.522-0.054l0.306,0.972c1.188,0,1.999-0.198,2.467-0.576c0.36-0.306,0.54-0.81,0.558-1.494
		c-0.09-1.35-0.702-2.808-1.819-4.356c0.738-1.8,1.368-3.546,1.909-5.238v-0.756H619.212z M626.576,468.079v0.9h5.528v-0.9H626.576z
		 M623.983,477.548v0.936h10.587v-0.936h-3.331c0.936-2.052,1.728-4.392,2.377-7.038l-0.954-0.252
		c-0.684,2.898-1.476,5.328-2.395,7.29H623.983z M625.874,470.959l-0.828,0.288c0.702,1.62,1.278,3.33,1.729,5.112l0.846-0.216
		C627.116,474.199,626.54,472.471,625.874,470.959z M628.737,470.221l-0.828,0.288c0.576,1.584,1.044,3.24,1.422,4.968l0.846-0.216
		C629.745,473.371,629.277,471.697,628.737,470.221z M628.845,462.859c-1.188,2.538-2.899,4.608-5.096,6.21l0.504,0.774
		c2.017-1.404,3.709-3.402,5.042-6.012c1.116,2.394,2.827,4.41,5.114,6.03l0.54-0.81c-2.449-1.782-4.195-3.852-5.203-6.192H628.845z
		"/>
	<path fill="#0099FF" d="M642.703,463.615h-5.51v11.376h0.882v-10.476h3.763v10.206h0.864V463.615z M639.57,466.081v5.814
		c-0.036,1.674-0.27,3.042-0.738,4.104c-0.54,1.026-1.422,1.836-2.665,2.412l0.522,0.792c1.278-0.63,2.197-1.494,2.773-2.574
		c0.576-1.188,0.864-2.754,0.9-4.734v-5.814H639.57z M641.101,475.37l-0.594,0.576c1.044,1.08,1.873,2.088,2.503,3.06l0.648-0.648
		C642.974,477.35,642.109,476.36,641.101,475.37z M643.91,464.641v0.936h8.301v-0.936h-3.547c-0.252-0.738-0.504-1.404-0.756-1.98
		l-0.972,0.18c0.288,0.54,0.54,1.134,0.774,1.8H643.91z M643.64,469.555v0.936h8.985v-0.936h-2.485c0.468-0.828,0.882-1.8,1.26-2.88
		l-0.936-0.324c-0.36,1.134-0.774,2.196-1.26,3.204h-2.107c-0.36-1.242-0.756-2.286-1.188-3.15l-0.9,0.342
		c0.45,0.864,0.828,1.8,1.116,2.808H643.64z M651.508,472.453h-6.716v6.642h0.936v-1.044h4.861v1.044h0.918V472.453z
		 M645.728,477.116v-3.744h4.861v3.744H645.728z"/>
	<path fill="#0099FF" d="M658.435,462.607c-0.864,2.916-2.269,5.526-4.249,7.83l0.324,1.008c0.9-0.99,1.693-2.052,2.413-3.168
		v10.945h0.972v-12.655c0.576-1.116,1.062-2.304,1.458-3.546L658.435,462.607z M659.857,466.765v0.972h7.148v9.324
		c0,0.738-0.306,1.116-0.918,1.116c-0.792,0-1.602-0.036-2.449-0.072l0.216,0.936h2.575c1.026,0,1.548-0.576,1.548-1.728v-9.576
		h2.665v-0.972h-2.665v-3.978h-0.972v3.978H659.857z M661.334,469.897l-0.792,0.504c1.368,1.62,2.449,3.096,3.241,4.428l0.828-0.576
		C663.854,473.011,662.756,471.553,661.334,469.897z"/>
	<path fill="#0099FF" d="M675.877,467.881v0.882h4.195v2.916h-6.554v0.918h6.554v5.13h-2.323c-0.486-1.494-1.044-2.772-1.656-3.816
		l-0.882,0.324c0.648,1.098,1.17,2.268,1.585,3.492h-3.907v0.936h15.323v-0.936h-3.925c0.612-1.044,1.152-2.25,1.638-3.618
		l-0.882-0.342c-0.486,1.404-1.062,2.736-1.747,3.96h-2.251v-5.13h6.536v-0.918h-6.536v-2.916h4.195v-0.882H675.877z
		 M680.162,462.949c-2.017,2.232-4.591,4.068-7.724,5.49l0.54,0.792c2.953-1.332,5.474-3.114,7.58-5.346
		c1.891,2.196,4.411,3.978,7.544,5.31l0.54-0.81c-3.367-1.44-5.924-3.24-7.688-5.436H680.162z"/>
	<path fill="#0099FF" d="M782.425,114.909l-0.81,0.504c1.224,1.512,2.341,2.97,3.349,4.374c-1.116,1.71-2.503,3.204-4.159,4.464
		l0.666,0.81c1.62-1.224,2.989-2.682,4.123-4.374c0.972,1.404,1.837,2.754,2.593,4.086l0.864-0.612
		c-0.792-1.35-1.747-2.826-2.881-4.41c0.918-1.584,1.656-3.366,2.215-5.346l-0.972-0.18c-0.45,1.674-1.08,3.222-1.891,4.644
		C784.586,117.609,783.559,116.295,782.425,114.909z M779.544,111.543v6.876c-0.072,3.24-0.738,5.94-2.035,8.082l0.81,0.648
		c1.422-2.34,2.161-5.256,2.197-8.73v-5.922h9.435v6.156c0,3.348,0.18,5.562,0.558,6.66c0.36,1.116,0.936,1.692,1.729,1.692
		c0.306,0,0.576-0.216,0.828-0.63c0.27-0.54,0.504-1.458,0.684-2.79l-0.864-0.414c-0.198,1.8-0.45,2.7-0.738,2.718
		c-0.342,0-0.63-0.432-0.846-1.278c-0.252-0.882-0.36-2.862-0.36-5.958v-7.11H779.544z"/>
	<path fill="#0099FF" d="M805.809,121.299v4.32h-5.06v0.936h11.001v-0.936h-4.969v-4.32h4.285v-0.918h-9.579v0.918H805.809z
		 M797.472,127.006c0.936,0,1.404-0.468,1.404-1.386v-5.508c0.576-0.252,1.152-0.522,1.711-0.81v-0.99
		c-0.558,0.288-1.134,0.576-1.711,0.828v-3.87h1.639v-0.954h-1.639v-3.528h-0.972v3.528h-2.341v0.954h2.341v4.266
		c-0.828,0.324-1.693,0.594-2.593,0.81l0.252,0.972c0.792-0.234,1.567-0.504,2.341-0.81v4.86c0,0.504-0.27,0.774-0.774,0.774
		c-0.468,0-0.954-0.036-1.458-0.072l0.216,0.936H797.472z M805.971,110.553l-0.99,0.18c0.36,0.612,0.684,1.314,0.972,2.106h-4.591
		v3.204h0.918v-2.322h8.012v2.322h0.936v-3.204h-4.303C806.619,111.975,806.295,111.219,805.971,110.553z M804.638,114.999
		c-0.738,1.62-1.8,2.898-3.205,3.852l0.702,0.612c1.386-0.936,2.503-2.322,3.367-4.122L804.638,114.999z M807.789,114.963
		l-0.828,0.378c1.116,1.152,2.125,2.484,3.061,3.996l0.846-0.45C809.986,117.465,808.96,116.151,807.789,114.963z"/>
	<path fill="#0099FF" d="M816.931,115.953v0.882h5.312c-1.35,2.142-3.223,3.834-5.618,5.094l0.522,0.846
		c2.521-1.44,4.501-3.42,5.924-5.94h0.018v5.454c0,0.576-0.27,0.882-0.792,0.882c-0.612,0-1.26-0.036-1.909-0.072l0.198,0.9h2.035
		c0.918,0,1.386-0.504,1.386-1.476v-5.688h2.359v-0.882h-2.359v-2.322h-0.918v2.322H816.931z M828.688,111.651h-14.296v15.535h0.936
		v-0.9h12.424v0.9h0.936V111.651z M815.328,125.386v-12.835h12.424v12.835H815.328z"/>
	<path fill="#0099FF" d="M832.23,111.615v15.571h0.972v-14.635h3.295c-0.486,1.548-1.17,3.294-2.053,5.22
		c1.314,1.512,1.981,2.898,1.981,4.14c0,0.432-0.144,0.738-0.396,0.918c-0.27,0.18-0.792,0.288-1.566,0.324
		c-0.144,0-0.324-0.018-0.54-0.054l0.324,0.99c1.224-0.018,2.071-0.216,2.575-0.594c0.36-0.324,0.54-0.864,0.558-1.584
		c-0.09-1.332-0.738-2.754-1.963-4.284c0.792-1.8,1.476-3.546,2.053-5.22v-0.792H832.23z M841.611,110.877
		c0,3.51-0.288,6.408-0.864,8.712c-0.756,2.736-2.233,4.968-4.465,6.714l0.63,0.792c2.503-1.962,4.123-4.5,4.844-7.614
		c0.108-0.468,0.198-0.972,0.288-1.494c1.098,3.618,2.791,6.624,5.096,9.018l0.702-0.81c-2.629-2.556-4.447-6.066-5.492-10.494
		c0.144-1.458,0.216-3.06,0.216-4.824H841.611z"/>
	<path fill="#0099FF" d="M609.278,112.569v12.853h1.098v-6.138h7.04v-0.972h-7.04v-4.77h7.418v-0.972H609.278z"/>
	<path fill="#0099FF" d="M619.772,112.569v12.853h1.098v-12.853H619.772z"/>
	<path fill="#0099FF" d="M629.206,112.317c-1.945,0-3.475,0.666-4.573,2.034c-1.008,1.242-1.513,2.808-1.513,4.698
		s0.486,3.438,1.477,4.644c1.08,1.314,2.575,1.98,4.501,1.98c1.35,0,2.521-0.396,3.511-1.152c1.08-0.846,1.747-2.016,2.017-3.492
		h-1.062c-0.252,1.188-0.81,2.106-1.656,2.754c-0.792,0.576-1.729,0.882-2.827,0.882c-1.549,0-2.755-0.54-3.619-1.602
		c-0.828-1.008-1.242-2.358-1.242-4.014s0.414-3.006,1.26-4.05c0.9-1.116,2.125-1.674,3.709-1.674c1.044,0,1.963,0.27,2.737,0.81
		c0.81,0.558,1.296,1.332,1.458,2.322h1.062c-0.162-1.26-0.738-2.268-1.747-3.024C631.726,112.677,630.556,112.317,629.206,112.317z
		"/>
	<path fill="#0099FF" d="M642.273,112.317c-1.909,0-3.421,0.648-4.537,1.944c-1.044,1.224-1.567,2.808-1.567,4.734
		s0.522,3.51,1.567,4.734c1.098,1.296,2.611,1.944,4.519,1.944c1.909,0,3.403-0.648,4.519-1.926
		c1.044-1.224,1.566-2.808,1.566-4.752s-0.522-3.51-1.566-4.734C645.658,112.965,644.164,112.317,642.273,112.317z M642.273,113.325
		c1.548,0,2.773,0.522,3.673,1.602c0.864,1.008,1.296,2.376,1.296,4.068s-0.432,3.042-1.296,4.068
		c-0.9,1.062-2.125,1.602-3.691,1.602c-1.567,0-2.809-0.54-3.709-1.62c-0.864-1.026-1.278-2.376-1.278-4.05
		c0-1.656,0.432-3.006,1.296-4.05C639.465,113.865,640.707,113.325,642.273,113.325z"/>
	<path fill="#0099FF" d="M656.169,111.669v0.936h4.321v7.092h-4.844v0.918h4.844v6.57h0.972v-6.57h4.915v-0.918h-4.915v-7.092h4.357
		v-0.936H656.169z M664.362,113.667c-0.396,1.836-0.882,3.366-1.422,4.554l0.828,0.288c0.594-1.332,1.08-2.862,1.476-4.608
		L664.362,113.667z M657.322,113.775l-0.828,0.288c0.612,1.44,1.134,2.934,1.531,4.482l0.846-0.198
		C658.42,116.619,657.898,115.107,657.322,113.775z M651.884,110.949l-0.702,0.666c1.332,1.008,2.395,1.98,3.187,2.88l0.666-0.684
		C654.171,112.857,653.126,111.903,651.884,110.949z M649.903,116.367v0.954h2.755v7.614c0,0.234-0.126,0.45-0.36,0.666l0.378,0.882
		c1.152-0.792,2.251-1.71,3.259-2.718l-0.252-1.044c-0.738,0.72-1.422,1.368-2.071,1.908v-8.262H649.903z"/>
	<path fill="#0099FF" d="M673.791,111.165c-0.72,1.368-1.548,2.574-2.449,3.6c-0.972,1.134-2.107,2.07-3.403,2.826l0.54,0.864
		c1.44-0.972,2.647-1.98,3.601-3.06c0.864-0.972,1.711-2.214,2.539-3.726L673.791,111.165z M674.421,118.977
		c-0.396,1.836-0.99,3.312-1.783,4.428c-0.864,1.098-2.125,2.106-3.817,3.024l0.612,0.792c1.836-1.008,3.205-2.16,4.123-3.42
		c0.792-1.188,1.386-2.79,1.819-4.824h4.861c-0.108,2.97-0.324,4.914-0.648,5.832c-0.324,0.864-0.99,1.314-1.999,1.314
		c-0.936,0-1.909-0.018-2.953-0.036l0.252,0.954h3.187c0.9-0.036,1.548-0.324,1.944-0.846c0.396-0.54,0.684-1.494,0.864-2.826
		c0.162-1.368,0.27-3.15,0.324-5.346h-10.623v0.954H674.421z M678.545,110.913l-0.846,0.468c1.098,2.88,3.061,5.22,5.87,7.002
		l0.648-0.774C681.516,115.989,679.625,113.757,678.545,110.913z"/>
	<path fill="#0099FF" d="M707.068,231.357c0.666,0,1.152-0.126,1.458-0.36c0.36-0.288,0.594-1.08,0.702-2.34l-0.882-0.288
		c-0.072,1.044-0.252,1.674-0.504,1.89c-0.18,0.162-0.504,0.252-0.972,0.252h-3.439c-0.54,0-0.81-0.252-0.81-0.738v-1.152
		c2.305-0.792,4.285-1.71,5.942-2.772l-0.648-0.684c-1.386,0.936-3.151,1.764-5.294,2.52v-2.826h-0.972v3.15
		c-0.936,0.288-1.927,0.576-2.989,0.846l0.522,0.792c0.846-0.216,1.674-0.45,2.467-0.702v1.026c0,0.918,0.504,1.386,1.513,1.386
		H707.068z M707.212,232.581h-10.947v5.472h0.954v-4.572h9.021v4.284h0.972V232.581z M702.8,237.928l-0.522,0.738
		c2.161,0.63,4.285,1.494,6.338,2.574l0.558-0.846C707.248,239.422,705.123,238.594,702.8,237.928z M701.252,234.435
		c-0.144,1.98-0.648,3.384-1.494,4.248c-0.936,0.9-2.881,1.422-5.816,1.602l0.378,0.864c3.187-0.252,5.258-0.882,6.23-1.89
		c0.864-0.846,1.422-2.43,1.657-4.734L701.252,234.435z M696.409,228.027v3.6h0.972v-4.392c0.756-0.684,1.404-1.422,1.927-2.196
		l-0.828-0.378c-1.008,1.476-2.629,2.808-4.898,3.996l0.288,0.954C694.788,229.125,695.634,228.603,696.409,228.027z"/>
	<path fill="#0099FF" d="M724.51,239.008c0.954,0,1.44-0.522,1.44-1.548v-7.182h-5.888v-3.222c2.593-0.27,4.861-0.684,6.806-1.26
		l-0.504-0.864c-3.799,1.026-8.661,1.548-14.602,1.566l0.324,0.936c2.521,0,4.861-0.108,7.004-0.288v3.132h-5.906v8.766h0.972v-7.83
		h4.933v10.008h0.972v-10.008h4.915v6.048c0,0.522-0.27,0.792-0.792,0.792l-1.531-0.036l0.252,0.99H724.51z"/>
	<path fill="#0099FF" d="M730.014,226.191v0.846h3.295v6.228h-3.583v0.864h3.979c-0.864,1.206-2.251,2.196-4.159,2.988l0.486,0.81
		c2.161-1.008,3.691-2.268,4.609-3.798h5.762c0.918,1.53,2.521,2.772,4.789,3.726l0.396-0.846c-1.927-0.684-3.349-1.656-4.249-2.88
		h3.997v-0.864h-3.583v-6.228h3.295v-0.846h-3.295v-1.458h-0.972v1.458h-6.5v-1.458h-0.972v1.458H730.014z M734.281,233.265v-1.566
		h6.5v1.566H734.281z M734.281,230.889v-1.494h6.5v1.494H734.281z M734.281,228.603v-1.566h6.5v1.566H734.281z M737.054,234.903
		v1.566h-3.781v0.882h3.781v2.286h-6.392v0.918h13.63v-0.918h-6.266v-2.286h3.745v-0.882h-3.745v-1.566H737.054z"/>
	<path fill="#0099FF" d="M750.877,229.881v0.882h4.195v2.916h-6.554v0.918h6.554v5.13h-2.323c-0.486-1.494-1.044-2.772-1.656-3.816
		l-0.882,0.324c0.648,1.098,1.17,2.268,1.585,3.492h-3.907v0.936h15.323v-0.936h-3.925c0.612-1.044,1.152-2.25,1.638-3.618
		l-0.882-0.342c-0.486,1.404-1.062,2.736-1.747,3.96h-2.251v-5.13h6.536v-0.918h-6.536v-2.916h4.195v-0.882H750.877z
		 M755.162,224.949c-2.017,2.232-4.591,4.068-7.724,5.49l0.54,0.792c2.953-1.332,5.474-3.114,7.58-5.346
		c1.891,2.196,4.411,3.978,7.544,5.31l0.54-0.81c-3.367-1.44-5.924-3.24-7.688-5.436H755.162z"/>
	<path fill="#0099FF" d="M698.317,266.215v4.194h6.428v-4.194H698.317z M703.791,269.528h-4.519v-2.43h4.519V269.528z
		 M703.143,262.633l-0.648,0.648c1.566,1.152,2.809,2.25,3.727,3.294l0.72-0.702C705.933,264.793,704.655,263.713,703.143,262.633z
		 M701.396,256.081l-1.044,0.162c0.252,0.486,0.504,1.026,0.756,1.62h-7.49v0.936h3.799c0.432,0.738,0.792,1.548,1.08,2.43h-3.889
		v11.305h0.954v-10.422h11.92v8.694c0,0.612-0.27,0.918-0.81,0.918l-1.765-0.036l0.252,0.9h1.818c0.972,0,1.458-0.54,1.458-1.584
		v-9.774h-4.087c0.432-0.702,0.81-1.512,1.17-2.43h3.943v-0.936h-7.31C701.918,257.197,701.666,256.603,701.396,256.081z
		 M699.487,261.229c-0.288-0.9-0.63-1.71-0.99-2.43h5.942c-0.342,0.864-0.72,1.674-1.134,2.43H699.487z M699.812,262.669
		c-1.044,1.188-2.305,2.214-3.817,3.096l0.612,0.792c1.549-0.936,2.845-2.016,3.907-3.258L699.812,262.669z"/>
	<path fill="#0099FF" d="M717.109,256.459v14.419h-5.492v0.954h15.845v-0.954h-5.528v-14.419h-0.954v14.419h-2.917v-14.419H717.109z
		 M726.04,259.681c-0.792,3.312-1.729,6.048-2.791,8.208l0.882,0.324c1.134-2.376,2.053-5.13,2.773-8.298L726.04,259.681z
		 M712.95,259.627l-0.846,0.288c1.008,2.7,1.854,5.508,2.503,8.406l0.9-0.216C714.751,264.919,713.904,262.093,712.95,259.627z"/>
	<path fill="#0099FF" d="M731.76,256.279c-0.522,2.25-1.332,4.266-2.449,6.066l0.81,0.522c0.648-1.044,1.206-2.232,1.711-3.546
		h3.979v-0.918h-3.655c0.18-0.612,0.36-1.242,0.54-1.926L731.76,256.279z M731.13,261.877v0.9h1.332v2.646h-2.719v0.918h2.719v4.626
		c0,0.18-0.162,0.324-0.468,0.414l0.378,0.828c1.278-0.36,2.413-0.792,3.385-1.314l-0.18-0.864
		c-0.738,0.414-1.458,0.738-2.179,0.972v-4.662h2.593v-0.918h-2.593v-2.646h1.999v-0.9H731.13z M737.882,261.175h5.564v2.358h-5.564
		V261.175z M743.446,260.311h-5.564v-2.376h5.564V260.311z M744.85,265.585c-0.846,0.972-1.747,1.674-2.719,2.142
		c-0.522-1.008-0.882-2.106-1.098-3.312h3.313v-7.38h-7.382v14.203c0,0.162-0.126,0.27-0.36,0.342l0.216,0.828
		c1.872-0.468,3.439-0.972,4.681-1.476l-0.216-0.882c-1.134,0.486-2.269,0.882-3.403,1.17v-6.804h2.269
		c0.576,3.456,2.269,6.156,5.078,8.1l0.504-0.828c-1.332-0.882-2.377-1.944-3.169-3.204c1.098-0.504,2.071-1.26,2.935-2.268
		L744.85,265.585z"/>
	<path fill="#0099FF" d="M754.244,257.521v0.954h8.499v-0.954H754.244z M753.721,262.147v0.954h5.87v7.812
		c0,0.54-0.324,0.81-0.972,0.81c-0.81,0-1.656-0.036-2.539-0.072l0.216,0.936h2.647c1.08,0,1.638-0.486,1.638-1.44v-8.046h2.989
		v-0.954H753.721z M751.579,256.423c-0.864,1.764-2.287,3.33-4.249,4.716l0.306,0.972c2.197-1.494,3.799-3.258,4.826-5.274
		L751.579,256.423z M752.443,260.527c-1.026,2.052-2.701,3.87-5.023,5.49l0.306,0.972c0.918-0.63,1.765-1.314,2.557-2.034v7.722
		h0.954v-8.712c0.828-0.936,1.513-1.944,2.071-3.024L752.443,260.527z"/>
	<path fill="#0099FF" d="M713.544,300.606c-0.27,0-0.486,0.072-0.648,0.252c-0.18,0.162-0.27,0.378-0.27,0.648
		c0,0.252,0.09,0.45,0.27,0.63c0.162,0.18,0.378,0.27,0.648,0.27c0.252,0,0.468-0.09,0.648-0.252c0.18-0.18,0.27-0.396,0.27-0.648
		c0-0.27-0.09-0.486-0.27-0.648C714.012,300.678,713.796,300.606,713.544,300.606z M719.54,300.606
		c-0.252,0-0.468,0.072-0.648,0.252c-0.18,0.162-0.27,0.378-0.27,0.648c0,0.252,0.09,0.45,0.27,0.63
		c0.18,0.18,0.396,0.27,0.648,0.27c0.252,0,0.486-0.09,0.666-0.252c0.162-0.18,0.252-0.396,0.252-0.648
		c0-0.27-0.09-0.486-0.252-0.648C720.026,300.678,719.792,300.606,719.54,300.606z M725.536,300.606
		c-0.252,0-0.468,0.072-0.648,0.252c-0.18,0.162-0.27,0.378-0.27,0.648c0,0.252,0.09,0.45,0.27,0.63
		c0.18,0.18,0.396,0.27,0.648,0.27c0.252,0,0.468-0.09,0.648-0.252c0.18-0.18,0.27-0.396,0.27-0.648c0-0.27-0.09-0.486-0.27-0.648
		C726.004,300.678,725.788,300.606,725.536,300.606z"/>
	<path fill="#0099FF" d="M731.544,300.606c-0.27,0-0.486,0.072-0.648,0.252c-0.18,0.162-0.27,0.378-0.27,0.648
		c0,0.252,0.09,0.45,0.27,0.63c0.162,0.18,0.378,0.27,0.648,0.27c0.252,0,0.468-0.09,0.648-0.252c0.18-0.18,0.27-0.396,0.27-0.648
		c0-0.27-0.09-0.486-0.27-0.648C732.012,300.678,731.796,300.606,731.544,300.606z M737.54,300.606
		c-0.252,0-0.468,0.072-0.648,0.252c-0.18,0.162-0.27,0.378-0.27,0.648c0,0.252,0.09,0.45,0.27,0.63
		c0.18,0.18,0.396,0.27,0.648,0.27c0.252,0,0.486-0.09,0.666-0.252c0.162-0.18,0.252-0.396,0.252-0.648
		c0-0.27-0.09-0.486-0.252-0.648C738.026,300.678,737.792,300.606,737.54,300.606z M743.536,300.606
		c-0.252,0-0.468,0.072-0.648,0.252c-0.18,0.162-0.27,0.378-0.27,0.648c0,0.252,0.09,0.45,0.27,0.63
		c0.18,0.18,0.396,0.27,0.648,0.27c0.252,0,0.468-0.09,0.648-0.252c0.18-0.18,0.27-0.396,0.27-0.648c0-0.27-0.09-0.486-0.27-0.648
		C744.004,300.678,743.788,300.606,743.536,300.606z"/>
	<path fill="#0099FF" d="M697.363,319.155c-0.864,2.826-2.287,5.364-4.231,7.596l0.306,1.044c0.81-0.864,1.548-1.764,2.197-2.736
		v10.639h0.99v-12.277c0.648-1.188,1.206-2.466,1.656-3.834L697.363,319.155z M699.541,320.091v5.454h3.691v2.232h-5.131v0.972
		h4.033c-1.152,2.088-2.665,3.762-4.537,5.04l0.558,0.882c1.909-1.404,3.511-3.384,4.771-5.922h0.306v6.912h0.972v-6.912h0.288
		c1.224,2.358,2.773,4.32,4.681,5.868l0.612-0.846c-1.909-1.386-3.403-3.06-4.501-5.022h4.195v-0.972h-5.276v-2.232h3.691v-5.454
		H699.541z M706.924,324.591h-6.41v-3.564h6.41V324.591z"/>
	<path fill="#0099FF" d="M712.212,320.109v15.553h0.972v-14.653h3.115c-0.468,1.548-1.098,3.294-1.927,5.238
		c1.224,1.548,1.836,2.952,1.836,4.212c0,0.396-0.126,0.666-0.36,0.828c-0.252,0.18-0.756,0.288-1.476,0.324
		c-0.144,0-0.306-0.018-0.522-0.054l0.306,0.972c1.188,0,1.999-0.198,2.467-0.576c0.36-0.306,0.54-0.81,0.558-1.494
		c-0.09-1.35-0.702-2.808-1.819-4.356c0.738-1.8,1.368-3.546,1.909-5.238v-0.756H712.212z M719.576,324.555v0.9h5.528v-0.9H719.576z
		 M716.983,334.024v0.936h10.587v-0.936h-3.331c0.936-2.052,1.728-4.392,2.377-7.038l-0.954-0.252
		c-0.684,2.898-1.476,5.328-2.395,7.29H716.983z M718.874,327.435l-0.828,0.288c0.702,1.62,1.278,3.33,1.729,5.112l0.846-0.216
		C720.116,330.676,719.54,328.948,718.874,327.435z M721.737,326.697l-0.828,0.288c0.576,1.584,1.044,3.24,1.422,4.968l0.846-0.216
		C722.745,329.848,722.277,328.173,721.737,326.697z M721.845,319.335c-1.188,2.538-2.899,4.608-5.096,6.21l0.504,0.774
		c2.017-1.404,3.709-3.402,5.042-6.012c1.116,2.394,2.827,4.41,5.114,6.03l0.54-0.81c-2.449-1.782-4.195-3.852-5.203-6.192H721.845z
		"/>
	<path fill="#0099FF" d="M734.695,319.425c-1.188,3.51-2.953,6.3-5.276,8.352l0.756,0.666c2.233-1.98,4.051-4.878,5.438-8.658
		L734.695,319.425z M740.367,328.966l-0.9,0.288c0.864,1.152,1.674,2.412,2.467,3.816c-2.737,0.432-5.708,0.756-8.949,0.972
		c1.62-1.89,3.223-4.68,4.844-8.388l-0.954-0.306c-2.089,4.806-3.907,7.722-5.474,8.766l0.18,0.936
		c3.997-0.252,7.616-0.63,10.821-1.134c0.288,0.54,0.576,1.116,0.864,1.728l0.9-0.414
		C743.086,333.016,741.825,330.928,740.367,328.966z M740.115,319.299l-0.828,0.468c1.08,3.564,3.007,6.462,5.744,8.712l0.666-0.792
		C743.032,325.527,741.177,322.719,740.115,319.299z"/>
	<path fill="#0099FF" d="M749.328,326.985v5.328h7.706v-5.328H749.328z M756.098,331.414h-5.834v-3.528h5.834V331.414z
		 M760.239,335.536c1.152,0,1.728-0.612,1.728-1.818v-13.609h-13.342v0.936h12.37v12.421c0,0.774-0.324,1.17-0.954,1.17
		l-2.503-0.036l0.252,0.936H760.239z M748.068,323.619v0.918h10.821v-0.918H748.068z"/>
	<path fill="#0099FF" d="M695.04,352.537v12.853h1.098v-5.454h4.105c2.863,0,4.303-1.242,4.303-3.708s-1.44-3.69-4.285-3.69H695.04z
		 M696.138,353.509h4.051c1.098,0,1.927,0.234,2.467,0.702c0.504,0.432,0.774,1.098,0.774,2.016c0,0.918-0.27,1.602-0.774,2.052
		c-0.54,0.45-1.35,0.684-2.467,0.684h-4.051V353.509z"/>
	<path fill="#0099FF" d="M710.701,352.285c-1.26,0-2.269,0.414-3.025,1.242c-0.792,0.828-1.188,1.962-1.188,3.402h1.116
		c0-1.188,0.288-2.106,0.864-2.736c0.54-0.63,1.278-0.936,2.215-0.936c0.882,0,1.584,0.234,2.107,0.702
		c0.522,0.468,0.792,1.134,0.792,1.98c0,0.882-0.36,1.71-1.062,2.466c-0.342,0.342-1.062,0.918-2.179,1.71
		c-1.278,0.882-2.179,1.62-2.701,2.214c-0.864,0.954-1.278,1.98-1.278,3.06h8.354v-1.008h-7.004c0.198-0.99,1.206-2.106,3.043-3.348
		c1.368-0.936,2.251-1.62,2.665-2.052c0.846-0.9,1.278-1.908,1.278-3.024c0-1.116-0.378-1.998-1.134-2.664
		C712.808,352.609,711.854,352.285,710.701,352.285z"/>
	<path fill="#0099FF" d="M717.252,352.537v12.853h1.098v-5.454h4.105c2.863,0,4.303-1.242,4.303-3.708s-1.44-3.69-4.285-3.69
		H717.252z M718.35,353.509h4.051c1.098,0,1.927,0.234,2.467,0.702c0.504,0.432,0.774,1.098,0.774,2.016
		c0,0.918-0.27,1.602-0.774,2.052c-0.54,0.45-1.35,0.684-2.467,0.684h-4.051V353.509z"/>
	<path fill="#0099FF" d="M733.813,351.817v0.864h4.555v1.368h-4.069v0.792h4.069v1.368h-5.24v0.882h11.451v-0.882h-5.24v-1.368
		h4.123v-0.792h-4.123v-1.368h4.573v-0.864h-4.573v-1.098h-0.972v1.098H733.813z M743.302,358.441h-8.787v5.904h0.954v-5.022h6.878
		v4.896h0.954V358.441z M738.495,360.259c0,1.368-0.27,2.52-0.792,3.456c-0.702,1.08-2.089,1.98-4.141,2.682l0.612,0.756
		c2.341-0.828,3.835-1.908,4.519-3.222c0.504-1.008,0.756-2.232,0.756-3.672H738.495z M739.827,364.166l-0.522,0.774
		c1.549,0.54,3.079,1.296,4.573,2.268l0.54-0.828C743.05,365.516,741.519,364.778,739.827,364.166z M730.446,356.443v10.746h0.99
		v-12.421c0.612-1.152,1.134-2.394,1.567-3.708l-0.9-0.414c-0.846,2.79-2.233,5.292-4.159,7.524l0.324,1.026
		C729.06,358.333,729.798,357.415,730.446,356.443z"/>
	<path fill="#0099FF" d="M750.355,357.469c0.612,0.72,1.368,1.692,2.251,2.916l0.576-0.846c-0.954-1.152-1.891-2.178-2.827-3.096
		v-1.134h2.503v-0.954h-2.503v-3.618h-0.972v3.618h-2.935v0.954h2.917c-0.648,2.376-1.747,4.482-3.295,6.354l0.432,1.062
		c1.224-1.638,2.197-3.492,2.881-5.58v9.936h0.972V357.469z M760.402,352.879c-0.45,3.042-1.387,5.706-2.809,7.974
		c-1.458-2.358-2.305-5.022-2.521-7.974H760.402z M757.035,361.682c-1.26,1.782-2.863,3.312-4.826,4.608l0.63,0.774
		c1.891-1.224,3.493-2.718,4.789-4.518c1.152,1.62,2.611,3.132,4.375,4.5l0.648-0.774c-1.818-1.35-3.313-2.862-4.465-4.536
		c1.584-2.466,2.629-5.418,3.169-8.874v-0.936h-7.994v0.954h0.774C754.388,356.119,755.342,359.053,757.035,361.682z"/>
</g>
</svg>
