<?xml version="1.0" encoding="utf-8"?>
<!-- Generator: Adobe Illustrator 17.0.0, SVG Export Plug-In . SVG Version: 6.00 Build 0)  -->
<!DOCTYPE svg PUBLIC "-//W3C//DTD SVG 1.1//EN" "http://www.w3.org/Graphics/SVG/1.1/DTD/svg11.dtd">
<svg version="1.1" id="图层_1" xmlns="http://www.w3.org/2000/svg" xmlns:xlink="http://www.w3.org/1999/xlink" x="0px" y="0px"
	 width="350px" height="350px" viewBox="0 0 350 350" enable-background="new 0 0 350 350" xml:space="preserve">
<g>
	<path fill-rule="evenodd" clip-rule="evenodd" fill="#D9EEFF" d="M79.704,138.619h74.5v41.5h-74.5V138.619z"/>
	<path fill-rule="evenodd" clip-rule="evenodd" fill="#D9EEFF" d="M202.704,179.619h77v39.882h-77V179.619z"/>
	<path fill-rule="evenodd" clip-rule="evenodd" fill="#D9EEFF" d="M161.704,220.619h34.5v75.5h-34.5V220.619z"/>
	<path fill-rule="evenodd" clip-rule="evenodd" fill="none" stroke="#666666" stroke-miterlimit="10" d="M305.454,289.273
		l4.596,4.596l-4.596,4.596l-4.596-4.596L305.454,289.273z"/>
	<path fill-rule="evenodd" clip-rule="evenodd" fill="none" stroke="#666666" stroke-miterlimit="10" d="M305.454,285.119
		c4.832,0,8.75,3.917,8.75,8.75c0,4.832-3.918,8.75-8.75,8.75c-4.832,0-8.75-3.918-8.75-8.75
		C296.704,289.036,300.622,285.119,305.454,285.119z"/>
	<path fill-rule="evenodd" clip-rule="evenodd" fill="none" stroke="#666666" stroke-miterlimit="10" d="M265.471,125.854h27.719"/>
	<path fill-rule="evenodd" clip-rule="evenodd" fill="none" stroke="#666666" stroke-miterlimit="10" d="M292.082,109.774v12.199"/>
	<path fill-rule="evenodd" clip-rule="evenodd" fill="none" stroke="#666666" stroke-miterlimit="10" d="M279.885,109.774v12.199"/>
	<path fill-rule="evenodd" clip-rule="evenodd" fill="none" stroke="#666666" stroke-miterlimit="10" d="M267.689,109.774v12.199"/>
	<path fill-rule="evenodd" clip-rule="evenodd" fill="none" stroke="#666666" stroke-miterlimit="10" d="M279.885,99.239
		l-18.295,7.763h34.926L279.885,99.239z"/>
	<path fill-rule="evenodd" clip-rule="evenodd" fill="#666666" d="M93.548,86.616c0.743,0,1.345,0.575,1.345,1.284
		c0,0.709-0.602,1.284-1.345,1.284c-0.743,0-1.345-0.575-1.345-1.284C92.203,87.191,92.805,86.616,93.548,86.616z"/>
	<path fill-rule="evenodd" clip-rule="evenodd" fill="#666666" d="M84.126,89.709c0.735,0,1.332,0.596,1.332,1.331
		c0,0.736-0.596,1.332-1.332,1.332c-0.736,0-1.332-0.596-1.332-1.332C82.795,90.306,83.391,89.709,84.126,89.709z"/>
	<path fill-rule="evenodd" clip-rule="evenodd" fill="#666666" d="M79.001,95.061c0.704,0,1.275,0.557,1.275,1.245
		c0,0.688-0.571,1.245-1.275,1.245s-1.275-0.558-1.275-1.245C77.726,95.619,78.297,95.061,79.001,95.061z"/>
	<path fill-rule="evenodd" clip-rule="evenodd" fill="none" stroke="#666666" stroke-miterlimit="10" d="M76.98,102.222h18.849"/>
	<path fill-rule="evenodd" clip-rule="evenodd" fill="none" stroke="#666666" stroke-miterlimit="10" d="M78.865,95.906l5.116-5
		l4.847,2.368l4.578-5.526"/>
	<path fill-rule="evenodd" clip-rule="evenodd" fill="none" stroke="#666666" stroke-miterlimit="10" d="M93.944,90.906v11.579"/>
	<path fill-rule="evenodd" clip-rule="evenodd" fill="none" stroke="#666666" stroke-miterlimit="10" d="M89.097,96.959v5.526"/>
	<path fill-rule="evenodd" clip-rule="evenodd" fill="none" stroke="#666666" stroke-miterlimit="10" d="M84.25,94.327v8.158"/>
	<path fill-rule="evenodd" clip-rule="evenodd" fill="none" stroke="#666666" stroke-miterlimit="10" d="M79.134,99.064v3.421"/>
	<path fill-rule="evenodd" clip-rule="evenodd" fill="none" stroke="#666666" stroke-width="1.0262" stroke-miterlimit="10" d="
		M196.187,50.416v23.502"/>
	<path fill-rule="evenodd" clip-rule="evenodd" fill="none" stroke="#666666" stroke-width="0.9748" stroke-miterlimit="10" d="
		M173.454,50.863v9.089"/>
	<path fill-rule="evenodd" clip-rule="evenodd" fill="none" stroke="#666666" stroke-miterlimit="10" d="M181.187,75.914
		c0,0,10.103,1.229,15.227-2.505"/>
	<path fill-rule="evenodd" clip-rule="evenodd" fill="none" stroke="#666666" stroke-miterlimit="10" d="M181.187,70.448
		c0,0,9.876,1.457,15-2.277"/>
	<path fill-rule="evenodd" clip-rule="evenodd" fill="none" stroke="#666666" stroke-miterlimit="10" d="M181.187,65.438
		c0,0,9.876,1.457,15-2.277"/>
	<path fill-rule="evenodd" clip-rule="evenodd" fill="none" stroke="#666666" stroke-miterlimit="10" d="M173.915,57.24
		c0,0,9.487,7.019,22.273,0.455"/>
	<path fill-rule="evenodd" clip-rule="evenodd" fill="none" stroke="#666666" stroke-miterlimit="10" d="M173.647,56.972
		c0,0,9.755,7.286,22.541,0.723"/>
	<path fill-rule="evenodd" clip-rule="evenodd" fill="none" stroke="#666666" stroke-width="0.9902" stroke-miterlimit="10" d="
		M184.821,46.306c6.277,0,11.366,1.84,11.366,4.109c0,2.27-5.089,4.11-11.366,4.11c-6.278,0-11.367-1.84-11.367-4.11
		C173.454,48.146,178.543,46.306,184.821,46.306z"/>
	<path fill-rule="evenodd" clip-rule="evenodd" fill="none" stroke="#666666" stroke-miterlimit="10" d="M180.733,64.527v17.308"/>
	<path fill-rule="evenodd" clip-rule="evenodd" fill="none" stroke="#666666" stroke-miterlimit="10" d="M158.46,64.072v17.308"/>
	<path fill-rule="evenodd" clip-rule="evenodd" fill="none" stroke="#666666" stroke-miterlimit="10" d="M158.46,80.924
		c0,0,9.487,7.019,22.273,0.455"/>
	<path fill-rule="evenodd" clip-rule="evenodd" fill="none" stroke="#666666" stroke-miterlimit="10" d="M158.46,75.458
		c0,0,9.487,7.019,22.273,0.456"/>
	<path fill-rule="evenodd" clip-rule="evenodd" fill="none" stroke="#666666" stroke-miterlimit="10" d="M158.46,70.448
		c0,0,9.487,7.018,22.273,0.455"/>
	<path fill-rule="evenodd" clip-rule="evenodd" fill="none" stroke="#666666" stroke-width="0.9938" stroke-miterlimit="10" d="
		M169.753,59.525c6.324,0,11.451,1.833,11.451,4.094c0,2.261-5.127,4.094-11.451,4.094c-6.324,0-11.451-1.833-11.451-4.094
		C158.302,61.358,163.429,59.525,169.753,59.525z"/>
	<path fill-rule="evenodd" clip-rule="evenodd" fill="none" stroke="#666666" stroke-miterlimit="10" d="M87.798,76.682
		c10.562,0,19.125,8.57,19.125,19.14c0,10.571-8.563,19.141-19.125,19.141c-10.562,0-19.125-8.57-19.125-19.141
		C68.673,85.251,77.236,76.682,87.798,76.682z"/>
	<path fill-rule="evenodd" clip-rule="evenodd" fill="none" stroke="#666666" stroke-miterlimit="10" d="M135.204,202.619v66"/>
	<path fill-rule="evenodd" clip-rule="evenodd" fill="none" stroke="#666666" stroke-miterlimit="10" d="M279.064,85.931
		c15.162,0,27.453,12.291,27.453,27.453c0,15.162-12.291,27.453-27.453,27.453s-27.453-12.291-27.453-27.453
		C251.611,98.223,263.902,85.931,279.064,85.931z"/>
	<path fill-rule="evenodd" clip-rule="evenodd" fill="none" stroke="#666666" stroke-miterlimit="10" d="M178.72,29.119
		c19.442,0,35.203,15.768,35.203,35.219s-15.761,35.219-35.203,35.219c-19.442,0-35.203-15.768-35.203-35.219
		S159.278,29.119,178.72,29.119z"/>
	<g>
		<g>
			<g>
				<line fill="none" stroke="#666666" stroke-miterlimit="10" x1="107.685" y1="113.119" x2="108.316" y2="113.895"/>
				
					<line fill="none" stroke="#666666" stroke-miterlimit="10" stroke-dasharray="2.1567,2.1567" x1="109.678" y1="115.567" x2="119.889" y2="128.112"/>
				<line fill="none" stroke="#666666" stroke-miterlimit="10" x1="120.57" y1="128.949" x2="121.201" y2="129.724"/>
			</g>
		</g>
	</g>
	<g>
		<g>
			<g>
				<line fill="none" stroke="#666666" stroke-miterlimit="10" x1="259.238" y1="141.731" x2="258.592" y2="142.494"/>
				
					<line fill="none" stroke="#666666" stroke-miterlimit="10" stroke-dasharray="1.8668,1.8668" x1="257.386" y1="143.919" x2="241.11" y2="163.159"/>
				<line fill="none" stroke="#666666" stroke-miterlimit="10" x1="240.507" y1="163.872" x2="239.861" y2="164.635"/>
			</g>
		</g>
	</g>
	<g>
		<g>
			<g>
				<line fill="none" stroke="#666666" stroke-miterlimit="10" x1="179.541" y1="106.447" x2="179.541" y2="107.447"/>
				
					<line fill="none" stroke="#666666" stroke-miterlimit="10" stroke-dasharray="1.9961,1.9961" x1="179.541" y1="109.443" x2="179.541" y2="184.296"/>
				<line fill="none" stroke="#666666" stroke-miterlimit="10" x1="179.541" y1="185.294" x2="179.541" y2="186.294"/>
			</g>
		</g>
	</g>
	<path fill-rule="evenodd" clip-rule="evenodd" fill="none" stroke="#0099FF" stroke-width="0.9825" stroke-miterlimit="10" d="
		M241.781,188.621v20.748"/>
	<path fill-rule="evenodd" clip-rule="evenodd" fill="none" stroke="#0099FF" stroke-miterlimit="10" d="M230.707,198.611h21.495"/>
	<path fill-rule="evenodd" clip-rule="evenodd" fill="none" stroke="#0099FF" stroke-miterlimit="10" d="M230.707,209.111h21.495"/>
	<path fill-rule="evenodd" clip-rule="evenodd" fill="none" stroke="#0099FF" stroke-miterlimit="10" d="M230.707,188.611h21.495"/>
	<path fill-rule="evenodd" clip-rule="evenodd" fill="none" stroke="#0099FF" stroke-miterlimit="10" d="M252.202,188.121v21.495"/>
	<path fill-rule="evenodd" clip-rule="evenodd" fill="none" stroke="#0099FF" stroke-miterlimit="10" d="M230.712,188.121v21.495"/>
	<path fill-rule="evenodd" clip-rule="evenodd" fill="none" stroke="#0099FF" stroke-miterlimit="10" d="M242.212,232.126v63.346"/>
	<path fill-rule="evenodd" clip-rule="evenodd" fill="none" stroke="#666666" stroke-miterlimit="10" d="M283.764,223.447h-85.365"
		/>
	<path fill-rule="evenodd" clip-rule="evenodd" fill="none" stroke="#0099FF" stroke-width="1.0307" stroke-miterlimit="10" d="
		M184.61,225.566v25.522"/>
	<path fill-rule="evenodd" clip-rule="evenodd" fill="none" stroke="#0099FF" stroke-miterlimit="10" d="M164.736,267.878h22.969
		v27.594h-22.969V267.878z"/>
	<path fill-rule="evenodd" clip-rule="evenodd" fill="none" stroke="#0099FF" stroke-miterlimit="10" d="M175.579,225.557h17.875
		v25.562h-17.875V225.557z"/>
	<path fill-rule="evenodd" clip-rule="evenodd" fill="none" stroke="#666666" stroke-width="1.012" stroke-miterlimit="10" d="
		M198.997,218.387H158.2"/>
	<path fill-rule="evenodd" clip-rule="evenodd" fill="none" stroke="#666666" stroke-width="1.026" stroke-miterlimit="10" d="
		M158.166,209.186h40.32v84.857"/>
	<path fill-rule="evenodd" clip-rule="evenodd" fill="none" stroke="#0099FF" stroke-miterlimit="10" d="M117.7,176.128v-33.017"/>
	<path fill-rule="evenodd" clip-rule="evenodd" fill="none" stroke="#0099FF" stroke-miterlimit="10" d="M130.705,159.617h-26.493"
		/>
	<path fill-rule="evenodd" clip-rule="evenodd" fill="none" stroke="#0099FF" stroke-miterlimit="10" d="M104.079,142.744h27.094
		v33.75h-27.094V142.744z"/>
	<path fill-rule="evenodd" clip-rule="evenodd" fill="none" stroke="#666666" stroke-miterlimit="10" d="M99.209,294.127v-92.509"/>
	<path fill-rule="evenodd" clip-rule="evenodd" fill="none" stroke="#666666" stroke-miterlimit="10" d="M85.611,201.557h27.094
		v93.531H85.611V201.557z"/>
	<path fill-rule="evenodd" clip-rule="evenodd" fill="none" stroke="#666666" stroke-miterlimit="10" d="M120.704,202.619h27v66h-27
		V202.619z"/>
	<path fill-rule="evenodd" clip-rule="evenodd" fill="none" stroke="#0099FF" stroke-width="1.0354" stroke-miterlimit="10" d="
		M176.705,267.503v27.875"/>
	<path fill-rule="evenodd" clip-rule="evenodd" fill="none" stroke="#0099FF" stroke-miterlimit="10" d="M252.701,295.59v-63.465
		h-22.502v63.999"/>
	<path fill-rule="evenodd" clip-rule="evenodd" fill="none" stroke="#666666" stroke-miterlimit="10" d="M158.2,295.626V135.089
		l-82.991-0.507V295.12"/>
	<path fill-rule="evenodd" clip-rule="evenodd" fill="none" stroke="#666666" stroke-width="0.995" stroke-miterlimit="10" d="
		M158.2,188.133H75.313"/>
	<path fill-rule="evenodd" clip-rule="evenodd" fill="none" stroke="#666666" stroke-width="0.995" stroke-miterlimit="10" d="
		M158.2,184.063H75.313"/>
	<path fill-rule="evenodd" clip-rule="evenodd" fill="none" stroke="#666666" stroke-miterlimit="10" d="M283.77,295.524V175.216
		h-85.387v120.308"/>
	<path fill-rule="evenodd" clip-rule="evenodd" fill="#FFFFFF" d="M64.947,208.637l14.414,0.555v30.497l23.284,1.109v28.834H77.697
		h-7.761L64.947,208.637z"/>
	<g>
		<path fill-rule="evenodd" clip-rule="evenodd" fill="#D9EEFF" d="M87.643,249.54l5.903,5.925l-5.903,5.925l-5.903-5.925
			L87.643,249.54z"/>
		<path fill-rule="evenodd" clip-rule="evenodd" fill="#D9EEFF" d="M33.217,245.933l5.903,5.925l-5.903,5.925l-5.903-5.925
			L33.217,245.933z"/>
		<path fill-rule="evenodd" clip-rule="evenodd" fill="#D9EEFF" d="M57.688,221.124l10.892,10.932l-10.892,10.932l-10.892-10.932
			L57.688,221.124z"/>
		<path fill-rule="evenodd" clip-rule="evenodd" fill="none" stroke="#666666" stroke-miterlimit="10" d="M57.876,213.463
			c10.347,0,18.734,8.423,18.734,18.813s-8.388,18.812-18.734,18.812s-18.734-8.423-18.734-18.812S47.53,213.463,57.876,213.463z"/>
		<path fill-rule="evenodd" clip-rule="evenodd" fill="none" stroke="#666666" stroke-miterlimit="10" d="M87.907,243.369
			c6.515,0,11.797,5.302,11.797,11.844c0,6.541-5.282,11.844-11.797,11.844c-6.515,0-11.797-5.303-11.797-11.844
			C76.111,248.672,81.392,243.369,87.907,243.369z"/>
		<path fill-rule="evenodd" clip-rule="evenodd" fill="none" stroke="#666666" stroke-miterlimit="10" d="M33.486,241.307
			c5.678,0,10.281,4.617,10.281,10.312c0,5.696-4.603,10.313-10.281,10.313c-5.678,0-10.281-4.617-10.281-10.313
			C23.204,245.924,27.807,241.307,33.486,241.307z"/>
		<path fill-rule="evenodd" clip-rule="evenodd" fill="none" stroke="#666666" stroke-miterlimit="10" d="M41.689,258.3
			l14.89,13.915"/>
		<path fill-rule="evenodd" clip-rule="evenodd" fill="none" stroke="#666666" stroke-miterlimit="10" d="M57.093,251.085v49.989"/>
		<path fill-rule="evenodd" clip-rule="evenodd" fill="none" stroke="#666666" stroke-miterlimit="10" d="M79.171,263.453
			l-22.592,19.584"/>
	</g>
	<path fill-rule="evenodd" clip-rule="evenodd" fill="#FFFFFF" d="M281.204,295.619h43v8h-43V295.619z"/>
	<path fill-rule="evenodd" clip-rule="evenodd" fill="#FFFFFF" stroke="#69BBFF" stroke-miterlimit="10" d="M108.907,112.076
		c2.097,0,3.797,1.7,3.797,3.797s-1.7,3.797-3.797,3.797c-2.097,0-3.797-1.7-3.797-3.797S106.811,112.076,108.907,112.076z"/>
	<path fill-rule="evenodd" clip-rule="evenodd" fill="#0099FF" d="M108.923,113.983c1.053,0,1.906,0.853,1.906,1.906
		c0,1.053-0.853,1.906-1.906,1.906c-1.053,0-1.906-0.854-1.906-1.906C107.017,114.836,107.87,113.983,108.923,113.983z"/>
	<path fill-rule="evenodd" clip-rule="evenodd" fill="#FFFFFF" stroke="#69BBFF" stroke-miterlimit="10" d="M179.541,104.399
		c2.097,0,3.797,1.7,3.797,3.797s-1.7,3.797-3.797,3.797c-2.097,0-3.797-1.7-3.797-3.797S177.444,104.399,179.541,104.399z"/>
	<path fill-rule="evenodd" clip-rule="evenodd" fill="#0099FF" d="M179.557,106.305c1.053,0,1.906,0.853,1.906,1.906
		c0,1.053-0.854,1.906-1.906,1.906c-1.053,0-1.906-0.854-1.906-1.906C177.651,107.159,178.504,106.305,179.557,106.305z"/>
	<path fill-rule="evenodd" clip-rule="evenodd" fill="#FFFFFF" stroke="#69BBFF" stroke-miterlimit="10" d="M258.541,139.315
		c2.097,0,3.797,1.7,3.797,3.797s-1.7,3.797-3.797,3.797c-2.097,0-3.797-1.7-3.797-3.797S256.444,139.315,258.541,139.315z"/>
	<path fill-rule="evenodd" clip-rule="evenodd" fill="#0099FF" d="M258.557,141.221c1.053,0,1.906,0.853,1.906,1.906
		c0,1.053-0.853,1.906-1.906,1.906c-1.053,0-1.906-0.854-1.906-1.906C256.651,142.075,257.504,141.221,258.557,141.221z"/>
	<rect x="24.066" y="300.574" fill-rule="evenodd" clip-rule="evenodd" fill="#666666" width="174.931" height="1"/>
	<rect x="110.021" y="305.619" fill-rule="evenodd" clip-rule="evenodd" fill="#666666" width="229.184" height="1"/>
</g>
</svg>
