<?xml version="1.0" encoding="utf-8"?>
<!-- Generator: Adobe Illustrator 17.0.0, SVG Export Plug-In . SVG Version: 6.00 Build 0)  -->
<!DOCTYPE svg PUBLIC "-//W3C//DTD SVG 1.1//EN" "http://www.w3.org/Graphics/SVG/1.1/DTD/svg11.dtd">
<svg version="1.1" id="图层_1" xmlns="http://www.w3.org/2000/svg" xmlns:xlink="http://www.w3.org/1999/xlink" x="0px" y="0px"
	 width="152px" height="353px" viewBox="0 0 152 353" enable-background="new 0 0 152 353" xml:space="preserve">
<linearGradient id="SVGID_1_" gradientUnits="userSpaceOnUse" x1="14.0542" y1="69.966" x2="79.7462" y2="69.966">
	<stop  offset="0" style="stop-color:#FFFFFF"/>
	<stop  offset="1" style="stop-color:#B3DFFF"/>
</linearGradient>
<path fill="url(#SVGID_1_)" d="M46.9,37.12c18.14,0,32.846,14.706,32.846,32.846c0,18.141-14.706,32.846-32.846,32.846
	S14.054,88.106,14.054,69.966C14.054,51.826,28.76,37.12,46.9,37.12z"/>
<g>
	<g>
		
			<linearGradient id="SVGID_2_" gradientUnits="userSpaceOnUse" x1="21.3369" y1="38.6678" x2="65.7942" y2="38.6678" gradientTransform="matrix(1 0 0 1 3.3347 31.2982)">
			<stop  offset="0" style="stop-color:#0071F1"/>
			<stop  offset="1" style="stop-color:#025EC7"/>
		</linearGradient>
		<path fill="url(#SVGID_2_)" d="M69.129,61.785l-0.047-0.047c-5.968-3.12-10.859-8.013-13.979-13.983l-0.019-0.019l-8.175,7.085h0
			l-0.005,0.005l-0.001,0.001l0.003,0.002c3.22,6.563,8.553,11.899,15.115,15.119l0.016,0.016L62,70
			c-6.536,3.217-11.851,8.533-15.067,15.07l-0.029,0.03c-3.22-6.562-8.553-11.897-15.114-15.116l-0.02-0.021l-7.089,8.184
			l0.013,0.012c5.995,3.127,10.906,8.04,14.033,14.037l8.175-7.085h0l0.001-0.001l8.177,7.086l0.011-0.01
			c3.124-5.989,8.029-10.895,14.016-14.02l0.019-0.019l-7.085-8.179L69.129,61.785z M31.796,69.933
			c6.537-3.217,11.851-8.534,15.068-15.072l0.034-0.034l-8.18-7.09c-3.124,5.985-8.027,10.889-14.011,14.013l-0.035,0.035
			l7.089,8.183L31.796,69.933z"/>
	</g>
</g>
<linearGradient id="SVGID_3_" gradientUnits="userSpaceOnUse" x1="26.7538" y1="139.3308" x2="62.5651" y2="139.3308">
	<stop  offset="0" style="stop-color:#FFB847"/>
	<stop  offset="0.9987" style="stop-color:#FE9623"/>
</linearGradient>
<path fill-rule="evenodd" clip-rule="evenodd" fill="url(#SVGID_3_)" d="M44.659,121.387c9.889,0,17.906,8.034,17.906,17.944
	c0,9.91-8.017,17.944-17.906,17.944c-9.889,0-17.906-8.034-17.906-17.944C26.754,129.421,34.771,121.387,44.659,121.387z"/>
<linearGradient id="SVGID_4_" gradientUnits="userSpaceOnUse" x1="26.0803" y1="185.0014" x2="61.8916" y2="185.0014">
	<stop  offset="0" style="stop-color:#3FEAAF"/>
	<stop  offset="0.7355" style="stop-color:#0BE873"/>
</linearGradient>
<path fill-rule="evenodd" clip-rule="evenodd" fill="url(#SVGID_4_)" d="M43.986,167.058c9.889,0,17.906,8.034,17.906,17.944
	s-8.017,17.944-17.906,17.944c-9.889,0-17.906-8.034-17.906-17.944S34.097,167.058,43.986,167.058z"/>
<linearGradient id="SVGID_5_" gradientUnits="userSpaceOnUse" x1="26.08" y1="237.5093" x2="61.8913" y2="237.5093">
	<stop  offset="0" style="stop-color:#FC7EA0"/>
	<stop  offset="1" style="stop-color:#F65A7E"/>
</linearGradient>
<path fill-rule="evenodd" clip-rule="evenodd" fill="url(#SVGID_5_)" d="M43.986,219.565c9.889,0,17.906,8.034,17.906,17.944
	s-8.017,17.944-17.906,17.944c-9.889,0-17.906-8.034-17.906-17.944S34.097,219.565,43.986,219.565z"/>
<path fill="#FFFFFF" d="M54.542,130.941c-0.003-0.22-0.097-0.433-0.256-0.583c-0.15-0.142-0.375-0.225-0.599-0.217
	c-4.339,0.274-8.405-2.544-8.567-2.658c-0.271-0.191-0.65-0.191-0.919,0c-0.156,0.109-3.865,2.677-7.963,2.677
	c-0.201,0-0.402-0.006-0.656-0.021c-0.203,0-0.397,0.078-0.549,0.22c-0.159,0.15-0.252,0.363-0.255,0.583
	c-0.04,2.386-0.001,9.837,0,9.906c0,1.295,0.372,2.532,1.136,3.781c0.116,0.191,0.361,0.527,1.228,1.434
	c0.835,0.873,3.391,2.976,3.711,3.237l1.754,1.299c0.582,0.465,1.312,0.722,2.054,0.725h0.001h0.001
	c0.74-0.003,1.469-0.26,2.043-0.719l1.792-1.329c0.028-0.023,2.803-2.295,3.68-3.213c0.868-0.907,1.112-1.243,1.228-1.434
	c0.765-1.25,1.137-2.485,1.137-3.776C54.543,140.78,54.582,133.304,54.542,130.941z M53.082,130.726c0.212,0,0.427-0.006,0.653-0.02
	c0.06,0,0.118,0.022,0.161,0.063c0.049,0.047,0.078,0.113,0.08,0.182c0.01,0.601,0.015,1.537,0.017,2.596l-9.05,4.707v-10.207
	C45.754,128.59,49.191,130.726,53.082,130.726z M35.422,130.77c0.044-0.042,0.1-0.064,0.172-0.064c0,0,0.001,0,0.002,0
	c4.308,0.275,8.217-2.27,8.864-2.715v10.187l-9.122-4.745l-0.01-0.005c0.002-1.006,0.007-1.894,0.016-2.476
	C35.345,130.882,35.374,130.816,35.422,130.77z M35.326,133.968l8.928,4.644l-8.488,4.415c-0.272-0.719-0.423-1.441-0.423-2.182
	C35.344,140.795,35.324,137.006,35.326,133.968z M41.18,148.836c-0.114-0.094-2.804-2.302-3.629-3.166
	c-0.63-0.659-1.007-1.096-1.154-1.338c-0.175-0.285-0.326-0.57-0.457-0.854l8.52-4.432v11.691c-0.544-0.043-1.072-0.241-1.508-0.589
	L41.18,148.836z M52.922,144.333c-0.146,0.241-0.524,0.679-1.154,1.337c-0.84,0.879-3.601,3.143-3.638,3.173l-1.77,1.312
	c-0.408,0.326-0.904,0.52-1.417,0.576v-11.76l8.476,4.409C53.279,143.697,53.117,144.014,52.922,144.333z M53.975,140.85
	c0,0.704-0.137,1.392-0.384,2.077l-8.295-4.315l8.697-4.524C53.995,137.103,53.976,140.799,53.975,140.85z"/>
<path fill="#FFFFFF" d="M51.162,175.539H36.302l-4.069,6.562l11.259,14.364l12.247-14.366L51.162,175.539z M43.747,176.506
	l4.458,5.292h-8.471L43.747,176.506z M39.298,181.436l-2.245-5.33h6.286L39.298,181.436z M48.258,182.366l-4.738,12.17l-4.02-12.17
	H48.258z M38.904,182.366l4.182,12.661l-9.925-12.661H38.904z M48.809,182.514l0.018,0.022l0.072-0.17h5.868l-10.859,12.738
	L48.809,182.514z M49.137,181.798l2.146-5.095l3.554,5.095H49.137z M50.899,176.154l-2.232,5.299l-0.018-0.007l-4.498-5.339h6.714
	L50.899,176.154z M36.51,176.279l2.325,5.519h-5.747L36.51,176.279z"/>
<g>
	<g>
		<g>
			<path fill="#FFFFFF" d="M33.075,236.369c-0.903,0-1.635,0.758-1.635,1.692c0,0.934,0.732,1.692,1.635,1.692
				c0.903,0,1.635-0.758,1.635-1.692C34.71,237.126,33.978,236.369,33.075,236.369z M54.877,236.369
				c-0.913,0-1.654,0.758-1.654,1.692c0,0.934,0.74,1.692,1.654,1.692c0.913,0,1.654-0.758,1.654-1.692
				C56.531,237.126,55.791,236.369,54.877,236.369z M46.153,246.291c-0.903,0-1.635,0.749-1.635,1.673
				c0,0.924,0.732,1.673,1.635,1.673c0.903,0,1.635-0.749,1.635-1.673C47.787,247.04,47.055,246.291,46.153,246.291z
				 M42.313,225.382c-0.903,0-1.635,0.74-1.635,1.654s0.732,1.654,1.635,1.654c0.903,0,1.635-0.74,1.635-1.654
				S43.216,225.382,42.313,225.382z"/>
		</g>
	</g>
	<g>
		<g>
			<path fill="#FFFFFF" d="M45.765,248.034l-0.885-0.708l0.354-0.442l0.885,0.708L45.765,248.034z M46.75,247.737l-0.426-0.374
				l0.749-0.852l0.426,0.374L46.75,247.737z M44.216,246.795l-0.885-0.708l0.354-0.442l0.885,0.708L44.216,246.795z M48.06,246.247
				l-0.426-0.374l0.749-0.852l0.426,0.374L48.06,246.247z M42.667,245.555l-0.885-0.708l0.354-0.442l0.885,0.708L42.667,245.555z
				 M49.37,244.757l-0.426-0.374l0.749-0.852l0.426,0.374L49.37,244.757z M41.117,244.315l-0.885-0.708l0.354-0.442l0.885,0.708
				L41.117,244.315z M50.68,243.266l-0.426-0.374l0.749-0.852l0.426,0.374L50.68,243.266z M39.568,243.075l-0.885-0.708l0.354-0.442
				l0.885,0.708L39.568,243.075z M38.019,241.835l-0.885-0.708l0.354-0.442l0.885,0.708L38.019,241.835z M51.991,241.777
				l-0.426-0.374l0.749-0.852l0.426,0.374L51.991,241.777z M36.47,240.596l-0.885-0.708l0.354-0.442l0.885,0.708L36.47,240.596z
				 M53.301,240.286l-0.426-0.374l0.749-0.852l0.426,0.374L53.301,240.286z M34.921,239.356l-0.885-0.708l0.354-0.442l0.885,0.708
				L34.921,239.356z M54.612,238.796l-0.426-0.374l0.3-0.342l-0.093-0.085l0.385-0.417l0.499,0.461L54.612,238.796z M33.371,238.116
				l-0.708-0.567l0.52-0.618l0.434,0.365l-0.146,0.173l0.255,0.205L33.371,238.116z M53.769,237.419l-0.833-0.769l0.385-0.417
				l0.833,0.769L53.769,237.419z M34.163,236.645l-0.434-0.365l0.729-0.868l0.434,0.365L34.163,236.645z M52.31,236.073
				l-0.833-0.769l0.385-0.417l0.833,0.769L52.31,236.073z M35.44,235.127l-0.434-0.365l0.729-0.868l0.434,0.365L35.44,235.127z
				 M50.852,234.727l-0.833-0.769l0.385-0.417l0.833,0.769L50.852,234.727z M36.717,233.608l-0.434-0.365l0.73-0.868l0.434,0.365
				L36.717,233.608z M49.394,233.381l-0.833-0.769l0.385-0.417l0.833,0.769L49.394,233.381z M37.994,232.089l-0.434-0.365
				l0.729-0.868l0.434,0.365L37.994,232.089z M47.936,232.035l-0.833-0.769l0.385-0.417l0.833,0.769L47.936,232.035z M46.478,230.69
				l-0.833-0.769l0.385-0.417l0.833,0.769L46.478,230.69z M39.271,230.571l-0.434-0.365l0.729-0.868l0.434,0.365L39.271,230.571z
				 M45.02,229.344l-0.833-0.769l0.385-0.417l0.833,0.769L45.02,229.344z M40.548,229.052l-0.434-0.365l0.73-0.868l0.434,0.365
				L40.548,229.052z M43.562,227.998l-0.833-0.769l0.385-0.417l0.833,0.769L43.562,227.998z M41.825,227.533l-0.434-0.365
				l0.729-0.868l0.434,0.365L41.825,227.533z"/>
		</g>
	</g>
	<path fill="#FFFFFF" d="M54.771,238.376l-1.134-0.001l0.001-0.567l1.134,0.001L54.771,238.376z M52.787,238.373l-1.134-0.001
		l0.001-0.567l1.134,0.001L52.787,238.373z M50.803,238.371l-1.134-0.001l0.001-0.567l1.134,0.001L50.803,238.371z M48.819,238.368
		l-1.134-0.001l0.001-0.567l1.134,0.001L48.819,238.368z M46.834,238.366l-1.133-0.001v-0.567l1.134,0.001L46.834,238.366z
		 M44.85,238.363l-1.134-0.001l0.001-0.567l1.134,0.001L44.85,238.363z M42.866,238.361l-1.134-0.001l0.001-0.567l1.134,0.001
		L42.866,238.361z M40.882,238.358l-1.134-0.001l0.001-0.567l1.134,0.001L40.882,238.358z M38.897,238.356l-1.134-0.001l0.001-0.567
		l1.134,0.001L38.897,238.356z M36.913,238.353l-1.134-0.001l0.001-0.567l1.134,0.001L36.913,238.353z M34.929,238.351l-1.134-0.001
		l0.001-0.567l1.134,0.001L34.929,238.351z M32.945,238.348l-0.565,0l0-0.567l0.565,0L32.945,238.348z"/>
	<path fill="#FFFFFF" d="M45.81,248.774l-0.1-0.556l0.558-0.1l0.1,0.556L45.81,248.774z M45.561,247.38l-0.2-1.116l0.558-0.1
		l0.2,1.116L45.561,247.38z M45.212,245.427l-0.2-1.116l0.558-0.1l0.2,1.116L45.212,245.427z M44.862,243.474l-0.199-1.116
		l0.558-0.1l0.199,1.116L44.862,243.474z M44.513,241.521l-0.2-1.116l0.558-0.1l0.2,1.116L44.513,241.521z M44.163,239.567
		l-0.2-1.116l0.558-0.1l0.2,1.116L44.163,239.567z M43.814,237.614l-0.2-1.116l0.558-0.1l0.2,1.116L43.814,237.614z M43.465,235.661
		l-0.2-1.116l0.558-0.1l0.2,1.116L43.465,235.661z M43.115,233.708l-0.2-1.116l0.558-0.1l0.2,1.116L43.115,233.708z M42.766,231.754
		l-0.2-1.116l0.558-0.1l0.2,1.116L42.766,231.754z M42.416,229.801l-0.199-1.116l0.558-0.1l0.2,1.116L42.416,229.801z
		 M42.067,227.848l-0.2-1.116l0.558-0.1l0.2,1.116L42.067,227.848z"/>
</g>
</svg>
