<?xml version="1.0" encoding="utf-8"?>
<!-- Generator: Adobe Illustrator 17.0.0, SVG Export Plug-In . SVG Version: 6.00 Build 0)  -->
<!DOCTYPE svg PUBLIC "-//W3C//DTD SVG 1.1//EN" "http://www.w3.org/Graphics/SVG/1.1/DTD/svg11.dtd">
<svg version="1.1" id="图层_1" xmlns="http://www.w3.org/2000/svg" xmlns:xlink="http://www.w3.org/1999/xlink" x="0px" y="0px"
	 width="350px" height="350px" viewBox="0 0 350 350" enable-background="new 0 0 350 350" xml:space="preserve">
<g>
	<path fill-rule="evenodd" clip-rule="evenodd" fill="#D9EEFF" d="M169.25,249.501h39l5.5,24.5h-49l4.5-24"/>
	<path fill-rule="evenodd" clip-rule="evenodd" fill="#D9EEFF" d="M195.25,110.001h86.5v31.5h-86.5V110.001z"/>
	<path fill-rule="evenodd" clip-rule="evenodd" fill="#D9EEFF" d="M97.25,98.001h86.5v60h-86.5V98.001z"/>
	<path fill-rule="evenodd" clip-rule="evenodd" fill="#D9EEFF" d="M194.75,151.501h77.5v40.5h-77.5V151.501z"/>
	<path fill-rule="evenodd" clip-rule="evenodd" fill="none" stroke="#666666" stroke-miterlimit="10" d="M43.819,139.419
		l-3.163,4.423"/>
	<path fill-rule="evenodd" clip-rule="evenodd" fill="none" stroke="#666666" stroke-miterlimit="10" d="M37.588,139.197
		l3.143,4.445"/>
	<path fill-rule="evenodd" clip-rule="evenodd" fill="none" stroke="#666666" stroke-miterlimit="10" d="M40.731,143.852v6.204"/>
	<path fill-rule="evenodd" clip-rule="evenodd" fill="none" stroke="#666666" stroke-miterlimit="10" d="M35.698,146.174h9.274"/>
	<path fill-rule="evenodd" clip-rule="evenodd" fill="none" stroke="#666666" stroke-miterlimit="10" d="M35.695,143.461h9.278"/>
	<path fill-rule="evenodd" clip-rule="evenodd" fill="none" stroke="#666666" stroke-miterlimit="10" d="M40.563,133.126
		c6.023,0,10.906,4.883,10.906,10.906c0,6.023-4.883,10.906-10.906,10.906s-10.906-4.883-10.906-10.906
		C29.656,138.009,34.539,133.126,40.563,133.126z"/>
	<path fill-rule="evenodd" clip-rule="evenodd" fill="none" stroke="#009CFF" stroke-miterlimit="10" d="M147.646,117.706
		l-7.159,10.103"/>
	<path fill-rule="evenodd" clip-rule="evenodd" fill="none" stroke="#009CFF" stroke-miterlimit="10" d="M133.542,117.2
		l7.114,10.152"/>
	<path fill-rule="evenodd" clip-rule="evenodd" fill="none" stroke="#009CFF" stroke-miterlimit="10" d="M140.654,127.832v14.17"/>
	<path fill-rule="evenodd" clip-rule="evenodd" fill="none" stroke="#009CFF" stroke-miterlimit="10" d="M129.263,133.135h20.992"/>
	<path fill-rule="evenodd" clip-rule="evenodd" fill="none" stroke="#009CFF" stroke-miterlimit="10" d="M129.256,126.938h21"/>
	<path fill-rule="evenodd" clip-rule="evenodd" fill="none" stroke="#666666" stroke-miterlimit="10" d="M128.508,55.046
		l-2.28,3.191"/>
	<path fill-rule="evenodd" clip-rule="evenodd" fill="none" stroke="#666666" stroke-miterlimit="10" d="M124.017,54.886
		l2.265,3.207"/>
	<path fill-rule="evenodd" clip-rule="evenodd" fill="none" stroke="#666666" stroke-miterlimit="10" d="M126.282,58.244v4.476"/>
	<path fill-rule="evenodd" clip-rule="evenodd" fill="none" stroke="#666666" stroke-miterlimit="10" d="M122.655,59.919h6.685"/>
	<path fill-rule="evenodd" clip-rule="evenodd" fill="none" stroke="#666666" stroke-miterlimit="10" d="M122.652,57.962h6.688"/>
	<path fill-rule="evenodd" clip-rule="evenodd" fill="none" stroke="#666666" stroke-miterlimit="10" d="M126.172,50.501
		c4.341,0,7.859,3.526,7.859,7.875c0,4.349-3.519,7.875-7.859,7.875c-4.341,0-7.859-3.525-7.859-7.875
		C118.313,54.026,121.831,50.501,126.172,50.501z"/>
	<path fill-rule="evenodd" clip-rule="evenodd" fill="none" stroke="#666666" stroke-miterlimit="10" d="M317.761,201.215
		l-3.163,4.424"/>
	<path fill-rule="evenodd" clip-rule="evenodd" fill="none" stroke="#666666" stroke-miterlimit="10" d="M311.53,200.994
		l3.142,4.445"/>
	<path fill-rule="evenodd" clip-rule="evenodd" fill="none" stroke="#666666" stroke-miterlimit="10" d="M314.672,205.649v6.204"/>
	<path fill-rule="evenodd" clip-rule="evenodd" fill="none" stroke="#666666" stroke-miterlimit="10" d="M309.64,207.97h9.274"/>
	<path fill-rule="evenodd" clip-rule="evenodd" fill="none" stroke="#666666" stroke-miterlimit="10" d="M309.636,205.257h9.277"/>
	<path fill-rule="evenodd" clip-rule="evenodd" fill="none" stroke="#666666" stroke-miterlimit="10" d="M314.516,194.907
		c6.015,0,10.891,4.883,10.891,10.906c0,6.023-4.876,10.906-10.891,10.906c-6.015,0-10.891-4.883-10.891-10.906
		C303.625,199.79,308.501,194.907,314.516,194.907z"/>
	<path fill-rule="evenodd" clip-rule="evenodd" fill="#666666" d="M116.619,289.259v-0.562H328.25v0.562H116.619z"/>
	<path fill-rule="evenodd" clip-rule="evenodd" fill="#666666" d="M21.75,282.518v-0.561h157.741v0.561H21.75z"/>
	<path fill-rule="evenodd" clip-rule="evenodd" fill="none" stroke="#666666" stroke-miterlimit="10" d="M189.609,215.782
		c3.098,0,5.61,2.518,5.61,5.625c0,3.106-2.511,5.625-5.61,5.625c-3.098,0-5.609-2.518-5.609-5.625
		C184,218.3,186.511,215.782,189.609,215.782z"/>
	<path fill-rule="evenodd" clip-rule="evenodd" fill="none" stroke="#666666" stroke-miterlimit="10" d="M212.049,246.002
		l7.298,31.46"/>
	<path fill-rule="evenodd" clip-rule="evenodd" fill="none" stroke="#666666" stroke-miterlimit="10" d="M167.141,246.002
		l-7.859,32.021"/>
	<path fill-rule="evenodd" clip-rule="evenodd" fill="none" stroke="#666666" stroke-miterlimit="10" d="M153.669,277.462h70.731"/>
	<path fill-rule="evenodd" clip-rule="evenodd" fill="none" stroke="#666666" stroke-miterlimit="10" d="M106.515,193.756h15.157"/>
	<path fill-rule="evenodd" clip-rule="evenodd" fill="none" stroke="#666666" stroke-miterlimit="10" d="M109.322,182.52h30.875"/>
	<path fill-rule="evenodd" clip-rule="evenodd" fill="none" stroke="#666666" stroke-miterlimit="10" d="M88.551,192.071h7.859"/>
	<path fill-rule="evenodd" clip-rule="evenodd" fill="none" stroke="#666666" stroke-miterlimit="10" d="M88.551,181.959h7.859"/>
	<path fill-rule="evenodd" clip-rule="evenodd" fill="none" stroke="#666666" stroke-miterlimit="10" d="M81.051,171.846h7.859"/>
	<path fill-rule="evenodd" clip-rule="evenodd" fill="none" stroke="#666666" stroke-miterlimit="10" d="M88,87.595h202.094v117.406
		H88V87.595z"/>
	<path fill-rule="evenodd" clip-rule="evenodd" fill="none" stroke="#666666" stroke-miterlimit="10" d="M85.563,78.032h208.062
		c3.314,0,6,2.686,6,6v156.531c0,3.314-2.686,6-6,6H85.563c-3.314,0-6-2.686-6-6V84.032C79.563,80.718,82.249,78.032,85.563,78.032z
		"/>
	<path fill-rule="evenodd" clip-rule="evenodd" fill="none" stroke="#666666" stroke-miterlimit="10" d="M85.563,78.032h208.062
		c3.314,0,6,2.686,6,6v149.25c0,3.313-2.686,6-6,6H85.563c-3.314,0-6-2.686-6-6V84.032C79.563,80.718,82.249,78.032,85.563,78.032z"
		/>
	<path fill-rule="evenodd" clip-rule="evenodd" fill="#FFFFFF" d="M36.078,163.751H141.75V279.47H36.078V163.751z"/>
	<path fill-rule="evenodd" clip-rule="evenodd" fill="none" stroke="#666666" stroke-miterlimit="10" d="M122.233,234.204h6.175"/>
	<path fill-rule="evenodd" clip-rule="evenodd" fill="none" stroke="#666666" stroke-miterlimit="10" d="M122.233,230.834h6.175"/>
	<path fill-rule="evenodd" clip-rule="evenodd" fill="none" stroke="#666666" stroke-miterlimit="10" d="M128.969,243.193h-6.736
		l-1.684-51.684c0,0,4.892-7.826,8.982,0L128.969,243.193z"/>
	<path fill-rule="evenodd" clip-rule="evenodd" fill="none" stroke="#666666" stroke-miterlimit="10" d="M124.333,242.99
		l-1.53,4.175l3.061,4.697l2.55-4.697l-1.53-4.175"/>
	<path fill-rule="evenodd" clip-rule="evenodd" fill="none" stroke="#666666" stroke-miterlimit="10" d="M99.25,172.501h0.5v7.5
		h-0.5V172.501z"/>
	<path fill-rule="evenodd" clip-rule="evenodd" fill="none" stroke="#666666" stroke-miterlimit="10" d="M55.75,172.501h0.5v7.5
		h-0.5V172.501z"/>
	<path fill-rule="evenodd" clip-rule="evenodd" fill="none" stroke="#666666" stroke-miterlimit="10" d="M78.25,172.501h0.5v7.5
		h-0.5V172.501z"/>
	<path fill-rule="evenodd" clip-rule="evenodd" fill="none" stroke="#666666" stroke-miterlimit="10" d="M94.165,238.137
		l2.807,2.809l6.175-5.618"/>
	<path fill-rule="evenodd" clip-rule="evenodd" fill="none" stroke="#009CFF" stroke-miterlimit="10" d="M94.165,218.475
		l2.807,2.809l6.175-5.618"/>
	<path fill-rule="evenodd" clip-rule="evenodd" fill="none" stroke="#009CFF" stroke-miterlimit="10" d="M94.165,199.936
		l2.807,2.809l6.175-5.618"/>
	<path fill-rule="evenodd" clip-rule="evenodd" fill="none" stroke="#666666" stroke-miterlimit="10" d="M52.625,238.38h30.313"/>
	<path fill-rule="evenodd" clip-rule="evenodd" fill="none" stroke="#666666" stroke-miterlimit="10" d="M52.625,218.879h30.313"/>
	<path fill-rule="evenodd" clip-rule="evenodd" fill="none" stroke="#666666" stroke-miterlimit="10" d="M52.625,200.38h30.313"/>
	<path fill-rule="evenodd" clip-rule="evenodd" fill="none" stroke="#666666" stroke-miterlimit="10" d="M44.766,263.979v-0.562
		h66.801v0.562H44.766z"/>
	<path fill-rule="evenodd" clip-rule="evenodd" fill="none" stroke="#666666" stroke-miterlimit="10" d="M44.766,261.17v-0.561
		h66.801v0.561H44.766z"/>
	<path fill-rule="evenodd" clip-rule="evenodd" fill="none" stroke="#666666" stroke-miterlimit="10" d="M44.781,175.782h67.344
		v82.031H44.781V175.782z"/>
	
		<line fill="none" stroke="#666666" stroke-miterlimit="10" stroke-dasharray="2,2" x1="189.609" y1="87.595" x2="189.609" y2="205.813"/>
	<path fill-rule="evenodd" clip-rule="evenodd" fill="#FFFFFF" d="M279.141,198.001c26.095,0,47.25,21.155,47.25,47.25
		c0,26.095-21.155,47.25-47.25,47.25c-26.095,0-47.25-21.155-47.25-47.25C231.891,219.156,253.045,198.001,279.141,198.001z"/>
	<path fill-rule="evenodd" clip-rule="evenodd" fill="none" stroke="#666666" stroke-miterlimit="10" d="M279.141,220.563
		c16.284,0,29.484,13.243,29.484,29.578c0,16.335-13.201,29.578-29.484,29.578c-16.284,0-29.484-13.243-29.484-29.578
		C249.656,233.806,262.857,220.563,279.141,220.563z"/>
	<path fill-rule="evenodd" clip-rule="evenodd" fill="none" stroke="#666666" stroke-miterlimit="10" d="M301.294,262.866
		l-0.246,0.449l2.702,1.477l0.246-0.449L301.294,262.866z"/>
	<path fill-rule="evenodd" clip-rule="evenodd" fill="none" stroke="#666666" stroke-miterlimit="10" d="M254.011,237.019
		l-0.246,0.45l2.702,1.477l0.245-0.449L254.011,237.019z"/>
	<path fill-rule="evenodd" clip-rule="evenodd" fill="none" stroke="#666666" stroke-miterlimit="10" d="M256.828,262.624
		l0.244,0.45l-2.689,1.478l-0.245-0.45L256.828,262.624z"/>
	<path fill-rule="evenodd" clip-rule="evenodd" fill="none" stroke="#666666" stroke-miterlimit="10" d="M303.885,236.761
		l0.244,0.45l-2.689,1.478l-0.244-0.45L303.885,236.761z"/>
	<path fill-rule="evenodd" clip-rule="evenodd" fill="none" stroke="#666666" stroke-miterlimit="10" d="M266.544,228.12
		l0.445-0.251l-1.499-2.683l-0.445,0.251L266.544,228.12z"/>
	<path fill-rule="evenodd" clip-rule="evenodd" fill="none" stroke="#666666" stroke-miterlimit="10" d="M292.784,275.08
		l0.445-0.251l-1.499-2.684l-0.445,0.251L292.784,275.08z"/>
	<path fill-rule="evenodd" clip-rule="evenodd" fill="none" stroke="#666666" stroke-miterlimit="10" d="M292.577,228.529
		l-0.447-0.252l1.506-2.69l0.447,0.252L292.577,228.529z"/>
	<path fill-rule="evenodd" clip-rule="evenodd" fill="none" stroke="#666666" stroke-miterlimit="10" d="M266.217,275.611
		l-0.447-0.252l1.506-2.69l0.447,0.252L266.217,275.611z"/>
	<path fill-rule="evenodd" clip-rule="evenodd" fill="none" stroke="#666666" stroke-miterlimit="10" d="M304.502,249.879v-0.514
		h3.075v0.514H304.502z"/>
	<path fill-rule="evenodd" clip-rule="evenodd" fill="none" stroke="#666666" stroke-miterlimit="10" d="M250.685,249.879v-0.514
		h3.075v0.514H250.685z"/>
	<path fill-rule="evenodd" clip-rule="evenodd" fill="none" stroke="#666666" stroke-miterlimit="10" d="M279.388,275.595h0.513
		v3.086h-0.513V275.595z"/>
	<path fill-rule="evenodd" clip-rule="evenodd" fill="none" stroke="#666666" stroke-miterlimit="10" d="M279.388,221.592h0.513
		v3.086h-0.513V221.592z"/>
	<path fill-rule="evenodd" clip-rule="evenodd" fill="none" stroke="#666666" stroke-miterlimit="10" d="M292.714,237.021
		l-10.763,10.286"/>
	<path fill-rule="evenodd" clip-rule="evenodd" fill="none" stroke="#666666" stroke-miterlimit="10" d="M279.656,245.751
		c2.123,0,3.844,1.735,3.844,3.875c0,2.14-1.721,3.875-3.844,3.875c-2.123,0-3.844-1.735-3.844-3.875
		C275.812,247.486,277.533,245.751,279.656,245.751z"/>
	<path fill-rule="evenodd" clip-rule="evenodd" fill="none" stroke="#666666" stroke-width="0.9465" stroke-miterlimit="10" d="
		M284,214.627v6.451"/>
	<path fill-rule="evenodd" clip-rule="evenodd" fill="none" stroke="#666666" stroke-miterlimit="10" d="M272.581,206.688h15.375
		v8.219h-15.375V206.688z"/>
	<path fill-rule="evenodd" clip-rule="evenodd" fill="none" stroke="#666666" stroke-width="0.9465" stroke-miterlimit="10" d="
		M276.312,214.627v6.451"/>
	<path fill-rule="evenodd" clip-rule="evenodd" fill="#FFFFFF" stroke="#69BBFF" stroke-miterlimit="10" d="M189.594,84.455
		c2.097,0,3.797,1.7,3.797,3.797s-1.7,3.797-3.797,3.797c-2.097,0-3.797-1.7-3.797-3.797S187.497,84.455,189.594,84.455z"/>
	<path fill-rule="evenodd" clip-rule="evenodd" fill="#0099FF" d="M189.609,86.361c1.053,0,1.906,0.853,1.906,1.906
		c0,1.053-0.854,1.906-1.906,1.906c-1.053,0-1.906-0.854-1.906-1.906C187.703,87.215,188.557,86.361,189.609,86.361z"/>
	<path fill-rule="evenodd" clip-rule="evenodd" fill="#D9EEFF" d="M141.75,164.001h42v33h-42V164.001z"/>
</g>
</svg>
