<?xml version="1.0" encoding="utf-8"?>
<!-- Generator: Adobe Illustrator 17.0.0, SVG Export Plug-In . SVG Version: 6.00 Build 0)  -->
<!DOCTYPE svg PUBLIC "-//W3C//DTD SVG 1.1//EN" "http://www.w3.org/Graphics/SVG/1.1/DTD/svg11.dtd">
<svg version="1.1" id="图层_1" xmlns="http://www.w3.org/2000/svg" xmlns:xlink="http://www.w3.org/1999/xlink" x="0px" y="0px"
	 width="827.043px" height="1213.955px" viewBox="0 0 827.043 1213.955" enable-background="new 0 0 827.043 1213.955"
	 xml:space="preserve">
<g>
	<path fill="none" stroke="#008DFF" stroke-miterlimit="10" d="M32,45c3.038,0,5.5,2.462,5.5,5.5S35.038,56,32,56
		s-5.5-2.462-5.5-5.5C26.5,47.462,28.962,45,32,45z"/>
	<path fill="none" stroke="#008DFF" stroke-miterlimit="10" d="M13.5,36.476c0-9.708,0-18.476,0-18.476c0-9.941,8.059-18,18-18
		s18,8.059,18,18c0,0,0,8.195,0,18"/>
	<path fill="none" stroke="#008DFF" stroke-miterlimit="10" d="M0.5,36h62v36h-62V36z"/>
</g>
<g>
	<path fill="#008DFF" d="M56.775,108.182c-0.172,0.17-0.451,0.17-0.624,0L41.797,94.031c-0.172-0.17-0.172-0.445,0-0.615
		c0.173-0.17,0.452-0.17,0.624,0l14.354,14.151C56.947,107.736,56.947,108.012,56.775,108.182z"/>
	<path fill="#008DFF" d="M71.089,94.031l-14.328,14.151c-0.172,0.17-0.45,0.17-0.623,0c-0.172-0.17-0.172-0.446,0-0.615
		l14.328-14.151c0.172-0.17,0.451-0.17,0.623,0C71.261,93.587,71.261,93.862,71.089,94.031z"/>
	<path fill="#008DFF" d="M56.474,75.493c0.247,0,0.448,0.198,0.448,0.441v31.784c0,0.244-0.201,0.441-0.448,0.441
		s-0.448-0.198-0.448-0.441V75.934C56.026,75.69,56.226,75.493,56.474,75.493z"/>
	<path fill="none" stroke="#008DFF" stroke-width="0.8892" stroke-miterlimit="10" d="M2.281,95.064l54.097,29.634l52.476-29.634"/>
	<path fill="none" stroke="#008DFF" stroke-width="0.8892" stroke-miterlimit="10" d="M81.116,93.15c13.418,0,23.271,0,23.271,0
		c3.957,0,7.165,3.162,7.165,7.063v66.216c0,3.901-3.208,7.063-7.165,7.063H7.665c-3.957,0-7.165-3.162-7.165-7.063v-66.216
		c0-2.274,1.091-4.298,2.785-5.59C4.496,93.7,6.016,93.15,7.665,93.15c0,0,10.73,0,25.041,0"/>
</g>
<g>
	<path fill="#008DFF" d="M102.512,266.605l24.008-23.962c0.174-0.174,0.457-0.174,0.632,0c0.174,0.174,0.174,0.457,0,0.63
		l-24.008,23.962c-0.174,0.174-0.457,0.174-0.632,0C102.337,267.062,102.337,266.78,102.512,266.605z"/>
	<path fill="#008DFF" d="M87.349,251.472c0.174-0.174,0.457-0.174,0.632,0l15.163,15.135c0.174,0.174,0.174,0.457,0,0.63
		c-0.174,0.174-0.457,0.174-0.632,0l-15.163-15.135C87.174,251.928,87.174,251.646,87.349,251.472z"/>
	<path fill="none" stroke="#008DFF" stroke-width="0.8926" stroke-miterlimit="10" d="M2.364,179.69l53.863,29.544l52.95-29.778"/>
	<path fill="none" stroke="#008DFF" stroke-width="0.8926" stroke-miterlimit="10" d="M81.969,258.52c-28.49,0-74.342,0-74.342,0
		c-3.947,0-7.148-3.194-7.148-7.134v-66.884c0-2.297,1.088-4.341,2.778-5.647c1.208-0.933,2.724-1.488,4.37-1.488h96.496
		c3.947,0,7.148,3.194,7.148,7.134c0,0,0,26.631,0,46.284"/>
</g>
<g>
	<path fill="#F76461" d="M103.833,359.49c0,0.738-0.604,1.336-1.348,1.336c-0.745,0-1.348-0.598-1.348-1.336
		s0.604-1.336,1.348-1.336C103.23,358.154,103.833,358.752,103.833,359.49z"/>
	<path fill="#F76461" d="M102.474,332.311c0.248,0,0.45,0.2,0.45,0.446v21.386c0,0.246-0.201,0.446-0.45,0.446
		c-0.248,0-0.45-0.2-0.45-0.446v-21.386C102.024,332.51,102.226,332.311,102.474,332.311z"/>
	<path fill="none" stroke="#F76461" stroke-width="0.8953" stroke-miterlimit="10" d="M2.494,272.917l54.011,29.75l53.309-29.75"/>
	<path fill="none" stroke="#F76461" stroke-width="0.8953" stroke-miterlimit="10" d="M82.42,351.915c-28.682,0-74.841,0-74.841,0
		c-3.974,0-7.196-3.192-7.196-7.129v-66.832c0-2.296,1.096-4.338,2.796-5.642c1.216-0.932,2.743-1.486,4.399-1.486h97.144
		c3.974,0,7.196,3.192,7.196,7.129c0,0,0,26.61,0,46.247"/>
</g>
<g>
	<path fill="#F76461" d="M120.364,430.065c0.181,0.18,0.181,0.472,0,0.651l-23.57,23.443c-0.181,0.18-0.474,0.18-0.655,0
		c-0.181-0.18-0.181-0.471,0-0.651l23.57-23.443C119.89,429.886,120.183,429.886,120.364,430.065z"/>
	<path fill="#F76461" d="M96.794,430.065l23.57,23.443c0.181,0.18,0.181,0.472,0,0.651c-0.181,0.18-0.474,0.18-0.655,0
		l-23.57-23.443c-0.181-0.18-0.181-0.472,0-0.651C96.32,429.886,96.613,429.886,96.794,430.065z"/>
	<path fill="none" stroke="#F76461" stroke-width="0.9234" stroke-miterlimit="10" d="M2.554,366.455l55.599,30.748L113.3,366.75"/>
	<path fill="none" stroke="#F76461" stroke-width="0.9234" stroke-miterlimit="10" d="M84.831,448.099c-29.525,0-77.041,0-77.041,0
		c-4.091,0-7.407-3.299-7.407-7.367v-69.07c0-2.373,1.128-4.483,2.879-5.831c1.252-0.963,2.823-1.536,4.529-1.536h99.999
		c4.091,0,7.407,3.299,7.407,7.367c0,0,0,27.501,0,47.796"/>
</g>
<g>
	<defs>
		<path id="SVGID_1_" d="M42.982,457.339c23.748,0,43,19.252,43,43s-19.252,43-43,43s-43-19.252-43-43
			S19.233,457.339,42.982,457.339z"/>
	</defs>
	<clipPath id="SVGID_2_">
		<use xlink:href="#SVGID_1_"  overflow="visible"/>
	</clipPath>
	<ellipse clip-path="url(#SVGID_2_)" fill="#E3F2FF" cx="41.904" cy="506.62" rx="50.475" ry="53.805"/>
	<g clip-path="url(#SVGID_2_)">
		<ellipse fill="#D7DCE1" cx="43.877" cy="551.321" rx="17.308" ry="2.445"/>
		<g>
			<path fill="#FFFFFF" d="M30.399,532.683c0,0-4.353,3.79-4.731,8.275c0,0-0.472,3.802,4.239,3.63l10.157-3.09l15.829,3.09
				c4.711,0.172,4.239-3.63,4.239-3.63c-0.378-4.486-4.625-8.184-4.625-8.184l-12.022-1.367l-13.15,1.333"/>
			<path fill="#0088FF" d="M56.199,544.984c-0.105,0-0.211-0.002-0.319-0.006L40.085,541.9l-10.164,3.078
				c-1.68,0.063-2.936-0.352-3.741-1.228c-1.091-1.189-0.909-2.773-0.9-2.84c0.385-4.575,4.679-8.363,4.861-8.522l0.178,0.204
				l-0.024-0.241l13.192-1.337l0.042,0.005l12.143,1.381l0.092,0.08c0.178,0.155,4.371,3.855,4.758,8.445
				c0.007,0.052,0.189,1.636-0.902,2.825C58.868,544.57,57.718,544.984,56.199,544.984z M40.044,541.096l15.925,3.109
				c1.383,0.045,2.432-0.282,3.075-0.982c0.85-0.926,0.703-2.204,0.701-2.216c-0.332-3.941-3.807-7.305-4.406-7.858L43.483,531.8
				l-12.978,1.315c-0.759,0.711-4.127,4.069-4.447,7.876c-0.003,0.027-0.144,1.319,0.705,2.237c0.635,0.687,1.667,1.014,3.08,0.971
				L40.044,541.096z"/>
		</g>
		<g>
			<path fill="#FFFFFF" d="M54.822,537.066c0,0,4.837,5.805-0.922,12.599c0,0-3.477,4.95-8.119-1.055c0,0-2.62,0.694-5.277,0
				c0,0-4.378,6.416-8.655,0.387c0,0-4.862-5.657-0.386-11.93"/>
			<path fill="#192728" d="M50.416,551.973c-1.623,0-3.233-0.984-4.788-2.927c-0.709,0.152-2.785,0.506-4.962,0.005
				c-0.547,0.717-2.405,2.897-4.794,2.918c-0.012,0-0.024,0-0.036,0c-1.563,0-3.011-0.924-4.305-2.748
				c-0.028-0.031-4.986-5.935-0.386-12.383l0.637,0.453c-4.249,5.956,0.318,11.396,0.365,11.45c1.169,1.645,2.41,2.478,3.718,2.446
				c2.394-0.022,4.298-2.771,4.317-2.799l0.155-0.228l0.266,0.07c2.528,0.661,5.052,0.007,5.077,0l0.251-0.066l0.159,0.205
				c1.47,1.902,2.917,2.845,4.393,2.821c1.863-0.039,3.085-1.734,3.098-1.751c5.505-6.497,0.987-12.069,0.941-12.125l0.601-0.499
				c0.05,0.061,4.979,6.137-0.924,13.101c-0.037,0.055-1.431,2.003-3.692,2.055C50.477,551.972,50.446,551.973,50.416,551.973z"/>
		</g>
		<g>
			<g>
				<circle fill="#0088FF" cx="43.142" cy="541.563" r="3.111"/>
			</g>
			<g>
				<g>
					<path fill="#FFFFFF" d="M43.799,539.788l-0.002-0.002l-0.654,0.566l0,0l0,0l0,0l0,0l0,0c0.258,0.524,0.685,0.951,1.21,1.208
						l0.002,0.002l0.567-0.654l-0.004-0.004C44.44,540.656,44.048,540.265,43.799,539.788z"/>
				</g>
				<g>
					<path fill="#FFFFFF" d="M42.487,539.787c-0.25,0.478-0.643,0.87-1.122,1.12l-0.003,0.003l0.567,0.654l0.003-0.003
						c0.523-0.257,0.949-0.682,1.206-1.204l0.003-0.003L42.487,539.787z"/>
				</g>
				<g>
					<path fill="#FFFFFF" d="M43.143,542.772L43.143,542.772c-0.258-0.525-0.685-0.951-1.21-1.208l-0.002-0.002l-0.567,0.654
						l0.001,0.001c0.48,0.25,0.873,0.642,1.123,1.122L43.143,542.772L43.143,542.772L43.143,542.772L43.143,542.772L43.143,542.772z
						"/>
				</g>
				<g>
					<path fill="#FFFFFF" d="M43.798,543.338c0.25-0.478,0.643-0.87,1.122-1.12l0.002-0.001l-0.567-0.654l-0.003,0.003
						c-0.523,0.257-0.949,0.682-1.206,1.204l-0.003,0.003L43.798,543.338L43.798,543.338z"/>
				</g>
			</g>
			<g>
				<path fill="#E1E1E1" d="M43.142,545.831c-2.357,0-4.275-1.915-4.275-4.268c0-2.353,1.917-4.268,4.275-4.268
					c2.357,0,4.274,1.915,4.274,4.268C47.417,543.917,45.499,545.831,43.142,545.831z M43.142,537.763
					c-2.098,0-3.806,1.705-3.806,3.8c0,2.095,1.707,3.8,3.806,3.8c2.098,0,3.805-1.705,3.805-3.8
					C46.948,539.467,45.241,537.763,43.142,537.763z"/>
			</g>
		</g>
		<g>
			<ellipse fill="#84CDFF" cx="43.017" cy="482.893" rx="6.38" ry="5.131"/>
			<path fill="#0088FF" d="M43.017,488.415c-3.734,0-6.771-2.477-6.771-5.521c0-3.045,3.038-5.522,6.771-5.522
				c3.734,0,6.771,2.477,6.771,5.522C49.788,485.938,46.751,488.415,43.017,488.415z M43.017,478.153
				c-3.303,0-5.989,2.127-5.989,4.741c0,2.614,2.687,4.74,5.989,4.74s5.989-2.127,5.989-4.74
				C49.006,480.279,46.32,478.153,43.017,478.153z"/>
		</g>
		<g>
			<rect x="42.466" y="468.154" fill="#0088FF" width="1.102" height="9.477"/>
		</g>
		<g>
			<circle fill="#84CDFF" cx="43.008" cy="467.411" r="1.927"/>
			<path fill="#0088FF" d="M43.008,469.725c-1.278,0-2.318-1.038-2.318-2.315s1.04-2.315,2.318-2.315
				c1.278,0,2.318,1.038,2.318,2.315S44.286,469.725,43.008,469.725z M43.008,465.877c-0.847,0-1.536,0.688-1.536,1.534
				c0,0.846,0.689,1.534,1.536,1.534s1.536-0.688,1.536-1.534C44.544,466.565,43.855,465.877,43.008,465.877z"/>
		</g>
		<g>
			<path fill="#84CDFF" d="M23.174,512.05c0,3.665-2.65,6.637-6.321,6.637l-0.439,0.244c-2.928,0-6.11-2.734-6.696-6.637
				c-0.164-1.092-0.042-2.437,0.163-3.757c0.222-1.431,0.778-3.108,1.596-4.246c1.226-1.704,3.044-2.57,5.245-2.57l-0.195,0.179
				c3.671,0,6.646,2.971,6.646,6.637V512.05z"/>
			<path fill="#0088FF" d="M16.516,519.321h-0.102c-3.328,0-6.505-3.126-7.082-6.969c-0.147-0.978-0.095-2.209,0.163-3.875
				c0.259-1.675,0.882-3.325,1.665-4.413c1.286-1.788,3.21-2.733,5.563-2.733h1.006l-0.263,0.241c3.439,0.459,6.1,3.408,6.1,6.965
				v3.514c0,3.97-2.834,6.973-6.609,7.026L16.516,519.321z M15.629,502.192c-1.594,0.244-2.905,1.036-3.834,2.327
				c-0.704,0.979-1.29,2.541-1.528,4.077c-0.246,1.586-0.297,2.743-0.162,3.64c0.577,3.844,3.65,6.242,6.21,6.303l0.437-0.243h0.102
				c3.38,0,5.93-2.685,5.93-6.246v-3.514c0-3.444-2.806-6.246-6.255-6.246h-1.006L15.629,502.192z"/>
		</g>
		<g>
			<path fill="#84CDFF" d="M62.789,512.05c0,3.665,2.65,6.637,6.321,6.637l0.439,0.244c2.928,0,6.11-2.734,6.696-6.637
				c0.164-1.092,0.042-2.437-0.163-3.757c-0.222-1.431-0.778-3.108-1.596-4.246c-1.226-1.704-3.044-2.57-5.245-2.57l0.195,0.179
				c-3.671,0-6.646,2.971-6.646,6.637V512.05z"/>
			<path fill="#0088FF" d="M69.549,519.321h-0.102l-0.44-0.245c-3.775-0.053-6.609-3.056-6.609-7.026v-3.514
				c0-3.557,2.661-6.506,6.1-6.965l-0.263-0.241h1.006c2.353,0,4.277,0.945,5.563,2.733c0.783,1.088,1.406,2.738,1.665,4.414
				c0.258,1.666,0.31,2.897,0.163,3.875C76.054,516.195,72.877,519.321,69.549,519.321z M69.435,502.29
				c-3.449,0-6.255,2.802-6.255,6.246v3.514c0,3.561,2.549,6.246,5.93,6.246h0.102l0.437,0.243c2.56-0.061,5.633-2.459,6.21-6.303
				c0.135-0.897,0.083-2.054-0.163-3.64c-0.238-1.536-0.823-3.099-1.528-4.077c-0.929-1.29-2.24-2.083-3.834-2.327l0.107,0.098
				H69.435z"/>
		</g>
		<g>
			<path fill="#FFFFFF" d="M72.11,508.064c3.185,14.496-11.077,26.872-29.062,26.872c-18.506,0-32.449-11.586-29.062-26.872
				c3.388-15.29,21.112-26.872,29.062-26.872C49.824,481.193,68.721,492.644,72.11,508.064z"/>
			<path fill="#192728" d="M43.048,535.326c-10.726,0-20.294-3.935-25.593-10.525c-3.886-4.833-5.218-10.65-3.85-16.821
				c3.48-15.701,21.426-27.178,29.443-27.178c7.001,0,25.993,11.477,29.444,27.179c1.269,5.777-0.176,11.62-4.07,16.454
				C62.928,531.255,53.442,535.326,43.048,535.326z M43.048,481.583c-7.602,0-25.338,11.485-28.68,26.566
				c-1.315,5.932-0.036,11.521,3.697,16.163c5.152,6.408,14.492,10.234,24.983,10.234c10.16,0,19.418-3.963,24.764-10.6
				c3.797-4.713,5.151-10.176,3.916-15.797C68.417,493.081,49.672,481.583,43.048,481.583z"/>
		</g>
		<g>
			<path fill="#D7DCE1" d="M39.165,548.146c-0.752,0.33-1.572,0.514-2.433,0.514c-3.63,0-6.329-3.176-6.329-7.148
				c0-0.709,0.034-1.436,0.208-2.083c-1.042,2.133-1.727,6.214,1.631,10.176c0,0,3.81,4.936,8.061-1.403
				c0,0,0.032,0.007,0.079,0.017C40.254,548.048,39.458,548.017,39.165,548.146z"/>
		</g>
		<g>
			<path fill="#D7DCE1" d="M47.152,548.146c0.752,0.33,1.572,0.514,2.433,0.514c3.63,0,6.329-3.176,6.329-7.148
				c0-0.709-0.034-1.436-0.208-2.083c1.042,2.133,1.727,6.214-1.631,10.176c0,0-3.81,4.936-8.061-1.403c0,0-0.032,0.007-0.079,0.017
				C46.064,548.048,46.86,548.017,47.152,548.146z"/>
		</g>
		<g>
			<path fill="#0088FF" d="M50.416,551.973c-1.623,0-3.233-0.984-4.788-2.927c-0.709,0.152-2.785,0.506-4.962,0.005
				c-0.547,0.717-2.405,2.897-4.794,2.918c-0.012,0-0.024,0-0.036,0c-1.563,0-3.011-0.924-4.305-2.748
				c-0.028-0.031-4.986-5.935-0.386-12.383l0.637,0.453c-4.249,5.956,0.318,11.396,0.365,11.45c1.169,1.645,2.41,2.478,3.718,2.446
				c2.394-0.022,4.298-2.771,4.317-2.799l0.155-0.228l0.266,0.07c2.528,0.661,5.052,0.007,5.077,0l0.251-0.066l0.159,0.205
				c1.47,1.902,2.917,2.845,4.393,2.821c1.863-0.039,3.085-1.734,3.098-1.751c5.505-6.497,0.987-12.069,0.941-12.125l0.601-0.499
				c0.05,0.061,4.979,6.137-0.924,13.101c-0.037,0.055-1.431,2.003-3.692,2.055C50.477,551.972,50.446,551.973,50.416,551.973z"/>
		</g>
		<g>
			<path fill="#0088FF" d="M42.996,549.265c-2.972,0-4.903-1.186-5.022-1.262l0.417-0.661c0.04,0.026,4.151,2.531,9.545-0.022
				l0.335,0.705C46.309,548.955,44.516,549.265,42.996,549.265z"/>
		</g>
		<g>
			<path fill="#D7DCE1" d="M72.11,508.064c-3.302-15.027-21.326-26.28-28.515-26.844c7.516,2.57,22.396,13.458,25.34,26.858
				c3.147,14.32-10.467,25.752-28.233,25.752c-5.666,0-10.898-1.102-15.323-3.069c4.894,2.655,10.98,4.175,17.669,4.175
				C61.033,534.936,75.295,522.56,72.11,508.064z"/>
		</g>
		<g>
			<path fill="#0088FF" d="M43.048,535.326c-10.726,0-20.294-3.935-25.593-10.525c-3.886-4.833-5.218-10.65-3.85-16.821
				c3.48-15.701,21.426-27.178,29.443-27.178c7.001,0,25.993,11.477,29.444,27.179c1.269,5.777-0.176,11.62-4.07,16.454
				C62.928,531.255,53.442,535.326,43.048,535.326z M43.048,481.583c-7.602,0-25.338,11.485-28.68,26.566
				c-1.315,5.932-0.036,11.521,3.697,16.163c5.152,6.408,14.492,10.234,24.983,10.234c10.16,0,19.418-3.963,24.764-10.6
				c3.797-4.713,5.151-10.176,3.916-15.797C68.417,493.081,49.672,481.583,43.048,481.583z"/>
		</g>
		<g>
			<path fill="#0088FF" d="M67.99,516.254c0,8.543-10.008,13.526-15.492,14.949c-5.359,1.391-13.001,1.406-18.962-0.024
				c-5.49-1.318-15.492-6.381-15.492-14.925l0,0c0-11.183,5.62-13.769,14.67-15.184c0,0,5.432-0.748,9.961-0.748
				c5.082,0,10.687,0.781,10.687,0.781C64.08,502.632,67.99,506.829,67.99,516.254L67.99,516.254z"/>
		</g>
		<g>
			<path fill="#FFFFFF" d="M60.065,516.389c0,0.997-0.81,1.806-1.808,1.806l0,0c-0.999,0-1.808-0.808-1.808-1.806v-2.724
				c0-0.997,0.81-1.806,1.808-1.806l0,0c0.999,0,1.808,0.808,1.808,1.806V516.389z"/>
		</g>
		<g>
			<g>
				<path fill="#FFFFFF" d="M58.323,504.179c0,0,7.468,3.027,6.913,10.882c0,0-0.129-7.237-6.92-9.857L58.323,504.179z"/>
			</g>
			<g>
				<path fill="#FFFFFF" d="M57.2,503.959l-0.007,1.017c0,0-0.668-0.339-1.756-0.444l0.007-0.935
					C55.443,503.598,56.276,503.604,57.2,503.959z"/>
			</g>
		</g>
		<path fill="none" stroke="#FFFFFF" stroke-width="0.786" stroke-miterlimit="10" d="M26.026,512.288c0,0,5.065,1.133,7.464,3.776
			c0,0-4.265-1.133-7.464,1.322"/>
	</g>
</g>
<g>
	<polygon fill="#333333" points="62.366,652.559 62.371,652.565 62.371,652.553 	"/>
	<polygon fill="#333333" points="58.327,652.559 58.327,652.559 58.327,652.559 	"/>
	<rect x="46.584" y="645.144" fill="#333333" width="5.974" height="19.686"/>
	<polygon fill="#333333" points="43.98,651.434 48.195,640.227 52.803,640.227 48.589,651.434 	"/>
	<path fill="#333333" d="M69.826,645.131h-1.295v-4.961h-5.974v4.961h-9.1v1.982h9.1v15.037c-0.011,0.441-0.372,0.795-0.824,0.816
		h-2.441v1.982h3.265h2.624h0.415c1.62,0,2.934-1.271,2.934-2.84v-14.995h1.295V645.131z"/>
	<path fill="#008CFF" d="M61.681,653.956l-0.004-0.004c-1.751-0.831-3.174-2.209-4.033-3.903l-0.001-0.001l0,0l0.001-0.001h-0.004
		l0.001,0.001l-0.009,0.009c-0.858,1.688-2.276,3.061-4.02,3.891l-0.01,0.009l0.002-0.001l0.005,0.005
		c1.75,0.831,3.173,2.208,4.032,3.903l0.008-0.008c0.858-1.688,2.276-3.06,4.02-3.891L61.681,653.956z"/>
	<g>
		<path fill="#333333" d="M92.341,663.38l-0.013-0.053C92.332,663.345,92.337,663.362,92.341,663.38z"/>
		<path fill="#333333" d="M92.047,661.621l-0.068-0.293C91.997,661.427,92.021,661.525,92.047,661.621z"/>
		<polygon fill="#333333" points="99.763,644.405 95.865,644.795 94.869,640.903 98.808,640.509 		"/>
		<rect x="78.645" y="642.478" fill="#333333" width="6.033" height="1.982"/>
		<rect x="74.862" y="647.535" fill="#333333" width="9.81" height="1.982"/>
		<rect x="74.862" y="652.7" fill="#333333" width="9.81" height="1.982"/>
		<polygon fill="#333333" points="74.916,646.926 77.908,640.163 82.375,640.163 79.383,646.926 		"/>
		<path fill="#333333" d="M82.347,648.725v8.724l-0.034,4.215c0,0.626,0.527,1.132,1.149,1.163h1.536v2.129h-4.163
			c0,0-0.117,0-0.177,0c-2.191,0-3.968-1.767-3.968-3.947v-12.283H82.347z"/>
		<polygon fill="#333333" points="100.398,653.228 85.614,654.836 85.614,652.7 100.398,651.092 		"/>
		<polygon fill="#333333" points="100.398,647.909 85.614,649.518 85.614,647.382 100.398,645.774 		"/>
		<polygon fill="#333333" points="100.398,658.652 86.115,664.954 86.115,662.819 100.398,656.517 		"/>
		<path fill="#333333" d="M99.581,662.82h-0.365l0,0c-0.476-0.013-0.87-0.346-0.959-0.785l-1.045-4.464l-4.055-17.408h-5.971
			l5.053,21.69l0.068,0.293c0.441,1.616,1.958,2.81,3.766,2.81h2.859h1.466v-2.135H99.581z"/>
	</g>
	<g>
		<rect x="116.108" y="662.415" fill="#333333" width="15.074" height="2.568"/>
		<polygon fill="#333333" points="124.779,663.538 127.074,646.679 131.69,647.019 129.433,663.882 		"/>
		<rect x="105.447" y="645.292" fill="#333333" width="10.715" height="1.972"/>
		<rect x="116.857" y="643.43" fill="#333333" width="14.854" height="2.542"/>
		<polygon fill="#333333" points="116.082,654.432 105.797,658.28 105.527,656.327 115.812,652.478 		"/>
		<path fill="#333333" d="M108.438,640.195v19.385v2.583c0,0.45-0.534,0.815-1.164,0.837h-1.522v1.983h4.219c0,0,0.118,0,0.179,0
			c2.22,0,4.02-1.272,4.02-2.841v-21.947H108.438z"/>
		<polygon fill="#333333" points="116.934,647.888 121.147,646.324 123.745,660.33 119.533,661.894 		"/>
		<rect x="121.522" y="640.135" fill="#333333" width="5.924" height="4.75"/>
	</g>
	<g>
		<path fill="#008CFF" d="M23.518,635.399l-0.015-0.015l-6.318,5.474l0,0l-0.004,0.004l0,0l-0.001,0.001l0.002,0.002
			c2.488,5.071,6.61,9.193,11.681,11.681l0.016,0.016l5.478-6.323l-0.036-0.036C29.71,643.791,25.93,640.011,23.518,635.399z"/>
		<path fill="#008CFF" d="M10.855,635.385c-2.414,4.624-6.204,8.413-10.828,10.827L0,646.239l5.478,6.323l0.028-0.028
			c5.052-2.485,9.159-6.593,11.644-11.644l0.026-0.026L10.855,635.385z"/>
		<path fill="#008CFF" d="M17.184,664.256l-0.002-0.002c-2.488-5.071-6.61-9.193-11.681-11.681l-0.016-0.016l-5.478,6.323l0.01,0.01
			c4.633,2.416,8.429,6.211,10.845,10.844l6.318-5.474l0,0L17.184,664.256L17.184,664.256L17.184,664.256z"/>
		<path fill="#008CFF" d="M23.508,669.726c2.415-4.627,6.205-8.417,10.832-10.832l0.015-0.015l-5.478-6.323l-0.028,0.028
			c-5.052,2.485-9.159,6.593-11.644,11.644l-0.026,0.026l6.323,5.478L23.508,669.726z"/>
	</g>
</g>
<g>
	<path fill-rule="evenodd" clip-rule="evenodd" fill="#F96361" d="M7.007,672.734c3.866,0,7,3.134,7,7c0,3.866-3.134,7-7,7
		s-7-3.134-7-7C0.007,675.868,3.141,672.734,7.007,672.734z"/>
	<path fill-rule="evenodd" clip-rule="evenodd" fill="#FFFFFF" d="M4.146,676.874c0.181-0.181,0.453-0.2,0.609-0.044l5.156,5.156
		c0.156,0.156,0.136,0.429-0.044,0.609c-0.181,0.181-0.453,0.201-0.609,0.044l-5.156-5.156
		C3.946,677.327,3.966,677.054,4.146,676.874z"/>
	<path fill-rule="evenodd" clip-rule="evenodd" fill="#FFFFFF" d="M4.122,681.988l5.139-5.139c0.155-0.156,0.423-0.14,0.597,0.034
		c0.174,0.174,0.189,0.442,0.034,0.597l-5.139,5.139c-0.155,0.155-0.423,0.14-0.597-0.034
		C3.982,682.411,3.967,682.144,4.122,681.988z"/>
</g>
<g>
	<path fill-rule="evenodd" clip-rule="evenodd" fill="#008CFF" d="M8.528,694.25c2.209,0,4,1.791,4,4c0,2.209-1.791,4-4,4
		s-4-1.791-4-4C4.528,696.041,6.319,694.25,8.528,694.25z"/>
	<path fill-rule="evenodd" clip-rule="evenodd" fill="none" stroke="#008CFF" stroke-miterlimit="10" d="M4.528,690.25h8
		c2.209,0,4,1.791,4,4v8c0,2.209-1.791,4-4,4h-8c-2.209,0-4-1.791-4-4v-8C0.528,692.041,2.319,690.25,4.528,690.25z"/>
</g>
<g>
	<path fill="#008CFF" d="M1.441,741.583H4.47c0.303-3.862,3.476-6.916,7.389-7.029v-3.022C6.277,731.648,1.75,736.051,1.441,741.583
		z"/>
	<path fill="#008CFF" d="M19.725,742.176c0,0.004,0,0.008,0,0.012c0,4.073-3.187,7.401-7.203,7.628v3.023
		c5.686-0.229,10.225-4.909,10.225-10.651c0-0.004,0-0.008,0-0.012H19.725z"/>
	<polygon fill="#008CFF" points="11.859,730.15 10.85,731.6 11.859,734.553 	"/>
	<polygon fill="#008CFF" points="0.065,741.583 1.515,740.574 4.469,741.583 	"/>
	<polygon fill="#008CFF" points="12.52,754.227 13.528,752.777 12.52,749.824 	"/>
	<polygon fill="#008CFF" points="21.18,744.149 22.747,742.177 20.725,740.334 12.243,741.998 	"/>
	<path fill="#008CFF" d="M22.747,742.177l-10.504-0.179l10.327-2.036c0,0,0.097,0.433,0.152,1.188
		C22.74,741.408,22.747,742.177,22.747,742.177z"/>
	<g>
		<polygon fill="#008CFF" points="13.046,742.529 12.243,743.333 10.908,741.998 12.243,740.663 13.083,741.503 15.873,740.879 
			12.243,737.249 7.494,741.998 12.243,746.747 15.735,743.254 		"/>
	</g>
	<polygon fill="#008CFF" points="15.873,740.879 13.083,741.503 12.243,737.249 	"/>
	<polygon fill="#008CFF" points="7.494,741.998 10.908,741.998 12.168,746.672 	"/>
	<polygon fill="#008CFF" points="12.243,737.249 12.243,740.663 7.615,741.998 	"/>
	<polyline fill="#008CFF" points="13.046,742.529 12.243,746.747 15.735,743.254 	"/>
</g>
<text transform="matrix(1 0 0 1 186.9601 567.1608)"><tspan x="0" y="0" fill="#FFFFFF" font-family="'MicrosoftYaHeiLight'" font-size="7.0847">用于两个位置：1.邮件重置密码页面的浮窗顶部</tspan><tspan x="0" y="8.502" fill="#FFFFFF" font-family="'MicrosoftYaHeiLight'" font-size="7.0847">                        2.页面左上角logo，点击可返回首页</tspan></text>
<rect x="152.71" y="564.205" fill="#FFFFFF" width="29.25" height="1.236"/>
<ellipse fill="#E3F2FF" cx="155.21" cy="710.076" rx="0" ry="0.25"/>
<g>
	<circle fill="#E3F2FF" cx="43.081" cy="589.384" r="43"/>
	<g>
		<path fill="#008CFF" d="M19.075,587.924h7.297c0.73-9.304,8.374-16.66,17.8-16.934v-7.279
			C30.725,563.992,19.821,574.598,19.075,587.924z"/>
		<path fill="#008CFF" d="M63.121,589.352c0,0.01,0,0.019,0,0.029c0,9.813-7.678,17.829-17.353,18.375v7.284
			c13.696-0.553,24.632-11.825,24.632-25.659c0-0.01-0.001-0.019-0.001-0.029H63.121z"/>
		<polygon fill="#008CFF" points="44.172,560.384 41.742,563.877 44.172,570.99 		"/>
		<polygon fill="#008CFF" points="15.762,587.924 19.255,585.494 26.369,587.924 		"/>
		<polygon fill="#008CFF" points="45.764,618.384 48.193,614.891 45.764,607.777 		"/>
		<polygon fill="#008CFF" points="66.626,594.106 70.4,589.355 65.529,584.915 45.096,588.925 		"/>
		<path fill="#008CFF" d="M70.4,589.355l-25.304-0.431l24.878-4.904c0,0,0.233,1.044,0.366,2.861
			C70.385,587.503,70.4,589.355,70.4,589.355z"/>
		<g>
			<polygon fill="#008CFF" points="47.033,590.203 45.096,592.14 41.881,588.925 45.096,585.709 47.12,587.733 53.842,586.23 
				45.096,577.485 33.656,588.925 45.096,600.365 53.51,591.951 			"/>
		</g>
		<polygon fill="#008CFF" points="53.842,586.23 47.12,587.733 45.096,577.485 		"/>
		<polygon fill="#008CFF" points="33.656,588.925 41.881,588.925 44.917,600.185 		"/>
		<polygon fill="#008CFF" points="45.096,577.485 45.096,585.709 33.948,588.925 		"/>
		<polyline fill="#008CFF" points="47.033,590.203 45.096,600.365 53.51,591.951 		"/>
	</g>
</g>
<g>
	<path fill-rule="evenodd" clip-rule="evenodd" fill="none" stroke="#DCDCDC" stroke-miterlimit="10" d="M4.528,710.607h8
		c2.209,0,4,1.791,4,4v8c0,2.209-1.791,4-4,4h-8c-2.209,0-4-1.791-4-4v-8C0.528,712.398,2.319,710.607,4.528,710.607z"/>
</g>
<g>
	<path fill-rule="evenodd" clip-rule="evenodd" fill="none" stroke="#008CFF" stroke-miterlimit="10" d="M31.082,809.863
		c-0.467,0.702-1.227,1.217-2.045,1.301l-5.689,0.589c-1.257,0.13-2.172-0.804-2.045-2.086l0.577-5.803
		c0.084-0.849,0.606-1.639,1.313-2.112"/>
	<path fill-rule="evenodd" clip-rule="evenodd" fill="none" stroke="#008CFF" stroke-miterlimit="10" d="M36.499,788.093
		l0.889-0.906l7.997,8.158l-0.889,0.907L36.499,788.093z"/>
	<path fill-rule="evenodd" clip-rule="evenodd" fill="#008CFF" d="M9.338,792.423h12.571v1.266H9.338V792.423z"/>
	<path fill-rule="evenodd" clip-rule="evenodd" fill="#008CFF" d="M9.338,779.591H30.68v1.301H9.338V779.591z"/>
	<path fill-rule="evenodd" clip-rule="evenodd" fill="#008CFF" d="M9.338,768.025h28.906v1.301H9.338V768.025z"/>
	<path fill-rule="evenodd" clip-rule="evenodd" fill="none" stroke="#008CFF" stroke-miterlimit="10" d="M16.794,811.634
		c-6.3,0-11.236,0-11.236,0c-2.776,0-5.027-2.296-5.027-5.128v-43.585c0-2.832,2.25-5.128,5.027-5.128h37.699
		c2.776,0,5.026,2.296,5.026,5.128c0,0,0,7.002,0,15.393"/>
	<path fill-rule="evenodd" clip-rule="evenodd" fill="none" stroke="#008CFF" stroke-miterlimit="10" d="M23.61,801.232
		l17.772-18.129c0.981-1.001,2.573-1.001,3.554,0l4.443,4.532c0.981,1.001,0.981,2.625,0,3.626L31.608,809.39
		c-0.982,1.001-2.573,1.001-3.554,0l-4.443-4.532C22.629,803.856,22.629,802.233,23.61,801.232z"/>
</g>
<g>
	<path fill-rule="evenodd" clip-rule="evenodd" fill="none" stroke="#008CFF" stroke-miterlimit="10" d="M24.782,850.788
		c2.347,0,4.25,1.912,4.25,4.271s-1.903,4.271-4.25,4.271s-4.25-1.912-4.25-4.271S22.435,850.788,24.782,850.788z"/>
	<path fill-rule="evenodd" clip-rule="evenodd" fill="none" stroke="#008CFF" stroke-miterlimit="10" d="M10.472,843.788
		c0-7.55,0-14,0-14c0-7.732,6.239-14,13.936-14c7.696,0,13.935,6.268,13.935,14c0,0,0,6.374,0,14"/>
	<path fill-rule="evenodd" clip-rule="evenodd" fill="none" stroke="#008CFF" stroke-miterlimit="10" d="M0.407,843.788h48v28h-48
		V843.788z"/>
</g>
<g>
	<path fill-rule="evenodd" clip-rule="evenodd" fill="#008CFF" d="M47.417,916.362c0.083-0.08,0.219-0.08,0.302,0l7.256,6.975
		c0.084,0.08,0.084,0.21,0,0.291c-0.083,0.08-0.219,0.08-0.302,0l-7.256-6.975C47.333,916.572,47.333,916.442,47.417,916.362z"/>
	<path fill-rule="evenodd" clip-rule="evenodd" fill="#008CFF" d="M54.673,923.336l11.489-11.043c0.083-0.08,0.219-0.08,0.302,0
		c0.083,0.08,0.083,0.21,0,0.291l-11.489,11.043c-0.083,0.08-0.219,0.08-0.302,0C54.589,923.547,54.589,923.417,54.673,923.336z"/>
	<path fill-rule="evenodd" clip-rule="evenodd" fill="none" stroke="#008CFF" stroke-miterlimit="10" d="M39.718,904.693h13.631
		c0.102,0,0.185,0.083,0.185,0.185v0.631c0,0.102-0.083,0.185-0.185,0.185H39.718c-0.102,0-0.185-0.083-0.185-0.185v-0.631
		C39.533,904.775,39.616,904.693,39.718,904.693z"/>
	<path fill-rule="evenodd" clip-rule="evenodd" fill="none" stroke="#008CFF" stroke-miterlimit="10" d="M36.718,894.693h16.631
		c0.102,0,0.185,0.083,0.185,0.185v0.631c0,0.102-0.083,0.185-0.185,0.185H36.718c-0.102,0-0.185-0.083-0.185-0.185v-0.631
		C36.533,894.775,36.616,894.693,36.718,894.693z"/>
	<path fill-rule="evenodd" clip-rule="evenodd" fill="none" stroke="#008CFF" stroke-miterlimit="10" d="M32.718,884.693h21.631
		c0.102,0,0.185,0.083,0.185,0.185v0.631c0,0.102-0.083,0.185-0.185,0.185H32.718c-0.102,0-0.185-0.083-0.185-0.185v-0.631
		C32.533,884.775,32.616,884.693,32.718,884.693z"/>
	<path fill-rule="evenodd" clip-rule="evenodd" fill="none" stroke="#008CFF" stroke-miterlimit="10" d="M6.064,912.792
		c0-7.237,5.86-13.105,13.089-13.105c7.229,0,13.089,5.867,13.089,13.105"/>
	<path fill-rule="evenodd" clip-rule="evenodd" fill="none" stroke="#008CFF" stroke-miterlimit="10" d="M19.346,884.911
		c4.073,0,7.375,3.309,7.375,7.391c0,4.082-3.302,7.391-7.375,7.391s-7.375-3.309-7.375-7.391
		C11.971,888.22,15.273,884.911,19.346,884.911z"/>
	<path fill-rule="evenodd" clip-rule="evenodd" fill="none" stroke="#008CFF" stroke-miterlimit="10" d="M43.365,919.683
		c-16.31,0-41.363,0-41.363,0c-0.811,0-1.468-0.662-1.468-1.479v-41.033c0-0.817,0.657-1.479,1.468-1.479h55.07
		c0.811,0,1.468,0.662,1.468,1.479c0,0,0,15.356,0,27.28"/>
</g>
<g>
	<path fill-rule="evenodd" clip-rule="evenodd" fill="none" stroke="#008CFF" stroke-miterlimit="10" d="M50.78,999.651
		c4.841,0,8.766,3.922,8.766,8.76c0,4.838-3.924,8.76-8.766,8.76s-8.766-3.922-8.766-8.76
		C42.014,1003.573,45.938,999.651,50.78,999.651z"/>
	<path fill-rule="evenodd" clip-rule="evenodd" fill="none" stroke="#008CFF" stroke-miterlimit="10" d="M21.264,985.276
		c0-15.505,0-28.75,0-28.75c0-15.878,12.868-28.75,28.742-28.75c15.874,0,28.742,12.872,28.742,28.75c0,0,0,13.089,0,28.75"/>
	<path fill-rule="evenodd" clip-rule="evenodd" fill="none" stroke="#008CFF" stroke-miterlimit="10" d="M69.117,1042.776
		c-29.1,0-68.611,0-68.611,0v-57.5h99c0,0,0,18.747,0,34.833"/>
	<path fill-rule="evenodd" clip-rule="evenodd" fill="#008CFF" d="M75.624,1035.425c0.174-0.168,0.457-0.168,0.631,0l15.138,14.628
		c0.174,0.168,0.174,0.441,0,0.609s-0.456,0.168-0.631,0l-15.138-14.628C75.45,1035.866,75.45,1035.593,75.624,1035.425z"/>
	<path fill-rule="evenodd" clip-rule="evenodd" fill="#008CFF" d="M90.762,1050.053l23.968-23.161c0.174-0.168,0.457-0.168,0.631,0
		c0.174,0.168,0.174,0.441,0,0.609l-23.968,23.161c-0.174,0.168-0.456,0.168-0.631,0
		C90.587,1050.494,90.587,1050.221,90.762,1050.053z"/>
</g>
<g>
	<path fill-rule="evenodd" clip-rule="evenodd" fill="#BBBBBB" d="M563.506,1073.289v-1h227v1H563.506z"/>
	<path fill-rule="evenodd" clip-rule="evenodd" fill="#BBBBBB" d="M300.506,1073.289v-1h227v1H300.506z"/>
	<path fill-rule="evenodd" clip-rule="evenodd" fill="#008CFF" d="M36.506,1073.289v-1h228v1H36.506z"/>
	<path fill-rule="evenodd" clip-rule="evenodd" fill="#EFEFEF" stroke="#BBBBBB" stroke-width="1.0048" stroke-miterlimit="10" d="
		M808.335,1054.289c9.941,0,18,8.059,18,18c0,9.941-8.059,18-18,18c-9.941,0-18-8.059-18-18
		C790.335,1062.348,798.394,1054.289,808.335,1054.289z"/>
	<path fill-rule="evenodd" clip-rule="evenodd" fill="#EFEFEF" stroke="#BBBBBB" stroke-width="1.0048" stroke-miterlimit="10" d="
		M545.335,1054.289c9.941,0,18,8.059,18,18c0,9.941-8.059,18-18,18c-9.941,0-18-8.059-18-18
		C527.335,1062.348,535.394,1054.289,545.335,1054.289z"/>
	<path fill-rule="evenodd" clip-rule="evenodd" fill="#EFEFEF" stroke="#BBBBBB" stroke-width="1.0048" stroke-miterlimit="10" d="
		M282.335,1054.289c9.941,0,18,8.059,18,18c0,9.941-8.059,18-18,18c-9.941,0-18-8.059-18-18
		C264.335,1062.348,272.394,1054.289,282.335,1054.289z"/>
	<path fill-rule="evenodd" clip-rule="evenodd" fill="#DCEDFB" stroke="#008CFF" stroke-miterlimit="10" d="M18.506,1054.289
		c9.941,0,18,8.059,18,18c0,9.941-8.059,18-18,18c-9.941,0-18-8.059-18-18C0.506,1062.348,8.565,1054.289,18.506,1054.289z"/>
</g>
<path fill-rule="evenodd" clip-rule="evenodd" fill="#BBBBBB" d="M563.506,1113.289v-1h227v1H563.506z"/>
<path fill-rule="evenodd" clip-rule="evenodd" fill="#008CFF" d="M300.506,1113.289v-1h227v1H300.506z"/>
<path fill-rule="evenodd" clip-rule="evenodd" fill="#008CFF" d="M36.506,1113.289v-1h228v1H36.506z"/>
<path fill-rule="evenodd" clip-rule="evenodd" fill="#EFEFEF" stroke="#BBBBBB" stroke-width="1.0048" stroke-miterlimit="10" d="
	M808.335,1094.289c9.941,0,18,8.059,18,18c0,9.941-8.059,18-18,18c-9.941,0-18-8.059-18-18
	C790.335,1102.348,798.394,1094.289,808.335,1094.289z"/>
<path fill-rule="evenodd" clip-rule="evenodd" fill="#EFEFEF" stroke="#BBBBBB" stroke-width="1.0048" stroke-miterlimit="10" d="
	M545.335,1094.289c9.941,0,18,8.059,18,18c0,9.941-8.059,18-18,18c-9.941,0-18-8.059-18-18
	C527.335,1102.348,535.394,1094.289,545.335,1094.289z"/>
<path fill-rule="evenodd" clip-rule="evenodd" fill="#DCEDFB" stroke="#008CFF" stroke-miterlimit="10" d="M282.335,1094.289
	c9.941,0,18,8.059,18,18c0,9.941-8.059,18-18,18c-9.941,0-18-8.059-18-18C264.335,1102.348,272.394,1094.289,282.335,1094.289z"/>
<path fill-rule="evenodd" clip-rule="evenodd" fill="#008CFF" d="M563.506,1153.289v-1h227v1H563.506z"/>
<path fill-rule="evenodd" clip-rule="evenodd" fill="#008CFF" d="M300.506,1153.289v-1h227v1H300.506z"/>
<path fill-rule="evenodd" clip-rule="evenodd" fill="#008CFF" d="M36.506,1153.289v-1h228v1H36.506z"/>
<path fill-rule="evenodd" clip-rule="evenodd" fill="#EFEFEF" stroke="#BBBBBB" stroke-width="1.0048" stroke-miterlimit="10" d="
	M808.335,1134.289c9.941,0,18,8.059,18,18c0,9.941-8.059,18-18,18c-9.941,0-18-8.059-18-18
	C790.335,1142.348,798.394,1134.289,808.335,1134.289z"/>
<path fill-rule="evenodd" clip-rule="evenodd" fill="#DCEDFB" stroke="#008CFF" stroke-miterlimit="10" d="M545.335,1134.289
	c9.941,0,18,8.059,18,18c0,9.941-8.059,18-18,18c-9.941,0-18-8.059-18-18C527.335,1142.348,535.394,1134.289,545.335,1134.289z"/>
<path fill-rule="evenodd" clip-rule="evenodd" fill="#008CFF" d="M563.506,1193.289v-1h227v1H563.506z"/>
<path fill-rule="evenodd" clip-rule="evenodd" fill="#008CFF" d="M300.506,1193.289v-1h227v1H300.506z"/>
<path fill-rule="evenodd" clip-rule="evenodd" fill="#008CFF" d="M36.506,1193.289v-1h228v1H36.506z"/>
<path fill-rule="evenodd" clip-rule="evenodd" fill="#DCEDFB" stroke="#008CFF" stroke-miterlimit="10" d="M808.335,1174.289
	c9.941,0,18,8.059,18,18c0,9.941-8.059,18-18,18c-9.941,0-18-8.059-18-18C790.335,1182.348,798.394,1174.289,808.335,1174.289z"/>
<path fill-rule="evenodd" clip-rule="evenodd" fill="#DCEDFB" stroke="#008CFF" stroke-miterlimit="10" d="M18.506,1094.667
	c9.941,0,18,8.059,18,18c0,9.941-8.059,18-18,18c-9.941,0-18-8.059-18-18C0.506,1102.726,8.565,1094.667,18.506,1094.667z"/>
<g>
	<path fill-rule="evenodd" clip-rule="evenodd" fill="#008CFF" d="M9.566,1111.131c0.078-0.077,0.205-0.077,0.284,0l6.812,6.704
		c0.078,0.077,0.078,0.202,0,0.279c-0.078,0.077-0.205,0.077-0.284,0l-6.812-6.704C9.487,1111.333,9.487,1111.208,9.566,1111.131z"
		/>
	<path fill-rule="evenodd" clip-rule="evenodd" fill="#008CFF" d="M16.377,1117.835l10.785-10.615c0.078-0.077,0.205-0.077,0.284,0
		c0.078,0.077,0.078,0.202,0,0.279l-10.785,10.615c-0.078,0.077-0.205,0.077-0.284,0
		C16.299,1118.037,16.299,1117.912,16.377,1117.835z"/>
</g>
<path fill-rule="evenodd" clip-rule="evenodd" fill="#DCEDFB" stroke="#008CFF" stroke-miterlimit="10" d="M18.506,1134.789
	c9.941,0,18,8.059,18,18c0,9.941-8.059,18-18,18c-9.941,0-18-8.059-18-18C0.506,1142.848,8.565,1134.789,18.506,1134.789z"/>
<g>
	<path fill-rule="evenodd" clip-rule="evenodd" fill="#008CFF" d="M9.566,1151.252c0.078-0.077,0.205-0.077,0.284,0l6.812,6.704
		c0.078,0.077,0.078,0.202,0,0.279c-0.078,0.077-0.205,0.077-0.284,0l-6.812-6.704C9.487,1151.454,9.487,1151.329,9.566,1151.252z"
		/>
	<path fill-rule="evenodd" clip-rule="evenodd" fill="#008CFF" d="M16.377,1157.957l10.785-10.615c0.078-0.077,0.205-0.077,0.284,0
		c0.078,0.077,0.078,0.202,0,0.279l-10.785,10.615c-0.078,0.077-0.205,0.077-0.284,0
		C16.299,1158.159,16.299,1158.034,16.377,1157.957z"/>
</g>
<path fill-rule="evenodd" clip-rule="evenodd" fill="#DCEDFB" stroke="#008CFF" stroke-miterlimit="10" d="M18.506,1174.789
	c9.941,0,18,8.059,18,18c0,9.941-8.059,18-18,18c-9.941,0-18-8.059-18-18C0.506,1182.848,8.565,1174.789,18.506,1174.789z"/>
<g>
	<path fill-rule="evenodd" clip-rule="evenodd" fill="#008CFF" d="M9.566,1191.252c0.078-0.077,0.205-0.077,0.284,0l6.812,6.704
		c0.078,0.077,0.078,0.202,0,0.279c-0.078,0.077-0.205,0.077-0.284,0l-6.812-6.704C9.487,1191.454,9.487,1191.329,9.566,1191.252z"
		/>
	<path fill-rule="evenodd" clip-rule="evenodd" fill="#008CFF" d="M16.377,1197.957l10.785-10.615c0.078-0.077,0.205-0.077,0.284,0
		c0.078,0.077,0.078,0.202,0,0.279l-10.785,10.615c-0.078,0.077-0.205,0.077-0.284,0
		C16.299,1198.159,16.299,1198.034,16.377,1197.957z"/>
</g>
<path fill-rule="evenodd" clip-rule="evenodd" fill="#DCEDFB" stroke="#008CFF" stroke-miterlimit="10" d="M282.506,1174.789
	c9.941,0,18,8.059,18,18c0,9.941-8.059,18-18,18c-9.941,0-18-8.059-18-18C264.506,1182.848,272.565,1174.789,282.506,1174.789z"/>
<g>
	<path fill-rule="evenodd" clip-rule="evenodd" fill="#008CFF" d="M273.566,1191.252c0.078-0.077,0.205-0.077,0.284,0l6.812,6.704
		c0.078,0.077,0.078,0.202,0,0.279s-0.205,0.077-0.284,0l-6.812-6.704C273.487,1191.454,273.487,1191.329,273.566,1191.252z"/>
	<path fill-rule="evenodd" clip-rule="evenodd" fill="#008CFF" d="M280.378,1197.957l10.785-10.615c0.078-0.077,0.206-0.077,0.284,0
		c0.078,0.077,0.078,0.202,0,0.279l-10.786,10.615c-0.078,0.077-0.205,0.077-0.284,0S280.299,1198.034,280.378,1197.957z"/>
</g>
<path fill-rule="evenodd" clip-rule="evenodd" fill="#DCEDFB" stroke="#008CFF" stroke-miterlimit="10" d="M545.335,1174.789
	c9.941,0,18,8.059,18,18c0,9.941-8.059,18-18,18c-9.941,0-18-8.059-18-18C527.335,1182.848,535.394,1174.789,545.335,1174.789z"/>
<g>
	<path fill-rule="evenodd" clip-rule="evenodd" fill="#008CFF" d="M536.394,1191.252c0.078-0.077,0.205-0.077,0.284,0l6.812,6.704
		c0.078,0.077,0.078,0.202,0,0.279c-0.078,0.077-0.205,0.077-0.284,0l-6.812-6.704
		C536.316,1191.454,536.316,1191.329,536.394,1191.252z"/>
	<path fill-rule="evenodd" clip-rule="evenodd" fill="#008CFF" d="M543.206,1197.957l10.785-10.615c0.078-0.077,0.206-0.077,0.284,0
		c0.078,0.077,0.078,0.202,0,0.279l-10.786,10.615c-0.078,0.077-0.205,0.077-0.284,0
		C543.128,1198.159,543.128,1198.034,543.206,1197.957z"/>
</g>
<path fill-rule="evenodd" clip-rule="evenodd" fill="#DCEDFB" stroke="#008CFF" stroke-miterlimit="10" d="M282.506,1134.289
	c9.941,0,18,8.059,18,18c0,9.941-8.059,18-18,18c-9.941,0-18-8.059-18-18C264.506,1142.348,272.565,1134.289,282.506,1134.289z"/>
<g>
	<path fill-rule="evenodd" clip-rule="evenodd" fill="#008CFF" d="M273.566,1150.752c0.078-0.077,0.205-0.077,0.284,0l6.812,6.704
		c0.078,0.077,0.078,0.202,0,0.279s-0.205,0.077-0.284,0l-6.812-6.704C273.487,1150.954,273.487,1150.829,273.566,1150.752z"/>
	<path fill-rule="evenodd" clip-rule="evenodd" fill="#008CFF" d="M280.378,1157.457l10.785-10.615c0.078-0.077,0.206-0.077,0.284,0
		c0.078,0.077,0.078,0.202,0,0.279l-10.786,10.615c-0.078,0.077-0.205,0.077-0.284,0S280.299,1157.534,280.378,1157.457z"/>
</g>
</svg>
