<?xml version="1.0" encoding="utf-8"?>
<!-- Generator: Adobe Illustrator 17.0.0, SVG Export Plug-In . SVG Version: 6.00 Build 0)  -->
<!DOCTYPE svg PUBLIC "-//W3C//DTD SVG 1.1//EN" "http://www.w3.org/Graphics/SVG/1.1/DTD/svg11.dtd">
<svg version="1.1" id="图层_1" xmlns="http://www.w3.org/2000/svg" xmlns:xlink="http://www.w3.org/1999/xlink" x="0px" y="0px"
	 width="313.498px" height="254.021px" viewBox="0 0 313.498 254.021" enable-background="new 0 0 313.498 254.021"
	 xml:space="preserve">
<g>
	<path fill="#FFFFFF" d="M17.481,159.661c-0.055,0.05-0.087,0.122-0.087,0.2c0,0.078,0.034,0.148,0.087,0.2l2.605,2.479
		c0.055,0.052,0.127,0.082,0.212,0.082c0.083,0,0.157-0.032,0.21-0.082l2.607-2.479c0.053-0.05,0.085-0.122,0.085-0.2
		c0-0.078-0.032-0.148-0.085-0.2l-2.607-2.479c-0.053-0.049-0.127-0.082-0.21-0.082s-0.157,0.032-0.212,0.082L17.481,159.661
		L17.481,159.661z"/>
	<g>
		<path fill="#1E9CCE" d="M199.872,13.396c-3.688,0-6.688-3-6.688-6.688s3-6.688,6.688-6.688s6.688,3,6.688,6.688
			S203.56,13.396,199.872,13.396z M199.872,1.021c-3.136,0-5.688,2.551-5.688,5.688s2.552,5.688,5.688,5.688
			s5.688-2.551,5.688-5.688S203.008,1.021,199.872,1.021z"/>
	</g>
	<path fill-rule="evenodd" clip-rule="evenodd" fill="#1E9CCE" d="M204.481,90.146c2.045,0,3.703,1.658,3.703,3.703
		c0,2.045-1.658,3.703-3.703,3.703s-3.703-1.658-3.703-3.703C200.778,91.804,202.436,90.146,204.481,90.146z"/>
	<path fill-rule="evenodd" clip-rule="evenodd" fill="#1E9CCE" d="M235.7,153.083c2.546,0,4.609,2.071,4.609,4.625
		c0,2.555-2.064,4.625-4.609,4.625c-2.546,0-4.609-2.071-4.609-4.625C231.091,155.154,233.154,153.083,235.7,153.083z"/>
	<path fill-rule="evenodd" clip-rule="evenodd" fill="#1E9CCE" d="M135.481,32.24c2.563,0,4.641,2.07,4.641,4.625
		c0,2.554-2.078,4.625-4.641,4.625c-2.563,0-4.641-2.071-4.641-4.625C130.841,34.31,132.918,32.24,135.481,32.24z"/>
	<path fill-rule="evenodd" clip-rule="evenodd" fill="#1E9CCE" d="M88.325,176.302c2.045,0,3.703,1.651,3.703,3.687
		c0,2.037-1.658,3.688-3.703,3.688c-2.045,0-3.703-1.651-3.703-3.688C84.622,177.953,86.28,176.302,88.325,176.302z"/>
	<path fill-rule="evenodd" clip-rule="evenodd" fill="none" stroke="#1E9CCE" stroke-miterlimit="10" d="M153.767,98.078
		c29.406,8.444,48.572,31.56,42.809,51.63c-5.763,20.071-34.273,29.498-63.678,21.054c-29.406-8.443-48.572-31.559-42.809-51.631
		C95.852,99.06,124.362,89.634,153.767,98.078z"/>
	<path fill-rule="evenodd" clip-rule="evenodd" fill="none" stroke="#1E9CCE" stroke-miterlimit="10" d="M161.024,71.532
		c50.82,14.611,83.944,54.611,73.984,89.343c-9.96,34.732-59.232,51.043-110.052,36.432c-50.82-14.611-83.944-54.611-73.984-89.343
		C60.932,73.232,110.204,56.921,161.024,71.532z"/>
	<path fill-rule="evenodd" clip-rule="evenodd" fill="#DEECF9" d="M68.778,234.646h191.594c5.35,0,9.688,4.337,9.688,9.687
		c0,5.35-4.337,9.688-9.688,9.688H68.778c-5.35,0-9.688-4.337-9.688-9.688C59.091,238.983,63.428,234.646,68.778,234.646z"/>
	<path fill-rule="evenodd" clip-rule="evenodd" fill="none" stroke="#1E9CCE" stroke-miterlimit="10" d="M14.219,217.757
		c0,0,2.505,0,7.03,0 M32.123,217.757c1.714,0,3.535,0,5.454,0c2.303,0,4.748,0,7.323,0c3.667,0,23.064,0,27.219,0
		c3.534,0,7.231,0,11.068,0c4.349,0,5.195-0.001,10.426-0.003 M239.356,217.699c12.315,0.007,18.15,0.024,18.594,0.059
		c1.786,0.139,23.232,0,26.742,0 M295.411,217.757c1.305,0,2.549,0,3.729,0 M307.239,217.757c4.038,0,6.26,0,6.26,0"/>
	<path fill-rule="evenodd" clip-rule="evenodd" fill="none" stroke="#1E9CCE" stroke-miterlimit="10" d="M169.731,43.105
		c74.177,21.26,122.524,79.464,107.987,130.002c-14.537,50.538-86.454,74.272-160.631,53.012
		C42.911,204.859-5.437,146.655,9.101,96.117C23.638,45.579,95.555,21.845,169.731,43.105z"/>
	<path fill-rule="evenodd" clip-rule="evenodd" fill="#FFE993" stroke="#EBBB00" stroke-miterlimit="10" d="M150.372,78.583
		c23.058,0,41.75,18.692,41.75,41.75c0,23.058-18.692,41.75-41.75,41.75s-41.75-18.692-41.75-41.75
		C108.622,97.276,127.314,78.583,150.372,78.583z"/>
	<g>
		<path fill="#655F53" d="M143.238,87.992c-2.54,1.773-4.771,4.22-6.692,7.34c-1.922,3.121-3.449,6.808-4.582,11.063
			c-1.133,4.255-1.699,8.829-1.699,13.723c0,4.752,0.566,9.22,1.699,13.403c1.132,4.185,2.677,7.837,4.633,10.957
			c1.956,3.122,4.203,5.585,6.744,7.393c2.538,1.808,5.251,2.713,8.133,2.713s5.611-0.921,8.185-2.766
			c2.574-1.843,4.803-4.343,6.692-7.5c1.887-3.155,3.38-6.825,4.479-11.01c1.097-4.184,1.647-8.617,1.647-13.297
			c0-4.822-0.566-9.343-1.699-13.563c-1.132-4.218-2.661-7.888-4.581-11.01c-1.922-3.12-4.154-5.585-6.692-7.393
			c-2.54-1.808-5.251-2.713-8.134-2.713C148.489,85.333,145.777,86.22,143.238,87.992z M138.297,120.011
			c0-10.992,0.943-19.076,2.831-24.254c1.887-5.176,5.302-7.766,10.244-7.766c5.01,0,8.442,2.643,10.296,7.925
			c1.853,5.284,2.78,13.315,2.78,24.094c0,10.85-0.927,18.882-2.78,24.094c-1.853,5.212-5.286,7.819-10.296,7.819
			C142.655,151.924,138.297,141.286,138.297,120.011L138.297,120.011z"/>
	</g>
	<path id="path-1_1_" fill="#42AF35" d="M190.429,215.821c-0.231,0.132-0.494,0.198-0.791,0.198c-0.659,0-1.219-0.363-1.516-0.891
		l-0.099-0.264l-4.712-10.359c-0.066-0.099-0.099-0.231-0.099-0.363c0-0.462,0.395-0.858,0.857-0.858
		c0.198,0,0.362,0.066,0.527,0.165l5.569,3.959c0.395,0.264,0.89,0.429,1.417,0.429c0.297,0,0.593-0.066,0.89-0.165l26.163-11.646
		c-4.679-5.542-12.423-9.138-21.155-9.138c-14.301,0-25.9,9.666-25.9,21.609c0,6.499,3.493,12.371,8.963,16.33
		c0.428,0.297,0.725,0.825,0.725,1.419c0,0.198-0.033,0.363-0.099,0.561c-0.428,1.617-1.12,4.223-1.153,4.355
		c-0.066,0.198-0.132,0.429-0.132,0.627c0,0.462,0.395,0.858,0.857,0.858c0.198,0,0.329-0.066,0.494-0.165l5.668-3.266
		c0.428-0.231,0.89-0.396,1.384-0.396c0.264,0,0.527,0.033,0.758,0.099c2.636,0.759,5.503,1.188,8.468,1.188
		c14.301,0,25.9-9.666,25.9-21.609c0-3.629-1.054-7.027-2.966-9.996l-29.821,17.221L190.429,215.821L190.429,215.821z"/>
	<g>
		<path fill-rule="evenodd" clip-rule="evenodd" fill="#00A0E9" d="M50.033,37.513c12.7,0,22.995,10.297,22.995,22.999
			c0,5.651-2.038,10.826-5.418,14.831c-0.075,0.089-0.228,0.267-0.228,0.267l1.319,7.902l-7.786-2.732c0,0-0.145,0.078-0.219,0.116
			c-3.187,1.671-6.814,2.617-10.662,2.617c-12.7,0-22.995-10.297-22.995-23C27.038,47.811,37.333,37.513,50.033,37.513z"/>
		<path fill="#FFFFFF" d="M61.713,65.643c-1.39-0.453-3.255-1.147-5.332-1.88c1.248-2.114,2.243-4.521,2.898-7.136h-6.846v-2.404
			h8.386v-1.341h-8.386v-4.007H49.01c-0.6,0-0.6,0.578-0.6,0.578v3.429h-8.482v1.341h8.482v2.404h-7.003v1.342H54.99
			c-0.498,1.669-1.165,3.236-1.957,4.659c-4.407-1.417-9.111-2.566-12.065-1.859c-1.889,0.454-3.105,1.264-3.821,2.112
			c-3.281,3.892-0.928,9.802,6.001,9.802c4.098,0,8.045-2.227,11.104-5.896c4.563,2.138,14.988,6.444,14.988,6.444l2.705-4.871
			C71.946,68.36,66.714,67.275,61.713,65.643 M42.502,70.419c-5.403,0-7.002-4.149-4.331-6.419c0.89-0.767,2.519-1.141,3.387-1.225
			c3.209-0.31,6.181,0.884,9.688,2.553C48.781,68.462,45.643,70.419,42.502,70.419"/>
	</g>
	<path fill-rule="evenodd" clip-rule="evenodd" fill="#E62121" d="M19.835,136.737c10.954,0,19.835,8.886,19.835,19.848
		c0,4.877-1.758,9.343-4.674,12.798c-0.065,0.077-0.197,0.23-0.197,0.23l1.137,6.82l-6.716-2.358c0,0-0.125,0.067-0.188,0.1
		c-2.749,1.442-5.877,2.258-9.197,2.258C8.88,176.433,0,167.547,0,156.585C0,145.623,8.88,136.737,19.835,136.737z"/>
	<path fill="#FFFFFF" d="M23.197,153.514c-0.786,0-1.54,0.13-2.241,0.366l-0.002,0.002c-0.066,0.02-0.11,0.078-0.11,0.144
		c0,0.076,0.059,0.14,0.138,0.15l0,0c3.005,0.32,5.343,2.743,5.343,5.684c0,3.161-2.694,5.722-6.019,5.722
		c-3.325,0-6.019-2.561-6.019-5.722c0-1.768,0.851-3.416,1.974-4.529c1.605-1.688,3.829-3.017,6.135-3.962
		c0.18-0.072,0.392-0.156,0.494-0.196c0.008-0.002,0.017-0.006,0.023-0.008c1.601-0.603,3.302-1.017,5.074-1.205
		c0.148-0.014,0.263-0.133,0.263-0.28l0,0c-0.049-1.223-1.097-2.192-2.395-2.192c-0.303,0-0.574,0.05-0.871,0.142
		c-2.482,0.817-4.551,1.225-7.027,1.225c-1.675,0-3.295-0.2-4.848-0.573h-0.004c-0.665-0.16-1.285-0.425-1.84-0.777
		c-0.025-0.016-0.055-0.026-0.087-0.026c-0.089,0-0.159,0.068-0.159,0.152c0,0.012,0.002,0.022,0.004,0.034
		c0.455,2.024,2.037,3.652,4.092,4.259c0.065,0.02,0.112,0.076,0.112,0.144c0,0.054-0.03,0.1-0.072,0.128
		c-2.656,1.616-4.416,4.445-4.416,7.663c0,5.023,4.282,9.096,9.569,9.096c5.284,0,9.566-4.071,9.566-9.096
		C29.874,156.357,26.884,153.514,23.197,153.514L23.197,153.514z"/>
	<path fill-rule="evenodd" clip-rule="evenodd" fill="#E62121" d="M240.312,60.96c9.71,0,17.581,7.877,17.581,17.593
		c0,4.323-1.558,8.281-4.143,11.344c-0.058,0.068-0.175,0.204-0.175,0.204l1.008,6.045l-5.953-2.09c0,0-0.111,0.06-0.167,0.089
		c-2.436,1.278-5.21,2.001-8.151,2.001c-9.71,0-17.581-7.877-17.581-17.593C222.731,68.837,230.603,60.96,240.312,60.96z"/>
	<path fill="#FFFFFF" d="M244.1,86.207h-2.539h-1.693v-1.704V73.425v-1.704h1.693h2.539c3.505,0,6.348,3.243,6.348,7.243
		C250.448,82.964,247.606,86.207,244.1,86.207L244.1,86.207z M244.1,73.425h-2.539v11.077h2.539c2.571,0,4.655-2.48,4.655-5.538
		S246.671,73.425,244.1,73.425L244.1,73.425z M232.674,86.207h-0.846v-1.704h0.846c1.87,0,3.386-1.526,3.386-3.409v-9.372h1.693
		v9.372C237.752,83.917,235.479,86.207,232.674,86.207L232.674,86.207z M232.674,86.207"/>
</g>
</svg>
