<?xml version="1.0" encoding="utf-8"?>
<!-- Generator: Adobe Illustrator 17.0.0, SVG Export Plug-In . SVG Version: 6.00 Build 0)  -->
<!DOCTYPE svg PUBLIC "-//W3C//DTD SVG 1.1//EN" "http://www.w3.org/Graphics/SVG/1.1/DTD/svg11.dtd">
<svg version="1.1" id="图层_1" xmlns="http://www.w3.org/2000/svg" xmlns:xlink="http://www.w3.org/1999/xlink" x="0px" y="0px"
	 width="328px" height="262px" viewBox="0 0 328 262" enable-background="new 0 0 328 262" xml:space="preserve">
<g>
	<path fill-rule="evenodd" clip-rule="evenodd" fill="#FFFFFF" stroke="#1E9CCE" stroke-miterlimit="10" d="M39.321,168.829
		c0,0,2.375,0,6.665,0 M56.295,168.829c1.625,0,3.351,0,5.171,0c2.183,0,4.502,0,6.943,0c3.477,0,7.202,0,11.141,0
		c3.351,0,6.855,0,10.493,0c48.851,0,163.992-0.133,165.686,0c1.694,0.132,7.361,0,10.69,0 M276.582,168.829
		c1.237,0,2.417,0,3.535,0 M287.794,168.829c3.829,0,5.935,0,5.935,0"/>
	<path fill-rule="evenodd" clip-rule="evenodd" fill="#F2F9FF" d="M74.922,196.718h181.563c5.1,0,9.234,4.134,9.234,9.234
		c0,5.1-4.134,9.235-9.234,9.235H74.922c-5.1,0-9.234-4.134-9.234-9.235C65.688,200.852,69.822,196.718,74.922,196.718z"/>
	<path fill-rule="evenodd" clip-rule="evenodd" fill="#FFFFFF" stroke="#1E9CCE" stroke-miterlimit="10" d="M73.085,110.046
		c0-51.162,41.361-92.637,92.381-92.637c51.021,0,92.381,41.475,92.381,92.637c0,51.162-41.36,92.636-92.381,92.636
		c-15.124,0-29.399-3.644-42-10.105c-1.603-0.822-3.18-1.69-4.727-2.602c-2.683-1.581-5.28-3.293-7.781-5.129
		c-11.666-8.562-21.254-19.803-27.864-32.818 M78.435,141.187c-0.974-2.737-1.823-5.534-2.541-8.383"/>
	<path fill-rule="evenodd" clip-rule="evenodd" fill="#E5F4FF" stroke="#1E9CCE" stroke-miterlimit="10" d="M165.954,17.409
		c27.159,0,48.636,14.129,48.636,14.129v129.238h-97.513V30.937C117.076,30.937,137.718,17.409,165.954,17.409z"/>
	<path fill-rule="evenodd" clip-rule="evenodd" fill="#E5F4FF" stroke="#1E9CCE" stroke-miterlimit="10" d="M295.609,67.405
		c17.613,0,31.891,14.32,31.891,31.984c0,17.664-14.278,31.984-31.891,31.984c-17.613,0-31.891-14.32-31.891-31.984
		C263.719,81.725,277.997,67.405,295.609,67.405z"/>
	<path fill-rule="evenodd" clip-rule="evenodd" fill="#E5F4FF" stroke="#1E9CCE" stroke-miterlimit="10" d="M37.531,10.78
		c20.452,0,37.031,16.628,37.031,37.141c0,20.512-16.579,37.141-37.031,37.141C17.08,85.061,0.5,68.433,0.5,47.921
		C0.5,27.409,17.08,10.78,37.531,10.78z"/>
	<path fill-rule="evenodd" clip-rule="evenodd" fill="#6BC8FE" stroke="#1E9CCE" stroke-miterlimit="10" d="M37.892,24.026
		c0,0,10.273,7.352,19.796,7.352v19.851c0,0-2.216,15.047-19.796,20.586c0,0-16.445-2.213-19.796-19.851V31.657
		C18.096,31.657,29.856,31.246,37.892,24.026z"/>
	<path fill-rule="evenodd" clip-rule="evenodd" fill="none" stroke="#FFFFFF" stroke-width="3" stroke-miterlimit="10" d="
		M26.161,45.347l8.065,7.352L49.623,38.73"/>
	<path fill-rule="evenodd" clip-rule="evenodd" fill="#9AEDDC" stroke="#38BDA3" stroke-miterlimit="10" d="M315.615,83.069
		c-0.104-0.655-0.138-0.683-0.811-0.807c-1.236-0.228-2.481-0.182-3.718-0.054c-2.454,0.252-4.846,0.797-7.17,1.631
		c-4.112,1.477-7.743,3.683-10.678,6.952c-0.165,0.184-0.335,0.217-0.574,0.191c-1.263-0.136-2.531-0.358-3.796-0.348
		c-2.208,0.018-3.934,1.027-5.131,2.894c-0.654,1.021-1.302,2.045-1.954,3.067c-0.606,0.949-1.23,1.886-1.817,2.847
		c-0.835,1.367-0.045,3.004,1.513,3.121c1.873,0.141,3.748,0.252,5.623,0.355c0.338,0.019,0.482,0.11,0.515,0.467
		c0.111,1.19,0.429,2.323,1.07,3.347c1.246,1.991,3.06,3.087,5.378,3.391c0.873,0.114,0.849,0.123,0.911,1.021
		c0.125,1.796,0.258,3.592,0.427,5.385c0.147,1.56,1.77,2.34,3.089,1.48c2.096-1.364,4.207-2.709,6.237-4.167
		c1.892-1.358,2.714-3.273,2.473-5.612c-0.103-1.003-0.186-2.008-0.288-3.011c-0.032-0.31,0.043-0.546,0.284-0.766
		c2.968-2.711,5.086-5.994,6.534-9.723c1.21-3.117,1.935-6.334,2.038-9.681C315.801,84.382,315.718,83.724,315.615,83.069
		L315.615,83.069 M304.489,97.41c-2.166-0.016-4.107-1.951-4.062-4.086c0.054-2.561,2.014-4.2,4.277-4.164
		c2.179,0.036,4.012,1.934,3.985,4.14C308.66,95.601,306.797,97.426,304.489,97.41L304.489,97.41 M304.489,97.41"/>
	<path fill-rule="evenodd" clip-rule="evenodd" fill="#9AEDDC" stroke="#38BDA3" stroke-miterlimit="10" d="M284.353,105.895
		c0.555,0.008,0.862,0.252,1.062,0.817c0.78,2.215,2.2,3.896,4.258,5.035c0.454,0.251,0.933,0.455,1.427,0.623
		c0.889,0.302,1.092,1.166,0.432,1.83c-0.977,0.983-1.964,1.955-2.941,2.938c-0.323,0.325-0.678,0.479-1.133,0.311
		c-0.461-0.171-0.684-0.512-0.708-0.988c-0.014-0.302-0.007-0.605-0.014-0.908c-0.013-0.555-0.018-0.56-0.531-0.391
		c-1.098,0.362-2.195,0.728-3.292,1.091c-0.323,0.107-0.648,0.151-0.965-0.028c-0.464-0.262-0.639-0.73-0.452-1.307
		c0.365-1.123,0.747-2.242,1.12-3.363c0.162-0.486,0.152-0.497-0.375-0.504c-0.318-0.006-0.637,0-0.954-0.016
		c-0.463-0.022-0.792-0.245-0.963-0.682c-0.167-0.425-0.06-0.796,0.252-1.109c1.019-1.022,2.043-2.039,3.066-3.058
		C283.846,105.985,284.088,105.87,284.353,105.895L284.353,105.895L284.353,105.895 M284.353,105.895"/>
	<path fill-rule="evenodd" clip-rule="evenodd" fill="#9AEDDC" stroke="#38BDA3" stroke-miterlimit="10" d="M279.979,115.086
		c0.216,0.003,0.336,0.098,0.413,0.318c-1.18,3.268,2.02,2.135,2.212,2.201c0.346,0.118,0.425,0.453,0.168,0.712
		c-0.38,0.382-0.764,0.761-1.144,1.143c-0.125,0.127-0.264,0.186-0.441,0.121c-0.18-0.066-0.266-0.199-0.275-0.384
		c-0.006-0.118-0.003-0.235-0.005-0.353c-0.005-0.216-0.007-0.218-0.207-0.152c-0.427,0.141-0.854,0.284-1.281,0.424
		c-0.126,0.042-0.252,0.059-0.375-0.01c-0.18-0.102-0.249-0.284-0.176-0.508c0.142-0.438,0.29-0.872,0.436-1.308
		c0.063-0.189,0.059-0.193-0.146-0.196c-0.124-0.002-0.247,0-0.371-0.006c-0.18-0.008-0.308-0.095-0.375-0.265
		c-0.065-0.166-0.023-0.31,0.098-0.431c0.396-0.397,0.795-0.793,1.193-1.189C279.782,115.121,279.875,115.075,279.979,115.086
		L279.979,115.086L279.979,115.086 M279.979,115.086"/>
	<path fill-rule="evenodd" clip-rule="evenodd" fill="none" stroke="#1E9CCE" stroke-miterlimit="10" d="M123.297,0.499
		c2.632,0,4.766,2.141,4.766,4.781c0,2.641-2.134,4.781-4.766,4.781c-2.632,0-4.766-2.141-4.766-4.781
		C118.531,2.639,120.665,0.499,123.297,0.499z"/>
	<path fill-rule="evenodd" clip-rule="evenodd" fill="none" stroke="#1E9CCE" stroke-miterlimit="10" d="M282.781,147.53
		c2.434,0,4.406,1.98,4.406,4.422c0,2.442-1.973,4.422-4.406,4.422c-2.434,0-4.406-1.98-4.406-4.422
		C278.375,149.51,280.348,147.53,282.781,147.53z"/>
	<path fill-rule="evenodd" clip-rule="evenodd" fill="#1E9CCE" d="M136.359,68.093c0-0.666,0.542-1.211,1.207-1.211h17.856v-2.424
		c-9.962,0-17.856,0-17.856,0c-2.001,0-3.625,1.629-3.625,3.636c0,0,0,8.222,0,18.481h2.416L136.359,68.093L136.359,68.093
		L136.359,68.093z"/>
	<path fill-rule="evenodd" clip-rule="evenodd" fill="#1E9CCE" d="M196.767,68.093v18.554h2.416c0-10.294,0-18.554,0-18.554
		c0-2.007-1.624-3.636-3.624-3.636c0,0-8.072,0-18.193,0v2.424h18.193C196.224,66.882,196.767,67.426,196.767,68.093L196.767,68.093
		z"/>
	<path fill-rule="evenodd" clip-rule="evenodd" fill="#1E9CCE" d="M136.359,126.269v-18.963h-2.416c0,10.483,0,18.963,0,18.963
		c0,2.007,1.624,3.636,3.624,3.636c0,0,7.944,0,17.95,0v-2.424h-17.951C136.901,127.48,136.359,126.936,136.359,126.269
		L136.359,126.269z"/>
	<path fill-rule="evenodd" clip-rule="evenodd" fill="#1E9CCE" d="M196.767,126.269c0,0.667-0.542,1.211-1.207,1.211h-18.125v2.424
		c10.088,0,18.125,0,18.125,0c2.001,0,3.625-1.629,3.625-3.636c0,0,0-8.437,0-18.886h-2.417L196.767,126.269L196.767,126.269
		L196.767,126.269z"/>
	<path fill-rule="evenodd" clip-rule="evenodd" fill="#1E9CCE" d="M161.26,75.819v-0.015h-11.983c-2.504,0-4.531,2.02-4.546,4.518
		h-0.001v11.355c0,0.135,0.027,0.262,0.067,0.383c0.364,2.147,2.227,3.784,4.48,3.784h11.983v-0.013
		c2.12-0.133,3.843-1.716,4.188-3.771c0.041-0.121,0.07-0.248,0.07-0.383V80.322h-0.001
		C165.505,77.921,163.627,75.968,161.26,75.819L161.26,75.819L161.26,75.819z M163.125,91.061c0,1.321-1.072,2.391-2.393,2.391
		h-11.218c-1.322,0-2.392-1.069-2.392-2.391V80.587c0-1.321,1.07-2.391,2.392-2.391h11.218c1.322,0,2.393,1.071,2.393,2.391V91.061
		L163.125,91.061L163.125,91.061z M187.349,80.211c-0.012-2.341-1.844-4.247-4.153-4.393v-0.015h-10.454
		c-2.443,0-4.419,1.972-4.434,4.407h-0.001v11.078c0,0.132,0.026,0.256,0.067,0.374c0.354,2.095,2.172,3.691,4.367,3.691h10.454
		v-0.012c2.068-0.131,3.748-1.675,4.088-3.679c0.04-0.118,0.066-0.242,0.066-0.374V80.211H187.349L187.349,80.211L187.349,80.211z
		 M185.016,90.688c0,1.289-1.044,2.333-2.335,2.333h-9.705c-1.29,0-2.335-1.044-2.335-2.333V80.469c0-1.288,1.045-2.333,2.335-2.333
		h9.705c1.29,0,2.335,1.045,2.335,2.333V90.688L185.016,90.688L185.016,90.688z M160.815,99.071v-0.014h-11.661
		c-2.436,0-4.41,1.966-4.423,4.397h-0.001v11.048c0,0.132,0.026,0.257,0.066,0.374c0.353,2.089,2.167,3.682,4.358,3.682h11.661
		v-0.013c2.063-0.129,3.739-1.67,4.076-3.67c0.042-0.117,0.068-0.241,0.068-0.374v-11.048h-0.003
		C164.945,101.118,163.119,99.216,160.815,99.071L160.815,99.071L160.815,99.071z M162.631,113.904c0,1.285-1.043,2.326-2.328,2.326
		H149.76h-0.003h-0.372c-1.285,0-2.328-1.041-2.328-2.326V103.71c0-1.284,1.043-2.326,2.328-2.326h10.917
		c1.285,0,2.328,1.043,2.328,2.326V113.904L162.631,113.904L162.631,113.904z M177.473,110.736c-0.804,0-1.454,0.63-1.454,1.406
		v2.811c0,0.778,0.65,1.407,1.454,1.407c0.804,0,1.454-0.629,1.454-1.407v-2.811C178.927,111.366,178.277,110.736,177.473,110.736
		L177.473,110.736L177.473,110.736z M183.67,109.329c-0.804,0-1.454,0.629-1.454,1.406v4.219c0,0.778,0.65,1.406,1.454,1.406
		c0.805,0,1.455-0.628,1.455-1.406v-4.219C185.125,109.958,184.474,109.329,183.67,109.329L183.67,109.329L183.67,109.329z
		 M183.67,100.892c-0.804,0-1.454,0.63-1.454,1.407v2.811c0,0.776,0.65,1.406,1.454,1.406c0.805,0,1.455-0.63,1.455-1.406v-2.811
		C185.125,101.522,184.474,100.892,183.67,100.892L183.67,100.892L183.67,100.892z M177.473,100.894
		c-0.804,0-1.454,0.63-1.454,1.406v5.625c0,0.776,0.65,1.405,1.454,1.405c0.804,0,1.454-0.628,1.454-1.405V102.3
		C178.927,101.523,178.277,100.894,177.473,100.894L177.473,100.894L177.473,100.894z M171.196,107.925
		c-0.801,0-1.453,0.625-1.453,1.404v5.624c0,0.778,0.652,1.406,1.453,1.406c0.807,0,1.457-0.628,1.457-1.406v-5.624
		C172.654,108.551,172.003,107.925,171.196,107.925L171.196,107.925L171.196,107.925z M171.196,100.892
		c-0.801,0-1.453,0.63-1.453,1.407v1.406c0,0.777,0.652,1.405,1.453,1.405c0.807,0,1.457-0.628,1.457-1.405v-1.406
		C172.654,101.522,172.003,100.892,171.196,100.892L171.196,100.892L171.196,100.892z"/>
	<g>
		<path fill-rule="evenodd" clip-rule="evenodd" fill="#E5F4FF" stroke="#1E9CCE" stroke-miterlimit="10" d="M239.516,207.093
			c14.989,0,27.141,12.179,27.141,27.203c0,15.024-12.151,27.203-27.141,27.203c-14.989,0-27.141-12.179-27.141-27.203
			C212.375,219.272,224.526,207.093,239.516,207.093z"/>
		<path fill-rule="evenodd" clip-rule="evenodd" fill="#FFE993" stroke="#EBBB00" stroke-miterlimit="10" d="M239.891,214.436
			c11.141,0,20.172,9.052,20.172,20.219c0,11.167-9.031,20.219-20.172,20.219c-11.141,0-20.172-9.052-20.172-20.219
			C219.719,223.489,228.75,214.436,239.891,214.436z"/>
		<path fill-rule="evenodd" clip-rule="evenodd" fill="#EBBB00" d="M231.719,232.186h17.063c0.552,0,1,0.448,1,1v1.062
			c0,0.552-0.448,1-1,1h-17.063c-0.552,0-1-0.448-1-1v-1.062C230.719,232.634,231.167,232.186,231.719,232.186z"/>
		<path fill-rule="evenodd" clip-rule="evenodd" fill="#EBBB00" d="M231.719,237.28h17.063c0.552,0,1,0.447,1,1v1.063
			c0,0.552-0.448,1-1,1h-17.063c-0.552,0-1-0.448-1-1v-1.063C230.719,237.728,231.167,237.28,231.719,237.28z"/>
		<path fill-rule="evenodd" clip-rule="evenodd" fill="#EBBB00" d="M239.894,231.02h0.717c0.554,0,1.003,0.458,1.003,1.024
			l0.158,14.459c0,0.561-0.501,1.015-1.12,1.015h-0.8c-0.618,0-1.12-0.455-1.12-1.015l0.158-14.459
			C238.891,231.479,239.34,231.02,239.894,231.02z"/>
		<path fill-rule="evenodd" clip-rule="evenodd" fill="#EBBB00" d="M234.243,224.381l5.776,5.833c0.532,0.537,0.532,1.407,0,1.944
			c-0.532,0.537-1.394,0.537-1.925,0l-5.776-5.832c-0.532-0.537-0.532-1.408,0-1.945
			C232.849,223.845,233.711,223.845,234.243,224.381z"/>
		<path fill-rule="evenodd" clip-rule="evenodd" fill="#EBBB00" d="M246.185,224.537l-5.545,5.599c-0.511,0.516-0.511,1.351,0,1.867
			c0.51,0.515,1.338,0.515,1.848,0l5.545-5.6c0.51-0.515,0.51-1.351,0-1.867C247.523,224.022,246.696,224.022,246.185,224.537z"/>
	</g>
</g>
</svg>
