<?xml version="1.0" encoding="utf-8"?>
<!-- Generator: Adobe Illustrator 17.0.0, SVG Export Plug-In . SVG Version: 6.00 Build 0)  -->
<!DOCTYPE svg PUBLIC "-//W3C//DTD SVG 1.1//EN" "http://www.w3.org/Graphics/SVG/1.1/DTD/svg11.dtd">
<svg version="1.1" id="图层_1" xmlns="http://www.w3.org/2000/svg" xmlns:xlink="http://www.w3.org/1999/xlink" x="0px" y="0px"
	 width="395.062px" height="252.515px" viewBox="0 0 395.062 252.515" enable-background="new 0 0 395.062 252.515"
	 xml:space="preserve">
<g>
	<path fill-rule="evenodd" clip-rule="evenodd" fill="none" stroke="#1E9CCE" stroke-miterlimit="10" d="M115.95,233.254
		c-8.893-7.232-16.818-15.605-23.554-24.895 M84.662,196.371c-4.89-8.57-8.84-17.745-11.71-27.384 M67.527,131.57
		c0-28.046,8.82-54.034,23.839-75.348 M104.775,40.094c1.175-1.204,2.373-2.386,3.594-3.544
		c10.951-10.394,23.696-18.918,37.724-25.063C162.205,4.431,180.01,0.515,198.73,0.515c38.735,0,73.55,16.767,97.567,43.431
		 M313.177,67.436c4.251,7.552,7.774,15.568,10.475,23.953c3.919,12.166,6.106,25.107,6.272,38.534
		c0.007,0.548,0.01,1.097,0.01,1.647 M328.336,152.087c-2.1,13.342-6.215,26.015-12.024,37.699 M304.81,208.709
		c-6.855,9.389-14.929,17.834-23.99,25.102"/>
	<path fill-rule="evenodd" clip-rule="evenodd" fill="#DEECF9" d="M105.29,232.983h192.92c5.39,0,9.759,4.369,9.759,9.759v0.014
		c0,5.39-4.369,9.759-9.759,9.759H105.29c-5.39,0-9.759-4.369-9.759-9.759v-0.014C95.531,237.352,99.9,232.983,105.29,232.983z"/>
	<path fill-rule="evenodd" clip-rule="evenodd" fill="#FFFFFF" stroke="#1E9CCE" stroke-miterlimit="10" d="M43.397,201.242
		c0,0,2.522,0,7.078,0 M61.424,201.242c1.726,0,3.559,0,5.492,0c2.319,0,4.781,0,7.373,0c3.692,0,7.649,0,11.832,0
		c3.558,0,7.281,0,11.144,0c51.88,0,175.962-0.14,177.76,0c1.799,0.14,52.738,0,56.274,0 M342.092,201.242c1.314,0,2.566,0,3.754,0
		 M354,201.242c4.066,0,6.303,0,6.303,0"/>
	<path fill-rule="evenodd" clip-rule="evenodd" fill="#9AEDDC" stroke="#38BDA3" stroke-miterlimit="10" d="M324.375,139.733h60.188
		c5.523,0,10,4.477,10,10v11.907c0,5.523-4.477,10-10,10h-60.188c-5.523,0-10-4.477-10-10v-11.907
		C314.375,144.21,318.852,139.733,324.375,139.733z"/>
	<path fill-rule="evenodd" clip-rule="evenodd" fill="#FFE993" stroke="#EBBB00" stroke-miterlimit="10" d="M10.563,139.733H70.75
		c5.523,0,10,4.477,10,10v11.907c0,5.523-4.477,10-10,10H10.563c-5.523,0-10-4.477-10-10v-11.907
		C0.563,144.21,5.04,139.733,10.563,139.733z"/>
	
		<text transform="matrix(1 0 0 1 5.5632 161.8461)" fill="#666054" font-family="'PingFangSC-Regular-83pv-RKSJ-H'" font-size="17.5222">当日营收</text>
	
		<text transform="matrix(1 0 0 1 319.5632 161.8461)" fill="#666054" font-family="'PingFangSC-Regular-83pv-RKSJ-H'" font-size="17.5222">次日提现</text>
	<path fill-rule="evenodd" clip-rule="evenodd" fill="#FFFFFF" stroke="#1E9CCE" stroke-miterlimit="10" d="M198.406,29.671
		c56.419,0,102.156,45.758,102.156,102.203c0,56.445-45.737,102.203-102.156,102.203c-56.419,0-102.156-45.758-102.156-102.203
		C96.25,75.429,141.987,29.671,198.406,29.671z"/>
	<path fill-rule="evenodd" clip-rule="evenodd" fill="#FFFFFF" stroke="#1E9CCE" stroke-miterlimit="10" d="M198.734,28.515
		c56.98,0,103.172,46.31,103.172,103.437c0,57.127-46.192,103.437-103.172,103.437c-56.98,0-103.172-46.311-103.172-103.437
		C95.563,74.825,141.754,28.515,198.734,28.515z"/>
	<path fill-rule="evenodd" clip-rule="evenodd" fill="#CDE0EC" d="M200.185,28.766v206.007
		c56.202-0.777,101.524-46.591,101.524-103.003C301.71,75.357,256.387,29.543,200.185,28.766z"/>
	<g>
		<path fill="#5F9CA4" d="M271.575,157.1c-0.98,0.027-2.244,0.486-2.267,0.815c-0.018,0.342-1.365,0.941-1.808,1.121
			c-0.445,0.179-1.309,1.558-1.499,2.01c-0.188,0.454-1.289,0.316-1.694,0.503c-0.406,0.179-1.243,0.851-1.25,1.257
			c-0.002,0.403-0.227,0.359-0.504-0.102c0,0,0,0-0.531,0.563c-0.635,0.701-0.635,0.701-0.635,0.701
			c-0.361,1.143-1.572,2.581-1.983,2.704c-0.415,0.114-0.487,2.119-0.487,2.917c0,0.814,0.308,1.808,0.696,2.214
			c0,0,0,0,0.082,0.644c0.14,1.273,0.14,1.273,0.14,1.273c-0.222,0.984,0.529,1.863,0.746,2.039
			c0.218,0.168,2.051-0.327,2.754-0.501c0.29-0.068,0.655-0.229,1-0.406c3.276-5.483,5.853-11.433,7.633-17.712
			C271.829,157.112,271.695,157.098,271.575,157.1z"/>
		<path fill="#CDD5D8" d="M149.114,158.999c-0.102,0.202,1.218,1.567,1.736,2.026c0.513,0.47,1.604,2.693,1.829,3.423
			c0.22,0.73,0.088,1.922,0.016,2.205c-0.064,0.283,0.249,0.901,0.301,1.157c0.047,0.256-0.456,2.441-0.265,3.318
			c0.193,0.878-1.025,3.616-0.996,4.972c0.029,1.363,0.644,3.135,0.896,3.003c0.243-0.134,0.329,1.239-0.086,1.4
			c-0.415,0.165-0.896,1.25-0.662,1.304c0.231,0.057-0.021,1.125,0.048,1.554c0.059,0.426,0.42,3.248,0.499,3.95
			c0.08,0.705,1.08,2.42,1.295,3.001c0.209,0.585,0.424,1.686,0.504,1.853c0.082,0.172,0.186,0.343,0.186,0.343
			s0.837,0.311,1.075,0.49c0.241,0.177,1.822,0.066,2.343-0.043c0.519-0.105,0.043-0.579-0.193-0.837
			c-0.234-0.257-0.442-1.511-0.708-1.64c-0.265-0.122-0.385-1.722-0.147-2.073c0.236-0.356,1.184-0.919,1.289-1.214
			c0.102-0.297,0.131-1.688-0.125-1.878c-0.256-0.19,0.077-1.878-0.116-2.718c-0.193-0.837,1.456-1.601,1.556-2.266
			c0.089-0.662,1.878-1.375,2.277-1.706c0.406-0.34,0.76-2.239,0.567-2.648c-0.199-0.41,0.656-0.742,1.037-0.742
			c0.377,0,0.803-0.27,0.957-0.27c0.143-0.007,0.597-0.848,0.837-1.041c0.247-0.193,0.749-2.207,1.189-2.536
			c0.445-0.333,0.812-1.547,0.812-1.901c0-0.356,0.676-1.418,0.9-1.735c0.224-0.32,1.885-1.082,2.182-1.2
			c0.301-0.123,0.753-2.797,0.867-3.759c0.109-0.962,0.613-2.246,0.653-2.563c0.03-0.311,0.565-0.585,0.662-0.685
			c0.102-0.1,0.499-1.323,0.755-1.606c0.256-0.281,1.177-1.447,1.197-1.708c0.025-0.261,0.163-0.928,0.315-1.488
			c0,0,0,0-0.005-0.654c0.007-1.041,0.007-1.041,0.007-1.041c-0.292-0.803-1.186-1.815-1.413-1.59
			c-0.229,0.22-1.259-0.714-1.787-0.912c-0.526-0.195-1.837-0.358-2.164-0.358c-0.334,0-1.481-0.939-1.998-1.102
			c-0.511-0.163-1.819-0.41-2.058-0.567c-0.242-0.15-0.563-2.101-1.617-2.738c-1.061-0.64-2.91-2.123-3.11-2.67
			c-0.204-0.546-2.234-1.69-2.861-2.035c-0.622-0.345-1.572-0.429-1.688-0.302c-0.123,0.116-0.901-1.055-1.304-1.393
			c-0.406-0.329-1.622-0.605-1.676-0.311c-0.055,0.302-0.86,0.145-1.05-0.111c-0.188-0.249-0.817,0.104-1.11,0.2
			c-0.293,0.095-1.3,1.636-1.758,2.005c-0.468,0.368-1.021-0.342-1.325-0.474c-0.308-0.132-1.472,0.227-1.788,0.454
			c-0.315,0.225-1.048-1.629-0.878-2.484c0.17-0.857-0.763-2.556-1.49-2.595c-0.717-0.043-0.943-1.829-0.8-2.488
			c0.143-0.656-1.307-1.071-1.668-1.112c-0.367-0.048-1.266,0.876-1.42,1.322c-0.157,0.445-3.437-0.605-3.047-2.57
			c0.379-1.971,1.935-4.004,2.323-4.249c0.388-0.234,2.498-0.354,2.963-0.089c0.467,0.272,0.889-0.005,0.967-0.123
			c0.08-0.125,1.801,0.016,2.312,0.227c0.513,0.209,1.252,2.196,1.781,2.439c0.542,0.25,0.73-1.28,0.814-1.656
			c0.091-0.37-0.257-1.314-0.386-1.581c-0.13-0.266,0.855-2.675,1.665-3.083c0.796-0.415,1.649-1.754,1.579-1.992
			c-0.071-0.232,0.646-0.42,0.837-0.52c0.191-0.098-0.027-2.048,0.284-2.475c0.318-0.417,1.83-1.311,2.307-1.513
			c0.474-0.2,0.835-1.431,0.662-1.644c-0.172-0.222,1.238-1.42,1.973-1.652c0.728-0.225,1.359,0.42,1.177,0.524
			c0.146-0.084,1.157-0.603,1.588-0.885c0.503-0.336,0.005-1.248-0.32-1.518c-0.316-0.261-0.125-1.32,0.261-1.418
			c0.394-0.093,0.731-1.01,0.63-1.204c-0.102-0.2,1.608,0.156,2.259-0.327c0.649-0.486,0.184,1.161-0.29,1.824
			c-0.474,0.658,0.352,1.291,0.656,1.161c0.307-0.125,0.635,0.354,0.696,0.54c0.063,0.186,0.724-0.191,1.155-0.004
			c0.429,0.19,0.685-0.594,0.721-0.948c0.03-0.365-1.03-1.112-1.198-1.543c-0.166-0.427-0.236-2.942-0.261-3.461
			c-0.021-0.513-0.712-1.35-0.939-1.2c-0.216,0.146-0.669-1.336-1.03-1.658c-0.361-0.324-0.444-1.034-0.427-1.273
			c0.018-0.238-1.214-1.524-1.515-2.121c-0.293-0.596-0.708-0.472-0.737-0.2c-0.029,0.27-0.883,0.308-1.232,0.277
			c-0.358-0.034-0.649-1.395-0.649-1.91c0-0.511-1.585-0.599-1.847-1.016c-0.258-0.408-1.291-0.215-1.458-0.503
			c-0.168-0.288-1.084-0.551-1.261-0.445c-0.19,0.111-0.1,3.797-0.274,4.793c-0.177,0.993-1.021,1.869-1.331,1.846
			c-0.304-0.021-0.123,0.708,0.091,0.644c0.216-0.072-0.599,1.087-0.704,1.844c-0.107,0.753-0.875-0.036-1-0.721
			c-0.123-0.683-0.873-1.615-1.012-1.379c-0.143,0.234-0.667-0.281-0.885-0.134c-0.223,0.147-1.642-0.824-2.214-1.136
			c-0.569-0.304-0.892-2.06-1.221-2.212c-0.329-0.157-0.048-0.372-0.066-0.633c-0.007-0.268,1.109-1.289,1.449-1.695
			c0.338-0.406,1.563-1.999,2.053-2.343c0.488-0.347,0.866-1.257,0.782-1.427c-0.084-0.168,2.082-0.844,2.67-1.046
			c0.585-0.2,1.091-1.838,1.17-2.307c0.084-0.47-0.367-1.359-0.637-1.475c-0.274-0.118,0.817-0.159,1.179,0.021
			c0.367,0.179,1.477-0.329,1.921-0.097c0.438,0.24,1.33,0.765,1.98,1.169c0,0,0,0-0.146,1.202
			c-0.256,2.037-0.256,2.037-0.256,2.037c-1.71,0.71-2.2,1.928-1.599,1.906c0.594-0.032,3.321,1.179,4.092,1.729
			c0.769,0.553,1.014-0.796,1.239-1.25c0.227-0.442,0.152-1.751-0.029-2.007c-0.188-0.261,0.887-0.17,1.189,0.123
			c0.306,0.286,0.658-0.301,0.891-0.406c0.234-0.104,0.349-1.223,0.47-1.45c0.129-0.225-0.506-0.454-0.528-0.728
			c-0.02-0.29-1.243-0.817-1.642-1.007c-0.401-0.19-0.494-1.037-0.293-1.184c0.191-0.149-0.134-1.221-0.334-1.577
			c-0.193-0.358-1.472-0.646-1.901-0.646c-0.426,0-0.867-0.993-1.11-1.134c-0.249-0.141-1.896-0.324-2.293-0.204
			c-0.409,0.12-1.152-1.166-1.838-0.771c-0.687,0.39-1.393-0.461-1.703-0.629c-0.315-0.166-1.922,1.552-1.903,2.765
			c0.016,1.212,0.62,2.386,0.876,2.421c0.252,0.032-0.057,1.127-0.342,1.441c-0.272,0.308-0.952-0.333-0.692-0.608
			c0.254-0.275-0.696-1.545-1.028-2.062c-0.231-0.372-1.068-0.699-1.635-0.926c-0.325,0.359-0.653,0.726-0.973,1.093
			c0.127,0.443,0.274,1.017,0.131,1.449c-0.24,0.74-0.857,0.853-0.896,0.531c-0.018-0.14-0.329-0.249-0.696-0.297
			c-8.981,10.777-14.961,24.127-16.674,38.764c0.354,0.413,0.764,0.892,0.873,1.241c0.202,0.651,1.332,1.078,1.545,1.212
			c0.209,0.129,0.29-1.247,0.134-1.604c-0.143-0.359,0.275-0.572,0.266-0.309c-0.012,0.263,1.066,1.474,1.418,1.913
			c0.352,0.436,0.719,3.266,1.06,3.875c0.336,0.606,3.598,1.862,4.655,2.083c1.046,0.225,2.373,1.399,2.584,1.74
			c0.199,0.338,1.595,0.508,1.894,0.64c0.304,0.141,1.023,1.087,1.32,1.286c0.292,0.199,0.528,0.762,0.528,0.91
			c0,0.147,1.846,0.848,2.293,1.338c0.447,0.495,1.184,0.359,1.323,0.154c0.14-0.207,0.504,0.978,0.696,1.388
			c0.186,0.411,0.234,1.418,0.088,1.583c-0.143,0.154-0.411,2.012-0.723,2.382c-0.315,0.374-0.966,3.065-0.826,3.598
			c0.145,0.535,1.007,1.635,1.381,1.799c0.374,0.159,0.215,0.735-0.077,0.778c-0.297,0.036-0.159,2.609,0.537,2.992
			C148.633,157.663,149.213,158.804,149.114,158.999z"/>
		<path fill="#CDD5D8" d="M157.845,113.827L157.845,113.827L157.845,113.827z"/>
		<path fill="#CDD5D8" d="M152.773,82.547c0.887-0.152,2.366-0.397,2.464-0.642c0.077-0.207,0.084-0.814-0.082-1.034
			c0.138,0.013,0.306,0.022,0.435,0.022c0.331,0,0.894-1.851,1.252-2.282c0.356-0.429,2.384-1.069,2.867-1.357
			c0.483-0.295,1.543-1.313,1.949-1.434c0.404-0.12,1-1.068,0.908-1.261c-0.089-0.19,1.377-1.075,1.93-1.316
			c0.556-0.234,0.842-0.885,0.635-0.91c-0.132-0.016-3.232,1.602-6.066,3.215c-3.239,2.2-6.283,4.657-9.124,7.323
			C150.822,82.808,152.192,82.646,152.773,82.547z"/>
		<path fill="#5F9CA4" d="M206.415,174.856c0.946-0.561,2.559-2.944,3.09-3.446c0.533-0.501,0.916-2.311,1.03-2.7
			c0.104-0.394,0.914-1.034,1.212-1.12c0.301-0.086,1.263-4.084,2.105-4.957c0.848-0.874,1.838-5.1,1.731-6.626
			c-0.109-1.513,0.54-4.41,0.74-5.109c0.204-0.698,1.261-1.931,1.593-2.187c0.324-0.259,2.361-3.278,3.019-4.356
			c0.654-1.082,1.286-3.457,1.159-4.013c-0.125-0.556-1.545-0.944-1.813-0.672c-0.259,0.275-1.599,0.503-2.024,0.503
			c-0.429,0-1.407-2.289-2.017-2.761c-0.605-0.469-1.155-3.09-1.506-3.586c-0.347-0.499-1.329-1.753-1.633-2.041
			c-0.308-0.29-0.358-1.677-0.429-2.058c-0.066-0.381,0.596,0.25,0.706,0.803c0.113,0.553,1.685,2.786,2.171,3.539
			c0.485,0.753,1.763,3.146,2.096,3.899c0.324,0.749,3.173,0.365,4.101-0.064c0.925-0.444,2.08-1.182,2.123-1.438
			c0.041-0.259,1.52-0.934,1.924-1.264c0.411-0.327,0.776-2.044,1.043-2.319c0.268-0.277-0.218-1.91-0.524-2.398
			c-0.308-0.492-1.785-0.876-2.085-0.687c-0.299,0.193-0.941-1.093-1.164-1.567c-0.225-0.478-1.357-1.053-1.481-1.381
			c-0.116-0.325,0.308-0.833,0.483-0.946c0.179-0.113,2.264,1.348,2.867,2.078c0.594,0.726,1.286,2.064,1.4,2.302
			c0.109,0.231,1.754,0.347,2.125,0.075c0.365-0.266,0.785-0.195,0.932,0.156c0,0,0,0,0.517-0.091
			c1.808-0.279,1.808-0.279,1.808-0.279c0.855,0.923,1.105,1.724,1.08,1.912c-0.016,0.177,0.528,0.93,0.876,1.008
			c0.351,0.084,0.606,1.264,0.712,1.558c0.107,0.293,1.132,2.062,1.347,2.804c0.213,0.746,1.089,2.2,1.3,2.588
			c0.207,0.392,0.381,1.518,0.381,1.826c0,0.306,0.66,0.914,1.073,0.885c0.408-0.029,1.239-2.616,1.432-3.58
			c0.191-0.962,0.855-1.755,1.044-1.755c0.19,0,0.336-0.545,0.336-0.749c0-0.206,1.052-0.179,1.145-0.447
			c0.086-0.259,0.399-1.972,0.769-2.228c0.377-0.265,1.703-1.13,2.167-1.293c0.463-0.161,1.651,0.862,1.919,1.343
			c0.263,0.476,0.506,1.694,0.402,1.892c-0.1,0.199,0.624,1.248,1.264,1.23c0.628-0.018,0.823,0.801,0.842,1.102
			c0.029,0.293,0.86,1.141,1.026,1.518c0.165,0.379,0.118,1.411,0.004,1.649c-0.114,0.234-0.032,1.588,0.086,1.965
			c0.12,0.383,2.067,2.354,2.795,2.953c0.733,0.597,1.075-1.221,0.699-1.787c-0.374-0.563-1.645-1.878-1.946-2.269
			c-0.295-0.395-0.343-1.972-0.233-2.414c0.105-0.44,1.109,0.247,1.525,0.565c0.417,0.317,0.962,1.03,0.976,1.266
			c0.016,0.24,2.623-1.223,2.711-2.809c0.091-1.588,0.96-3.373,1.044-3.79c0.088-0.422-0.259-0.993-0.477-1.008
			c-0.222-0.018,0.386-1.209,1.123-1.191c0.73,0.02,2.488-1.939,2.906-2.715c0.415-0.776,1.254-1.416,1.352-1.518
			c0.097-0.088,0.681-1.93,0.783-2.691c0.097-0.758-0.427-1.953-0.495-2.345c-0.059-0.39-0.689-1.298-0.855-1.583
			c-0.159-0.284-0.313-1.348-0.218-1.552c0.102-0.193,0.76-0.402,0.83-0.579c0.072-0.182,0.826-0.985,0.767-1.339
			c-0.052-0.358,0.468,0.459,0.814,0.753c0.347,0.292,0.724,2.182,1.15,2.391c0.422,0.207,2.157-2.003,1.937-3.432
			c-0.206-1.427,0.513-3.255,0.923-3.419c0.316-0.123,1.134-1.279,1.685-2.105c-3.809-10.995-10.122-20.82-18.266-28.79
			c-0.1,0.003-0.193,0.003-0.284-0.009c-0.633-0.136-0.633-0.136-0.633-0.136c-1.062-0.225-1.681-1.365-1.499-1.626
			c0.055-0.082,0.045-0.274-0.007-0.499c-0.597-0.535-1.202-1.06-1.819-1.579c-0.497-0.012-1.028,0-1.341-0.012
			c-0.64-0.029-2.019-0.479-2.268-0.726c-0.245-0.249-1.082,0.222-1.13,0.68c-0.054,0.463-1.506,0.674-1.642,1.025
			c-0.148,0.351-0.892,0.376-1.034,0.175c-0.147-0.193-1.492,0.478-2.164,0.576c-0.671,0.091-1.915,0.635-2.219,0.771
			c-0.299,0.132-1.01,0.824-1.127,1.114c-0.106,0.29-0.973,0.769-1.248,0.88c-0.277,0.107-0.215,1.359,0.14,1.54
			c0.354,0.168-0.663-0.152-1.11-0.385c-0.456-0.227-0.952,0.531-1.091,0.794c-0.143,0.261-0.554-0.155-0.536-0.528
			c0.016-0.374-1.109-0.676-1.257-0.377c-0.149,0.299-0.926-0.1-1.252-0.272c-0.322-0.17-1.719,1.286-2.235,1.81
			c-0.522,0.522-2.992,0.928-3.459,0.733c-0.463-0.197-0.921,1.093-0.522,1.18c0.395,0.079-1.007-0.064-1.77,0.009
			c-0.772,0.073-3.012,0.967-3.541,1.364c-0.535,0.403-0.966-0.086-0.966-0.393c0-0.306-0.851-0.588-1.105-0.674
			c-0.249-0.086-0.749,1.676-1.191,2.015c-0.444,0.342-0.976-1.377-2.015-1.656c-1.048-0.283-2.681-1.288-3.142-1.409
			c-0.461-0.123-1.397-1.1-1.653-1.375c-0.265-0.29-1.597-0.519-2.026-0.519c-0.431,0-1.808,0.792-2.182,1.104
			c-0.377,0.311-0.93,0.252-1.114,0.363c-0.19,0.114-1.749,1.642-2.352,2.123c-0.608,0.477-1.667,2.541-2.008,3.033
			c-0.35,0.488-0.844,0.583-1.05,0.592c-0.2,0.014-0.368,0.561-0.368,0.764c0,0.204-1.792,1.136-1.978,1.953
			c-0.193,0.814,0.174,2.677,0.174,3.337c0,0.663,0.667,1.973,1.162,1.994c0.497,0.023,0.242,1.121,0.109,1.429
			c-0.129,0.315,0.311,0.654,0.301,0.916c-0.018,0.265-1.261,0.633-1.649,0.78c-0.386,0.143-1.005,1.014-1.089,1.338
			c-0.07,0.281-1.271,0.479-1.661,0.862c0.097-0.272,0.233-0.653,0.34-0.865c0.227-0.435-0.088-1.195-0.275-1.349
			c-0.19-0.159-0.279-2.314-0.579-2.775c-0.302-0.463-1.059-1.245-1.243-1.402c-0.184-0.147,0.127-0.717,0.238-0.96
			c0.106-0.234-1.003-0.374-1.311-0.199c-0.304,0.177-0.467,2.312-0.597,2.895c-0.127,0.587,0.549,1.483,0.735,1.525
			c0.182,0.045,0.129,1.095-0.256,1.13c-0.394,0.036-0.753,1.572-0.553,1.921c0.207,0.351-0.275,1.035-0.508,1.198
			c-0.233,0.155,1.499,0.068,2.287,0.046c0.789-0.023,1.411,0.333,1.325,0.399c-0.082,0.066-1.507,0.274-1.767,0.613
			c-0.249,0.34-1.225,0.993-1.413,1.255c-0.186,0.256,0.322,0.833,0.735,0.805c0.408-0.021,0.878,1.422,1.196,1.692
			c0.32,0.266,0.204,1.014,0.064,1.225c-0.141,0.2-2.078-0.14-2.809,0.039c-0.739,0.181-1.661,1.737-1.724,2.319
			c-0.066,0.588,0.118,2.271,0.214,2.736c0.091,0.463,1.627,0.755,1.939,0.984c0.317,0.227,1.785,0.005,2.092,0.147
			c0.299,0.147,1.297-1.49,1.492-2.246c0.191-0.762,1.758-2.153,2.087-2.674c0.325-0.515,2.014-0.452,2.429-0.726
			c0.42-0.263,0.184,1.284,0.386,2.137c0.202,0.853,1.815,0.744,1.579-0.054c-0.234-0.801,0.156-1.15,0.224-0.862
			c0.066,0.291,1.622,0.924,1.917,1.372c0.292,0.454,0.209,1.407-0.134,1.395c-0.349-0.012-0.358,1.048,0.004,1.164
			c0.367,0.109,0.853-1.193,1.245-1.39c0.393-0.195,0.71-1.01,0.528-1.073c-0.179-0.061,0.331-0.789,0.554-0.547
			c0.22,0.241-0.83-1.588-1.493-2.253c-0.658-0.665-0.191-0.372,1.043,0.66c0,0,0,0,0.853,1.195
			c0.163,0.215,0.383,0.866,0.529,1.105c0.199,0.354,0.199,0.354,0.199,0.354c0.173,0.418,0.316,1.561,0.316,1.876
			c0,0.306,0.671,0.916,1.075,0.885c0.406-0.029,0.717,0.193,0.631,0.211c-0.082,0.013,0.266,0.807,0.672,0.826
			c0.404,0.012,0.579-1.026,0.173-1.05c-0.409-0.022-0.345-1.529-0.401-2.18c-0.041-0.66,0.295-1.191,0.435-1.191
			c0.14,0-0.016,1.341-0.005,1.653c0.005,0.311,0.177,0.923,0.368,1.359c0,0,0,0,0.417,0.316c0.937,0.723,0.937,0.723,0.937,0.723
			c1.341-0.397,3.142-0.093,3.074,0.181c-0.072,0.275,0.994,0.342,1.059-0.104c0.064-0.436,0.111,0.013,0.111,0.32
			c0,0.302-0.876,1.504-1.023,2.057c-0.152,0.553-3.253,0.179-4.583,0.075c-1.334-0.102-3.303,0.356-3.452,0.749
			c-0.15,0.404-2.232-0.916-3.185-1.314c-0.959-0.402-1.706-1.858-1.899-2.046c-0.202-0.193,0.159-0.663,0.071-0.95
			c-0.091-0.292-2.271-0.349-2.904-0.113c-0.637,0.231-3.902,0.579-4.673,0.914c-0.776,0.349-1.939-0.02-2.302-0.082
			c-0.361-0.063-1.223,1-1.665,1.195c-0.442,0.195-0.994,1.706-1.236,3.366c0,0,0,0-0.597,1.155c-0.384,0.74-0.384,0.74-0.384,0.74
			c-1.077,0.819-2.271,3.561-2.622,4.11c-0.347,0.545-0.628,4.492-0.628,5.819c0,1.323,1.152,4.133,1.481,4.907
			c0.325,0.776,2.328,2.489,2.997,2.901c0.669,0.4,2.84,0.458,3.553,0.456c0.712-0.003,1.525-0.681,1.799-1.507c0,0,0,0,1.043,0.107
			c0.483,0.048,0.483,0.048,0.483,0.048c0.023,0.585,1.563,1.052,1.946,1.256c0.374,0.211,1.388,0.048,1.695-0.038
			c0.297-0.084,0.637,2.636,0.417,3.426c-0.218,0.787,0.54,3.544,0.756,4.378c0.224,0.832,1.17,3.106,1.266,3.92
			c0.093,0.819-0.555,3.532-0.664,4.482c-0.105,0.951,1.186,3.607,1.526,4.525c0.336,0.912,0.613,2.876,0.613,3.33
			c0,0.461,1.409,3.207,1.737,4.339C201.921,175.139,205.463,175.414,206.415,174.856z"/>
		<path fill="#5F9CA4" d="M267.553,141.185c0.096,0.2,0.985-0.504,1.522-0.587c0.533-0.086,0.876-1.522,0.456-1.62
			c-0.424-0.114-0.953-1.212-1.257-1.352c-0.3-0.134-0.891,0.478-0.865,0.91c0.027,0.435-0.969,0.612-1.159,0.976
			c-0.186,0.358-0.175,0.622,0.027,0.587C266.48,140.062,267.463,140.985,267.553,141.185z"/>
		<path fill="#5F9CA4" d="M266.464,148.971c0.263-0.096-0.03-1.513-0.587-1.634c-0.558-0.111-2.092,1.869-1.799,3.012
			c0.292,1.137,0.61,1.068,0.771,0.828c0.159-0.238,1.075,0.157,1.345,0.247c0.27,0.091,0.27-0.186,0-0.608
			C265.924,150.393,266.197,149.072,266.464,148.971z"/>
		<path fill="#5F9CA4" d="M263.429,147.591c0.063-0.506,0.161-2.087,0.247-2.402c0.086-0.316-0.864-1.225-1.329-1.39
			c-0.461-0.161-1.96,3.081-3.033,3.659c-1.075,0.578-1.465,2.552-1.184,3.01c0.29,0.456,2.523,0.699,2.915,1.046
			c0.399,0.338,0.826-0.057,1.062-0.118c0.24-0.054,0.159-0.206,0.075-0.268c-0.091-0.052,0.783-0.975,0.907-1.56
			C263.212,148.988,263.363,148.095,263.429,147.591z"/>
		<path fill="#5F9CA4" d="M257.336,152.994c-0.839-0.316-1.826,0.179-1.907,0.504c-0.082,0.322,3.237,0.85,4.337,1.148
			c1.096,0.297,1.785,0.397,1.534,0.209C261.045,154.671,258.173,153.312,257.336,152.994z"/>
		<path fill="#5F9CA4" d="M264.066,131.415c0.272-0.368-0.37-2.107-0.69-1.713c-0.32,0.392-0.084,1.406,0.016,1.76
			C263.492,131.807,263.797,131.791,264.066,131.415z"/>
		<path fill="#5F9CA4" d="M266.069,135.141c0.191-0.449-0.236-0.942-0.955-1.091c-0.721-0.152-0.615,2.005-0.297,2.284
			C265.124,136.605,265.877,135.593,266.069,135.141z"/>
		<path fill="#5F9CA4" d="M269.338,122.048c-0.359,0.247-0.544,0.887-0.433,1.143c-0.052-0.002-0.104-0.005-0.148-0.005
			c-0.288,0-0.318,1.134-0.018,1.329c0.293,0.191,1.021-0.887,1.399-1.141c0.379-0.259,1.145-0.411,1.252-0.331
			c0.12,0.082,0.781-0.118,1.488-0.444c0.122-0.057,0.265-0.243,0.415-0.506c-0.168-0.826-0.366-1.64-0.561-2.455
			c-0.361,0.265-0.758,0.547-0.944,0.715C271.401,120.693,269.804,121.728,269.338,122.048z"/>
		<path fill="#5F9CA4" d="M249.736,144.814l0.011,0.005C249.592,144.71,249.575,144.699,249.736,144.814z"/>
		<path fill="#5F9CA4" d="M255.077,149.796c-0.308-0.706-1.338-1.894-2.282-2.645c0,0,0,0-0.359-0.588
			c-0.392-0.647-0.392-0.647-0.392-0.647c-0.352-0.712-1.416-1.259-1.509-1.475c-0.089-0.206-0.427,0.621-0.789,0.379
			c0.188,0.132,0.587,0.417,1.145,0.812c0.996,0.714,2.917,5.546,3.355,5.884C254.679,151.854,255.385,150.499,255.077,149.796z"/>
		<path fill="#5F9CA4" d="M239.766,141.995c-0.268,0.542,1.418,1.703,1.551,1.434c0.138-0.266-0.215-1.606-0.517-1.899
			C240.502,141.239,240.034,141.448,239.766,141.995z"/>
		<path fill="#5F9CA4" d="M217.359,167.794c0.066,0.576,1.232,1.03,1.565,0.937c0.343-0.098,1.28-1.831,1.418-2.33
			c0.129-0.506,0.238-1.579,0.238-1.833c0-0.254,0.154-0.832,0.286-0.901c0.127-0.066,0.343-0.66,0.472-1.309
			c0.127-0.658-0.706-3.704-0.722-4.24c-0.02-0.531-0.626,0.279-0.78,0.819c-0.163,0.542-1.679,1.644-2.016,2.109
			c-0.334,0.456-0.704,2.012-0.576,2.282c0.127,0.266-0.129,1.325-0.283,1.626C216.81,165.244,217.301,167.218,217.359,167.794z"/>
		<path fill="#CDD5D8" d="M189.856,74.117c-0.427,0.055-1.533-0.165-1.72-0.37c-0.193-0.2-1.851-0.383-2.33-0.179
			c-0.477,0.2-0.148-1.166,0.517-1.316c0.663-0.15,0.098-1.089-0.606-1.093c-0.712-0.003-2.459-0.261-2.87-0.172
			c-0.415,0.091-1.216-0.286-1.511-0.327c-0.295-0.045-2.389,0.628-3.384,0.579c-0.996-0.045-3.437,0.055-3.963,0.206
			c-0.535,0.14-0.912,1.17-0.839,1.538c0.071,0.368-2.363,0.361-3.128,0.37c-0.771,0.011-4.857,0.882-5.925,1.47
			c-1.071,0.587-1.906,2.089-1.551,2.119c0.358,0.027-0.59,0.876-1.162,1.075c-0.576,0.199-1.946,0.283-2.271,0.608
			c-0.316,0.324,0.343,0.542,0.472,0.76c0.127,0.211,0.513-0.186,0.876,0.02c0.356,0.202,1.545,0.3,1.863,0.422
			c0.322,0.123-1.014,0.377-1.634,0.422c-0.624,0.041-0.483,1.268,0.025,1.441c0.508,0.168,1.819,0.349,1.955,0.138
			c0.132-0.215,1.559,0.229,2.202,0.308c0.637,0.07,1.127,1.676,1.322,2.023c0.2,0.351,0.238,1.572,0.19,1.926
			c-0.045,0.352,1.134,1,1.347,0.776c0.211-0.225,0.152,0.553-0.322,0.51c-0.472-0.038-0.161,1.32,0.422,1.516
			c0.581,0.193,0.179,1.03-0.152,1.286c-0.338,0.254-0.157,1.048-0.503,1.338c-0.34,0.283,1.22,2.99,1.212,4.38
			c-0.012,1.39,0.857,2.527,1.187,2.527c0.336,0,1.477,0.281,1.627,0.579c0.152,0.295,0.705-0.207,0.923-0.438
			c0.211-0.227,0.68-0.892,1.028-1.482c0.356-0.588,1.139-3.378,1.243-3.679c0.106-0.301,1.415-0.111,1.715-0.263
			c0.293-0.155,1.157-0.83,1.397-1.032c0.243-0.2,2.112-0.989,2.625-1.361c0.51-0.368,1.357-1.948,1.756-2.289
			c0.394-0.336-0.207-0.234-0.708-0.562c-0.492-0.325-0.274-0.726-0.125-0.878c0.139-0.152,1.647,0.249,2.166,0.45
			c0.522,0.207,1.508-0.511,1.132-0.792c-0.383-0.268-0.179-0.265,0-0.146c0.183,0.116,0.372-0.916,0.179-1.111
			c-0.197-0.195,1.524-1.452,1.22-2.643c-0.304-1.187,0.472-2.405,0.935-2.418c0.463-0.018,0.325-1.345-0.231-1.468
			c-0.553-0.122-0.029-0.245,0.177-0.433c0.206-0.19,0.468-1.375,0.349-1.606c-0.123-0.225,0.842-0.481,1.014-0.753
			c0.175-0.268,1.286-0.798,1.676-0.889C190.066,75.111,190.277,74.074,189.856,74.117z"/>
		<path fill="#CDD5D8" d="M199.517,75.093c-0.529-0.182-1.599,0.402-1.465,0.733c0.138,0.336-0.873-0.424-1.575-0.061
			c-0.707,0.368-0.903,1.604-0.578,1.765c0.324,0.163,0.56,1.143,0.567,1.334c0.016,0.191,1.373,0.052,1.722-0.232
			c0.347-0.286,0.293,1-0.043,1.347c-0.347,0.343,0.123,1.039,0.503,1.096c0.381,0.052,0.894,0.946,1.284,0.939
			c0.383-0.013,1.05-1.508,1.2-2.073c0.155-0.552,1.452-0.114,2.049,0.063c0.59,0.177,0.805-2.058,0.163-2.4
			c-0.635-0.335-1.443-0.168-1.706-0.426c-0.268-0.257-0.724-0.497-1.021-0.542C200.315,76.592,200.041,75.265,199.517,75.093z"/>
		<path fill="#5F9CA4" d="M204.698,76.163c1.044,0.15,2.225-0.712,2.477-0.959c0.259-0.243-2.903-0.887-4.101-0.923
			c-1.202-0.038-2.169,0.129-2.15,0.365C200.939,74.877,203.648,76.012,204.698,76.163z"/>
		<path fill="#CDD5D8" d="M185.604,104.465c-0.274-0.114-0.426,0.923-0.359,1.313c0.061,0.394,1.025,0.363,1.432,0.292
			c0.411-0.072,0.731-0.404,0.717-0.746c-0.018-0.333-0.605-1.88-0.837-1.88C186.323,103.444,185.883,104.576,185.604,104.465z"/>
		<path fill="#CDD5D8" d="M188.707,92.426c-0.218-0.377-1.856-0.331-2.259-0.356c-0.399-0.021-1.626-0.431-1.858-0.694
			c-0.232-0.258-0.411,1.012-0.785,1.18c-0.374,0.161,0.184,0.402,0.34,0.266c0.152-0.131-0.014,0.656-0.181,0.926
			c-0.168,0.274,1.093,0.461,1.236,0.873c0.143,0.408,0.667,0.672,1.162,0.594c0.495-0.084,1.483-0.594,1.831-0.626
			C188.538,94.552,188.921,92.805,188.707,92.426z"/>
		<path fill="#5F9CA4" d="M223.177,83.028c0.565-0.569,2.883-1.331,3.148-1.915c0.263-0.583-0.163-1.06-0.395-1.06
			c-0.236,0-0.526,0.292-0.581,0.386c-0.059,0.095-2.722,0.724-3.537,1.118c-0.817,0.392-1.765,1.003-2.106,1.347
			c-0.347,0.349-0.91,2.988-1.107,3.285c-0.197,0.3,0.88,1.373,1.366,1.672c0.479,0.295,1.136,0.141,1.325,0.084
			c0.182-0.059-0.25-1.901-0.501-2.545C220.536,84.761,222.614,83.597,223.177,83.028z"/>
		<path fill="#5F9CA4" d="M220.328,76.15c0.876,0.867,1.357-0.39,2.321-0.263C222.628,74.117,220.242,74.727,220.328,76.15z"/>
		<path fill="#5F9CA4" d="M237.364,76.479c-0.027,0.325,2.42,0.588,3.139,0.463c0.715-0.127-0.149-1.243-1.196-1.177
			C238.263,75.832,237.391,76.154,237.364,76.479z"/>
		<path fill="#CDD5D8" d="M148.626,94.652c-0.256,0.242-0.034,1.443,0.458,1.475c0.49,0.038,1.277-1.812,1.876-1.445
			c0.601,0.376,1.005,0.519,0.908,0.326c-0.104-0.197-1.812-0.948-2.019-1.08C149.631,93.796,148.887,94.42,148.626,94.652z"/>
		<path fill="#CDD5D8" d="M154.894,135.346c0,0.2,1.071,0.173,1.243-0.154c0.17-0.329,0.082-0.596-0.207-0.596
			C155.647,134.597,154.894,135.139,154.894,135.346z"/>
		<path fill="#CDD5D8" d="M150.141,133.587c0.51-0.095,0.263,0.731,0.394,1.026c0.12,0.301,1.35,0.538,1.593,0.74
			c0.245,0.197,0.876-0.377,1.364-0.315c0.494,0.061-0.157-1.699-0.98-1.649c-0.823,0.055-1.47-0.742-1.665-0.837
			c-0.202-0.093-1.15-0.669-1.424-0.892c-0.266-0.216-2.364-0.404-3.076-0.404c-0.712,0-1.493,0.73-1.604,0.966
			c-0.111,0.238,1.128,0.4,1.482,0.213c0.354-0.188,2.012,0.207,2.354,0.61C148.919,133.44,149.62,133.688,150.141,133.587z"/>
		<path fill="#CDD5D8" d="M147.904,135.346c0,0.2,1.08,0.075,1.338,0.082c0.259,0.009,0.252-0.172-0.02-0.393
			C148.95,134.82,147.904,135.139,147.904,135.346z"/>
		<path fill="#CDD5D8" d="M148.664,129.792c-0.277-0.109-0.506,0.334-0.506,0.538c0,0.206,0.156,0.381,0.343,0.381
			C148.692,130.711,148.946,129.906,148.664,129.792z"/>
		<path fill="#CDD5D8" d="M150.928,129.967c-0.095-0.206-0.556-0.376-0.696-0.376c-0.141,0-0.236,0.359-0.215,0.791
			C150.039,130.818,151.017,130.171,150.928,129.967z"/>
		<path fill="#CDD5D8" d="M152.553,132.471c0.44-0.207,0.49-0.73,0.233-0.699c-0.261,0.025-0.74-0.753-1.021-0.864
			c-0.277-0.111-0.508,0.467-0.508,0.721c0,0.256,0.159,0.426,0.351,0.376C151.799,131.955,152.115,132.676,152.553,132.471z"/>
		<g>
			<path fill="#83D7DD" d="M149.114,158.999c-0.102,0.202,1.218,1.567,1.736,2.026c0.513,0.47,1.604,2.693,1.829,3.423
				c0.22,0.73,0.088,1.922,0.016,2.205c-0.064,0.283,0.249,0.901,0.301,1.157c0.047,0.256-0.456,2.441-0.265,3.318
				c0.193,0.878-1.025,3.616-0.996,4.972c0.029,1.363,0.644,3.135,0.896,3.003c0.243-0.134,0.329,1.239-0.086,1.4
				c-0.415,0.165-0.896,1.25-0.662,1.304c0.231,0.057-0.021,1.125,0.048,1.554c0.059,0.426,0.42,3.248,0.499,3.95
				c0.08,0.705,1.08,2.42,1.295,3.001c0.209,0.585,0.424,1.686,0.504,1.853c0.082,0.172,0.186,0.343,0.186,0.343
				s0.837,0.311,1.075,0.49c0.241,0.177,1.822,0.066,2.343-0.043c0.519-0.105,0.043-0.579-0.193-0.837
				c-0.234-0.257-0.442-1.511-0.708-1.64c-0.265-0.122-0.385-1.722-0.147-2.073c0.236-0.356,1.184-0.919,1.289-1.214
				c0.102-0.297,0.131-1.688-0.125-1.878c-0.256-0.19,0.077-1.878-0.116-2.718c-0.193-0.837,1.456-1.601,1.556-2.266
				c0.089-0.662,1.878-1.375,2.277-1.706c0.406-0.34,0.76-2.239,0.567-2.648c-0.199-0.41,0.656-0.742,1.037-0.742
				c0.377,0,0.803-0.27,0.957-0.27c0.143-0.007,0.597-0.848,0.837-1.041c0.247-0.193,0.749-2.207,1.189-2.536
				c0.445-0.333,0.812-1.547,0.812-1.901c0-0.356,0.676-1.418,0.9-1.735c0.224-0.32,1.885-1.082,2.182-1.2
				c0.301-0.123,0.753-2.797,0.867-3.759c0.109-0.962,0.613-2.246,0.653-2.563c0.03-0.311,0.565-0.585,0.662-0.685
				c0.102-0.1,0.499-1.323,0.755-1.606c0.256-0.281,1.177-1.447,1.197-1.708c0.025-0.261,0.163-0.928,0.315-1.488
				c0,0,0,0-0.005-0.654c0.007-1.041,0.007-1.041,0.007-1.041c-0.292-0.803-1.186-1.815-1.413-1.59
				c-0.229,0.22-1.259-0.714-1.787-0.912c-0.526-0.195-1.837-0.358-2.164-0.358c-0.334,0-1.481-0.939-1.998-1.102
				c-0.511-0.163-1.819-0.41-2.058-0.567c-0.242-0.15-0.563-2.101-1.617-2.738c-1.061-0.64-2.91-2.123-3.11-2.67
				c-0.204-0.546-2.234-1.69-2.861-2.035c-0.622-0.345-1.572-0.429-1.688-0.302c-0.123,0.116-0.901-1.055-1.304-1.393
				c-0.406-0.329-1.622-0.605-1.676-0.311c-0.055,0.302-0.86,0.145-1.05-0.111c-0.188-0.249-0.817,0.104-1.11,0.2
				c-0.293,0.095-1.3,1.636-1.758,2.005c-0.468,0.368-1.021-0.342-1.325-0.474c-0.308-0.132-1.472,0.227-1.788,0.454
				c-0.315,0.225-1.048-1.629-0.878-2.484c0.17-0.857-0.763-2.556-1.49-2.595c-0.717-0.043-0.943-1.829-0.8-2.488
				c0.143-0.656-1.307-1.071-1.668-1.112c-0.367-0.048-1.266,0.876-1.42,1.322c-0.157,0.445-3.437-0.605-3.047-2.57
				c0.379-1.971,1.935-4.004,2.323-4.249c0.388-0.234,2.498-0.354,2.963-0.089c0.467,0.272,0.889-0.005,0.967-0.123
				c0.08-0.125,1.801,0.016,2.312,0.227c0.513,0.209,1.252,2.196,1.781,2.439c0.542,0.25,0.73-1.28,0.814-1.656
				c0.091-0.37-0.257-1.314-0.386-1.581c-0.13-0.266,0.855-2.675,1.665-3.083c0.796-0.415,1.649-1.754,1.579-1.992
				c-0.071-0.232,0.646-0.42,0.837-0.52c0.191-0.098-0.027-2.048,0.284-2.475c0.318-0.417,1.83-1.311,2.307-1.513
				c0.474-0.2,0.835-1.431,0.662-1.644c-0.172-0.222,1.238-1.42,1.973-1.652c0.728-0.225,1.359,0.42,1.177,0.524
				c0.146-0.084,1.157-0.603,1.588-0.885c0.503-0.336,0.005-1.248-0.32-1.518c-0.316-0.261-0.125-1.32,0.261-1.418
				c0.394-0.093,0.731-1.01,0.63-1.204c-0.102-0.2,1.608,0.156,2.259-0.327c0.649-0.486,0.184,1.161-0.29,1.824
				c-0.474,0.658,0.352,1.291,0.656,1.161c0.307-0.125,0.635,0.354,0.696,0.54c0.063,0.186,0.724-0.191,1.155-0.004
				c0.429,0.19,0.685-0.594,0.721-0.948c0.03-0.365-1.03-1.112-1.198-1.543c-0.166-0.427-0.236-2.942-0.261-3.461
				c-0.021-0.513-0.712-1.35-0.939-1.2c-0.216,0.146-0.669-1.336-1.03-1.658c-0.361-0.324-0.444-1.034-0.427-1.273
				c0.018-0.238-1.214-1.524-1.515-2.121c-0.293-0.596-0.708-0.472-0.737-0.2c-0.029,0.27-0.883,0.308-1.232,0.277
				c-0.358-0.034-0.649-1.395-0.649-1.91c0-0.511-1.585-0.599-1.847-1.016c-0.258-0.408-1.291-0.215-1.458-0.503
				c-0.168-0.288-1.084-0.551-1.261-0.445c-0.19,0.111-0.1,3.797-0.274,4.793c-0.177,0.993-1.021,1.869-1.331,1.846
				c-0.304-0.021-0.123,0.708,0.091,0.644c0.216-0.072-0.599,1.087-0.704,1.844c-0.107,0.753-0.875-0.036-1-0.721
				c-0.123-0.683-0.873-1.615-1.012-1.379c-0.143,0.234-0.667-0.281-0.885-0.134c-0.223,0.147-1.642-0.824-2.214-1.136
				c-0.569-0.304-0.892-2.06-1.221-2.212c-0.329-0.157-0.048-0.372-0.066-0.633c-0.007-0.268,1.109-1.289,1.449-1.695
				c0.338-0.406,1.563-1.999,2.053-2.343c0.488-0.347,0.866-1.257,0.782-1.427c-0.084-0.168,2.082-0.844,2.67-1.046
				c0.585-0.2,1.091-1.838,1.17-2.307c0.084-0.47-0.367-1.359-0.637-1.475c-0.274-0.118,0.817-0.159,1.179,0.021
				c0.367,0.179,1.477-0.329,1.921-0.097c0.438,0.24,1.33,0.765,1.98,1.169c0,0,0,0-0.146,1.202
				c-0.256,2.037-0.256,2.037-0.256,2.037c-1.71,0.71-2.2,1.928-1.599,1.906c0.594-0.032,3.321,1.179,4.092,1.729
				c0.769,0.553,1.014-0.796,1.239-1.25c0.227-0.442,0.152-1.751-0.029-2.007c-0.188-0.261,0.887-0.17,1.189,0.123
				c0.306,0.286,0.658-0.301,0.891-0.406c0.234-0.104,0.349-1.223,0.47-1.45c0.129-0.225-0.506-0.454-0.528-0.728
				c-0.02-0.29-1.243-0.817-1.642-1.007c-0.401-0.19-0.494-1.037-0.293-1.184c0.191-0.149-0.134-1.221-0.334-1.577
				c-0.193-0.358-1.472-0.646-1.901-0.646c-0.426,0-0.867-0.993-1.11-1.134c-0.249-0.141-1.896-0.324-2.293-0.204
				c-0.409,0.12-1.152-1.166-1.838-0.771c-0.687,0.39-1.393-0.461-1.703-0.629c-0.315-0.166-1.922,1.552-1.903,2.765
				c0.016,1.212,0.62,2.386,0.876,2.421c0.252,0.032-0.057,1.127-0.342,1.441c-0.272,0.308-0.952-0.333-0.692-0.608
				c0.254-0.275-0.696-1.545-1.028-2.062c-0.231-0.372-1.068-0.699-1.635-0.926c-0.325,0.359-0.653,0.726-0.973,1.093
				c0.127,0.443,0.274,1.017,0.131,1.449c-0.24,0.74-0.857,0.853-0.896,0.531c-0.018-0.14-0.329-0.249-0.696-0.297
				c-0.333,0.402-0.656,0.814-0.98,1.225c-0.322,0.399-0.64,0.805-0.957,1.211c-0.334,0.438-0.667,0.88-0.989,1.323
				c-0.29,0.401-0.576,0.805-0.858,1.207c-0.424,0.606-0.839,1.212-1.245,1.826c-0.388,0.592-0.771,1.184-1.141,1.783
				c-0.32,0.517-0.624,1.041-0.93,1.563c-0.209,0.359-0.422,0.724-0.628,1.087c-0.308,0.547-0.61,1.1-0.905,1.656
				c-0.163,0.315-0.322,0.633-0.483,0.955c-0.671,1.307-1.311,2.64-1.901,3.993c-0.018,0.039-0.036,0.077-0.036,0.077
				c-0.306,0.705-0.581,1.377-0.85,2.057c-0.104,0.256-0.209,0.515-0.304,0.771c-0.272,0.696-0.533,1.395-0.783,2.103
				c-0.039,0.114-0.077,0.234-0.118,0.351c-0.821,2.364-1.524,4.78-2.098,7.243c-0.045,0.166-0.082,0.329-0.118,0.495
				c-0.583,2.548-1.034,5.143-1.343,7.783l-0.007,0.039c0.352,0.429,0.762,0.908,0.871,1.257c0.202,0.651,1.332,1.078,1.545,1.212
				c0.209,0.129,0.29-1.247,0.134-1.604c-0.143-0.359,0.275-0.572,0.266-0.309c-0.012,0.263,1.066,1.474,1.418,1.913
				c0.352,0.436,0.719,3.266,1.06,3.875c0.336,0.606,3.598,1.862,4.655,2.083c1.046,0.225,2.373,1.399,2.584,1.74
				c0.199,0.338,1.595,0.508,1.894,0.64c0.304,0.141,1.023,1.087,1.32,1.286c0.292,0.199,0.528,0.762,0.528,0.91
				c0,0.147,1.846,0.848,2.293,1.338c0.447,0.495,1.184,0.359,1.323,0.154c0.14-0.207,0.504,0.978,0.696,1.388
				c0.186,0.411,0.234,1.418,0.088,1.583c-0.143,0.154-0.411,2.012-0.723,2.382c-0.315,0.374-0.966,3.065-0.826,3.598
				c0.145,0.535,1.007,1.635,1.381,1.799c0.374,0.159,0.215,0.735-0.077,0.778c-0.297,0.036-0.159,2.609,0.537,2.992
				C148.633,157.663,149.213,158.804,149.114,158.999z"/>
			<line fill="#83D7DD" x1="157.845" y1="113.827" x2="157.845" y2="113.827"/>
			<path fill="#83D7DD" d="M152.773,82.547c0.887-0.152,2.366-0.397,2.464-0.642c0.077-0.207,0.084-0.814-0.082-1.034
				c0.138,0.013,0.306,0.022,0.435,0.022c0.331,0,0.894-1.851,1.252-2.282c0.356-0.429,2.384-1.069,2.867-1.357
				c0.483-0.295,1.543-1.313,1.949-1.434c0.404-0.12,1-1.068,0.908-1.261c-0.089-0.19,1.377-1.075,1.93-1.316
				c0.556-0.234,0.842-0.885,0.635-0.91c-0.132-0.016-3.232,1.602-6.066,3.215c0,0-0.055,0.036-0.082,0.057
				c-0.81,0.549-1.611,1.123-2.396,1.706c-0.537,0.399-1.062,0.81-1.586,1.223c-0.279,0.216-0.56,0.433-0.832,0.651
				c-0.624,0.506-1.243,1.023-1.847,1.547c-0.129,0.113-0.256,0.222-0.385,0.333c-0.674,0.592-1.343,1.193-1.996,1.806
				C150.822,82.808,152.192,82.646,152.773,82.547z"/>
			<path fill="#83D7DD" d="M199.707,118.759c-0.349-0.012-0.358,1.048,0.004,1.164c0.27,0.082,0.603-0.596,0.914-1.037v-4.135
				c-0.025-0.029-0.055-0.066-0.08-0.091c-0.438-0.442-0.368-0.453,0.08-0.114V89.18c-0.376,0.343-0.739,0.681-0.969,0.86
				c-0.608,0.477-1.667,2.541-2.008,3.033c-0.35,0.488-0.844,0.583-1.05,0.592c-0.2,0.014-0.368,0.561-0.368,0.764
				c0,0.204-1.792,1.136-1.978,1.953c-0.193,0.814,0.174,2.677,0.174,3.337c0,0.663,0.667,1.973,1.162,1.994
				c0.497,0.023,0.242,1.121,0.109,1.429c-0.129,0.315,0.311,0.654,0.301,0.916c-0.018,0.265-1.261,0.633-1.649,0.78
				c-0.386,0.143-1.005,1.014-1.089,1.338c-0.07,0.281-1.271,0.479-1.661,0.862c0.097-0.272,0.233-0.653,0.34-0.865
				c0.227-0.435-0.088-1.195-0.275-1.349c-0.19-0.159-0.279-2.314-0.579-2.775c-0.302-0.463-1.059-1.245-1.243-1.402
				c-0.184-0.147,0.127-0.717,0.238-0.96c0.106-0.234-1.003-0.374-1.311-0.199c-0.304,0.177-0.467,2.312-0.597,2.895
				c-0.127,0.587,0.549,1.483,0.735,1.525c0.182,0.045,0.129,1.095-0.256,1.13c-0.394,0.036-0.753,1.572-0.553,1.921
				c0.207,0.351-0.275,1.035-0.508,1.198c-0.233,0.155,1.499,0.068,2.287,0.046c0.789-0.023,1.411,0.333,1.325,0.399
				c-0.082,0.066-1.507,0.274-1.767,0.613c-0.249,0.34-1.225,0.993-1.413,1.255c-0.186,0.256,0.322,0.833,0.735,0.805
				c0.408-0.021,0.878,1.422,1.196,1.692c0.32,0.266,0.204,1.014,0.064,1.225c-0.141,0.2-2.078-0.14-2.809,0.039
				c-0.739,0.181-1.661,1.737-1.724,2.319c-0.066,0.588,0.118,2.271,0.214,2.736c0.091,0.463,1.627,0.755,1.939,0.984
				c0.317,0.227,1.785,0.005,2.092,0.147c0.299,0.147,1.297-1.49,1.492-2.246c0.191-0.762,1.758-2.153,2.087-2.674
				c0.325-0.515,2.014-0.452,2.429-0.726c0.42-0.263,0.184,1.284,0.386,2.137c0.202,0.853,1.815,0.744,1.579-0.054
				c-0.234-0.801,0.156-1.15,0.224-0.862c0.066,0.291,1.622,0.924,1.917,1.372C200.132,117.819,200.05,118.772,199.707,118.759z"/>
			<path fill="#83D7DD" d="M200.624,123.776c-0.315-0.165-0.612-0.315-0.837-0.41c-0.959-0.402-1.706-1.858-1.899-2.046
				c-0.202-0.193,0.159-0.663,0.071-0.95c-0.091-0.292-2.271-0.349-2.904-0.113c-0.637,0.231-3.902,0.579-4.673,0.914
				c-0.776,0.349-1.939-0.02-2.302-0.082c-0.361-0.063-1.223,1-1.665,1.195c-0.442,0.195-0.994,1.706-1.236,3.366
				c0,0,0,0-0.597,1.155c-0.384,0.74-0.384,0.74-0.384,0.74c-1.077,0.819-2.271,3.561-2.622,4.11
				c-0.347,0.545-0.628,4.492-0.628,5.819c0,1.323,1.152,4.133,1.481,4.907c0.325,0.776,2.328,2.489,2.997,2.901
				c0.669,0.4,2.84,0.458,3.553,0.456c0.712-0.003,1.525-0.681,1.799-1.507c0,0,0,0,1.043,0.107
				c0.483,0.048,0.483,0.048,0.483,0.048c0.023,0.585,1.563,1.052,1.946,1.256c0.374,0.211,1.388,0.048,1.695-0.038
				c0.297-0.084,0.637,2.636,0.417,3.426c-0.218,0.787,0.54,3.544,0.756,4.378c0.224,0.832,1.17,3.106,1.266,3.92
				c0.093,0.819-0.555,3.532-0.664,4.482c-0.105,0.951,1.186,3.607,1.526,4.525c0.336,0.912,0.613,2.876,0.613,3.33
				c0,0.234,0.367,1.057,0.764,1.964V123.776z"/>
			<path fill="#83D7DD" d="M162.679,188.875c0.336,0,0.671,0,1.016,0C163.877,187.773,162.624,187.957,162.679,188.875z"/>
			<path fill="#83D7DD" d="M183.222,87.463c0.522,0.207,1.508-0.511,1.132-0.792c-0.383-0.268-0.179-0.265,0-0.146
				c0.183,0.116,0.372-0.916,0.179-1.111c-0.197-0.195,1.524-1.452,1.22-2.643c-0.304-1.187,0.472-2.405,0.935-2.418
				c0.463-0.018,0.325-1.345-0.231-1.468c-0.553-0.122-0.029-0.245,0.177-0.433c0.206-0.19,0.468-1.375,0.349-1.606
				c-0.123-0.225,0.842-0.481,1.014-0.753c0.175-0.268,1.286-0.798,1.676-0.889c0.394-0.093,0.604-1.13,0.184-1.087
				c-0.427,0.055-1.533-0.165-1.72-0.37c-0.193-0.2-1.851-0.383-2.33-0.179c-0.477,0.2-0.148-1.166,0.517-1.316
				c0.663-0.15,0.098-1.089-0.606-1.093c-0.712-0.003-2.459-0.261-2.87-0.172c-0.415,0.091-1.216-0.286-1.511-0.327
				c-0.295-0.045-2.389,0.628-3.384,0.579c-0.996-0.045-3.437,0.055-3.963,0.206c-0.535,0.14-0.912,1.17-0.839,1.538
				c0.071,0.368-2.363,0.361-3.128,0.37c-0.771,0.011-4.857,0.882-5.925,1.47c-1.071,0.587-1.906,2.089-1.551,2.119
				c0.358,0.027-0.59,0.876-1.162,1.075c-0.576,0.199-1.946,0.283-2.271,0.608c-0.316,0.324,0.343,0.542,0.472,0.76
				c0.127,0.211,0.513-0.186,0.876,0.02c0.356,0.202,1.545,0.3,1.863,0.422c0.322,0.123-1.014,0.377-1.634,0.422
				c-0.624,0.041-0.483,1.268,0.025,1.441c0.508,0.168,1.819,0.349,1.955,0.138c0.132-0.215,1.559,0.229,2.202,0.308
				c0.637,0.07,1.127,1.676,1.322,2.023c0.2,0.351,0.238,1.572,0.19,1.926c-0.045,0.352,1.134,1,1.347,0.776
				c0.211-0.225,0.152,0.553-0.322,0.51c-0.472-0.038-0.161,1.32,0.422,1.516c0.581,0.193,0.179,1.03-0.152,1.286
				c-0.338,0.254-0.157,1.048-0.503,1.338c-0.34,0.283,1.22,2.99,1.212,4.38c-0.012,1.39,0.857,2.527,1.187,2.527
				c0.336,0,1.477,0.281,1.627,0.579c0.152,0.295,0.705-0.207,0.923-0.438c0.211-0.227,0.68-0.892,1.028-1.482
				c0.356-0.588,1.139-3.378,1.243-3.679c0.106-0.301,1.415-0.111,1.715-0.263c0.293-0.155,1.157-0.83,1.397-1.032
				c0.243-0.2,2.112-0.989,2.625-1.361c0.51-0.368,1.357-1.948,1.756-2.289c0.394-0.336-0.207-0.234-0.708-0.562
				c-0.492-0.325-0.274-0.726-0.125-0.878C181.195,86.861,182.703,87.261,183.222,87.463z"/>
			<path fill="#83D7DD" d="M199.517,75.093c-0.529-0.182-1.599,0.402-1.465,0.733c0.138,0.336-0.873-0.424-1.575-0.061
				c-0.707,0.368-0.903,1.604-0.578,1.765c0.324,0.163,0.56,1.143,0.567,1.334c0.016,0.191,1.373,0.052,1.722-0.232
				c0.347-0.286,0.293,1-0.043,1.347c-0.347,0.343,0.123,1.039,0.503,1.096c0.381,0.052,0.894,0.946,1.284,0.939
				c0.195-0.007,0.456-0.386,0.692-0.839v-4.533l-0.003-0.005C200.315,76.592,200.041,75.265,199.517,75.093z"/>
			<path fill="#83D7DD" d="M186.677,106.069c0.411-0.072,0.731-0.404,0.717-0.746c-0.018-0.333-0.605-1.88-0.837-1.88
				c-0.234,0-0.674,1.132-0.953,1.021c-0.274-0.114-0.426,0.923-0.359,1.313C185.305,106.171,186.269,106.141,186.677,106.069z"/>
			<path fill="#83D7DD" d="M185.2,94.622c0.143,0.408,0.667,0.672,1.162,0.594c0.495-0.084,1.483-0.594,1.831-0.626
				c0.345-0.038,0.728-1.785,0.513-2.164c-0.218-0.377-1.856-0.331-2.259-0.356c-0.399-0.021-1.626-0.431-1.858-0.694
				c-0.232-0.258-0.411,1.012-0.785,1.18c-0.374,0.161,0.184,0.402,0.34,0.266c0.152-0.131-0.014,0.656-0.181,0.926
				C183.796,94.023,185.057,94.211,185.2,94.622z"/>
			<path fill="#83D7DD" d="M148.626,94.652c-0.256,0.242-0.034,1.443,0.458,1.475c0.49,0.038,1.277-1.812,1.876-1.445
				c0.601,0.376,1.005,0.519,0.908,0.326c-0.104-0.197-1.812-0.948-2.019-1.08C149.631,93.796,148.887,94.42,148.626,94.652z"/>
			<path fill="#83D7DD" d="M154.894,135.346c0,0.2,1.071,0.173,1.243-0.154c0.17-0.329,0.082-0.596-0.207-0.596
				C155.647,134.597,154.894,135.139,154.894,135.346z"/>
			<path fill="#83D7DD" d="M150.141,133.587c0.51-0.095,0.263,0.731,0.394,1.026c0.12,0.301,1.35,0.538,1.593,0.74
				c0.245,0.197,0.876-0.377,1.364-0.315c0.494,0.061-0.157-1.699-0.98-1.649c-0.823,0.055-1.47-0.742-1.665-0.837
				c-0.202-0.093-1.15-0.669-1.424-0.892c-0.266-0.216-2.364-0.404-3.076-0.404c-0.712,0-1.493,0.73-1.604,0.966
				c-0.111,0.238,1.128,0.4,1.482,0.213c0.354-0.188,2.012,0.207,2.354,0.61C148.919,133.44,149.62,133.688,150.141,133.587z"/>
			<path fill="#83D7DD" d="M147.904,135.346c0,0.2,1.08,0.075,1.338,0.082c0.259,0.009,0.252-0.172-0.02-0.393
				C148.95,134.82,147.904,135.139,147.904,135.346z"/>
			<path fill="#83D7DD" d="M148.664,129.792c-0.277-0.109-0.506,0.334-0.506,0.538c0,0.206,0.156,0.381,0.343,0.381
				C148.692,130.711,148.946,129.906,148.664,129.792z"/>
			<path fill="#83D7DD" d="M150.928,129.967c-0.095-0.206-0.556-0.376-0.696-0.376c-0.141,0-0.236,0.359-0.215,0.791
				C150.039,130.818,151.017,130.171,150.928,129.967z"/>
			<path fill="#83D7DD" d="M152.553,132.471c0.44-0.207,0.49-0.73,0.233-0.699c-0.261,0.025-0.74-0.753-1.021-0.864
				c-0.277-0.111-0.508,0.467-0.508,0.721c0,0.256,0.159,0.426,0.351,0.376C151.799,131.955,152.115,132.676,152.553,132.471z"/>
		</g>
		<path fill="#ADE2DC" d="M155.238,81.038c-0.073-0.073-0.381,0.152-0.241,0.288C155.059,81.417,155.361,81.195,155.238,81.038z"/>
		<path fill="#ADE2DC" d="M163.459,105.52c-0.063-0.089-0.379,0.147-0.257,0.293C163.276,105.898,163.591,105.667,163.459,105.52z"
			/>
	</g>
	<path fill-rule="evenodd" clip-rule="evenodd" fill="#FFFFFF" stroke="#1E9CCE" stroke-miterlimit="10" d="M150.562,109.515h95
		c5.523,0,10,4.477,10,10v26c0,5.523-4.477,10-10,10h-95c-5.523,0-10-4.477-10-10v-26
		C140.563,113.992,145.04,109.515,150.562,109.515z"/>
	
		<text transform="matrix(1 0 0 1 161.2898 141.707)" fill="#666054" font-family="'PingFangSC-Regular-83pv-RKSJ-H'" font-size="24.8033">24小时</text>
</g>
</svg>
