<?xml version="1.0" encoding="utf-8"?>
<!-- Generator: Adobe Illustrator 17.0.0, SVG Export Plug-In . SVG Version: 6.00 Build 0)  -->
<!DOCTYPE svg PUBLIC "-//W3C//DTD SVG 1.1//EN" "http://www.w3.org/Graphics/SVG/1.1/DTD/svg11.dtd">
<svg version="1.1" id="Layer_1" xmlns="http://www.w3.org/2000/svg" xmlns:xlink="http://www.w3.org/1999/xlink" x="0px" y="0px"
	 width="280.486px" height="274.486px" viewBox="0 0 280.486 274.486" enable-background="new 0 0 280.486 274.486"
	 xml:space="preserve">
<circle fill="#51B899" cx="137.494" cy="142.342" r="101.842"/>
<circle fill="#D2F0FC" cx="137.494" cy="141.342" r="101.842"/>
<g>
	<g>
		<path fill="#A1DBE5" d="M76.12,88.982l-1.289-2.785c-2.01,0.821-4.169,1.147-5.566,1.048l-0.709-3.835
			c1.541,0.103,3.556-0.079,5.461-0.96c1.702-0.788,2.533-1.993,2.005-3.133c-0.516-1.114-1.78-1.388-4.318-1.099
			c-3.624,0.395-6.437-0.078-7.753-2.92c-1.208-2.61-0.328-5.474,2.534-7.507l-1.289-2.785l2.87-1.329l1.194,2.58
			c1.961-0.838,3.486-1.009,4.727-1.016l0.653,3.717c-0.895-0.012-2.58-0.046-4.695,0.933c-1.9,0.88-2.124,2.01-1.744,2.831
			c0.434,0.937,1.759,1.106,4.696,0.849c4.057-0.381,6.181,0.592,7.414,3.257c1.207,2.607,0.423,5.677-2.692,7.793l1.398,3.019
			L76.12,88.982z"/>
	</g>
	<g>
		<path fill="#A1DBE5" d="M85.801,63.941l-0.709-1.532c-1.105,0.45-2.29,0.631-3.061,0.575l-0.389-2.107
			c0.848,0.057,1.954-0.044,3.002-0.529c0.937-0.434,1.391-1.095,1.101-1.721c-0.284-0.613-0.978-0.763-2.375-0.606
			c-1.992,0.217-3.539-0.042-4.263-1.604c-0.664-1.435-0.181-3.01,1.394-4.128l-0.709-1.531l1.58-0.731l0.656,1.418
			c1.078-0.46,1.917-0.553,2.601-0.558l0.357,2.045c-0.492-0.006-1.421-0.027-2.582,0.51c-1.046,0.484-1.169,1.109-0.96,1.56
			c0.238,0.515,0.968,0.607,2.583,0.465c2.23-0.21,3.398,0.325,4.077,1.792c0.664,1.434,0.233,3.12-1.481,4.284l0.769,1.661
			L85.801,63.941z"/>
	</g>
	<g>
		<path fill="#A1DBE5" d="M91.344,96.781l-0.529-1.143c-0.824,0.337-1.709,0.472-2.283,0.43l-0.289-1.575
			c0.631,0.043,1.458-0.032,2.238-0.393c0.701-0.325,1.04-0.817,0.822-1.287c-0.211-0.455-0.728-0.567-1.77-0.449
			c-1.488,0.162-2.641-0.031-3.181-1.197c-0.496-1.071-0.135-2.246,1.039-3.08l-0.528-1.141l1.179-0.546l0.489,1.057
			c0.806-0.343,1.431-0.413,1.939-0.418l0.269,1.528c-0.368-0.006-1.06-0.021-1.928,0.381c-0.778,0.36-0.87,0.825-0.715,1.161
			c0.178,0.386,0.721,0.456,1.926,0.348c1.665-0.156,2.537,0.243,3.044,1.338c0.494,1.068,0.173,2.327-1.106,3.197l0.573,1.239
			L91.344,96.781z"/>
	</g>
	<g>
		<path fill="#A1DBE5" d="M54.477,52.798l-0.529-1.142c-0.822,0.336-1.71,0.47-2.283,0.428l-0.29-1.572
			c0.632,0.041,1.456-0.033,2.239-0.396c0.698-0.323,1.039-0.815,0.823-1.282c-0.213-0.46-0.73-0.57-1.773-0.451
			c-1.486,0.161-2.64-0.031-3.18-1.198c-0.496-1.071-0.132-2.246,1.04-3.078l-0.529-1.143l1.177-0.545l0.49,1.058
			c0.804-0.345,1.43-0.415,1.942-0.417l0.266,1.526c-0.365-0.006-1.059-0.02-1.926,0.381c-0.778,0.36-0.87,0.825-0.715,1.161
			c0.178,0.386,0.721,0.455,1.927,0.35c1.664-0.157,2.534,0.242,3.04,1.336c0.495,1.07,0.174,2.329-1.104,3.197l0.573,1.238
			L54.477,52.798z"/>
	</g>
</g>
<g>
	<path fill="#B7C9CB" d="M122.784,192.287c-1.587,6.493-3.177,12.984-4.765,19.48c14.823,0,29.643,0,44.465,0
		c-1.587-6.496-3.177-12.987-4.765-19.48C146.074,192.287,134.428,192.287,122.784,192.287z"/>
	<path fill="#606060" d="M165.236,211.421h-49.965c-1.268,0-2.299,1.207-2.299,2.7v1.011h54.559v-1.011
		C167.531,212.628,166.504,211.421,165.236,211.421z"/>
	<path fill="#E8E8E8" stroke="#282828" stroke-width="0.05" stroke-miterlimit="10" d="M65.123,184.706v10.733
		c0,2.071,1.673,3.742,3.739,3.742H211.64c2.065,0,3.741-1.672,3.741-3.742v-10.733H65.123z"/>
	<path fill="#30363D" d="M215.38,184.706V93.812c0-2.066-1.676-3.741-3.741-3.741H68.862c-2.066,0-3.739,1.674-3.739,3.741v90.894
		H215.38z"/>
	<rect x="71.278" y="95.916" fill="#FFFFFF" width="137.95" height="82.584"/>
</g>
<g>
	<path fill="#FFFFFF" d="M151.367,173.024c0,1.002-0.867,1.814-1.936,1.814l0,0c-1.069,0-1.936-0.812-1.936-1.814v-24.83
		c0-1.002,0.867-1.814,1.936-1.814l0,0c1.069,0,1.936,0.812,1.936,1.814V173.024z"/>
	<path fill="#FFFFFF" d="M156.654,169.938c0,1.002-0.892,1.814-1.993,1.814l0,0c-1.101,0-1.993-0.812-1.993-1.814v-15.14
		c0-1.002,0.892-1.814,1.993-1.814l0,0c1.101,0,1.993,0.812,1.993,1.814V169.938z"/>
	<path fill="#FFFFFF" d="M161.799,171.971c0,1.002-0.867,1.814-1.936,1.814l0,0c-1.069,0-1.936-0.812-1.936-1.814v-15.14
		c0-1.002,0.867-1.814,1.936-1.814l0,0c1.069,0,1.936,0.812,1.936,1.814V171.971z"/>
	<path fill="#FFFFFF" d="M166.695,174.314c0,1.002-0.842,1.814-1.881,1.814l0,0c-1.039,0-1.881-0.812-1.881-1.814v-15.14
		c0-1.002,0.842-1.814,1.881-1.814l0,0c1.039,0,1.881,0.812,1.881,1.814V174.314z"/>
	<path fill="#FFFFFF" d="M166.695,173.949c0,1.002-0.812,1.814-1.814,1.814h-15.572c-1.002,0-1.814-0.812-1.814-1.814v-13.226
		c0-1.002,0.812-1.814,1.814-1.814h2.058c0,0,0.27,0.102,0.667,0.102c0.396,0,0.635-0.102,0.635-0.102h3.986
		c0,0,0.231,0.102,0.642,0.102s0.63-0.102,0.63-0.102h3.872c0,0,0.217,0.102,0.6,0.102c0.383,0,0.554-0.102,0.554-0.102h1.928
		c1.002,0,1.814,0.812,1.814,1.814L166.695,173.949L166.695,173.949z"/>
	<path fill="#FFFFFF" d="M142.107,160.95c0,0,4.099,0.151,4.099,2.873v4.98c0,0,0.134,0.278,0.673,0.278
		c0.51,0,0.616-0.278,0.616-0.278h1.189l6.35-0.217l5.216,1.89l6.35,1.814l0.096,1.66c0,0,0.244,4.387-4.405,4.387h-12.095
		l-8.089-7.559V160.95z"/>
</g>
<path fill="#CBECFC" d="M139.252,136.951l0.097-0.011l69.878-0.02v-3.183l-69.781,3.192l69.781-7.601v-3.63l-69.878,11.236
	l-0.038,0.002l69.917-16.987v-5.153l-69.947,22.141h-0.007l69.954-31.225v-9.797h-0.171l-69.794,41.023h-0.009l0.01-0.054
	l44.129-40.969h-16.375l-27.742,40.908l7.439-40.908h-14.948l7.472,40.962l-0.045,0.067l-0.082-0.05l-26.21-40.978H96.656
	l42.391,40.939L72.456,95.916h-1.179v9.466l67.824,31.526l0.01,0.01l-67.834-22.117v5.115l67.839,17.007l0.017,0.018l-0.112-0.006
	L71.278,125.47v3.574l67.653,7.885l-67.653-3.408v3.092l67.751,0.327l0.108,0.013l-0.073-0.012h0.073l0.012,0.011l-0.007-0.011
	h0.027l-0.029-0.001l-0.009-0.014l0.02,0.005l0.039,0.019l-0.006,0.01l-0.078,0.004l0.01-0.009l-0.015,0.01l-67.824,3.657v3.226
	l67.809-6.875l-0.041,0.026l-67.768,11.56v4.066l67.739-15.608l-0.059,0.037l-67.681,22.508v6.646l67.543-29.068l-66.472,41.34
	h18.702l47.937-41.414l0.219-0.094h0.002l0.026,0.107l-25.267,41.402h15.463l9.827-41.305l10.215,41.305h15.481l-25.673-41.405
	l0.016-0.067l0.171,0.073l48.624,41.399h18.798l-67.226-41.315l69.564,29.627v-6.773l-69.722-22.95l-0.094-0.058l69.816,16.97
	v-4.308L139.392,137l-0.01-0.006l69.843,7.745v-3.359l-69.854-4.393l-0.063-0.038l0.044,0.037l-0.052-0.003l0.007-0.029
	l-0.017,0.028l-0.005-0.001l0.005,0.001l-0.001,0.001l-0.035-0.002l0.034,0.004l-0.007,0.012l-0.067-0.022l-0.002-0.003l0.017-0.004
	h-0.003l-0.015,0.002v-0.001l0.01-0.004l0.005,0.002l-0.004-0.003l0.004-0.002l-0.005,0.002l-0.006-0.004l0.004-0.001l0.038-0.004
	l-0.026,0.002h-0.003l0.004-0.001h0.001l0.012-0.003L139.252,136.951L139.252,136.951L139.252,136.951z M139.293,136.94h0.018
	l-0.055,0.009L139.293,136.94z M139.267,136.94h0.004l-0.013,0.004L139.267,136.94z M139.254,136.94h0.005l-0.006,0.003
	L139.254,136.94z M139.129,136.922l-0.002-0.004l0.021,0.01L139.129,136.922z M139.361,136.99l0.003,0.003l-0.035-0.006
	L139.361,136.99z M139.302,136.984l0.008,0.001l0.062,0.015l0.045,0.039L139.298,137L139.302,136.984z M139.279,137.001
	l-0.023,0.037l-0.039-0.064L139.279,137.001z M139.193,136.95l0.009,0.004v0.003l-0.017,0.001L139.193,136.95z M139.031,137.027
	l0.024-0.021l0.128-0.03L139.031,137.027z M139.205,136.969l-0.004,0.002l-0.13,0.022l0.026-0.023l0.107-0.011l0.001,0.002
	l-0.007,0.002l0.007-0.002V136.969l-0.005-0.002L139.205,136.969z M139.207,136.957l-0.001-0.001L139.207,136.957L139.207,136.957z
	 M139.222,136.963l-0.01,0.003l-0.004-0.006l0.004-0.001L139.222,136.963z M139.208,136.96L139.208,136.96l0.003-0.001h0.001
	L139.208,136.96z M139.245,136.948l-0.024,0.007l-0.009,0.001l-0.01-0.006l-0.002-0.004v0.003l-0.003-0.002l0.046-0.043l0.006,0.034
	l-0.033,0.002h0.033l0.001,0.005L139.245,136.948z"/>
<text transform="matrix(1 0 0 1 125.0604 140.977)" font-family="'MyriadPro-Regular'" font-size="30.1836">pc</text>
<line fill="none" stroke="#FF9C00" stroke-width="0.3" stroke-miterlimit="10" x1="153.94" y1="91.935" x2="192.529" y2="60.725"/>
<g>
	<circle fill="#FF9C00" cx="173.406" cy="36.516" r="1.358"/>
</g>
<line fill="none" stroke="#FF9C00" stroke-width="0.3" stroke-miterlimit="10" x1="155.626" y1="91.526" x2="172.232" y2="107.349"/>
<line fill="none" stroke="#FF9C00" stroke-width="0.3" stroke-miterlimit="10" x1="173.406" y1="36.516" x2="190.926" y2="59.414"/>
<line fill="none" stroke="#FF9C00" stroke-width="0.3" stroke-miterlimit="10" x1="172.232" y1="107.349" x2="141.085" y2="135.794"/>
<line fill="none" stroke="#FF9C00" stroke-width="0.3" stroke-miterlimit="10" x1="141.085" y1="135.794" x2="173.918" y2="147.81"/>
<line fill="none" stroke="#FF9C00" stroke-width="0.3" stroke-miterlimit="10" x1="112.977" y1="162.809" x2="138.821" y2="137.061"/>
<g>
	<g>
		<g>
			<path fill="#FFC13D" d="M173.732,110.569c2.102-1.125,2.89-3.762,1.767-5.869c-1.125-2.102-3.762-2.89-5.857-1.765
				c-2.102,1.125-2.895,3.755-1.771,5.856C168.996,110.893,171.625,111.693,173.732,110.569z"/>
		</g>
	</g>
	<g>
		<path fill="#F4A721" d="M173.425,109.971c1.78-0.95,2.454-3.178,1.498-4.958c-0.957-1.775-3.185-2.449-4.958-1.498
			c-1.787,0.955-2.455,3.184-1.504,4.957C169.423,110.253,171.644,110.933,173.425,109.971z"/>
	</g>
	<g>
		<g>
			<path fill="#FFC13D" d="M173.302,109.741c1.653-0.882,2.28-2.952,1.392-4.606c-0.889-1.648-2.958-2.275-4.606-1.392
				c-1.66,0.887-2.281,2.957-1.397,4.605C169.585,110.003,171.647,110.635,173.302,109.741z"/>
		</g>
	</g>
	<g>
		<polygon fill="#D8853E" points="169.857,104.968 170.646,104.966 171.752,106.625 172.867,104.962 173.613,104.961 
			172.225,106.735 173.272,106.733 173.272,107.167 172.069,107.17 172.069,107.687 173.288,107.684 173.288,108.104 
			172.056,108.106 172.059,109.196 171.4,109.197 171.397,108.13 170.121,108.132 170.12,107.694 171.396,107.692 171.395,107.171 
			170.105,107.174 170.104,106.739 171.209,106.737 		"/>
	</g>
</g>
<g>
	<g>
		<g>
			<path fill="#FFC13D" d="M158.316,98.369c3.752-2.008,5.159-6.715,3.154-10.477c-2.008-3.751-6.715-5.159-10.455-3.15
				c-3.752,2.008-5.168,6.702-3.161,10.454C149.861,98.947,154.553,100.375,158.316,98.369z"/>
		</g>
	</g>
	<g>
		<path fill="#F4A721" d="M157.768,97.301c3.176-1.696,4.381-5.672,2.675-8.851c-1.708-3.168-5.685-4.372-8.851-2.675
			c-3.189,1.705-4.383,5.683-2.685,8.849C150.624,97.804,154.588,99.018,157.768,97.301z"/>
	</g>
	<g>
		<g>
			<path fill="#FFC13D" d="M157.548,96.891c2.951-1.575,4.07-5.269,2.485-8.221c-1.587-2.942-5.281-4.061-8.221-2.484
				c-2.962,1.584-4.071,5.279-2.495,8.22C150.912,97.359,154.594,98.487,157.548,96.891z"/>
		</g>
	</g>
	<g>
		<polygon fill="#D8853E" points="151.399,88.371 152.806,88.368 154.781,91.328 156.771,88.361 158.102,88.359 155.626,91.526 
			157.493,91.522 157.495,92.297 155.346,92.301 155.347,93.224 157.522,93.22 157.523,93.969 155.323,93.973 155.329,95.918 
			154.152,95.92 154.146,94.015 151.869,94.019 151.868,93.237 154.145,93.233 154.143,92.304 151.841,92.308 151.839,91.532 
			153.812,91.528 		"/>
	</g>
</g>
<g>
	<g>
		<g>
			<path fill="#FFC13D" d="M182.316,156.159c3.752-2.008,5.159-6.715,3.154-10.477c-2.008-3.751-6.715-5.159-10.455-3.15
				c-3.752,2.008-5.168,6.702-3.161,10.454C173.861,156.738,178.554,158.165,182.316,156.159z"/>
		</g>
	</g>
	<g>
		<path fill="#F4A721" d="M181.768,155.091c3.176-1.696,4.381-5.672,2.675-8.851c-1.708-3.168-5.685-4.372-8.851-2.675
			c-3.189,1.705-4.383,5.683-2.685,8.849C174.624,155.595,178.588,156.808,181.768,155.091z"/>
	</g>
	<g>
		<g>
			<path fill="#FFC13D" d="M181.549,154.682c2.951-1.575,4.07-5.269,2.485-8.221c-1.587-2.942-5.281-4.061-8.221-2.484
				c-2.962,1.584-4.071,5.279-2.495,8.22C174.912,155.15,178.594,156.277,181.549,154.682z"/>
		</g>
	</g>
	<g>
		<polygon fill="#D8853E" points="175.399,146.161 176.806,146.159 178.782,149.119 180.772,146.151 182.102,146.149 
			179.626,149.316 181.494,149.313 181.495,150.088 179.346,150.091 179.348,151.014 181.522,151.01 181.524,151.759 
			179.324,151.763 179.329,153.708 178.153,153.71 178.147,151.805 175.87,151.809 175.868,151.028 178.145,151.024 
			178.144,150.094 175.841,150.099 175.84,149.322 177.812,149.319 		"/>
	</g>
</g>
<line fill="none" stroke="#FF9C00" stroke-width="0.3" stroke-miterlimit="10" x1="99.562" y1="118.291" x2="137.494" y2="135.282"/>
<line fill="none" stroke="#FF9C00" stroke-width="0.3" stroke-miterlimit="10" x1="138.821" y1="137.061" x2="92.747" y2="147.13"/>
<g>
	<g>
		<g>
			<path fill="#FFC13D" d="M152.768,158.223c11.995-6.419,16.497-21.47,10.084-33.499c-6.419-11.995-21.47-16.497-33.43-10.072
				c-11.995,6.419-16.526,21.429-10.107,33.425C125.734,160.071,140.738,164.636,152.768,158.223z"/>
		</g>
	</g>
	<g>
		<path fill="#F4A721" d="M151.017,154.807c10.156-5.422,14.008-18.136,8.552-28.299c-5.463-10.128-18.177-13.98-28.299-8.552
			c-10.197,5.451-14.014,18.171-8.586,28.293C128.175,156.418,140.849,160.298,151.017,154.807z"/>
	</g>
	<g>
		<g>
			<path fill="#FFC13D" d="M150.314,153.499c9.435-5.037,13.013-16.847,7.944-26.287c-5.074-9.408-16.885-12.986-26.287-7.944
				c-9.472,5.063-13.018,16.879-7.976,26.282C129.096,154.995,140.869,158.599,150.314,153.499z"/>
		</g>
	</g>
</g>
<g>
	<g>
		<g>
			<path fill="#FFC13D" d="M113.736,168.592c2.307-1.234,3.173-4.129,1.939-6.442c-1.234-2.307-4.129-3.173-6.429-1.937
				c-2.307,1.234-3.178,4.121-1.944,6.428C108.537,168.948,111.423,169.826,113.736,168.592z"/>
		</g>
	</g>
	<g>
		<path fill="#F4A721" d="M113.399,167.935c1.953-1.043,2.694-3.488,1.645-5.442c-1.051-1.948-3.496-2.688-5.442-1.645
			c-1.961,1.048-2.695,3.494-1.651,5.441C109.006,168.245,111.444,168.991,113.399,167.935z"/>
	</g>
	<g>
		<g>
			<path fill="#FFC13D" d="M113.264,167.684c1.814-0.969,2.502-3.24,1.528-5.055c-0.976-1.809-3.247-2.497-5.055-1.528
				c-1.822,0.974-2.504,3.246-1.534,5.054C109.184,167.972,111.448,168.665,113.264,167.684z"/>
		</g>
	</g>
	<g>
		<polygon fill="#D8853E" points="109.483,162.444 110.348,162.443 111.563,164.263 112.786,162.439 113.604,162.437 
			112.082,164.384 113.23,164.382 113.231,164.859 111.91,164.861 111.911,165.429 113.248,165.426 113.249,165.887 
			111.896,165.889 111.9,167.085 111.176,167.086 111.172,165.915 109.772,165.917 109.771,165.437 111.171,165.434 111.17,164.863 
			109.755,164.866 109.754,164.388 110.967,164.386 		"/>
	</g>
</g>
<g>
	<g>
		<g>
			<path fill="#FFC13D" d="M94.796,154.949c4.303-2.303,5.918-7.702,3.617-12.017c-2.303-4.303-7.702-5.918-11.992-3.613
				c-4.303,2.303-5.928,7.687-3.625,11.99C85.098,155.612,90.481,157.249,94.796,154.949z"/>
		</g>
	</g>
	<g>
		<path fill="#F4A721" d="M94.168,153.723c3.643-1.945,5.025-6.506,3.068-10.151c-1.96-3.633-6.52-5.015-10.151-3.068
			c-3.658,1.955-5.027,6.518-3.08,10.149C85.974,154.301,90.52,155.693,94.168,153.723z"/>
	</g>
	<g>
		<g>
			<path fill="#FFC13D" d="M93.916,153.254c3.384-1.807,4.668-6.043,2.85-9.43c-1.82-3.375-6.057-4.658-9.43-2.85
				c-3.398,1.816-4.67,6.055-2.861,9.428C86.304,153.791,90.527,155.084,93.916,153.254z"/>
		</g>
	</g>
	<g>
		<polygon fill="#D8853E" points="86.862,143.481 88.476,143.478 90.742,146.873 93.025,143.47 94.551,143.467 91.711,147.1 
			93.853,147.096 93.855,147.984 91.39,147.989 91.391,149.047 93.886,149.043 93.887,149.902 91.364,149.906 91.37,152.137 
			90.021,152.14 90.014,149.954 87.402,149.959 87.401,149.063 90.012,149.058 90.01,147.992 87.369,147.997 87.368,147.106 
			89.63,147.102 		"/>
	</g>
</g>
<g>
	<g>
		<g>
			<path fill="#FFC13D" d="M99.587,122.006c2.962-1.585,4.074-5.302,2.49-8.273c-1.585-2.962-5.302-4.074-8.256-2.487
				c-2.962,1.585-4.081,5.292-2.496,8.254C92.91,122.462,96.616,123.589,99.587,122.006z"/>
		</g>
	</g>
	<g>
		<path fill="#F4A721" d="M99.154,121.162c2.508-1.339,3.459-4.479,2.112-6.988c-1.349-2.501-4.489-3.452-6.988-2.112
			c-2.518,1.346-3.461,4.487-2.12,6.987C93.513,121.56,96.643,122.518,99.154,121.162z"/>
	</g>
	<g>
		<g>
			<path fill="#FFC13D" d="M98.98,120.839c2.33-1.244,3.213-4.16,1.962-6.492c-1.253-2.323-4.17-3.207-6.492-1.962
				c-2.339,1.25-3.215,4.168-1.97,6.49C93.741,121.209,96.648,122.099,98.98,120.839z"/>
		</g>
	</g>
	<g>
		<polygon fill="#D8853E" points="94.125,114.111 95.236,114.109 96.796,116.446 98.367,114.104 99.418,114.102 97.463,116.602 
			98.937,116.6 98.938,117.211 97.241,117.215 97.243,117.943 98.96,117.94 98.961,118.531 97.224,118.534 97.228,120.07 
			96.299,120.072 96.294,118.568 94.497,118.571 94.495,117.954 96.293,117.951 96.292,117.217 94.474,117.22 94.473,116.607 
			96.03,116.604 		"/>
	</g>
</g>
<g>
	<g>
		<g>
			<path fill="#FFC13D" d="M195.476,68.125c4.072-2.179,5.601-7.289,3.423-11.373c-2.179-4.072-7.289-5.601-11.35-3.419
				c-4.072,2.179-5.61,7.275-3.431,11.348C186.298,68.753,191.392,70.302,195.476,68.125z"/>
		</g>
	</g>
	<g>
		<path fill="#F4A721" d="M194.881,66.966c3.448-1.841,4.756-6.157,2.903-9.608c-1.855-3.438-6.171-4.746-9.608-2.903
			c-3.462,1.85-4.758,6.169-2.915,9.606C187.126,67.512,191.429,68.83,194.881,66.966z"/>
	</g>
	<g>
		<g>
			<path fill="#FFC13D" d="M194.643,66.521c3.203-1.71,4.418-5.72,2.697-8.925c-1.723-3.194-5.732-4.409-8.925-2.697
				c-3.216,1.719-4.42,5.731-2.708,8.923C187.439,67.029,191.436,68.253,194.643,66.521z"/>
		</g>
	</g>
	<g>
		<polygon fill="#D8853E" points="187.967,57.272 189.495,57.269 191.639,60.482 193.8,57.261 195.244,57.259 192.556,60.697 
			194.583,60.693 194.585,61.534 192.252,61.538 192.254,62.54 194.614,62.536 194.616,63.349 192.228,63.353 192.234,65.464 
			190.956,65.467 190.95,63.398 188.478,63.403 188.477,62.555 190.949,62.55 190.947,61.542 188.447,61.546 188.446,60.703 
			190.587,60.699 		"/>
	</g>
</g>
<g enable-background="new    ">
	<path fill="#333333" d="M131.917,127.114c4.603,0,6.903,1.964,6.903,5.893c0,3.956-2.329,5.95-6.932,5.95h-5.864v8.193h-2.301
		v-20.036H131.917z M126.024,136.962h5.752c1.628,0,2.807-0.336,3.592-0.981c0.758-0.646,1.151-1.628,1.151-2.975
		s-0.394-2.329-1.179-2.918c-0.786-0.674-1.965-0.982-3.564-0.982h-5.752V136.962z"/>
	<path fill="#333333" d="M156.977,128.489c1.516,1.178,2.413,2.777,2.694,4.77h-2.217c-0.281-1.459-1.011-2.581-2.133-3.367
		c-1.095-0.757-2.413-1.122-3.984-1.122c-2.329,0-4.125,0.813-5.388,2.441c-1.179,1.516-1.769,3.508-1.769,6.005
		c0,2.498,0.562,4.491,1.74,5.95c1.234,1.543,3.002,2.329,5.359,2.329c1.6,0,2.946-0.421,4.069-1.263
		c1.178-0.898,1.992-2.217,2.385-3.957h2.217c-0.449,2.329-1.487,4.153-3.143,5.444c-1.544,1.206-3.396,1.823-5.528,1.823
		c-3.114,0-5.5-1.038-7.155-3.086c-1.516-1.853-2.245-4.266-2.245-7.241c0-2.975,0.758-5.416,2.301-7.324
		c1.684-2.132,4.098-3.171,7.184-3.171C153.582,126.72,155.463,127.31,156.977,128.489z"/>
</g>
</svg>
