<?xml version="1.0" encoding="utf-8"?>
<!-- Generator: Adobe Illustrator 17.0.0, SVG Export Plug-In . SVG Version: 6.00 Build 0)  -->
<!DOCTYPE svg PUBLIC "-//W3C//DTD SVG 1.1//EN" "http://www.w3.org/Graphics/SVG/1.1/DTD/svg11.dtd">
<svg version="1.1" id="图层_1" xmlns="http://www.w3.org/2000/svg" xmlns:xlink="http://www.w3.org/1999/xlink" x="0px" y="0px"
	 width="865px" height="499px" viewBox="0 0 865 499" enable-background="new 0 0 865 499" xml:space="preserve">
<g>
	<g>
		<g>
			<g>
				<g>
					<line fill="none" stroke="#666666" stroke-miterlimit="10" x1="262" y1="196" x2="262" y2="195"/>
					
						<line fill="none" stroke="#666666" stroke-miterlimit="10" stroke-dasharray="1.977,1.977" x1="262" y1="193.023" x2="262" y2="55.62"/>
					<line fill="none" stroke="#666666" stroke-miterlimit="10" x1="262" y1="54.631" x2="262" y2="53.631"/>
				</g>
			</g>
		</g>
	</g>
</g>
<g>
	<g>
		<g>
			<g>
				<g>
					<line fill="none" stroke="#666666" stroke-miterlimit="10" x1="372.5" y1="196" x2="372.5" y2="195"/>
					
						<line fill="none" stroke="#666666" stroke-miterlimit="10" stroke-dasharray="1.977,1.977" x1="372.5" y1="193.023" x2="372.5" y2="55.62"/>
					<line fill="none" stroke="#666666" stroke-miterlimit="10" x1="372.5" y1="54.631" x2="372.5" y2="53.631"/>
				</g>
			</g>
		</g>
	</g>
</g>
<g>
	<g>
		<g>
			<g>
				<g>
					<line fill="none" stroke="#666666" stroke-miterlimit="10" x1="482.5" y1="196" x2="482.5" y2="195"/>
					
						<line fill="none" stroke="#666666" stroke-miterlimit="10" stroke-dasharray="1.977,1.977" x1="482.5" y1="193.023" x2="482.5" y2="55.62"/>
					<line fill="none" stroke="#666666" stroke-miterlimit="10" x1="482.5" y1="54.631" x2="482.5" y2="53.631"/>
				</g>
			</g>
		</g>
	</g>
</g>
<g>
	<g>
		<g>
			<g>
				<g>
					<line fill="none" stroke="#666666" stroke-miterlimit="10" x1="593" y1="196" x2="593" y2="195"/>
					
						<line fill="none" stroke="#666666" stroke-miterlimit="10" stroke-dasharray="1.977,1.977" x1="593" y1="193.023" x2="593" y2="55.62"/>
					<line fill="none" stroke="#666666" stroke-miterlimit="10" x1="593" y1="54.631" x2="593" y2="53.631"/>
				</g>
			</g>
		</g>
	</g>
</g>
<g>
	<g>
		<g>
			<g>
				<g>
					<line fill="none" stroke="#666666" stroke-width="1.0323" stroke-miterlimit="10" x1="190.5" y1="54" x2="191.532" y2="54"/>
					
						<line fill="none" stroke="#666666" stroke-width="1.0323" stroke-miterlimit="10" stroke-dasharray="2.0643,2.0643" x1="193.597" y1="54" x2="766.436" y2="54"/>
					<line fill="none" stroke="#666666" stroke-width="1.0323" stroke-miterlimit="10" x1="767.468" y1="54" x2="768.5" y2="54"/>
				</g>
			</g>
		</g>
	</g>
</g>
<path fill="none" stroke="#666666" stroke-miterlimit="10" d="M327.128,298l7.372,6l-7.372,6"/>
<path fill="none" stroke="#666666" stroke-miterlimit="10" d="M260.872,310l-7.372-6l7.372-6"/>
<path fill="none" stroke="#666666" stroke-miterlimit="10" d="M600.128,298l7.372,6l-7.372,6"/>
<path fill="none" stroke="#666666" stroke-miterlimit="10" d="M533.872,310l-7.372-6l7.372-6"/>
<path fill="none" stroke="#666666" stroke-miterlimit="10" d="M450.263,339.002l-8.75,2.278l3.86,8.711"/>
<path fill="none" stroke="#666666" stroke-miterlimit="10" d="M412.875,338.034l9.236,2.246l-4.075,8.587"/>
<path fill="none" stroke="#666666" stroke-miterlimit="10" d="M424.5,353.372l6-7.372l6,7.372"/>
<path fill="none" stroke="#666666" stroke-miterlimit="10" d="M437.5,261.686l-6,7.314l-6-7.314"/>
<path fill="#E5F5FF" d="M812.5,9c24.3,0,44,19.699,44,44s-19.7,44-44,44s-44-19.7-44-44S788.2,9,812.5,9z"/>
<path fill="#CEECFF" d="M812.5,13c22.091,0,40,17.909,40,40s-17.909,40-40,40s-40-17.909-40-40S790.409,13,812.5,13z"/>
<path fill="#E5F5FF" d="M146.5,10c24.3,0,44,19.699,44,44c0,24.3-19.7,44-44,44s-44-19.7-44-44C102.5,29.699,122.199,10,146.5,10z"
	/>
<path fill="#CEECFF" d="M146.5,14c22.091,0,40,17.909,40,40s-17.909,40-40,40s-40-17.908-40-40C106.5,31.909,124.409,14,146.5,14z"
	/>
<path fill="#FFFFFF" stroke="#333333" stroke-miterlimit="10" d="M692.5,44c5.523,0,10,4.477,10,10s-4.477,10-10,10s-10-4.477-10-10
	S686.977,44,692.5,44z"/>
<path fill="#FFFFFF" stroke="#333333" stroke-miterlimit="10" d="M592.5,44c5.523,0,10,4.477,10,10s-4.477,10-10,10s-10-4.477-10-10
	S586.977,44,592.5,44z"/>
<path fill="#FFFFFF" stroke="#333333" stroke-miterlimit="10" d="M482.5,44c5.523,0,10,4.477,10,10s-4.477,10-10,10s-10-4.477-10-10
	S476.977,44,482.5,44z"/>
<path fill="#FFFFFF" stroke="#333333" stroke-miterlimit="10" d="M372.5,44c5.523,0,10,4.477,10,10s-4.477,10-10,10s-10-4.477-10-10
	S366.977,44,372.5,44z"/>
<path fill="#FFFFFF" stroke="#333333" stroke-miterlimit="10" d="M262.5,44c5.523,0,10,4.477,10,10s-4.477,10-10,10s-10-4.477-10-10
	S256.977,44,262.5,44z"/>
<path fill="#EDF8FF" d="M613.5,275.062h120v60h-120V275.062z"/>
<path fill="#EDF8FF" d="M128.5,275.062h120v60h-120V275.062z"/>
<path fill="#EDF8FF" d="M339.5,275.062h180v60h-180V275.062z"/>
<g>
	<g>
		<g>
			<g>
				<g>
					<line fill="none" stroke="#666666" stroke-miterlimit="10" x1="262" y1="196" x2="263" y2="196"/>
					
						<line fill="none" stroke="#666666" stroke-miterlimit="10" stroke-dasharray="1.9939,1.9939" x1="264.994" y1="196" x2="591.003" y2="196"/>
					<line fill="none" stroke="#666666" stroke-miterlimit="10" x1="592" y1="196" x2="593" y2="196"/>
				</g>
			</g>
		</g>
	</g>
</g>
<g>
	<g>
		<g>
			<g>
				<g>
					<line fill="none" stroke="#666666" stroke-miterlimit="10" x1="253.763" y1="304" x2="254.763" y2="304"/>
					
						<line fill="none" stroke="#666666" stroke-miterlimit="10" stroke-dasharray="2.0189,2.0189" x1="256.782" y1="304" x2="332.49" y2="304"/>
					<line fill="none" stroke="#666666" stroke-miterlimit="10" x1="333.5" y1="304" x2="334.5" y2="304"/>
				</g>
			</g>
		</g>
	</g>
</g>
<g>
	<g>
		<g>
			<g>
				<g>
					<line fill="none" stroke="#666666" stroke-miterlimit="10" x1="235.188" y1="430.494" x2="236.088" y2="430.058"/>
					
						<line fill="none" stroke="#666666" stroke-miterlimit="10" stroke-dasharray="1.991,1.991" x1="237.88" y1="429.19" x2="419.76" y2="341.113"/>
					<line fill="none" stroke="#666666" stroke-miterlimit="10" x1="420.656" y1="340.679" x2="421.556" y2="340.243"/>
				</g>
			</g>
		</g>
	</g>
</g>
<g>
	<g>
		<g>
			<g>
				<g>
					<line fill="none" stroke="#666666" stroke-miterlimit="10" x1="440.688" y1="341.243" x2="441.588" y2="341.679"/>
					
						<line fill="none" stroke="#666666" stroke-miterlimit="10" stroke-dasharray="1.991,1.991" x1="443.38" y1="342.547" x2="625.26" y2="430.624"/>
					<line fill="none" stroke="#666666" stroke-miterlimit="10" x1="626.156" y1="431.058" x2="627.056" y2="431.494"/>
				</g>
			</g>
		</g>
	</g>
</g>
<g>
	<g>
		<g>
			<g>
				<g>
					<line fill="none" stroke="#666666" stroke-miterlimit="10" x1="431" y1="426.737" x2="431" y2="425.737"/>
					
						<line fill="none" stroke="#666666" stroke-miterlimit="10" stroke-dasharray="2.0189,2.0189" x1="431" y1="423.718" x2="431" y2="348.009"/>
					<line fill="none" stroke="#666666" stroke-miterlimit="10" x1="431" y1="347" x2="431" y2="346"/>
				</g>
			</g>
		</g>
	</g>
</g>
<g>
	<g>
		<g>
			<g>
				<g>
					<line fill="none" stroke="#666666" stroke-miterlimit="10" x1="527.077" y1="304" x2="528.077" y2="304"/>
					
						<line fill="none" stroke="#666666" stroke-miterlimit="10" stroke-dasharray="2.0189,2.0189" x1="530.096" y1="304" x2="605.805" y2="304"/>
					<line fill="none" stroke="#666666" stroke-miterlimit="10" x1="606.814" y1="304" x2="607.814" y2="304"/>
				</g>
			</g>
		</g>
	</g>
</g>
<g>
	<g>
		<g>
			<g>
				<g>
					<line fill="none" stroke="#666666" stroke-miterlimit="10" x1="432" y1="269" x2="432" y2="268.049"/>
					
						<line fill="none" stroke="#666666" stroke-miterlimit="10" stroke-dasharray="1.9216,1.9216" x1="432" y1="266.128" x2="432" y2="197.912"/>
					<line fill="none" stroke="#666666" stroke-miterlimit="10" x1="432" y1="196.951" x2="432" y2="196"/>
				</g>
			</g>
		</g>
	</g>
</g>
<path fill="#CCEBFF" d="M692.5,48c3.314,0,6,2.686,6,6c0,3.313-2.686,6-6,6s-6-2.686-6-6S689.186,48,692.5,48z"/>
<path fill="#CCEBFF" d="M592.5,48c3.314,0,6,2.686,6,6c0,3.313-2.686,6-6,6s-6-2.686-6-6S589.186,48,592.5,48z"/>
<path fill="#CCEBFF" d="M482.5,48c3.314,0,6,2.686,6,6c0,3.313-2.686,6-6,6s-6-2.686-6-6S479.186,48,482.5,48z"/>
<path fill="#CCEBFF" d="M372.5,48c3.314,0,6,2.686,6,6c0,3.313-2.686,6-6,6s-6-2.686-6-6S369.186,48,372.5,48z"/>
<path fill="#CCEBFF" d="M262.5,48c3.314,0,6,2.686,6,6c0,3.313-2.686,6-6,6s-6-2.686-6-6S259.186,48,262.5,48z"/>
<path fill="#E5F5FF" d="M623.5,401c24.3,0,44,19.699,44,44s-19.699,44-44,44s-44-19.699-44-44S599.199,401,623.5,401z"/>
<path fill="#CEECFF" d="M623.5,405c22.091,0,40,17.909,40,40s-17.909,40-40,40s-40-17.909-40-40S601.409,405,623.5,405z"/>
<path fill="#E5F5FF" d="M431.5,401c24.301,0,44,19.699,44,44s-19.7,44-44,44s-44-19.699-44-44S407.199,401,431.5,401z"/>
<path fill="#CEECFF" d="M431.5,405c22.091,0,40,17.909,40,40s-17.909,40-40,40s-40-17.909-40-40S409.409,405,431.5,405z"/>
<path fill="#E5F5FF" d="M226.5,401c24.3,0,44,19.699,44,44s-19.7,44-44,44c-24.301,0-44-19.699-44-44S202.199,401,226.5,401z"/>
<path fill="#CEECFF" d="M226.5,405c22.091,0,40,17.909,40,40s-17.909,40-40,40s-40-17.909-40-40S204.409,405,226.5,405z"/>
<g enable-background="new    ">
	<path fill="#0099FF" d="M127.517,53.824v-1.873h0.972v1.873h6.68v0.973h-5.492c1.224,1.98,3.367,3.745,6.428,5.293l-0.666,0.847
		c-3.151-1.837-5.348-3.871-6.59-6.14h-0.36v6.878h-0.972v-6.878h-0.342c-1.296,2.557-3.529,4.645-6.68,6.283l-0.541-0.9
		c2.971-1.386,5.096-3.187,6.392-5.383h-5.492v-0.973H127.517z M134.917,46.298c-3.457,0.721-8.031,1.099-13.72,1.099l-0.324-0.9
		c5.51-0.019,10.029-0.36,13.558-1.026L134.917,46.298z M124.563,51.735l-0.9,0.414c-0.541-1.278-1.117-2.395-1.747-3.367
		l0.918-0.288C123.501,49.503,124.078,50.583,124.563,51.735z M129.245,51.285l-0.937,0.252c-0.378-1.098-0.864-2.143-1.44-3.133
		l0.9-0.306C128.327,49.035,128.813,50.097,129.245,51.285z M134.611,48.225c-0.774,1.53-1.693,2.862-2.737,3.979l-0.792-0.559
		c1.008-1.08,1.891-2.358,2.647-3.854L134.611,48.225z"/>
	<path fill="#0099FF" d="M141.916,48.494v5.924c-0.036,1.98-0.324,3.565-0.864,4.754c-0.54,1.08-1.44,1.944-2.683,2.574l-0.522-0.81
		c1.188-0.576,2.017-1.387,2.521-2.431c0.432-1.045,0.666-2.413,0.684-4.088v-5.924H141.916z M144.382,57.317h-0.9V47.036h-4.015
		v10.281h-0.9V46.136h5.816V57.317z M145.174,60.954l-0.684,0.685c-0.63-0.973-1.477-2.017-2.521-3.097l0.648-0.612
		C143.626,58.938,144.49,59.946,145.174,60.954z M148.181,45.38c-0.18,0.918-0.432,1.782-0.72,2.61h6.086
		c0,6.176-0.108,9.976-0.306,11.38c-0.198,1.458-1.008,2.196-2.431,2.196c-0.468,0-1.296-0.018-2.449-0.054l-0.234-0.864
		c0.972,0.036,1.818,0.054,2.539,0.054c0.9,0,1.44-0.504,1.621-1.477c0.198-1.152,0.306-4.591,0.306-10.281h-5.528
		c-0.504,1.116-1.098,2.107-1.818,3.007l-0.576-0.756c1.26-1.62,2.106-3.583,2.557-5.924L148.181,45.38z M151.477,57.983
		l-0.811,0.396c-0.144-0.469-0.288-0.9-0.432-1.314c-1.422,0.342-3.007,0.594-4.753,0.774l-0.162-0.847
		c0.792-0.738,1.692-2.827,2.719-6.248l0.882,0.307c-0.828,2.557-1.656,4.501-2.467,5.852c1.261-0.145,2.431-0.343,3.511-0.631
		c-0.36-0.972-0.702-1.854-1.062-2.664l0.774-0.378C150.306,54.688,150.9,56.272,151.477,57.983z"/>
	<path fill="#0099FF" d="M164.615,46.946h7.31v0.937h-3.943c-0.36,0.918-0.738,1.729-1.17,2.431h4.087v9.776
		c0,1.045-0.486,1.585-1.458,1.585h-1.819l-0.252-0.9l1.765,0.036c0.54,0,0.81-0.307,0.81-0.919v-8.696h-11.919V61.62h-0.954V50.313
		h3.889c-0.288-0.883-0.648-1.692-1.081-2.431h-3.799v-0.937h7.49c-0.252-0.595-0.504-1.135-0.756-1.621l1.044-0.161
		C164.129,45.686,164.381,46.28,164.615,46.946z M162.977,52.384c-1.062,1.242-2.359,2.322-3.907,3.259l-0.612-0.792
		c1.513-0.883,2.773-1.909,3.817-3.097L162.977,52.384z M167.208,55.301v4.195h-6.428v-4.195H167.208z M165.767,50.313
		c0.414-0.757,0.792-1.566,1.134-2.431h-5.941c0.36,0.72,0.702,1.53,0.99,2.431H165.767z M166.253,56.183h-4.52v2.431h4.52V56.183z
		 M169.404,54.959l-0.72,0.702c-0.918-1.045-2.161-2.144-3.727-3.296l0.648-0.647C167.118,52.798,168.396,53.878,169.404,54.959z"/>
</g>
<g enable-background="new    ">
	<path fill="#333333" d="M13.529,49.697c-1,1.061-2.241,2.061-3.721,2.98l-0.72-0.819c1.52-0.9,2.78-1.86,3.801-2.901L13.529,49.697
		z M18.33,55.679c-0.28,2.521-0.88,4.241-1.84,5.142c-1.04,1.1-3.321,1.8-6.821,2.08l-0.44-0.98c3.201-0.18,5.321-0.76,6.361-1.74
		c0.92-0.92,1.48-2.44,1.64-4.601L18.33,55.679z M13.269,46.617l-0.58,0.9c-1.06-0.641-2.16-1.121-3.281-1.461l0.56-0.82
		C11.168,45.617,12.269,46.077,13.269,46.617z M23.971,59.56h-1.101v-4.921H12.389v5.041h-1.101v-6.062h12.683V59.56z
		 M17.689,44.776c-0.16,0.5-0.36,0.96-0.58,1.4h8.222v0.681c-0.24,1-0.58,1.96-1,2.9l-1.04-0.3c0.38-0.681,0.68-1.461,0.92-2.301
		H20.45c-0.1,0.52-0.24,1.021-0.4,1.46c1.08,1.66,3.161,2.801,6.281,3.401l-0.38,0.939c-3-0.6-5.121-1.74-6.321-3.421
		c-0.28,0.44-0.6,0.86-0.96,1.221c-0.98,0.92-2.581,1.641-4.781,2.16l-0.42-0.979c2.021-0.44,3.481-1.041,4.381-1.841
		c0.8-0.72,1.32-1.7,1.581-2.94h-2.921c-0.54,0.76-1.2,1.44-2,2.04l-0.66-0.86c1.38-1,2.301-2.24,2.781-3.681L17.689,44.776z
		 M25.951,62.12l-0.58,0.9c-2.3-1.12-4.661-2.001-7.082-2.641l0.561-0.82C21.45,60.24,23.811,61.1,25.951,62.12z"/>
	<path fill="#333333" d="M38.55,46.857h7.102v1.04H42.11c-0.24,1.16-0.6,2.3-1.1,3.381h5.061v1.06H31.588v3.141
		c-0.08,3.101-0.82,5.581-2.221,7.462l-0.8-0.74c1.22-1.62,1.86-3.86,1.92-6.722v-4.2h4.121l-0.92-3.381h-3.741v-1.04h7.522
		c-0.32-0.841-0.66-1.581-1.021-2.241l1.121-0.18C37.93,45.137,38.25,45.937,38.55,46.857z M39.97,51.278
		c0.52-1.081,0.88-2.201,1.08-3.381h-6.281l0.94,3.381H39.97z"/>
	<path fill="#333333" d="M54.829,59.84c-1.86,0.72-3.861,1.34-6.021,1.82l-0.28-1.061c1.2-0.24,2.38-0.52,3.521-0.84
		c0.54-2.961,0.92-6.142,1.16-9.502l0.98,0.14c-0.26,3.281-0.66,6.302-1.18,9.062c0.6-0.2,1.22-0.42,1.82-0.66V59.84z
		 M51.328,48.157c-0.28-1.101-0.6-2.101-0.96-3.021l1.08-0.18c0.32,0.939,0.64,2,0.92,3.2h2.44v1.04h-6.221v-1.04H51.328z
		 M51.228,58.52l-0.88,0.22c-0.36-2.721-0.78-5.341-1.3-7.861l0.92-0.3C50.448,52.898,50.868,55.539,51.228,58.52z M66.671,51.618
		v1.04h-5.401c-0.16,0.76-0.4,1.5-0.68,2.181h5.401v6.642c0,0.92-0.38,1.4-1.12,1.4h-0.9l-0.28-0.98l0.86,0.04
		c0.32,0,0.48-0.221,0.48-0.66v-5.441h-2.161v6.762h-0.92v-6.762h-1.92v6.762h-0.94v-6.762h-2.101v7.042h-1v-8.042h3.561
		c0.3-0.7,0.521-1.421,0.66-2.181h-4.881v-1.04H66.671z M64.531,45.537h1.06v4.141H56.27v-4.141h1.06v3.16h3.041v-3.961h1.08v3.961
		h3.081V45.537z"/>
</g>
<g enable-background="new    ">
	<path fill="#333333" d="M25.731,284.599v1.081H18.13v7.901h8.342v1.061H18.13v7.201h-1.081v-7.201H8.868v-1.061h8.182v-7.901H9.668
		v-1.081H25.731z M14.029,291.841l-1.02,0.5c-0.68-1.74-1.42-3.281-2.181-4.641l1-0.48C12.608,288.62,13.349,290.16,14.029,291.841z
		 M24.591,287.54c-0.64,1.64-1.48,3.221-2.481,4.74l-0.98-0.5c1.04-1.58,1.86-3.141,2.46-4.7L24.591,287.54z"/>
	<path fill="#333333" d="M29.388,290.42c1.94-0.8,4.181-3.08,6.702-6.841l1.1,0.38c-1.94,2.82-3.861,4.961-5.781,6.421
		c4.241-0.18,8.142-0.439,11.743-0.8c-0.88-1.2-1.76-2.301-2.641-3.301l1-0.479c1.761,2.04,3.421,4.24,4.941,6.641l-1.041,0.521
		c-0.52-0.86-1.06-1.66-1.58-2.421c-4.241,0.4-8.982,0.7-14.243,0.9L29.388,290.42z M44.231,301.883h-1.08v-1.141H32.188v1.141
		h-1.08v-8.202h13.123V301.883z M43.151,299.683v-4.961H32.188v4.961H43.151z"/>
	<path fill="#333333" d="M50.208,285.68v-1.081h11.663v0.7c-0.36,1.841-0.74,3.421-1.1,4.722h4.061v0.66
		c-0.56,2.761-1.88,5.101-3.921,7.001c1.601,1.24,3.461,2.32,5.602,3.261l-0.72,0.94c-2.221-1-4.121-2.16-5.721-3.461
		c-1.761,1.421-3.981,2.601-6.622,3.521l-0.62-1c2.561-0.88,4.681-1.96,6.381-3.261c-2.121-1.92-3.621-4.141-4.521-6.661
		c-0.58,4.761-2.32,8.342-5.241,10.763l-0.84-0.721c3.4-2.78,5.141-7.241,5.201-13.362v-2.021H50.208z M63.691,291.04H59.41
		c0.4-1.22,0.82-3,1.28-5.36h-5.801v2.021c0,0.239-0.02,0.5-0.02,0.739c0.7,3.321,2.42,6.182,5.181,8.542
		C61.891,295.302,63.091,293.321,63.691,291.04z"/>
</g>
<g enable-background="new    ">
	<path fill="#333333" d="M23.671,308.479v7.901c0,3.44,0.12,5.641,0.4,6.621c0.24,0.94,0.561,1.421,0.94,1.421
		c0.32-0.021,0.6-1.021,0.82-3.021l0.96,0.461c-0.2,1.479-0.46,2.5-0.76,3.101c-0.28,0.46-0.58,0.7-0.92,0.7
		c-0.88,0-1.521-0.641-1.92-1.881c-0.42-1.22-0.62-3.681-0.62-7.401v-6.842H12.088v6.582c-0.04,3.86-0.86,7.102-2.44,9.701
		l-0.9-0.72c1.44-2.381,2.181-5.381,2.261-8.981v-7.642H23.671z M17.649,316.621c0.9-1.581,1.601-3.301,2.101-5.161l1.08,0.2
		c-0.62,2.2-1.44,4.181-2.46,5.94c1.26,1.761,2.321,3.401,3.201,4.901l-0.96,0.681c-0.84-1.48-1.8-2.981-2.881-4.541
		c-1.26,1.88-2.78,3.5-4.581,4.86l-0.74-0.899c1.84-1.4,3.38-3.062,4.621-4.962c-1.12-1.56-2.36-3.181-3.721-4.86l0.9-0.561
		C15.469,313.76,16.609,315.221,17.649,316.621z"/>
	<path fill="#333333" d="M29.168,325.663l-0.24-1.041c0.56,0.04,1.1,0.08,1.621,0.08c0.56,0,0.86-0.3,0.86-0.859v-5.401
		c-0.86,0.34-1.72,0.64-2.601,0.9l-0.28-1.081c1-0.239,1.96-0.54,2.88-0.899v-4.741h-2.601v-1.061h2.601v-3.921h1.08v3.921h1.821
		v1.061h-1.821v4.301c0.64-0.28,1.28-0.601,1.901-0.92v1.1c-0.621,0.32-1.261,0.62-1.901,0.9v6.121c0,1.021-0.52,1.541-1.56,1.541
		H29.168z M35.389,319.321v-1.021h10.642v1.021h-4.761v4.801h5.521v1.041H34.569v-1.041h5.621v-4.801H35.389z M41.43,309.919h4.781
		v3.562h-1.04v-2.581H36.27v2.581h-1.021v-3.562h5.101c-0.32-0.88-0.68-1.66-1.08-2.34l1.1-0.2
		C40.73,308.119,41.09,308.959,41.43,309.919z M39.85,312.7c-0.96,2-2.201,3.54-3.741,4.581l-0.78-0.681
		c1.561-1.06,2.741-2.48,3.561-4.28L39.85,312.7z M45.812,316.641l-0.94,0.5c-1.04-1.68-2.161-3.16-3.401-4.44l0.92-0.42
		C43.691,313.601,44.831,315.061,45.812,316.641z"/>
	<path fill="#333333" d="M54.829,322.742c-1.86,0.72-3.861,1.34-6.021,1.82l-0.28-1.061c1.2-0.24,2.38-0.52,3.521-0.84
		c0.54-2.961,0.92-6.142,1.16-9.502l0.98,0.14c-0.26,3.281-0.66,6.302-1.18,9.062c0.6-0.2,1.22-0.42,1.82-0.66V322.742z
		 M51.328,311.06c-0.28-1.101-0.6-2.101-0.96-3.021l1.08-0.18c0.32,0.939,0.64,2,0.92,3.2h2.44v1.04h-6.221v-1.04H51.328z
		 M51.228,321.422l-0.88,0.22c-0.36-2.721-0.78-5.341-1.3-7.861l0.92-0.3C50.448,315.801,50.868,318.441,51.228,321.422z
		 M66.671,314.521v1.04h-5.401c-0.16,0.76-0.4,1.5-0.68,2.181h5.401v6.642c0,0.92-0.38,1.4-1.12,1.4h-0.9l-0.28-0.98l0.86,0.04
		c0.32,0,0.48-0.221,0.48-0.66v-5.441h-2.161v6.762h-0.92v-6.762h-1.92v6.762h-0.94v-6.762h-2.101v7.042h-1v-8.042h3.561
		c0.3-0.7,0.521-1.421,0.66-2.181h-4.881v-1.04H66.671z M64.531,308.439h1.06v4.141H56.27v-4.141h1.06v3.16h3.041v-3.961h1.08v3.961
		h3.081V308.439z"/>
</g>
<g enable-background="new    ">
	<path fill="#333333" d="M13.529,439.697c-1,1.061-2.241,2.061-3.721,2.98l-0.72-0.819c1.52-0.9,2.78-1.86,3.801-2.901
		L13.529,439.697z M18.33,445.679c-0.28,2.521-0.88,4.241-1.84,5.142c-1.04,1.1-3.321,1.8-6.821,2.08l-0.44-0.98
		c3.201-0.18,5.321-0.76,6.361-1.74c0.92-0.92,1.48-2.44,1.64-4.601L18.33,445.679z M13.269,436.617l-0.58,0.9
		c-1.06-0.641-2.16-1.121-3.281-1.461l0.56-0.82C11.169,435.617,12.269,436.077,13.269,436.617z M23.972,449.56h-1.101v-4.921
		H12.389v5.041h-1.101v-6.062h12.683V449.56z M17.69,434.776c-0.16,0.5-0.36,0.96-0.58,1.4h8.222v0.681c-0.24,1-0.58,1.96-1,2.9
		l-1.04-0.3c0.38-0.681,0.68-1.461,0.92-2.301h-3.761c-0.1,0.52-0.24,1.021-0.4,1.46c1.08,1.66,3.161,2.801,6.281,3.401l-0.38,0.939
		c-3-0.6-5.121-1.74-6.321-3.421c-0.28,0.44-0.6,0.86-0.96,1.221c-0.98,0.92-2.581,1.641-4.781,2.16l-0.42-0.979
		c2.021-0.44,3.481-1.041,4.381-1.841c0.8-0.72,1.32-1.7,1.581-2.94H16.51c-0.54,0.76-1.2,1.44-2,2.04l-0.66-0.86
		c1.38-1,2.301-2.24,2.781-3.681L17.69,434.776z M25.952,452.12l-0.58,0.9c-2.3-1.12-4.661-2.001-7.082-2.641l0.561-0.82
		C21.451,450.24,23.812,451.1,25.952,452.12z"/>
	<path fill="#333333" d="M38.13,434.917c1.96,2.44,4.801,4.44,8.542,6.041l-0.6,0.9c-3.48-1.48-6.281-3.461-8.382-5.901
		c-2.34,2.48-5.141,4.461-8.421,5.941l-0.601-0.881c3.481-1.58,6.342-3.62,8.582-6.101H38.13z M42.891,440.397v0.98H38.23v3.24
		h7.261v1.021H38.23v5.701h2.5c0.76-1.36,1.4-2.841,1.94-4.4l0.98,0.38c-0.54,1.521-1.14,2.86-1.82,4.021h4.361v1.04H29.168v-1.04
		h4.341c-0.46-1.36-1.041-2.66-1.76-3.881l0.98-0.359c0.68,1.16,1.3,2.58,1.84,4.24h2.581v-5.701h-7.281v-1.021h7.281v-3.24h-4.661
		v-0.98H42.891z"/>
	<path fill="#333333" d="M54.83,449.84c-1.86,0.72-3.861,1.34-6.021,1.82l-0.28-1.061c1.2-0.24,2.38-0.52,3.521-0.84
		c0.54-2.961,0.92-6.142,1.16-9.502l0.98,0.14c-0.26,3.281-0.66,6.302-1.18,9.062c0.6-0.2,1.22-0.42,1.82-0.66V449.84z
		 M51.329,438.157c-0.28-1.101-0.6-2.101-0.96-3.021l1.08-0.18c0.32,0.939,0.64,2,0.92,3.2h2.44v1.04h-6.221v-1.04H51.329z
		 M51.229,448.52l-0.88,0.22c-0.36-2.721-0.78-5.341-1.3-7.861l0.92-0.3C50.449,442.898,50.869,445.539,51.229,448.52z
		 M66.672,441.618v1.04h-5.401c-0.16,0.76-0.4,1.5-0.68,2.181h5.401v6.642c0,0.92-0.38,1.4-1.12,1.4h-0.9l-0.28-0.98l0.86,0.04
		c0.32,0,0.48-0.221,0.48-0.66v-5.441h-2.161v6.762h-0.92v-6.762h-1.92v6.762h-0.94v-6.762H56.99v7.042h-1v-8.042h3.561
		c0.3-0.7,0.521-1.421,0.66-2.181H55.33v-1.04H66.672z M64.532,435.537h1.06v4.141H56.27v-4.141h1.06v3.16h3.041v-3.961h1.08v3.961
		h3.081V435.537z"/>
</g>
<g enable-background="new    ">
	<path fill="#0099FF" d="M165.404,297.118v7.112c0,3.097,0.108,5.077,0.36,5.959c0.216,0.847,0.504,1.278,0.846,1.278
		c0.288-0.018,0.54-0.918,0.738-2.719l0.864,0.414c-0.18,1.333-0.414,2.251-0.684,2.791c-0.252,0.414-0.522,0.63-0.828,0.63
		c-0.792,0-1.369-0.576-1.729-1.692c-0.378-1.098-0.558-3.312-0.558-6.661v-6.158h-9.435v5.924
		c-0.036,3.475-0.774,6.392-2.196,8.732l-0.811-0.648c1.296-2.143,1.963-4.843,2.035-8.084v-6.878H165.404z M159.984,304.446
		c0.81-1.423,1.44-2.971,1.89-4.646l0.973,0.18c-0.558,1.98-1.296,3.764-2.215,5.348c1.134,1.585,2.089,3.062,2.881,4.411
		l-0.864,0.612c-0.756-1.332-1.621-2.683-2.593-4.087c-1.134,1.692-2.503,3.151-4.123,4.375l-0.667-0.81
		c1.657-1.261,3.043-2.755,4.16-4.466c-1.009-1.404-2.125-2.862-3.349-4.375l0.81-0.505
		C158.021,301.871,159.048,303.186,159.984,304.446z"/>
	<path fill="#0099FF" d="M170.35,312.584l-0.216-0.936c0.504,0.036,0.99,0.072,1.458,0.072c0.504,0,0.774-0.271,0.774-0.774v-4.861
		c-0.774,0.306-1.549,0.576-2.341,0.81l-0.252-0.972c0.9-0.217,1.764-0.486,2.593-0.811v-4.268h-2.341v-0.954h2.341v-3.529h0.972
		v3.529h1.638v0.954h-1.638v3.871c0.576-0.252,1.152-0.54,1.71-0.828v0.99c-0.558,0.288-1.134,0.559-1.71,0.811v5.51
		c0,0.918-0.468,1.386-1.404,1.386H170.35z M175.95,306.877v-0.918h9.579v0.918h-4.285v4.321h4.969v0.937h-11.001v-0.937h5.06
		v-4.321H175.95z M181.387,298.414h4.303v3.205h-0.936v-2.322h-8.013v2.322h-0.918v-3.205h4.591
		c-0.288-0.792-0.612-1.494-0.972-2.106l0.99-0.18C180.757,296.794,181.081,297.55,181.387,298.414z M179.965,300.917
		c-0.864,1.801-1.98,3.187-3.367,4.123l-0.702-0.612c1.404-0.954,2.467-2.232,3.205-3.853L179.965,300.917z M185.331,304.464
		l-0.847,0.45c-0.936-1.513-1.944-2.845-3.061-3.997l0.828-0.378C183.422,301.728,184.448,303.042,185.331,304.464z"/>
	<path fill="#0099FF" d="M191.393,312.692h-0.937v-9.543c-0.594,1.891-1.386,3.602-2.395,5.114l-0.414-1.045
		c1.332-1.836,2.269-3.943,2.809-6.319h-2.179v-0.919h2.179v-3.601h0.937v3.601h1.999v0.919h-1.999v1.296
		c0.828,1.009,1.656,2.161,2.484,3.439l-0.54,0.792c-0.756-1.333-1.404-2.395-1.944-3.188V312.692z M197.425,310.298
		c-0.829,1.008-2.269,1.818-4.321,2.395l-0.342-0.811c1.836-0.504,3.151-1.224,3.961-2.16c0.252-0.306,0.468-0.648,0.667-1.009
		h-4.394v-0.899h4.771c0.162-0.505,0.288-1.026,0.378-1.603h-3.817v-5.258h8.462v5.258h-3.763c-0.072,0.576-0.198,1.098-0.342,1.603
		h5.33v0.899h-4.808c1.081,1.387,2.755,2.503,5.023,3.331l-0.666,0.774c-2.449-1.026-4.213-2.341-5.275-3.925
		C198.037,309.397,197.749,309.865,197.425,310.298z M196.056,297.893v-1.495h0.918v1.495h3.187v-1.495h0.936v1.495h2.881v0.882
		h-2.881v1.494h-0.936v-1.494h-3.187v1.494h-0.918v-1.494h-2.755v-0.882H196.056z M201.89,303.186v-1.44h-6.662v1.44H201.89z
		 M201.89,303.978h-6.662v1.44h6.662V303.978z"/>
	<path fill="#0099FF" d="M213.588,308.011v-1.746h0.973v1.746h6.302v0.919h-6.302v2.412h7.31v0.919h-15.737v-0.919h7.454v-2.412
		h-6.428v-0.919H213.588z M215.083,297.226v0.9h-1.927v2.953h2.305v0.937h-2.305v4.051h-0.936v-4.051h-2.647
		c-0.198,1.908-0.9,3.349-2.125,4.285l-0.72-0.648c1.098-0.811,1.729-2.017,1.891-3.637h-2.359v-0.937h2.413v-2.953h-1.944v-0.9
		H215.083z M209.627,301.079h2.593v-2.953h-2.593V301.079z M217.675,297.568v6.176h-0.918v-6.176H217.675z M217.243,306.192
		l-0.216-0.918c0.792,0.036,1.567,0.072,2.287,0.072c0.45,0,0.684-0.288,0.684-0.829v-7.958h0.954v8.192
		c0,0.954-0.45,1.44-1.314,1.44H217.243z"/>
</g>
<g enable-background="new    ">
	<path fill="#0099FF" d="M211.827,437.56c-0.181,0.685-0.36,1.314-0.54,1.927h3.655v0.918h-3.979
		c-0.504,1.314-1.062,2.503-1.711,3.547l-0.81-0.521c1.116-1.801,1.926-3.817,2.448-6.068L211.827,437.56z M214.527,442.961v0.9
		h-1.998v2.647h2.593v0.918h-2.593v4.663c0.72-0.234,1.44-0.558,2.179-0.972l0.18,0.864c-0.972,0.521-2.106,0.954-3.385,1.314
		l-0.378-0.829c0.306-0.09,0.468-0.233,0.468-0.414v-4.627h-2.719v-0.918h2.719v-2.647h-1.332v-0.9H214.527z M224.629,447.301
		c-0.864,1.008-1.837,1.765-2.935,2.269c0.792,1.261,1.836,2.322,3.169,3.205l-0.505,0.828c-2.809-1.944-4.501-4.646-5.077-8.103
		h-2.269v6.806c1.134-0.288,2.269-0.684,3.403-1.17l0.216,0.882c-1.242,0.505-2.809,1.009-4.682,1.477l-0.216-0.828
		c0.233-0.072,0.36-0.18,0.36-0.342v-14.206h7.382v7.382h-3.313c0.217,1.206,0.576,2.305,1.099,3.313
		c0.973-0.469,1.873-1.171,2.719-2.144L224.629,447.301z M222.576,439.019h-5.563v2.376h5.563V439.019z M217.013,444.618h5.563
		v-2.359h-5.563V444.618z"/>
	<path fill="#0099FF" d="M231.592,437.92c-1.026,2.017-2.629,3.781-4.826,5.275l-0.306-0.973c1.963-1.386,3.385-2.952,4.249-4.717
		L231.592,437.92z M232.438,442.025c-0.558,1.08-1.242,2.088-2.07,3.024v8.715h-0.954v-7.725c-0.792,0.721-1.639,1.404-2.557,2.035
		l-0.307-0.973c2.323-1.62,3.997-3.439,5.023-5.491L232.438,442.025z M242.701,443.231v0.954h-2.989v8.049
		c0,0.954-0.559,1.44-1.639,1.44h-2.646l-0.216-0.937c0.882,0.036,1.729,0.072,2.538,0.072c0.648,0,0.973-0.271,0.973-0.811v-7.814
		h-5.87v-0.954H242.701z M241.873,438.604v0.955h-8.499v-0.955H241.873z"/>
</g>
<g enable-background="new    ">
	<path fill="#0099FF" d="M416.961,444.959c0.24,0.24,0.36,0.529,0.36,0.865s-0.12,0.646-0.36,0.887
		c-0.24,0.217-0.528,0.336-0.864,0.336c-0.36,0-0.648-0.119-0.864-0.336c-0.24-0.24-0.36-0.551-0.36-0.887s0.12-0.625,0.36-0.865
		c0.216-0.24,0.504-0.359,0.864-0.359C416.433,444.6,416.721,444.719,416.961,444.959z"/>
	<path fill="#0099FF" d="M423.153,444.959c0.24,0.24,0.36,0.529,0.36,0.865s-0.12,0.646-0.36,0.887
		c-0.24,0.217-0.528,0.336-0.864,0.336c-0.36,0-0.648-0.119-0.864-0.336c-0.24-0.24-0.36-0.551-0.36-0.887s0.12-0.625,0.36-0.865
		c0.216-0.24,0.504-0.359,0.864-0.359C422.625,444.6,422.913,444.719,423.153,444.959z"/>
	<path fill="#0099FF" d="M429.345,444.959c0.24,0.24,0.36,0.529,0.36,0.865s-0.12,0.646-0.36,0.887
		c-0.24,0.217-0.528,0.336-0.864,0.336c-0.36,0-0.648-0.119-0.864-0.336c-0.24-0.24-0.36-0.551-0.36-0.887s0.12-0.625,0.36-0.865
		c0.216-0.24,0.504-0.359,0.864-0.359C428.817,444.6,429.105,444.719,429.345,444.959z"/>
	<path fill="#0099FF" d="M435.537,444.959c0.239,0.24,0.359,0.529,0.359,0.865s-0.12,0.646-0.359,0.887
		c-0.24,0.217-0.528,0.336-0.864,0.336c-0.36,0-0.648-0.119-0.864-0.336c-0.24-0.24-0.36-0.551-0.36-0.887s0.12-0.625,0.36-0.865
		c0.216-0.24,0.504-0.359,0.864-0.359C435.009,444.6,435.297,444.719,435.537,444.959z"/>
	<path fill="#0099FF" d="M441.729,444.959c0.24,0.24,0.36,0.529,0.36,0.865s-0.12,0.646-0.36,0.887
		c-0.24,0.217-0.528,0.336-0.864,0.336c-0.359,0-0.647-0.119-0.863-0.336c-0.24-0.24-0.36-0.551-0.36-0.887s0.12-0.625,0.36-0.865
		c0.216-0.24,0.504-0.359,0.863-0.359C441.2,444.6,441.488,444.719,441.729,444.959z"/>
	<path fill="#0099FF" d="M447.921,444.959c0.239,0.24,0.359,0.529,0.359,0.865s-0.12,0.646-0.359,0.887
		c-0.24,0.217-0.528,0.336-0.864,0.336c-0.36,0-0.648-0.119-0.864-0.336c-0.24-0.24-0.36-0.551-0.36-0.887s0.12-0.625,0.36-0.865
		c0.216-0.24,0.504-0.359,0.864-0.359C447.393,444.6,447.681,444.719,447.921,444.959z"/>
</g>
<g enable-background="new    ">
	<path fill="#0099FF" d="M614.351,439.145c2.845,0,4.285,1.224,4.285,3.69s-1.44,3.709-4.303,3.709h-4.105V452h-1.099v-12.855
		H614.351z M610.228,445.572h4.051c1.116,0,1.927-0.234,2.467-0.685c0.504-0.45,0.774-1.134,0.774-2.053
		c0-0.918-0.271-1.584-0.774-2.017c-0.54-0.468-1.368-0.702-2.467-0.702h-4.051V445.572z"/>
	<path fill="#0099FF" d="M627.652,439.9c0.757,0.666,1.135,1.549,1.135,2.665s-0.432,2.124-1.278,3.024
		c-0.414,0.433-1.297,1.116-2.665,2.053c-1.836,1.242-2.845,2.358-3.043,3.35h7.004V452h-8.354c0-1.08,0.415-2.106,1.279-3.061
		c0.521-0.595,1.422-1.333,2.7-2.215c1.116-0.792,1.837-1.368,2.179-1.711c0.702-0.756,1.062-1.584,1.062-2.467
		c0-0.846-0.271-1.512-0.792-1.98c-0.522-0.468-1.225-0.702-2.107-0.702c-0.936,0-1.674,0.307-2.214,0.937
		c-0.576,0.63-0.864,1.549-0.864,2.736h-1.116c0-1.44,0.396-2.574,1.188-3.402c0.757-0.828,1.765-1.242,3.025-1.242
		C625.942,438.893,626.896,439.216,627.652,439.9z"/>
	<path fill="#0099FF" d="M636.562,439.145c2.845,0,4.285,1.224,4.285,3.69s-1.44,3.709-4.304,3.709h-4.105V452h-1.098v-12.855
		H636.562z M632.438,445.572h4.052c1.116,0,1.927-0.234,2.467-0.685c0.504-0.45,0.774-1.134,0.774-2.053
		c0-0.918-0.271-1.584-0.774-2.017c-0.54-0.468-1.369-0.702-2.467-0.702h-4.052V445.572z"/>
</g>
<g enable-background="new    ">
	<path fill="#0099FF" d="M386.232,304.896l-0.307-1.045c2.053-2.25,3.529-4.807,4.43-7.67l0.9,0.432
		c-0.486,1.44-1.099,2.81-1.818,4.069v12.082h-0.973v-10.569C387.799,303.149,387.061,304.05,386.232,304.896z M393.992,300.269
		v-3.853h0.973v3.853h3.583v-3.853h0.973v3.853h2.521v0.973h-2.521v4.501h3.024v0.954h-11.506v-0.954h2.953v-4.501h-2.467v-0.973
		H393.992z M395.379,308.137c-0.937,1.747-2.053,3.26-3.349,4.538l-0.847-0.595c1.278-1.225,2.377-2.683,3.312-4.375
		L395.379,308.137z M398.548,305.742v-4.501h-3.583v4.501H398.548z M402.293,312.08l-0.864,0.612
		c-0.828-1.387-1.98-2.917-3.457-4.591l0.792-0.505C400.312,309.308,401.482,310.802,402.293,312.08z"/>
	<path fill="#0099FF" d="M413.631,298.126h6.662v0.954h-13.468v4.214c-0.055,3.943-0.685,7.094-1.891,9.471l-0.811-0.738
		c1.099-2.089,1.675-5.006,1.729-8.732v-5.168h6.752c-0.324-0.648-0.666-1.225-1.062-1.765l1.062-0.18
		C412.965,296.758,413.307,297.406,413.631,298.126z M414.963,310.964c1.152-2.593,2.161-5.815,3.025-9.669l0.954,0.271
		c-0.774,3.547-1.746,6.68-2.935,9.398h4.015v0.954h-12.621v-0.954H414.963z M411.092,308.804l-0.918,0.252
		c-0.504-2.287-1.135-4.483-1.891-6.608l0.847-0.288C409.85,304.104,410.516,306.318,411.092,308.804z M414.315,307.759
		l-0.919,0.234c-0.432-2.358-0.972-4.628-1.62-6.806l0.847-0.288C413.271,302.897,413.829,305.185,414.315,307.759z"/>
	<path fill="#0099FF" d="M425.059,296.578c-0.144,0.666-0.288,1.314-0.468,1.926h2.935v0.937h-3.205
		c-0.414,1.261-0.899,2.431-1.458,3.476l-0.756-0.486c0.918-1.783,1.603-3.8,2.034-6.05L425.059,296.578z M427.166,302.069v0.882
		h-1.567v2.575h2.089v0.918h-2.089v4.628c0.576-0.288,1.152-0.648,1.747-1.116l0.18,0.882c-0.828,0.594-1.8,1.099-2.881,1.494
		l-0.378-0.81c0.252-0.108,0.378-0.288,0.378-0.54v-4.538h-2.106v-0.918h2.106v-2.575h-1.044v-0.882H427.166z M438.545,311.504
		l-0.252,0.954h-2.413c-0.54,0-1.08-0.018-1.639-0.035c-0.864-0.019-1.602-0.145-2.214-0.36c-0.631-0.234-1.152-0.612-1.585-1.135
		c-0.234-0.288-0.432-0.414-0.612-0.414c-0.324,0-0.918,0.721-1.782,2.161l-0.576-0.721c0.756-1.242,1.423-1.998,1.963-2.269v-6.32
		h-1.585v-0.899h2.485v7.237c0.107,0.091,0.233,0.198,0.342,0.324c0.378,0.486,0.846,0.864,1.404,1.135
		c0.504,0.18,1.116,0.288,1.837,0.342c0.684,0.019,1.368,0.036,2.052,0.036C436.87,311.54,437.734,311.522,438.545,311.504z
		 M430.641,299.566l-0.738,0.522c-0.486-0.864-1.152-1.818-1.98-2.863l0.738-0.468C429.524,297.838,430.173,298.774,430.641,299.566
		z M434.782,306.625v-2.521h-3.079l-0.162-0.846c0.648-1.062,1.242-2.377,1.782-3.926h-1.927v-0.882h2.215
		c0.198-0.685,0.396-1.387,0.576-2.125l0.883,0.198c-0.181,0.666-0.36,1.314-0.541,1.927h3.602v0.882h-3.871
		c-0.504,1.477-1.08,2.773-1.711,3.907h2.233v-2.521h0.899v2.521h2.287v0.864h-2.287v2.521h2.773v0.882h-2.773v3.205h-0.899v-3.205
		h-3.476v-0.882H434.782z"/>
	<path fill="#0099FF" d="M448.749,296.523c1.764,2.197,4.321,3.997,7.688,5.438l-0.54,0.811c-3.133-1.332-5.653-3.115-7.544-5.312
		c-2.106,2.232-4.627,4.016-7.58,5.348l-0.54-0.792c3.133-1.423,5.707-3.26,7.724-5.492H448.749z M453.034,301.457v0.883h-4.195
		v2.916h6.536v0.919h-6.536v5.131h2.25c0.685-1.224,1.261-2.557,1.747-3.961l0.882,0.343c-0.485,1.368-1.026,2.574-1.638,3.618
		h3.925v0.937h-15.322v-0.937h3.907c-0.415-1.224-0.937-2.395-1.585-3.492l0.882-0.324c0.612,1.044,1.171,2.322,1.657,3.816h2.322
		v-5.131h-6.554v-0.919h6.554v-2.916h-4.195v-0.883H453.034z"/>
	<path fill="#0099FF" d="M466.82,297.118v0.9h-8.444v-0.9H466.82z M463.958,312.639l-0.234-0.883l1.314,0.055
		c0.36,0,0.559-0.181,0.559-0.522v-6.05h-6.015v7.508h-0.864v-8.354h7.761v7.076c0,0.774-0.396,1.171-1.152,1.171H463.958z
		 M465.759,299.404v3.709h-6.303v-3.709H465.759z M464.876,300.215h-4.537v2.106h4.537V300.215z M462.806,308.425
		c0.36-0.792,0.666-1.62,0.937-2.521l0.72,0.271c-0.271,0.828-0.576,1.584-0.918,2.25h1.314v0.774h-1.873v3.35h-0.828v-3.35h-1.818
		v-0.774H462.806z M462.175,308.047l-0.666,0.181c-0.216-0.685-0.504-1.333-0.828-1.945l0.666-0.216
		C461.653,306.643,461.923,307.309,462.175,308.047z M470.115,299.603v-3.205h0.919v3.205h2.629v6.914h-2.629v4.394
		c0.702-0.145,1.386-0.288,2.034-0.45c-0.234-0.828-0.486-1.62-0.774-2.377l0.774-0.252c0.522,1.332,0.99,2.845,1.387,4.573
		l-0.828,0.216l-0.324-1.314c-1.837,0.433-3.781,0.811-5.87,1.135l-0.216-0.918c0.99-0.126,1.963-0.271,2.898-0.433v-4.573h-2.628
		v-6.914H470.115z M470.151,300.467h-1.8v5.186h1.8V300.467z M472.816,300.467h-1.818v5.186h1.818V300.467z"/>
</g>
<g enable-background="new    ">
	<path fill="#0099FF" d="M650.756,304.032c-0.883,1.692-1.98,3.169-3.295,4.393c1.98,1.495,4.411,2.611,7.292,3.367l-0.576,0.9
		c-2.989-0.828-5.474-2.034-7.454-3.601c-2.017,1.692-4.502,2.916-7.454,3.673l-0.595-0.864c2.918-0.756,5.348-1.891,7.293-3.439
		c-1.387-1.224-2.503-2.61-3.367-4.195l0.846-0.485c0.828,1.548,1.927,2.881,3.26,4.033c1.296-1.188,2.358-2.593,3.15-4.178
		L650.756,304.032z M646.398,298.595c-0.324-0.811-0.702-1.549-1.116-2.197l1.062-0.18c0.396,0.684,0.756,1.477,1.099,2.377h7.147
		v0.918h-15.827v-0.918H646.398z M644.525,300.953c-1.367,1.782-3.061,3.331-5.076,4.663l-0.631-0.81
		c1.98-1.279,3.637-2.773,4.987-4.502L644.525,300.953z M654.447,305.13l-0.721,0.702c-1.225-1.53-2.898-3.15-4.987-4.879
		l0.685-0.648C651.422,301.907,653.097,303.51,654.447,305.13z"/>
	<path fill="#0099FF" d="M659.303,303.168v-6.104h10.822v6.104h-7.059c-0.36,0.576-0.811,1.134-1.332,1.656h9.687
		c-0.054,1.908-0.162,3.439-0.306,4.609c-0.181,1.152-0.469,1.963-0.847,2.431c-0.378,0.45-0.99,0.702-1.837,0.738h-2.215
		l-0.234-0.937c0.686,0.036,1.352,0.055,1.981,0.055c0.937,0,1.566-0.379,1.872-1.117c0.307-0.756,0.504-2.395,0.612-4.879h-2.017
		c-1.512,3.511-4.016,5.834-7.473,6.986l-0.539-0.811c3.276-1.08,5.635-3.133,7.039-6.176h-2.682
		c-1.225,2.034-3.277,3.637-6.194,4.808l-0.63-0.757c2.754-1.044,4.682-2.395,5.797-4.051h-3.043c-0.9,0.702-1.98,1.332-3.205,1.872
		l-0.539-0.846c2.305-0.937,3.996-2.143,5.041-3.583H659.303z M669.152,299.692v-1.782h-8.895v1.782H669.152z M669.152,300.521
		h-8.895v1.783h8.895V300.521z"/>
	<path fill="#0099FF" d="M678.959,304.807c-0.144,0.396-0.287,0.773-0.432,1.134h3.854v0.792c-0.433,1.261-1.17,2.359-2.179,3.26
		c0.937,0.414,1.854,0.863,2.719,1.332l-0.522,0.774c-0.864-0.505-1.854-1.009-2.935-1.495c-1.206,0.883-2.719,1.585-4.52,2.107
		l-0.468-0.811c1.584-0.45,2.935-1.026,4.033-1.711c-0.828-0.359-1.711-0.72-2.629-1.062c0.504-0.828,0.936-1.602,1.297-2.34h-2.305
		v-0.847h2.682c0.181-0.432,0.324-0.847,0.469-1.242L678.959,304.807z M678.491,299.873v-3.512h0.919v3.512h3.402v0.882h-3.402
		v0.216c1.008,0.559,2.053,1.188,3.097,1.909l-0.522,0.774c-1.008-0.829-1.873-1.477-2.574-1.945v2.593h-0.919v-3.547h-0.054
		c-0.576,1.44-1.675,2.701-3.331,3.781l-0.504-0.811c1.53-0.864,2.557-1.854,3.097-2.971h-2.773v-0.882H678.491z M677.303,299.026
		l-0.738,0.324c-0.378-0.882-0.792-1.675-1.26-2.358l0.792-0.252C676.547,297.442,676.943,298.198,677.303,299.026z M681.48,306.787
		h-3.331c-0.324,0.684-0.702,1.35-1.099,1.962c0.774,0.271,1.531,0.559,2.251,0.864C680.311,308.804,681.03,307.867,681.48,306.787z
		 M682.543,296.974c-0.36,0.811-0.828,1.603-1.387,2.395l-0.721-0.378c0.576-0.792,1.045-1.584,1.387-2.358L682.543,296.974z
		 M684.649,302.735c-0.36,0.973-0.757,1.818-1.188,2.575l-0.612-0.757c1.099-2.052,1.837-4.807,2.233-8.282l0.972,0.18
		c-0.126,0.973-0.271,1.873-0.433,2.737h4.898v0.954h-1.297c-0.072,3.097-0.631,5.708-1.674,7.868
		c0.972,1.711,2.143,3.025,3.475,3.943l-0.559,0.792c-1.332-0.936-2.449-2.214-3.385-3.835c-0.883,1.513-2.017,2.791-3.421,3.8
		l-0.522-0.811c1.44-1.026,2.593-2.323,3.439-3.907C685.783,306.48,685.153,304.716,684.649,302.735z M685.117,301.223
		c0.486,2.233,1.117,4.178,1.908,5.798c0.811-1.962,1.243-4.249,1.297-6.878h-2.917
		C685.297,300.521,685.207,300.881,685.117,301.223z"/>
	<path fill="#0099FF" d="M693.088,312.584l-0.197-0.918c0.468,0.036,0.936,0.072,1.387,0.072c0.485,0,0.738-0.271,0.738-0.811
		v-4.825c-0.757,0.288-1.514,0.54-2.287,0.774l-0.252-0.954c0.863-0.217,1.71-0.469,2.539-0.774v-4.304h-2.252v-0.954h2.252v-3.493
		h0.972v3.493h1.837v0.954h-1.837v3.926c0.612-0.271,1.206-0.559,1.782-0.864v0.954c-0.576,0.306-1.17,0.594-1.782,0.846v5.456
		c0,0.937-0.468,1.422-1.368,1.422H693.088z M697.68,312.746l-0.756-0.666c1.332-2.448,1.998-5.617,2.017-9.471v-5.455h9.327v4.123
		h-3.476v2.358h3.961v0.918h-3.961v2.449h3.114v5.743h-0.899v-0.936h-5.384v0.936h-0.9v-5.743h3.098v-2.449h-3.998
		C699.606,307.669,698.887,310.406,697.68,312.746z M699.895,301.277v1.332c0,0.36-0.018,0.702-0.018,1.026h3.943v-2.358H699.895z
		 M699.895,298.072v2.322h7.418v-2.322H699.895z M707.007,310.91v-3.007h-5.384v3.007H707.007z"/>
</g>
<g enable-background="new    ">
	<path fill="#0099FF" d="M787.9,53.896l-0.306-1.045c2.053-2.25,3.528-4.807,4.429-7.67l0.9,0.432
		c-0.486,1.44-1.099,2.81-1.818,4.069v12.082h-0.973V51.195C789.467,52.149,788.729,53.05,787.9,53.896z M795.661,49.269v-3.853
		h0.972v3.853h3.583v-3.853h0.973v3.853h2.521v0.973h-2.521v4.501h3.024v0.954h-11.505v-0.954h2.953v-4.501h-2.467v-0.973H795.661z
		 M797.047,57.137c-0.936,1.747-2.053,3.26-3.349,4.538l-0.847-0.595c1.278-1.225,2.377-2.683,3.313-4.375L797.047,57.137z
		 M800.216,54.742v-4.501h-3.583v4.501H800.216z M803.961,61.08l-0.864,0.612c-0.828-1.387-1.98-2.917-3.457-4.591l0.793-0.505
		C801.98,58.308,803.151,59.802,803.961,61.08z"/>
	<path fill="#0099FF" d="M815.299,47.126h6.662v0.954h-13.468v4.214c-0.054,3.943-0.685,7.094-1.891,9.471l-0.811-0.738
		c1.099-2.089,1.675-5.006,1.729-8.732v-5.168h6.753c-0.324-0.648-0.667-1.225-1.062-1.765l1.062-0.18
		C814.633,45.758,814.976,46.406,815.299,47.126z M816.632,59.964c1.152-2.593,2.16-5.815,3.024-9.669l0.955,0.271
		c-0.774,3.547-1.747,6.68-2.936,9.398h4.016v0.954h-12.622v-0.954H816.632z M812.761,57.804l-0.919,0.252
		c-0.504-2.287-1.134-4.483-1.89-6.608l0.846-0.288C811.519,53.104,812.185,55.318,812.761,57.804z M815.983,56.759l-0.918,0.234
		c-0.433-2.358-0.973-4.628-1.621-6.806l0.847-0.288C814.939,51.897,815.497,54.185,815.983,56.759z"/>
	<path fill="#0099FF" d="M832.615,46.946h7.31v0.937h-3.942c-0.36,0.918-0.738,1.729-1.171,2.431h4.088v9.776
		c0,1.045-0.486,1.585-1.459,1.585h-1.818l-0.252-0.9l1.765,0.036c0.54,0,0.81-0.307,0.81-0.919v-8.696h-11.919V61.62h-0.954V50.313
		h3.889c-0.288-0.883-0.648-1.692-1.08-2.431h-3.8v-0.937h7.49c-0.252-0.595-0.504-1.135-0.756-1.621l1.044-0.161
		C832.129,45.686,832.381,46.28,832.615,46.946z M830.977,52.384c-1.062,1.242-2.358,2.322-3.907,3.259l-0.612-0.792
		c1.513-0.883,2.773-1.909,3.817-3.097L830.977,52.384z M835.208,55.301v4.195h-6.428v-4.195H835.208z M833.768,50.313
		c0.414-0.757,0.792-1.566,1.134-2.431h-5.941c0.36,0.72,0.702,1.53,0.99,2.431H833.768z M834.254,56.183h-4.52v2.431h4.52V56.183z
		 M837.404,54.959l-0.72,0.702c-0.919-1.045-2.161-2.144-3.728-3.296l0.648-0.647C835.118,52.798,836.396,53.878,837.404,54.959z"/>
</g>
<g enable-background="new    ">
	<path fill="#999999" d="M249.556,19.759v8.336c0.757-0.576,1.585-1.278,2.467-2.088l0.253,1.026
		c-1.152,1.044-2.359,1.998-3.655,2.826l-0.396-0.882c0.252-0.216,0.378-0.433,0.378-0.666v-7.599h-2.755v-0.954H249.556z
		 M250.925,17.202l-0.666,0.684c-0.793-0.918-1.837-1.891-3.169-2.916l0.684-0.648C249.034,15.275,250.078,16.229,250.925,17.202z
		 M262.304,15.258v0.954h-3.925v12.657c0,1.045-0.522,1.566-1.53,1.566h-2.341l-0.216-0.954c0.773,0.036,1.512,0.072,2.214,0.072
		c0.595,0,0.9-0.324,0.9-0.937V16.212h-5.455v-0.954H262.304z"/>
	<path fill="#999999" d="M273.605,17.021c0.612-0.918,1.135-1.908,1.585-2.971l0.954,0.324c-0.468,1.009-0.972,1.891-1.548,2.646
		h3.601v7.185h-5.708v1.927h7.473v0.918h-7.473v3.565h-0.972v-3.565h-7.473v-0.918h7.473v-1.927h-5.708v-7.185H273.605z
		 M271.518,20.173v-2.269h-4.754v2.269H271.518z M271.518,21.02h-4.754v2.286h4.754V21.02z M270.455,16.464l-0.828,0.414
		c-0.54-0.864-1.099-1.639-1.692-2.322l0.828-0.396C269.375,14.861,269.933,15.636,270.455,16.464z M272.489,20.173h4.754v-2.269
		h-4.754V20.173z M277.243,21.02h-4.754v2.286h4.754V21.02z"/>
</g>
<g enable-background="new    ">
	<path fill="#999999" d="M358.19,14.682l0.973,0.144l-1.134,3.728h3.528c0.378-1.44,0.685-2.953,0.919-4.573l0.99,0.107
		c-0.252,1.585-0.54,3.079-0.9,4.466h8.553v0.918h-8.805c-0.252,0.828-0.505,1.603-0.793,2.358h7.473v0.847
		c-0.504,1.603-1.549,3.061-3.133,4.375c1.513,0.954,3.367,1.818,5.6,2.593l-0.486,0.9c-2.413-0.882-4.375-1.837-5.905-2.881
		c-1.513,1.08-3.403,2.053-5.672,2.935l-0.504-0.9c2.16-0.792,3.942-1.674,5.347-2.628c-1.584-1.207-2.664-2.503-3.276-3.907
		c-1.333,2.971-3.043,5.329-5.168,7.076l-0.504-0.9c2.737-2.377,4.754-5.654,6.014-9.867h-4.537L358.19,14.682z M365.033,26.493
		c1.458-1.152,2.448-2.413,2.971-3.764h-6.266C362.351,24.098,363.448,25.358,365.033,26.493z M369.769,17.274l-0.702,0.702
		c-0.793-0.99-1.873-2.035-3.241-3.115l0.666-0.63C367.788,15.239,368.886,16.248,369.769,17.274z"/>
	<path fill="#999999" d="M373.832,19.003l-0.288-0.955c2.269-1.188,3.89-2.521,4.897-3.997l0.828,0.378
		c-0.521,0.774-1.17,1.513-1.927,2.197v4.394h-0.972v-3.602C375.597,17.994,374.75,18.517,373.832,19.003z M382.169,23.918
		c-0.234,2.305-0.793,3.89-1.657,4.735c-0.972,1.009-3.042,1.639-6.229,1.891l-0.378-0.864c2.935-0.18,4.879-0.702,5.815-1.603
		c0.847-0.864,1.351-2.269,1.495-4.249L382.169,23.918z M387.174,27.159h-0.972v-4.285h-9.021v4.573h-0.955v-5.474h10.947V27.159z
		 M383.123,20.749c-1.009,0-1.513-0.468-1.513-1.387v-1.026c-0.792,0.253-1.62,0.486-2.467,0.702l-0.521-0.792
		c1.062-0.27,2.052-0.558,2.988-0.846v-3.151h0.973v2.827c2.143-0.757,3.907-1.585,5.293-2.521l0.648,0.684
		c-1.656,1.062-3.637,1.98-5.941,2.773v1.152c0,0.485,0.27,0.737,0.81,0.737h3.439c0.468,0,0.792-0.09,0.973-0.252
		c0.252-0.216,0.432-0.846,0.504-1.891l0.882,0.288c-0.107,1.261-0.342,2.053-0.702,2.341c-0.306,0.234-0.792,0.36-1.458,0.36
		H383.123z M389.137,29.788l-0.559,0.846c-2.052-1.08-4.177-1.944-6.338-2.574l0.522-0.738
		C385.086,27.987,387.21,28.815,389.137,29.788z"/>
</g>
<g enable-background="new    ">
	<path fill="#999999" d="M466.553,26.097c0.217-0.072,0.324-0.198,0.324-0.378V15.672h0.973v10.064
		c1.044-0.288,2.053-0.63,3.061-1.008V14.231h0.955V30.49h-0.955v-4.808c-1.296,0.468-2.664,0.9-4.069,1.26L466.553,26.097z
		 M473.053,22.424l-0.594-0.721c1.513-1.891,2.521-4.429,3.061-7.616l0.973,0.18c-0.18,0.973-0.396,1.891-0.648,2.737h6.266v0.954
		h-1.674c-0.108,3.025-0.864,5.636-2.232,7.797c1.224,1.512,2.646,2.881,4.303,4.087l-0.666,0.774
		c-1.639-1.207-3.043-2.539-4.231-4.016c-1.188,1.566-2.755,2.881-4.699,3.926l-0.559-0.883c1.963-1.008,3.512-2.269,4.664-3.799
		c-1.152-1.549-2.071-3.241-2.791-5.078C473.863,21.379,473.467,21.919,473.053,22.424z M474.8,19.723
		c0.72,1.927,1.656,3.673,2.809,5.239c1.188-1.98,1.818-4.321,1.891-7.004h-3.961C475.304,18.589,475.052,19.183,474.8,19.723z"/>
	<path fill="#999999" d="M484.499,19.003l-0.288-0.955c2.269-1.188,3.89-2.521,4.897-3.997l0.828,0.378
		c-0.521,0.774-1.17,1.513-1.927,2.197v4.394h-0.972v-3.602C486.264,17.994,485.417,18.517,484.499,19.003z M492.836,23.918
		c-0.234,2.305-0.793,3.89-1.657,4.735c-0.972,1.009-3.042,1.639-6.229,1.891l-0.378-0.864c2.935-0.18,4.879-0.702,5.815-1.603
		c0.847-0.864,1.351-2.269,1.495-4.249L492.836,23.918z M497.841,27.159h-0.972v-4.285h-9.021v4.573h-0.955v-5.474h10.947V27.159z
		 M493.79,20.749c-1.009,0-1.513-0.468-1.513-1.387v-1.026c-0.792,0.253-1.62,0.486-2.467,0.702l-0.521-0.792
		c1.062-0.27,2.052-0.558,2.988-0.846v-3.151h0.973v2.827c2.143-0.757,3.907-1.585,5.293-2.521l0.648,0.684
		c-1.656,1.062-3.637,1.98-5.941,2.773v1.152c0,0.485,0.27,0.737,0.81,0.737h3.439c0.468,0,0.792-0.09,0.973-0.252
		c0.252-0.216,0.432-0.846,0.504-1.891l0.882,0.288c-0.107,1.261-0.342,2.053-0.702,2.341c-0.306,0.234-0.792,0.36-1.458,0.36
		H493.79z M499.804,29.788l-0.559,0.846c-2.052-1.08-4.177-1.944-6.338-2.574l0.522-0.738
		C495.753,27.987,497.877,28.815,499.804,29.788z"/>
</g>
<g enable-background="new    ">
	<path fill="#999999" d="M578.191,14.682l0.973,0.144l-1.135,3.728h3.529c0.377-1.44,0.684-2.953,0.918-4.573l0.99,0.107
		c-0.252,1.585-0.54,3.079-0.9,4.466h8.553v0.918h-8.805c-0.252,0.828-0.504,1.603-0.793,2.358h7.473v0.847
		c-0.504,1.603-1.549,3.061-3.133,4.375c1.513,0.954,3.367,1.818,5.6,2.593l-0.486,0.9c-2.412-0.882-4.375-1.837-5.905-2.881
		c-1.513,1.08-3.403,2.053-5.672,2.935l-0.504-0.9c2.16-0.792,3.942-1.674,5.347-2.628c-1.584-1.207-2.664-2.503-3.276-3.907
		c-1.333,2.971-3.043,5.329-5.167,7.076l-0.505-0.9c2.737-2.377,4.754-5.654,6.015-9.867h-4.538L578.191,14.682z M585.033,26.493
		c1.459-1.152,2.449-2.413,2.971-3.764h-6.266C582.351,24.098,583.449,25.358,585.033,26.493z M589.769,17.274l-0.702,0.702
		c-0.793-0.99-1.873-2.035-3.241-3.115l0.667-0.63C587.788,15.239,588.887,16.248,589.769,17.274z"/>
	<path fill="#999999" d="M609.479,14.934v0.864h-5.527v1.674h4.16v3.836h-13.199v-3.836h4.178v-1.674h-5.545v-0.864H609.479z
		 M609.173,25.25v0.847h-7.004v3.079c0,0.882-0.486,1.332-1.458,1.332h-1.604l-0.197-0.882c0.504,0.036,1.008,0.071,1.477,0.071
		c0.558,0,0.846-0.252,0.846-0.72v-2.881h-7.4V25.25H609.173z M598.945,27.537c-1.224,1.08-2.736,2.017-4.501,2.809l-0.594-0.756
		c1.765-0.757,3.241-1.639,4.429-2.629L598.945,27.537z M607.48,22.819v0.864h-11.865v-0.864H607.48z M599.09,18.3h-3.24v2.161h3.24
		V18.3z M603.016,15.798h-2.989v1.674h2.989V15.798z M603.016,18.3h-2.989v2.161h2.989V18.3z M607.174,18.3h-3.223v2.161h3.223V18.3
		z M609.299,29.68l-0.684,0.666c-1.045-0.882-2.432-1.818-4.195-2.809l0.648-0.612C606.76,27.843,608.164,28.762,609.299,29.68z"/>
</g>
<g enable-background="new    ">
	<path fill="#999999" d="M680.982,14.411c-0.396,1.242-0.883,2.431-1.459,3.547v12.658h-0.973V19.669
		c-0.72,1.116-1.512,2.179-2.412,3.169l-0.324-1.009c1.98-2.305,3.385-4.915,4.249-7.832L680.982,14.411z M688.634,18.156v-3.979
		h0.973v3.979h2.665v0.973h-2.665v9.578c0,1.152-0.522,1.729-1.549,1.729h-2.574l-0.216-0.936c0.846,0.036,1.656,0.071,2.448,0.071
		c0.612,0,0.918-0.378,0.918-1.116v-9.326h-7.147v-0.973H688.634z M686.239,25.646l-0.828,0.576
		c-0.792-1.332-1.872-2.809-3.241-4.43l0.793-0.504C684.385,22.945,685.483,24.404,686.239,25.646z"/>
	<path fill="#999999" d="M696.497,25.719c-0.414,1.404-0.99,2.629-1.729,3.655l-0.738-0.469c0.757-0.99,1.297-2.106,1.639-3.367
		L696.497,25.719z M698.01,15.888v-1.747h0.937v1.747h3.421v0.864h-3.421v1.908h3.007v0.847h-7.238V18.66h3.295v-1.908h-3.925
		v-0.864H698.01z M702.583,23.684v0.864h-3.655v4.735c0,0.829-0.45,1.261-1.332,1.261h-1.566l-0.198-0.9
		c0.504,0.036,0.973,0.072,1.44,0.072s0.72-0.234,0.72-0.666v-4.502h-3.78v-0.864H702.583z M701.377,21.181v0.883h-6.068v-0.883
		H701.377z M702.223,28.131l-0.774,0.36c-0.396-1.044-0.81-1.98-1.242-2.791l0.793-0.252
		C701.467,26.276,701.863,27.177,702.223,28.131z M706.437,19.488c0,1.225-0.055,2.341-0.162,3.35
		c0.792,2.971,2.16,5.312,4.123,7.04l-0.63,0.738c-1.693-1.585-2.953-3.583-3.781-5.979c-0.072,0.271-0.126,0.541-0.181,0.793
		c-0.576,2.143-1.872,3.889-3.853,5.239l-0.595-0.738c1.747-1.188,2.917-2.7,3.512-4.556c0.432-1.548,0.647-3.511,0.666-5.888
		H706.437z M705.248,14.339c-0.108,0.973-0.271,1.891-0.45,2.737h4.844v0.594c-0.253,1.549-0.576,3.079-0.973,4.556l-0.918-0.252
		c0.396-1.207,0.702-2.539,0.954-4.016h-4.123c-0.414,1.513-0.973,2.773-1.675,3.781l-0.756-0.559
		c1.134-1.674,1.872-3.997,2.196-6.985L705.248,14.339z"/>
</g>
<g enable-background="new    ">
	<path fill="#666666" d="M242.055,100.423v8.337c0.756-0.576,1.584-1.279,2.467-2.089l0.252,1.026
		c-1.152,1.044-2.359,1.998-3.655,2.826l-0.396-0.882c0.252-0.216,0.378-0.433,0.378-0.666v-7.599h-2.755v-0.954H242.055z
		 M243.424,97.866l-0.666,0.684c-0.792-0.918-1.837-1.89-3.169-2.916l0.684-0.648C241.533,95.939,242.578,96.894,243.424,97.866z
		 M254.803,95.922v0.954h-3.925v12.657c0,1.045-0.522,1.566-1.53,1.566h-2.341l-0.216-0.954c0.774,0.036,1.512,0.072,2.214,0.072
		c0.594,0,0.9-0.324,0.9-0.937V96.876h-5.456v-0.954H254.803z"/>
	<path fill="#666666" d="M248.105,115.686c0.612-0.918,1.134-1.908,1.584-2.971l0.955,0.324c-0.468,1.009-0.972,1.891-1.548,2.646
		h3.601v7.185h-5.708v1.927h7.472v0.918h-7.472v3.565h-0.972v-3.565h-7.472v-0.918h7.472v-1.927h-5.708v-7.185H248.105z
		 M246.017,118.837v-2.269h-4.753v2.269H246.017z M246.017,119.684h-4.753v2.286h4.753V119.684z M244.954,115.128l-0.828,0.414
		c-0.54-0.864-1.098-1.639-1.692-2.323l0.828-0.396C243.874,113.525,244.432,114.3,244.954,115.128z M246.989,118.837h4.753v-2.269
		h-4.753V118.837z M251.742,119.684h-4.753v2.286h4.753V119.684z"/>
	<path fill="#666666" d="M246.989,131.598v0.9h-8.444v-0.9H246.989z M244.126,147.118l-0.234-0.883l1.314,0.055
		c0.36,0,0.559-0.181,0.559-0.522v-6.05h-6.014v7.508h-0.864v-8.354h7.76v7.076c0,0.774-0.396,1.171-1.152,1.171H244.126z
		 M245.927,133.884v3.709h-6.302v-3.709H245.927z M245.044,134.694h-4.538v2.106h4.538V134.694z M242.974,142.904
		c0.36-0.792,0.666-1.62,0.937-2.521l0.72,0.271c-0.27,0.828-0.576,1.584-0.918,2.25h1.314v0.774h-1.873v3.35h-0.829v-3.35h-1.818
		v-0.774H242.974z M242.343,142.526l-0.666,0.181c-0.216-0.685-0.504-1.333-0.828-1.945l0.666-0.216
		C241.821,141.122,242.091,141.788,242.343,142.526z M250.284,134.082v-3.205h0.918v3.205h2.629v6.914h-2.629v4.394
		c0.702-0.145,1.386-0.288,2.035-0.45c-0.234-0.828-0.486-1.621-0.774-2.377l0.774-0.252c0.522,1.332,0.99,2.845,1.386,4.573
		l-0.828,0.216l-0.324-1.314c-1.836,0.433-3.781,0.811-5.87,1.135l-0.216-0.918c0.99-0.126,1.963-0.271,2.899-0.433v-4.573h-2.628
		v-6.914H250.284z M250.32,134.946h-1.8v5.186h1.8V134.946z M252.984,134.946h-1.818v5.186h1.818V134.946z"/>
	<path fill="#666666" d="M242.775,153.307c-0.9,0.954-2.017,1.854-3.349,2.683l-0.648-0.738c1.369-0.811,2.503-1.675,3.421-2.61
		L242.775,153.307z M247.097,158.69c-0.252,2.269-0.792,3.816-1.656,4.627c-0.937,0.99-2.989,1.62-6.14,1.873l-0.396-0.883
		c2.881-0.162,4.79-0.685,5.726-1.566c0.829-0.828,1.333-2.196,1.477-4.142L247.097,158.69z M242.542,150.533l-0.522,0.811
		c-0.955-0.576-1.945-1.008-2.953-1.314l0.504-0.738C240.651,149.634,241.641,150.048,242.542,150.533z M252.174,162.184h-0.99
		v-4.43h-9.435v4.537h-0.99v-5.455h11.416V162.184z M246.521,148.877c-0.144,0.45-0.324,0.864-0.522,1.261h7.4v0.612
		c-0.216,0.9-0.522,1.765-0.9,2.61l-0.937-0.27c0.342-0.612,0.612-1.314,0.829-2.071h-3.385c-0.09,0.469-0.216,0.919-0.36,1.314
		c0.972,1.494,2.845,2.521,5.653,3.062l-0.342,0.846c-2.701-0.54-4.609-1.566-5.69-3.079c-0.252,0.396-0.54,0.774-0.864,1.099
		c-0.882,0.828-2.323,1.477-4.303,1.944l-0.378-0.882c1.818-0.396,3.133-0.937,3.943-1.656c0.72-0.648,1.188-1.531,1.422-2.647
		h-2.628c-0.486,0.685-1.081,1.297-1.801,1.837l-0.594-0.774c1.243-0.9,2.071-2.017,2.503-3.312L246.521,148.877z M253.957,164.488
		l-0.522,0.81c-2.07-1.008-4.195-1.801-6.374-2.377l0.504-0.737C249.906,162.795,252.03,163.569,253.957,164.488z"/>
</g>
<g enable-background="new    ">
	<path fill="#666666" d="M352.055,100.423v8.337c0.757-0.576,1.585-1.279,2.467-2.089l0.253,1.026
		c-1.152,1.044-2.359,1.998-3.655,2.826l-0.396-0.882c0.252-0.216,0.378-0.433,0.378-0.666v-7.599h-2.755v-0.954H352.055z
		 M353.424,97.866l-0.666,0.684c-0.793-0.918-1.837-1.89-3.169-2.916l0.684-0.648C351.533,95.939,352.577,96.894,353.424,97.866z
		 M364.803,95.922v0.954h-3.925v12.657c0,1.045-0.522,1.566-1.53,1.566h-2.341l-0.216-0.954c0.773,0.036,1.512,0.072,2.214,0.072
		c0.595,0,0.9-0.324,0.9-0.937V96.876h-5.455v-0.954H364.803z"/>
	<path fill="#666666" d="M358.104,115.686c0.612-0.918,1.135-1.908,1.585-2.971l0.954,0.324c-0.468,1.009-0.972,1.891-1.548,2.646
		h3.601v7.185h-5.708v1.927h7.473v0.918h-7.473v3.565h-0.972v-3.565h-7.473v-0.918h7.473v-1.927h-5.708v-7.185H358.104z
		 M356.017,118.837v-2.269h-4.754v2.269H356.017z M356.017,119.684h-4.754v2.286h4.754V119.684z M354.954,115.128l-0.828,0.414
		c-0.54-0.864-1.099-1.639-1.692-2.323l0.828-0.396C353.874,113.525,354.432,114.3,354.954,115.128z M356.988,118.837h4.754v-2.269
		h-4.754V118.837z M361.742,119.684h-4.754v2.286h4.754V119.684z"/>
	<path fill="#666666" d="M356.988,131.598v0.9h-8.444v-0.9H356.988z M354.126,147.118l-0.234-0.883l1.314,0.055
		c0.36,0,0.559-0.181,0.559-0.522v-6.05h-6.015v7.508h-0.864v-8.354h7.761v7.076c0,0.774-0.396,1.171-1.152,1.171H354.126z
		 M355.927,133.884v3.709h-6.303v-3.709H355.927z M355.044,134.694h-4.537v2.106h4.537V134.694z M352.974,142.904
		c0.36-0.792,0.666-1.62,0.937-2.521l0.72,0.271c-0.271,0.828-0.576,1.584-0.918,2.25h1.314v0.774h-1.873v3.35h-0.828v-3.35h-1.818
		v-0.774H352.974z M352.343,142.526l-0.666,0.181c-0.216-0.685-0.504-1.333-0.828-1.945l0.666-0.216
		C351.821,141.122,352.091,141.788,352.343,142.526z M360.283,134.082v-3.205h0.919v3.205h2.629v6.914h-2.629v4.394
		c0.702-0.145,1.386-0.288,2.034-0.45c-0.234-0.828-0.486-1.621-0.774-2.377l0.774-0.252c0.522,1.332,0.99,2.845,1.387,4.573
		l-0.828,0.216l-0.324-1.314c-1.837,0.433-3.781,0.811-5.87,1.135l-0.216-0.918c0.99-0.126,1.963-0.271,2.898-0.433v-4.573h-2.628
		v-6.914H360.283z M360.319,134.946h-1.8v5.186h1.8V134.946z M362.984,134.946h-1.818v5.186h1.818V134.946z"/>
	<path fill="#666666" d="M352.775,153.307c-0.9,0.954-2.017,1.854-3.349,2.683l-0.648-0.738c1.368-0.811,2.503-1.675,3.421-2.61
		L352.775,153.307z M357.097,158.69c-0.252,2.269-0.792,3.816-1.656,4.627c-0.937,0.99-2.989,1.62-6.14,1.873l-0.396-0.883
		c2.881-0.162,4.789-0.685,5.726-1.566c0.828-0.828,1.332-2.196,1.477-4.142L357.097,158.69z M352.541,150.533l-0.521,0.811
		c-0.955-0.576-1.945-1.008-2.953-1.314l0.504-0.738C350.65,149.634,351.641,150.048,352.541,150.533z M362.174,162.184h-0.99v-4.43
		h-9.435v4.537h-0.99v-5.455h11.415V162.184z M356.521,148.877c-0.145,0.45-0.324,0.864-0.522,1.261h7.4v0.612
		c-0.216,0.9-0.522,1.765-0.9,2.61l-0.937-0.27c0.343-0.612,0.612-1.314,0.829-2.071h-3.386c-0.09,0.469-0.216,0.919-0.359,1.314
		c0.972,1.494,2.845,2.521,5.653,3.062l-0.342,0.846c-2.701-0.54-4.609-1.566-5.69-3.079c-0.252,0.396-0.54,0.774-0.864,1.099
		c-0.882,0.828-2.322,1.477-4.303,1.944l-0.378-0.882c1.818-0.396,3.133-0.937,3.942-1.656c0.721-0.648,1.188-1.531,1.423-2.647
		h-2.629c-0.486,0.685-1.08,1.297-1.801,1.837l-0.594-0.774c1.242-0.9,2.07-2.017,2.503-3.312L356.521,148.877z M363.957,164.488
		l-0.522,0.81c-2.07-1.008-4.195-1.801-6.374-2.377l0.504-0.737C359.905,162.795,362.03,163.569,363.957,164.488z"/>
</g>
<g enable-background="new    ">
	<path fill="#666666" d="M501.178,94.859c2.269,2.791,4.897,4.987,7.851,6.59l-0.486,0.864c-3.007-1.675-5.581-3.854-7.706-6.554
		c-1.963,2.574-4.556,4.789-7.778,6.662l-0.468-0.865c3.168-1.8,5.797-4.033,7.904-6.697H501.178z M497.451,102.277v6.734
		c0,0.666,0.342,1.008,1.044,1.008h5.815c1.008,0,1.639-0.198,1.891-0.558c0.27-0.433,0.469-1.261,0.594-2.485l0.9,0.307
		c-0.162,1.692-0.468,2.755-0.918,3.15c-0.396,0.324-1.152,0.504-2.269,0.504h-6.356c-1.134,0-1.691-0.558-1.691-1.638v-7.923h8.66
		v4.069c0,1.044-0.486,1.603-1.422,1.639c-0.9,0-1.783-0.036-2.629-0.072l-0.271-0.918c0.9,0.036,1.765,0.071,2.575,0.071
		c0.504,0,0.773-0.323,0.773-0.972v-2.917H497.451z"/>
	<path fill="#666666" d="M502.24,114.498h6.554v0.972h-13.468v4.268c-0.055,3.961-0.666,7.13-1.837,9.524l-0.81-0.738
		c1.062-2.106,1.62-5.041,1.674-8.786v-5.239h6.842c-0.306-0.612-0.63-1.152-0.99-1.657l1.062-0.18
		C501.609,113.201,501.934,113.813,502.24,114.498z M501.357,116.353c-0.18,0.576-0.378,1.134-0.558,1.638h7.22v0.883h-7.58
		c-0.54,1.26-1.116,2.358-1.765,3.312h3.817v-2.305h0.973v2.305h4.141v0.883h-4.141v2.377h5.491v0.899h-5.491v2.917h-0.973v-2.917
		h-6.645v-0.899h6.645v-2.377h-4.861l-0.198-0.811c0.757-0.937,1.423-2.053,1.999-3.385h-2.917v-0.883h3.276
		c0.217-0.594,0.433-1.206,0.631-1.836L501.357,116.353z"/>
	<path fill="#666666" d="M501.322,131.598v0.9h-8.445v-0.9H501.322z M498.459,147.118l-0.234-0.883l1.314,0.055
		c0.36,0,0.559-0.181,0.559-0.522v-6.05h-6.014v7.508h-0.865v-8.354h7.761v7.076c0,0.774-0.396,1.171-1.152,1.171H498.459z
		 M500.26,133.884v3.709h-6.303v-3.709H500.26z M499.377,134.694h-4.537v2.106h4.537V134.694z M497.307,142.904
		c0.36-0.792,0.666-1.62,0.937-2.521l0.72,0.271c-0.27,0.828-0.576,1.584-0.918,2.25h1.314v0.774h-1.873v3.35h-0.828v-3.35h-1.818
		v-0.774H497.307z M496.676,142.526l-0.666,0.181c-0.216-0.685-0.504-1.333-0.828-1.945l0.666-0.216
		C496.154,141.122,496.424,141.788,496.676,142.526z M504.617,134.082v-3.205h0.918v3.205h2.629v6.914h-2.629v4.394
		c0.702-0.145,1.387-0.288,2.035-0.45c-0.234-0.828-0.486-1.621-0.775-2.377l0.775-0.252c0.521,1.332,0.99,2.845,1.386,4.573
		l-0.828,0.216l-0.324-1.314c-1.837,0.433-3.781,0.811-5.87,1.135l-0.216-0.918c0.99-0.126,1.963-0.271,2.899-0.433v-4.573h-2.629
		v-6.914H504.617z M504.652,134.946h-1.8v5.186h1.8V134.946z M507.317,134.946h-1.818v5.186h1.818V134.946z"/>
	<path fill="#666666" d="M497.108,153.307c-0.899,0.954-2.017,1.854-3.349,2.683l-0.648-0.738c1.369-0.811,2.503-1.675,3.421-2.61
		L497.108,153.307z M501.43,158.69c-0.252,2.269-0.792,3.816-1.656,4.627c-0.937,0.99-2.988,1.62-6.14,1.873l-0.396-0.883
		c2.881-0.162,4.79-0.685,5.726-1.566c0.828-0.828,1.332-2.196,1.477-4.142L501.43,158.69z M496.875,150.533l-0.522,0.811
		c-0.954-0.576-1.944-1.008-2.953-1.314l0.505-0.738C494.984,149.634,495.975,150.048,496.875,150.533z M506.508,162.184h-0.99
		v-4.43h-9.436v4.537h-0.99v-5.455h11.416V162.184z M500.854,148.877c-0.145,0.45-0.324,0.864-0.521,1.261h7.4v0.612
		c-0.217,0.9-0.523,1.765-0.9,2.61l-0.938-0.27c0.343-0.612,0.613-1.314,0.829-2.071h-3.386c-0.09,0.469-0.215,0.919-0.359,1.314
		c0.973,1.494,2.845,2.521,5.653,3.062l-0.342,0.846c-2.701-0.54-4.609-1.566-5.69-3.079c-0.252,0.396-0.539,0.774-0.863,1.099
		c-0.883,0.828-2.323,1.477-4.304,1.944l-0.378-0.882c1.818-0.396,3.133-0.937,3.943-1.656c0.72-0.648,1.188-1.531,1.422-2.647
		h-2.629c-0.486,0.685-1.08,1.297-1.801,1.837l-0.594-0.774c1.242-0.9,2.07-2.017,2.503-3.312L500.854,148.877z M508.29,164.488
		l-0.522,0.81c-2.07-1.008-4.195-1.801-6.373-2.377l0.504-0.737C504.238,162.795,506.363,163.569,508.29,164.488z"/>
</g>
<g enable-background="new    ">
	<path fill="#666666" d="M611.799,79.604h6.662v0.954h-13.468v4.214c-0.055,3.943-0.685,7.094-1.891,9.471l-0.811-0.738
		c1.099-2.089,1.675-5.006,1.729-8.732v-5.168h6.752c-0.324-0.648-0.666-1.225-1.062-1.765l1.062-0.18
		C611.133,78.235,611.475,78.884,611.799,79.604z M613.131,92.441c1.152-2.593,2.161-5.815,3.025-9.669l0.954,0.271
		c-0.774,3.547-1.746,6.68-2.935,9.398h4.015v0.954h-12.621v-0.954H613.131z M609.26,90.281l-0.918,0.252
		c-0.504-2.287-1.135-4.483-1.891-6.608l0.847-0.288C608.018,85.581,608.684,87.796,609.26,90.281z M612.483,89.236l-0.919,0.234
		c-0.432-2.358-0.972-4.627-1.62-6.806l0.847-0.288C611.438,84.375,611.997,86.662,612.483,89.236z"/>
	<path fill="#666666" d="M602.886,107.759c0.217-0.072,0.324-0.198,0.324-0.378V97.334h0.973v10.064
		c1.044-0.288,2.053-0.63,3.061-1.008V95.894h0.955v16.259h-0.955v-4.808c-1.296,0.468-2.664,0.9-4.069,1.261L602.886,107.759z
		 M609.386,104.086l-0.594-0.721c1.513-1.891,2.521-4.429,3.061-7.616l0.973,0.181c-0.18,0.972-0.396,1.89-0.648,2.736h6.266v0.954
		h-1.674c-0.108,3.025-0.864,5.636-2.232,7.797c1.224,1.512,2.646,2.881,4.303,4.087l-0.666,0.774
		c-1.639-1.207-3.043-2.539-4.231-4.016c-1.188,1.566-2.755,2.881-4.699,3.926l-0.559-0.883c1.963-1.008,3.512-2.269,4.664-3.799
		c-1.152-1.549-2.071-3.241-2.791-5.078C610.196,103.041,609.8,103.581,609.386,104.086z M611.133,101.385
		c0.72,1.927,1.656,3.673,2.809,5.239c1.188-1.98,1.818-4.321,1.891-7.004h-3.961C611.637,100.25,611.385,100.845,611.133,101.385z"
		/>
	<path fill="#666666" d="M611.799,115.604h6.662v0.954h-13.468v4.214c-0.055,3.943-0.685,7.094-1.891,9.471l-0.811-0.738
		c1.099-2.089,1.675-5.006,1.729-8.732v-5.168h6.752c-0.324-0.648-0.666-1.225-1.062-1.765l1.062-0.18
		C611.133,114.235,611.475,114.884,611.799,115.604z M613.131,128.441c1.152-2.593,2.161-5.815,3.025-9.669l0.954,0.271
		c-0.774,3.547-1.746,6.68-2.935,9.398h4.015v0.954h-12.621v-0.954H613.131z M609.26,126.281l-0.918,0.252
		c-0.504-2.287-1.135-4.483-1.891-6.608l0.847-0.288C608.018,121.581,608.684,123.796,609.26,126.281z M612.483,125.236
		l-0.919,0.234c-0.432-2.358-0.972-4.627-1.62-6.806l0.847-0.288C611.438,120.375,611.997,122.662,612.483,125.236z"/>
	<path fill="#666666" d="M607.315,132.073c-0.396,1.242-0.882,2.431-1.458,3.547v12.658h-0.973v-10.947
		c-0.72,1.116-1.513,2.179-2.413,3.169l-0.323-1.009c1.98-2.305,3.385-4.915,4.249-7.832L607.315,132.073z M614.968,135.818v-3.979
		h0.973v3.979h2.664v0.973h-2.664v9.578c0,1.152-0.522,1.729-1.549,1.729h-2.575l-0.216-0.936c0.847,0.035,1.656,0.071,2.449,0.071
		c0.612,0,0.918-0.378,0.918-1.116v-9.326h-7.148v-0.973H614.968z M612.573,143.309l-0.828,0.576
		c-0.793-1.332-1.873-2.809-3.241-4.43l0.792-0.504C610.719,140.607,611.816,142.066,612.573,143.309z"/>
	<path fill="#666666" d="M610.988,150.596v0.9h-8.444v-0.9H610.988z M608.126,166.116l-0.234-0.883l1.314,0.055
		c0.36,0,0.559-0.181,0.559-0.522v-6.05h-6.015v7.508h-0.864v-8.354h7.761v7.076c0,0.774-0.396,1.171-1.152,1.171H608.126z
		 M609.927,152.882v3.709h-6.303v-3.709H609.927z M609.044,153.692h-4.537v2.106h4.537V153.692z M606.974,161.902
		c0.36-0.792,0.666-1.62,0.937-2.521l0.72,0.271c-0.271,0.828-0.576,1.584-0.918,2.25h1.314v0.774h-1.873v3.35h-0.828v-3.35h-1.818
		v-0.774H606.974z M606.343,161.524l-0.666,0.181c-0.216-0.685-0.504-1.333-0.828-1.945l0.666-0.216
		C605.821,160.12,606.091,160.786,606.343,161.524z M614.283,153.08v-3.205h0.919v3.205h2.629v6.914h-2.629v4.394
		c0.702-0.145,1.386-0.288,2.034-0.45c-0.234-0.828-0.486-1.621-0.774-2.377l0.774-0.252c0.522,1.332,0.99,2.845,1.387,4.573
		l-0.828,0.216l-0.324-1.314c-1.837,0.433-3.781,0.811-5.87,1.135L611.385,165c0.99-0.126,1.963-0.271,2.898-0.433v-4.573h-2.628
		v-6.914H614.283z M614.319,153.944h-1.8v5.186h1.8V153.944z M616.984,153.944h-1.818v5.186h1.818V153.944z"/>
	<path fill="#666666" d="M606.775,172.305c-0.9,0.954-2.017,1.854-3.349,2.683l-0.648-0.738c1.368-0.811,2.503-1.675,3.421-2.61
		L606.775,172.305z M611.097,177.688c-0.252,2.269-0.792,3.816-1.656,4.627c-0.937,0.99-2.989,1.62-6.14,1.873l-0.396-0.883
		c2.881-0.162,4.789-0.685,5.726-1.566c0.828-0.828,1.332-2.196,1.477-4.142L611.097,177.688z M606.541,169.531l-0.521,0.811
		c-0.955-0.576-1.945-1.008-2.953-1.314l0.504-0.738C604.65,168.632,605.641,169.046,606.541,169.531z M616.174,181.182h-0.99v-4.43
		h-9.435v4.537h-0.99v-5.455h11.415V181.182z M610.521,167.875c-0.145,0.45-0.324,0.864-0.522,1.261h7.4v0.612
		c-0.216,0.9-0.522,1.765-0.9,2.61l-0.937-0.27c0.343-0.612,0.612-1.314,0.829-2.071h-3.386c-0.09,0.469-0.216,0.919-0.359,1.314
		c0.972,1.494,2.845,2.521,5.653,3.062l-0.342,0.846c-2.701-0.54-4.609-1.566-5.69-3.079c-0.252,0.396-0.54,0.774-0.864,1.099
		c-0.882,0.828-2.322,1.477-4.303,1.944l-0.378-0.882c1.818-0.396,3.133-0.937,3.942-1.656c0.721-0.648,1.188-1.531,1.423-2.647
		h-2.629c-0.486,0.685-1.08,1.297-1.801,1.837l-0.594-0.774c1.242-0.9,2.07-2.017,2.503-3.312L610.521,167.875z M617.957,183.486
		l-0.522,0.81c-2.07-1.008-4.195-1.801-6.374-2.377l0.504-0.737C613.905,181.793,616.03,182.567,617.957,183.486z"/>
</g>
</svg>
