<?xml version="1.0" encoding="utf-8"?>
<!-- Generator: Adobe Illustrator 17.0.0, SVG Export Plug-In . SVG Version: 6.00 Build 0)  -->
<!DOCTYPE svg PUBLIC "-//W3C//DTD SVG 1.1//EN" "http://www.w3.org/Graphics/SVG/1.1/DTD/svg11.dtd">
<svg version="1.1" id="图层_1" xmlns="http://www.w3.org/2000/svg" xmlns:xlink="http://www.w3.org/1999/xlink" x="0px" y="0px"
	 width="1920px" height="640.5px" viewBox="0 0 1920 640.5" enable-background="new 0 0 1920 640.5" xml:space="preserve">
<radialGradient id="SVGID_1_" cx="-119" cy="-175.5575" r="707.1092" gradientTransform="matrix(1 0 0 1.1437 1079 524.6631)" gradientUnits="userSpaceOnUse">
	<stop  offset="0" style="stop-color:#E3EFF9;stop-opacity:0.2"/>
	<stop  offset="1" style="stop-color:#E3EFF9"/>
</radialGradient>
<rect y="3.628" opacity="0.5" fill="url(#SVGID_1_)" enable-background="new    " width="1920" height="640.5"/>
<rect display="none" opacity="0.5" fill="#E3EFF9" enable-background="new    " width="1920" height="560"/>
<g display="none">
	
		<text transform="matrix(1 0 0 1 425.9167 399.9674)" display="inline" fill="#999999" font-family="'PingFangSC-Light-83pv-RKSJ-H'" font-size="22">优质资产首发  </text>
	
		<text transform="matrix(1 0 0 1 591.6511 399.9673)" display="inline" fill="#999999" font-family="'PingFangSC-Light-83pv-RKSJ-H'" font-size="22">银行合规托管 </text>
	
		<text transform="matrix(1 0 0 1 756.875 399.9669)" display="inline" fill="#999999" font-family="'PingFangSC-Light-83pv-RKSJ-H'" font-size="22">资金流向监测 </text>
	
		<text transform="matrix(1 0 0 1 919.9479 399.9669)" display="inline" fill="#999999" font-family="'PingFangSC-Light-83pv-RKSJ-H'" font-size="22">CFCA安全保障</text>
	<circle display="inline" fill="#FC6A4F" cx="413" cy="393.466" r="3"/>
	<circle display="inline" fill="#FC6A4F" cx="580.144" cy="393.466" r="3"/>
	<circle display="inline" fill="#FC6A4F" cx="744.875" cy="393.466" r="3"/>
	<circle display="inline" fill="#FC6A4F" cx="908.833" cy="393.466" r="3"/>
</g>
<rect y="23.5" fill="none" width="1920" height="560"/>
<polygon fill="#60AA31" points="1291.68,505.965 1271.588,500.283 1287.114,496.528 "/>
<polygon fill="#04B8B7" points="1420.723,198.618 1419.667,218.175 1399.756,200.753 "/>
<polygon fill="#04B8B7" points="649.105,169.934 667.7,182.16 641.787,189.047 "/>
<polygon fill="#7ACC44" points="450.627,343.181 445.601,325.409 464.271,339.231 "/>
<polygon fill="#6EB540" points="1269.479,169.119 1243.634,161.809 1263.605,156.979 "/>
<polygon fill="#6EB540" points="1391.191,471.141 1374.986,452.063 1399.294,444.517 "/>
<g>
	<polygon fill="#54A520" points="621.234,482.015 629.663,502.008 615.793,499.021 	"/>
	<polygon fill="#60AA31" points="636.013,476.913 629.663,502.008 621.234,482.015 	"/>
	<polygon fill="#7ACC44" points="626.336,468.75 636.013,476.913 621.234,482.015 	"/>
	<polygon fill="#6EB540" points="621.234,482.015 601.845,482.053 626.336,468.75 	"/>
	<polygon fill="#387C0D" points="613.94,507.449 601.845,482.053 615.793,499.021 	"/>
	<polygon fill="#489318" points="615.793,499.021 601.845,482.053 621.234,482.015 	"/>
</g>
<g>
	<path fill="none" stroke="#60AA31" stroke-miterlimit="10" d="M570.883,382.264c-2.609-4.338-7.47-7.016-12.81-7.016
		c-3.555,0-6.984,1.208-9.662,3.401c-2.43,1.99-4.09,4.664-4.736,7.603c-3.821,1.035-6.508,4.329-6.508,8.127
		c0,4.209,3.191,7.841,7.51,8.462h0.142h25.247c6.057,0,10.981-4.62,10.981-10.304C581.05,387.114,576.555,382.658,570.883,382.264
		L570.883,382.264L570.883,382.264L570.883,382.264z"/>
	<polygon fill="none" stroke="#60AA31" stroke-miterlimit="10" points="544.153,386.589 555.511,402.654 571.412,382.146 	"/>
	<circle fill="#60AA31" cx="544.153" cy="386.857" r="2.188"/>
	<circle fill="#60AA31" cx="571.329" cy="382.534" r="2.188"/>
	<circle fill="#60AA31" cx="554.696" cy="402.654" r="2.188"/>
	<circle fill="#60AA31" cx="571.516" cy="402.661" r="2.188"/>
	<line fill="none" stroke="#60AA31" stroke-miterlimit="10" x1="571.329" y1="382.534" x2="571.516" y2="402.661"/>
</g>
<g>
	<path fill="none" stroke="#60AA31" stroke-miterlimit="10" d="M1311.377,239.015c-2.709-4.505-7.756-7.285-13.301-7.285
		c-3.691,0-7.252,1.254-10.033,3.531c-2.524,2.066-4.247,4.843-4.917,7.895c-3.968,1.074-6.758,4.495-6.758,8.438
		c0,4.37,3.313,8.142,7.798,8.786h0.147h26.216c6.29,0,11.402-4.797,11.402-10.7
		C1321.934,244.051,1317.267,239.424,1311.377,239.015L1311.377,239.015L1311.377,239.015L1311.377,239.015z"/>
	<polygon fill="none" stroke="#60AA31" stroke-miterlimit="10" points="1283.622,243.506 1295.415,260.187 1311.926,238.892 	"/>
	<circle fill="#60AA31" cx="1283.622" cy="243.784" r="2.272"/>
	<circle fill="#60AA31" cx="1311.84" cy="239.295" r="2.272"/>
	<circle fill="#60AA31" cx="1294.569" cy="260.187" r="2.272"/>
	<circle fill="#60AA31" cx="1312.034" cy="260.194" r="2.272"/>
	<line fill="none" stroke="#60AA31" stroke-miterlimit="10" x1="1311.84" y1="239.295" x2="1312.034" y2="260.194"/>
</g>
<path fill="#6EB540" d="M792.379,435.443c-1.293,0-2.372,0.907-2.64,2.12l-25.971-6.461c-0.067-1.436-1.242-2.583-2.696-2.583
	c-0.448,0-0.864,0.119-1.238,0.313L741.36,404.61c0.547-0.497,0.897-1.207,0.897-2.004c0-1.496-1.212-2.709-2.709-2.709
	c-0.896,0-1.685,0.441-2.179,1.111l-22.015-13.49c0.164-0.349,0.261-0.734,0.261-1.143c0-1.497-1.212-2.709-2.709-2.709
	s-2.709,1.212-2.709,2.709c0,0.852,0.4,1.602,1.017,2.099l-8.657,11.649c-0.441-0.314-0.981-0.503-1.563-0.503
	c-0.798,0-1.503,0.348-2,0.894l-59.442-53.244c0.187-0.24,0.331-0.511,0.43-0.808l42.926,8.594c0,0.014-0.003,0.028-0.003,0.042
	c0,1.498,1.211,2.709,2.709,2.709c1.496,0,2.709-1.212,2.709-2.709c0-1.496-1.213-2.709-2.709-2.709
	c-1.328,0-2.427,0.956-2.66,2.216l-42.866-8.581c0.021-0.133,0.042-0.267,0.042-0.407c0-0.254-0.048-0.497-0.113-0.73l46.471-20.193
	c0.437,0.908,1.358,1.54,2.434,1.54c1.498,0,2.709-1.213,2.709-2.71c0-1.496-1.211-2.709-2.709-2.709
	c-0.619,0-1.183,0.216-1.64,0.566l-44.055-58.451c0.473-0.437,0.783-1.041,0.85-1.72l82.643,2.751
	c0.153,1.35,1.286,2.402,2.68,2.402c1.496,0,2.709-1.213,2.709-2.71c0-1.496-1.213-2.709-2.709-2.709
	c-0.258,0-0.501,0.047-0.736,0.114l-9.326-26.485c0.773-0.183,1.411-0.698,1.768-1.387l40.862,13.977
	c-0.053,0.212-0.088,0.43-0.088,0.658c0,1.496,1.211,2.709,2.709,2.709c1.496,0,2.709-1.213,2.709-2.709
	c0-1.497-1.213-2.709-2.709-2.709c-1.112,0-2.061,0.668-2.48,1.622l-40.83-13.966c0.084-0.261,0.141-0.534,0.141-0.824
	c0-1.497-1.212-2.709-2.709-2.709c-1.496,0-2.709,1.212-2.709,2.709c0,0.191,0.021,0.376,0.06,0.555l-72.247,27.247
	c-0.443-0.893-1.355-1.513-2.418-1.513c-1.267,0-2.318,0.869-2.618,2.04l-82.278-12.28c0.004-0.059,0.018-0.115,0.018-0.174
	c0-0.599-0.201-1.148-0.529-1.596l38.079-33.111c0.487,0.474,1.15,0.769,1.886,0.769c1.497,0,2.709-1.213,2.709-2.71
	c0-1.496-1.212-2.709-2.709-2.709c-1.42,0-2.57,1.095-2.686,2.484h-62.964c-0.116-1.389-1.266-2.484-2.684-2.484
	c-1.498,0-2.709,1.213-2.709,2.709c0,0.798,0.349,1.508,0.899,2.004l-33.085,43.477c-0.436-0.3-0.961-0.476-1.531-0.476
	c-1.498,0-2.709,1.213-2.709,2.709c0,1.497,1.212,2.709,2.709,2.709c0.76,0,1.445-0.315,1.938-0.819l68.623,51.611
	c-0.263,0.418-0.421,0.908-0.421,1.438c0,1.497,1.213,2.71,2.709,2.71c1.034,0,1.919-0.583,2.378-1.432l68.421,29.722
	c-0.078,0.254-0.13,0.515-0.13,0.79c0,1.281,0.889,2.346,2.083,2.632l-8.655,45.981c-0.092-0.007-0.182-0.026-0.275-0.026
	c-1.498,0-2.71,1.212-2.71,2.709s1.212,2.709,2.71,2.709c0.758,0,1.439-0.312,1.933-0.815l38.191,31.645
	c-0.24,0.406-0.388,0.875-0.388,1.38c0,1.497,1.212,2.709,2.709,2.709c1.418,0,2.568-1.094,2.685-2.484h52.339
	c0.117,1.39,1.269,2.484,2.687,2.484c0.589,0,1.128-0.191,1.573-0.511l7.969,9.366c-0.446,0.483-0.725,1.122-0.725,1.832
	c0,1.498,1.212,2.71,2.709,2.71c1.089,0,2.02-0.646,2.452-1.572l34.913,10.701c-0.016,0.117-0.035,0.231-0.035,0.353
	c0,1.498,1.212,2.709,2.709,2.709c1.496,0,2.709-1.212,2.709-2.709c0-1.05-0.603-1.945-1.473-2.397l10.331-14.466
	c0.371,0.189,0.783,0.305,1.226,0.305c1.498,0,2.709-1.213,2.709-2.709C795.089,436.656,793.877,435.443,792.379,435.443z
	 M759.45,429.069c-0.656,0.496-1.087,1.274-1.087,2.159c0,0.28,0.053,0.545,0.132,0.797l-16.785,11.584
	c-0.449-0.601-1.144-1.002-1.936-1.069v-37.246c0.449-0.039,0.87-0.176,1.229-0.408L759.45,429.069z M737.899,443.091l-7.955-9.351
	c0.487-0.488,0.787-1.164,0.787-1.91c0-1.064-0.621-1.976-1.514-2.419l9.555-24.221c0.178,0.053,0.361,0.087,0.55,0.104v37.246
	C738.787,442.586,738.301,442.78,737.899,443.091z M672.289,429.992l27.06-25.524c0.457,0.353,1.023,0.57,1.646,0.57
	c1.323,0,2.42-0.951,2.656-2.207h33.21c0.081,0.966,0.662,1.785,1.488,2.194l-9.553,24.221c-0.247-0.074-0.505-0.127-0.776-0.127
	c-1.418,0-2.57,1.095-2.687,2.483h-52.339C672.944,430.984,672.688,430.422,672.289,429.992z M711.589,388.728
	c0.392,0.219,0.836,0.356,1.318,0.356c0.926,0,1.737-0.465,2.228-1.171l22.002,13.482c-0.151,0.302-0.247,0.633-0.275,0.986h-33.164
	c0-0.017,0.007-0.034,0.007-0.051c0-0.75-0.305-1.427-0.797-1.917L711.589,388.728z M639.862,344.462
	c-0.434-0.917-1.362-1.555-2.441-1.555c-0.293,0-0.572,0.06-0.836,0.145l-12.792-29.679c0.621-0.413,1.051-1.075,1.169-1.843
	l61.275,11.768c-0.007,0.076-0.025,0.149-0.025,0.227c0,0.26,0.049,0.507,0.118,0.746L639.862,344.462z M566.718,313.461
	c-0.049-0.349-0.159-0.674-0.328-0.968l72.894-49.871c0.254,0.317,0.571,0.577,0.942,0.755l-17.156,45.155
	c-0.247-0.074-0.504-0.126-0.776-0.126c-1.365,0-2.483,1.013-2.67,2.328L566.718,313.461z M686.944,321.683
	c-0.3,0.325-0.522,0.723-0.635,1.167L625,311.076c-0.014-1.048-0.628-1.943-1.508-2.379l17.157-45.161
	c0.24,0.069,0.487,0.117,0.748,0.117c0.545,0,1.051-0.165,1.476-0.442L686.944,321.683z M716.196,232.931
	c0.395,1.006,1.369,1.721,2.515,1.721c0.06,0,0.113-0.013,0.171-0.017l9.357,26.577c-0.871,0.415-1.482,1.278-1.534,2.295
	l-82.618-2.75c-0.014-0.205-0.051-0.402-0.107-0.591L716.196,232.931z M638.709,260.72c-0.007,0.075-0.021,0.146-0.021,0.223
	c0,0.475,0.132,0.916,0.346,1.304l-72.897,49.874c-0.497-0.609-1.245-1.005-2.092-1.005c-0.064,0-0.124,0.015-0.187,0.019
	l-9.412-60.688c0.988-0.238,1.761-1.014,1.995-2.006L638.709,260.72z M530.305,211.398h62.964c0.042,0.51,0.218,0.98,0.508,1.37
	l-38.078,33.112c-0.49-0.475-1.154-0.769-1.888-0.769c-0.508,0-0.977,0.148-1.381,0.39l-23.062-32.273
	C529.896,212.777,530.245,212.131,530.305,211.398z M526.167,213.452c0.42,0.268,0.917,0.429,1.454,0.429
	c0.504,0,0.974-0.148,1.379-0.39l23.064,32.273c-0.586,0.497-0.963,1.229-0.963,2.056c0,0.086,0.018,0.168,0.025,0.251l-57.28,10.26
	c-0.113-0.542-0.388-1.021-0.772-1.392L526.167,213.452z M493.419,260.427c0.303-0.438,0.485-0.968,0.485-1.542
	c0-0.035-0.009-0.069-0.011-0.104l57.308-10.265c0.309,1.156,1.353,2.013,2.609,2.013c0.064,0,0.124-0.015,0.187-0.02l9.412,60.689
	c-0.543,0.132-1.018,0.426-1.378,0.829L493.419,260.427z M566.602,314.689c0.081-0.246,0.134-0.505,0.145-0.777l52.846-2.724
	c0.041,1.462,1.231,2.637,2.702,2.637c0.394,0,0.762-0.087,1.101-0.237l12.774,29.639c-0.501,0.261-0.906,0.674-1.161,1.18
	L566.602,314.689z M637.243,348.307c0.058,0.003,0.116,0.018,0.178,0.018c0.705,0,1.344-0.275,1.827-0.72l59.467,53.266
	c-0.243,0.379-0.388,0.822-0.416,1.3l-67.729-5.276c-0.007-1.238-0.847-2.269-1.988-2.586L637.243,348.307z M630.084,398.458
	c0.229-0.325,0.381-0.704,0.444-1.113l67.786,5.279c0.067,0.593,0.314,1.127,0.699,1.542l-27.061,25.524
	c-0.457-0.349-1.021-0.568-1.64-0.568c-0.829,0-1.559,0.379-2.057,0.963L630.084,398.458z M742.15,445.938
	c0.063-0.228,0.107-0.462,0.107-0.711c0-0.446-0.118-0.86-0.308-1.233l16.72-11.539c0.449,0.878,1.349,1.483,2.404,1.483
	c0.551,0,1.062-0.168,1.49-0.45l14.893,22.274c-0.199,0.256-0.349,0.545-0.448,0.861L742.15,445.938z M780.394,454.845
	c-0.258-0.081-0.526-0.136-0.808-0.136c-0.702,0-1.337,0.274-1.817,0.711l-14.853-22.218c0.453-0.42,0.752-0.995,0.83-1.64
	l25.936,6.454c0,0.046-0.012,0.09-0.012,0.136c0,0.891,0.436,1.676,1.099,2.167L780.394,454.845z"/>
<path fill="#6EB540" d="M1464.381,350.422c-0.583,0-1.124,0.182-1.571,0.49l-26.802-32.623c0.526-0.503,0.856-1.209,0.856-1.995
	c0-1.529-1.237-2.767-2.767-2.767c-0.589,0-1.133,0.188-1.584,0.503l-17.629-21.537c0.378-0.473,0.612-1.064,0.612-1.716
	c0-1.529-1.239-2.767-2.767-2.767c-1.236,0-2.266,0.812-2.623,1.927l-67.876-1.462c-0.079-1.457-1.275-2.617-2.752-2.617
	c-1.528,0-2.767,1.238-2.767,2.767s1.239,2.767,2.767,2.767c0.094,0,0.184-0.018,0.274-0.028l23.646,42.147
	c-0.892,0.403-1.521,1.266-1.607,2.285H1309.4c-0.119-1.418-1.293-2.536-2.742-2.536c-0.623,0-1.192,0.214-1.654,0.56
	l-27.707-31.148c0.472-0.496,0.768-1.164,0.768-1.903c0-1.529-1.239-2.767-2.767-2.767c-0.602,0-1.153,0.196-1.607,0.521
	l-27.765-32.664c0.292-0.438,0.462-0.961,0.462-1.526c0-1.529-1.239-2.767-2.767-2.767c-0.818,0-1.547,0.363-2.054,0.928
	l-71.602-33.97c0.112-0.303,0.184-0.627,0.184-0.97c0-1.529-1.239-2.767-2.767-2.767c-1.53,0-2.767,1.239-2.767,2.767
	c0,0.806,0.349,1.525,0.899,2.03l-23.198,29.898c-0.446-0.308-0.983-0.49-1.567-0.49c-1.53,0-2.767,1.238-2.767,2.767
	c0,0.163,0.02,0.32,0.047,0.475l-18.418,3.11c-0.331-1.159-1.387-2.012-2.652-2.012c-1.528,0-2.767,1.238-2.767,2.767
	c0,1.528,1.239,2.767,2.767,2.767c0.709,0,1.347-0.274,1.837-0.711l15.151,14.905c-0.378,0.473-0.616,1.065-0.616,1.719
	c0,1.529,1.239,2.767,2.767,2.767c1.53,0,2.768-1.238,2.768-2.767c0-0.207-0.025-0.408-0.068-0.603l43.848-13.331
	c0.396,1.043,1.398,1.788,2.58,1.788c1.528,0,2.767-1.238,2.767-2.767c0-0.032-0.008-0.062-0.011-0.094l52.88-5.356
	c0.032,1.052,0.652,1.949,1.542,2.389l-23.761,54.272c-0.353-0.163-0.742-0.26-1.155-0.26c-1.529,0-2.767,1.239-2.767,2.767
	c0,1.529,1.238,2.767,2.767,2.767c1.53,0,2.767-1.239,2.767-2.767c0-0.239-0.039-0.468-0.095-0.688l52.672-20.902
	c0.144,0.288,0.33,0.55,0.562,0.771l-53.558,66.47c-0.403-0.227-0.861-0.368-1.355-0.368c-1.261,0-2.315,0.848-2.648,2.003
	l-29.919-2.039c-0.02-1.513-1.246-2.731-2.763-2.731c-1.528,0-2.767,1.238-2.767,2.767c0,0.591,0.191,1.138,0.508,1.589
	l-17.427,15.201c-0.506-0.582-1.243-0.957-2.075-0.957c-1.529,0-2.767,1.238-2.767,2.767c0,1.53,1.238,2.767,2.767,2.767
	c0.937,0,1.766-0.47,2.264-1.184l18.442,8.325c-0.162,0.355-0.261,0.744-0.261,1.161c0,1.529,1.238,2.767,2.768,2.767
	c0.135,0,0.264-0.02,0.394-0.04v24.005c-1.42,0.119-2.536,1.293-2.536,2.744c0,1.53,1.239,2.767,2.767,2.767
	c0.877,0,1.65-0.416,2.158-1.054l36.671,24.439l-62.045-9.047c0.003-0.058,0.016-0.112,0.016-0.169c0-1.528-1.237-2.767-2.767-2.767
	c-1.528,0-2.767,1.239-2.767,2.767c0,1.53,1.239,2.767,2.767,2.767c1.315,0,2.407-0.915,2.692-2.14l62.999,9.186l0.145,0.095
	l38.348-53.947c0.413,0.245,0.89,0.395,1.403,0.395c0.98,0,1.836-0.513,2.327-1.281l50.861,26.792
	c-0.092,0.274-0.153,0.564-0.153,0.868c0,1.53,1.237,2.767,2.767,2.767s2.767-1.237,2.767-2.767c0-0.353-0.074-0.688-0.193-0.998
	l31.353-20.8c0.508,0.611,1.265,1.009,2.122,1.009c1.528,0,2.767-1.239,2.767-2.767c0-1.02-0.558-1.899-1.376-2.38l37.276-71.374
	c0.328,0.139,0.692,0.216,1.07,0.216c1.106,0,2.053-0.652,2.496-1.59l62.797,23.442c-0.065,0.238-0.112,0.487-0.112,0.746
	c0,1.527,1.238,2.767,2.767,2.767c1.528,0,2.767-1.24,2.767-2.767C1467.148,351.659,1465.908,350.422,1464.381,350.422z
	 M1431.329,316.294c0,0.139,0.02,0.272,0.041,0.405l-32.376,10.085c-0.241-0.599-0.692-1.084-1.258-1.388l13.9-32.077
	c0.335,0.143,0.703,0.224,1.092,0.224c0.706,0,1.348-0.274,1.838-0.712l17.589,21.491
	C1431.648,314.824,1431.329,315.521,1431.329,316.294z M1411.23,293.098l-13.916,32.115c-0.279-0.095-0.571-0.157-0.88-0.157
	c-0.868,0-1.636,0.41-2.144,1.038l-52.729-35.666c0.357-0.411,0.587-0.924,0.652-1.493l67.786,1.46
	c-0.016,0.125-0.036,0.25-0.036,0.381C1409.962,291.751,1410.47,292.605,1411.23,293.098z M1340.23,291.274
	c0.367-0.105,0.702-0.282,0.991-0.518l52.808,35.72c-0.223,0.401-0.364,0.856-0.364,1.347c0,0.162,0.021,0.318,0.049,0.473
	l-26.541,6.941c-0.339-1.141-1.385-1.979-2.637-1.979c-0.242,0-0.472,0.041-0.695,0.098L1340.23,291.274z M1356.609,401.367
	c-0.609,0.02-1.162,0.238-1.611,0.588l-46.539-63.847c0.531-0.459,0.879-1.112,0.94-1.854h52.391
	c0.119,1.405,1.272,2.511,2.702,2.533L1356.609,401.367z M1264.844,395.771c-0.935,0-1.757,0.467-2.257,1.173l-41.506-24.4
	c0.101-0.285,0.165-0.587,0.165-0.908c0-0.398-0.086-0.775-0.238-1.115l83.185-33.261c0.18,0.359,0.434,0.67,0.746,0.919
	l-38.76,57.948C1265.782,395.906,1265.332,395.771,1264.844,395.771z M1165.875,229.87c0.432,0.283,0.948,0.45,1.506,0.45
	c0.299,0,0.584-0.061,0.854-0.149l15.724,37.246c-0.674,0.349-1.18,0.96-1.388,1.704l-39.11-6.834
	c0.032-0.172,0.054-0.349,0.054-0.53c0-0.779-0.324-1.481-0.843-1.983L1165.875,229.87z M1138.151,262.682
	c0.288,0.813,0.941,1.444,1.769,1.704l-3.578,17.651c-0.083-0.007-0.162-0.024-0.245-0.024c-0.706,0-1.347,0.274-1.837,0.712
	l-15.147-14.904c0.378-0.474,0.612-1.067,0.612-1.72c0-0.104-0.018-0.202-0.029-0.302L1138.151,262.682z M1138.659,283.736
	c-0.326-0.799-1.016-1.403-1.863-1.624l3.572-17.624c0.124,0.017,0.25,0.038,0.38,0.038c1.182,0,2.187-0.747,2.58-1.792
	l39.157,6.842c-0.011,0.096-0.029,0.191-0.029,0.291c0,0.184,0.02,0.363,0.054,0.537L1138.659,283.736z M1185.224,267.1
	c-0.295,0-0.573,0.059-0.838,0.143l-15.725-37.25c0.461-0.242,0.841-0.605,1.102-1.054l71.519,33.93
	c-0.203,0.321-0.335,0.688-0.389,1.081l-52.958,5.363C1187.677,268.05,1186.564,267.1,1185.224,267.1z M1220.01,322.458
	c-0.211-0.468-0.545-0.87-0.964-1.158l23.785-54.329c0.252,0.074,0.512,0.128,0.789,0.128c0.796,0,1.506-0.339,2.01-0.876
	l27.703,32.593c-0.497,0.5-0.803,1.189-0.803,1.951c0,0.279,0.054,0.544,0.13,0.798L1220.01,322.458z M1273.746,303.06
	c0.441,0.299,0.975,0.475,1.551,0.475c0.623,0,1.19-0.214,1.654-0.561l27.703,31.149c-0.472,0.496-0.764,1.164-0.764,1.901
	c0,0.283,0.054,0.55,0.133,0.807l-83.237,33.28c-0.157-0.234-0.352-0.438-0.571-0.616L1273.746,303.06z M1216.065,372.964
	l-29.231,23.954c-0.379-0.519-0.929-0.901-1.575-1.059l-1.769-24.259c1.225-0.151,2.194-1.095,2.382-2.31l29.872,2.038
	c-0.013,0.103-0.032,0.202-0.032,0.308C1215.712,372.119,1215.847,372.569,1216.065,372.964z M1163.879,388.649
	c0.169-0.361,0.274-0.757,0.274-1.18c0-0.529-0.158-1.018-0.414-1.439l17.442-15.215c0.476,0.479,1.128,0.778,1.848,0.809
	l1.762,24.167c-0.065-0.004-0.126-0.02-0.193-0.02c-0.948,0-1.782,0.477-2.281,1.201L1163.879,388.649z M1187.366,398.538
	c0-0.438-0.112-0.849-0.294-1.216l29.249-23.972c0.508,0.636,1.281,1.054,2.158,1.054c1.041,0,1.938-0.584,2.41-1.434l41.469,24.374
	c-0.175,0.365-0.281,0.764-0.281,1.195c0,0.257,0.045,0.501,0.112,0.737l-74.466,27.568c-0.409-0.874-1.261-1.49-2.268-1.573
	v-24.115C1186.56,400.794,1187.366,399.764,1187.366,398.538z M1224.975,454.225l-37.339-24.88c0.218-0.396,0.355-0.847,0.355-1.331
	c0-0.257-0.047-0.501-0.112-0.737l74.466-27.568c0.169,0.362,0.418,0.676,0.721,0.931L1224.975,454.225z M1267.391,399.619
	c0.143-0.332,0.22-0.697,0.22-1.081c0-0.876-0.415-1.647-1.05-2.153l38.761-57.95c0.4,0.22,0.851,0.357,1.337,0.357
	c0.065,0,0.126-0.014,0.187-0.018l13.256,86.199c-0.823,0.164-1.502,0.7-1.886,1.417L1267.391,399.619z M1323.011,426.269
	c-0.482-0.807-1.357-1.353-2.365-1.353c-0.03,0-0.058,0.009-0.088,0.011l-13.256-86.219c0.281-0.068,0.546-0.18,0.787-0.328
	l46.567,63.888c-0.447,0.49-0.728,1.139-0.728,1.859c0,0.505,0.144,0.972,0.382,1.38L1323.011,426.269z M1357.672,401.546
	c-0.191-0.074-0.392-0.12-0.602-0.149l7.89-62.649c1.326-0.205,2.342-1.34,2.342-2.724c0-0.115-0.021-0.223-0.036-0.335
	l26.568-6.948c0.209,0.588,0.602,1.085,1.12,1.414L1357.672,401.546z M1399.088,328.567c0.065-0.238,0.112-0.485,0.112-0.744
	c0-0.206-0.025-0.405-0.068-0.599l32.347-10.075c0.36,1.106,1.391,1.912,2.618,1.912c0.576,0,1.112-0.177,1.554-0.478l26.803,32.625
	c-0.236,0.228-0.425,0.501-0.569,0.803L1399.088,328.567z"/>
<polygon fill="#8DD836" points="1064.868,358.426 1064.868,325.549 1089.117,321.44 "/>
<circle fill="#333333" cx="1054.149" cy="363.789" r="1.605"/>
<radialGradient id="SVGID_2_" cx="-117.705" cy="-197.7055" r="236.1398" gradientTransform="matrix(1 0 0 1 1079 532)" gradientUnits="userSpaceOnUse">
	<stop  offset="0" style="stop-color:#029400"/>
	<stop  offset="0.1782" style="stop-color:#059503"/>
	<stop  offset="0.3105" style="stop-color:#0E990C"/>
	<stop  offset="0.4279" style="stop-color:#1EA01D"/>
	<stop  offset="0.5369" style="stop-color:#35A933"/>
	<stop  offset="0.6399" style="stop-color:#52B651"/>
	<stop  offset="0.7385" style="stop-color:#76C575"/>
	<stop  offset="0.8336" style="stop-color:#A0D79F"/>
	<stop  offset="0.9234" style="stop-color:#D0EBD0"/>
	<stop  offset="1" style="stop-color:#FFFFFF"/>
</radialGradient>
<path opacity="0.7" fill="url(#SVGID_2_)" enable-background="new    " d="M725.156,334.293
	c0-130.415,105.724-236.139,236.139-236.139s236.139,105.724,236.139,236.139c0,130.419-105.723,236.142-236.139,236.142
	S725.156,464.712,725.156,334.293z"/>
<path fill="#FFFFFF" d="M762.33,334.294c0-109.884,89.079-198.963,198.965-198.963c109.887,0,198.966,89.079,198.966,198.963
	c0,109.887-89.079,198.965-198.966,198.965S762.33,444.181,762.33,334.294z"/>
<g>
	<g>
		<g>
			<path fill="#FFFFFF" d="M894.895,240.735v-1.014c0.676-0.161,0.998-0.611,0.966-1.352v-3.911h-1.014v-1.208h2.849v4.587
				c0.032,1.031,0.547,1.562,1.545,1.593h6.76v1.159h-6.953c-0.934,0-1.61-0.29-2.028-0.869
				C896.601,240.269,895.893,240.607,894.895,240.735z M896.151,232.382c-0.161-0.837-0.403-1.642-0.724-2.414h1.594
				c0.354,0.644,0.628,1.449,0.821,2.414H896.151z M898.131,235.086l3.003-3.573h-2.858v-1.207h6.278
				c-0.097,1.481-0.145,2.994-0.145,4.539c0.064,1.964,0.225,2.866,0.483,2.704c0.193,0,0.29-0.225,0.29-0.676h1.014
				c0.031,1.256-0.386,1.868-1.256,1.835c-1.352,0.193-2.076-1.191-2.173-4.152c-0.065-1.223-0.081-2.237-0.048-3.042h-0.837
				l-0.99,2.366h1.586l-3.324,4.692l0.66-3.485h-1.683L898.131,235.086L898.131,235.086z"/>
			<path fill="#FFFFFF" d="M907.553,240.784v-1.014c0.74-0.161,1.094-0.628,1.062-1.401v-3.911h-1.111v-1.159h2.897v4.587
				c0.032,0.998,0.547,1.514,1.546,1.545h6.664v1.159h-6.905c-0.934,0-1.593-0.29-1.98-0.869
				C909.275,240.333,908.55,240.687,907.553,240.784z M908.856,232.382c-0.161-0.837-0.403-1.642-0.724-2.414h1.593
				c0.387,0.773,0.676,1.578,0.869,2.414H908.856z M911.126,232.72v-1.256h2.559v-1.642h1.883v1.642h2.656v1.256h-2.656
				c0.096,2.157,1.046,3.75,2.849,4.781v1.207c-1.803-0.611-3.059-1.594-3.766-2.946c-0.773,1.384-2.061,2.366-3.863,2.946v-1.207
				c1.867-0.87,2.832-2.463,2.897-4.781H911.126z"/>
			<rect x="920.113" y="233.404" fill="#FFFFFF" width="11.106" height="1.256"/>
			<rect x="921.079" y="230.305" fill="#FFFFFF" width="9.127" height="1.256"/>
			<path fill="#FFFFFF" d="M927.33,235.303l0.55,1.292c0,0,0.194-0.363,0.235-0.461c0.59,0.295,0.7,0.763-0.239,1.531
				c1.601-0.318,1.851,1.825-0.093,1.189c-2.365-0.774-4.902,0.12-4.902,0.12l2.537-4.315l-0.135-0.866l-1.887,0.408
				c0,0-1.32,3.26-2.616,4.828c0.347,0.74,0.677,1.444,0.677,1.444s4.361-0.859,6.082-0.312c1.964,0.623,3.259,0.318,3.423-0.923
				c0.257-1.949-1.614-2.241-1.614-2.241s0.632-1.085-0.759-1.458c0.051-0.167,0.179-0.355,0.179-0.355L927.33,235.303z"/>
		</g>
		<g>
			<path fill="#FFFFFF" d="M879.977,213.616c-0.142,0-0.318,0.011-0.53,0.033c-0.065,0-0.149-0.016-0.25-0.049l-0.125,0.049
				c-0.078-0.043-0.197-0.098-0.356-0.163l0.011-0.049c0.002-0.011,0.01-0.022,0.023-0.033h-0.016l-0.069,0.016
				c-0.041-0.011-0.112-0.038-0.211-0.082c-0.076,0-0.197,0.006-0.363,0.016c-0.033,0-0.079-0.011-0.14-0.033
				c-0.063-0.011-0.168,0.022-0.315,0.098l-0.002-0.065h-0.033l-0.042-0.033h-0.033l-0.023,0.033l-0.045-0.016h-0.065
				c-0.037,0.022-0.076,0.049-0.116,0.082l-0.102,0.016l-0.074-0.033c-0.035,0.011-0.232,0.016-0.591,0.016
				c-0.272,0-0.527,0.169-0.764,0.506c-0.199,0.261-0.332,0.544-0.398,0.849c-0.095,0.435,0.012,0.811,0.325,1.127
				c0.304,0.25,0.609,0.501,0.913,0.751c0.252,0.24,0.624,0.626,1.117,1.159c0.235,0.316,0.398,0.865,0.487,1.649
				c0.026,0.327,0.004,0.653-0.068,0.98c-0.114,0.522-0.36,1.072-0.737,1.649c-0.385,0.316-0.596,0.484-0.633,0.506
				c-0.219,0.152-0.465,0.261-0.741,0.327c-0.163,0-0.411,0.038-0.744,0.114l-0.299,0.098c0,0-0.203-0.104-0.3-0.082
				c-0.098,0.022-0.162,0.033-0.195,0.033c-0.03-0.011-0.301,0.053-0.301,0.053s-0.303-0.033-0.517-0.098
				c-1.002-0.098-1.811-0.619-2.429-1.228c0.012-0.055,0.02-0.092,0.025-0.114c-0.02-0.011-0.033-0.027-0.039-0.049
				c-0.009-0.207,0.004-0.316,0.039-0.327c0,0,0.033-0.076,0.082,0l0.085-0.016c0.024-0.011,0.049-0.027,0.076-0.049l-0.002-0.065
				l0.114-0.147c0.006,0.022,0.027,0.049,0.064,0.082l0.045,0.016l0.018-0.082c0.002-0.011-0.003-0.063-0.015-0.155
				s-0.016-0.15-0.011-0.171c0.002-0.011,0.008-0.038,0.018-0.082l-0.013-0.016c0.076,0,0.165,0.141,0.266,0.424
				c0.06,0.174,0.215,0.457,0.467,0.849c0.062,0.065,0.269,0.199,0.412,0.294c0.144,0.094,0.483,0.177,0.52,0.209
				c0.598,0,1.129-0.1,1.747-0.438c0.693-0.381,1.102-0.855,1.226-1.42c0.019-0.087,0.029-0.21,0.031-0.367
				c0.002-0.158,0.011-0.275,0.028-0.351c-0.276-0.479-0.492-0.784-0.648-0.914c-0.308-0.185-0.616-0.37-0.923-0.555
				c-0.126-0.022-0.294-0.076-0.503-0.163c-0.069-0.033-0.125-0.098-0.169-0.196c-0.072-0.12-0.115-0.196-0.129-0.229
				c-0.71-0.784-0.921-1.834-0.632-3.151c0.04-0.185,0.093-0.327,0.158-0.424c0.105-0.381,0.23-0.653,0.375-0.816l-0.026-0.033
				c0.269-0.631,0.757-1.143,1.463-1.535c0.658-0.37,1.324-0.555,1.999-0.555c0.74,0,1.27,0.093,1.588,0.278
				c0.12,0.098,0.321,0.223,0.603,0.376c0.22,0.185,0.366,0.316,0.437,0.392c0.024,0.087,0.087,0.201,0.186,0.343L879.977,213.616z"
				/>
			<path fill="#FFFFFF" d="M885.954,218.997c-0.102,0.463-0.419,0.913-0.953,1.351c-0.05,0-0.102,0.022-0.155,0.066
				c-0.054,0.044-0.093,0.097-0.12,0.16c-0.071,0.038-0.164,0.119-0.279,0.244l-0.098,0.019l-0.034-0.019
				c-0.34,0.526-0.748,0.814-1.222,0.864l-0.268,0.282l-0.209-0.075c-0.246,0.038-0.492,0.075-0.738,0.112
				c-0.284,0.038-0.525,0.113-0.725,0.225c-0.05,0-0.13-0.006-0.24-0.019c-0.11-0.012-0.19-0.019-0.24-0.019
				c-0.028,0.013-0.068,0.025-0.121,0.038c-0.157,0.375-0.302,0.863-0.434,1.464l-0.045,0.206c0,0-0.248,0.532-0.246,0.695
				c-0.163,0.288-0.255,0.707-0.273,0.732c-0.047,0.1-0.363,1.113-0.568,1.652l-0.121,0.038l-0.023-0.15l-0.022-0.248
				c0,0-0.084-0.465-0.092-0.427l-0.377,0.263l0.084-0.469l-0.23,0.019c0,0-0.159,0.526-0.283,0.863l-0.1-0.488
				c0.008-0.038-0.231,0.281-0.251,0.544c0.007-0.088,0.008-0.181,0.005-0.281h-0.038l1.674-7.639
				c0.433-1.977,0.92-3.172,1.462-3.585c0.183-0.038,0.431-0.113,0.744-0.225l0.144,0.113l0.163-0.056l0.05-0.056h0.056
				c0.025,0,0.063,0,0.113,0c0.06,0.013,0.102,0.019,0.127,0.019l0.021,0.075l0.084-0.038c0.062,0,0.146-0.012,0.252-0.038
				l0.044,0.056c0.032,0.025,0.073,0.038,0.123,0.038l0.117,0.15c0.106-0.087,0.292-0.131,0.554-0.131c0.1,0,0.403,0.1,0.91,0.3
				c0.399,0.175,0.689,0.338,0.869,0.488c0.315,0.275,0.569,0.713,0.763,1.314C886.005,218.021,886.053,218.547,885.954,218.997z
				 M883.63,218.81c0.072-0.325-0.035-0.61-0.319-0.854s-0.596-0.366-0.934-0.366c-0.038,0-0.083,0.007-0.135,0.019
				c-0.087,0.113-0.172,0.244-0.255,0.394s-0.279,0.716-0.588,1.699s-0.492,1.605-0.55,1.868c0.254-0.075,0.5-0.169,0.738-0.282
				c0.391-0.188,0.807-0.544,1.248-1.07C883.274,219.692,883.539,219.223,883.63,218.81z"/>
			<path fill="#FFFFFF" d="M893.237,218.509c-0.043,0.196-0.315,0.642-0.816,1.339v-0.147l-0.055-0.049l-0.262-0.294
				c0,0-0.076-0.076-0.208,0.131c-0.001-0.043,0.002-0.082,0.009-0.114c0.005-0.022-0.094-0.19-0.307-0.016
				c0.008-0.087,0.007-0.158-0.003-0.212l-0.043,0.049l0.043-0.196c-0.679,0.12-1.365,0.294-2.057,0.522
				c-0.247,0.087-0.633,0.207-1.156,0.359c-0.078,0.109-0.164,0.376-0.257,0.8c-0.227,1.034-0.065,1.687,0.485,1.959
				c0.171,0.065,0.427,0.163,0.768,0.294c0.279-0.033,0.694-0.163,1.245-0.392c0.601-0.261,1.028-0.419,1.279-0.473l0.056-0.033
				c0.037-0.022,0.104-0.055,0.201-0.098l0.038,0.049c-0.434,0.239-0.795,0.577-1.218,0.816c-0.504,0.261-1.02,0.521-1.416,0.641
				c-0.328,0.055-1.036,0.265-1.492,0.159c-0.829-0.191-1.371-0.547-1.63-1.053c-0.259-0.506-0.289-1.216-0.088-2.131
				c0.165-0.751,0.304-1.263,0.418-1.535c0.271-0.642,0.725-1.295,1.36-1.959c0.717-0.74,1.367-1.148,1.95-1.224
				c-0.003,0.011,0.007,0.016,0.029,0.016c0.406-0.261,0.782-0.392,1.131-0.392c0.577,0,1.086,0.384,1.527,1.151
				C893.21,217.244,893.366,217.922,893.237,218.509z M891.63,218.542c-0.187-0.686-0.505-1.121-0.954-1.306
				c-0.245,0.022-0.52,0.185-0.826,0.49c-0.132,0.055-0.367,0.332-0.705,0.833c-0.124,0.12-0.281,0.316-0.472,0.588
				c0.243-0.065,0.736-0.152,1.478-0.261C890.769,218.798,891.262,218.683,891.63,218.542z"/>
			<path fill="#FFFFFF" d="M900.259,218.509c-0.043,0.196-0.315,0.642-0.816,1.339h-0.033c0.007-0.033-0.022-0.196-0.022-0.196
				l-0.145,0.065c0.013-0.109-0.06-0.37-0.085-0.359c0,0-0.239,0.049-0.232,0.016c0.005-0.022,0.059-0.343,0.059-0.343
				s-0.358,0.169-0.368,0.114l-0.043,0.049l0.043-0.196c-0.679,0.12-1.365,0.294-2.057,0.522c-0.248,0.087-0.633,0.207-1.156,0.359
				c-0.078,0.109-0.164,0.376-0.257,0.8c-0.227,1.034-0.065,1.687,0.485,1.959c0.171,0.065,0.427,0.163,0.768,0.294
				c0.279-0.033,0.694-0.163,1.245-0.392c0.602-0.261,1.028-0.419,1.279-0.473l0.056-0.033c0.037-0.022,0.104-0.055,0.201-0.098
				l0.038,0.049c-0.434,0.239-0.754,0.535-1.176,0.774c-0.504,0.261-1.012,0.477-1.458,0.683c-0.362,0.167-0.98,0.251-1.492,0.159
				c-0.838-0.149-1.371-0.547-1.63-1.053c-0.259-0.506-0.289-1.216-0.088-2.131c0.165-0.751,0.304-1.263,0.418-1.535
				c0.271-0.642,0.725-1.295,1.36-1.959c0.717-0.74,1.367-1.148,1.95-1.224c-0.003,0.011,0.007,0.016,0.029,0.016
				c0.406-0.261,0.782-0.392,1.131-0.392c0.577,0,1.086,0.384,1.527,1.151C900.232,217.244,900.388,217.922,900.259,218.509z
				 M898.652,218.542c-0.187-0.686-0.505-1.121-0.954-1.306c-0.245,0.022-0.52,0.185-0.826,0.49
				c-0.132,0.055-0.367,0.332-0.705,0.833c-0.124,0.12-0.281,0.316-0.472,0.588c0.243-0.065,0.736-0.152,1.478-0.261
				C897.79,218.798,898.283,218.683,898.652,218.542z"/>
			<path fill="#FFFFFF" d="M908.513,211.865c-0.363,0.762-0.683,1.649-0.959,2.661c-0.115,0.424-0.322,1.322-0.623,2.694
				l-0.103,0.245c0,0-0.097,0.441-0.104,0.473c0,0-0.025,0.016-0.004,0.016c-0.007,0.033-0.027,0.087-0.06,0.163
				c-0.033,0.076-0.059,0.234-0.036,0.278l-0.014,0.065l-0.072,0.327l-0.023,0.033c-0.038,0.022-0.141,0.544-0.249,1.437l0.04-0.033
				l-0.095,0.359c-0.076,0.348-0.153,0.843-0.228,1.486c-0.074,0.686-0.215,1.502-0.215,1.502l0.019-0.715l-0.122,0.107
				l-0.003-0.176l-0.185,0.552l-0.028-0.467l-0.084,0.132c-0.016-0.076,0.02-0.432,0.02-0.432s-0.132,0.764-0.173,0.655
				l-0.035-0.404l-0.084,0.258l-0.12,0.163l-0.27,0.114l-0.01-0.18l-0.009-0.033c0.061-0.326,0.056-0.702,0.056-0.702l-0.012-0.539
				c-0.116,0.033-0.608,0.239-1.475,0.62c-0.758,0.327-1.218,0.49-1.381,0.49c-0.022,0-0.111-0.016-0.267-0.049
				c-0.611-0.141-1.008-0.419-1.189-0.833c-0.159-0.37-0.161-0.904-0.008-1.6c0.105-0.479,0.385-1.061,0.84-1.747
				c0.408-0.62,0.82-1.083,1.235-1.388c0.466-0.337,1.025-0.555,1.678-0.653l0.047-0.065c0.037-0.022,0.078-0.033,0.121-0.033
				l0.062,0.016c0.255-0.12,0.466-0.141,0.635-0.065l0.442-0.081c0.095-0.882,0.243-1.78,0.444-2.694
				c0.288-1.317,0.607-2.073,0.954-2.269c0.14-0.043,0.356-0.109,0.647-0.196l0.029,0.016l0.045,0.016l0.054-0.098l0.044,0.098
				l0.038-0.098l0.067,0.065l0.165-0.082l0.013,0.016h0.033c0.033,0,0.045-0.006,0.036-0.016l-0.002,0.082l0.04-0.033
				c0.02-0.043,0.045-0.082,0.074-0.114l0.025,0.033l0.238,0.033C908.448,211.365,908.481,211.561,908.513,211.865z
				 M904.736,221.645c0.001-0.751,0.121-1.818,0.359-3.2c-0.186-0.043-0.241-0.065-0.165-0.065
				c-0.013,0.011-0.031,0.016-0.053,0.016s-0.046,0.011-0.073,0.033l0.006,0.049l-0.045-0.016c-0.024,0.011-0.039,0.027-0.043,0.049
				l-0.038-0.049c-0.052-0.011-0.105-0.016-0.16-0.016l0.002,0.065c-0.283,0-0.474,0.027-0.573,0.082
				c-0.157,0.12-0.321,0.245-0.49,0.376l-0.085,0.016l-0.087,0.098c-0.099,0.055-0.176,0.144-0.231,0.269s-0.105,0.242-0.151,0.351
				c-0.036,0.065-0.125,0.188-0.268,0.367c-0.143,0.18-0.227,0.329-0.253,0.449c-0.012,0.055-0.013,0.109-0.003,0.163
				c-0.091,0.218-0.087,0.443,0.015,0.678c0.101,0.234,0.251,0.394,0.45,0.482c0.123,0.033,0.279,0.092,0.467,0.18
				c0.207,0,0.462-0.057,0.764-0.171C904.382,221.735,904.601,221.667,904.736,221.645z"/>
			<path fill="#FFFFFF" d="M915.131,217.708c-0.089,0.207-0.273,0.452-0.553,0.735c-0.224,0.229-0.448,0.452-0.669,0.669
				c-0.331,0.37-0.827,0.92-1.488,1.649c-0.013,0.011-0.279,0.256-0.798,0.735c-0.317,0.305-0.549,0.566-0.694,0.784
				c-0.059,0.022-0.103,0.049-0.132,0.082c-0.068,0.109-0.168,0.218-0.3,0.327c-0.162,0.141-0.27,0.25-0.325,0.327
				c-0.055,0.076-0.149,0.196-0.283,0.359c-0.013,0.011-0.129,0.114-0.345,0.31c-0.122,0.109-0.198,0.234-0.229,0.376
				c0.024-0.109,0.083-0.229,0.177-0.359l-0.271,0.49h-0.049l-0.166,0.163h0.016c-0.016,0.022-0.036,0.038-0.06,0.049l-0.043,0.049
				c-0.153,0.152-0.287,0.343-0.287,0.343c-0.584,0.479-1.954,2.286-1.954,2.286l0.354-0.666l-0.315,0.193l0.186-0.458
				c0.002-0.011-0.291,0.131-0.291,0.131l0.019-0.327l-0.508,0.561l0.329-0.553l-0.39,0.35l0.557-0.778l0.01-0.167
				c0.548-0.762,0.951-1.312,1.21-1.649c0.46-0.61,0.891-1.137,1.294-1.584c-0.233-0.229-0.418-0.452-0.555-0.669
				c-0.028-0.022-0.14-0.256-0.336-0.702c-0.263-0.588-0.424-0.969-0.484-1.143c-0.087-0.25-0.176-0.664-0.267-1.241
				c-0.053-0.305-0.054-0.571-0.004-0.8c0.019-0.087,0.067-0.18,0.143-0.278l0.04-0.033h0.033l0.035,0.065l0.094-0.131l0.058,0.033
				l0.088-0.18c0.059-0.022,0.116-0.033,0.17-0.033c0.139-0.087,0.344-0.207,0.617-0.359c0.043,0,0.104,0,0.18,0
				c0.368,0.207,0.61,0.62,0.724,1.241c0.07,0.522,0.142,1.039,0.215,1.551c0.077,0.294,0.175,0.74,0.295,1.339
				c0.139-0.141,0.737-0.833,1.793-2.073c0.804-0.936,1.424-1.556,1.861-1.861c0.154-0.109,0.306-0.158,0.456-0.147h0.098
				l-0.011,0.049l-0.021,0.098h0.098l0.031,0.082c-0.013,0.011-0.028,0.027-0.043,0.049l0.009,0.033
				c0.038-0.022,0.091-0.043,0.161-0.065l0.055,0.049l-0.067,0.082c0.063,0.011,0.114,0.027,0.152,0.049l0.018,0.065l0.036-0.016
				c0.008,0.011,0.021,0.027,0.039,0.049l0.013,0.016l-0.029,0.131C914.897,217.458,914.999,217.567,915.131,217.708z"/>
			<path fill="#FFFFFF" d="M922.689,220.418l-0.184,0.096l0.028,0.055l-0.686,0.388l0.092,0.05l-0.343,0.131
				c-0.062,0.033-0.15,0.087-0.264,0.163l-0.069,0.016c-0.005,0.022-0.045,0.033-0.121,0.033c-0.293,0.196-0.513,0.354-0.659,0.473
				c-0.325,0.141-0.662,0.288-1.011,0.441l-0.062-0.016c-0.064,0.043-0.103,0.098-0.118,0.163c-0.254,0.065-0.614,0.196-1.082,0.392
				c-0.187,0.011-0.415,0.055-0.682,0.131l-0.059,0.049c-0.071-0.022-0.256-0.098-0.554-0.229c-0.259-0.109-0.438-0.163-0.536-0.163
				l0.018-0.082l-0.026-0.033c-0.033,0-0.066,0.006-0.101,0.016l-0.075-0.033l-0.038-0.049l-0.094-0.016
				c-0.124-0.131-0.29-0.343-0.497-0.637c-0.415-0.74-0.505-1.643-0.271-2.71c0.165-0.751,0.395-1.431,0.692-2.041
				c0.156-0.315,0.527-0.963,1.112-1.943c0.144-0.163,0.366-0.403,0.664-0.718c1.196-1.437,2.325-2.34,3.386-2.71
				c0.199-0.065,0.625-0.098,1.278-0.098c0.055,0,0.089,0.016,0.104,0.049c0.061,0.022,0.18,0.098,0.358,0.229
				c0.195,0.055,0.373,0.136,0.534,0.245c0.201,0.174,0.305,0.294,0.313,0.359c0.006,0.022-0.034,0.229-0.12,0.62l-0.057,0.261
				c-0.068,0.011-0.159,0.082-0.275,0.212c-0.134,0.163-0.214,0.256-0.24,0.278c-0.027,0.022-0.156,0.092-0.389,0.212
				c-0.041-0.011-0.116-0.016-0.225-0.016h-0.131c0.006,0.022,0.016,0.049,0.031,0.082l0.02-0.016l0.192,0.016l-0.151,0.016
				l-0.123-0.033c-0.09,0.011-0.156,0.016-0.2,0.016c0.008,0.011,0.022,0.022,0.042,0.033l-0.011,0.049
				c-0.348,0-0.91,0.204-1.685,0.612s-1.268,0.77-1.479,1.086l0.019,0.065c-0.743,0.708-1.255,1.704-1.537,2.988
				c-0.179,0.816,0.001,1.562,0.538,2.237c0.165,0.043,0.328,0.065,0.492,0.065c0.794,0,1.805-0.365,3.031-1.094
				c0.235-0.131,0.458-0.229,0.668-0.294l0.195-0.052l0.03,0.068l-0.036,0.177l0.192-0.059l0.101,0.073l-0.071,0.154l0.246-0.022
				l-0.149,0.126l-0.031,0.052L922.689,220.418z M917.477,218.102l-0.056,0.033c-0.031,0.043-0.053,0.092-0.065,0.147l0.022,0.049
				c0.016-0.022,0.034-0.082,0.056-0.18L917.477,218.102z M917.248,219l0.057-0.261l-0.04,0.033
				C917.244,218.869,917.238,218.945,917.248,219z"/>
			<path fill="#FFFFFF" d="M927.767,212.061c-0.007,0.033-0.231,0.604-0.67,1.714c-0.273,0.696-0.455,1.257-0.548,1.682
				c-0.026,0.12-0.162,0.49-0.407,1.11l0.057,0.114c-0.027,0.076-0.133,0.31-0.133,0.31c-0.027,0.022-0.09,0.153-0.084,0.196
				c0.006,0.044,0.009,0.071,0.006,0.082c-0.055,0.251-0.23,0.778-0.527,1.584c0.008,0.065,0.003,0.136-0.014,0.212l-0.023,0.033
				c-0.054,0.098-0.122,0.332-0.203,0.702c0,0-0.006,0.174,0.023,0.196l-0.018,0.082c-0.086,0.141-0.179,0.419-0.281,0.833
				c-0.064,0.294-0.135,0.593-0.213,0.898c0,0-0.4,1.192-0.388,1.061s0.04-0.294,0.04-0.294l-0.094-0.162l-0.204,0.33l-0.136-0.054
				l-0.265-0.131l0.027-0.175l-0.129,0.045l-0.032-0.145c0,0-0.209,0.38-0.269,0.554c-0.01-0.152-0.019-0.386-0.026-0.702
				c0.049-0.272,0.108-0.691,0.178-1.257c0.013-0.457,0.14-1.235,0.381-2.335l0.612-2.792c0.575-2.623,1.103-4.065,1.585-4.327
				c0.105-0.033,0.252-0.082,0.44-0.147l0.084,0.065l0.074-0.114h0.016c0.046-0.011,0.085-0.016,0.118-0.016l0.029,0.016
				c0.004,0.033,0.015,0.055,0.035,0.065l0.029,0.016l0.12-0.098l0.116,0.065c0.034-0.054,0.061-0.103,0.081-0.147l0.048,0.082
				c0.059-0.022,0.147-0.049,0.263-0.082l0.156,0.033l0.007-0.033C927.688,211.207,927.734,211.517,927.767,212.061z"/>
			<path fill="#FFFFFF" d="M945.082,216.473c-0.043,0.196-0.134,0.463-0.273,0.8c-0.185,0.447-0.291,0.708-0.319,0.784
				c-0.147,0.522-0.372,1.301-0.675,2.335c-0.169,0.522-0.236,0.806-0.202,0.849l-0.358,1.131c0.01-0.043-0.09,0.064-0.09,0.064
				l-0.135,0.443c-0.036-0.087-0.082-0.148-0.082-0.148c0.004-0.065-0.07-0.131-0.07-0.131l-0.067,0.202l-0.053-0.179
				c-0.008-0.011-0.089,0.057-0.089,0.057l-0.053-0.08l-0.109,0.122l-0.056-0.169l-0.097,0.024c0,0-0.093,0.077-0.112,0.164
				l-0.096,0.059l-0.117-0.031l-0.098,0.197l-0.073-0.109c0,0,0.012,0.003,0.047-0.405s0.044-0.532,0.028-0.706
				c-1.024,0.599-1.929,0.98-2.716,1.143c-0.145-0.033-0.247-0.038-0.307-0.016c-0.509-0.109-0.793-0.479-0.851-1.11
				c-0.028-0.37,0.038-0.92,0.198-1.649c0.177-0.806,0.459-1.6,0.849-2.384c0.513-1.001,1.064-1.655,1.654-1.959
				c0.182-0.087,0.348-0.125,0.499-0.114l0.09-0.114h0.114l0.015,0.082l0.159-0.131c0.306,0.294,0.414,0.593,0.326,0.898
				l-0.018,0.082l-0.134,0.016l0.02,0.13l0.085-0.016l0.025,0.033c-0.19,0.272-0.322,0.501-0.395,0.686
				c-0.092,0.12-0.213,0.278-0.365,0.474c-0.031,0.043-0.052,0.087-0.061,0.131c-0.126,0.229-0.298,0.566-0.516,1.012l0.035,0.065
				c-0.114,0.174-0.205,0.367-0.274,0.58c-0.068,0.212-0.136,0.422-0.203,0.629c-0.087,0.25-0.129,0.365-0.124,0.343
				c-0.057,0.261-0.023,0.49,0.103,0.686c0.126,0.196,0.314,0.294,0.564,0.294c0.294,0,0.592-0.082,0.894-0.245
				s0.484-0.381,0.543-0.653c0.3-1.469,0.455-2.226,0.465-2.269c0.089-0.403,0.23-0.898,0.424-1.486
				c0.248-0.784,0.458-1.246,0.631-1.388c0.055-0.055,0.13-0.098,0.225-0.131l0.038,0.049l0.143-0.131
				c-0.005,0.022-0.004,0.043,0.002,0.065c0.02-0.043,0.052-0.087,0.094-0.131l0.053-0.016c0.03,0.011,0.059,0.027,0.088,0.049
				l0.047-0.065l0.077,0.098l0.067-0.082l0.017,0.147l0.054-0.098h0.065l0.083-0.082c-0.013,0.011,0.006,0.022,0.058,0.033
				l0.002,0.065c0.097-0.043,0.18-0.076,0.25-0.098l0.044,0.098l0.086-0.098C945.235,215.449,945.211,215.885,945.082,216.473z"/>
			<path fill="#FFFFFF" d="M952.649,211.865c-0.363,0.762-0.682,1.649-0.959,2.661c-0.115,0.424-0.323,1.322-0.623,2.694
				l-0.103,0.245l-0.218,0.996l-0.072,0.327l-0.233,1.437l-0.095,0.359c-0.076,0.348-0.152,0.843-0.228,1.486
				c-0.074,0.686-0.18,0.959-0.18,0.959l-0.085-0.155l-0.084-0.136l-0.129-0.115l-0.038,0.176h-0.063l-0.084-0.051l-0.122,0.223
				l-0.125-0.146l-0.167,0.104l-0.202,0.096l-0.019-0.212l-0.009-0.225l0.053-0.681c-0.116,0.033-0.608,0.239-1.475,0.62
				c-0.757,0.327-1.218,0.49-1.381,0.49c-0.022,0-0.111-0.016-0.267-0.049c-0.611-0.141-1.008-0.419-1.189-0.833
				c-0.158-0.37-0.161-0.904-0.008-1.6c0.105-0.479,0.385-1.061,0.84-1.747c0.408-0.62,0.82-1.083,1.235-1.388
				c0.466-0.337,1.025-0.555,1.678-0.653l0.047-0.065c0.038-0.022,0.078-0.033,0.121-0.033l0.062,0.016
				c0.255-0.12,0.466-0.141,0.635-0.065l0.443-0.081c0.095-0.882,0.243-1.78,0.443-2.694c0.289-1.317,0.607-2.073,0.954-2.269
				c0.14-0.043,0.356-0.109,0.647-0.196l0.029,0.016l0.045,0.016l0.054-0.098l0.044,0.098l0.038-0.098l0.067,0.065l0.165-0.082
				l0.013,0.016h0.033c0.033,0,0.044-0.006,0.036-0.016l-0.002,0.082l0.04-0.033c0.02-0.043,0.045-0.082,0.074-0.114l0.025,0.033
				l0.238,0.033C952.584,211.365,952.618,211.561,952.649,211.865z M948.873,221.645c0.001-0.751,0.121-1.818,0.359-3.2
				c-0.186-0.043-0.241-0.065-0.165-0.065c-0.013,0.011-0.031,0.016-0.053,0.016s-0.046,0.011-0.072,0.033l0.006,0.049l-0.045-0.016
				c-0.024,0.011-0.039,0.027-0.043,0.049l-0.038-0.049c-0.052-0.011-0.105-0.016-0.16-0.016l0.002,0.065
				c-0.283,0-0.474,0.027-0.573,0.082c-0.157,0.12-0.32,0.245-0.49,0.376l-0.085,0.016l-0.087,0.098
				c-0.099,0.055-0.176,0.144-0.23,0.269c-0.055,0.125-0.105,0.242-0.151,0.351c-0.036,0.065-0.125,0.188-0.268,0.367
				c-0.143,0.18-0.228,0.329-0.254,0.449c-0.012,0.055-0.013,0.109-0.003,0.163c-0.091,0.218-0.086,0.443,0.015,0.678
				c0.101,0.234,0.251,0.394,0.449,0.482c0.124,0.033,0.279,0.092,0.467,0.18c0.207,0,0.461-0.057,0.764-0.171
				C948.518,221.735,948.737,221.667,948.873,221.645z"/>
			<path fill="#FFFFFF" d="M933.409,216.722l0.596,0.857c0,0,0.097-0.243,0.148-0.353c0.418,0.413,0.606,1.39-0.206,2.507
				c2.33-0.591,2.5,1.888,0.742,1.568c-2.721-0.496-3.731-0.165-4.495,0.104c-1.292,0.455-2.183,0.257-2.314-0.53
				c-0.249-1.495,2.074-1.361,2.074-1.361s-0.892-1.21-0.283-2.3c0.35-0.626,1.153-0.877,1.842-0.767
				c-0.128,0.261-0.257,0.663-0.257,0.663l1.513-0.594l-0.842-1.121c0,0-0.166,0.396-0.265,0.662
				c-0.326-0.172-1.665-0.388-2.46,0.487c-0.795,0.876-0.449,1.664-0.344,2.331c-1.355-0.165-2.838,0.791-2.293,2.779
				c0.337,1.226,1.805,1.517,3.194,0.824c1.125-0.562,2.729-0.919,4.246-0.068c1.393,0.781,2.958,0.089,3.19-1.3
				c0.367-2.202-2.098-2.137-2.098-2.137s0.606-1.547-0.77-2.017c0.062-0.188,0.217-0.4,0.217-0.4L933.409,216.722z"/>
		</g>
	</g>
	<g>
		<g>
			<polygon fill="#FFFFFF" points="1010.077,221.286 1010.08,221.289 1010.08,221.283 			"/>
			<polygon fill="#FFFFFF" points="1007.69,221.286 1007.69,221.286 1007.689,221.286 			"/>
			<rect x="1000.749" y="216.903" fill="#FFFFFF" width="3.531" height="11.636"/>
			<polygon fill="#FFFFFF" points="999.21,220.621 1001.701,213.997 1004.424,213.997 1001.934,220.621 			"/>
			<path fill="#FFFFFF" d="M1014.487,216.895h-0.766v-2.933h-3.531v2.933h-5.379v1.172h5.379v8.888
				c-0.007,0.26-0.22,0.47-0.487,0.482h-1.443v1.172h1.93h1.551h0.246c0.958,0,1.734-0.752,1.734-1.679v-8.864h0.766V216.895z"/>
			<path fill="#FFFFFF" d="M1009.672,222.112l-0.003-0.002c-1.035-0.492-1.876-1.306-2.384-2.307l0,0l0,0l0.001-0.001h-0.002
				l0.001,0.001l-0.005,0.005c-0.507,0.998-1.345,1.809-2.376,2.3l-0.006,0.005l0.001-0.001l0.003,0.003
				c1.035,0.491,1.876,1.305,2.384,2.307l0.005-0.004c0.507-0.998,1.345-1.809,2.376-2.3L1009.672,222.112z"/>
			<g>
				<path fill="#FFFFFF" d="M1027.795,227.682l-0.007-0.031C1027.79,227.661,1027.793,227.671,1027.795,227.682z"/>
				<path fill="#FFFFFF" d="M1027.621,226.642l-0.04-0.173C1027.592,226.528,1027.606,226.585,1027.621,226.642z"/>
				<polygon fill="#FFFFFF" points="1032.182,216.466 1029.878,216.697 1029.289,214.396 1031.617,214.163 				"/>
				<rect x="1019.7" y="215.327" fill="#FFFFFF" width="3.566" height="1.172"/>
				<rect x="1017.464" y="218.316" fill="#FFFFFF" width="5.799" height="1.172"/>
				<rect x="1017.464" y="221.369" fill="#FFFFFF" width="5.799" height="1.172"/>
				<polygon fill="#FFFFFF" points="1017.496,217.957 1019.264,213.959 1021.904,213.959 1020.136,217.957 				"/>
				<path fill="#FFFFFF" d="M1021.888,219.019v5.157l-0.02,2.491c0,0.37,0.312,0.669,0.679,0.687h0.908v1.258h-2.461
					c0,0-0.069,0-0.104,0c-1.295,0-2.345-1.045-2.345-2.333v-7.26H1021.888z"/>
				<polygon fill="#FFFFFF" points="1032.557,221.681 1023.819,222.632 1023.819,221.369 1032.557,220.419 				"/>
				<polygon fill="#FFFFFF" points="1032.557,218.538 1023.819,219.488 1023.819,218.226 1032.557,217.275 				"/>
				<polygon fill="#FFFFFF" points="1032.557,224.888 1024.115,228.613 1024.115,227.35 1032.557,223.625 				"/>
				<path fill="#FFFFFF" d="M1032.075,227.351h-0.216l0,0c-0.281-0.008-0.514-0.205-0.567-0.464l-0.618-2.639l-2.397-10.29h-3.53
					l2.987,12.821l0.04,0.173c0.261,0.955,1.157,1.661,2.226,1.661h1.69h0.866v-1.262H1032.075z"/>
			</g>
			<g>
				<rect x="1041.844" y="227.112" fill="#FFFFFF" width="8.91" height="1.518"/>
				<polygon fill="#FFFFFF" points="1046.969,227.776 1048.325,217.81 1051.054,218.011 1049.72,227.979 				"/>
				<rect x="1035.542" y="216.99" fill="#FFFFFF" width="6.334" height="1.166"/>
				<rect x="1042.286" y="215.89" fill="#FFFFFF" width="8.78" height="1.503"/>
				<polygon fill="#FFFFFF" points="1041.828,222.393 1035.749,224.667 1035.589,223.513 1041.668,221.238 				"/>
				<path fill="#FFFFFF" d="M1037.31,213.978v11.458v1.527c0,0.266-0.316,0.482-0.688,0.495h-0.9v1.172h2.494c0,0,0.07,0,0.106,0
					c1.312,0,2.376-0.752,2.376-1.679v-12.973H1037.31z"/>
				<polygon fill="#FFFFFF" points="1042.332,218.525 1044.822,217.601 1046.358,225.879 1043.868,226.803 				"/>
				<rect x="1045.044" y="213.942" fill="#FFFFFF" width="3.501" height="2.808"/>
			</g>
			<g>
				<path fill="#FFFFFF" d="M987.115,211.143l-0.009-0.009l-3.734,3.236l0,0l-0.002,0.002l0,0l0,0l0.001,0.001
					c1.471,2.997,3.907,5.434,6.905,6.905l0.009,0.009l3.238-3.737l-0.021-0.021C990.774,216.103,988.54,213.869,987.115,211.143z"
					/>
				<path fill="#FFFFFF" d="M979.63,211.134c-1.427,2.733-3.667,4.973-6.401,6.4l-0.016,0.016l3.238,3.737l0.017-0.016
					c2.986-1.469,5.414-3.897,6.883-6.883l0.016-0.016L979.63,211.134z"/>
				<path fill="#FFFFFF" d="M983.371,228.2l-0.001-0.001c-1.471-2.997-3.907-5.434-6.905-6.905l-0.009-0.009l-3.238,3.737
					l0.006,0.006c2.739,1.428,4.982,3.671,6.41,6.41l3.734-3.236l0,0L983.371,228.2L983.371,228.2L983.371,228.2z"/>
				<path fill="#FFFFFF" d="M987.109,231.433c1.427-2.735,3.668-4.975,6.403-6.402l0.009-0.009l-3.238-3.737l-0.017,0.016
					c-2.986,1.469-5.414,3.897-6.883,6.883l-0.016,0.016l3.737,3.238L987.109,231.433z"/>
			</g>
		</g>
		<g>
			<path fill="#FFFFFF" d="M973.527,236.493h1.508v3.121c0.237-0.191,0.505-0.428,0.803-0.712l0.133,0.531
				c-0.433,0.405-0.896,0.766-1.39,1.082l-0.189-0.447c0.107-0.084,0.161-0.177,0.161-0.279v-2.814h-1.026L973.527,236.493
				L973.527,236.493z M974.344,234.412c0.475,0.363,0.873,0.726,1.194,1.089l-0.342,0.349c-0.279-0.331-0.68-0.696-1.201-1.096
				L974.344,234.412z M977.36,234.357h0.517v2.255h1.815v0.489h-1.815v2.926h2.081v0.496h-4.113v-0.496h1.515L977.36,234.357
				L977.36,234.357z"/>
			<path fill="#FFFFFF" d="M989.188,236.353c-0.354,0.214-0.703,0.4-1.047,0.559l-0.293-0.419c1.22-0.545,2.211-1.238,2.974-2.081
				h0.405c0.666,0.829,1.65,1.515,2.954,2.06l-0.286,0.419c-0.349-0.144-0.694-0.317-1.033-0.517v0.384h-1.585v1.006h2.486v0.468
				h-2.486v1.864h0.775c0.237-0.456,0.447-0.945,0.628-1.466l0.461,0.161c-0.177,0.489-0.37,0.924-0.58,1.306h1.445v0.482h-5.97
				v-0.482h1.445c-0.14-0.428-0.326-0.845-0.559-1.25l0.454-0.168c0.209,0.377,0.407,0.85,0.594,1.417h0.803v-1.864h-2.493v-0.468
				h2.493v-1.006h-1.585L989.188,236.353L989.188,236.353z M992.742,236.305c-0.68-0.4-1.252-0.873-1.718-1.418
				c-0.531,0.549-1.117,1.022-1.76,1.418H992.742z"/>
			<path fill="#FFFFFF" d="M1002.232,234.636h3.317v0.454h-3.317V234.636z M1004.41,240.71l-0.126-0.447l0.489,0.021
				c0.135,0,0.202-0.056,0.202-0.168v-2.241h-2.185v2.884h-0.44v-3.302h3.065v2.758c0,0.33-0.163,0.496-0.489,0.496L1004.41,240.71
				L1004.41,240.71z M1002.63,235.537h2.507v1.501h-2.507V235.537z M1003.027,239.028h0.922c0.126-0.289,0.237-0.601,0.335-0.936
				l0.349,0.119c-0.098,0.307-0.203,0.579-0.314,0.817h0.419v0.391h-0.67v1.257h-0.405v-1.257h-0.635L1003.027,239.028
				L1003.027,239.028z M1004.689,236.64v-0.712h-1.613v0.712H1004.689z M1003.433,238.148c0.121,0.21,0.228,0.463,0.321,0.761
				l-0.321,0.084c-0.079-0.242-0.189-0.489-0.328-0.74L1003.433,238.148z M1005.744,235.585h0.991v-1.201h0.468v1.201h1.013v2.793
				h-1.013v1.557l0.67-0.147c-0.098-0.344-0.186-0.626-0.265-0.845l0.391-0.126c0.2,0.526,0.375,1.117,0.524,1.773l-0.433,0.105
				l-0.105-0.489c-0.722,0.182-1.462,0.326-2.22,0.433l-0.119-0.468c0.284-0.033,0.647-0.084,1.089-0.154v-1.641h-0.991V235.585z
				 M1006.763,237.931v-1.899h-0.586v1.899H1006.763z M1007.783,237.931v-1.899h-0.6v1.899H1007.783z"/>
			<path fill="#FFFFFF" d="M1016.657,234.636h5.984v0.468h-2.744v0.607h2.164v2.765h-2.248c-0.084,0.47-0.221,0.84-0.412,1.11
				c0.982,0.414,2.141,0.642,3.477,0.684l-0.126,0.482c-1.392-0.056-2.614-0.324-3.666-0.803c-0.484,0.414-1.285,0.684-2.402,0.81
				l-0.216-0.461c0.978-0.079,1.687-0.277,2.13-0.593c-0.41-0.228-0.784-0.486-1.124-0.775l0.384-0.265
				c0.326,0.27,0.687,0.507,1.082,0.712c0.172-0.247,0.293-0.547,0.363-0.901h-2.046v-2.765h2.137v-0.607h-2.737L1016.657,234.636
				L1016.657,234.636z M1017.753,236.877h1.641v-0.733h-1.641V236.877z M1019.373,238.036c0.014-0.163,0.021-0.328,0.021-0.496
				v-0.244h-1.641v0.74H1019.373z M1021.566,238.036v-0.74h-1.669v0.244l-0.021,0.496H1021.566z M1019.897,236.144v0.733h1.669
				v-0.733H1019.897z"/>
			<path fill="#FFFFFF" d="M1031.858,235.299c-0.196,0.331-0.396,0.614-0.6,0.852l-0.426-0.272c0.419-0.465,0.726-0.98,0.922-1.543
				l0.489,0.105l-0.168,0.419h1.843v0.44h-1.047c0.182,0.251,0.319,0.482,0.412,0.691l-0.447,0.168
				c-0.135-0.289-0.3-0.575-0.496-0.859h-0.482V235.299z M1031.313,237.031h0.496v3.736h-0.496V237.031z M1032.018,235.99
				c0.381,0.335,0.666,0.617,0.852,0.845l-0.37,0.258c-0.209-0.261-0.494-0.552-0.852-0.873L1032.018,235.99z M1032.71,237.359
				h2.521v2.632h-2.521V237.359z M1033.191,238.462h1.571v-0.684h-1.571V238.462z M1034.762,239.565v-0.698h-1.571v0.698H1034.762z
				 M1035.342,240.738l-0.119-0.454l0.656,0.014c0.177,0,0.265-0.102,0.265-0.307v-3.254h-2.709v-0.461h3.205v3.854
				c0,0.405-0.219,0.607-0.656,0.607L1035.342,240.738L1035.342,240.738z M1034.825,235.299c-0.144,0.275-0.3,0.519-0.468,0.733
				l-0.426-0.272c0.349-0.437,0.601-0.91,0.754-1.417l0.482,0.105c-0.047,0.149-0.096,0.286-0.147,0.412h2.039v0.44h-1.159
				c0.149,0.21,0.282,0.421,0.398,0.635l-0.447,0.168c-0.14-0.284-0.303-0.552-0.489-0.803L1034.825,235.299L1034.825,235.299z"/>
			<path fill="#FFFFFF" d="M1045.941,235.446h1.334c-0.214-0.344-0.433-0.645-0.656-0.901l0.44-0.21
				c0.219,0.265,0.44,0.58,0.663,0.943l-0.321,0.168h1.445c0.219-0.363,0.403-0.742,0.552-1.138l0.482,0.175
				c-0.158,0.363-0.333,0.684-0.524,0.964h1.257v2.905h-2.081v0.635h2.849v0.482h-2.849v1.313h-0.51v-1.313h-2.856v-0.482h2.856
				v-0.635h-2.081L1045.941,235.446L1045.941,235.446z M1046.437,236.682h1.585v-0.775h-1.585V236.682z M1048.022,237.904v-0.782
				h-1.585v0.782H1048.022z M1048.532,235.907v0.775h1.578v-0.775H1048.532z M1050.11,237.904v-0.782h-1.578v0.782H1050.11z"/>
		</g>
	</g>
	<rect x="962.487" y="210.501" fill="#FFFFFF" width="0.926" height="30.912"/>
</g>
<g>
	<path fill="#333333" d="M794.272,287.097c-0.91,2.896-2.027,5.613-3.351,8.15v29.085h-2.234v-25.155
		c-1.766,2.731-3.614,5.158-5.544,7.282l-0.745-2.317c4.496-5.24,7.75-11.239,9.764-17.997L794.272,287.097z M795.431,295.703
		h16.425v-9.144h2.234v9.144h6.123v2.234h-6.123v22.011c0,2.647-1.186,3.972-3.558,3.972h-5.917l-0.496-2.151
		c2.592,0.109,4.468,0.165,5.626,0.165c1.407,0,2.11-0.854,2.11-2.564v-21.432H795.43L795.431,295.703L795.431,295.703z
		 M798.824,302.901c3.282,3.834,5.792,7.172,7.53,10.013l-1.903,1.323c-1.82-3.062-4.303-6.454-7.447-10.177L798.824,302.901z"/>
	<path fill="#333333" d="M835.397,286.932c-0.386,1.489-0.827,2.993-1.324,4.509h8.233v2.11h-8.978
		c-1.187,2.952-2.524,5.6-4.013,7.943l-1.82-1.158c2.565-4.055,4.482-8.674,5.75-13.86L835.397,286.932z M831.674,299.426h9.474
		v2.068h-4.22v6h5.999v2.151h-5.999v10.178c2.289-0.938,4.523-2.207,6.702-3.807l0.373,2.068c-2.759,1.959-5.903,3.559-9.433,4.8
		l-0.952-1.944c0.745-0.249,1.117-0.594,1.117-1.035v-10.26h-6.124v-2.151h6.124v-6h-3.062L831.674,299.426L831.674,299.426z
		 M862.663,294.006l0.331,2.151l-10.343,1.696c0.083,2.399,0.22,4.468,0.414,6.207l10.633-1.904l0.331,2.151l-10.716,1.945
		c0.083,0.854,0.207,1.71,0.373,2.564c0.441,2.234,0.952,4.138,1.531,5.71c2.124-2.041,4.041-4.399,5.751-7.075l1.779,1.159
		c-2.042,3.062-4.275,5.724-6.702,7.984c0.248,0.607,0.538,1.187,0.869,1.738c1.434,2.096,2.675,3.144,3.724,3.144
		c1.048,0,1.972-2.22,2.772-6.661l1.944,1.241c-1.048,5.158-2.538,7.737-4.468,7.737c-1.82-0.056-3.599-1.311-5.337-3.765
		c-0.552-0.883-0.938-1.545-1.159-1.986c-3.393,2.758-7.061,4.743-11.005,5.958l-1.283-1.696c4.33-1.407,8.136-3.489,11.419-6.248
		c-0.745-1.82-1.365-3.889-1.862-6.205c-0.138-0.718-0.317-1.793-0.538-3.228l-7.116,1.282l-0.331-2.151l7.157-1.282
		c-0.193-1.655-0.345-3.737-0.455-6.248l-6.082,0.993l-0.29-2.11l6.33-1.076v-9.557h2.234v7.943c0,0.552,0.014,0.966,0.042,1.241
		L862.663,294.006z M856.994,286.518c1.875,1.82,3.365,3.49,4.468,5.006l-1.737,1.241c-0.993-1.434-2.469-3.158-4.427-5.172
		L856.994,286.518z"/>
	<path fill="#333333" d="M885.997,305.384c-1.793,0.966-3.517,1.82-5.171,2.565v12.37c0,2.372-1.09,3.559-3.269,3.559h-3.724
		l-0.497-2.151c1.6,0.109,2.744,0.165,3.434,0.165c1.241,0,1.862-0.718,1.862-2.151V308.9c-1.793,0.718-3.821,1.435-6.082,2.151
		l-0.538-2.275c2.234-0.579,4.44-1.282,6.62-2.11V296.53h-5.999v-2.192h5.999v-7.696h2.193v7.696h4.923v2.192h-4.923v9.226
		c1.875-0.882,3.599-1.751,5.171-2.606L885.997,305.384L885.997,305.384z M885.997,320.195h12.826
		c2.041-5.93,3.792-13.101,5.254-21.514l2.151,0.538c-1.352,7.944-3.048,14.936-5.089,20.976h8.564v2.192h-23.707L885.997,320.195
		L885.997,320.195z M887.072,293.427h9.971c-0.689-2.592-1.421-4.799-2.192-6.62l2.275-0.414c0.634,1.766,1.324,4.11,2.069,7.034
		h9.557v2.11h-21.68V293.427z M891.292,299.095c1.324,5.241,2.523,11.24,3.599,17.998l-2.068,0.579
		c-0.938-6.123-2.125-12.095-3.558-17.915L891.292,299.095z"/>
	<path fill="#333333" d="M916.902,299.385h8.523v19.114c1.489-1.158,3.227-2.675,5.213-4.551l0.58,2.399
		c-2.538,2.372-5.186,4.468-7.944,6.289l-0.91-2.027c0.579-0.469,0.869-0.952,0.869-1.448v-17.583h-6.33v-2.193H916.902z
		 M921.33,286.849c2.896,2.262,5.309,4.482,7.24,6.661l-1.531,1.572c-1.793-2.124-4.234-4.372-7.323-6.744L921.33,286.849z
		 M939.906,286.435h2.317v13.818h11.047v2.193h-11.047v18.163h12.619v2.192h-24.203v-2.192h9.268v-34.174L939.906,286.435
		L939.906,286.435z"/>
	<path fill="#0083CC" d="M981.402,286.518c5.268,5.792,11.309,10.343,18.121,13.653l-1.613,2.854
		c-6.785-3.475-12.646-8.095-17.584-13.86c-4.469,5.378-10.385,10.012-17.748,13.901l-1.572-2.854
		c7.227-3.613,13.307-8.178,18.244-13.695L981.402,286.518L981.402,286.518z M979.996,297.44h3.02v9.309h11.295v2.854h-11.295
		v10.178h14.273v2.896h-34.422v-2.896h6.248v-16.383h2.938v16.383h7.943V297.44z"/>
	<path fill="#0083CC" d="M1019.838,286.807h3.021v32.892h5.875v-32.892h3.02v32.892h12.412v2.896h-36.656v-2.896h12.329
		L1019.838,286.807L1019.838,286.807z M1011.066,294.254c2.179,5.683,4.109,12.095,5.793,19.239l-2.731,0.703
		c-1.489-6.62-3.351-12.991-5.585-19.114L1011.066,294.254z M1043.048,295.082c-1.654,7.227-3.737,13.529-6.247,18.907l-2.689-0.951
		c2.427-4.909,4.523-11.143,6.289-18.701L1043.048,295.082z"/>
	<path fill="#0083CC" d="M1069.733,286.394h3.062v5.42h16.26v2.896h-16.26v6.33h11.129v2.648
		c-2.316,4.634-5.668,8.605-10.054,11.915c2.234,1.241,4.51,2.331,6.827,3.269c2.84,1.076,5.984,2.041,9.433,2.896l-1.737,2.606
		c-3.696-0.993-7.075-2.124-10.137-3.393c-2.538-1.103-4.841-2.317-6.909-3.641c-4.689,2.951-10.33,5.322-16.922,7.116l-1.696-2.648
		c6.316-1.489,11.681-3.558,16.095-6.206c-2.234-1.737-4.11-3.571-5.627-5.502c-1.518-1.903-2.593-3.999-3.228-6.289h-3.186v-2.772
		h12.95v-6.33h-16.095v-2.896h16.095L1069.733,286.394L1069.733,286.394z M1080.573,303.812h-17.667
		c0.745,2.207,1.903,4.165,3.476,5.875c1.406,1.628,3.048,3.062,4.924,4.303C1075.332,311.148,1078.422,307.756,1080.573,303.812z"
		/>
	<path fill="#0083CC" d="M1109.906,287.345c-0.854,2.676-1.985,5.393-3.393,8.15v28.919h-2.979v-23.996
		c-1.406,2.097-3.089,4.179-5.048,6.247l-0.91-3.103c4.386-5.103,7.571-10.95,9.558-17.542L1109.906,287.345z M1110.775,295.372
		h15.846v-8.895h2.979v8.895h5.957v2.896h-5.957v21.597c0,2.813-1.297,4.22-3.89,4.22h-5.999l-0.662-2.938
		c2.151,0.138,4.027,0.207,5.627,0.207c1.296,0,1.944-0.744,1.944-2.234v-20.852h-15.846v-2.896H1110.775z M1114.582,302.777
		c3.171,3.751,5.599,7.006,7.281,9.764l-2.523,1.779c-1.766-3.034-4.165-6.385-7.199-10.054L1114.582,302.777z"/>
	<path fill="#333333" d="M788.458,358.652c-1.248,2.012-2.61,3.896-4.086,5.652l-0.687-2.177c3.615-4.634,6.25-9.916,7.905-15.849
		l1.871,0.878c-0.789,2.75-1.782,5.347-2.979,7.791v26.236h-2.024V358.652z M795.715,354.872l-1.91,1.222l-1.298-1.527
		c3.92-2.215,7.04-5.016,9.356-8.402l2.101,0.459c-0.637,0.941-1.209,1.731-1.718,2.367h9.967v1.413
		c-1.044,1.375-2.177,2.61-3.399,3.705h7.485v7.905h-11.495c-0.051,0.051-0.102,0.127-0.153,0.229
		c1.757,1.783,3.093,3.718,4.01,5.806c2.826-1.248,5.155-2.763,6.989-4.545l1.336,1.489c-1.298,1.146-2.711,2.177-4.239,3.094
		c1.12,3.691,3.157,6.938,6.111,9.738l-1.375,1.643c-2.979-3.183-5.08-6.696-6.301-10.541l-1.872,0.878
		c0.407,1.324,0.649,2.788,0.726,4.393c0,2.546-0.395,4.328-1.184,5.347c-0.688,0.789-1.923,1.323-3.705,1.604l-2.33,0.038
		l-0.649-1.871h2.711c0.917-0.076,1.667-0.445,2.253-1.107c0.56-0.713,0.84-2.049,0.84-4.01c-0.026-0.535-0.09-1.223-0.191-2.062
		c-3.336,3.132-7.817,5.69-13.443,7.677l-1.069-1.757c6.111-2.037,10.808-4.634,14.092-7.791c-0.305-1.044-0.701-2.011-1.184-2.902
		c-2.852,2.622-6.786,4.786-11.801,6.492l-0.993-1.757c5.143-1.604,9.127-3.666,11.954-6.187c-0.739-1.019-1.375-1.795-1.91-2.33
		c-2.241,2.19-5.309,3.73-9.204,4.621l-0.802-1.757c3.87-0.865,6.823-2.342,8.86-4.43h-6.569v-7.144H795.715z M806.141,354.108
		c1.222-0.993,2.419-2.139,3.59-3.438h-8.975c-1.197,1.222-2.521,2.368-3.972,3.438H806.141z M803.697,360.257
		c0.891-1.35,1.502-2.813,1.833-4.393h-7.791v4.393H803.697z M814.275,360.257v-4.393h-6.76c-0.331,1.579-0.854,3.043-1.566,4.393
		H814.275z"/>
	<path fill="#0083CC" d="M828.902,347.577c-2.241,1.4-3.437,3.132-3.59,5.194c0.101-0.051,0.331-0.076,0.688-0.076
		c0.814,0,1.476,0.254,1.986,0.764c0.535,0.483,0.802,1.133,0.802,1.947c0,0.79-0.267,1.451-0.802,1.986
		c-0.561,0.51-1.222,0.764-1.986,0.764c-2.241,0-3.361-1.489-3.361-4.469c0-3.717,1.667-6.44,5.003-8.173L828.902,347.577z
		 M837.762,347.577c-2.241,1.375-3.45,3.106-3.628,5.194c0.127-0.051,0.356-0.076,0.688-0.076c0.814,0,1.489,0.254,2.024,0.764
		c0.535,0.483,0.802,1.133,0.802,1.947c0,0.79-0.268,1.451-0.802,1.986c-0.586,0.51-1.248,0.764-1.986,0.764
		c-2.266,0-3.399-1.489-3.399-4.469c0-3.691,1.681-6.416,5.041-8.173L837.762,347.577z"/>
	<path fill="#0083CC" d="M840.913,353.945h43.107v4.535h-22.627c-4.138,8.243-7.734,14.115-10.789,17.615
		c7.702-0.477,15.499-1.272,23.392-2.387c-1.592-2.864-3.263-5.664-5.012-8.401l3.628-2.244c4.264,6.302,7.622,11.919,10.073,16.852
		l-4.058,2.816c-1.019-2.164-1.814-3.787-2.387-4.869c-9.612,1.337-20.034,2.387-31.268,3.15l-1.194-4.63
		c0.509-0.159,0.875-0.303,1.098-0.43c2.928-2.196,6.747-8.021,11.457-17.473h-15.419L840.913,353.945L840.913,353.945z
		 M845.496,340.77h34.276v4.393h-34.276V340.77z"/>
	<path fill="#0083CC" d="M892.718,349.983c0,3.642-1.668,6.365-5.003,8.173l-1.26-2.062c2.189-1.349,3.399-3.08,3.628-5.193
		l-0.726,0.038c-0.764,0-1.426-0.242-1.986-0.726c-0.535-0.535-0.802-1.185-0.802-1.948c0-0.84,0.267-1.502,0.802-1.985
		c0.509-0.51,1.171-0.765,1.986-0.765C891.598,345.515,892.718,347.005,892.718,349.983z M901.579,349.983
		c0,3.642-1.681,6.365-5.041,8.173l-1.26-2.062c2.215-1.375,3.424-3.105,3.628-5.193l-0.688,0.038c-0.79,0-1.464-0.242-2.024-0.726
		c-0.51-0.51-0.764-1.158-0.764-1.948c0-0.84,0.254-1.502,0.764-1.985c0.509-0.51,1.184-0.765,2.024-0.765
		C900.458,345.515,901.579,347.005,901.579,349.983z"/>
	<path fill="#333333" d="M905.855,362.434h34.181v2.062h-34.181V362.434z"/>
	<path fill="#333333" d="M949.469,381.223h-2.024v-21.042c-1.222,4.073-2.916,7.739-5.079,10.998l-1.069-1.795
		c2.774-3.896,4.748-8.325,5.919-13.29h-4.774v-2.024h5.003v-7.638h2.024v7.638h4.048v2.024h-4.048v2.75
		c1.655,1.808,3.323,3.857,5.003,6.148l-1.107,1.643c-1.579-2.419-2.877-4.265-3.896-5.538L949.469,381.223L949.469,381.223z
		 M964.058,355.521h-8.822v-1.947h11.648c1.375-2.316,2.508-4.735,3.398-7.256l1.986,0.688c-0.968,2.394-2.101,4.582-3.398,6.568
		h6.225v1.947h-8.975v6.264h7.867v1.947h-7.867v6.416h10.006v1.986H966.12v9.433h-2.062v-9.433h-9.738v-1.986h9.738v-6.416h-7.638
		v-1.947h7.638V355.521z M959.437,346.546c1.171,1.757,2.304,3.73,3.399,5.92l-1.719,0.84c-1.019-2.139-2.165-4.111-3.438-5.919
		L959.437,346.546z"/>
	<path fill="#333333" d="M983,351.167c-1.069,1.91-2.203,3.527-3.399,4.851l-1.757-1.146c2.342-2.495,4.073-5.372,5.194-8.632
		l1.985,0.421c-0.407,1.069-0.764,1.947-1.069,2.635h10.579v1.871h-6.264c1.095,1.554,1.935,2.941,2.521,4.163l-1.871,0.688
		c-0.764-1.578-1.706-3.195-2.826-4.851H983z M980.518,360.906h2.062v20.355h-2.062V360.906z M983.802,355.482
		c1.985,1.655,3.564,3.17,4.735,4.545l-1.565,1.107c-1.146-1.451-2.712-3.017-4.697-4.697L983.802,355.482z M988.193,362.892h13.29
		v14.055h-13.29V362.892z M990.142,368.964h9.395v-4.315h-9.395V368.964z M999.536,375.15v-4.43h-9.395v4.43H999.536z
		 M1002.286,381.146l-0.497-1.909l3.781,0.076c1.044,0,1.565-0.561,1.565-1.681v-18.751h-15.276v-1.909h17.301v21.195
		c0,1.985-1.069,2.979-3.208,2.979H1002.286z M999.23,351.167c-0.815,1.579-1.706,2.954-2.673,4.125l-1.719-1.107
		c1.909-2.343,3.322-4.978,4.239-7.905l1.947,0.42c-0.407,1.171-0.726,2.037-0.955,2.597h11.572v1.871h-6.874
		c1.043,1.4,1.871,2.687,2.481,3.857l-1.871,0.688c-0.764-1.553-1.706-3.067-2.826-4.545L999.23,351.167L999.23,351.167z"/>
	<path fill="#333333" d="M1018.135,352.466h15.85c1.247-2.011,2.304-4.111,3.17-6.302l1.985,0.688
		c-0.942,2.215-1.961,4.087-3.055,5.614h7.142v15.429h-11.496v3.896h15.812v1.986h-15.812v7.523h-2.1v-7.523h-15.85v-1.986h15.85
		v-3.896h-11.496V352.466z M1020.197,359.264h9.434v-4.927h-9.434L1020.197,359.264L1020.197,359.264z M1029.631,365.985v-4.851
		h-9.434v4.851H1029.631z M1023.635,346.355c1.298,1.502,2.533,3.221,3.704,5.155l-1.757,0.879c-1.146-1.91-2.394-3.628-3.742-5.156
		L1023.635,346.355z M1031.73,354.337v4.927h9.472v-4.927H1031.73z M1041.202,365.985v-4.851h-9.472v4.851H1041.202z"/>
	<path fill="#333333" d="M1072.02,356.857h1.986v6.264h4.277v1.909h-4.277v6.264c1.705-0.331,3.526-0.738,5.461-1.223v1.91
		c-2.266,0.586-4.086,1.019-5.461,1.298v7.753h-1.986v-7.371c-2.367,0.408-4.875,0.79-7.523,1.146l-0.305-2.024
		c2.851-0.356,5.461-0.738,7.828-1.146v-6.607h-6.721l-0.459-1.871c1.324-2.521,2.56-5.779,3.705-9.777h-4.431v-1.985h4.965
		c0.535-2.037,0.941-3.729,1.223-5.079l1.947,0.344c-0.331,1.451-0.713,3.03-1.146,4.735h7.447v1.985h-7.982
		c-1.12,3.819-2.316,7.065-3.59,9.739h5.041L1072.02,356.857L1072.02,356.857z M1087.258,368.238h-7.218v-1.985h16.689v1.985h-7.447
		v9.662h9.242v2.024h-20.547V377.9h9.28v-9.662H1087.258z M1080.078,364.075l-1.299-1.718c6.595-2.75,11.177-6.709,13.749-11.878
		h-12.336v-2.023h14.665v1.68c-1.069,2.444-2.443,4.621-4.124,6.531c3.132,2.062,5.754,4.086,7.867,6.072l-1.413,1.451
		c-1.909-1.91-4.507-3.959-7.791-6.148C1086.876,360.461,1083.77,362.472,1080.078,364.075z"/>
	<path fill="#333333" d="M1108.187,381.07h-2.023v-20.432c-1.401,4.227-3.247,7.957-5.538,11.189l-0.878-2.215
		c3.004-4.022,5.117-8.529,6.339-13.52h-5.729v-2.024h5.806v-7.676h2.023v7.676h4.812v2.024h-4.812v2.902
		c1.629,1.936,3.488,4.405,5.576,7.409l-1.184,1.795c-1.478-2.521-2.941-4.837-4.393-6.95L1108.187,381.07L1108.187,381.07z
		 M1121.477,347.883c-1.68,7.053-3.818,12.438-6.415,16.154l-1.604-1.375c2.724-3.869,4.761-9.051,6.11-15.543L1121.477,347.883z
		 M1127.664,367.551c2.087,3.921,3.934,8.249,5.537,12.985l-1.909,0.878l-1.451-4.086c-4.481,1.069-9.459,1.871-14.933,2.405
		l-0.42-1.909c2.393-2.062,5.206-8.121,8.44-18.179l1.985,0.688c-2.546,7.638-5.016,13.366-7.409,17.186
		c4.227-0.458,8.097-1.12,11.61-1.985c-0.993-2.444-2.113-4.889-3.361-7.333L1127.664,367.551z M1127.626,346.661
		c1.349,6.391,3.679,11.609,6.988,15.658l-1.413,1.642c-3.488-4.252-5.919-9.7-7.294-16.346L1127.626,346.661z"/>
</g>
<g>
	<g>
		<g>
			<path fill="#0075C1" d="M996.245,240.198v-1.014c0.676-0.161,0.998-0.611,0.966-1.352v-3.911h-1.014v-1.207h2.849v4.587
				c0.032,1.031,0.547,1.562,1.545,1.593h6.76v1.159h-6.953c-0.934,0-1.61-0.29-2.028-0.869
				C997.952,239.731,997.243,240.069,996.245,240.198z M997.501,231.844c-0.161-0.837-0.403-1.642-0.724-2.414h1.594
				c0.354,0.644,0.628,1.448,0.821,2.414H997.501z M999.481,234.548l3.003-3.573h-2.858v-1.207h6.278
				c-0.097,1.481-0.145,2.994-0.145,4.539c0.064,1.964,0.225,2.866,0.483,2.704c0.193,0,0.29-0.225,0.29-0.676h1.014
				c0.031,1.256-0.386,1.868-1.256,1.835c-1.352,0.193-2.076-1.191-2.173-4.152c-0.065-1.223-0.081-2.237-0.048-3.042h-0.837
				l-0.99,2.366h1.586l-3.324,4.692l0.66-3.485h-1.683L999.481,234.548L999.481,234.548z"/>
			<path fill="#0075C1" d="M1008.903,240.246v-1.014c0.74-0.161,1.094-0.628,1.062-1.401v-3.911h-1.111v-1.159h2.897v4.587
				c0.032,0.998,0.547,1.514,1.546,1.545h6.664v1.159h-6.905c-0.934,0-1.593-0.29-1.98-0.869
				C1010.625,239.795,1009.9,240.15,1008.903,240.246z M1010.207,231.844c-0.161-0.837-0.403-1.642-0.724-2.414h1.593
				c0.387,0.773,0.676,1.578,0.869,2.414H1010.207z M1012.476,232.183v-1.256h2.559v-1.642h1.883v1.642h2.656v1.256h-2.656
				c0.096,2.157,1.046,3.75,2.849,4.781v1.207c-1.803-0.611-3.059-1.594-3.766-2.946c-0.773,1.385-2.061,2.366-3.863,2.946v-1.207
				c1.867-0.87,2.832-2.463,2.897-4.781H1012.476z"/>
			<rect x="1021.463" y="232.866" fill="#0075C1" width="11.106" height="1.256"/>
			<rect x="1022.429" y="229.768" fill="#0075C1" width="9.127" height="1.256"/>
			<path fill="#0075C1" d="M1028.68,234.766l0.55,1.292c0,0,0.194-0.363,0.235-0.461c0.59,0.296,0.7,0.763-0.239,1.531
				c1.601-0.318,1.851,1.825-0.093,1.189c-2.365-0.774-4.901,0.12-4.901,0.12l2.537-4.315l-0.135-0.866l-1.887,0.408
				c0,0-1.32,3.26-2.616,4.828c0.347,0.74,0.677,1.444,0.677,1.444s4.361-0.859,6.082-0.312c1.964,0.623,3.259,0.318,3.423-0.923
				c0.257-1.949-1.614-2.241-1.614-2.241s0.632-1.085-0.759-1.458c0.051-0.167,0.179-0.355,0.179-0.355L1028.68,234.766z"/>
		</g>
		<g>
			<path fill="#60AA31" d="M981.327,213.079c-0.142,0-0.318,0.011-0.53,0.033c-0.065,0-0.149-0.016-0.25-0.049l-0.125,0.049
				c-0.078-0.043-0.197-0.098-0.356-0.163l0.011-0.049c0.002-0.011,0.01-0.022,0.023-0.033h-0.016l-0.069,0.016
				c-0.041-0.011-0.112-0.038-0.211-0.082c-0.076,0-0.197,0.006-0.363,0.016c-0.033,0-0.079-0.011-0.14-0.033
				c-0.063-0.011-0.168,0.022-0.315,0.098l-0.002-0.065h-0.033l-0.042-0.033h-0.033l-0.023,0.033l-0.045-0.016h-0.065
				c-0.037,0.022-0.076,0.049-0.116,0.082l-0.102,0.016l-0.074-0.033c-0.035,0.011-0.232,0.016-0.591,0.016
				c-0.272,0-0.527,0.169-0.764,0.506c-0.199,0.261-0.332,0.544-0.398,0.849c-0.095,0.435,0.012,0.811,0.325,1.127
				c0.304,0.25,0.609,0.501,0.913,0.751c0.252,0.24,0.624,0.626,1.117,1.159c0.235,0.316,0.398,0.865,0.487,1.649
				c0.026,0.327,0.004,0.653-0.068,0.98c-0.114,0.522-0.36,1.072-0.737,1.649c-0.385,0.316-0.596,0.484-0.633,0.506
				c-0.219,0.152-0.465,0.261-0.741,0.327c-0.163,0-0.411,0.038-0.744,0.114l-0.299,0.098c0,0-0.203-0.104-0.3-0.082
				c-0.098,0.022-0.162,0.033-0.195,0.033c-0.03-0.011-0.301,0.053-0.301,0.053s-0.303-0.033-0.517-0.098
				c-1.002-0.098-1.811-0.619-2.429-1.228c0.012-0.055,0.02-0.092,0.025-0.114c-0.02-0.011-0.033-0.027-0.039-0.049
				c-0.009-0.207,0.004-0.316,0.039-0.327c0,0,0.033-0.076,0.082,0l0.085-0.016c0.024-0.011,0.049-0.027,0.076-0.049l-0.002-0.065
				l0.114-0.147c0.006,0.022,0.027,0.049,0.064,0.082l0.045,0.016l0.018-0.082c0.002-0.011-0.003-0.063-0.015-0.155
				s-0.016-0.15-0.011-0.171c0.002-0.011,0.008-0.038,0.018-0.082l-0.013-0.016c0.076,0,0.165,0.141,0.266,0.424
				c0.06,0.174,0.215,0.457,0.467,0.849c0.062,0.065,0.269,0.199,0.412,0.294c0.144,0.094,0.483,0.177,0.52,0.209
				c0.598,0,1.129-0.1,1.747-0.438c0.693-0.381,1.102-0.855,1.226-1.42c0.019-0.087,0.029-0.21,0.031-0.367
				c0.002-0.158,0.011-0.275,0.028-0.351c-0.276-0.479-0.492-0.784-0.648-0.914c-0.308-0.185-0.616-0.37-0.923-0.555
				c-0.126-0.022-0.294-0.076-0.503-0.163c-0.069-0.033-0.125-0.098-0.169-0.196c-0.072-0.12-0.115-0.196-0.129-0.229
				c-0.71-0.784-0.921-1.834-0.632-3.151c0.04-0.185,0.093-0.327,0.158-0.424c0.105-0.381,0.23-0.653,0.375-0.816l-0.026-0.033
				c0.269-0.631,0.757-1.143,1.463-1.535c0.658-0.37,1.324-0.555,1.999-0.555c0.74,0,1.27,0.093,1.588,0.278
				c0.12,0.098,0.321,0.223,0.603,0.376c0.22,0.185,0.366,0.316,0.437,0.392c0.024,0.087,0.087,0.201,0.186,0.343L981.327,213.079z"
				/>
			<path fill="#60AA31" d="M987.304,218.46c-0.102,0.463-0.419,0.913-0.953,1.351c-0.05,0-0.102,0.022-0.155,0.066
				c-0.054,0.044-0.093,0.097-0.12,0.16c-0.071,0.038-0.164,0.119-0.279,0.244l-0.098,0.019l-0.034-0.019
				c-0.34,0.526-0.748,0.814-1.222,0.864l-0.268,0.282l-0.209-0.075c-0.246,0.038-0.492,0.075-0.738,0.112
				c-0.284,0.038-0.525,0.113-0.725,0.225c-0.05,0-0.13-0.006-0.24-0.019c-0.11-0.012-0.19-0.019-0.24-0.019
				c-0.028,0.013-0.068,0.025-0.121,0.038c-0.157,0.375-0.302,0.863-0.434,1.464l-0.045,0.206c0,0-0.248,0.532-0.246,0.695
				c-0.163,0.288-0.255,0.707-0.273,0.732c-0.047,0.1-0.363,1.113-0.568,1.652l-0.121,0.038l-0.023-0.15l-0.022-0.248
				c0,0-0.084-0.465-0.092-0.427l-0.377,0.263l0.084-0.469l-0.23,0.019c0,0-0.159,0.526-0.283,0.863l-0.1-0.488
				c0.008-0.038-0.231,0.281-0.251,0.544c0.007-0.088,0.008-0.181,0.005-0.281h-0.038l1.674-7.639
				c0.433-1.977,0.92-3.172,1.462-3.585c0.183-0.038,0.431-0.113,0.744-0.225l0.144,0.113l0.163-0.056l0.05-0.056h0.056
				c0.025,0,0.063,0,0.113,0c0.06,0.013,0.102,0.019,0.127,0.019l0.021,0.075l0.084-0.038c0.062,0,0.146-0.012,0.252-0.038
				l0.044,0.056c0.032,0.025,0.073,0.038,0.123,0.038l0.117,0.15c0.106-0.087,0.292-0.131,0.554-0.131c0.1,0,0.403,0.1,0.91,0.3
				c0.399,0.175,0.689,0.338,0.869,0.488c0.315,0.275,0.569,0.713,0.763,1.314C987.355,217.484,987.403,218.01,987.304,218.46z
				 M984.98,218.272c0.072-0.325-0.035-0.61-0.319-0.854s-0.596-0.366-0.934-0.366c-0.038,0-0.083,0.007-0.135,0.019
				c-0.087,0.113-0.172,0.244-0.255,0.394s-0.279,0.716-0.588,1.699s-0.492,1.605-0.55,1.868c0.254-0.075,0.5-0.169,0.738-0.282
				c0.391-0.188,0.807-0.544,1.248-1.07C984.624,219.154,984.89,218.685,984.98,218.272z"/>
			<path fill="#60AA31" d="M994.588,217.972c-0.043,0.196-0.315,0.642-0.816,1.339v-0.147l-0.055-0.049l-0.262-0.294
				c0,0-0.076-0.076-0.208,0.131c-0.001-0.043,0.002-0.082,0.009-0.114c0.005-0.022-0.094-0.19-0.307-0.016
				c0.008-0.087,0.007-0.158-0.003-0.212l-0.043,0.049l0.043-0.196c-0.679,0.12-1.365,0.294-2.057,0.522
				c-0.247,0.087-0.633,0.207-1.156,0.359c-0.078,0.109-0.164,0.376-0.257,0.8c-0.227,1.034-0.065,1.687,0.485,1.959
				c0.171,0.065,0.427,0.163,0.768,0.294c0.279-0.033,0.694-0.163,1.245-0.392c0.601-0.261,1.028-0.419,1.279-0.473l0.056-0.033
				c0.037-0.022,0.104-0.055,0.201-0.098l0.038,0.049c-0.434,0.239-0.795,0.577-1.218,0.816c-0.504,0.261-1.02,0.521-1.416,0.641
				c-0.328,0.055-1.036,0.265-1.492,0.159c-0.829-0.191-1.371-0.547-1.63-1.053c-0.259-0.506-0.289-1.216-0.088-2.131
				c0.165-0.751,0.304-1.263,0.418-1.535c0.271-0.642,0.725-1.295,1.36-1.959c0.717-0.74,1.367-1.148,1.95-1.224
				c-0.003,0.011,0.007,0.016,0.029,0.016c0.406-0.261,0.782-0.392,1.131-0.392c0.577,0,1.086,0.384,1.527,1.151
				C994.56,216.706,994.716,217.384,994.588,217.972z M992.98,218.005c-0.187-0.686-0.505-1.121-0.954-1.306
				c-0.245,0.022-0.52,0.185-0.826,0.49c-0.132,0.055-0.367,0.332-0.705,0.833c-0.124,0.12-0.281,0.316-0.472,0.588
				c0.243-0.065,0.736-0.152,1.478-0.261C992.119,218.26,992.612,218.146,992.98,218.005z"/>
			<path fill="#60AA31" d="M1001.609,217.972c-0.043,0.196-0.315,0.642-0.816,1.339h-0.033c0.007-0.033-0.022-0.196-0.022-0.196
				l-0.145,0.065c0.013-0.109-0.06-0.37-0.085-0.359c0,0-0.239,0.049-0.232,0.016c0.005-0.022,0.059-0.343,0.059-0.343
				s-0.358,0.169-0.368,0.114l-0.043,0.049l0.043-0.196c-0.679,0.12-1.365,0.294-2.057,0.522c-0.248,0.087-0.633,0.207-1.156,0.359
				c-0.078,0.109-0.164,0.376-0.257,0.8c-0.227,1.034-0.065,1.687,0.485,1.959c0.171,0.065,0.427,0.163,0.768,0.294
				c0.279-0.033,0.694-0.163,1.245-0.392c0.602-0.261,1.028-0.419,1.279-0.473l0.056-0.033c0.037-0.022,0.104-0.055,0.201-0.098
				l0.038,0.049c-0.434,0.239-0.754,0.535-1.176,0.774c-0.504,0.261-1.012,0.477-1.458,0.683c-0.362,0.167-0.98,0.251-1.492,0.159
				c-0.838-0.149-1.371-0.547-1.63-1.053c-0.259-0.506-0.289-1.216-0.088-2.131c0.165-0.751,0.304-1.263,0.418-1.535
				c0.271-0.642,0.725-1.295,1.36-1.959c0.717-0.74,1.367-1.148,1.95-1.224c-0.003,0.011,0.007,0.016,0.029,0.016
				c0.406-0.261,0.782-0.392,1.131-0.392c0.577,0,1.086,0.384,1.527,1.151C1001.582,216.706,1001.738,217.384,1001.609,217.972z
				 M1000.002,218.005c-0.187-0.686-0.505-1.121-0.954-1.306c-0.245,0.022-0.52,0.185-0.826,0.49
				c-0.132,0.055-0.367,0.332-0.705,0.833c-0.124,0.12-0.281,0.316-0.472,0.588c0.243-0.065,0.736-0.152,1.478-0.261
				C999.14,218.26,999.633,218.146,1000.002,218.005z"/>
			<path fill="#60AA31" d="M1009.863,211.328c-0.363,0.762-0.683,1.649-0.959,2.661c-0.115,0.424-0.322,1.322-0.623,2.694
				l-0.103,0.245c0,0-0.097,0.441-0.104,0.473c0,0-0.025,0.016-0.004,0.016c-0.007,0.033-0.027,0.087-0.06,0.163
				c-0.033,0.076-0.059,0.234-0.036,0.278l-0.014,0.065l-0.072,0.327l-0.023,0.033c-0.038,0.022-0.141,0.544-0.249,1.437l0.04-0.033
				l-0.095,0.359c-0.076,0.348-0.153,0.843-0.228,1.486c-0.074,0.686-0.215,1.502-0.215,1.502l0.019-0.715l-0.122,0.107
				l-0.003-0.176l-0.185,0.552l-0.028-0.467l-0.084,0.132c-0.016-0.076,0.02-0.432,0.02-0.432s-0.132,0.764-0.173,0.655
				l-0.035-0.404l-0.084,0.258l-0.12,0.163l-0.27,0.114l-0.01-0.18l-0.009-0.033c0.061-0.326,0.056-0.702,0.056-0.702l-0.012-0.539
				c-0.116,0.033-0.608,0.239-1.475,0.62c-0.758,0.327-1.218,0.49-1.381,0.49c-0.022,0-0.111-0.016-0.267-0.049
				c-0.611-0.141-1.008-0.419-1.189-0.833c-0.159-0.37-0.161-0.904-0.008-1.6c0.105-0.479,0.385-1.061,0.84-1.747
				c0.408-0.62,0.82-1.083,1.235-1.388c0.466-0.337,1.025-0.555,1.678-0.653l0.047-0.065c0.037-0.022,0.078-0.033,0.121-0.033
				l0.062,0.016c0.255-0.12,0.466-0.141,0.635-0.065l0.442-0.081c0.095-0.882,0.243-1.78,0.444-2.694
				c0.288-1.317,0.607-2.073,0.954-2.269c0.14-0.043,0.356-0.109,0.647-0.196l0.029,0.016l0.045,0.016l0.054-0.098l0.044,0.098
				l0.038-0.098l0.067,0.065l0.165-0.082l0.013,0.016h0.033c0.033,0,0.045-0.006,0.036-0.016l-0.002,0.082l0.04-0.033
				c0.02-0.043,0.045-0.082,0.074-0.114l0.025,0.033l0.238,0.033C1009.798,210.827,1009.831,211.023,1009.863,211.328z
				 M1006.086,221.107c0.001-0.751,0.121-1.818,0.359-3.2c-0.186-0.043-0.241-0.065-0.165-0.065
				c-0.013,0.011-0.031,0.016-0.053,0.016s-0.046,0.011-0.073,0.033l0.006,0.049l-0.045-0.016c-0.024,0.011-0.039,0.027-0.043,0.049
				l-0.038-0.049c-0.052-0.011-0.105-0.016-0.16-0.016l0.002,0.065c-0.283,0-0.474,0.027-0.573,0.082
				c-0.157,0.12-0.321,0.245-0.49,0.376l-0.085,0.016l-0.087,0.098c-0.099,0.055-0.176,0.144-0.231,0.269s-0.105,0.242-0.151,0.351
				c-0.036,0.065-0.125,0.188-0.268,0.367c-0.143,0.18-0.227,0.329-0.253,0.449c-0.012,0.055-0.013,0.109-0.003,0.163
				c-0.091,0.218-0.087,0.443,0.015,0.678c0.101,0.234,0.251,0.394,0.45,0.482c0.123,0.033,0.279,0.092,0.467,0.18
				c0.207,0,0.462-0.057,0.764-0.171C1005.732,221.197,1005.951,221.129,1006.086,221.107z"/>
			<path fill="#60AA31" d="M1016.481,217.171c-0.089,0.207-0.273,0.452-0.553,0.735c-0.224,0.229-0.448,0.452-0.669,0.669
				c-0.331,0.37-0.827,0.92-1.488,1.649c-0.013,0.011-0.279,0.256-0.798,0.735c-0.317,0.305-0.549,0.566-0.694,0.784
				c-0.059,0.022-0.103,0.049-0.132,0.082c-0.068,0.109-0.168,0.218-0.3,0.327c-0.162,0.141-0.27,0.25-0.325,0.327
				c-0.055,0.076-0.149,0.196-0.283,0.359c-0.013,0.011-0.129,0.114-0.345,0.31c-0.122,0.109-0.198,0.234-0.229,0.376
				c0.024-0.109,0.083-0.229,0.177-0.359l-0.271,0.49h-0.049l-0.166,0.163h0.016c-0.016,0.022-0.036,0.038-0.06,0.049l-0.043,0.049
				c-0.153,0.152-0.287,0.343-0.287,0.343c-0.584,0.479-1.954,2.286-1.954,2.286l0.354-0.666l-0.315,0.193l0.186-0.458
				c0.002-0.011-0.291,0.131-0.291,0.131l0.019-0.327l-0.508,0.561l0.329-0.553l-0.39,0.35l0.557-0.778l0.01-0.167
				c0.548-0.762,0.951-1.312,1.21-1.649c0.46-0.61,0.891-1.137,1.294-1.584c-0.233-0.229-0.418-0.452-0.555-0.669
				c-0.028-0.022-0.14-0.256-0.336-0.702c-0.263-0.588-0.424-0.969-0.484-1.143c-0.087-0.25-0.176-0.664-0.267-1.241
				c-0.053-0.305-0.054-0.571-0.004-0.8c0.019-0.087,0.067-0.18,0.143-0.278l0.04-0.033h0.033l0.035,0.065l0.094-0.131l0.058,0.033
				l0.088-0.18c0.059-0.022,0.116-0.033,0.17-0.033c0.139-0.087,0.344-0.207,0.617-0.359c0.043,0,0.104,0,0.18,0
				c0.368,0.207,0.61,0.62,0.724,1.241c0.07,0.522,0.142,1.039,0.215,1.551c0.077,0.294,0.175,0.74,0.295,1.339
				c0.139-0.141,0.737-0.833,1.793-2.073c0.804-0.936,1.424-1.556,1.861-1.861c0.154-0.109,0.306-0.158,0.456-0.147h0.098
				l-0.011,0.049l-0.021,0.098h0.098l0.031,0.082c-0.013,0.011-0.028,0.027-0.043,0.049l0.009,0.033
				c0.038-0.022,0.091-0.043,0.161-0.065l0.055,0.049l-0.067,0.082c0.063,0.011,0.114,0.027,0.152,0.049l0.018,0.065l0.036-0.016
				c0.008,0.011,0.021,0.027,0.039,0.049l0.013,0.016l-0.029,0.131C1016.248,216.92,1016.349,217.029,1016.481,217.171z"/>
			<path fill="#0075C1" d="M1024.039,219.881l-0.184,0.096l0.028,0.055l-0.686,0.388l0.092,0.05l-0.343,0.131
				c-0.062,0.033-0.15,0.087-0.264,0.163l-0.069,0.016c-0.005,0.022-0.045,0.033-0.121,0.033c-0.293,0.196-0.513,0.354-0.659,0.473
				c-0.325,0.141-0.662,0.288-1.011,0.441l-0.062-0.016c-0.064,0.043-0.103,0.098-0.118,0.163c-0.254,0.065-0.614,0.196-1.082,0.392
				c-0.187,0.011-0.415,0.055-0.682,0.131l-0.059,0.049c-0.071-0.022-0.256-0.098-0.554-0.229c-0.259-0.109-0.438-0.163-0.536-0.163
				l0.018-0.082l-0.026-0.033c-0.033,0-0.066,0.006-0.101,0.016l-0.075-0.033l-0.038-0.049l-0.094-0.016
				c-0.124-0.131-0.29-0.343-0.497-0.637c-0.415-0.74-0.505-1.643-0.271-2.71c0.165-0.751,0.395-1.431,0.692-2.041
				c0.156-0.315,0.527-0.963,1.112-1.943c0.144-0.163,0.366-0.403,0.664-0.718c1.196-1.437,2.325-2.34,3.386-2.71
				c0.199-0.065,0.625-0.098,1.278-0.098c0.055,0,0.089,0.016,0.104,0.049c0.061,0.022,0.18,0.098,0.358,0.229
				c0.195,0.055,0.373,0.136,0.534,0.245c0.201,0.174,0.305,0.294,0.313,0.359c0.006,0.022-0.034,0.229-0.12,0.62l-0.057,0.261
				c-0.068,0.011-0.159,0.082-0.275,0.212c-0.134,0.163-0.214,0.256-0.24,0.278c-0.027,0.022-0.156,0.092-0.389,0.212
				c-0.041-0.011-0.116-0.016-0.225-0.016h-0.131c0.006,0.022,0.016,0.049,0.031,0.082l0.02-0.016l0.192,0.016l-0.151,0.016
				l-0.123-0.033c-0.09,0.011-0.156,0.016-0.2,0.016c0.008,0.011,0.022,0.022,0.042,0.033l-0.011,0.049
				c-0.348,0-0.91,0.204-1.685,0.612s-1.268,0.77-1.479,1.086l0.019,0.065c-0.743,0.708-1.255,1.704-1.537,2.988
				c-0.179,0.816,0.001,1.562,0.538,2.237c0.165,0.043,0.328,0.065,0.492,0.065c0.794,0,1.805-0.365,3.031-1.094
				c0.235-0.131,0.458-0.229,0.668-0.294l0.195-0.052l0.03,0.068l-0.036,0.177l0.192-0.059l0.101,0.073l-0.071,0.154l0.245-0.022
				l-0.149,0.126l-0.031,0.052L1024.039,219.881z M1018.828,217.564l-0.056,0.033c-0.031,0.043-0.053,0.092-0.065,0.147l0.022,0.049
				c0.016-0.022,0.034-0.082,0.056-0.18L1018.828,217.564z M1018.598,218.462l0.057-0.261l-0.04,0.033
				C1018.594,218.332,1018.588,218.408,1018.598,218.462z"/>
			<path fill="#0075C1" d="M1029.117,211.524c-0.007,0.033-0.23,0.604-0.67,1.714c-0.273,0.696-0.455,1.257-0.548,1.682
				c-0.026,0.12-0.162,0.49-0.406,1.11l0.056,0.114c-0.027,0.076-0.133,0.31-0.133,0.31c-0.027,0.022-0.09,0.153-0.084,0.196
				c0.007,0.044,0.009,0.071,0.007,0.082c-0.055,0.251-0.23,0.778-0.527,1.584c0.008,0.065,0.003,0.136-0.014,0.212l-0.023,0.033
				c-0.054,0.098-0.122,0.332-0.203,0.702c0,0-0.005,0.174,0.023,0.196l-0.018,0.082c-0.086,0.141-0.179,0.419-0.281,0.833
				c-0.064,0.294-0.135,0.593-0.213,0.898c0,0-0.4,1.192-0.388,1.061c0.012-0.131,0.04-0.294,0.04-0.294l-0.094-0.162l-0.204,0.33
				l-0.136-0.054l-0.265-0.131l0.027-0.175l-0.129,0.045l-0.032-0.145c0,0-0.209,0.38-0.269,0.554
				c-0.01-0.152-0.019-0.386-0.026-0.702c0.049-0.272,0.108-0.691,0.178-1.257c0.013-0.457,0.14-1.235,0.381-2.335l0.612-2.792
				c0.575-2.623,1.103-4.065,1.585-4.327c0.105-0.033,0.252-0.082,0.441-0.147l0.083,0.065l0.074-0.114h0.016
				c0.046-0.011,0.085-0.016,0.118-0.016l0.029,0.016c0.004,0.033,0.015,0.055,0.035,0.065l0.029,0.016l0.12-0.098l0.116,0.065
				c0.034-0.054,0.061-0.103,0.081-0.147l0.048,0.082c0.059-0.022,0.147-0.049,0.262-0.082l0.156,0.033l0.007-0.033
				C1029.038,210.669,1029.084,210.979,1029.117,211.524z"/>
			<path fill="#0075C1" d="M1046.432,215.935c-0.043,0.196-0.134,0.463-0.273,0.8c-0.185,0.447-0.291,0.708-0.319,0.784
				c-0.147,0.522-0.372,1.301-0.675,2.335c-0.169,0.522-0.236,0.806-0.202,0.849l-0.358,1.131c0.01-0.043-0.09,0.064-0.09,0.064
				l-0.135,0.443c-0.036-0.087-0.082-0.148-0.082-0.148c0.004-0.065-0.07-0.131-0.07-0.131l-0.067,0.202l-0.052-0.179
				c-0.008-0.011-0.089,0.057-0.089,0.057l-0.053-0.08l-0.109,0.122l-0.056-0.169l-0.098,0.024c0,0-0.093,0.077-0.111,0.164
				l-0.096,0.059l-0.117-0.031l-0.098,0.197l-0.073-0.109c0,0,0.012,0.003,0.047-0.405s0.044-0.532,0.028-0.706
				c-1.024,0.599-1.929,0.98-2.716,1.143c-0.145-0.033-0.247-0.038-0.307-0.016c-0.509-0.109-0.793-0.479-0.851-1.11
				c-0.028-0.37,0.038-0.92,0.198-1.649c0.177-0.806,0.459-1.6,0.849-2.384c0.513-1.001,1.064-1.655,1.654-1.959
				c0.182-0.087,0.349-0.125,0.499-0.114l0.09-0.114h0.114l0.015,0.082l0.159-0.131c0.306,0.294,0.414,0.593,0.326,0.898
				l-0.018,0.082l-0.134,0.016l0.02,0.13l0.085-0.016l0.026,0.033c-0.19,0.272-0.322,0.501-0.395,0.686
				c-0.092,0.12-0.213,0.278-0.365,0.474c-0.031,0.043-0.052,0.087-0.061,0.131c-0.126,0.229-0.298,0.566-0.516,1.012l0.035,0.065
				c-0.114,0.174-0.205,0.367-0.274,0.58c-0.068,0.212-0.136,0.422-0.203,0.629c-0.088,0.25-0.129,0.365-0.124,0.343
				c-0.057,0.261-0.023,0.49,0.103,0.686s0.314,0.294,0.564,0.294c0.294,0,0.592-0.082,0.894-0.245s0.484-0.381,0.543-0.653
				c0.3-1.469,0.455-2.226,0.465-2.269c0.088-0.403,0.229-0.898,0.424-1.486c0.248-0.783,0.458-1.246,0.63-1.388
				c0.056-0.055,0.13-0.098,0.225-0.131l0.038,0.049l0.143-0.131c-0.005,0.022-0.004,0.043,0.002,0.065
				c0.02-0.043,0.052-0.087,0.094-0.131l0.052-0.016c0.03,0.011,0.059,0.027,0.088,0.049l0.047-0.065l0.077,0.098l0.067-0.082
				l0.017,0.147l0.054-0.098h0.065l0.083-0.082c-0.013,0.011,0.006,0.022,0.058,0.033l0.002,0.065
				c0.097-0.043,0.18-0.076,0.25-0.098l0.044,0.098l0.087-0.098C1046.586,214.912,1046.561,215.347,1046.432,215.935z"/>
			<path fill="#0075C1" d="M1053.999,211.328c-0.363,0.762-0.682,1.649-0.959,2.661c-0.115,0.424-0.323,1.322-0.623,2.694
				l-0.103,0.245l-0.218,0.996l-0.072,0.327l-0.234,1.437l-0.095,0.359c-0.076,0.348-0.152,0.843-0.228,1.486
				c-0.074,0.686-0.18,0.959-0.18,0.959l-0.085-0.155l-0.084-0.136l-0.129-0.115l-0.038,0.176h-0.063l-0.084-0.051l-0.122,0.223
				l-0.125-0.146l-0.167,0.104l-0.202,0.096l-0.019-0.212l-0.009-0.225l0.053-0.681c-0.116,0.033-0.608,0.239-1.475,0.62
				c-0.757,0.327-1.218,0.49-1.381,0.49c-0.022,0-0.111-0.016-0.267-0.049c-0.611-0.141-1.008-0.419-1.189-0.833
				c-0.158-0.37-0.161-0.904-0.008-1.6c0.105-0.479,0.385-1.061,0.84-1.747c0.408-0.62,0.82-1.083,1.235-1.388
				c0.466-0.337,1.025-0.555,1.678-0.653l0.047-0.065c0.038-0.022,0.078-0.033,0.121-0.033l0.062,0.016
				c0.255-0.12,0.466-0.141,0.635-0.065l0.442-0.081c0.095-0.882,0.243-1.78,0.443-2.694c0.289-1.317,0.607-2.073,0.954-2.269
				c0.14-0.043,0.356-0.109,0.647-0.196l0.029,0.016l0.045,0.016l0.054-0.098l0.044,0.098l0.038-0.098l0.067,0.065l0.165-0.082
				l0.013,0.016h0.033c0.033,0,0.044-0.006,0.036-0.016l-0.002,0.082l0.04-0.033c0.02-0.043,0.045-0.082,0.074-0.114l0.025,0.033
				l0.238,0.033C1053.934,210.827,1053.968,211.023,1053.999,211.328z M1050.223,221.107c0.001-0.751,0.121-1.818,0.359-3.2
				c-0.186-0.043-0.241-0.065-0.165-0.065c-0.013,0.011-0.031,0.016-0.052,0.016c-0.022,0-0.046,0.011-0.073,0.033l0.005,0.049
				l-0.045-0.016c-0.024,0.011-0.039,0.027-0.043,0.049l-0.038-0.049c-0.052-0.011-0.105-0.016-0.16-0.016l0.002,0.065
				c-0.283,0-0.474,0.027-0.573,0.082c-0.157,0.12-0.32,0.245-0.49,0.376l-0.085,0.016l-0.087,0.098
				c-0.099,0.055-0.176,0.144-0.23,0.269s-0.105,0.242-0.151,0.351c-0.036,0.065-0.125,0.188-0.268,0.367
				c-0.143,0.18-0.228,0.329-0.254,0.449c-0.012,0.055-0.013,0.109-0.003,0.163c-0.091,0.218-0.087,0.443,0.015,0.678
				c0.101,0.234,0.251,0.394,0.449,0.482c0.124,0.033,0.279,0.092,0.467,0.18c0.207,0,0.461-0.057,0.764-0.171
				C1049.868,221.197,1050.087,221.129,1050.223,221.107z"/>
			<path fill="#0075C1" d="M1034.759,216.185l0.596,0.857c0,0,0.097-0.243,0.148-0.353c0.418,0.413,0.606,1.39-0.206,2.507
				c2.33-0.591,2.5,1.888,0.742,1.568c-2.721-0.496-3.731-0.165-4.495,0.104c-1.292,0.455-2.183,0.257-2.314-0.53
				c-0.249-1.495,2.074-1.361,2.074-1.361s-0.892-1.21-0.283-2.3c0.349-0.626,1.153-0.877,1.842-0.767
				c-0.128,0.261-0.257,0.663-0.257,0.663l1.514-0.594l-0.843-1.121c0,0-0.166,0.396-0.265,0.662
				c-0.326-0.172-1.665-0.388-2.46,0.487c-0.795,0.876-0.449,1.664-0.344,2.331c-1.355-0.165-2.838,0.791-2.293,2.779
				c0.337,1.226,1.805,1.517,3.194,0.824c1.125-0.562,2.729-0.919,4.246-0.068c1.393,0.781,2.959,0.089,3.19-1.3
				c0.367-2.202-2.098-2.137-2.098-2.137s0.606-1.547-0.77-2.017c0.062-0.188,0.217-0.4,0.217-0.4L1034.759,216.185z"/>
		</g>
	</g>
	<g>
		<g>
			<polygon fill="#0083CC" points="911.476,220.748 911.479,220.752 911.479,220.745 			"/>
			<polygon fill="#0083CC" points="909.089,220.749 909.089,220.748 909.088,220.749 			"/>
			<rect x="902.148" y="216.366" fill="#0083CC" width="3.531" height="11.636"/>
			<polygon fill="#0083CC" points="900.609,220.083 903.1,213.459 905.823,213.459 903.333,220.083 			"/>
			<path fill="#0083CC" d="M915.886,216.358h-0.766v-2.933h-3.531v2.933h-5.379v1.172h5.379v8.888
				c-0.007,0.26-0.22,0.47-0.487,0.482h-1.443v1.172h1.93h1.551h0.246c0.958,0,1.734-0.752,1.734-1.679v-8.864h0.766V216.358z"/>
			<path fill="#0083CC" d="M911.071,221.574l-0.003-0.002c-1.035-0.492-1.876-1.306-2.384-2.307l0,0l0,0l0.001-0.001h-0.002
				l0.001,0.001l-0.005,0.005c-0.507,0.998-1.345,1.809-2.376,2.3l-0.006,0.005l0.001-0.001l0.003,0.003
				c1.035,0.491,1.876,1.305,2.384,2.307l0.005-0.004c0.507-0.998,1.345-1.809,2.376-2.3L911.071,221.574z"/>
			<g>
				<path fill="#0083CC" d="M929.194,227.144l-0.007-0.031C929.189,227.124,929.192,227.134,929.194,227.144z"/>
				<path fill="#0083CC" d="M929.02,226.105l-0.04-0.173C928.991,225.99,929.005,226.048,929.02,226.105z"/>
				<polygon fill="#0083CC" points="933.581,215.929 931.277,216.159 930.688,213.859 933.016,213.626 				"/>
				<rect x="921.099" y="214.789" fill="#0083CC" width="3.566" height="1.172"/>
				<rect x="918.862" y="217.779" fill="#0083CC" width="5.799" height="1.172"/>
				<rect x="918.862" y="220.832" fill="#0083CC" width="5.799" height="1.172"/>
				<polygon fill="#0083CC" points="918.895,217.419 920.663,213.421 923.303,213.421 921.535,217.419 				"/>
				<path fill="#0083CC" d="M923.287,218.482v5.157l-0.02,2.491c0,0.37,0.312,0.669,0.679,0.687h0.908v1.258h-2.461
					c0,0-0.069,0-0.104,0c-1.295,0-2.345-1.045-2.345-2.333v-7.26H923.287z"/>
				<polygon fill="#0083CC" points="933.956,221.144 925.218,222.094 925.218,220.832 933.956,219.881 				"/>
				<polygon fill="#0083CC" points="933.956,218 925.218,218.951 925.218,217.688 933.956,216.738 				"/>
				<polygon fill="#0083CC" points="933.956,224.35 925.514,228.075 925.514,226.813 933.956,223.088 				"/>
				<path fill="#0083CC" d="M933.474,226.814h-0.216l0,0c-0.281-0.008-0.514-0.205-0.567-0.464l-0.617-2.639l-2.397-10.29h-3.53
					l2.987,12.821l0.04,0.173c0.261,0.955,1.157,1.661,2.226,1.661h1.69h0.866v-1.262L933.474,226.814L933.474,226.814z"/>
			</g>
			<g>
				<rect x="943.243" y="226.574" fill="#0083CC" width="8.91" height="1.518"/>
				<polygon fill="#0083CC" points="948.367,227.238 949.724,217.273 952.453,217.474 951.119,227.441 				"/>
				<rect x="936.941" y="216.453" fill="#0083CC" width="6.334" height="1.166"/>
				<rect x="943.685" y="215.352" fill="#0083CC" width="8.78" height="1.503"/>
				<polygon fill="#0083CC" points="943.227,221.855 937.148,224.13 936.988,222.975 943.067,220.701 				"/>
				<path fill="#0083CC" d="M938.709,213.44v11.458v1.527c0,0.266-0.316,0.482-0.688,0.495h-0.9v1.172h2.494c0,0,0.07,0,0.106,0
					c1.312,0,2.376-0.752,2.376-1.679V213.44H938.709z"/>
				<polygon fill="#0083CC" points="943.731,217.987 946.221,217.063 947.757,225.342 945.267,226.266 				"/>
				<rect x="946.443" y="213.405" fill="#0083CC" width="3.501" height="2.808"/>
			</g>
			<g>
				<path fill="#0083CC" d="M888.513,210.605l-0.009-0.009l-3.734,3.236l0,0l-0.002,0.002l0,0l0,0l0.001,0.001
					c1.471,2.997,3.907,5.434,6.905,6.905l0.009,0.009l3.238-3.737l-0.021-0.021C892.173,215.566,889.939,213.331,888.513,210.605z"
					/>
				<path fill="#0083CC" d="M881.029,210.597c-1.427,2.733-3.667,4.973-6.401,6.4l-0.016,0.016l3.238,3.737l0.017-0.016
					c2.986-1.469,5.414-3.897,6.883-6.883l0.016-0.016L881.029,210.597z"/>
				<path fill="#0083CC" d="M884.77,227.662l-0.001-0.001c-1.471-2.997-3.907-5.434-6.905-6.905l-0.009-0.009l-3.238,3.737
					l0.006,0.006c2.739,1.428,4.982,3.671,6.41,6.41l3.734-3.236l0,0L884.77,227.662L884.77,227.662L884.77,227.662z"/>
				<path fill="#0083CC" d="M888.508,230.896c1.427-2.735,3.668-4.975,6.403-6.402l0.009-0.009l-3.238-3.737l-0.017,0.016
					c-2.986,1.469-5.414,3.897-6.883,6.883l-0.016,0.016l3.737,3.238L888.508,230.896z"/>
			</g>
		</g>
		<g>
			<path fill="#0083CC" d="M874.926,235.956h1.508v3.121c0.237-0.191,0.505-0.428,0.803-0.712l0.133,0.531
				c-0.433,0.405-0.896,0.766-1.389,1.082l-0.189-0.447c0.107-0.084,0.161-0.177,0.161-0.279v-2.814h-1.026L874.926,235.956
				L874.926,235.956z M875.743,233.875c0.475,0.363,0.873,0.726,1.194,1.089l-0.342,0.349c-0.279-0.331-0.68-0.696-1.201-1.096
				L875.743,233.875z M878.759,233.819h0.517v2.255h1.815v0.489h-1.815v2.926h2.081v0.496h-4.113v-0.496h1.515L878.759,233.819
				L878.759,233.819z"/>
			<path fill="#0083CC" d="M890.587,235.816c-0.354,0.214-0.703,0.4-1.047,0.559l-0.293-0.419c1.22-0.545,2.211-1.238,2.974-2.081
				h0.405c0.666,0.829,1.65,1.515,2.954,2.06l-0.286,0.419c-0.349-0.144-0.694-0.317-1.033-0.517v0.384h-1.585v1.006h2.486v0.468
				h-2.486v1.864h0.775c0.237-0.456,0.447-0.945,0.628-1.466l0.461,0.161c-0.177,0.489-0.37,0.924-0.58,1.306h1.445v0.482h-5.97
				v-0.482h1.445c-0.14-0.428-0.326-0.845-0.559-1.25l0.454-0.168c0.209,0.377,0.407,0.85,0.593,1.417h0.803v-1.864h-2.493v-0.468
				h2.493v-1.006h-1.585v-0.405L890.587,235.816L890.587,235.816z M894.141,235.767c-0.68-0.4-1.252-0.873-1.718-1.418
				c-0.531,0.549-1.117,1.022-1.76,1.418H894.141z"/>
			<path fill="#0083CC" d="M903.63,234.098h3.317v0.454h-3.317V234.098z M905.809,240.173l-0.126-0.447l0.489,0.021
				c0.135,0,0.203-0.056,0.203-0.168v-2.241h-2.185v2.884h-0.44v-3.303h3.065v2.758c0,0.33-0.163,0.496-0.489,0.496H905.809z
				 M904.029,234.999h2.507v1.501h-2.507V234.999z M904.426,238.49h0.922c0.126-0.289,0.237-0.601,0.335-0.936l0.349,0.119
				c-0.098,0.307-0.202,0.579-0.314,0.817h0.419v0.391h-0.67v1.257h-0.405v-1.257h-0.635L904.426,238.49L904.426,238.49z
				 M906.088,236.102v-0.712h-1.613v0.712H906.088z M904.832,237.61c0.121,0.21,0.228,0.463,0.321,0.761l-0.321,0.084
				c-0.079-0.242-0.189-0.489-0.328-0.74L904.832,237.61z M907.143,235.048h0.991v-1.201h0.468v1.201h1.013v2.793h-1.013v1.557
				l0.67-0.147c-0.098-0.344-0.186-0.626-0.265-0.845l0.391-0.126c0.2,0.526,0.375,1.117,0.524,1.773l-0.433,0.105l-0.105-0.489
				c-0.722,0.182-1.462,0.326-2.22,0.433l-0.119-0.468c0.284-0.033,0.647-0.084,1.089-0.154v-1.641h-0.991V235.048z
				 M908.162,237.394v-1.899h-0.587v1.899H908.162z M909.182,237.394v-1.899h-0.6v1.899H909.182z"/>
			<path fill="#0083CC" d="M918.056,234.098h5.984v0.468h-2.744v0.607h2.164v2.765h-2.248c-0.084,0.47-0.221,0.84-0.412,1.11
				c0.982,0.414,2.141,0.642,3.477,0.684l-0.126,0.482c-1.392-0.056-2.614-0.324-3.666-0.803c-0.484,0.414-1.285,0.684-2.402,0.81
				l-0.216-0.461c0.978-0.079,1.687-0.277,2.13-0.593c-0.41-0.228-0.784-0.486-1.124-0.775l0.384-0.265
				c0.326,0.27,0.687,0.507,1.082,0.712c0.172-0.247,0.293-0.547,0.363-0.901h-2.046v-2.765h2.137v-0.607h-2.737L918.056,234.098
				L918.056,234.098z M919.152,236.34h1.641v-0.733h-1.641V236.34z M920.772,237.499c0.014-0.163,0.021-0.328,0.021-0.496v-0.244
				h-1.641v0.74H920.772z M922.965,237.499v-0.74h-1.669v0.244l-0.021,0.496H922.965z M921.296,235.606v0.733h1.669v-0.733H921.296z
				"/>
			<path fill="#0083CC" d="M933.257,234.762c-0.195,0.331-0.396,0.614-0.6,0.852l-0.426-0.272c0.419-0.465,0.726-0.98,0.922-1.543
				l0.489,0.105l-0.168,0.419h1.843v0.44h-1.047c0.182,0.251,0.319,0.482,0.412,0.691l-0.447,0.168
				c-0.135-0.289-0.3-0.575-0.496-0.859h-0.482V234.762z M932.712,236.493h0.496v3.736h-0.496V236.493z M933.417,235.453
				c0.381,0.335,0.666,0.617,0.852,0.845l-0.37,0.258c-0.209-0.261-0.493-0.552-0.852-0.873L933.417,235.453z M934.109,236.821
				h2.521v2.632h-2.521V236.821z M934.59,237.925h1.571v-0.684h-1.571V237.925z M936.161,239.028v-0.698h-1.571v0.698H936.161z
				 M936.741,240.201l-0.119-0.454l0.656,0.014c0.177,0,0.265-0.102,0.265-0.307V236.2h-2.709v-0.461h3.205v3.854
				c0,0.405-0.219,0.607-0.656,0.607h-0.642V240.201z M936.224,234.762c-0.144,0.275-0.3,0.519-0.468,0.733l-0.426-0.272
				c0.349-0.437,0.601-0.91,0.754-1.417l0.482,0.105c-0.047,0.149-0.095,0.286-0.147,0.412h2.039v0.44h-1.159
				c0.149,0.21,0.282,0.421,0.398,0.635l-0.447,0.168c-0.14-0.284-0.303-0.552-0.489-0.803L936.224,234.762L936.224,234.762z"/>
			<path fill="#0083CC" d="M947.34,234.908h1.334c-0.214-0.344-0.433-0.645-0.656-0.901l0.44-0.21
				c0.219,0.265,0.44,0.58,0.663,0.943l-0.321,0.168h1.445c0.219-0.363,0.403-0.742,0.552-1.138l0.482,0.175
				c-0.158,0.363-0.333,0.684-0.524,0.964h1.257v2.905h-2.081v0.635h2.849v0.482h-2.849v1.313h-0.51v-1.313h-2.856v-0.482h2.856
				v-0.635h-2.081L947.34,234.908L947.34,234.908z M947.836,236.144h1.585v-0.775h-1.585V236.144z M949.421,237.366v-0.782h-1.585
				v0.782H949.421z M949.931,235.369v0.775h1.578v-0.775H949.931z M951.509,237.366v-0.782h-1.578v0.782H951.509z"/>
		</g>
	</g>
	<rect x="962.487" y="209.964" fill="#0083CC" width="0.926" height="30.912"/>
</g>
<rect x="918.255" y="421.512" fill="#6EB540" width="0.926" height="24.917"/>
<rect x="994.767" y="421.512" fill="#6EB540" width="0.926" height="24.917"/>
<g>
	<path fill="#6EB540" d="M856.896,431.934h7.87c1.071-1.865,1.967-3.491,2.688-4.877l0.942,0.305
		c-1.256,2.347-2.078,3.87-2.466,4.572h15.13v0.942h-5.708c-1.164,3.196-2.624,5.745-4.378,7.648
		c2.882,1.274,5.939,2.845,9.172,4.71l-0.582,0.776c-3.104-1.829-6.198-3.418-9.283-4.767l-0.083,0.083
		c-2.993,2.771-7.131,4.24-12.414,4.406l-0.554-0.887c4.84-0.056,8.802-1.32,11.888-3.796l0.25-0.222
		c-2.642-1.183-5.358-2.217-8.147-3.104c1.126-1.719,2.134-3.335,3.021-4.85h-7.343v-0.939H856.896z M879.896,424.175v5.432h-0.942
		v-4.489h-20.035v4.461h-0.942v-5.403h10.751c-0.425-1.108-0.887-2.115-1.385-3.021l1.025-0.194c0.461,0.869,0.915,1.94,1.358,3.215
		L879.896,424.175L879.896,424.175z M865.376,432.876c-0.998,1.682-1.912,3.149-2.744,4.406c2.512,0.794,5.006,1.745,7.482,2.854
		c1.755-1.81,3.177-4.229,4.268-7.26H865.376z"/>
	<path fill="#6EB540" d="M896.994,421.403c3.583,3.824,7.648,6.799,12.192,8.923l-0.471,0.804c-4.674-2.253-8.692-5.2-12.054-8.84
		c-3.104,3.529-7.159,6.559-12.165,9.09l-0.443-0.832c4.914-2.438,9.006-5.486,12.275-9.145H896.994z M888.958,430.354h15.462v0.914
		h-7.288v5.875h8.424v0.914h-8.424v6.346h10.946v0.942h-22.806v-0.942h10.918v-6.346h-8.452v-0.914h8.452v-5.875h-7.232V430.354z"/>
	<path fill="#6EB540" d="M930.634,424.119c3.288-0.425,6.152-1.154,8.59-2.188l0.333,0.914c-1.219,0.499-2.466,0.905-3.741,1.22
		v5.043h3.63v0.914h-3.63v1.746c1.275,1.423,2.55,3.012,3.824,4.766l-0.526,0.776c-1.219-1.847-2.319-3.381-3.298-4.6v13.717h-0.914
		v-14.243c-0.998,2.992-2.411,5.652-4.24,7.98l-0.388-0.97c2.198-2.679,3.731-5.736,4.6-9.173h-4.323v-0.914h4.351v-4.821
		c-1.201,0.276-2.568,0.535-4.101,0.775L930.634,424.119z M941.746,439.499c-0.48,2.31-1.155,4.276-2.023,5.902l-0.776-0.526
		c0.85-1.589,1.497-3.437,1.94-5.543L941.746,439.499z M952.885,436.866h-11.749v-0.859h10.834v-2.909h-10.225v-0.887h10.225v-2.882
		h-10.668v-0.887h6.263c1.071-1.164,2.106-2.567,3.104-4.212h-6.207c-1.108,1.607-2.624,3.058-4.544,4.351l-0.554-0.748
		c2.863-1.903,4.794-4.185,5.792-6.845l0.942,0.11c-0.296,0.776-0.656,1.534-1.081,2.272h6.706v0.721
		c-1.035,1.773-2.069,3.224-3.104,4.351h4.268v8.424L952.885,436.866L952.885,436.866z M945.431,446.066
		c-1.293,0-1.939-0.601-1.939-1.802v-5.598h0.887v5.432c0,0.721,0.443,1.081,1.33,1.081h3.131c0.646,0,1.108-0.111,1.386-0.333
		c0.314-0.314,0.545-1.229,0.693-2.743l0.831,0.249c-0.111,1.7-0.406,2.78-0.887,3.242c-0.406,0.314-1.025,0.472-1.856,0.472
		L945.431,446.066L945.431,446.066z M946.678,438.391c1.164,1.403,2.041,2.596,2.632,3.574l-0.748,0.499
		c-0.647-1.108-1.515-2.31-2.605-3.603L946.678,438.391z M952.636,438.889c1.108,1.848,2.032,3.714,2.771,5.598l-0.803,0.333
		c-0.85-2.143-1.792-4.027-2.827-5.653L952.636,438.889z"/>
	<path fill="#6EB540" d="M962.557,429.717h16.017v0.942h-7.427v6.013h8.729v0.915h-8.729v6.733c1.902,0.313,4.313,0.489,7.232,0.526
		c1.422,0,2.909-0.027,4.461-0.083l-0.166,0.97h-3.879c-5.229,0-8.979-0.499-11.251-1.496c-1.977-0.942-3.528-2.503-4.655-4.684
		c-1.108,2.68-2.494,4.924-4.156,6.734l-0.61-0.748c2.734-2.993,4.59-7.048,5.57-12.165l0.914,0.166
		c-0.351,1.773-0.794,3.437-1.33,4.988c1.386,2.771,3.122,4.488,5.21,5.153c0.554,0.185,1.127,0.342,1.718,0.472v-13.495h-7.647
		v-0.941H962.557z M981.427,424.286v5.348h-0.941v-4.406H960.59v4.518h-0.942v-5.459h10.862c-0.462-1.164-0.979-2.235-1.552-3.215
		l0.998-0.166c0.554,1.034,1.053,2.161,1.496,3.381h9.975L981.427,424.286L981.427,424.286z"/>
	<path fill="#6EB540" d="M1007.696,429.522c-1.035,1.793-2.134,3.372-3.298,4.739l-0.305-0.998c2.826-3.603,4.85-7.602,6.068-11.998
		l0.859,0.359c-0.684,2.255-1.487,4.314-2.411,6.18v18.4h-0.914L1007.696,429.522L1007.696,429.522z M1012.49,422.65h16.377v0.942
		h-8.175v3.187h6.816v9.977h-6.845c-0.11,2.271-0.767,4.138-1.967,5.597c3.029,1.792,6.576,2.799,10.641,3.021l-0.249,0.859
		c-4.305-0.222-7.981-1.293-11.029-3.215c-1.479,1.312-3.704,2.374-6.678,3.188l-0.526-0.776c2.844-0.721,4.987-1.69,6.429-2.909
		c-1.59-1.108-2.993-2.393-4.212-3.853l0.748-0.526c1.237,1.46,2.604,2.707,4.101,3.741c1.09-1.403,1.69-3.112,1.802-5.126h-6.762
		v-9.977h6.789v-3.187h-7.26L1012.49,422.65L1012.49,422.65z M1013.875,431.297h5.875v-3.686h-5.875V431.297z M1019.75,435.896
		v-3.741h-5.875v3.741H1019.75z M1020.692,427.611v3.686h5.874v-3.686H1020.692z M1026.566,435.896v-3.741h-5.874v3.741H1026.566z"
		/>
	<path fill="#6EB540" d="M1032.746,445.983l-0.194-0.915c0.831,0.056,1.616,0.083,2.355,0.083c0.775,0,1.164-0.369,1.164-1.108
		v-8.424c-1.275,0.536-2.56,1.007-3.852,1.413l-0.25-0.914c1.459-0.425,2.826-0.905,4.102-1.441v-7.149h-3.852v-0.914h3.852v-5.403
		h0.941v5.403h3.354v0.914h-3.354v6.734c1.201-0.555,2.245-1.09,3.132-1.607v0.942c-1.238,0.665-2.282,1.201-3.132,1.606v9.09
		c0,1.126-0.591,1.69-1.773,1.69H1032.746z M1054.443,436.146h-5.626v3.408h6.43v0.859h-6.43v4.212
		c1.127,0.147,2.42,0.222,3.88,0.222c1.644,0,3.048-0.027,4.212-0.083l-0.277,0.998l-3.852-0.028
		c-3.418-0.019-5.708-0.351-6.872-0.997c-1.108-0.647-2.106-1.894-2.993-3.741c-0.646,2.161-1.598,3.916-2.854,5.265l-0.776-0.554
		c1.792-1.922,2.919-4.562,3.381-7.926l0.942,0.139c-0.111,0.665-0.25,1.349-0.416,2.051c0.905,2.088,1.958,3.427,3.159,4.019
		c0.443,0.202,0.96,0.359,1.552,0.471v-8.313h-5.847v-0.887h5.847v-3.187h-6.65v-0.887h6.65v-3.215h-5.653v-0.858h5.653v-2.799
		h-6.789v-0.887h6.789v-2.272h0.914v2.272h7.371v0.887h-7.371v2.799h5.626v4.073h2.022v0.887h-2.022V436.146z M1048.817,427.971
		v3.215h4.739v-3.215H1048.817z M1053.557,432.072h-4.739v3.187h4.739V432.072z"/>
</g>
<circle fill="#333333" cx="1055.15" cy="363.79" r="1.605"/>
</svg>
